<svg xmlns="http://www.w3.org/2000/svg" xmlns:xlink="http://www.w3.org/1999/xlink" contentStyleType="text/css" height="2015px" preserveAspectRatio="none" style="width:1596px;height:2015px;background:#FFFFFF;" version="1.1" viewBox="0 0 1596 2015" width="1596px" zoomAndPan="magnify"><defs><filter height="300%" id="f1aqb1zvp538t0" width="300%" x="-1" y="-1"><feGaussianBlur result="blurOut" stdDeviation="2.0"/><feColorMatrix in="blurOut" result="blurOut2" type="matrix" values="0 0 0 0 0 0 0 0 0 0 0 0 0 0 0 0 0 0 .4 0"/><feOffset dx="4.0" dy="4.0" in="blurOut2" result="blurOut3"/><feBlend in="SourceGraphic" in2="blurOut3" mode="normal"/></filter></defs><g><!--entity client--><g id="elem_client"><ellipse cx="106.6351" cy="1719.94" fill="#FEFECE" filter="url(#f1aqb1zvp538t0)" rx="8" ry="8" style="stroke:#A80036;stroke-width:2.0;"/><path d="M106.6351,1727.94 L106.6351,1754.94 M93.6351,1735.94 L119.6351,1735.94 M106.6351,1754.94 L93.6351,1769.94 M106.6351,1754.94 L119.6351,1769.94 " fill="none" filter="url(#f1aqb1zvp538t0)" style="stroke:#A80036;stroke-width:2.0;"/><text fill="#000000" font-family="sans-serif" font-size="14" lengthAdjust="spacing" textLength="40.5303" x="86.37" y="1789.9351">Client</text></g><!--entity manager--><g id="elem_manager"><ellipse cx="106.6331" cy="941.94" fill="#FEFECE" filter="url(#f1aqb1zvp538t0)" rx="8" ry="8" style="stroke:#A80036;stroke-width:2.0;"/><path d="M106.6331,949.94 L106.6331,976.94 M93.6331,957.94 L119.6331,957.94 M106.6331,976.94 L93.6331,991.94 M106.6331,976.94 L119.6331,991.94 " fill="none" filter="url(#f1aqb1zvp538t0)" style="stroke:#A80036;stroke-width:2.0;"/><text fill="#000000" font-family="sans-serif" font-size="14" lengthAdjust="spacing" textLength="61.3662" x="75.95" y="1011.9351">Manager</text></g><!--entity coach--><g id="elem_coach"><ellipse cx="106.6351" cy="176.94" fill="#FEFECE" filter="url(#f1aqb1zvp538t0)" rx="8" ry="8" style="stroke:#A80036;stroke-width:2.0;"/><path d="M106.6351,184.94 L106.6351,211.94 M93.6351,192.94 L119.6351,192.94 M106.6351,211.94 L93.6351,226.94 M106.6351,211.94 L119.6351,226.94 " fill="none" filter="url(#f1aqb1zvp538t0)" style="stroke:#A80036;stroke-width:2.0;"/><text fill="#000000" font-family="sans-serif" font-size="14" lengthAdjust="spacing" textLength="43.4902" x="84.89" y="246.9351">Coach</text></g><!--entity worker--><g id="elem_worker"><ellipse cx="495.7203" cy="581.94" fill="#FEFECE" filter="url(#f1aqb1zvp538t0)" rx="8" ry="8" style="stroke:#A80036;stroke-width:2.0;"/><path d="M495.7203,589.94 L495.7203,616.94 M482.7203,597.94 L508.7203,597.94 M495.7203,616.94 L482.7203,631.94 M495.7203,616.94 L508.7203,631.94 " fill="none" filter="url(#f1aqb1zvp538t0)" style="stroke:#A80036;stroke-width:2.0;"/><text fill="#000000" font-family="sans-serif" font-size="14" lengthAdjust="spacing" textLength="50.6406" x="470.4" y="651.9351">Worker</text></g><g id="elem_buyMembership"><ellipse cx="495.7179" cy="1447.5856" fill="#FEFECE" filter="url(#f1aqb1zvp538t0)" rx="79.6779" ry="18.3356" style="stroke:#A80036;stroke-width:1.0;"/><text fill="#000000" font-family="sans-serif" font-size="14" lengthAdjust="spacing" textLength="117.7422" x="435.058" y="1451.0019">Buy Membership</text></g><g id="elem_cancelMembership"><ellipse cx="495.7208" cy="1520.5862" fill="#FEFECE" filter="url(#f1aqb1zvp538t0)" rx="88.5308" ry="20.1062" style="stroke:#A80036;stroke-width:1.0;"/><text fill="#000000" font-family="sans-serif" font-size="14" lengthAdjust="spacing" textLength="138.4072" x="426.5171" y="1523.4328">Cancel Membership</text></g><g id="elem_changePersonalData"><ellipse cx="495.7201" cy="1605.594" fill="#FEFECE" filter="url(#f1aqb1zvp538t0)" rx="138.7201" ry="30.144" style="stroke:#A80036;stroke-width:1.0;"/><text fill="#000000" font-family="sans-serif" font-size="14" lengthAdjust="spacing" textLength="246.9209" x="372.2596" y="1608.4407">Change Membership Personal Data</text></g><g id="elem_signupTraining"><ellipse cx="495.7179" cy="1695.5896" fill="#FEFECE" filter="url(#f1aqb1zvp538t0)" rx="110.4979" ry="24.4996" style="stroke:#A80036;stroke-width:1.0;"/><text fill="#000000" font-family="sans-serif" font-size="14" lengthAdjust="spacing" textLength="186.9561" x="402.2399" y="1698.4363">Signup for training session</text></g><g id="elem_contactCoach"><ellipse cx="495.7178" cy="1772.5896" fill="#FEFECE" filter="url(#f1aqb1zvp538t0)" rx="77.8978" ry="17.9796" style="stroke:#A80036;stroke-width:1.0;"/><text fill="#000000" font-family="sans-serif" font-size="14" lengthAdjust="spacing" textLength="113.3604" x="436.5433" y="1776.2037">Contact a coach</text></g><g id="elem_ExtendSubcription"><ellipse cx="495.7198" cy="1845.594" fill="#FEFECE" filter="url(#f1aqb1zvp538t0)" rx="89.2198" ry="20.244" style="stroke:#A80036;stroke-width:1.0;"/><text fill="#000000" font-family="sans-serif" font-size="14" lengthAdjust="spacing" textLength="139.9727" x="425.7334" y="1848.4406">Extend Membership</text></g><g id="elem_BrowseTrainingSessions"><ellipse cx="999.9063" cy="1847.5913" fill="#FEFECE" filter="url(#f1aqb1zvp538t0)" rx="106.4563" ry="23.6913" style="stroke:#A80036;stroke-width:1.0;"/><text fill="#000000" font-family="sans-serif" font-size="14" lengthAdjust="spacing" textLength="178.1924" x="910.8101" y="1850.4379">Browse Training Sessions</text></g><g id="elem_ClientLogin"><ellipse cx="495.7186" cy="1986.5897" fill="#FEFECE" filter="url(#f1aqb1zvp538t0)" rx="64.3986" ry="15.2797" style="stroke:#A80036;stroke-width:1.0;"/><text fill="#000000" font-family="sans-serif" font-size="14" lengthAdjust="spacing" textLength="77.0068" x="454.2152" y="1990.3373">client login</text></g><g id="elem_setUpSession"><ellipse cx="495.7179" cy="28.5936" fill="#FEFECE" filter="url(#f1aqb1zvp538t0)" rx="100.9679" ry="22.5936" style="stroke:#A80036;stroke-width:1.0;"/><text fill="#000000" font-family="sans-serif" font-size="14" lengthAdjust="spacing" textLength="166.1885" x="412.6237" y="31.4403">Set Up Training Session</text></g><g id="elem_cancelSession"><ellipse cx="999.9066" cy="149.5913" fill="#FEFECE" filter="url(#f1aqb1zvp538t0)" rx="101.3566" ry="22.6713" style="stroke:#A80036;stroke-width:1.0;"/><text fill="#000000" font-family="sans-serif" font-size="14" lengthAdjust="spacing" textLength="167.043" x="916.3851" y="152.438">Cancel Training Session</text></g><g id="elem_contactClients"><ellipse cx="495.7242" cy="174.5868" fill="#FEFECE" filter="url(#f1aqb1zvp538t0)" rx="75.2842" ry="17.4568" style="stroke:#A80036;stroke-width:1.0;"/><text fill="#000000" font-family="sans-serif" font-size="14" lengthAdjust="spacing" textLength="106.7432" x="439.3526" y="178.3344">Contact Clients</text></g><g id="elem_BookGym"><ellipse cx="495.7159" cy="241.5912" fill="#FEFECE" filter="url(#f1aqb1zvp538t0)" rx="62.7559" ry="14.9512" style="stroke:#A80036;stroke-width:1.0;"/><text fill="#000000" font-family="sans-serif" font-size="14" lengthAdjust="spacing" textLength="72.0645" x="456.6837" y="245.3387">Book Gym</text></g><g id="elem_SwitchGym"><ellipse cx="495.7208" cy="319.5942" fill="#FEFECE" filter="url(#f1aqb1zvp538t0)" rx="129.1708" ry="28.2342" style="stroke:#A80036;stroke-width:1.0;"/><text fill="#000000" font-family="sans-serif" font-size="14" lengthAdjust="spacing" textLength="226.8232" x="382.3091" y="322.4408">Switch Gym for Training Session</text></g><g id="elem_AccessTrainessList"><ellipse cx="495.7191" cy="404.5918" fill="#FEFECE" filter="url(#f1aqb1zvp538t0)" rx="98.0091" ry="22.0018" style="stroke:#A80036;stroke-width:1.0;"/><text fill="#000000" font-family="sans-serif" font-size="14" lengthAdjust="spacing" textLength="159.6602" x="415.889" y="407.4385">Access List of Trainees</text></g><g id="elem_CheckTrainneProgress"><ellipse cx="106.6323" cy="404.5865" fill="#FEFECE" filter="url(#f1aqb1zvp538t0)" rx="100.6323" ry="22.5265" style="stroke:#A80036;stroke-width:1.0;"/><text fill="#000000" font-family="sans-serif" font-size="14" lengthAdjust="spacing" textLength="165.4502" x="23.9072" y="407.4331">Check Trainee Progress</text></g><g id="elem_accessMembershipList"><ellipse cx="1464.4003" cy="573.5921" fill="#FEFECE" filter="url(#f1aqb1zvp538t0)" rx="117.7603" ry="25.9521" style="stroke:#A80036;stroke-width:1.0;"/><text fill="#000000" font-family="sans-serif" font-size="14" lengthAdjust="spacing" textLength="202.5693" x="1363.1156" y="576.4387">Access Clients' Memberships</text></g><g id="elem_authorizePurchase"><ellipse cx="999.913" cy="304.5946" fill="#FEFECE" filter="url(#f1aqb1zvp538t0)" rx="161.923" ry="34.7846" style="stroke:#A80036;stroke-width:1.0;"/><text fill="#000000" font-family="sans-serif" font-size="14" lengthAdjust="spacing" textLength="295.2236" x="852.3012" y="307.4413">Authorize Membership Purchase for Client</text></g><g id="elem_cancelClientMembership"><ellipse cx="999.9052" cy="400.585" fill="#FEFECE" filter="url(#f1aqb1zvp538t0)" rx="119.8752" ry="26.375" style="stroke:#A80036;stroke-width:1.0;"/><text fill="#000000" font-family="sans-serif" font-size="14" lengthAdjust="spacing" textLength="207.0879" x="896.3612" y="403.4317">Cancel Membership for Client</text></g><g id="elem_changeClientData"><ellipse cx="999.9062" cy="507.5872" fill="#FEFECE" filter="url(#f1aqb1zvp538t0)" rx="215.7362" ry="45.5472" style="stroke:#A80036;stroke-width:1.0;"/><text fill="#000000" font-family="sans-serif" font-size="14" lengthAdjust="spacing" textLength="405.5967" x="797.1078" y="510.4339">Change Client Personal Data Assigned to the Membership</text></g><g id="elem_verifyMemberships"><ellipse cx="999.9079" cy="613.5876" fill="#FEFECE" filter="url(#f1aqb1zvp538t0)" rx="114.4379" ry="25.2876" style="stroke:#A80036;stroke-width:1.0;"/><text fill="#000000" font-family="sans-serif" font-size="14" lengthAdjust="spacing" textLength="195.4463" x="902.1848" y="616.4343">Verify Clients' Memberships</text></g><g id="elem_maintainGym"><ellipse cx="999.911" cy="690.5862" fill="#FEFECE" filter="url(#f1aqb1zvp538t0)" rx="71.731" ry="16.7462" style="stroke:#A80036;stroke-width:1.0;"/><text fill="#000000" font-family="sans-serif" font-size="14" lengthAdjust="spacing" textLength="97.4736" x="948.1742" y="694.3338">Maintain Gym</text></g><g id="elem_notifyClientsMebershipExpiration"><ellipse cx="999.9123" cy="779.5885" fill="#FEFECE" filter="url(#f1aqb1zvp538t0)" rx="173.8423" ry="37.1685" style="stroke:#A80036;stroke-width:1.0;"/><text fill="#000000" font-family="sans-serif" font-size="14" lengthAdjust="spacing" textLength="319.8262" x="839.9992" y="782.4351">Notify Clients about Memberships Expirations</text></g><g id="elem_generateClientActivityRaport"><ellipse cx="999.9109" cy="879.5882" fill="#FEFECE" filter="url(#f1aqb1zvp538t0)" rx="128.8409" ry="28.1682" style="stroke:#A80036;stroke-width:1.0;"/><text fill="#000000" font-family="sans-serif" font-size="14" lengthAdjust="spacing" textLength="226.126" x="886.8479" y="882.4349">Generate Clients' Actvity Raport</text></g><g id="elem_addWorker"><ellipse cx="495.7168" cy="705.5874" fill="#FEFECE" filter="url(#f1aqb1zvp538t0)" rx="65.4368" ry="15.4874" style="stroke:#A80036;stroke-width:1.0;"/><text fill="#000000" font-family="sans-serif" font-size="14" lengthAdjust="spacing" textLength="80.0488" x="452.6924" y="709.3349">Add worker</text></g><g id="elem_deleteWorker"><ellipse cx="495.7227" cy="772.5885" fill="#FEFECE" filter="url(#f1aqb1zvp538t0)" rx="72.1927" ry="16.8385" style="stroke:#A80036;stroke-width:1.0;"/><text fill="#000000" font-family="sans-serif" font-size="14" lengthAdjust="spacing" textLength="98.6973" x="443.3741" y="776.3361">Delete worker</text></g><g id="elem_updateWorker"><ellipse cx="495.7185" cy="841.5877" fill="#FEFECE" filter="url(#f1aqb1zvp538t0)" rx="73.9885" ry="17.1977" style="stroke:#A80036;stroke-width:1.0;"/><text fill="#000000" font-family="sans-serif" font-size="14" lengthAdjust="spacing" textLength="103.4004" x="441.0183" y="845.3353">Update worker</text></g><g id="elem_addGym"><ellipse cx="495.719" cy="908.5889" fill="#FEFECE" filter="url(#f1aqb1zvp538t0)" rx="56.789" ry="14.7489" style="stroke:#A80036;stroke-width:1.0;"/><text fill="#000000" font-family="sans-serif" font-size="14" lengthAdjust="spacing" textLength="62.6104" x="461.4138" y="912.3365">Add gym</text></g><g id="elem_closeGym"><ellipse cx="495.7234" cy="973.5887" fill="#FEFECE" filter="url(#f1aqb1zvp538t0)" rx="63.1934" ry="15.0387" style="stroke:#A80036;stroke-width:1.0;"/><text fill="#000000" font-family="sans-serif" font-size="14" lengthAdjust="spacing" textLength="73.3975" x="456.0246" y="977.3362">Close gym</text></g><g id="elem_updateGymData"><ellipse cx="495.723" cy="1042.5946" fill="#FEFECE" filter="url(#f1aqb1zvp538t0)" rx="81.423" ry="18.6846" style="stroke:#A80036;stroke-width:1.0;"/><text fill="#000000" font-family="sans-serif" font-size="14" lengthAdjust="spacing" textLength="121.9463" x="433.6071" y="1045.8169">Update gym data</text></g><g id="elem_manageGyms"><ellipse cx="495.7247" cy="1113.5869" fill="#FEFECE" filter="url(#f1aqb1zvp538t0)" rx="72.7347" ry="16.9469" style="stroke:#A80036;stroke-width:1.0;"/><text fill="#000000" font-family="sans-serif" font-size="14" lengthAdjust="spacing" textLength="100.126" x="442.6618" y="1117.3345">Manage Gyms</text></g><g id="elem_monitorMembershipDetails"><ellipse cx="495.7216" cy="1189.5943" fill="#FEFECE" filter="url(#f1aqb1zvp538t0)" rx="108.9216" ry="24.1843" style="stroke:#A80036;stroke-width:1.0;"/><text fill="#000000" font-family="sans-serif" font-size="14" lengthAdjust="spacing" textLength="183.5449" x="403.9491" y="1192.441">Monitor Mebership Details</text></g><g id="elem_analyzeGymsUsage"><ellipse cx="495.7166" cy="1269.5933" fill="#FEFECE" filter="url(#f1aqb1zvp538t0)" rx="92.6666" ry="20.9333" style="stroke:#A80036;stroke-width:1.0;"/><text fill="#000000" font-family="sans-serif" font-size="14" lengthAdjust="spacing" textLength="147.752" x="421.8406" y="1272.44">Analyze Gyms Usage</text></g><g id="elem_updateGymAvabilityInformation"><ellipse cx="495.7232" cy="1359.5906" fill="#FEFECE" filter="url(#f1aqb1zvp538t0)" rx="159.4532" ry="34.2906" style="stroke:#A80036;stroke-width:1.0;"/><text fill="#000000" font-family="sans-serif" font-size="14" lengthAdjust="spacing" textLength="290.1104" x="350.668" y="1362.4373">Update Infomation About Gym's Avaiblity</text></g><!--link client to BrowseTrainingSessions--><g id="link_client_BrowseTrainingSessions"><path d="M127.12,1767.71 C164.71,1797.62 251.04,1860.75 336.26,1883.59 C546.04,1939.8 800.3128,1895.0555 922.9028,1866.8455 " fill="none" id="client-to-BrowseTrainingSessions" style="stroke:#A80036;stroke-width:1.0;"/><polygon fill="#A80036" points="928.75,1865.5,919.0822,1863.6202,923.8773,1866.6213,920.8762,1871.4164,928.75,1865.5" style="stroke:#A80036;stroke-width:1.0;"/></g><!--link client to buyMembership--><g id="link_client_buyMembership"><path d="M127.16,1713.58 C160.69,1652.77 235.44,1535.13 336.26,1482.59 C362.87,1468.73 388.8649,1461.4028 417.0349,1456.3328 " fill="none" id="client-to-buyMembership" style="stroke:#A80036;stroke-width:1.0;"/><polygon fill="#A80036" points="422.94,1455.27,413.3738,1452.9274,418.0191,1456.1557,414.7908,1460.8009,422.94,1455.27" style="stroke:#A80036;stroke-width:1.0;"/></g><!--link client to cancelMembership--><g id="link_client_cancelMembership"><path d="M127.19,1729.07 C163.9,1688.29 247.46,1602.31 336.26,1557.59 C361.75,1544.76 385.9126,1537.4968 412.9426,1531.9468 " fill="none" id="client-to-cancelMembership" style="stroke:#A80036;stroke-width:1.0;"/><polygon fill="#A80036" points="418.82,1530.74,409.1994,1528.6319,413.9222,1531.7457,410.8084,1536.4684,418.82,1530.74" style="stroke:#A80036;stroke-width:1.0;"/></g><!--link client to changePersonalData--><g id="link_client_changePersonalData"><path d="M127.21,1742.32 C166.37,1723.98 257.35,1682.36 336.26,1653.59 C359.76,1645.03 379.8467,1638.4762 403.6967,1631.2662 " fill="none" id="client-to-changePersonalData" style="stroke:#A80036;stroke-width:1.0;"/><polygon fill="#A80036" points="409.44,1629.53,399.6676,1628.3055,404.6539,1630.9769,401.9825,1635.9632,409.44,1629.53" style="stroke:#A80036;stroke-width:1.0;"/></g><!--link client to ExtendSubcription--><g id="link_client_ExtendSubcription"><path d="M127.2,1756.42 C166.7,1766.15 258.82,1788.82 336.26,1807.59 C368.16,1815.32 397.8445,1822.4548 427.1645,1829.4648 " fill="none" id="client-to-ExtendSubcription" style="stroke:#A80036;stroke-width:1.0;"/><polygon fill="#A80036" points="433,1830.86,425.1768,1824.8769,428.1371,1829.6973,423.3166,1832.6576,433,1830.86" style="stroke:#A80036;stroke-width:1.0;"/></g><!--link client to ClientLogin--><g id="link_client_ClientLogin"><path d="M123.7,1793.37 C143.34,1838.42 181.04,1908.51 237.26,1944.59 C295.87,1982.2 370.94,1989.7735 426.36,1989.8335 " fill="none" id="client-to-ClientLogin" style="stroke:#A80036;stroke-width:1.0;"/><polygon fill="#A80036" points="432.36,1989.84,423.3643,1985.8303,427.36,1989.8346,423.3557,1993.8303,432.36,1989.84" style="stroke:#A80036;stroke-width:1.0;"/></g><!--link client to signupTraining--><g id="link_client_signupTraining"><path d="M127.36,1748.74 C177.2,1741.53 304.7718,1723.0687 396.3318,1709.8287 " fill="none" id="client-to-signupTraining" style="stroke:#A80036;stroke-width:1.0;"/><polygon fill="#A80036" points="402.27,1708.97,392.7902,1706.2992,397.3215,1709.6856,393.9351,1714.2169,402.27,1708.97" style="stroke:#A80036;stroke-width:1.0;"/></g><!--link client to contactCoach--><g id="link_client_contactCoach"><path d="M127.36,1752.66 C180.43,1755.54 322.4088,1763.2452 413.5388,1768.1852 " fill="none" id="client-to-contactCoach" style="stroke:#A80036;stroke-width:1.0;"/><polygon fill="#A80036" points="419.53,1768.51,410.7597,1764.0287,414.5373,1768.2394,410.3267,1772.017,419.53,1768.51" style="stroke:#A80036;stroke-width:1.0;"/></g><!--link signupTraining to BrowseTrainingSessions--><g id="link_signupTraining_BrowseTrainingSessions"><path d="M569.9,1714.16 C596.8,1721.2 627.45,1729.49 655.17,1737.59 C755.76,1766.99 865.9384,1803.0311 934.1884,1825.8011 " fill="none" id="signupTraining-to-BrowseTrainingSessions" style="stroke:#A80036;stroke-width:1.0;stroke-dasharray:7.0,7.0;"/><polygon fill="#A80036" points="939.88,1827.7,932.6085,1821.0573,935.137,1826.1176,930.0767,1828.6461,939.88,1827.7" style="stroke:#A80036;stroke-width:1.0;"/><text fill="#000000" font-family="sans-serif" font-size="13" lengthAdjust="spacing" textLength="63.0068" x="688.17" y="1744.7969">&#171;include&#187;</text></g><!--link coach to setUpSession--><g id="link_coach_setUpSession"><path d="M128.8,178.7 C151.88,148.47 191.69,102.86 237.26,78.59 C286.3,52.48 341.1026,40.6134 391.2926,34.6034 " fill="none" id="coach-to-setUpSession" style="stroke:#A80036;stroke-width:1.0;"/><polygon fill="#A80036" points="397.25,33.89,387.8383,30.9884,392.2855,34.4845,388.7894,38.9317,397.25,33.89" style="stroke:#A80036;stroke-width:1.0;"/></g><!--link coach to cancelSession--><g id="link_coach_cancelSession"><path d="M128.57,199.86 C168.23,183.87 257.41,150.53 336.26,139.59 C539.12,111.46 774.2673,126.7084 902.3673,138.9684 " fill="none" id="coach-to-cancelSession" style="stroke:#A80036;stroke-width:1.0;"/><polygon fill="#A80036" points="908.34,139.54,899.762,134.7008,903.3627,139.0636,898.9999,142.6644,908.34,139.54" style="stroke:#A80036;stroke-width:1.0;"/></g><!--link coach to BookGym--><g id="link_coach_BookGym"><path d="M128.72,210.39 C186.38,215.3 342.2517,228.5899 430.1517,236.0899 " fill="none" id="coach-to-BookGym" style="stroke:#A80036;stroke-width:1.0;"/><polygon fill="#A80036" points="436.13,236.6,427.5026,231.8493,431.1481,236.1749,426.8225,239.8204,436.13,236.6" style="stroke:#A80036;stroke-width:1.0;"/></g><!--link coach to SwitchGym--><g id="link_coach_SwitchGym"><path d="M128.72,214.64 C182.2,229.97 319.5424,269.3563 410.1524,295.3363 " fill="none" id="coach-to-SwitchGym" style="stroke:#A80036;stroke-width:1.0;"/><polygon fill="#A80036" points="415.92,296.99,408.3711,290.6644,411.1137,295.6119,406.1661,298.3545,415.92,296.99" style="stroke:#A80036;stroke-width:1.0;"/></g><!--link coach to AccessTrainessList--><g id="link_coach_AccessTrainessList"><path d="M128.74,227.05 C167.28,259.81 252.79,328.16 336.26,365.59 C361.47,376.89 384.6116,383.9 410.8416,389.91 " fill="none" id="coach-to-AccessTrainessList" style="stroke:#A80036;stroke-width:1.0;"/><polygon fill="#A80036" points="416.69,391.25,408.8107,385.341,411.8163,390.1333,407.024,393.1389,416.69,391.25" style="stroke:#A80036;stroke-width:1.0;"/></g><!--link coach to contactClients--><g id="link_coach_contactClients"><path d="M128.73,206.59 C154.39,204.17 198.99,200 237.26,196.59 C300.49,190.96 366.5011,185.3326 418.2511,180.9826 " fill="none" id="coach-to-contactClients" style="stroke:#A80036;stroke-width:1.0;"/><polygon fill="#A80036" points="424.23,180.48,414.9266,177.2479,419.2476,180.8988,415.5967,185.2198,424.23,180.48" style="stroke:#A80036;stroke-width:1.0;"/></g><!--link CheckTrainneProgress to AccessTrainessList--><g id="link_CheckTrainneProgress_AccessTrainessList"><path d="M207.57,404.59 C266.03,404.59 333.51,404.59 391.5,404.59 " fill="none" id="CheckTrainneProgress-to-AccessTrainessList" style="stroke:#A80036;stroke-width:1.0;stroke-dasharray:7.0,7.0;"/><polygon fill="#A80036" points="397.5,404.59,388.5,400.59,392.5,404.59,388.5,408.59,397.5,404.59" style="stroke:#A80036;stroke-width:1.0;"/><text fill="#000000" font-family="sans-serif" font-size="13" lengthAdjust="spacing" textLength="67.958" x="238.26" y="400.6569">&#171;extends&#187;</text></g><!--link SwitchGym to cancelSession--><g id="link_SwitchGym_cancelSession"><path d="M577.22,297.29 C602.3,290.06 629.97,281.78 655.17,273.59 C759.85,239.55 874.91,196.828 941.82,171.448 " fill="none" id="SwitchGym-to-cancelSession" style="stroke:#A80036;stroke-width:1.0;stroke-dasharray:7.0,7.0;"/><polygon fill="#A80036" points="947.43,169.32,937.5964,168.7719,942.755,171.0933,940.4337,176.2519,947.43,169.32" style="stroke:#A80036;stroke-width:1.0;"/><text fill="#000000" font-family="sans-serif" font-size="13" lengthAdjust="spacing" textLength="67.958" x="686.17" y="237.4769">&#171;extends&#187;</text></g><!--link worker to maintainGym--><g id="link_worker_maintainGym"><path d="M521.28,617.36 C597,628.97 822.4293,663.5305 932.9593,680.4805 " fill="none" id="worker-to-maintainGym" style="stroke:#A80036;stroke-width:1.0;"/><polygon fill="#A80036" points="938.89,681.39,930.6003,676.072,933.9478,680.6321,929.3877,683.9796,938.89,681.39" style="stroke:#A80036;stroke-width:1.0;"/></g><!--link worker to authorizePurchase--><g id="link_worker_authorizePurchase"><path d="M521.37,583.37 C567.22,529.24 671.27,415.88 784.17,356.59 C810.15,342.95 833.9739,334.3231 862.7539,326.8231 " fill="none" id="worker-to-authorizePurchase" style="stroke:#A80036;stroke-width:1.0;"/><polygon fill="#A80036" points="868.56,325.31,858.8422,323.7089,863.7216,326.5709,860.8596,331.4503,868.56,325.31" style="stroke:#A80036;stroke-width:1.0;"/></g><!--link worker to cancelClientMembership--><g id="link_worker_cancelClientMembership"><path d="M521.43,595.2 C569.46,560.37 679.87,484.66 784.17,444.59 C819.87,430.87 854.7411,422.247 891.0911,415.487 " fill="none" id="worker-to-cancelClientMembership" style="stroke:#A80036;stroke-width:1.0;"/><polygon fill="#A80036" points="896.99,414.39,887.4104,412.1029,892.0743,415.3042,888.873,419.9681,896.99,414.39" style="stroke:#A80036;stroke-width:1.0;"/></g><!--link worker to changeClientData--><g id="link_worker_changeClientData"><path d="M521.28,608.41 C579.42,596.13 723.4693,565.729 839.9793,541.139 " fill="none" id="worker-to-changeClientData" style="stroke:#A80036;stroke-width:1.0;"/><polygon fill="#A80036" points="845.85,539.9,836.218,537.8448,840.9578,540.9325,837.87,545.6723,845.85,539.9" style="stroke:#A80036;stroke-width:1.0;"/></g><!--link worker to verifyMemberships--><g id="link_worker_verifyMemberships"><path d="M521.28,613.59 C586.21,613.59 759.62,613.59 879.12,613.59 " fill="none" id="worker-to-verifyMemberships" style="stroke:#A80036;stroke-width:1.0;"/><polygon fill="#A80036" points="885.12,613.59,876.12,609.59,880.12,613.59,876.12,617.59,885.12,613.59" style="stroke:#A80036;stroke-width:1.0;"/></g><!--link worker to notifyClientsMebershipExpiration--><g id="link_worker_notifyClientsMebershipExpiration"><path d="M521.5,622.58 C552.75,633.98 608.09,654.34 655.17,672.59 C712.81,694.93 725.43,705.32 784.17,724.59 C815.07,734.73 843.1585,742.668 874.7085,750.768 " fill="none" id="worker-to-notifyClientsMebershipExpiration" style="stroke:#A80036;stroke-width:1.0;"/><polygon fill="#A80036" points="880.52,752.26,872.7974,746.1476,875.6771,751.0166,870.808,753.8963,880.52,752.26" style="stroke:#A80036;stroke-width:1.0;"/></g><!--link worker to generateClientActivityRaport--><g id="link_worker_generateClientActivityRaport"><path d="M521.5,617.6 C555.01,624.09 615.18,639.65 655.17,672.59 C674.88,688.82 670.04,701.02 685.17,721.59 C724.75,775.37 726.53,800.9 784.17,834.59 C813.11,851.51 841.6496,860.9181 874.3596,867.5481 " fill="none" id="worker-to-generateClientActivityRaport" style="stroke:#A80036;stroke-width:1.0;"/><polygon fill="#A80036" points="880.24,868.74,872.214,863.0319,875.3396,867.7467,870.6248,870.8724,880.24,868.74" style="stroke:#A80036;stroke-width:1.0;"/></g><!--link generateClientActivityRaport to accessMembershipList--><g id="link_generateClientActivityRaport_accessMembershipList"><path d="M1117.48,867.78 C1150.59,861.14 1185.74,850.77 1215.64,834.59 C1323.89,776.02 1408.9796,658.0538 1443.9596,604.4838 " fill="none" id="generateClientActivityRaport-to-accessMembershipList" style="stroke:#A80036;stroke-width:1.0;stroke-dasharray:7.0,7.0;"/><polygon fill="#A80036" points="1447.24,599.46,1438.9701,604.8088,1444.5063,603.6465,1445.6686,609.1827,1447.24,599.46" style="stroke:#A80036;stroke-width:1.0;"/><text fill="#000000" font-family="sans-serif" font-size="13" lengthAdjust="spacing" textLength="69.7798" x="1246.64" y="761.1169">&#171;includes&#187;</text></g><!--link notifyClientsMebershipExpiration to accessMembershipList--><g id="link_notifyClientsMebershipExpiration_accessMembershipList"><path d="M1127.02,753.94 C1156.65,746.1 1187.72,736.37 1215.64,724.59 C1297.1,690.24 1378.4397,635.5243 1424.6097,602.3043 " fill="none" id="notifyClientsMebershipExpiration-to-accessMembershipList" style="stroke:#A80036;stroke-width:1.0;stroke-dasharray:7.0,7.0;"/><polygon fill="#A80036" points="1429.48,598.8,1419.8383,600.8095,1425.4214,601.7202,1424.5107,607.3033,1429.48,598.8" style="stroke:#A80036;stroke-width:1.0;"/><text fill="#000000" font-family="sans-serif" font-size="13" lengthAdjust="spacing" textLength="69.7798" x="1246.64" y="669.9569">&#171;includes&#187;</text></g><!--link authorizePurchase to accessMembershipList--><g id="link_authorizePurchase_accessMembershipList"><path d="M1127.96,326.18 C1157.56,333.68 1188.37,343.6 1215.64,356.59 C1314.24,403.55 1399.7759,496.6315 1438.8159,543.2115 " fill="none" id="authorizePurchase-to-accessMembershipList" style="stroke:#A80036;stroke-width:1.0;stroke-dasharray:7.0,7.0;"/><polygon fill="#A80036" points="1442.67,547.81,1439.9545,538.3429,1439.4582,543.9779,1433.8232,543.4817,1442.67,547.81" style="stroke:#A80036;stroke-width:1.0;"/><text fill="#000000" font-family="sans-serif" font-size="13" lengthAdjust="spacing" textLength="69.7798" x="1246.64" y="369.3869">&#171;includes&#187;</text></g><!--link cancelClientMembership to accessMembershipList--><g id="link_cancelClientMembership_accessMembershipList"><path d="M1100.83,415.11 C1137.54,421.98 1179.06,431.61 1215.64,444.59 C1293.11,472.09 1371.4895,516.5926 1419.0695,545.6526 " fill="none" id="cancelClientMembership-to-accessMembershipList" style="stroke:#A80036;stroke-width:1.0;stroke-dasharray:7.0,7.0;"/><polygon fill="#A80036" points="1424.19,548.78,1418.5942,540.6752,1419.9229,546.1738,1414.4243,547.5026,1424.19,548.78" style="stroke:#A80036;stroke-width:1.0;"/><text fill="#000000" font-family="sans-serif" font-size="13" lengthAdjust="spacing" textLength="69.7798" x="1246.64" y="454.3569">&#171;includes&#187;</text></g><!--link changeClientData to accessMembershipList--><g id="link_changeClientData_accessMembershipList"><path d="M1179.72,533.11 C1242.51,542.07 1304.7902,550.9522 1358.6002,558.6322 " fill="none" id="changeClientData-to-accessMembershipList" style="stroke:#A80036;stroke-width:1.0;stroke-dasharray:7.0,7.0;"/><polygon fill="#A80036" points="1364.54,559.48,1356.1955,554.2485,1359.5902,558.7735,1355.0651,562.1682,1364.54,559.48" style="stroke:#A80036;stroke-width:1.0;"/><text fill="#000000" font-family="sans-serif" font-size="13" lengthAdjust="spacing" textLength="69.7798" x="1246.64" y="538.6369">&#171;includes&#187;</text></g><!--link verifyMemberships to accessMembershipList--><g id="link_verifyMemberships_accessMembershipList"><path d="M1107.01,604.41 C1181.02,598.01 1273.5223,590.0171 1348.2023,583.5571 " fill="none" id="verifyMemberships-to-accessMembershipList" style="stroke:#A80036;stroke-width:1.0;stroke-dasharray:7.0,7.0;"/><polygon fill="#A80036" points="1354.18,583.04,1344.8688,579.8305,1349.1986,583.4709,1345.5582,587.8007,1354.18,583.04" style="stroke:#A80036;stroke-width:1.0;"/><text fill="#000000" font-family="sans-serif" font-size="13" lengthAdjust="spacing" textLength="69.7798" x="1246.64" y="582.5969">&#171;includes&#187;</text></g><!--link manager to worker--><g id="link_manager_worker"><path d="M126.67,931.85 C149.08,885.38 189.36,809.46 237.26,753.59 C274.27,710.43 286.96,700.89 336.26,672.59 C380.56,647.16 420.5046,633.8859 452.6646,624.8959 " fill="none" id="manager-to-worker" style="stroke:#A80036;stroke-width:1.0;"/><polygon fill="none" points="470,620.05,451.0493,619.1175,454.2799,630.6744,470,620.05" style="stroke:#A80036;stroke-width:1.0;"/></g><!--link manager to addGym--><g id="link_manager_addGym"><path d="M137.68,967.14 C163.9,961.62 203.02,953.62 237.26,947.59 C309.17,934.94 386.8682,923.5636 438.8282,916.2736 " fill="none" id="manager-to-addGym" style="stroke:#A80036;stroke-width:1.0;"/><polygon fill="#A80036" points="444.77,915.44,435.3015,912.7293,439.8185,916.1347,436.413,920.6517,444.77,915.44" style="stroke:#A80036;stroke-width:1.0;"/></g><!--link manager to closeGym--><g id="link_manager_closeGym"><path d="M137.68,973.59 C200.74,973.59 342,973.59 426.38,973.59 " fill="none" id="manager-to-closeGym" style="stroke:#A80036;stroke-width:1.0;"/><polygon fill="#A80036" points="432.38,973.59,423.38,969.59,427.38,973.59,423.38,977.59,432.38,973.59" style="stroke:#A80036;stroke-width:1.0;"/></g><!--link manager to updateGymData--><g id="link_manager_updateGymData"><path d="M137.68,978.95 C200.21,990.09 339.6131,1014.9371 424.3231,1030.0371 " fill="none" id="manager-to-updateGymData" style="stroke:#A80036;stroke-width:1.0;"/><polygon fill="#A80036" points="430.23,1031.09,422.0716,1025.5727,425.3076,1030.2126,420.6677,1033.4485,430.23,1031.09" style="stroke:#A80036;stroke-width:1.0;"/></g><!--link manager to addWorker--><g id="link_manager_addWorker"><path d="M133.7,931.88 C170.95,876.49 245.08,780.76 336.26,738.59 C367.12,724.32 398.2778,717.0696 428.8078,712.4396 " fill="none" id="manager-to-addWorker" style="stroke:#A80036;stroke-width:1.0;"/><polygon fill="#A80036" points="434.74,711.54,425.242,708.9347,429.7965,712.2897,426.4415,716.8442,434.74,711.54" style="stroke:#A80036;stroke-width:1.0;"/></g><!--link manager to deleteWorker--><g id="link_manager_deleteWorker"><path d="M137.77,944.64 C179.06,906.7 257.15,840.98 336.26,806.59 C366.07,793.64 395.3163,786.4642 424.9363,781.3842 " fill="none" id="manager-to-deleteWorker" style="stroke:#A80036;stroke-width:1.0;"/><polygon fill="#A80036" points="430.85,780.37,421.3034,777.9489,425.922,781.2152,422.6557,785.8338,430.85,780.37" style="stroke:#A80036;stroke-width:1.0;"/></g><!--link manager to updateWorker--><g id="link_manager_updateWorker"><path d="M137.64,960.09 C163.85,948.37 202.95,931.06 237.26,916.59 C280.99,898.15 290.94,890.65 336.26,876.59 C368.82,866.49 400.1161,859.2944 430.2761,853.2744 " fill="none" id="manager-to-updateWorker" style="stroke:#A80036;stroke-width:1.0;"/><polygon fill="#A80036" points="436.16,852.1,426.5511,849.939,431.2567,853.0787,428.1171,857.7843,436.16,852.1" style="stroke:#A80036;stroke-width:1.0;"/></g><!--link manager to manageGyms--><g id="link_manager_manageGyms"><path d="M137.49,989.81 C180.36,1012.51 262.35,1053.77 336.26,1078.59 C368.45,1089.4 399.5503,1096.6349 429.6903,1102.4949 " fill="none" id="manager-to-manageGyms" style="stroke:#A80036;stroke-width:1.0;"/><polygon fill="#A80036" points="435.58,1103.64,427.5088,1097.9959,430.6719,1102.6857,425.982,1105.8488,435.58,1103.64" style="stroke:#A80036;stroke-width:1.0;"/></g><!--link manager to analyzeGymsUsage--><g id="link_manager_analyzeGymsUsage"><path d="M131.69,1015.7 C167.85,1074.7 242.12,1180.47 336.26,1231.59 C360.38,1244.68 383.1057,1252.0414 409.3157,1257.7114 " fill="none" id="manager-to-analyzeGymsUsage" style="stroke:#A80036;stroke-width:1.0;"/><polygon fill="#A80036" points="415.18,1258.98,407.2292,1253.1675,410.293,1257.9228,405.5377,1260.9866,415.18,1258.98" style="stroke:#A80036;stroke-width:1.0;"/></g><!--link manager to monitorMembershipDetails--><g id="link_manager_monitorMembershipDetails"><path d="M137.47,1002.82 C178.73,1041.62 257.11,1109.62 336.26,1147.59 C359.87,1158.91 381.1665,1166.0358 406.1965,1172.4258 " fill="none" id="manager-to-monitorMembershipDetails" style="stroke:#A80036;stroke-width:1.0;"/><polygon fill="#A80036" points="412.01,1173.91,404.2791,1167.8081,407.1654,1172.6732,402.3002,1175.5595,412.01,1173.91" style="stroke:#A80036;stroke-width:1.0;"/></g><!--link manager to updateGymAvabilityInformation--><g id="link_manager_updateGymAvabilityInformation"><path d="M122.31,1015.47 C150.65,1089.29 220.52,1241.03 336.26,1307.59 C353.71,1317.62 367.7116,1324.0163 387.0816,1330.9563 " fill="none" id="manager-to-updateGymAvabilityInformation" style="stroke:#A80036;stroke-width:1.0;"/><polygon fill="#A80036" points="392.73,1332.98,385.6066,1326.1788,388.023,1331.2935,382.9082,1333.71,392.73,1332.98" style="stroke:#A80036;stroke-width:1.0;"/></g><!--SRC=[ZLR1Rjim3BtxAuXUUke-O2W2PErG36Y7ObtNis8hZb172YIvNOfz_2XHZYZRINC8OZy-IkGZHQkJQm_UW5NjnaEZhAozChfohqg3DKvMbQYziN3JAQaz20TrV4hmWz2YbJRWMteS-4RKcqWF3mbyCVQLoE_ngQggoxHSxsGjd8IBR_qU7kHs9QtRgDr58A_wVKOoyqReMdPZSXtHMVv6w5OoFZpYlz6YWrlX1Nb7pe07EFi_gLRtErXZ8juAfPLkmKddKA_ewwBzTpAnVOtsc3y8qeBs8Iogb9dV_tgfct56X3xrgzggNQnE5ikQT_mVzeGd2iT5Fp8Eji44sPkaXywqYZAW8j-7TwYgPBwwMXnPYZFA6Z73f1xSDbMRMQTvCoCBjOXqN0M-6zUyfC7LbsD9mbUulbQwxlf6BXQXOQC_QmlfuNatgG6rXFJFkmHC6dVMW-IQkgGUehHTqKC4iQOmvXNkzbjg0dp1PnRkk_9uCX6BdJmR174AjsLT8m7kbVDWrkGc9GL2DeAS2nH-w6JzEj3XqPhM8eUwBPYYHSl1WBMCWoFKgn0lmwL26HyopKXE8sCpiRAbIqNd0eoTCbqaTecC3Uj2bnosZlmYv37rCit2iTGfYais3aWt4UqPBGLVzdvZhFee1rrlyQoXUNqOvRJKG1u89wRhs9UI8k34k4qVZcBKmjA5yoURyEdn6pcPuT6LFCiP_4TQjTuVr-OjsXcQNH-mMXv_XwEnJK3Hvp-DPnk0M9dUyrrmAksK5VumPNLqIFm7cNYPbPU-areY9dFqozg_AR-7Ns9dBAdQ9X9naA02WmY0GvcQ9NOhZv_1ave2jyvNhQICr2-C4u4BwwTYCEwfJAlgf0xXJCsT0ZwhmzdwB9op5vfgUgxd4RtFTX_Nubp7QPtEzSI9D5pbqZ-MwzyYNTc0VVcMJPDG6YPDyp8QPRUoazZmZDH4PCnxtZMYvFKHIRnoopQTNzolEBet7TvN3zOwl1Nsj0aIe1dkUxGDqkAOuSCYP1v6XRl8bzlmoab6gtW97ZeBRYKUo2wva3MBdOmi6Po7-m_Q1PuTRa1v4HpG24uo-A7NPaiDl8pp2QcN-1b-4shLuIafCqDufG8St2pvOP5pRHU3aXmwoCV1aLgZ9LAnE5fKUxhIK5vkOKeNwuz5ANoEIJqR_9mW_m40]--></g></svg>