<svg xmlns="http://www.w3.org/2000/svg" xmlns:xlink="http://www.w3.org/1999/xlink" contentStyleType="text/css" height="1477px" preserveAspectRatio="none" style="width:1598px;height:1477px;background:#FFFFFF;" version="1.1" viewBox="0 0 1598 1477" width="1598px" zoomAndPan="magnify"><defs><filter height="300%" id="f1q1bugowb46ds" width="300%" x="-1" y="-1"><feGaussianBlur result="blurOut" stdDeviation="2.0"/><feColorMatrix in="blurOut" result="blurOut2" type="matrix" values="0 0 0 0 0 0 0 0 0 0 0 0 0 0 0 0 0 0 .4 0"/><feOffset dx="4.0" dy="4.0" in="blurOut2" result="blurOut3"/><feBlend in="SourceGraphic" in2="blurOut3" mode="normal"/></filter></defs><g><!--entity client--><g id="elem_client"><ellipse cx="106.6351" cy="1242.94" fill="#FEFECE" filter="url(#f1q1bugowb46ds)" rx="8" ry="8" style="stroke:#A80036;stroke-width:2.0;"/><path d="M106.6351,1250.94 L106.6351,1277.94 M93.6351,1258.94 L119.6351,1258.94 M106.6351,1277.94 L93.6351,1292.94 M106.6351,1277.94 L119.6351,1292.94 " fill="none" filter="url(#f1q1bugowb46ds)" style="stroke:#A80036;stroke-width:2.0;"/><text fill="#000000" font-family="sans-serif" font-size="14" lengthAdjust="spacing" textLength="40.5303" x="86.37" y="1312.9351">Client</text></g><!--entity manager--><g id="elem_manager"><ellipse cx="106.6331" cy="788.94" fill="#FEFECE" filter="url(#f1q1bugowb46ds)" rx="8" ry="8" style="stroke:#A80036;stroke-width:2.0;"/><path d="M106.6331,796.94 L106.6331,823.94 M93.6331,804.94 L119.6331,804.94 M106.6331,823.94 L93.6331,838.94 M106.6331,823.94 L119.6331,838.94 " fill="none" filter="url(#f1q1bugowb46ds)" style="stroke:#A80036;stroke-width:2.0;"/><text fill="#000000" font-family="sans-serif" font-size="14" lengthAdjust="spacing" textLength="61.3662" x="75.95" y="858.9351">Manager</text></g><!--entity coach--><g id="elem_coach"><ellipse cx="106.6351" cy="149.94" fill="#FEFECE" filter="url(#f1q1bugowb46ds)" rx="8" ry="8" style="stroke:#A80036;stroke-width:2.0;"/><path d="M106.6351,157.94 L106.6351,184.94 M93.6351,165.94 L119.6351,165.94 M106.6351,184.94 L93.6351,199.94 M106.6351,184.94 L119.6351,199.94 " fill="none" filter="url(#f1q1bugowb46ds)" style="stroke:#A80036;stroke-width:2.0;"/><text fill="#000000" font-family="sans-serif" font-size="14" lengthAdjust="spacing" textLength="43.4902" x="84.89" y="219.9351">Coach</text></g><!--entity worker--><g id="elem_worker"><ellipse cx="495.7203" cy="585.94" fill="#FEFECE" filter="url(#f1q1bugowb46ds)" rx="8" ry="8" style="stroke:#A80036;stroke-width:2.0;"/><path d="M495.7203,593.94 L495.7203,620.94 M482.7203,601.94 L508.7203,601.94 M495.7203,620.94 L482.7203,635.94 M495.7203,620.94 L508.7203,635.94 " fill="none" filter="url(#f1q1bugowb46ds)" style="stroke:#A80036;stroke-width:2.0;"/><text fill="#000000" font-family="sans-serif" font-size="14" lengthAdjust="spacing" textLength="50.6406" x="470.4" y="655.9351">Worker</text></g><g id="elem_buyMembership"><ellipse cx="495.7179" cy="1116.5856" fill="#FEFECE" filter="url(#f1q1bugowb46ds)" rx="79.6779" ry="18.3356" style="stroke:#A80036;stroke-width:1.0;"/><text fill="#000000" font-family="sans-serif" font-size="14" lengthAdjust="spacing" textLength="117.7422" x="435.058" y="1120.0019">Buy Membership</text></g><g id="elem_cancelMembership"><ellipse cx="495.7208" cy="1189.5862" fill="#FEFECE" filter="url(#f1q1bugowb46ds)" rx="88.5308" ry="20.1062" style="stroke:#A80036;stroke-width:1.0;"/><text fill="#000000" font-family="sans-serif" font-size="14" lengthAdjust="spacing" textLength="138.4072" x="426.5171" y="1192.4328">Cancel Membership</text></g><g id="elem_changePersonalData"><ellipse cx="495.7201" cy="1274.594" fill="#FEFECE" filter="url(#f1q1bugowb46ds)" rx="138.7201" ry="30.144" style="stroke:#A80036;stroke-width:1.0;"/><text fill="#000000" font-family="sans-serif" font-size="14" lengthAdjust="spacing" textLength="246.9209" x="372.2596" y="1277.4407">Change Membership Personal Data</text></g><g id="elem_signupTraining"><ellipse cx="1001.9079" cy="1438.5896" fill="#FEFECE" filter="url(#f1q1bugowb46ds)" rx="110.4979" ry="24.4996" style="stroke:#A80036;stroke-width:1.0;"/><text fill="#000000" font-family="sans-serif" font-size="14" lengthAdjust="spacing" textLength="186.9561" x="908.4299" y="1441.4363">Signup for training session</text></g><g id="elem_contactCoach"><ellipse cx="1466.3978" cy="1438.5896" fill="#FEFECE" filter="url(#f1q1bugowb46ds)" rx="77.8978" ry="17.9796" style="stroke:#A80036;stroke-width:1.0;"/><text fill="#000000" font-family="sans-serif" font-size="14" lengthAdjust="spacing" textLength="113.3604" x="1407.2233" y="1442.2037">Contact a coach</text></g><g id="elem_ExtendSubcription"><ellipse cx="495.7198" cy="1359.594" fill="#FEFECE" filter="url(#f1q1bugowb46ds)" rx="89.2198" ry="20.244" style="stroke:#A80036;stroke-width:1.0;"/><text fill="#000000" font-family="sans-serif" font-size="14" lengthAdjust="spacing" textLength="139.9727" x="425.7334" y="1362.4406">Extend Membership</text></g><g id="elem_manageMembership"><ellipse cx="1001.9094" cy="1231.5899" fill="#FEFECE" filter="url(#f1q1bugowb46ds)" rx="92.1494" ry="20.8299" style="stroke:#A80036;stroke-width:1.0;"/><text fill="#000000" font-family="sans-serif" font-size="14" lengthAdjust="spacing" textLength="146.5898" x="928.6144" y="1234.4366">Manage Membership</text></g><g id="elem_BrowseTrainingSessions"><ellipse cx="495.7163" cy="1438.5913" fill="#FEFECE" filter="url(#f1q1bugowb46ds)" rx="106.4563" ry="23.6913" style="stroke:#A80036;stroke-width:1.0;"/><text fill="#000000" font-family="sans-serif" font-size="14" lengthAdjust="spacing" textLength="178.1924" x="406.6201" y="1441.4379">Browse Training Sessions</text></g><g id="elem_setUpSession"><ellipse cx="495.7179" cy="28.5936" fill="#FEFECE" filter="url(#f1q1bugowb46ds)" rx="100.9679" ry="22.5936" style="stroke:#A80036;stroke-width:1.0;"/><text fill="#000000" font-family="sans-serif" font-size="14" lengthAdjust="spacing" textLength="166.1885" x="412.6237" y="31.4403">Set Up Training Session</text></g><g id="elem_cancelSession"><ellipse cx="495.7166" cy="108.5913" fill="#FEFECE" filter="url(#f1q1bugowb46ds)" rx="101.3566" ry="22.6713" style="stroke:#A80036;stroke-width:1.0;"/><text fill="#000000" font-family="sans-serif" font-size="14" lengthAdjust="spacing" textLength="167.043" x="412.1951" y="111.438">Cancel Training Session</text></g><g id="elem_contactClients"><ellipse cx="1001.9142" cy="62.5868" fill="#FEFECE" filter="url(#f1q1bugowb46ds)" rx="75.2842" ry="17.4568" style="stroke:#A80036;stroke-width:1.0;"/><text fill="#000000" font-family="sans-serif" font-size="14" lengthAdjust="spacing" textLength="106.7432" x="945.5426" y="66.3344">Contact Clients</text></g><g id="elem_BookGym"><ellipse cx="495.7159" cy="181.5912" fill="#FEFECE" filter="url(#f1q1bugowb46ds)" rx="62.7559" ry="14.9512" style="stroke:#A80036;stroke-width:1.0;"/><text fill="#000000" font-family="sans-serif" font-size="14" lengthAdjust="spacing" textLength="72.0645" x="456.6837" y="185.3387">Book Gym</text></g><g id="elem_SwitchGym"><ellipse cx="1001.9108" cy="210.5942" fill="#FEFECE" filter="url(#f1q1bugowb46ds)" rx="129.1708" ry="28.2342" style="stroke:#A80036;stroke-width:1.0;"/><text fill="#000000" font-family="sans-serif" font-size="14" lengthAdjust="spacing" textLength="226.8232" x="888.4991" y="213.4408">Switch Gym for Training Session</text></g><g id="elem_AccessTrainessList"><ellipse cx="495.7191" cy="327.5918" fill="#FEFECE" filter="url(#f1q1bugowb46ds)" rx="98.0091" ry="22.0018" style="stroke:#A80036;stroke-width:1.0;"/><text fill="#000000" font-family="sans-serif" font-size="14" lengthAdjust="spacing" textLength="159.6602" x="415.889" y="330.4385">Access List of Trainees</text></g><g id="elem_CheckTrainneProgress"><ellipse cx="106.6323" cy="330.5865" fill="#FEFECE" filter="url(#f1q1bugowb46ds)" rx="100.6323" ry="22.5265" style="stroke:#A80036;stroke-width:1.0;"/><text fill="#000000" font-family="sans-serif" font-size="14" lengthAdjust="spacing" textLength="165.4502" x="23.9072" y="333.4331">Check Trainee Progress</text></g><g id="elem_accessMembershipList"><ellipse cx="1466.4003" cy="565.5921" fill="#FEFECE" filter="url(#f1q1bugowb46ds)" rx="117.7603" ry="25.9521" style="stroke:#A80036;stroke-width:1.0;"/><text fill="#000000" font-family="sans-serif" font-size="14" lengthAdjust="spacing" textLength="202.5693" x="1365.1156" y="568.4387">Access Clients' Memberships</text></g><g id="elem_authorizePurchase"><ellipse cx="1001.913" cy="308.5946" fill="#FEFECE" filter="url(#f1q1bugowb46ds)" rx="161.923" ry="34.7846" style="stroke:#A80036;stroke-width:1.0;"/><text fill="#000000" font-family="sans-serif" font-size="14" lengthAdjust="spacing" textLength="295.2236" x="854.3012" y="311.4413">Authorize Membership Purchase for Client</text></g><g id="elem_cancelClientMembership"><ellipse cx="1001.9052" cy="404.585" fill="#FEFECE" filter="url(#f1q1bugowb46ds)" rx="119.8752" ry="26.375" style="stroke:#A80036;stroke-width:1.0;"/><text fill="#000000" font-family="sans-serif" font-size="14" lengthAdjust="spacing" textLength="207.0879" x="898.3612" y="407.4317">Cancel Membership for Client</text></g><g id="elem_changeClientData"><ellipse cx="1001.9062" cy="511.5872" fill="#FEFECE" filter="url(#f1q1bugowb46ds)" rx="215.7362" ry="45.5472" style="stroke:#A80036;stroke-width:1.0;"/><text fill="#000000" font-family="sans-serif" font-size="14" lengthAdjust="spacing" textLength="405.5967" x="799.1078" y="514.4339">Change Client Personal Data Assigned to the Membership</text></g><g id="elem_verifyMemberships"><ellipse cx="1001.9079" cy="617.5876" fill="#FEFECE" filter="url(#f1q1bugowb46ds)" rx="114.4379" ry="25.2876" style="stroke:#A80036;stroke-width:1.0;"/><text fill="#000000" font-family="sans-serif" font-size="14" lengthAdjust="spacing" textLength="195.4463" x="904.1848" y="620.4343">Verify Clients' Memberships</text></g><g id="elem_maintainGym"><ellipse cx="1001.911" cy="694.5862" fill="#FEFECE" filter="url(#f1q1bugowb46ds)" rx="71.731" ry="16.7462" style="stroke:#A80036;stroke-width:1.0;"/><text fill="#000000" font-family="sans-serif" font-size="14" lengthAdjust="spacing" textLength="97.4736" x="950.1742" y="698.3338">Maintain Gym</text></g><g id="elem_notifyClientsMebershipExpiration"><ellipse cx="1001.9123" cy="783.5885" fill="#FEFECE" filter="url(#f1q1bugowb46ds)" rx="173.8423" ry="37.1685" style="stroke:#A80036;stroke-width:1.0;"/><text fill="#000000" font-family="sans-serif" font-size="14" lengthAdjust="spacing" textLength="319.8262" x="841.9992" y="786.4351">Notify Clients about Memberships Expirations</text></g><g id="elem_generateClientActivityRaport"><ellipse cx="1001.9109" cy="883.5882" fill="#FEFECE" filter="url(#f1q1bugowb46ds)" rx="128.8409" ry="28.1682" style="stroke:#A80036;stroke-width:1.0;"/><text fill="#000000" font-family="sans-serif" font-size="14" lengthAdjust="spacing" textLength="226.126" x="888.8479" y="886.4349">Generate Clients' Actvity Raport</text></g><g id="elem_manageWorkers"><ellipse cx="495.7219" cy="712.5864" fill="#FEFECE" filter="url(#f1q1bugowb46ds)" rx="79.7819" ry="18.3564" style="stroke:#A80036;stroke-width:1.0;"/><text fill="#000000" font-family="sans-serif" font-size="14" lengthAdjust="spacing" textLength="117.9951" x="434.9753" y="715.9911">Manage Workers</text></g><g id="elem_manageGyms"><ellipse cx="495.7247" cy="782.5869" fill="#FEFECE" filter="url(#f1q1bugowb46ds)" rx="72.7347" ry="16.9469" style="stroke:#A80036;stroke-width:1.0;"/><text fill="#000000" font-family="sans-serif" font-size="14" lengthAdjust="spacing" textLength="100.126" x="442.6618" y="786.3345">Manage Gyms</text></g><g id="elem_monitorMembershipDetails"><ellipse cx="495.7216" cy="858.5943" fill="#FEFECE" filter="url(#f1q1bugowb46ds)" rx="108.9216" ry="24.1843" style="stroke:#A80036;stroke-width:1.0;"/><text fill="#000000" font-family="sans-serif" font-size="14" lengthAdjust="spacing" textLength="183.5449" x="403.9491" y="861.441">Monitor Mebership Details</text></g><g id="elem_analyzeGymsUsage"><ellipse cx="495.7166" cy="938.5933" fill="#FEFECE" filter="url(#f1q1bugowb46ds)" rx="92.6666" ry="20.9333" style="stroke:#A80036;stroke-width:1.0;"/><text fill="#000000" font-family="sans-serif" font-size="14" lengthAdjust="spacing" textLength="147.752" x="421.8406" y="941.44">Analyze Gyms Usage</text></g><g id="elem_updateGymAvabilityInformation"><ellipse cx="495.7232" cy="1028.5906" fill="#FEFECE" filter="url(#f1q1bugowb46ds)" rx="159.4532" ry="34.2906" style="stroke:#A80036;stroke-width:1.0;"/><text fill="#000000" font-family="sans-serif" font-size="14" lengthAdjust="spacing" textLength="290.1104" x="350.668" y="1031.4373">Update Infomation About Gym's Avaiblity</text></g><!--link buyMembership to manageMembership--><g id="link_buyMembership_manageMembership"><path d="M554.7,1129.25 C584.7,1135.84 621.92,1144.07 655.17,1151.59 C753.42,1173.81 861.3577,1198.9135 930.7477,1215.1435 " fill="none" id="buyMembership-to-manageMembership" style="stroke:#A80036;stroke-width:1.0;stroke-dasharray:7.0,7.0;"/><polygon fill="#A80036" points="936.59,1216.51,928.7375,1210.5654,931.7214,1215.3713,926.9155,1218.3551,936.59,1216.51" style="stroke:#A80036;stroke-width:1.0;"/><text fill="#000000" font-family="sans-serif" font-size="13" lengthAdjust="spacing" textLength="69.7798" x="686.17" y="1156.1769">&#171;includes&#187;</text></g><!--link cancelMembership to manageMembership--><g id="link_cancelMembership_manageMembership"><path d="M579.41,1196.48 C671.88,1204.18 814.9707,1216.1017 908.8107,1223.9217 " fill="none" id="cancelMembership-to-manageMembership" style="stroke:#A80036;stroke-width:1.0;stroke-dasharray:7.0,7.0;"/><polygon fill="#A80036" points="914.79,1224.42,906.1533,1219.6864,909.8073,1224.0048,905.4889,1227.6588,914.79,1224.42" style="stroke:#A80036;stroke-width:1.0;"/><text fill="#000000" font-family="sans-serif" font-size="13" lengthAdjust="spacing" textLength="69.7798" x="686.17" y="1201.6569">&#171;includes&#187;</text></g><!--link changePersonalData to manageMembership--><g id="link_changePersonalData_manageMembership"><path d="M625.58,1263.6 C716.46,1255.85 829.7117,1246.1895 909.1517,1239.4195 " fill="none" id="changePersonalData-to-manageMembership" style="stroke:#A80036;stroke-width:1.0;stroke-dasharray:7.0,7.0;"/><polygon fill="#A80036" points="915.13,1238.91,905.8229,1235.6887,910.1481,1239.3346,906.5022,1243.6598,915.13,1238.91" style="stroke:#A80036;stroke-width:1.0;"/><text fill="#000000" font-family="sans-serif" font-size="13" lengthAdjust="spacing" textLength="69.7798" x="686.17" y="1249.1569">&#171;includes&#187;</text></g><!--link ExtendSubcription to manageMembership--><g id="link_ExtendSubcription_manageMembership"><path d="M560.04,1345.23 C589.08,1338.54 623.92,1330.35 655.17,1322.59 C756.07,1297.54 867.1482,1267.8769 935.8982,1249.2769 " fill="none" id="ExtendSubcription-to-manageMembership" style="stroke:#A80036;stroke-width:1.0;stroke-dasharray:7.0,7.0;"/><polygon fill="#A80036" points="941.69,1247.71,931.9577,1246.1992,936.8635,1249.0158,934.047,1253.9216,941.69,1247.71" style="stroke:#A80036;stroke-width:1.0;"/><text fill="#000000" font-family="sans-serif" font-size="13" lengthAdjust="spacing" textLength="69.7798" x="686.17" y="1294.4869">&#171;includes&#187;</text></g><!--link client to BrowseTrainingSessions--><g id="link_client_BrowseTrainingSessions"><path d="M127.34,1287.32 C165.99,1311.78 255.06,1365.78 336.26,1397.59 C361.8,1407.59 384.7663,1414.4364 410.7463,1420.8764 " fill="none" id="client-to-BrowseTrainingSessions" style="stroke:#A80036;stroke-width:1.0;"/><polygon fill="#A80036" points="416.57,1422.32,408.7968,1416.2721,411.7169,1421.117,406.872,1424.0371,416.57,1422.32" style="stroke:#A80036;stroke-width:1.0;"/></g><!--link client to buyMembership--><g id="link_client_buyMembership"><path d="M127.24,1261.6 C165.72,1236.68 254.5,1181.95 336.26,1151.59 C365.84,1140.61 393.9798,1133.6826 422.8998,1128.0726 " fill="none" id="client-to-buyMembership" style="stroke:#A80036;stroke-width:1.0;"/><polygon fill="#A80036" points="428.79,1126.93,419.193,1124.7171,423.8815,1127.8822,420.7164,1132.5707,428.79,1126.93" style="stroke:#A80036;stroke-width:1.0;"/></g><!--link client to cancelMembership--><g id="link_client_cancelMembership"><path d="M127.36,1270.26 C182.67,1258.11 335.1596,1224.6269 424.8696,1204.9269 " fill="none" id="client-to-cancelMembership" style="stroke:#A80036;stroke-width:1.0;"/><polygon fill="#A80036" points="430.73,1203.64,421.0815,1201.6635,425.8464,1204.7124,422.7974,1209.4773,430.73,1203.64" style="stroke:#A80036;stroke-width:1.0;"/></g><!--link client to changePersonalData--><g id="link_client_changePersonalData"><path d="M127.36,1274.59 C169.42,1274.59 265.07,1274.59 350.8,1274.59 " fill="none" id="client-to-changePersonalData" style="stroke:#A80036;stroke-width:1.0;"/><polygon fill="#A80036" points="356.8,1274.59,347.8,1270.59,351.8,1274.59,347.8,1278.59,356.8,1274.59" style="stroke:#A80036;stroke-width:1.0;"/></g><!--link client to ExtendSubcription--><g id="link_client_ExtendSubcription"><path d="M127.36,1278.92 C182.59,1291.05 334.7197,1324.4527 424.4897,1344.1727 " fill="none" id="client-to-ExtendSubcription" style="stroke:#A80036;stroke-width:1.0;"/><polygon fill="#A80036" points="430.35,1345.46,422.4178,1339.6221,425.4664,1344.3872,420.7014,1347.4358,430.35,1345.46" style="stroke:#A80036;stroke-width:1.0;"/></g><!--link signupTraining to contactCoach--><g id="link_signupTraining_contactCoach"><path d="M1112.81,1438.59 C1197.63,1438.59 1306.84,1438.59 1382.13,1438.59 " fill="none" id="signupTraining-to-contactCoach" style="stroke:#A80036;stroke-width:1.0;stroke-dasharray:7.0,7.0;"/><polygon fill="#A80036" points="1388.13,1438.59,1379.13,1434.59,1383.13,1438.59,1379.13,1442.59,1388.13,1438.59" style="stroke:#A80036;stroke-width:1.0;"/><text fill="#000000" font-family="sans-serif" font-size="13" lengthAdjust="spacing" textLength="67.958" x="1249.64" y="1434.6569">&#171;extends&#187;</text></g><!--link BrowseTrainingSessions to signupTraining--><g id="link_BrowseTrainingSessions_signupTraining"><path d="M602.41,1438.59 C687.02,1438.59 799.29,1438.59 884.99,1438.59 " fill="none" id="BrowseTrainingSessions-to-signupTraining" style="stroke:#A80036;stroke-width:1.0;stroke-dasharray:7.0,7.0;"/><polygon fill="#A80036" points="890.99,1438.59,881.99,1434.59,885.99,1438.59,881.99,1442.59,890.99,1438.59" style="stroke:#A80036;stroke-width:1.0;"/><text fill="#000000" font-family="sans-serif" font-size="13" lengthAdjust="spacing" textLength="67.958" x="687.17" y="1434.6569">&#171;extends&#187;</text></g><!--link coach to setUpSession--><g id="link_coach_setUpSession"><path d="M128.71,169.27 C168.24,146.6 256.71,97.92 336.26,68.59 C363.15,58.68 387.6551,51.7579 414.5351,45.3179 " fill="none" id="coach-to-setUpSession" style="stroke:#A80036;stroke-width:1.0;"/><polygon fill="#A80036" points="420.37,43.92,410.6857,42.127,415.5076,45.0849,412.5496,49.9068,420.37,43.92" style="stroke:#A80036;stroke-width:1.0;"/></g><!--link coach to cancelSession--><g id="link_coach_cancelSession"><path d="M128.72,177.24 C154.35,171.99 198.94,162.93 237.26,155.59 C296.84,144.18 358.3846,132.9512 409.3046,123.8012 " fill="none" id="coach-to-cancelSession" style="stroke:#A80036;stroke-width:1.0;"/><polygon fill="#A80036" points="415.21,122.74,405.6444,120.3948,410.2888,123.6243,407.0593,128.2687,415.21,122.74" style="stroke:#A80036;stroke-width:1.0;"/></g><!--link coach to BookGym--><g id="link_coach_BookGym"><path d="M128.72,181.59 C185.59,181.59 337.82,181.59 426.49,181.59 " fill="none" id="coach-to-BookGym" style="stroke:#A80036;stroke-width:1.0;"/><polygon fill="#A80036" points="432.49,181.59,423.49,177.59,427.49,181.59,423.49,185.59,432.49,181.59" style="stroke:#A80036;stroke-width:1.0;"/></g><!--link coach to SwitchGym--><g id="link_coach_SwitchGym"><path d="M128.65,185.53 C168.81,192.84 259.3,208.23 336.26,213.59 C523.75,226.65 735.7145,222.1131 869.4745,216.9131 " fill="none" id="coach-to-SwitchGym" style="stroke:#A80036;stroke-width:1.0;"/><polygon fill="#A80036" points="875.47,216.68,866.3214,213.0326,870.4738,216.8742,866.6322,221.0266,875.47,216.68" style="stroke:#A80036;stroke-width:1.0;"/></g><!--link coach to AccessTrainessList--><g id="link_coach_AccessTrainessList"><path d="M128.68,199.31 C153.21,219.07 195.72,250.62 237.26,268.59 C292.72,292.57 353.3661,306.487 404.9161,315.317 " fill="none" id="coach-to-AccessTrainessList" style="stroke:#A80036;stroke-width:1.0;"/><polygon fill="#A80036" points="410.83,316.33,402.6345,310.8679,405.9018,315.4858,401.2839,318.7531,410.83,316.33" style="stroke:#A80036;stroke-width:1.0;"/></g><!--link CheckTrainneProgress to AccessTrainessList--><g id="link_CheckTrainneProgress_AccessTrainessList"><path d="M207.07,333.13 C217.27,333.32 227.47,333.48 237.26,333.59 C267.93,333.95 275.6,334.08 306.26,333.59 C336.38,333.11 363.1832,332.396 392.8632,331.426 " fill="none" id="CheckTrainneProgress-to-AccessTrainessList" style="stroke:#A80036;stroke-width:1.0;stroke-dasharray:7.0,7.0;"/><polygon fill="#A80036" points="398.86,331.23,389.7341,327.5261,393.8627,331.3933,389.9955,335.5218,398.86,331.23" style="stroke:#A80036;stroke-width:1.0;"/><text fill="#000000" font-family="sans-serif" font-size="13" lengthAdjust="spacing" textLength="67.958" x="238.26" y="329.6569">&#171;extends&#187;</text></g><!--link setUpSession to contactClients--><g id="link_setUpSession_contactClients"><path d="M593.04,35.09 C691.07,41.7 834.8236,51.386 922.9836,57.336 " fill="none" id="setUpSession-to-contactClients" style="stroke:#A80036;stroke-width:1.0;stroke-dasharray:7.0,7.0;"/><polygon fill="#A80036" points="928.97,57.74,920.2598,53.143,923.9813,57.4033,919.7211,61.1249,928.97,57.74" style="stroke:#A80036;stroke-width:1.0;"/><text fill="#000000" font-family="sans-serif" font-size="13" lengthAdjust="spacing" textLength="67.958" x="687.17" y="37.6169">&#171;extends&#187;</text></g><!--link cancelSession to contactClients--><g id="link_cancelSession_contactClients"><path d="M590.37,100.05 C689.19,91.03 836.6548,77.5753 925.2948,69.4853 " fill="none" id="cancelSession-to-contactClients" style="stroke:#A80036;stroke-width:1.0;stroke-dasharray:7.0,7.0;"/><polygon fill="#A80036" points="931.27,68.94,921.9437,65.7746,926.2907,69.3945,922.6708,73.7415,931.27,68.94" style="stroke:#A80036;stroke-width:1.0;"/><text fill="#000000" font-family="sans-serif" font-size="13" lengthAdjust="spacing" textLength="67.958" x="687.17" y="81.6569">&#171;extends&#187;</text></g><!--link cancelSession to SwitchGym--><g id="link_cancelSession_SwitchGym"><path d="M572.2,123.86 C661.21,141.87 803.3591,170.6306 900.0691,190.1906 " fill="none" id="cancelSession-to-SwitchGym" style="stroke:#A80036;stroke-width:1.0;stroke-dasharray:7.0,7.0;"/><polygon fill="#A80036" points="905.95,191.38,897.9216,185.6752,901.0492,190.3888,896.3357,193.5165,905.95,191.38" style="stroke:#A80036;stroke-width:1.0;"/><text fill="#000000" font-family="sans-serif" font-size="13" lengthAdjust="spacing" textLength="67.958" x="687.17" y="143.5169">&#171;extends&#187;</text></g><!--link worker to maintainGym--><g id="link_worker_maintainGym"><path d="M521.38,621.36 C597.49,632.98 824.3488,667.6243 935.1488,684.5443 " fill="none" id="worker-to-maintainGym" style="stroke:#A80036;stroke-width:1.0;"/><polygon fill="#A80036" points="941.08,685.45,932.787,680.1372,936.1373,684.6952,931.5793,688.0455,941.08,685.45" style="stroke:#A80036;stroke-width:1.0;"/></g><!--link worker to authorizePurchase--><g id="link_worker_authorizePurchase"><path d="M521.23,587.8 C567.29,533.86 672.43,420.07 786.17,360.59 C812.26,346.95 836.2029,338.3191 865.0629,330.8191 " fill="none" id="worker-to-authorizePurchase" style="stroke:#A80036;stroke-width:1.0;"/><polygon fill="#A80036" points="870.87,329.31,861.1532,327.7023,866.0307,330.5676,863.1654,335.4451,870.87,329.31" style="stroke:#A80036;stroke-width:1.0;"/></g><!--link worker to cancelClientMembership--><g id="link_worker_cancelClientMembership"><path d="M521.25,599.48 C569.45,564.78 681,488.81 786.17,448.59 C821.89,434.93 856.7611,426.307 893.1111,419.547 " fill="none" id="worker-to-cancelClientMembership" style="stroke:#A80036;stroke-width:1.0;"/><polygon fill="#A80036" points="899.01,418.45,889.4304,416.1629,894.0943,419.3642,890.893,424.0281,899.01,418.45" style="stroke:#A80036;stroke-width:1.0;"/></g><!--link worker to changeClientData--><g id="link_worker_changeClientData"><path d="M521.38,612.41 C579.85,600.11 724.8984,569.6144 841.9584,545.0044 " fill="none" id="worker-to-changeClientData" style="stroke:#A80036;stroke-width:1.0;"/><polygon fill="#A80036" points="847.83,543.77,838.1996,541.7072,842.937,544.7987,839.8455,549.5361,847.83,543.77" style="stroke:#A80036;stroke-width:1.0;"/></g><!--link worker to verifyMemberships--><g id="link_worker_verifyMemberships"><path d="M521.38,617.59 C586.67,617.59 761.24,617.59 881.21,617.59 " fill="none" id="worker-to-verifyMemberships" style="stroke:#A80036;stroke-width:1.0;"/><polygon fill="#A80036" points="887.21,617.59,878.21,613.59,882.21,617.59,878.21,621.59,887.21,617.59" style="stroke:#A80036;stroke-width:1.0;"/></g><!--link worker to notifyClientsMebershipExpiration--><g id="link_worker_notifyClientsMebershipExpiration"><path d="M521.48,626.62 C552.72,638.06 608.05,658.47 655.17,676.59 C713.64,699.08 726.6,709.22 786.17,728.59 C817.1,738.64 845.1885,746.558 876.7385,754.658 " fill="none" id="worker-to-notifyClientsMebershipExpiration" style="stroke:#A80036;stroke-width:1.0;"/><polygon fill="#A80036" points="882.55,756.15,874.8274,750.0376,877.7071,754.9066,872.838,757.7863,882.55,756.15" style="stroke:#A80036;stroke-width:1.0;"/></g><!--link worker to generateClientActivityRaport--><g id="link_worker_generateClientActivityRaport"><path d="M521.5,621.6 C555.01,628.09 615.18,643.65 655.17,676.59 C674.88,692.82 669.93,705.1 685.17,725.59 C725.36,779.64 727.85,804.89 786.17,838.59 C815.28,855.41 843.949,864.7909 876.739,871.4209 " fill="none" id="worker-to-generateClientActivityRaport" style="stroke:#A80036;stroke-width:1.0;"/><polygon fill="#A80036" points="882.62,872.61,874.5913,866.9057,877.7192,871.6191,873.0058,874.747,882.62,872.61" style="stroke:#A80036;stroke-width:1.0;"/></g><!--link generateClientActivityRaport to accessMembershipList--><g id="link_generateClientActivityRaport_accessMembershipList"><path d="M1119.86,871.91 C1152.89,865.27 1187.91,854.87 1217.64,838.59 C1329.09,777.58 1413.557,652.1793 1447.277,596.6193 " fill="none" id="generateClientActivityRaport-to-accessMembershipList" style="stroke:#A80036;stroke-width:1.0;stroke-dasharray:7.0,7.0;"/><polygon fill="#A80036" points="1450.39,591.49,1442.301,597.1085,1447.7958,595.7644,1449.14,601.2592,1450.39,591.49" style="stroke:#A80036;stroke-width:1.0;"/><text fill="#000000" font-family="sans-serif" font-size="13" lengthAdjust="spacing" textLength="67.958" x="1249.64" y="762.3069">&#171;extends&#187;</text></g><!--link notifyClientsMebershipExpiration to accessMembershipList--><g id="link_notifyClientsMebershipExpiration_accessMembershipList"><path d="M1130.73,758.25 C1159.92,750.45 1190.37,740.65 1217.64,728.59 C1301.93,691.32 1384.7749,630.2031 1429.8149,594.5631 " fill="none" id="notifyClientsMebershipExpiration-to-accessMembershipList" style="stroke:#A80036;stroke-width:1.0;stroke-dasharray:7.0,7.0;"/><polygon fill="#A80036" points="1434.52,590.84,1424.9802,593.288,1430.5991,593.9426,1429.9444,599.5615,1434.52,590.84" style="stroke:#A80036;stroke-width:1.0;"/><text fill="#000000" font-family="sans-serif" font-size="13" lengthAdjust="spacing" textLength="67.958" x="1249.64" y="670.2669">&#171;extends&#187;</text></g><!--link authorizePurchase to accessMembershipList--><g id="link_authorizePurchase_accessMembershipList"><path d="M1129.9,330.3 C1159.5,337.8 1190.33,347.69 1217.64,360.59 C1312.8,405.54 1398.1005,491.0126 1438.6105,535.3026 " fill="none" id="authorizePurchase-to-accessMembershipList" style="stroke:#A80036;stroke-width:1.0;stroke-dasharray:7.0,7.0;"/><polygon fill="#A80036" points="1442.66,539.73,1439.5373,530.3893,1439.2854,536.0405,1433.6342,535.7886,1442.66,539.73" style="stroke:#A80036;stroke-width:1.0;"/><text fill="#000000" font-family="sans-serif" font-size="13" lengthAdjust="spacing" textLength="69.7798" x="1248.64" y="372.7869">&#171;includes&#187;</text></g><!--link cancelClientMembership to accessMembershipList--><g id="link_cancelClientMembership_accessMembershipList"><path d="M1101.48,419.68 C1138.43,426.66 1180.46,436.2 1217.64,448.59 C1292.11,473.4 1368.2375,511.9663 1416.6975,538.2863 " fill="none" id="cancelClientMembership-to-accessMembershipList" style="stroke:#A80036;stroke-width:1.0;stroke-dasharray:7.0,7.0;"/><polygon fill="#A80036" points="1421.97,541.15,1415.9703,533.3395,1417.5762,538.7636,1412.1521,540.3695,1421.97,541.15" style="stroke:#A80036;stroke-width:1.0;"/><text fill="#000000" font-family="sans-serif" font-size="13" lengthAdjust="spacing" textLength="69.7798" x="1248.64" y="457.2869">&#171;includes&#187;</text></g><!--link changeClientData to accessMembershipList--><g id="link_changeClientData_accessMembershipList"><path d="M1191.69,533.63 C1249.76,540.41 1305.5804,546.9345 1355.7104,552.7845 " fill="none" id="changeClientData-to-accessMembershipList" style="stroke:#A80036;stroke-width:1.0;stroke-dasharray:7.0,7.0;"/><polygon fill="#A80036" points="1361.67,553.48,1353.1943,548.4638,1356.7037,552.9004,1352.267,556.4098,1361.67,553.48" style="stroke:#A80036;stroke-width:1.0;"/><text fill="#000000" font-family="sans-serif" font-size="13" lengthAdjust="spacing" textLength="69.7798" x="1248.64" y="536.2769">&#171;includes&#187;</text></g><!--link verifyMemberships to accessMembershipList--><g id="link_verifyMemberships_accessMembershipList"><path d="M1107.15,607.35 C1168.72,601.13 1248.16,592.83 1318.64,584.59 C1333.57,582.84 1343.3872,581.6513 1358.8372,579.7013 " fill="none" id="verifyMemberships-to-accessMembershipList" style="stroke:#A80036;stroke-width:1.0;stroke-dasharray:7.0,7.0;"/><polygon fill="#A80036" points="1364.79,578.95,1355.36,576.1085,1359.8294,579.5761,1356.3617,584.0455,1364.79,578.95" style="stroke:#A80036;stroke-width:1.0;"/><text fill="#000000" font-family="sans-serif" font-size="13" lengthAdjust="spacing" textLength="69.7798" x="1248.64" y="580.6569">&#171;includes&#187;</text></g><!--link manager to worker--><g id="link_manager_worker"><path d="M137.53,798.94 C180.12,768.76 261.42,713.6 336.26,676.59 C381.79,654.08 420.9663,640.4411 452.7263,630.4711 " fill="none" id="manager-to-worker" style="stroke:#A80036;stroke-width:1.0;"/><polygon fill="none" points="469.9,625.08,450.9293,624.7465,454.5233,636.1957,469.9,625.08" style="stroke:#A80036;stroke-width:1.0;"/></g><!--link manager to manageWorkers--><g id="link_manager_manageWorkers"><path d="M137.7,810.67 C163.94,802.05 203.06,789.31 237.26,778.59 C281.14,764.84 291.82,760.36 336.26,748.59 C368.85,739.96 399.6784,732.8314 429.5484,726.3014 " fill="none" id="manager-to-manageWorkers" style="stroke:#A80036;stroke-width:1.0;"/><polygon fill="#A80036" points="435.41,725.02,425.7634,723.0344,430.5254,726.0879,427.4719,730.8498,435.41,725.02" style="stroke:#A80036;stroke-width:1.0;"/></g><!--link manager to manageGyms--><g id="link_manager_manageGyms"><path d="M137.68,817.64 C199.68,811.55 337.0787,798.0659 422.0787,789.7259 " fill="none" id="manager-to-manageGyms" style="stroke:#A80036;stroke-width:1.0;"/><polygon fill="#A80036" points="428.05,789.14,418.7024,786.038,423.0739,789.6282,419.4836,793.9997,428.05,789.14" style="stroke:#A80036;stroke-width:1.0;"/></g><!--link manager to analyzeGymsUsage--><g id="link_manager_analyzeGymsUsage"><path d="M137.64,832.19 C181.04,848.7 264.05,879.36 336.26,900.59 C365.98,909.33 393.4239,916.1898 421.7839,922.7398 " fill="none" id="manager-to-analyzeGymsUsage" style="stroke:#A80036;stroke-width:1.0;"/><polygon fill="#A80036" points="427.63,924.09,419.761,918.1673,422.7582,922.9648,417.9607,925.9621,427.63,924.09" style="stroke:#A80036;stroke-width:1.0;"/></g><!--link manager to monitorMembershipDetails--><g id="link_manager_monitorMembershipDetails"><path d="M137.68,823.54 C192.31,828.9 304.1287,839.8839 389.5087,848.2639 " fill="none" id="manager-to-monitorMembershipDetails" style="stroke:#A80036;stroke-width:1.0;"/><polygon fill="#A80036" points="395.48,848.85,386.9138,843.99,390.5039,848.3616,386.1323,851.9518,395.48,848.85" style="stroke:#A80036;stroke-width:1.0;"/></g><!--link manager to updateGymAvabilityInformation--><g id="link_manager_updateGymAvabilityInformation"><path d="M137.72,845.25 C179.88,878.81 259.97,938.99 336.26,976.59 C355.35,986 370.865,992.3421 391.375,999.3821 " fill="none" id="manager-to-updateGymAvabilityInformation" style="stroke:#A80036;stroke-width:1.0;"/><polygon fill="#A80036" points="397.05,1001.33,389.8361,994.6248,392.3208,999.7067,387.2389,1002.1914,397.05,1001.33" style="stroke:#A80036;stroke-width:1.0;"/></g><!--SRC=[dLRBRXiX5Dtp5LVPP9L-G1LPSf8ggbHNKLEtQpp6Dh8D8s2IEkh7zy9b30pZXxho-Dnpu3w1dLWvS1gCN6ySBAKHZPDQCRkL2eosWZ7UE6tWSIU5Si0jDE4hmZEk-5eOZ-_fi-Thtcm2tNz4yBSsMoA_Xo_6s6rShhEYuLR0pKDtW9dOBuIn6zdUUFAYEoGaCH-vQiHkI6u2EihVSBKM6HzUy5ShleCdxZYf0wV7FPpqhtAjkXPM68WpN2gfrc25jPYleBN1_ZEQidsrSXW_SCe5xKDOo59YVldZX5eE8oBqjLiqHhQXEaS1fNyee4gCfU31w7VyxNs4LtBV1XaPUrjl0iQA_CFTfmbKMy1dkB-NgjbrIs4d4pQiWXTTr5IvXsjaLNfEU3ZKCUeykBkRd0WzPvGzc1cgVijjTJTbrhgkh6oX44ZUAHI323eVmecAUTbWfLA7KnSQB-jjuM3ULer1VItSl8r0DNsZ2if9BOc3G6U9BGQ1eAnJjTx2ys5FdOb_y3jpzrqwJ0TYOHn7dI1E8Pis3HBWcxGEz8faGf0ZP2F8Ma_9JmxHR7iwl1YzDiW9ic0A5YLw0xPMg9OlSf6y19SPIdWVQK9I60aRyNNC3mYTK9E7tP3xMFGS5ML0Brp_7_enegehuwqmh5TS-3OxvoZvFDWJMbPjshcDDlAZFF8xWrE9vjNnKgEbUd9FE7FF3BKK8W5dBfvuXHQN3aojdrInz9UmsrH7EPqWf2nler_2oDNXT6xUWZr3yrj3Oi7mWk_dQn-1ObY-QvTj07oXEvVlWkTNAmrtn_j31K7apqJa9LPQ-baeWPX8tayRzoRT0NxmLXlAwZgIY8C4wHb40BoLg5d2FEJ-Pt1LKyYjurKhAOFi5yOgmONrOZ8oxhb86JkR1pzFOrCm6ArBtboxJftHiyBgGL1b-shvi1BN2kigNQl4ywX_qiPVBDRVINow0gjUOVIwjTaJB28L4_iqf_c_6KSh6PxMVPdWIM1pxwA2hCdrQCoEFJnR3X-q2Smjhay77C4U3M0IpDkbdyMlQgNtr0tJCEj8lSLxyOtBnGuxBgpI1IvQ45v83tkP8HscB6LgCiX1RGbXvt3bOg4v5NXEkkGU-mS0]--></g></svg>