<?xml version="1.0" encoding="UTF-8" standalone="no"?><svg xmlns="http://www.w3.org/2000/svg" xmlns:xlink="http://www.w3.org/1999/xlink" contentStyleType="text/css" height="894px" preserveAspectRatio="none" style="width:1014px;height:894px;background:#FFFFFF;" version="1.1" viewBox="0 0 1014 894" width="1014px" zoomAndPan="magnify"><defs/><g><rect fill="none" height="22.6406" style="stroke:none;stroke-width:1.0;" width="981.5" x="15" y="12.4551"/><rect fill="#F1F1F1" height="35.0938" rx="12.5" ry="12.5" style="stroke:#181818;stroke-width:0.5;" width="186" x="350" y="207.8926"/><text fill="#000000" font-family="sans-serif" font-size="12" lengthAdjust="spacing" textLength="166" x="360" y="230.3496">Wyświetlenie kalendarza zajęć</text><polygon fill="#F1F1F1" points="342,417.1738,544,417.1738,556,429.1738,544,441.1738,342,441.1738,330,429.1738,342,417.1738" style="stroke:#181818;stroke-width:0.5;"/><text fill="#000000" font-family="sans-serif" font-size="11" lengthAdjust="spacing" textLength="14" x="447" y="452.5928">tak</text><text fill="#000000" font-family="sans-serif" font-size="11" lengthAdjust="spacing" textLength="202" x="342" y="433.6748">Czy na liście istnieje chociaż jeden Klient?</text><text fill="#000000" font-family="sans-serif" font-size="11" lengthAdjust="spacing" textLength="14" x="556" y="426.7568">nie</text><rect fill="#F1F1F1" height="35.0938" rx="12.5" ry="12.5" style="stroke:#181818;stroke-width:0.5;" width="230" x="328" y="474.0928"/><text fill="#000000" font-family="sans-serif" font-size="12" lengthAdjust="spacing" textLength="210" x="338" y="496.5498">Wyświetlenie listy zapisanych Klientów</text><rect fill="#F1F1F1" height="35.0938" rx="12.5" ry="12.5" style="stroke:#181818;stroke-width:0.5;" width="170" x="358" y="628.2803"/><text fill="#000000" font-family="sans-serif" font-size="12" lengthAdjust="spacing" textLength="150" x="368" y="650.7373">Wyświetlenie profilu Klienta</text><polygon fill="#F1F1F1" points="443,584.2803,455,596.2803,443,608.2803,431,596.2803,443,584.2803" style="stroke:#181818;stroke-width:0.5;"/><polygon fill="#F1F1F1" points="302.5,745.9678,583.5,745.9678,595.5,757.9678,583.5,769.9678,302.5,769.9678,290.5,757.9678,302.5,745.9678" style="stroke:#181818;stroke-width:0.5;"/><text fill="#000000" font-family="sans-serif" font-size="11" lengthAdjust="spacing" textLength="14" x="447" y="781.3867">tak</text><text fill="#000000" font-family="sans-serif" font-size="11" lengthAdjust="spacing" textLength="281" x="302.5" y="762.4688">Dane na temat postępów Klienta znajdują się w systemie?</text><text fill="#000000" font-family="sans-serif" font-size="11" lengthAdjust="spacing" textLength="14" x="595.5" y="755.5508">nie</text><rect fill="#F1F1F1" height="35.0938" rx="12.5" ry="12.5" style="stroke:#181818;stroke-width:0.5;" width="230" x="328" y="802.8867"/><text fill="#000000" font-family="sans-serif" font-size="12" lengthAdjust="spacing" textLength="210" x="338" y="825.3438">Wyświetlenie danych i statystyk Klienta</text><path d="M20,855.8047 L20,882.1563 L412,882.1563 L412,865.8047 L402,855.8047 L20,855.8047 " fill="#FEFFDD" style="stroke:#181818;stroke-width:0.5;"/><path d="M402,855.8047 L402,865.8047 L412,865.8047 L402,855.8047 " fill="#FEFFDD" style="stroke:#181818;stroke-width:0.5;"/><text fill="#000000" font-family="sans-serif" font-size="13" lengthAdjust="spacing" textLength="371" x="26" y="874.2998">Uzyskany dostęp do szczegółowych statystyk postępów klienta</text><ellipse cx="443" cy="868.9805" fill="none" rx="11" ry="11" style="stroke:#222222;stroke-width:1.0;"/><ellipse cx="443" cy="868.9805" fill="#222222" rx="6" ry="6" style="stroke:#111111;stroke-width:1.0;"/><line style="stroke:#000000;stroke-width:1.5;" x1="15" x2="15" y1="12.4551" y2="882.1563"/><path d="M629.5,50.0957 L629.5,76.4473 L828.5,76.4473 L828.5,60.0957 L818.5,50.0957 L629.5,50.0957 " fill="#FEFFDD" style="stroke:#181818;stroke-width:0.5;"/><path d="M818.5,50.0957 L818.5,60.0957 L828.5,60.0957 L818.5,50.0957 " fill="#FEFFDD" style="stroke:#181818;stroke-width:0.5;"/><text fill="#000000" font-family="sans-serif" font-size="13" lengthAdjust="spacing" textLength="178" x="635.5" y="68.5908">Trener zalogowany w systemie</text><path d="M642.5,96.4473 L642.5,122.7988 L815.5,122.7988 L815.5,106.4473 L805.5,96.4473 L642.5,96.4473 " fill="#FEFFDD" style="stroke:#181818;stroke-width:0.5;"/><path d="M805.5,96.4473 L805.5,106.4473 L815.5,106.4473 L805.5,96.4473 " fill="#FEFFDD" style="stroke:#181818;stroke-width:0.5;"/><text fill="#000000" font-family="sans-serif" font-size="13" lengthAdjust="spacing" textLength="152" x="648.5" y="114.9424">W systemie istnieje Klient</text><ellipse cx="848.5" cy="86.4473" fill="#222222" rx="10" ry="10" style="stroke:#222222;stroke-width:1.0;"/><rect fill="#F1F1F1" height="35.0938" rx="12.5" ry="12.5" style="stroke:#181818;stroke-width:0.5;" width="285" x="706" y="152.7988"/><text fill="#000000" font-family="sans-serif" font-size="12" lengthAdjust="spacing" textLength="265" x="716" y="175.2559">przejście do sekcji Organizacja zajęć w systemie</text><rect fill="#F1F1F1" height="35.0938" rx="12.5" ry="12.5" style="stroke:#181818;stroke-width:0.5;" width="85" x="806" y="262.9863"/><text fill="#000000" font-family="sans-serif" font-size="12" lengthAdjust="spacing" textLength="65" x="816" y="285.4434">Wybór zajęć</text><rect fill="#F1F1F1" height="35.0938" rx="12.5" ry="12.5" style="stroke:#181818;stroke-width:0.5;" width="240" x="728.5" y="362.0801"/><text fill="#000000" font-family="sans-serif" font-size="12" lengthAdjust="spacing" textLength="220" x="738.5" y="384.5371">Wybranie opcji lista zapisanych Klientów</text><polygon fill="#F1F1F1" points="848.5,318.0801,860.5,330.0801,848.5,342.0801,836.5,330.0801,848.5,318.0801" style="stroke:#181818;stroke-width:0.5;"/><rect fill="#F1F1F1" height="35.0938" rx="12.5" ry="12.5" style="stroke:#181818;stroke-width:0.5;" width="177" x="760" y="529.1865"/><text fill="#000000" font-family="sans-serif" font-size="12" lengthAdjust="spacing" textLength="157" x="770" y="551.6436">Wybranie jednego z Klientów</text><rect fill="#F1F1F1" height="35.0938" rx="12.5" ry="12.5" style="stroke:#181818;stroke-width:0.5;" width="176" x="760.5" y="690.874"/><text fill="#000000" font-family="sans-serif" font-size="12" lengthAdjust="spacing" textLength="156" x="770.5" y="713.3311">Wybór opcji statystyki Klienta</text><line style="stroke:#000000;stroke-width:1.5;" x1="614.5" x2="614.5" y1="12.4551" y2="882.1563"/><line style="stroke:#000000;stroke-width:1.5;" x1="995" x2="995" y1="12.4551" y2="882.1563"/><line style="stroke:#181818;stroke-width:1.0;" x1="443" x2="443" y1="441.1738" y2="474.0928"/><polygon fill="#181818" points="439,464.0928,443,474.0928,447,464.0928,443,468.0928" style="stroke:#181818;stroke-width:1.0;"/><line style="stroke:#181818;stroke-width:1.0;" x1="443" x2="443" y1="608.2803" y2="628.2803"/><polygon fill="#181818" points="439,618.2803,443,628.2803,447,618.2803,443,622.2803" style="stroke:#181818;stroke-width:1.0;"/><line style="stroke:#181818;stroke-width:1.0;" x1="290.5" x2="278.5" y1="757.9678" y2="757.9678"/><polygon fill="#181818" points="274.5,683.374,278.5,673.374,282.5,683.374,278.5,679.374" style="stroke:#181818;stroke-width:1.0;"/><line style="stroke:#181818;stroke-width:1.0;" x1="278.5" x2="278.5" y1="596.2803" y2="757.9678"/><line style="stroke:#181818;stroke-width:1.0;" x1="278.5" x2="431" y1="596.2803" y2="596.2803"/><polygon fill="#181818" points="421,592.2803,431,596.2803,421,600.2803,425,596.2803" style="stroke:#181818;stroke-width:1.0;"/><line style="stroke:#181818;stroke-width:1.0;" x1="443" x2="443" y1="769.9678" y2="802.8867"/><polygon fill="#181818" points="439,792.8867,443,802.8867,447,792.8867,443,796.8867" style="stroke:#181818;stroke-width:1.0;"/><line style="stroke:#181818;stroke-width:1.0;" x1="443" x2="443" y1="837.9805" y2="857.9805"/><polygon fill="#181818" points="439,847.9805,443,857.9805,447,847.9805,443,851.9805" style="stroke:#181818;stroke-width:1.0;"/><line style="stroke:#181818;stroke-width:1.0;" x1="848.5" x2="848.5" y1="96.4473" y2="152.7988"/><polygon fill="#181818" points="844.5,142.7988,848.5,152.7988,852.5,142.7988,848.5,146.7988" style="stroke:#181818;stroke-width:1.0;"/><line style="stroke:#181818;stroke-width:1.0;" x1="848.5" x2="848.5" y1="342.0801" y2="362.0801"/><polygon fill="#181818" points="844.5,352.0801,848.5,362.0801,852.5,352.0801,848.5,356.0801" style="stroke:#181818;stroke-width:1.0;"/><line style="stroke:#181818;stroke-width:1.0;" x1="848.5" x2="848.5" y1="298.0801" y2="318.0801"/><polygon fill="#181818" points="844.5,308.0801,848.5,318.0801,852.5,308.0801,848.5,312.0801" style="stroke:#181818;stroke-width:1.0;"/><line style="stroke:#181818;stroke-width:1.0;" x1="848.5" x2="848.5" y1="187.8926" y2="192.8926"/><line style="stroke:#181818;stroke-width:1.0;" x1="848.5" x2="443" y1="192.8926" y2="192.8926"/><line style="stroke:#181818;stroke-width:1.0;" x1="443" x2="443" y1="192.8926" y2="207.8926"/><polygon fill="#181818" points="439,197.8926,443,207.8926,447,197.8926,443,201.8926" style="stroke:#181818;stroke-width:1.0;"/><line style="stroke:#181818;stroke-width:1.0;" x1="443" x2="443" y1="242.9863" y2="247.9863"/><line style="stroke:#181818;stroke-width:1.0;" x1="443" x2="848.5" y1="247.9863" y2="247.9863"/><line style="stroke:#181818;stroke-width:1.0;" x1="848.5" x2="848.5" y1="247.9863" y2="262.9863"/><polygon fill="#181818" points="844.5,252.9863,848.5,262.9863,852.5,252.9863,848.5,256.9863" style="stroke:#181818;stroke-width:1.0;"/><line style="stroke:#181818;stroke-width:1.0;" x1="556" x2="766.375" y1="429.1738" y2="429.1738"/><polygon fill="#181818" points="762.375,389.627,766.375,379.627,770.375,389.627,766.375,385.627" style="stroke:#181818;stroke-width:1.0;"/><line style="stroke:#181818;stroke-width:1.0;" x1="766.375" x2="766.375" y1="330.0801" y2="429.1738"/><line style="stroke:#181818;stroke-width:1.0;" x1="766.375" x2="836.5" y1="330.0801" y2="330.0801"/><polygon fill="#181818" points="826.5,326.0801,836.5,330.0801,826.5,334.0801,830.5,330.0801" style="stroke:#181818;stroke-width:1.0;"/><line style="stroke:#181818;stroke-width:1.0;" x1="848.5" x2="848.5" y1="397.1738" y2="402.1738"/><line style="stroke:#181818;stroke-width:1.0;" x1="848.5" x2="443" y1="402.1738" y2="402.1738"/><line style="stroke:#181818;stroke-width:1.0;" x1="443" x2="443" y1="402.1738" y2="417.1738"/><polygon fill="#181818" points="439,407.1738,443,417.1738,447,407.1738,443,411.1738" style="stroke:#181818;stroke-width:1.0;"/><line style="stroke:#181818;stroke-width:1.0;" x1="443" x2="443" y1="509.1865" y2="514.1865"/><line style="stroke:#181818;stroke-width:1.0;" x1="443" x2="848.5" y1="514.1865" y2="514.1865"/><line style="stroke:#181818;stroke-width:1.0;" x1="848.5" x2="848.5" y1="514.1865" y2="529.1865"/><polygon fill="#181818" points="844.5,519.1865,848.5,529.1865,852.5,519.1865,848.5,523.1865" style="stroke:#181818;stroke-width:1.0;"/><line style="stroke:#181818;stroke-width:1.0;" x1="443" x2="443" y1="663.374" y2="673.374"/><line style="stroke:#181818;stroke-width:1.0;" x1="443" x2="848.5" y1="673.374" y2="673.374"/><line style="stroke:#181818;stroke-width:1.0;" x1="848.5" x2="848.5" y1="673.374" y2="690.874"/><polygon fill="#181818" points="844.5,680.874,848.5,690.874,852.5,680.874,848.5,684.874" style="stroke:#181818;stroke-width:1.0;"/><line style="stroke:#181818;stroke-width:1.0;" x1="848.5" x2="848.5" y1="725.9678" y2="730.9678"/><line style="stroke:#181818;stroke-width:1.0;" x1="848.5" x2="443" y1="730.9678" y2="730.9678"/><line style="stroke:#181818;stroke-width:1.0;" x1="443" x2="443" y1="730.9678" y2="745.9678"/><polygon fill="#181818" points="439,735.9678,443,745.9678,447,735.9678,443,739.9678" style="stroke:#181818;stroke-width:1.0;"/><line style="stroke:#181818;stroke-width:1.0;" x1="848.5" x2="848.5" y1="564.2803" y2="569.2803"/><line style="stroke:#181818;stroke-width:1.0;" x1="848.5" x2="443" y1="569.2803" y2="569.2803"/><line style="stroke:#181818;stroke-width:1.0;" x1="443" x2="443" y1="569.2803" y2="584.2803"/><polygon fill="#181818" points="439,574.2803,443,584.2803,447,574.2803,443,578.2803" style="stroke:#181818;stroke-width:1.0;"/><text fill="#000000" font-family="sans-serif" font-size="18" lengthAdjust="spacing" textLength="59" x="287.75" y="31.1406">System</text><text fill="#000000" font-family="sans-serif" font-size="18" lengthAdjust="spacing" textLength="54" x="780.25" y="31.1406">Trener</text><!--SRC=[ZL8zJiCm5DvpYZUsLsW71jWO600nFvpNr8wnBTjL52iJ4k8CLO_HbQt9lR3hq0Oe4fEbv-_tsPthuBvrdbwApdVmO4cHBPn7wukLrEYvga1fJo1fvHSZ009ANUa6LGiDk2EVqqN2q-aQkFEAao2ubPoKBnR61XB3ZiMxKeEZcWaETxP2nGCoWT56zDl-VUAnB3hN5OkdTjWrdBoag0WrnhD46qwCPMgJOC-7lJqFBHb2VvnRJ4njagMCoHBLS1SRiVKOyB1libscGRFcac1s7LfG64av-QaLMsl6SVW0GIMfKUDg7W4mYuXvsWhCFDRpd_cJV_kN_zWZvutIYYeDOGePMrrOZB5wnULc1EFthUJkiRcFksrhFa7zwdo3YbBf-0PnQBJp_TP4yoyE18MYt8Z-3HpljvC7-zS2obnxakOSndbjBlwinz2wElt0CiSv_g700bM7_V2gcwHurfjahhFq9m00]--></g></svg>