<svg xmlns="http://www.w3.org/2000/svg" xmlns:xlink="http://www.w3.org/1999/xlink" contentStyleType="text/css" height="966px" preserveAspectRatio="none" style="width:1294px;height:966px;background:#FFFFFF;" version="1.1" viewBox="0 0 1294 966" width="1294px" zoomAndPan="magnify"><title>Edytowanie danych pracownika</title><defs/><g><text fill="#000000" font-family="sans-serif" font-size="14" font-weight="bold" lengthAdjust="spacing" textLength="248.9854" x="521.2732" y="32.9951">Edytowanie danych pracownika</text><rect fill="none" height="20.9531" style="stroke:none;stroke-width:1.0;" width="1261.5317" x="15" y="50.042"/><path d="M30,85.9951 L30,111.1279 L317.7158,111.1279 L317.7158,95.9951 L307.7158,85.9951 L30,85.9951 " fill="#FEFFDD" style="stroke:#181818;stroke-width:0.5;"/><path d="M307.7158,85.9951 L307.7158,95.9951 L317.7158,95.9951 L307.7158,85.9951 " fill="#FEFFDD" style="stroke:#181818;stroke-width:0.5;"/><text fill="#000000" font-family="sans-serif" font-size="13" lengthAdjust="spacing" textLength="266.7158" x="36" y="103.062">Pracowik jest zarejestrowany w systemie</text><path d="M77.217,131.1279 L77.217,156.2607 L270.4988,156.2607 L270.4988,141.1279 L260.4988,131.1279 L77.217,131.1279 " fill="#FEFFDD" style="stroke:#181818;stroke-width:0.5;"/><path d="M260.4988,131.1279 L260.4988,141.1279 L270.4988,141.1279 L260.4988,131.1279 " fill="#FEFFDD" style="stroke:#181818;stroke-width:0.5;"/><text fill="#000000" font-family="sans-serif" font-size="13" lengthAdjust="spacing" textLength="172.2817" x="83.217" y="148.1948">Kierownik jest zalogowany</text><ellipse cx="337.7158" cy="121.1279" fill="#222222" rx="10" ry="10" style="stroke:#222222;stroke-width:1.0;"/><rect fill="#F1F1F1" height="33.9688" rx="12.5" ry="12.5" style="stroke:#181818;stroke-width:0.5;" width="161.8379" x="256.7969" y="186.2607"/><text fill="#000000" font-family="sans-serif" font-size="12" lengthAdjust="spacing" textLength="141.8379" x="266.7969" y="207.3994">&#380;&#261;danie zmiany danych</text><line style="stroke:#000000;stroke-width:1.5;" x1="15" x2="15" y1="50.042" y2="954.8691"/><rect fill="#F1F1F1" height="33.9688" rx="12.5" ry="12.5" style="stroke:#181818;stroke-width:0.5;" width="226.918" x="428.6348" y="240.2295"/><text fill="#000000" font-family="sans-serif" font-size="12" lengthAdjust="spacing" textLength="206.918" x="438.6348" y="261.3682">wyb&#243;r opcji wy&#347;wietl pracownik&#243;w</text><rect fill="#F1F1F1" height="33.9688" rx="12.5" ry="12.5" style="stroke:#181818;stroke-width:0.5;" width="147.4238" x="468.3818" y="392.167"/><text fill="#000000" font-family="sans-serif" font-size="12" lengthAdjust="spacing" textLength="127.4238" x="478.3818" y="413.3057">wyszukaj pracownika</text><rect fill="#F1F1F1" height="33.9688" rx="12.5" ry="12.5" style="stroke:#181818;stroke-width:0.5;" width="139.1973" x="472.4951" y="555.8149"/><text fill="#000000" font-family="sans-serif" font-size="12" lengthAdjust="spacing" textLength="119.1973" x="482.4951" y="576.9536">wybierz pracownika</text><rect fill="#F1F1F1" height="33.9688" rx="12.5" ry="12.5" style="stroke:#181818;stroke-width:0.5;" width="91.5195" x="496.334" y="653.7837"/><text fill="#000000" font-family="sans-serif" font-size="12" lengthAdjust="spacing" textLength="71.5195" x="506.334" y="674.9224">edytuj dane</text><rect fill="#F1F1F1" height="33.9688" rx="12.5" ry="12.5" style="stroke:#181818;stroke-width:0.5;" width="143.5391" x="470.3242" y="715.2524"/><text fill="#000000" font-family="sans-serif" font-size="12" lengthAdjust="spacing" textLength="123.5391" x="480.3242" y="736.3911">wybierz opcj&#281; zapisz</text><polygon fill="#F1F1F1" points="542.0938,609.7837,554.0938,621.7837,542.0938,633.7837,530.0938,621.7837,542.0938,609.7837" style="stroke:#181818;stroke-width:0.5;"/><line style="stroke:#000000;stroke-width:1.5;" x1="422.6348" x2="422.6348" y1="50.042" y2="954.8691"/><rect fill="#F1F1F1" height="33.9688" rx="12.5" ry="12.5" style="stroke:#181818;stroke-width:0.5;" width="183.0781" x="1016.8613" y="338.1982"/><text fill="#000000" font-family="sans-serif" font-size="12" lengthAdjust="spacing" textLength="163.0781" x="1026.8613" y="359.3369">wy&#347;wietl list&#281; pracownik&#243;w</text><rect fill="#F1F1F1" height="33.9688" rx="12.5" ry="12.5" style="stroke:#181818;stroke-width:0.5;" width="270.541" x="973.1299" y="446.1357"/><text fill="#000000" font-family="sans-serif" font-size="12" lengthAdjust="spacing" textLength="250.541" x="983.1299" y="467.2744">wy&#347;wtiel opcje pasuj&#261;ce do wyszukiwania</text><polygon fill="#F1F1F1" points="1108.4004,294.1982,1120.4004,306.1982,1108.4004,318.1982,1096.4004,306.1982,1108.4004,294.1982" style="stroke:#181818;stroke-width:0.5;"/><polygon fill="#F1F1F1" points="1031.3118,500.1045,1185.489,500.1045,1197.489,512.1045,1185.489,524.1045,1031.3118,524.1045,1019.3118,512.1045,1031.3118,500.1045" style="stroke:#181818;stroke-width:0.5;"/><text fill="#000000" font-family="sans-serif" font-size="11" lengthAdjust="spacing" textLength="17.4238" x="1112.4004" y="534.3149">tak</text><text fill="#000000" font-family="sans-serif" font-size="11" lengthAdjust="spacing" textLength="154.1772" x="1031.3118" y="515.9126">pracownik zosta&#322; znale&#378;iony</text><text fill="#000000" font-family="sans-serif" font-size="11" lengthAdjust="spacing" textLength="16.7954" x="1197.489" y="509.5103">nie</text><polygon fill="#F1F1F1" points="1019.2188,769.2212,1197.582,769.2212,1209.582,781.2212,1197.582,793.2212,1019.2188,793.2212,1007.2188,781.2212,1019.2188,769.2212" style="stroke:#181818;stroke-width:0.5;"/><text fill="#000000" font-family="sans-serif" font-size="11" lengthAdjust="spacing" textLength="17.4238" x="1112.4004" y="803.4316">tak</text><text fill="#000000" font-family="sans-serif" font-size="11" lengthAdjust="spacing" textLength="178.3633" x="1019.2188" y="785.0293">czy dane maj&#261; poprawny format</text><text fill="#000000" font-family="sans-serif" font-size="11" lengthAdjust="spacing" textLength="16.7954" x="1209.582" y="778.627">nie</text><rect fill="#F1F1F1" height="33.9688" rx="12.5" ry="12.5" style="stroke:#181818;stroke-width:0.5;" width="185.6855" x="1015.5576" y="824.9316"/><text fill="#000000" font-family="sans-serif" font-size="12" lengthAdjust="spacing" textLength="165.6855" x="1025.5576" y="846.0703">modyfikuj dane pracownika</text><path d="M664.5527,883.3184 L664.5527,908.4512 L982.3945,908.4512 L982.3945,893.3184 L972.3945,883.3184 L664.5527,883.3184 " fill="#FEFFDD" style="stroke:#181818;stroke-width:0.5;"/><path d="M972.3945,883.3184 L972.3945,893.3184 L982.3945,893.3184 L972.3945,883.3184 " fill="#FEFFDD" style="stroke:#181818;stroke-width:0.5;"/><text fill="#000000" font-family="sans-serif" font-size="13" lengthAdjust="spacing" textLength="296.8418" x="670.5527" y="900.3853">Zmodyfikowane dane pracownika w systemie</text><rect fill="#F1F1F1" height="33.9688" rx="12.5" ry="12.5" style="stroke:#181818;stroke-width:0.5;" width="212.0117" x="1002.3945" y="878.9004"/><text fill="#000000" font-family="sans-serif" font-size="12" lengthAdjust="spacing" textLength="192.0117" x="1012.3945" y="900.0391">wy&#347;wietl potwierdzenie operacji</text><ellipse cx="1108.4004" cy="943.8691" fill="none" rx="11" ry="11" style="stroke:#222222;stroke-width:1.0;"/><ellipse cx="1108.4004" cy="943.8691" fill="#222222" rx="6" ry="6" style="stroke:#222222;stroke-width:1.0;"/><line style="stroke:#000000;stroke-width:1.5;" x1="659.5527" x2="659.5527" y1="50.042" y2="954.8691"/><line style="stroke:#000000;stroke-width:1.5;" x1="1274.6709" x2="1274.6709" y1="50.042" y2="954.8691"/><line style="stroke:#181818;stroke-width:1.0;" x1="337.7158" x2="337.7158" y1="131.1279" y2="186.2607"/><polygon fill="#181818" points="333.7158,176.2607,337.7158,186.2607,341.7158,176.2607,337.7158,180.2607" style="stroke:#181818;stroke-width:1.0;"/><line style="stroke:#181818;stroke-width:1.0;" x1="542.0938" x2="542.0938" y1="687.7524" y2="715.2524"/><polygon fill="#181818" points="538.0938,705.2524,542.0938,715.2524,546.0938,705.2524,542.0938,709.2524" style="stroke:#181818;stroke-width:1.0;"/><line style="stroke:#181818;stroke-width:1.0;" x1="542.0938" x2="542.0938" y1="633.7837" y2="653.7837"/><polygon fill="#181818" points="538.0938,643.7837,542.0938,653.7837,546.0938,643.7837,542.0938,647.7837" style="stroke:#181818;stroke-width:1.0;"/><line style="stroke:#181818;stroke-width:1.0;" x1="542.0938" x2="542.0938" y1="589.7837" y2="609.7837"/><polygon fill="#181818" points="538.0938,599.7837,542.0938,609.7837,546.0938,599.7837,542.0938,603.7837" style="stroke:#181818;stroke-width:1.0;"/><line style="stroke:#181818;stroke-width:1.0;" x1="1108.4004" x2="1108.4004" y1="318.1982" y2="338.1982"/><polygon fill="#181818" points="1104.4004,328.1982,1108.4004,338.1982,1112.4004,328.1982,1108.4004,332.1982" style="stroke:#181818;stroke-width:1.0;"/><line style="stroke:#181818;stroke-width:1.0;" x1="1197.489" x2="1255.6709" y1="512.1045" y2="512.1045"/><polygon fill="#181818" points="1251.6709,419.1514,1255.6709,409.1514,1259.6709,419.1514,1255.6709,415.1514" style="stroke:#181818;stroke-width:1.0;"/><line style="stroke:#181818;stroke-width:1.0;" x1="1255.6709" x2="1255.6709" y1="306.1982" y2="512.1045"/><line style="stroke:#181818;stroke-width:1.0;" x1="1255.6709" x2="1120.4004" y1="306.1982" y2="306.1982"/><polygon fill="#181818" points="1130.4004,302.1982,1120.4004,306.1982,1130.4004,310.1982,1126.4004,306.1982" style="stroke:#181818;stroke-width:1.0;"/><line style="stroke:#181818;stroke-width:1.0;" x1="1108.4004" x2="1108.4004" y1="480.1045" y2="500.1045"/><polygon fill="#181818" points="1104.4004,490.1045,1108.4004,500.1045,1112.4004,490.1045,1108.4004,494.1045" style="stroke:#181818;stroke-width:1.0;"/><line style="stroke:#181818;stroke-width:1.0;" x1="1108.4004" x2="1108.4004" y1="793.2212" y2="824.9316"/><polygon fill="#181818" points="1104.4004,814.9316,1108.4004,824.9316,1112.4004,814.9316,1108.4004,818.9316" style="stroke:#181818;stroke-width:1.0;"/><line style="stroke:#181818;stroke-width:1.0;" x1="1108.4004" x2="1108.4004" y1="858.9004" y2="878.9004"/><polygon fill="#181818" points="1104.4004,868.9004,1108.4004,878.9004,1112.4004,868.9004,1108.4004,872.9004" style="stroke:#181818;stroke-width:1.0;"/><line style="stroke:#181818;stroke-width:1.0;" x1="1108.4004" x2="1108.4004" y1="912.8691" y2="932.8691"/><polygon fill="#181818" points="1104.4004,922.8691,1108.4004,932.8691,1112.4004,922.8691,1108.4004,926.8691" style="stroke:#181818;stroke-width:1.0;"/><line style="stroke:#181818;stroke-width:1.0;" x1="337.7158" x2="337.7158" y1="220.2295" y2="225.2295"/><line style="stroke:#181818;stroke-width:1.0;" x1="337.7158" x2="542.0938" y1="225.2295" y2="225.2295"/><line style="stroke:#181818;stroke-width:1.0;" x1="542.0938" x2="542.0938" y1="225.2295" y2="240.2295"/><polygon fill="#181818" points="538.0938,230.2295,542.0938,240.2295,546.0938,230.2295,542.0938,234.2295" style="stroke:#181818;stroke-width:1.0;"/><line style="stroke:#181818;stroke-width:1.0;" x1="1108.4004" x2="1108.4004" y1="372.167" y2="377.167"/><line style="stroke:#181818;stroke-width:1.0;" x1="1108.4004" x2="542.0938" y1="377.167" y2="377.167"/><line style="stroke:#181818;stroke-width:1.0;" x1="542.0938" x2="542.0938" y1="377.167" y2="392.167"/><polygon fill="#181818" points="538.0938,382.167,542.0938,392.167,546.0938,382.167,542.0938,386.167" style="stroke:#181818;stroke-width:1.0;"/><line style="stroke:#181818;stroke-width:1.0;" x1="542.0938" x2="542.0938" y1="426.1357" y2="431.1357"/><line style="stroke:#181818;stroke-width:1.0;" x1="542.0938" x2="1108.4004" y1="431.1357" y2="431.1357"/><line style="stroke:#181818;stroke-width:1.0;" x1="1108.4004" x2="1108.4004" y1="431.1357" y2="446.1357"/><polygon fill="#181818" points="1104.4004,436.1357,1108.4004,446.1357,1112.4004,436.1357,1108.4004,440.1357" style="stroke:#181818;stroke-width:1.0;"/><line style="stroke:#181818;stroke-width:1.0;" x1="542.0938" x2="542.0938" y1="274.1982" y2="279.1982"/><line style="stroke:#181818;stroke-width:1.0;" x1="542.0938" x2="1108.4004" y1="279.1982" y2="279.1982"/><line style="stroke:#181818;stroke-width:1.0;" x1="1108.4004" x2="1108.4004" y1="279.1982" y2="294.1982"/><polygon fill="#181818" points="1104.4004,284.1982,1108.4004,294.1982,1112.4004,284.1982,1108.4004,288.1982" style="stroke:#181818;stroke-width:1.0;"/><line style="stroke:#181818;stroke-width:1.0;" x1="1108.4004" x2="1108.4004" y1="524.1045" y2="540.8149"/><line style="stroke:#181818;stroke-width:1.0;" x1="1108.4004" x2="542.0938" y1="540.8149" y2="540.8149"/><line style="stroke:#181818;stroke-width:1.0;" x1="542.0938" x2="542.0938" y1="540.8149" y2="555.8149"/><polygon fill="#181818" points="538.0938,545.8149,542.0938,555.8149,546.0938,545.8149,542.0938,549.8149" style="stroke:#181818;stroke-width:1.0;"/><line style="stroke:#181818;stroke-width:1.0;" x1="1209.582" x2="1219.582" y1="781.2212" y2="781.2212"/><polygon fill="#181818" points="1215.582,707.7524,1219.582,697.7524,1223.582,707.7524,1219.582,703.7524" style="stroke:#181818;stroke-width:1.0;"/><line style="stroke:#181818;stroke-width:1.0;" x1="1219.582" x2="1219.582" y1="621.7837" y2="781.2212"/><line style="stroke:#181818;stroke-width:1.0;" x1="1219.582" x2="554.0938" y1="621.7837" y2="621.7837"/><polygon fill="#181818" points="564.0938,617.7837,554.0938,621.7837,564.0938,625.7837,560.0938,621.7837" style="stroke:#181818;stroke-width:1.0;"/><line style="stroke:#181818;stroke-width:1.0;" x1="542.0938" x2="542.0938" y1="749.2212" y2="754.2212"/><line style="stroke:#181818;stroke-width:1.0;" x1="542.0938" x2="1108.4004" y1="754.2212" y2="754.2212"/><line style="stroke:#181818;stroke-width:1.0;" x1="1108.4004" x2="1108.4004" y1="754.2212" y2="769.2212"/><polygon fill="#181818" points="1104.4004,759.2212,1108.4004,769.2212,1112.4004,759.2212,1108.4004,763.2212" style="stroke:#181818;stroke-width:1.0;"/><text fill="#000000" font-family="sans-serif" font-size="18" lengthAdjust="spacing" textLength="92.3203" x="175.5181" y="66.75">pracownik</text><text fill="#000000" font-family="sans-serif" font-size="18" lengthAdjust="spacing" textLength="86.4668" x="500.7212" y="66.75">kierownik</text><text fill="#000000" font-family="sans-serif" font-size="18" lengthAdjust="spacing" textLength="65.0742" x="937.4355" y="66.75">system</text><!--SRC=[RLAxRiCm3Dpz5KIcv1UIkLENpjrKcqveovOWCH0aU2gGZoZw6TcARed_gv8VYLDa4u6xuzrHJ2mHLY-5P-L4ImY5Q7r-06r4hbnBjLXbdUxkSzRL7TI4Pffi1zPRnYR1Cil2S5PA9PZQFRIA4IIMl8MtGO1ggD0o164mFKpQwi5D6eHFkQ_pkfairNuWPjl-zteg1kEXeIGr-jybczdM-O_BsO3IUKNWVF_j25dUmrpERfSYP0Or2aw46IF9ylNhFtGKjU5OYshHqIWoifbG3XiHjB37wdhAOwiAHXgbbYD-N0ZkGB7_zKq9WeeLzfyGMY6n_o7L-WsGXNMCk4cTm9f5lRd5Yys41oDp4emdFLQf3jpTaSbNJ1M49XkMqMSdUHWgH6X4T0vQHMqNQosLQGG_inBL6rNuakfftOETHQDQSNoO8c0wbz8OOHNjdbxyVP9CLyR_gillObdfFm00]--></g></svg>