<svg xmlns="http://www.w3.org/2000/svg" xmlns:xlink="http://www.w3.org/1999/xlink" contentStyleType="text/css" height="596px" preserveAspectRatio="none" style="width:1425px;height:596px;background:#FFFFFF;" version="1.1" viewBox="0 0 1425 596" width="1425px" zoomAndPan="magnify"><defs/><g><rect fill="none" height="20.9531" style="stroke:none;stroke-width:1.0;" width="1392.1333" x="15" y="12.7451"/><rect fill="#F1F1F1" height="33.9688" rx="12.5" ry="12.5" style="stroke:#181818;stroke-width:0.5;" width="335.8672" x="364.1138" y="137.667"/><text fill="#000000" font-family="sans-serif" font-size="12" lengthAdjust="spacing" textLength="315.8672" x="374.1138" y="158.8057">wy&#347;wietl kalendarz z zaplanowanymi konsweracjami</text><path d="M20,235.6045 L20,275.8701 L419.479,275.8701 L419.479,245.6045 L409.479,235.6045 L20,235.6045 " fill="#FEFFDD" style="stroke:#181818;stroke-width:0.5;"/><path d="M409.479,235.6045 L409.479,245.6045 L419.479,245.6045 L409.479,235.6045 " fill="#FEFFDD" style="stroke:#181818;stroke-width:0.5;"/><text fill="#000000" font-family="sans-serif" font-size="13" lengthAdjust="spacing" textLength="220.1558" x="26" y="252.6714">Sala zosta&#322;a poddana konserwacji</text><text fill="#000000" font-family="sans-serif" font-size="13" lengthAdjust="spacing" textLength="378.479" x="26" y="267.8042">Pracownik otrzyma&#322; potwierdzenie wykonania konserwacji</text><rect fill="#F1F1F1" height="33.9688" rx="12.5" ry="12.5" style="stroke:#181818;stroke-width:0.5;" width="294.7754" x="384.6597" y="324.2725"/><text fill="#000000" font-family="sans-serif" font-size="12" lengthAdjust="spacing" textLength="274.7754" x="394.6597" y="345.4111">wy&#347;wietl szczeg&#243;&#322;y zaplanowanej konserwacji</text><rect fill="#F1F1F1" height="33.9688" rx="12.5" ry="12.5" style="stroke:#181818;stroke-width:0.5;" width="238.2383" x="412.9282" y="506.8271"/><text fill="#000000" font-family="sans-serif" font-size="12" lengthAdjust="spacing" textLength="218.2383" x="422.9282" y="527.9658">wy&#347;wietl potwierdzenie zako&#324;czenia</text><polygon fill="#F1F1F1" points="431.479,275.8701,632.6157,275.8701,644.6157,287.8701,632.6157,299.8701,431.479,299.8701,419.479,287.8701,431.479,275.8701" style="stroke:#181818;stroke-width:0.5;"/><text fill="#000000" font-family="sans-serif" font-size="11" lengthAdjust="spacing" textLength="17.4238" x="536.0474" y="310.0806">tak</text><text fill="#000000" font-family="sans-serif" font-size="11" lengthAdjust="spacing" textLength="201.1367" x="431.479" y="291.6782">"czy wybra sala wymaga konseracji"</text><polygon fill="#F1F1F1" points="532.0474,560.7959,544.0474,572.7959,532.0474,584.7959,520.0474,572.7959,532.0474,560.7959" style="stroke:#181818;stroke-width:0.5;"/><line style="stroke:#000000;stroke-width:1.5;" x1="15" x2="15" y1="12.7451" y2="584.7959"/><ellipse cx="1221.0283" cy="53.6982" fill="#222222" rx="10" ry="10" style="stroke:#222222;stroke-width:1.0;"/><rect fill="#F1F1F1" height="33.9688" rx="12.5" ry="12.5" style="stroke:#181818;stroke-width:0.5;" width="256.8945" x="1092.5811" y="83.6982"/><text fill="#000000" font-family="sans-serif" font-size="12" lengthAdjust="spacing" textLength="236.8945" x="1102.5811" y="104.8369">Przejd&#378; do sekcji kalendarz konserwacji</text><rect fill="#F1F1F1" height="33.9688" rx="12.5" ry="12.5" style="stroke:#181818;stroke-width:0.5;" width="94.6191" x="1173.7188" y="191.6357"/><text fill="#000000" font-family="sans-serif" font-size="12" lengthAdjust="spacing" textLength="74.6191" x="1183.7188" y="212.7744">wybierz sal&#281;</text><path d="M708.981,235.6045 L708.981,275.8701 L1108.46,275.8701 L1108.46,245.6045 L1098.46,235.6045 L708.981,235.6045 " fill="#FEFFDD" style="stroke:#181818;stroke-width:0.5;"/><path d="M1098.46,235.6045 L1098.46,245.6045 L1108.46,245.6045 L1098.46,235.6045 " fill="#FEFFDD" style="stroke:#181818;stroke-width:0.5;"/><text fill="#000000" font-family="sans-serif" font-size="13" lengthAdjust="spacing" textLength="220.1558" x="714.981" y="252.6714">Sala zosta&#322;a poddana konserwacji</text><text fill="#000000" font-family="sans-serif" font-size="13" lengthAdjust="spacing" textLength="378.479" x="714.981" y="267.8042">Pracownik otrzyma&#322; potwierdzenie wykonania konserwacji</text><rect fill="#F1F1F1" height="33.9688" rx="12.5" ry="12.5" style="stroke:#181818;stroke-width:0.5;" width="250.7305" x="1095.6631" y="378.2412"/><text fill="#000000" font-family="sans-serif" font-size="12" lengthAdjust="spacing" textLength="230.7305" x="1105.6631" y="399.3799">wybierz opcj&#281; rozpocznij konswewacj&#281;</text><path d="M783.8877,446.5615 L783.8877,486.8271 L1020.7842,486.8271 L1020.7842,456.5615 L1010.7842,446.5615 L783.8877,446.5615 " fill="#FEFFDD" style="stroke:#181818;stroke-width:0.5;"/><path d="M1010.7842,446.5615 L1010.7842,456.5615 L1020.7842,456.5615 L1010.7842,446.5615 " fill="#FEFFDD" style="stroke:#181818;stroke-width:0.5;"/><text fill="#000000" font-family="sans-serif" font-size="13" lengthAdjust="spacing" textLength="203.9629" x="789.8877" y="463.6284">pracownik mo&#380;e doda&#263; notatk&#281;</text><text fill="#000000" font-family="sans-serif" font-size="13" lengthAdjust="spacing" textLength="211.7642" x="794.02" y="478.7612">co do zrealizowanych czynno&#347;ci;</text><rect fill="#F1F1F1" height="33.9688" rx="12.5" ry="12.5" style="stroke:#181818;stroke-width:0.5;" width="360.4883" x="1040.7842" y="449.71"/><text fill="#000000" font-family="sans-serif" font-size="12" lengthAdjust="spacing" textLength="340.4883" x="1050.7842" y="470.8486">Po zako&#324;czeniu prac wybierz opcj&#281; zako&#324;cz konserwacj&#281;</text><line style="stroke:#000000;stroke-width:1.5;" x1="703.981" x2="703.981" y1="12.7451" y2="584.7959"/><line style="stroke:#000000;stroke-width:1.5;" x1="1405.2725" x2="1405.2725" y1="12.7451" y2="584.7959"/><line style="stroke:#181818;stroke-width:1.0;" x1="532.0474" x2="532.0474" y1="299.8701" y2="324.2725"/><polygon fill="#181818" points="528.0474,314.2725,532.0474,324.2725,536.0474,314.2725,532.0474,318.2725" style="stroke:#181818;stroke-width:1.0;"/><line style="stroke:#181818;stroke-width:1.0;" x1="419.479" x2="84.9067" y1="287.8701" y2="287.8701"/><polygon fill="#181818" points="80.9067,422.21,84.9067,432.21,88.9067,422.21,84.9067,426.21" style="stroke:#181818;stroke-width:1.0;"/><line style="stroke:#181818;stroke-width:1.0;" x1="84.9067" x2="84.9067" y1="287.8701" y2="572.7959"/><line style="stroke:#181818;stroke-width:1.0;" x1="84.9067" x2="520.0474" y1="572.7959" y2="572.7959"/><polygon fill="#181818" points="510.0474,568.7959,520.0474,572.7959,510.0474,576.7959,514.0474,572.7959" style="stroke:#181818;stroke-width:1.0;"/><line style="stroke:#181818;stroke-width:1.0;" x1="532.0474" x2="532.0474" y1="540.7959" y2="560.7959"/><polygon fill="#181818" points="528.0474,550.7959,532.0474,560.7959,536.0474,550.7959,532.0474,554.7959" style="stroke:#181818;stroke-width:1.0;"/><line style="stroke:#181818;stroke-width:1.0;" x1="1221.0283" x2="1221.0283" y1="63.6982" y2="83.6982"/><polygon fill="#181818" points="1217.0283,73.6982,1221.0283,83.6982,1225.0283,73.6982,1221.0283,77.6982" style="stroke:#181818;stroke-width:1.0;"/><line style="stroke:#181818;stroke-width:1.0;" x1="1221.0283" x2="1221.0283" y1="412.21" y2="449.71"/><polygon fill="#181818" points="1217.0283,439.71,1221.0283,449.71,1225.0283,439.71,1221.0283,443.71" style="stroke:#181818;stroke-width:1.0;"/><line style="stroke:#181818;stroke-width:1.0;" x1="1221.0283" x2="1221.0283" y1="117.667" y2="122.667"/><line style="stroke:#181818;stroke-width:1.0;" x1="1221.0283" x2="532.0474" y1="122.667" y2="122.667"/><line style="stroke:#181818;stroke-width:1.0;" x1="532.0474" x2="532.0474" y1="122.667" y2="137.667"/><polygon fill="#181818" points="528.0474,127.667,532.0474,137.667,536.0474,127.667,532.0474,131.667" style="stroke:#181818;stroke-width:1.0;"/><line style="stroke:#181818;stroke-width:1.0;" x1="532.0474" x2="532.0474" y1="171.6357" y2="176.6357"/><line style="stroke:#181818;stroke-width:1.0;" x1="532.0474" x2="1221.0283" y1="176.6357" y2="176.6357"/><line style="stroke:#181818;stroke-width:1.0;" x1="1221.0283" x2="1221.0283" y1="176.6357" y2="191.6357"/><polygon fill="#181818" points="1217.0283,181.6357,1221.0283,191.6357,1225.0283,181.6357,1221.0283,185.6357" style="stroke:#181818;stroke-width:1.0;"/><line style="stroke:#181818;stroke-width:1.0;" x1="532.0474" x2="532.0474" y1="358.2412" y2="363.2412"/><line style="stroke:#181818;stroke-width:1.0;" x1="532.0474" x2="1221.0283" y1="363.2412" y2="363.2412"/><line style="stroke:#181818;stroke-width:1.0;" x1="1221.0283" x2="1221.0283" y1="363.2412" y2="378.2412"/><polygon fill="#181818" points="1217.0283,368.2412,1221.0283,378.2412,1225.0283,368.2412,1221.0283,372.2412" style="stroke:#181818;stroke-width:1.0;"/><line style="stroke:#181818;stroke-width:1.0;" x1="1221.0283" x2="1221.0283" y1="483.6787" y2="491.8271"/><line style="stroke:#181818;stroke-width:1.0;" x1="1221.0283" x2="532.0474" y1="491.8271" y2="491.8271"/><line style="stroke:#181818;stroke-width:1.0;" x1="532.0474" x2="532.0474" y1="491.8271" y2="506.8271"/><polygon fill="#181818" points="528.0474,496.8271,532.0474,506.8271,536.0474,496.8271,532.0474,500.8271" style="stroke:#181818;stroke-width:1.0;"/><line style="stroke:#181818;stroke-width:1.0;" x1="1221.0283" x2="1221.0283" y1="225.6045" y2="238.2373"/><line style="stroke:#181818;stroke-width:1.0;" x1="1221.0283" x2="532.0474" y1="238.2373" y2="238.2373"/><line style="stroke:#181818;stroke-width:1.0;" x1="532.0474" x2="532.0474" y1="238.2373" y2="275.8701"/><polygon fill="#181818" points="528.0474,265.8701,532.0474,275.8701,536.0474,265.8701,532.0474,269.8701" style="stroke:#181818;stroke-width:1.0;"/><text fill="#000000" font-family="sans-serif" font-size="18" lengthAdjust="spacing" textLength="65.0742" x="326.9534" y="29.4531">system</text><text fill="#000000" font-family="sans-serif" font-size="18" lengthAdjust="spacing" textLength="92.3203" x="1008.4666" y="29.4531">pracownik</text><!--SRC=[TL8xRi904Ett52CgA781k44gfBHfXlK0wy-EjRkHvPKh52bdG1mZNPGk-5wPDPyOK5njyNv-RphV-TO7gbHNTxL3pOqrXLgNZC7O3LWE12MjWmBvdc1vWK1EFa34aZVSe6sXWPEGeJFq-GIeIxG9WL2mzUGQr3c2nz8eijbWe7n05zHywIBbMVy56OEdGkS62Ym5XIwEs6QXEj-fUTFsXyPGA4UeE79iApEm6dB9iqgyUk2j30bMCXpt9ospXkb4H_cBTkM6T2ZF2ZUNrCbsCeEm9GlJWCLiRE-ZZhJv-UntxSYUyhlCOs-kTNxSW-DOiuxMvEUa2Pj2pPSiKWNtxo9jpHkaRU2EVG6CV1BtSRmvNAU5YljlaeOpF7ua18RYk7-re3dL7Xt9Cd6eJsz1Ah6M-uD-xBpc80-NfNWqpegBDAnPg_-kw2Mr6rb6xtSeEbbsUnrcGFrT6WSNPOj-T-VPjC91CRpXNe_g5m00]--></g></svg>