<svg xmlns="http://www.w3.org/2000/svg" xmlns:xlink="http://www.w3.org/1999/xlink" contentStyleType="text/css" height="676px" preserveAspectRatio="none" style="width:1425px;height:676px;background:#FFFFFF;" version="1.1" viewBox="0 0 1425 676" width="1425px" zoomAndPan="magnify"><title>Konserwacja sali</title><defs/><g><text fill="#000000" font-family="sans-serif" font-size="14" font-weight="bold" lengthAdjust="spacing" textLength="132.3438" x="644.8948" y="32.9951">Konserwacja sali</text><rect fill="none" height="20.9531" style="stroke:none;stroke-width:1.0;" width="1392.1333" x="15" y="50.042"/><rect fill="#F1F1F1" height="33.9688" rx="12.5" ry="12.5" style="stroke:#181818;stroke-width:0.5;" width="335.8672" x="364.1138" y="174.9639"/><text fill="#000000" font-family="sans-serif" font-size="12" lengthAdjust="spacing" textLength="315.8672" x="374.1138" y="196.1025">wy&#347;wietl kalendarz z zaplanowanymi konsweracjami</text><path d="M20,272.9014 L20,313.167 L419.479,313.167 L419.479,282.9014 L409.479,272.9014 L20,272.9014 " fill="#FEFFDD" style="stroke:#181818;stroke-width:0.5;"/><path d="M409.479,272.9014 L409.479,282.9014 L419.479,282.9014 L409.479,272.9014 " fill="#FEFFDD" style="stroke:#181818;stroke-width:0.5;"/><text fill="#000000" font-family="sans-serif" font-size="13" lengthAdjust="spacing" textLength="220.1558" x="26" y="289.9683">Sala zosta&#322;a poddana konserwacji</text><text fill="#000000" font-family="sans-serif" font-size="13" lengthAdjust="spacing" textLength="378.479" x="26" y="305.1011">Pracownik otrzyma&#322; potwierdzenie wykonania konserwacji</text><rect fill="#F1F1F1" height="33.9688" rx="12.5" ry="12.5" style="stroke:#181818;stroke-width:0.5;" width="294.7754" x="384.6597" y="361.5693"/><text fill="#000000" font-family="sans-serif" font-size="12" lengthAdjust="spacing" textLength="274.7754" x="394.6597" y="382.708">wy&#347;wietl szczeg&#243;&#322;y zaplanowanej konserwacji</text><rect fill="#F1F1F1" height="33.9688" rx="12.5" ry="12.5" style="stroke:#181818;stroke-width:0.5;" width="238.2383" x="412.9282" y="544.124"/><text fill="#000000" font-family="sans-serif" font-size="12" lengthAdjust="spacing" textLength="218.2383" x="422.9282" y="565.2627">wy&#347;wietl potwierdzenie zako&#324;czenia</text><polygon fill="#F1F1F1" points="431.479,313.167,632.6157,313.167,644.6157,325.167,632.6157,337.167,431.479,337.167,419.479,325.167,431.479,313.167" style="stroke:#181818;stroke-width:0.5;"/><text fill="#000000" font-family="sans-serif" font-size="11" lengthAdjust="spacing" textLength="17.4238" x="536.0474" y="347.3774">tak</text><text fill="#000000" font-family="sans-serif" font-size="11" lengthAdjust="spacing" textLength="201.1367" x="431.479" y="328.9751">"czy wybra sala wymaga konseracji"</text><polygon fill="#F1F1F1" points="532.0474,598.0928,544.0474,610.0928,532.0474,622.0928,520.0474,610.0928,532.0474,598.0928" style="stroke:#181818;stroke-width:0.5;"/><ellipse cx="532.0474" cy="653.0928" fill="none" rx="11" ry="11" style="stroke:#222222;stroke-width:1.0;"/><ellipse cx="532.0474" cy="653.0928" fill="#222222" rx="6" ry="6" style="stroke:#222222;stroke-width:1.0;"/><line style="stroke:#000000;stroke-width:1.5;" x1="15" x2="15" y1="50.042" y2="664.0928"/><ellipse cx="1221.0283" cy="90.9951" fill="#222222" rx="10" ry="10" style="stroke:#222222;stroke-width:1.0;"/><rect fill="#F1F1F1" height="33.9688" rx="12.5" ry="12.5" style="stroke:#181818;stroke-width:0.5;" width="256.8945" x="1092.5811" y="120.9951"/><text fill="#000000" font-family="sans-serif" font-size="12" lengthAdjust="spacing" textLength="236.8945" x="1102.5811" y="142.1338">Przejd&#378; do sekcji kalendarz konserwacji</text><rect fill="#F1F1F1" height="33.9688" rx="12.5" ry="12.5" style="stroke:#181818;stroke-width:0.5;" width="94.6191" x="1173.7188" y="228.9326"/><text fill="#000000" font-family="sans-serif" font-size="12" lengthAdjust="spacing" textLength="74.6191" x="1183.7188" y="250.0713">wybierz sal&#281;</text><path d="M708.981,272.9014 L708.981,313.167 L1108.46,313.167 L1108.46,282.9014 L1098.46,272.9014 L708.981,272.9014 " fill="#FEFFDD" style="stroke:#181818;stroke-width:0.5;"/><path d="M1098.46,272.9014 L1098.46,282.9014 L1108.46,282.9014 L1098.46,272.9014 " fill="#FEFFDD" style="stroke:#181818;stroke-width:0.5;"/><text fill="#000000" font-family="sans-serif" font-size="13" lengthAdjust="spacing" textLength="220.1558" x="714.981" y="289.9683">Sala zosta&#322;a poddana konserwacji</text><text fill="#000000" font-family="sans-serif" font-size="13" lengthAdjust="spacing" textLength="378.479" x="714.981" y="305.1011">Pracownik otrzyma&#322; potwierdzenie wykonania konserwacji</text><rect fill="#F1F1F1" height="33.9688" rx="12.5" ry="12.5" style="stroke:#181818;stroke-width:0.5;" width="250.7305" x="1095.6631" y="415.5381"/><text fill="#000000" font-family="sans-serif" font-size="12" lengthAdjust="spacing" textLength="230.7305" x="1105.6631" y="436.6768">wybierz opcj&#281; rozpocznij konswewacj&#281;</text><path d="M783.8877,483.8584 L783.8877,524.124 L1020.7842,524.124 L1020.7842,493.8584 L1010.7842,483.8584 L783.8877,483.8584 " fill="#FEFFDD" style="stroke:#181818;stroke-width:0.5;"/><path d="M1010.7842,483.8584 L1010.7842,493.8584 L1020.7842,493.8584 L1010.7842,483.8584 " fill="#FEFFDD" style="stroke:#181818;stroke-width:0.5;"/><text fill="#000000" font-family="sans-serif" font-size="13" lengthAdjust="spacing" textLength="203.9629" x="789.8877" y="500.9253">pracownik mo&#380;e doda&#263; notatk&#281;</text><text fill="#000000" font-family="sans-serif" font-size="13" lengthAdjust="spacing" textLength="211.7642" x="794.02" y="516.0581">co do zrealizowanych czynno&#347;ci;</text><rect fill="#F1F1F1" height="33.9688" rx="12.5" ry="12.5" style="stroke:#181818;stroke-width:0.5;" width="360.4883" x="1040.7842" y="487.0068"/><text fill="#000000" font-family="sans-serif" font-size="12" lengthAdjust="spacing" textLength="340.4883" x="1050.7842" y="508.1455">Po zako&#324;czeniu prac wybierz opcj&#281; zako&#324;cz konserwacj&#281;</text><line style="stroke:#000000;stroke-width:1.5;" x1="703.981" x2="703.981" y1="50.042" y2="664.0928"/><line style="stroke:#000000;stroke-width:1.5;" x1="1405.2725" x2="1405.2725" y1="50.042" y2="664.0928"/><line style="stroke:#181818;stroke-width:1.0;" x1="532.0474" x2="532.0474" y1="337.167" y2="361.5693"/><polygon fill="#181818" points="528.0474,351.5693,532.0474,361.5693,536.0474,351.5693,532.0474,355.5693" style="stroke:#181818;stroke-width:1.0;"/><line style="stroke:#181818;stroke-width:1.0;" x1="419.479" x2="84.9067" y1="325.167" y2="325.167"/><polygon fill="#181818" points="80.9067,459.5068,84.9067,469.5068,88.9067,459.5068,84.9067,463.5068" style="stroke:#181818;stroke-width:1.0;"/><line style="stroke:#181818;stroke-width:1.0;" x1="84.9067" x2="84.9067" y1="325.167" y2="610.0928"/><line style="stroke:#181818;stroke-width:1.0;" x1="84.9067" x2="520.0474" y1="610.0928" y2="610.0928"/><polygon fill="#181818" points="510.0474,606.0928,520.0474,610.0928,510.0474,614.0928,514.0474,610.0928" style="stroke:#181818;stroke-width:1.0;"/><line style="stroke:#181818;stroke-width:1.0;" x1="532.0474" x2="532.0474" y1="578.0928" y2="598.0928"/><polygon fill="#181818" points="528.0474,588.0928,532.0474,598.0928,536.0474,588.0928,532.0474,592.0928" style="stroke:#181818;stroke-width:1.0;"/><line style="stroke:#181818;stroke-width:1.0;" x1="532.0474" x2="532.0474" y1="622.0928" y2="642.0928"/><polygon fill="#181818" points="528.0474,632.0928,532.0474,642.0928,536.0474,632.0928,532.0474,636.0928" style="stroke:#181818;stroke-width:1.0;"/><line style="stroke:#181818;stroke-width:1.0;" x1="1221.0283" x2="1221.0283" y1="100.9951" y2="120.9951"/><polygon fill="#181818" points="1217.0283,110.9951,1221.0283,120.9951,1225.0283,110.9951,1221.0283,114.9951" style="stroke:#181818;stroke-width:1.0;"/><line style="stroke:#181818;stroke-width:1.0;" x1="1221.0283" x2="1221.0283" y1="449.5068" y2="487.0068"/><polygon fill="#181818" points="1217.0283,477.0068,1221.0283,487.0068,1225.0283,477.0068,1221.0283,481.0068" style="stroke:#181818;stroke-width:1.0;"/><line style="stroke:#181818;stroke-width:1.0;" x1="1221.0283" x2="1221.0283" y1="154.9639" y2="159.9639"/><line style="stroke:#181818;stroke-width:1.0;" x1="1221.0283" x2="532.0474" y1="159.9639" y2="159.9639"/><line style="stroke:#181818;stroke-width:1.0;" x1="532.0474" x2="532.0474" y1="159.9639" y2="174.9639"/><polygon fill="#181818" points="528.0474,164.9639,532.0474,174.9639,536.0474,164.9639,532.0474,168.9639" style="stroke:#181818;stroke-width:1.0;"/><line style="stroke:#181818;stroke-width:1.0;" x1="532.0474" x2="532.0474" y1="208.9326" y2="213.9326"/><line style="stroke:#181818;stroke-width:1.0;" x1="532.0474" x2="1221.0283" y1="213.9326" y2="213.9326"/><line style="stroke:#181818;stroke-width:1.0;" x1="1221.0283" x2="1221.0283" y1="213.9326" y2="228.9326"/><polygon fill="#181818" points="1217.0283,218.9326,1221.0283,228.9326,1225.0283,218.9326,1221.0283,222.9326" style="stroke:#181818;stroke-width:1.0;"/><line style="stroke:#181818;stroke-width:1.0;" x1="532.0474" x2="532.0474" y1="395.5381" y2="400.5381"/><line style="stroke:#181818;stroke-width:1.0;" x1="532.0474" x2="1221.0283" y1="400.5381" y2="400.5381"/><line style="stroke:#181818;stroke-width:1.0;" x1="1221.0283" x2="1221.0283" y1="400.5381" y2="415.5381"/><polygon fill="#181818" points="1217.0283,405.5381,1221.0283,415.5381,1225.0283,405.5381,1221.0283,409.5381" style="stroke:#181818;stroke-width:1.0;"/><line style="stroke:#181818;stroke-width:1.0;" x1="1221.0283" x2="1221.0283" y1="520.9756" y2="529.124"/><line style="stroke:#181818;stroke-width:1.0;" x1="1221.0283" x2="532.0474" y1="529.124" y2="529.124"/><line style="stroke:#181818;stroke-width:1.0;" x1="532.0474" x2="532.0474" y1="529.124" y2="544.124"/><polygon fill="#181818" points="528.0474,534.124,532.0474,544.124,536.0474,534.124,532.0474,538.124" style="stroke:#181818;stroke-width:1.0;"/><line style="stroke:#181818;stroke-width:1.0;" x1="1221.0283" x2="1221.0283" y1="262.9014" y2="275.5342"/><line style="stroke:#181818;stroke-width:1.0;" x1="1221.0283" x2="532.0474" y1="275.5342" y2="275.5342"/><line style="stroke:#181818;stroke-width:1.0;" x1="532.0474" x2="532.0474" y1="275.5342" y2="313.167"/><polygon fill="#181818" points="528.0474,303.167,532.0474,313.167,536.0474,303.167,532.0474,307.167" style="stroke:#181818;stroke-width:1.0;"/><text fill="#000000" font-family="sans-serif" font-size="18" lengthAdjust="spacing" textLength="65.0742" x="326.9534" y="66.75">system</text><text fill="#000000" font-family="sans-serif" font-size="18" lengthAdjust="spacing" textLength="92.3203" x="1008.4666" y="66.75">pracownik</text><!--SRC=[TL8xRW8n4ErzYX4L5Ba0t21faDAccNW7y7uyAzlHQYqg52bdG1mZNPGkxBqoNY0nHDdAnVljUnDCg0ac3smzkGvrYU2nDXErzLlV-q2DshRRrg7cpffAhMh6OEmQB0U2cbP1WNntiBn0e2GV86BDQ-xGzj31ISZG6Nf_0hGrseH0g6xS5TbYD50-e0jgldIHocBuW8B1KwLB0nNMWa8NCxPPfDXgtlN3eJCKwWmLCyU-CIEh8vSycyHhHzwp8S5AXkF-f6LMC9teA7_HFxin7SgpmVKbTRATp21ioC8qO3NBxNtKaTPVxyEkp-oflCcSUtEho-CU7CUMTRIcF2TDs1HglcIHgdXu5MbhNY1j0pVi2o3pITo_uytXPrfeUFWaQRZ0urj2OAYE-oSBcbFjqP4i4yVwz0Qa4cjvEEY_dRSSvE6A58_ohBX8mvgL-k-A7bExaMNqOOUYKnJNrs56rE-bSN1HjXXsDvvTBnmKmojkTbJSVWC0]--></g></svg>