<?xml version="1.0" encoding="UTF-8" standalone="no"?><svg xmlns="http://www.w3.org/2000/svg" xmlns:xlink="http://www.w3.org/1999/xlink" contentStyleType="text/css" height="1078px" preserveAspectRatio="none" style="width:1310px;height:1078px;background:#FFFFFF;" version="1.1" viewBox="0 0 1310 1078" width="1310px" zoomAndPan="magnify"><defs/><g><rect fill="none" height="22.6406" style="stroke:none;stroke-width:1.0;" width="1277.5" x="15" y="12.4551"/><rect fill="#F1F1F1" height="35.0938" rx="12.5" ry="12.5" style="stroke:#181818;stroke-width:0.5;" width="186" x="466" y="207.8926"/><text fill="#000000" font-family="sans-serif" font-size="12" lengthAdjust="spacing" textLength="166" x="476" y="230.3496">Wyświetlenie kalendarza zajęć</text><polygon fill="#F1F1F1" points="458,428.2676,660,428.2676,672,440.2676,660,452.2676,458,452.2676,446,440.2676,458,428.2676" style="stroke:#181818;stroke-width:0.5;"/><text fill="#000000" font-family="sans-serif" font-size="11" lengthAdjust="spacing" textLength="14" x="563" y="463.6865">tak</text><text fill="#000000" font-family="sans-serif" font-size="11" lengthAdjust="spacing" textLength="202" x="458" y="444.7686">Czy na liście istnieje chociaż jeden Klient?</text><text fill="#000000" font-family="sans-serif" font-size="11" lengthAdjust="spacing" textLength="14" x="672" y="437.8506">nie</text><rect fill="#F1F1F1" height="35.0938" rx="12.5" ry="12.5" style="stroke:#181818;stroke-width:0.5;" width="230" x="444" y="485.1865"/><text fill="#000000" font-family="sans-serif" font-size="12" lengthAdjust="spacing" textLength="210" x="454" y="507.6436">Wyświetlenie listy zapisanych Klientów</text><rect fill="#F1F1F1" height="35.0938" rx="12.5" ry="12.5" style="stroke:#181818;stroke-width:0.5;" width="170" x="474" y="595.374"/><text fill="#000000" font-family="sans-serif" font-size="12" lengthAdjust="spacing" textLength="150" x="484" y="617.8311">Wyświetlenie profilu Klienta</text><polygon fill="#F1F1F1" points="432.5,874.749,685.5,874.749,697.5,886.749,685.5,898.749,432.5,898.749,420.5,886.749,432.5,874.749" style="stroke:#181818;stroke-width:0.5;"/><text fill="#000000" font-family="sans-serif" font-size="11" lengthAdjust="spacing" textLength="14" x="563" y="910.168">nie</text><text fill="#000000" font-family="sans-serif" font-size="11" lengthAdjust="spacing" textLength="253" x="432.5" y="891.25">Wiadomość pusta lub zawiera niedozwolone treści?</text><text fill="#000000" font-family="sans-serif" font-size="11" lengthAdjust="spacing" textLength="14" x="697.5" y="884.332">tak</text><rect fill="#F1F1F1" height="35.0938" rx="12.5" ry="12.5" style="stroke:#181818;stroke-width:0.5;" width="185" x="721.5" y="784.6084"/><text fill="#000000" font-family="sans-serif" font-size="12" lengthAdjust="spacing" textLength="162" x="734.5" y="807.0654">Informacja zwrotna do trenera</text><rect fill="#F1F1F1" height="35.0938" rx="12.5" ry="12.5" style="stroke:#181818;stroke-width:0.5;" width="196" x="461" y="931.668"/><text fill="#000000" font-family="sans-serif" font-size="12" lengthAdjust="spacing" textLength="176" x="471" y="954.125">Wysłanie wiadomości do klienta</text><rect fill="#F1F1F1" height="35.0938" rx="12.5" ry="12.5" style="stroke:#181818;stroke-width:0.5;" width="308" x="405" y="986.7617"/><text fill="#000000" font-family="sans-serif" font-size="12" lengthAdjust="spacing" textLength="288" x="415" y="1009.2188">Wygenerowanie potwierdzenia wysłania wiadomości</text><path d="M20,1039.6797 L20,1066.0313 L528,1066.0313 L528,1049.6797 L518,1039.6797 L20,1039.6797 " fill="#FEFFDD" style="stroke:#181818;stroke-width:0.5;"/><path d="M518,1039.6797 L518,1049.6797 L528,1049.6797 L518,1039.6797 " fill="#FEFFDD" style="stroke:#181818;stroke-width:0.5;"/><text fill="#000000" font-family="sans-serif" font-size="13" lengthAdjust="spacing" textLength="487" x="26" y="1058.1748">Wiadomość od Trenera dociera do Klienta, który ma możliwość na nią odpowiedzieć</text><ellipse cx="559" cy="1052.8555" fill="none" rx="11" ry="11" style="stroke:#222222;stroke-width:1.0;"/><ellipse cx="559" cy="1052.8555" fill="#222222" rx="6" ry="6" style="stroke:#111111;stroke-width:1.0;"/><line style="stroke:#000000;stroke-width:1.5;" x1="15" x2="15" y1="12.4551" y2="1066.0313"/><path d="M925.5,50.0957 L925.5,76.4473 L1124.5,76.4473 L1124.5,60.0957 L1114.5,50.0957 L925.5,50.0957 " fill="#FEFFDD" style="stroke:#181818;stroke-width:0.5;"/><path d="M1114.5,50.0957 L1114.5,60.0957 L1124.5,60.0957 L1114.5,50.0957 " fill="#FEFFDD" style="stroke:#181818;stroke-width:0.5;"/><text fill="#000000" font-family="sans-serif" font-size="13" lengthAdjust="spacing" textLength="178" x="931.5" y="68.5908">Trener zalogowany w systemie</text><path d="M938.5,96.4473 L938.5,122.7988 L1111.5,122.7988 L1111.5,106.4473 L1101.5,96.4473 L938.5,96.4473 " fill="#FEFFDD" style="stroke:#181818;stroke-width:0.5;"/><path d="M1101.5,96.4473 L1101.5,106.4473 L1111.5,106.4473 L1101.5,96.4473 " fill="#FEFFDD" style="stroke:#181818;stroke-width:0.5;"/><text fill="#000000" font-family="sans-serif" font-size="13" lengthAdjust="spacing" textLength="152" x="944.5" y="114.9424">W systemie istnieje Klient</text><ellipse cx="1144.5" cy="86.4473" fill="#222222" rx="10" ry="10" style="stroke:#222222;stroke-width:1.0;"/><rect fill="#F1F1F1" height="35.0938" rx="12.5" ry="12.5" style="stroke:#181818;stroke-width:0.5;" width="285" x="1002" y="152.7988"/><text fill="#000000" font-family="sans-serif" font-size="12" lengthAdjust="spacing" textLength="265" x="1012" y="175.2559">przejście do sekcji Organizacja zajęć w systemie</text><rect fill="#F1F1F1" height="35.0938" rx="12.5" ry="12.5" style="stroke:#181818;stroke-width:0.5;" width="85" x="1102" y="262.9863"/><text fill="#000000" font-family="sans-serif" font-size="12" lengthAdjust="spacing" textLength="65" x="1112" y="285.4434">Wybór zajęć</text><rect fill="#F1F1F1" height="35.0938" rx="12.5" ry="12.5" style="stroke:#181818;stroke-width:0.5;" width="240" x="1024.5" y="373.1738"/><text fill="#000000" font-family="sans-serif" font-size="12" lengthAdjust="spacing" textLength="220" x="1034.5" y="395.6309">Wybranie opcji lista zapisanych Klientów</text><rect fill="#F1F1F1" height="35.0938" rx="12.5" ry="12.5" style="stroke:#181818;stroke-width:0.5;" width="23" x="1133" y="318.0801"/><text fill="#000000" font-family="sans-serif" font-size="12" lengthAdjust="spacing" textLength="3" x="1143" y="340.5371"> </text><rect fill="#F1F1F1" height="35.0938" rx="12.5" ry="12.5" style="stroke:#181818;stroke-width:0.5;" width="177" x="1056" y="540.2803"/><text fill="#000000" font-family="sans-serif" font-size="12" lengthAdjust="spacing" textLength="157" x="1066" y="562.7373">Wybranie jednego z Klientów</text><rect fill="#F1F1F1" height="35.0938" rx="12.5" ry="12.5" style="stroke:#181818;stroke-width:0.5;" width="269" x="1010" y="650.4678"/><text fill="#000000" font-family="sans-serif" font-size="12" lengthAdjust="spacing" textLength="249" x="1020" y="672.9248">Wybór opcji napisania wiadomości do Klienta</text><rect fill="#F1F1F1" height="35.0938" rx="12.5" ry="12.5" style="stroke:#181818;stroke-width:0.5;" width="175" x="1057" y="749.5615"/><text fill="#000000" font-family="sans-serif" font-size="12" lengthAdjust="spacing" textLength="155" x="1067" y="772.0186">Wpisanie treści wiadomości</text><rect fill="#F1F1F1" height="35.0938" rx="12.5" ry="12.5" style="stroke:#181818;stroke-width:0.5;" width="142" x="1073.5" y="819.6553"/><text fill="#000000" font-family="sans-serif" font-size="12" lengthAdjust="spacing" textLength="122" x="1083.5" y="842.1123">Wybór przycisku Wyślij</text><polygon fill="#F1F1F1" points="1144.5,705.5615,1156.5,717.5615,1144.5,729.5615,1132.5,717.5615,1144.5,705.5615" style="stroke:#181818;stroke-width:0.5;"/><line style="stroke:#000000;stroke-width:1.5;" x1="910.5" x2="910.5" y1="12.4551" y2="1066.0313"/><line style="stroke:#000000;stroke-width:1.5;" x1="1291" x2="1291" y1="12.4551" y2="1066.0313"/><line style="stroke:#181818;stroke-width:1.0;" x1="559" x2="559" y1="452.2676" y2="485.1865"/><polygon fill="#181818" points="555,475.1865,559,485.1865,563,475.1865,559,479.1865" style="stroke:#181818;stroke-width:1.0;"/><line style="stroke:#181818;stroke-width:1.0;" x1="697.5" x2="814" y1="886.749" y2="886.749"/><line style="stroke:#181818;stroke-width:1.0;" x1="814" x2="814" y1="819.7021" y2="886.749"/><polygon fill="#181818" points="810,829.7021,814,819.7021,818,829.7021,814,825.7021" style="stroke:#181818;stroke-width:1.0;"/><line style="stroke:#181818;stroke-width:1.0;" x1="559" x2="559" y1="898.749" y2="931.668"/><polygon fill="#181818" points="555,921.668,559,931.668,563,921.668,559,925.668" style="stroke:#181818;stroke-width:1.0;"/><line style="stroke:#181818;stroke-width:1.0;" x1="559" x2="559" y1="966.7617" y2="986.7617"/><polygon fill="#181818" points="555,976.7617,559,986.7617,563,976.7617,559,980.7617" style="stroke:#181818;stroke-width:1.0;"/><line style="stroke:#181818;stroke-width:1.0;" x1="559" x2="559" y1="1021.8555" y2="1041.8555"/><polygon fill="#181818" points="555,1031.8555,559,1041.8555,563,1031.8555,559,1035.8555" style="stroke:#181818;stroke-width:1.0;"/><line style="stroke:#181818;stroke-width:1.0;" x1="1144.5" x2="1144.5" y1="96.4473" y2="152.7988"/><polygon fill="#181818" points="1140.5,142.7988,1144.5,152.7988,1148.5,142.7988,1144.5,146.7988" style="stroke:#181818;stroke-width:1.0;"/><line style="stroke:#181818;stroke-width:1.0;" x1="1144.5" x2="1144.5" y1="353.1738" y2="373.1738"/><polygon fill="#181818" points="1140.5,363.1738,1144.5,373.1738,1148.5,363.1738,1144.5,367.1738" style="stroke:#181818;stroke-width:1.0;"/><line style="stroke:#181818;stroke-width:1.0;" x1="1144.5" x2="1144.5" y1="298.0801" y2="318.0801"/><polygon fill="#181818" points="1140.5,308.0801,1144.5,318.0801,1148.5,308.0801,1144.5,312.0801" style="stroke:#181818;stroke-width:1.0;"/><line style="stroke:#181818;stroke-width:1.0;" x1="1144.5" x2="1144.5" y1="784.6553" y2="819.6553"/><polygon fill="#181818" points="1140.5,809.6553,1144.5,819.6553,1148.5,809.6553,1144.5,813.6553" style="stroke:#181818;stroke-width:1.0;"/><line style="stroke:#181818;stroke-width:1.0;" x1="1144.5" x2="1144.5" y1="729.5615" y2="749.5615"/><polygon fill="#181818" points="1140.5,739.5615,1144.5,749.5615,1148.5,739.5615,1144.5,743.5615" style="stroke:#181818;stroke-width:1.0;"/><line style="stroke:#181818;stroke-width:1.0;" x1="1144.5" x2="1144.5" y1="685.5615" y2="705.5615"/><polygon fill="#181818" points="1140.5,695.5615,1144.5,705.5615,1148.5,695.5615,1144.5,699.5615" style="stroke:#181818;stroke-width:1.0;"/><line style="stroke:#181818;stroke-width:1.0;" x1="1144.5" x2="1144.5" y1="187.8926" y2="192.8926"/><line style="stroke:#181818;stroke-width:1.0;" x1="1144.5" x2="559" y1="192.8926" y2="192.8926"/><line style="stroke:#181818;stroke-width:1.0;" x1="559" x2="559" y1="192.8926" y2="207.8926"/><polygon fill="#181818" points="555,197.8926,559,207.8926,563,197.8926,559,201.8926" style="stroke:#181818;stroke-width:1.0;"/><line style="stroke:#181818;stroke-width:1.0;" x1="559" x2="559" y1="242.9863" y2="247.9863"/><line style="stroke:#181818;stroke-width:1.0;" x1="559" x2="1144.5" y1="247.9863" y2="247.9863"/><line style="stroke:#181818;stroke-width:1.0;" x1="1144.5" x2="1144.5" y1="247.9863" y2="262.9863"/><polygon fill="#181818" points="1140.5,252.9863,1144.5,262.9863,1148.5,252.9863,1144.5,256.9863" style="stroke:#181818;stroke-width:1.0;"/><line style="stroke:#181818;stroke-width:1.0;" x1="672" x2="1017.75" y1="440.2676" y2="440.2676"/><polygon fill="#181818" points="1013.75,397.9473,1017.75,387.9473,1021.75,397.9473,1017.75,393.9473" style="stroke:#181818;stroke-width:1.0;"/><line style="stroke:#181818;stroke-width:1.0;" x1="1017.75" x2="1017.75" y1="335.627" y2="440.2676"/><line style="stroke:#181818;stroke-width:1.0;" x1="1017.75" x2="1133" y1="335.627" y2="335.627"/><polygon fill="#181818" points="1123,331.627,1133,335.627,1123,339.627,1127,335.627" style="stroke:#181818;stroke-width:1.0;"/><line style="stroke:#181818;stroke-width:1.0;" x1="1144.5" x2="1144.5" y1="408.2676" y2="413.2676"/><line style="stroke:#181818;stroke-width:1.0;" x1="1144.5" x2="559" y1="413.2676" y2="413.2676"/><line style="stroke:#181818;stroke-width:1.0;" x1="559" x2="559" y1="413.2676" y2="428.2676"/><polygon fill="#181818" points="555,418.2676,559,428.2676,563,418.2676,559,422.2676" style="stroke:#181818;stroke-width:1.0;"/><line style="stroke:#181818;stroke-width:1.0;" x1="559" x2="559" y1="520.2803" y2="525.2803"/><line style="stroke:#181818;stroke-width:1.0;" x1="559" x2="1144.5" y1="525.2803" y2="525.2803"/><line style="stroke:#181818;stroke-width:1.0;" x1="1144.5" x2="1144.5" y1="525.2803" y2="540.2803"/><polygon fill="#181818" points="1140.5,530.2803,1144.5,540.2803,1148.5,530.2803,1144.5,534.2803" style="stroke:#181818;stroke-width:1.0;"/><line style="stroke:#181818;stroke-width:1.0;" x1="1144.5" x2="1144.5" y1="575.374" y2="580.374"/><line style="stroke:#181818;stroke-width:1.0;" x1="1144.5" x2="559" y1="580.374" y2="580.374"/><line style="stroke:#181818;stroke-width:1.0;" x1="559" x2="559" y1="580.374" y2="595.374"/><polygon fill="#181818" points="555,585.374,559,595.374,563,585.374,559,589.374" style="stroke:#181818;stroke-width:1.0;"/><line style="stroke:#181818;stroke-width:1.0;" x1="559" x2="559" y1="630.4678" y2="635.4678"/><line style="stroke:#181818;stroke-width:1.0;" x1="559" x2="1144.5" y1="635.4678" y2="635.4678"/><line style="stroke:#181818;stroke-width:1.0;" x1="1144.5" x2="1144.5" y1="635.4678" y2="650.4678"/><polygon fill="#181818" points="1140.5,640.4678,1144.5,650.4678,1148.5,640.4678,1144.5,644.4678" style="stroke:#181818;stroke-width:1.0;"/><line style="stroke:#181818;stroke-width:1.0;" x1="814" x2="814" y1="717.5615" y2="784.6084"/><line style="stroke:#181818;stroke-width:1.0;" x1="814" x2="1132.5" y1="717.5615" y2="717.5615"/><polygon fill="#181818" points="1122.5,713.5615,1132.5,717.5615,1122.5,721.5615,1126.5,717.5615" style="stroke:#181818;stroke-width:1.0;"/><line style="stroke:#181818;stroke-width:1.0;" x1="1144.5" x2="1144.5" y1="854.749" y2="859.749"/><line style="stroke:#181818;stroke-width:1.0;" x1="1144.5" x2="559" y1="859.749" y2="859.749"/><line style="stroke:#181818;stroke-width:1.0;" x1="559" x2="559" y1="859.749" y2="874.749"/><polygon fill="#181818" points="555,864.749,559,874.749,563,864.749,559,868.749" style="stroke:#181818;stroke-width:1.0;"/><text fill="#000000" font-family="sans-serif" font-size="18" lengthAdjust="spacing" textLength="59" x="435.75" y="31.1406">System</text><text fill="#000000" font-family="sans-serif" font-size="18" lengthAdjust="spacing" textLength="54" x="1076.25" y="31.1406">Trener</text><!--SRC=[TLEzRjim4Dxr53VQG9_07ZfqAZfqQ07FP-aiKw9v0ab3aA2fG91d2F8OMRF5Vg_UYP9YfwaM0kBtyVivSWW3_Ef2f5Csn05-UtBain3Hn-nW6QDn9JYE19OESJC1e4VB9RVeEcWXZ7n3dn9sopQO49sXYk27DUHYjcbyJzNrEPUzWY5GdLS6VleIdUanhr1agilJvV56OviDOSWsk-xwt1gAbkH4g57M0ds_CBQQHc7xjnV__jDJGnWt6SYdcnwLpetgMh6d_CO4YPKV9vTlB-rsnAjkuaDxD9PWzQtlmA4GKuGbNdxatE3r5Iego4tdV5qB05Q2M6izi8fOhpy6KG_TVppCWP9dETfHoT3VGVwjfl5yCFOyeV2-bnJS9Jc3q1ei-CGQHmUoS5BigRK49eYUHk0DQRiKgwVBTBlSXFeCQicQwht7FUPrYxxOm7TtO7zAmsuzH-bJbEDuonRbkV3TB2LNeZdhkEnvBtL9N8yWfWhkMxRi5dTJwzfrQbtxdtiArpzZaW-nwpcsG4hreVTSg-IeGaLFOrSJ7UyB296Rpz_1ZNSkfdUaONEJrhdkBr3BD7q79mJ1lrhJ9fRJY9S7OJSiHehUqENnBm00]--></g></svg>