<svg xmlns="http://www.w3.org/2000/svg" xmlns:xlink="http://www.w3.org/1999/xlink" contentStyleType="text/css" height="784px" preserveAspectRatio="none" style="width:1165px;height:784px;background:#FFFFFF;" version="1.1" viewBox="0 0 1165 784" width="1165px" zoomAndPan="magnify"><defs/><g><rect fill="none" height="20.9531" style="stroke:none;stroke-width:1;" width="1132.3081" x="15" y="12.7451"/><rect fill="#F1F1F1" height="33.9688" rx="12.5" ry="12.5" style="stroke:#181818;stroke-width:0.5;" width="259.5898" x="214.6084" y="202.9326"/><text fill="#000000" font-family="sans-serif" font-size="12" lengthAdjust="spacing" textLength="239.5898" x="224.6084" y="224.0713">Wy&#347;wietlenie listy dost&#281;pnych trener&#243;w</text><rect fill="#F1F1F1" height="33.9688" rx="12.5" ry="12.5" style="stroke:#181818;stroke-width:0.5;" width="262.0625" x="213.3721" y="310.8701"/><text fill="#000000" font-family="sans-serif" font-size="12" lengthAdjust="spacing" textLength="242.0625" x="223.3721" y="332.0088">Wy&#347;wietlenie opcji wys&#322;ania wiadomo&#347;ci</text><polygon fill="#F1F1F1" points="202.7783,585.7451,486.0283,585.7451,498.0283,597.7451,486.0283,609.7451,202.7783,609.7451,190.7783,597.7451,202.7783,585.7451" style="stroke:#181818;stroke-width:0.5;"/><text fill="#000000" font-family="sans-serif" font-size="11" lengthAdjust="spacing" textLength="16.7954" x="348.4033" y="619.9556">nie</text><text fill="#000000" font-family="sans-serif" font-size="11" lengthAdjust="spacing" textLength="283.25" x="202.7783" y="601.5532">Wiadomo&#347;&#263; pusta lub zawiera niedozwolone tre&#347;ci?</text><text fill="#000000" font-family="sans-serif" font-size="11" lengthAdjust="spacing" textLength="17.4238" x="498.0283" y="595.1509">tak</text><rect fill="#F1F1F1" height="33.9688" rx="12.5" ry="12.5" style="stroke:#181818;stroke-width:0.5;" width="202.9063" x="522.0283" y="497.292"/><text fill="#000000" font-family="sans-serif" font-size="12" lengthAdjust="spacing" textLength="179.0918" x="535.8428" y="518.4307">Informacja zwrotna do klienta</text><rect fill="#F1F1F1" height="33.9688" rx="12.5" ry="12.5" style="stroke:#181818;stroke-width:0.5;" width="215.6797" x="236.5635" y="641.4556"/><text fill="#000000" font-family="sans-serif" font-size="12" lengthAdjust="spacing" textLength="195.6797" x="246.5635" y="662.5942">Wys&#322;anie wiadomo&#347;ci do trenera</text><rect fill="#F1F1F1" height="33.9688" rx="12.5" ry="12.5" style="stroke:#181818;stroke-width:0.5;" width="335.7852" x="176.5107" y="695.4243"/><text fill="#000000" font-family="sans-serif" font-size="12" lengthAdjust="spacing" textLength="315.7852" x="186.5107" y="716.563">Wygenerowanie potwierdzenia wys&#322;ania wiadomo&#347;ci</text><path d="M20,747.8267 L20,772.9595 L313.4033,772.9595 L313.4033,757.8267 L303.4033,747.8267 L20,747.8267 " fill="#FEFFDD" style="stroke:#181818;stroke-width:0.5;"/><path d="M303.4033,747.8267 L303.4033,757.8267 L313.4033,757.8267 L303.4033,747.8267 " fill="#FEFFDD" style="stroke:#181818;stroke-width:0.5;"/><text fill="#000000" font-family="sans-serif" font-size="13" lengthAdjust="spacing" textLength="272.4033" x="26" y="764.8936">Wiadomo&#347;&#263; od Klienta dociera do Trenera</text><ellipse cx="344.4033" cy="760.3931" fill="none" rx="11" ry="11" style="stroke:#222222;stroke-width:1;"/><ellipse cx="344.4033" cy="760.3931" fill="#222222" rx="6" ry="6" style="stroke:#222222;stroke-width:1;"/><line style="stroke:#000000;stroke-width:1.5;" x1="15" x2="15" y1="12.7451" y2="772.9595"/><path d="M743.9346,48.6982 L743.9346,73.8311 L960.7471,73.8311 L960.7471,58.6982 L950.7471,48.6982 L743.9346,48.6982 " fill="#FEFFDD" style="stroke:#181818;stroke-width:0.5;"/><path d="M950.7471,48.6982 L950.7471,58.6982 L960.7471,58.6982 L950.7471,48.6982 " fill="#FEFFDD" style="stroke:#181818;stroke-width:0.5;"/><text fill="#000000" font-family="sans-serif" font-size="13" lengthAdjust="spacing" textLength="195.8125" x="749.9346" y="65.7651">Klient zalogowany w systemie</text><path d="M756.4299,93.8311 L756.4299,118.9639 L948.2517,118.9639 L948.2517,103.8311 L938.2517,93.8311 L756.4299,93.8311 " fill="#FEFFDD" style="stroke:#181818;stroke-width:0.5;"/><path d="M938.2517,93.8311 L938.2517,103.8311 L948.2517,103.8311 L938.2517,93.8311 " fill="#FEFFDD" style="stroke:#181818;stroke-width:0.5;"/><text fill="#000000" font-family="sans-serif" font-size="13" lengthAdjust="spacing" textLength="170.8218" x="762.4299" y="110.8979">W systemie istnieje trener</text><ellipse cx="980.7471" cy="83.8311" fill="#222222" rx="10" ry="10" style="stroke:#222222;stroke-width:1;"/><rect fill="#F1F1F1" height="33.9688" rx="12.5" ry="12.5" style="stroke:#181818;stroke-width:0.5;" width="321.4004" x="820.0469" y="148.9639"/><text fill="#000000" font-family="sans-serif" font-size="12" lengthAdjust="spacing" textLength="301.4004" x="830.0469" y="170.1025">przej&#347;cie do sekcji Kontakt z trenerem w systemie</text><rect fill="#F1F1F1" height="33.9688" rx="12.5" ry="12.5" style="stroke:#181818;stroke-width:0.5;" width="163.959" x="898.7676" y="256.9014"/><text fill="#000000" font-family="sans-serif" font-size="12" lengthAdjust="spacing" textLength="143.959" x="908.7676" y="278.04">Wybranie trenera z listy</text><rect fill="#F1F1F1" height="33.9688" rx="12.5" ry="12.5" style="stroke:#181818;stroke-width:0.5;" width="314.8555" x="823.3193" y="364.8389"/><text fill="#000000" font-family="sans-serif" font-size="12" lengthAdjust="spacing" textLength="294.8555" x="833.3193" y="385.9775">Wybranie opcji wiadomo&#347;ci napisania do Trenera</text><rect fill="#F1F1F1" height="33.9688" rx="12.5" ry="12.5" style="stroke:#181818;stroke-width:0.5;" width="186.2539" x="887.6201" y="462.8076"/><text fill="#000000" font-family="sans-serif" font-size="12" lengthAdjust="spacing" textLength="166.2539" x="897.6201" y="483.9463">Wpisanie tre&#347;ci wiadomo&#347;ci</text><rect fill="#F1F1F1" height="33.9688" rx="12.5" ry="12.5" style="stroke:#181818;stroke-width:0.5;" width="158.3984" x="901.5479" y="531.7764"/><text fill="#000000" font-family="sans-serif" font-size="12" lengthAdjust="spacing" textLength="138.3984" x="911.5479" y="552.915">Wyb&#243;r przycisku Wy&#347;lij</text><polygon fill="#F1F1F1" points="980.7471,418.8076,992.7471,430.8076,980.7471,442.8076,968.7471,430.8076,980.7471,418.8076" style="stroke:#181818;stroke-width:0.5;"/><line style="stroke:#000000;stroke-width:1.5;" x1="728.9346" x2="728.9346" y1="12.7451" y2="772.9595"/><line style="stroke:#000000;stroke-width:1.5;" x1="1145.4473" x2="1145.4473" y1="12.7451" y2="772.9595"/><line style="stroke:#181818;stroke-width:1;" x1="498.0283" x2="623.4814" y1="597.7451" y2="597.7451"/><line style="stroke:#181818;stroke-width:1;" x1="623.4814" x2="623.4814" y1="531.2607" y2="597.7451"/><polygon fill="#181818" points="619.4814,541.2607,623.4814,531.2607,627.4814,541.2607,623.4814,537.2607" style="stroke:#181818;stroke-width:1;"/><line style="stroke:#181818;stroke-width:1;" x1="344.4033" x2="344.4033" y1="609.7451" y2="641.4556"/><polygon fill="#181818" points="340.4033,631.4556,344.4033,641.4556,348.4033,631.4556,344.4033,635.4556" style="stroke:#181818;stroke-width:1;"/><line style="stroke:#181818;stroke-width:1;" x1="344.4033" x2="344.4033" y1="675.4243" y2="695.4243"/><polygon fill="#181818" points="340.4033,685.4243,344.4033,695.4243,348.4033,685.4243,344.4033,689.4243" style="stroke:#181818;stroke-width:1;"/><line style="stroke:#181818;stroke-width:1;" x1="344.4033" x2="344.4033" y1="729.3931" y2="749.3931"/><polygon fill="#181818" points="340.4033,739.3931,344.4033,749.3931,348.4033,739.3931,344.4033,743.3931" style="stroke:#181818;stroke-width:1;"/><line style="stroke:#181818;stroke-width:1;" x1="980.7471" x2="980.7471" y1="93.8311" y2="148.9639"/><polygon fill="#181818" points="976.7471,138.9639,980.7471,148.9639,984.7471,138.9639,980.7471,142.9639" style="stroke:#181818;stroke-width:1;"/><line style="stroke:#181818;stroke-width:1;" x1="980.7471" x2="980.7471" y1="496.7764" y2="531.7764"/><polygon fill="#181818" points="976.7471,521.7764,980.7471,531.7764,984.7471,521.7764,980.7471,525.7764" style="stroke:#181818;stroke-width:1;"/><line style="stroke:#181818;stroke-width:1;" x1="980.7471" x2="980.7471" y1="442.8076" y2="462.8076"/><polygon fill="#181818" points="976.7471,452.8076,980.7471,462.8076,984.7471,452.8076,980.7471,456.8076" style="stroke:#181818;stroke-width:1;"/><line style="stroke:#181818;stroke-width:1;" x1="980.7471" x2="980.7471" y1="398.8076" y2="418.8076"/><polygon fill="#181818" points="976.7471,408.8076,980.7471,418.8076,984.7471,408.8076,980.7471,412.8076" style="stroke:#181818;stroke-width:1;"/><line style="stroke:#181818;stroke-width:1;" x1="980.7471" x2="980.7471" y1="182.9326" y2="187.9326"/><line style="stroke:#181818;stroke-width:1;" x1="980.7471" x2="344.4033" y1="187.9326" y2="187.9326"/><line style="stroke:#181818;stroke-width:1;" x1="344.4033" x2="344.4033" y1="187.9326" y2="202.9326"/><polygon fill="#181818" points="340.4033,192.9326,344.4033,202.9326,348.4033,192.9326,344.4033,196.9326" style="stroke:#181818;stroke-width:1;"/><line style="stroke:#181818;stroke-width:1;" x1="344.4033" x2="344.4033" y1="236.9014" y2="241.9014"/><line style="stroke:#181818;stroke-width:1;" x1="344.4033" x2="980.7471" y1="241.9014" y2="241.9014"/><line style="stroke:#181818;stroke-width:1;" x1="980.7471" x2="980.7471" y1="241.9014" y2="256.9014"/><polygon fill="#181818" points="976.7471,246.9014,980.7471,256.9014,984.7471,246.9014,980.7471,250.9014" style="stroke:#181818;stroke-width:1;"/><line style="stroke:#181818;stroke-width:1;" x1="980.7471" x2="980.7471" y1="290.8701" y2="295.8701"/><line style="stroke:#181818;stroke-width:1;" x1="980.7471" x2="344.4033" y1="295.8701" y2="295.8701"/><line style="stroke:#181818;stroke-width:1;" x1="344.4033" x2="344.4033" y1="295.8701" y2="310.8701"/><polygon fill="#181818" points="340.4033,300.8701,344.4033,310.8701,348.4033,300.8701,344.4033,304.8701" style="stroke:#181818;stroke-width:1;"/><line style="stroke:#181818;stroke-width:1;" x1="344.4033" x2="344.4033" y1="344.8389" y2="349.8389"/><line style="stroke:#181818;stroke-width:1;" x1="344.4033" x2="980.7471" y1="349.8389" y2="349.8389"/><line style="stroke:#181818;stroke-width:1;" x1="980.7471" x2="980.7471" y1="349.8389" y2="364.8389"/><polygon fill="#181818" points="976.7471,354.8389,980.7471,364.8389,984.7471,354.8389,980.7471,358.8389" style="stroke:#181818;stroke-width:1;"/><line style="stroke:#181818;stroke-width:1;" x1="623.4814" x2="623.4814" y1="430.8076" y2="497.292"/><line style="stroke:#181818;stroke-width:1;" x1="623.4814" x2="968.7471" y1="430.8076" y2="430.8076"/><polygon fill="#181818" points="958.7471,426.8076,968.7471,430.8076,958.7471,434.8076,962.7471,430.8076" style="stroke:#181818;stroke-width:1;"/><line style="stroke:#181818;stroke-width:1;" x1="980.7471" x2="980.7471" y1="565.7451" y2="570.7451"/><line style="stroke:#181818;stroke-width:1;" x1="980.7471" x2="344.4033" y1="570.7451" y2="570.7451"/><line style="stroke:#181818;stroke-width:1;" x1="344.4033" x2="344.4033" y1="570.7451" y2="585.7451"/><polygon fill="#181818" points="340.4033,575.7451,344.4033,585.7451,348.4033,575.7451,344.4033,579.7451" style="stroke:#181818;stroke-width:1;"/><text fill="#000000" font-family="sans-serif" font-size="18" lengthAdjust="spacing" textLength="67.1221" x="341.2671" y="29.4531">System</text><text fill="#000000" font-family="sans-serif" font-size="18" lengthAdjust="spacing" textLength="49.9658" x="915.0688" y="29.4531">klient</text><!--SRC=[RL8xRiCm3Drr2ex95PoXSv6n1J8hDfF8baL3OY3OyDIbPoXoZ1mXoRrAoVcrY2S3V3y-QWmZVFI1iLLZCq9Z3JfMWRLdjR6asRWjE684YnikO9a1C6XBMuhQzH0XPBx1buJLVGmci3DO8x17XruLdH-mlXnAcLK40PkoDh0anxeHYoiCsoUBXHh3g8fLVpb4WsnH1C6AS2yAWSy_dUlBtPLvEiP5sYhXrrudw3JG8fv9B-MeIp5Y7ovVmj4GZQwefPJplzmL-W20qvq9cIORVKvk2-MnGyqAv2jM4o1doPG_-XEaNv-E7gIUlZIXsKCAQ4qzZLFajIwRg7rLmBlRa6zrMSjIqHExx3pTyUuCSMSimcnripf_GxUNAuFTh-MOihoK8g4g6Y9PSlTqRtCv6ypa8lDqLPW9Q7vhRMe8_nGWvdnRMo3Rz9iUYi0wucHK3PXhVLrmOEfUFwIdx5HT7s9QjipX7tMhNm00]--></g></svg>