<svg xmlns="http://www.w3.org/2000/svg" xmlns:xlink="http://www.w3.org/1999/xlink" contentStyleType="text/css" height="649px" preserveAspectRatio="none" style="width:1137px;height:649px;background:#FFFFFF;" version="1.1" viewBox="0 0 1137 649" width="1137px" zoomAndPan="magnify"><title>Logowanie do systemu</title><defs/><g><text fill="#000000" font-family="sans-serif" font-size="14" font-weight="bold" lengthAdjust="spacing" textLength="180.7422" x="477.0251" y="32.9951">Logowanie do systemu</text><rect fill="none" height="20.9531" style="stroke:none;stroke-width:1.0;" width="1104.7925" x="15" y="50.042"/><path d="M20,75.9951 L20,101.1279 L275.1587,101.1279 L275.1587,85.9951 L265.1587,75.9951 L20,75.9951 " fill="#FEFFDD" style="stroke:#181818;stroke-width:0.5;"/><path d="M265.1587,75.9951 L265.1587,85.9951 L275.1587,85.9951 L265.1587,75.9951 " fill="#FEFFDD" style="stroke:#181818;stroke-width:0.5;"/><text fill="#000000" font-family="sans-serif" font-size="13" lengthAdjust="spacing" textLength="234.1587" x="26" y="93.062">U&#380;ytkownik musi istnie&#263; w systemie</text><ellipse cx="305.1587" cy="88.5615" fill="#222222" rx="10" ry="10" style="stroke:#222222;stroke-width:1.0;"/><rect fill="#F1F1F1" height="33.9688" rx="12.5" ry="12.5" style="stroke:#181818;stroke-width:0.5;" width="202.0801" x="204.1187" y="121.1279"/><text fill="#000000" font-family="sans-serif" font-size="12" lengthAdjust="spacing" textLength="182.0801" x="214.1187" y="142.2666">Przej&#347;cie do ekranu logowania</text><rect fill="#F1F1F1" height="33.9688" rx="12.5" ry="12.5" style="stroke:#181818;stroke-width:0.5;" width="187.3496" x="211.4839" y="273.0654"/><text fill="#000000" font-family="sans-serif" font-size="12" lengthAdjust="spacing" textLength="167.3496" x="221.4839" y="294.2041">Wpisanie danych logowania</text><rect fill="#F1F1F1" height="33.9688" rx="12.5" ry="12.5" style="stroke:#181818;stroke-width:0.5;" width="150.5586" x="229.8794" y="342.0342"/><text fill="#000000" font-family="sans-serif" font-size="12" lengthAdjust="spacing" textLength="130.5586" x="239.8794" y="363.1729">Wyb&#243;r opcji "Zaloguj"</text><line style="stroke:#000000;stroke-width:1.5;" x1="15" x2="15" y1="50.042" y2="637.186"/><rect fill="#F1F1F1" height="33.9688" rx="12.5" ry="12.5" style="stroke:#181818;stroke-width:0.5;" width="233.2871" x="542.7813" y="219.0967"/><text fill="#000000" font-family="sans-serif" font-size="12" lengthAdjust="spacing" textLength="213.2871" x="552.7813" y="240.2354">Wy&#347;wietlenie formularza logowania</text><rect fill="#F1F1F1" height="33.9688" rx="12.5" ry="12.5" style="stroke:#181818;stroke-width:0.5;" width="416.4629" x="451.1934" y="396.0029"/><text fill="#000000" font-family="sans-serif" font-size="12" lengthAdjust="spacing" textLength="396.4629" x="461.1934" y="417.1416">Sprawdzenie czy istnieje u&#380;ytkownik z podanym loginem i has&#322;em</text><polygon fill="#F1F1F1" points="659.4248,175.0967,671.4248,187.0967,659.4248,199.0967,647.4248,187.0967,659.4248,175.0967" style="stroke:#181818;stroke-width:0.5;"/><polygon fill="#F1F1F1" points="603.3264,449.9717,715.5232,449.9717,727.5232,461.9717,715.5232,473.9717,603.3264,473.9717,591.3264,461.9717,603.3264,449.9717" style="stroke:#181818;stroke-width:0.5;"/><text fill="#000000" font-family="sans-serif" font-size="11" lengthAdjust="spacing" textLength="17.4238" x="663.4248" y="484.1821">tak</text><text fill="#000000" font-family="sans-serif" font-size="11" lengthAdjust="spacing" textLength="112.1968" x="603.3264" y="465.7798">U&#380;ytkownik istnieje?</text><text fill="#000000" font-family="sans-serif" font-size="11" lengthAdjust="spacing" textLength="16.7954" x="727.5232" y="459.3774">nie</text><rect fill="#F1F1F1" height="33.9688" rx="12.5" ry="12.5" style="stroke:#181818;stroke-width:0.5;" width="236.2754" x="877.6563" y="307.5498"/><text fill="#000000" font-family="sans-serif" font-size="12" lengthAdjust="spacing" textLength="212.4609" x="891.4707" y="328.6885">Wy&#347;wietlenie komunikatu o b&#322;&#281;dzie</text><rect fill="#F1F1F1" height="33.9688" rx="12.5" ry="12.5" style="stroke:#181818;stroke-width:0.5;" width="196.8242" x="561.0127" y="505.6821"/><text fill="#000000" font-family="sans-serif" font-size="12" lengthAdjust="spacing" textLength="176.8242" x="571.0127" y="526.8208">Utworzenie sesji u&#380;ytkownika</text><rect fill="#F1F1F1" height="33.9688" rx="12.5" ry="12.5" style="stroke:#181818;stroke-width:0.5;" width="216.4004" x="551.2246" y="559.6509"/><text fill="#000000" font-family="sans-serif" font-size="12" lengthAdjust="spacing" textLength="196.4004" x="561.2246" y="580.7896">Wy&#347;wietlenie ekranu startowego</text><path d="M415.1987,612.0532 L415.1987,637.186 L628.4248,637.186 L628.4248,622.0532 L618.4248,612.0532 L415.1987,612.0532 " fill="#FEFFDD" style="stroke:#181818;stroke-width:0.5;"/><path d="M618.4248,612.0532 L618.4248,622.0532 L628.4248,622.0532 L618.4248,612.0532 " fill="#FEFFDD" style="stroke:#181818;stroke-width:0.5;"/><text fill="#000000" font-family="sans-serif" font-size="13" lengthAdjust="spacing" textLength="192.2261" x="421.1987" y="629.1201">Utworzona sesja u&#380;ytkownika</text><ellipse cx="659.4248" cy="624.6196" fill="none" rx="11" ry="11" style="stroke:#222222;stroke-width:1.0;"/><ellipse cx="659.4248" cy="624.6196" fill="#222222" rx="6" ry="6" style="stroke:#222222;stroke-width:1.0;"/><line style="stroke:#000000;stroke-width:1.5;" x1="410.1987" x2="410.1987" y1="50.042" y2="637.186"/><line style="stroke:#000000;stroke-width:1.5;" x1="1117.9316" x2="1117.9316" y1="50.042" y2="637.186"/><line style="stroke:#181818;stroke-width:1.0;" x1="305.1587" x2="305.1587" y1="98.5615" y2="121.1279"/><polygon fill="#181818" points="301.1587,111.1279,305.1587,121.1279,309.1587,111.1279,305.1587,115.1279" style="stroke:#181818;stroke-width:1.0;"/><line style="stroke:#181818;stroke-width:1.0;" x1="305.1587" x2="305.1587" y1="307.0342" y2="342.0342"/><polygon fill="#181818" points="301.1587,332.0342,305.1587,342.0342,309.1587,332.0342,305.1587,336.0342" style="stroke:#181818;stroke-width:1.0;"/><line style="stroke:#181818;stroke-width:1.0;" x1="659.4248" x2="659.4248" y1="199.0967" y2="219.0967"/><polygon fill="#181818" points="655.4248,209.0967,659.4248,219.0967,663.4248,209.0967,659.4248,213.0967" style="stroke:#181818;stroke-width:1.0;"/><line style="stroke:#181818;stroke-width:1.0;" x1="727.5232" x2="995.7939" y1="461.9717" y2="461.9717"/><line style="stroke:#181818;stroke-width:1.0;" x1="995.7939" x2="995.7939" y1="341.5186" y2="461.9717"/><polygon fill="#181818" points="991.7939,351.5186,995.7939,341.5186,999.7939,351.5186,995.7939,347.5186" style="stroke:#181818;stroke-width:1.0;"/><line style="stroke:#181818;stroke-width:1.0;" x1="995.7939" x2="995.7939" y1="187.0967" y2="307.5498"/><line style="stroke:#181818;stroke-width:1.0;" x1="995.7939" x2="671.4248" y1="187.0967" y2="187.0967"/><polygon fill="#181818" points="681.4248,183.0967,671.4248,187.0967,681.4248,191.0967,677.4248,187.0967" style="stroke:#181818;stroke-width:1.0;"/><line style="stroke:#181818;stroke-width:1.0;" x1="659.4248" x2="659.4248" y1="429.9717" y2="449.9717"/><polygon fill="#181818" points="655.4248,439.9717,659.4248,449.9717,663.4248,439.9717,659.4248,443.9717" style="stroke:#181818;stroke-width:1.0;"/><line style="stroke:#181818;stroke-width:1.0;" x1="659.4248" x2="659.4248" y1="473.9717" y2="505.6821"/><polygon fill="#181818" points="655.4248,495.6821,659.4248,505.6821,663.4248,495.6821,659.4248,499.6821" style="stroke:#181818;stroke-width:1.0;"/><line style="stroke:#181818;stroke-width:1.0;" x1="659.4248" x2="659.4248" y1="539.6509" y2="559.6509"/><polygon fill="#181818" points="655.4248,549.6509,659.4248,559.6509,663.4248,549.6509,659.4248,553.6509" style="stroke:#181818;stroke-width:1.0;"/><line style="stroke:#181818;stroke-width:1.0;" x1="659.4248" x2="659.4248" y1="593.6196" y2="613.6196"/><polygon fill="#181818" points="655.4248,603.6196,659.4248,613.6196,663.4248,603.6196,659.4248,607.6196" style="stroke:#181818;stroke-width:1.0;"/><line style="stroke:#181818;stroke-width:1.0;" x1="659.4248" x2="659.4248" y1="253.0654" y2="258.0654"/><line style="stroke:#181818;stroke-width:1.0;" x1="659.4248" x2="305.1587" y1="258.0654" y2="258.0654"/><line style="stroke:#181818;stroke-width:1.0;" x1="305.1587" x2="305.1587" y1="258.0654" y2="273.0654"/><polygon fill="#181818" points="301.1587,263.0654,305.1587,273.0654,309.1587,263.0654,305.1587,267.0654" style="stroke:#181818;stroke-width:1.0;"/><line style="stroke:#181818;stroke-width:1.0;" x1="305.1587" x2="305.1587" y1="376.0029" y2="381.0029"/><line style="stroke:#181818;stroke-width:1.0;" x1="305.1587" x2="659.4248" y1="381.0029" y2="381.0029"/><line style="stroke:#181818;stroke-width:1.0;" x1="659.4248" x2="659.4248" y1="381.0029" y2="396.0029"/><polygon fill="#181818" points="655.4248,386.0029,659.4248,396.0029,663.4248,386.0029,659.4248,390.0029" style="stroke:#181818;stroke-width:1.0;"/><line style="stroke:#181818;stroke-width:1.0;" x1="305.1587" x2="305.1587" y1="155.0967" y2="160.0967"/><line style="stroke:#181818;stroke-width:1.0;" x1="305.1587" x2="659.4248" y1="160.0967" y2="160.0967"/><line style="stroke:#181818;stroke-width:1.0;" x1="659.4248" x2="659.4248" y1="160.0967" y2="175.0967"/><polygon fill="#181818" points="655.4248,165.0967,659.4248,175.0967,663.4248,165.0967,659.4248,169.0967" style="stroke:#181818;stroke-width:1.0;"/><text fill="#000000" font-family="sans-serif" font-size="18" lengthAdjust="spacing" textLength="101.5576" x="164.6814" y="66.75">u&#380;ytkownik</text><text fill="#000000" font-family="sans-serif" font-size="18" lengthAdjust="spacing" textLength="65.0742" x="734.3889" y="66.75">system</text><!--SRC=[RP4xRiCm38PtdOBmb5p16NA13WMA840tncOI-I4Q4WN1XgSiFKEHOtJjrlXUbHqNTT1k12Xz_uEYfI98dlZ40Oqco1bSwuHgdoZL-nxyyDbAoS7eKlMkdxVJJZb1A-fOCOes9p0i11KT9ONTxo-elTEWdKJyxGt2JD2aqcVRKJ5SixikbHQDXshsWXir2YfB3Q6e0sPbG9kdi6-7Qz0KZO-6IwvzL47nm70OBhVtlDEqKUdZioFRsbTeEtmKY2dIVQFTFJoQDZil7qJAuUl30ZTPeI5vnRZpHJ9RIryQYo7l9eMiQ-UK1IrRWmuQ7idr2DQ6Qj1mHZTSgDxCwI2STRp3QbdR3skxZYEiuhmU6uQLOBbMwKu2sxko8nVDBIJnJ_ovs-bW7EZ4CO4JRlu_teHcWnCP7yZV]--></g></svg>