<svg xmlns="http://www.w3.org/2000/svg" xmlns:xlink="http://www.w3.org/1999/xlink" contentStyleType="text/css" height="544px" preserveAspectRatio="none" style="width:515px;height:544px;background:#FFFFFF;" version="1.1" viewBox="0 0 515 544" width="515px" zoomAndPan="magnify"><title>Przed&#322;u&#380;enie karnetu</title><defs/><g><text fill="#000000" font-family="sans-serif" font-size="14" font-weight="bold" lengthAdjust="spacing" textLength="140.041" x="186.2876" y="34.5332">Przed&#322;u&#380;enie karnetu</text><path d="M40.5439,48.6094 L40.5439,74.9609 L292.0337,74.9609 L292.0337,58.6094 L282.0337,48.6094 L40.5439,48.6094 " fill="#FEFFDD" style="stroke:#181818;stroke-width:0.5;"/><path d="M282.0337,48.6094 L282.0337,58.6094 L292.0337,58.6094 L282.0337,48.6094 " fill="#FEFFDD" style="stroke:#181818;stroke-width:0.5;"/><text fill="#000000" font-family="sans-serif" font-size="13" lengthAdjust="spacing" textLength="230.4897" x="46.5439" y="67.1045">Musi istnie&#263; karnet identyfikuj&#261;cy klienta</text><ellipse cx="322.0337" cy="61.7852" fill="#222222" rx="10" ry="10" style="stroke:#222222;stroke-width:1.0;"/><rect fill="#F1F1F1" height="35.0938" rx="12.5" ry="12.5" style="stroke:#181818;stroke-width:0.5;" width="220.1035" x="211.9819" y="94.9609"/><text fill="#000000" font-family="sans-serif" font-size="12" lengthAdjust="spacing" textLength="200.1035" x="221.9819" y="117.418">Sprawdzenie daty wa&#380;no&#347;ci karnet&#243;w</text><rect fill="#F1F1F1" height="35.0938" rx="12.5" ry="12.5" style="stroke:#181818;stroke-width:0.5;" width="200.791" x="221.6382" y="150.0547"/><text fill="#000000" font-family="sans-serif" font-size="12" lengthAdjust="spacing" textLength="180.791" x="231.6382" y="172.5117">Odnalezienie niewa&#380;nego karnetu</text><rect fill="#F1F1F1" height="35.0938" rx="12.5" ry="12.5" style="stroke:#181818;stroke-width:0.5;" width="279.4824" x="182.2925" y="254.0664"/><text fill="#000000" font-family="sans-serif" font-size="12" lengthAdjust="spacing" textLength="259.4824" x="192.2925" y="276.5234">Sprawdzenie czy metoda p&#322;atnicza jest dost&#281;pna</text><polygon fill="#F1F1F1" points="253.2354,309.1602,390.832,309.1602,402.832,321.1602,390.832,333.1602,253.2354,333.1602,241.2354,321.1602,253.2354,309.1602" style="stroke:#181818;stroke-width:0.5;"/><text fill="#000000" font-family="sans-serif" font-size="11" lengthAdjust="spacing" textLength="137.5967" x="253.2354" y="325.6611">Metoda p&#322;atnicza dost&#281;pna?</text><text fill="#000000" font-family="sans-serif" font-size="11" lengthAdjust="spacing" textLength="14.6738" x="226.5615" y="318.7432">tak</text><text fill="#000000" font-family="sans-serif" font-size="11" lengthAdjust="spacing" textLength="14.6792" x="402.832" y="318.7432">nie</text><rect fill="#F1F1F1" height="35.0938" rx="12.5" ry="12.5" style="stroke:#181818;stroke-width:0.5;" width="126.7344" x="146.7871" y="343.1602"/><text fill="#000000" font-family="sans-serif" font-size="12" lengthAdjust="spacing" textLength="106.7344" x="156.7871" y="365.6172">Odnowienie karnetu</text><rect fill="#F1F1F1" height="35.0938" rx="12.5" ry="12.5" style="stroke:#181818;stroke-width:0.5;" width="103.3906" x="158.459" y="398.2539"/><text fill="#000000" font-family="sans-serif" font-size="12" lengthAdjust="spacing" textLength="83.3906" x="168.459" y="420.7109">Pobranie op&#322;aty</text><rect fill="#F1F1F1" height="35.0938" rx="12.5" ry="12.5" style="stroke:#181818;stroke-width:0.5;" width="266.1113" x="77.0986" y="453.3477"/><text fill="#000000" font-family="sans-serif" font-size="12" lengthAdjust="spacing" textLength="246.1113" x="87.0986" y="475.8047">Wygenerowanie informacji zwrotnej dla klienta</text><path d="M10,506.2656 L10,532.6172 L179.1543,532.6172 L179.1543,516.2656 L169.1543,506.2656 L10,506.2656 " fill="#FEFFDD" style="stroke:#181818;stroke-width:0.5;"/><path d="M169.1543,506.2656 L169.1543,516.2656 L179.1543,516.2656 L169.1543,506.2656 " fill="#FEFFDD" style="stroke:#181818;stroke-width:0.5;"/><text fill="#000000" font-family="sans-serif" font-size="13" lengthAdjust="spacing" textLength="148.1543" x="16" y="524.7607">Przed&#322;u&#380;ona data karnetu</text><ellipse cx="210.1543" cy="519.4414" fill="none" rx="11" ry="11" style="stroke:#222222;stroke-width:1.0;"/><ellipse cx="210.1543" cy="519.4414" fill="#222222" rx="6" ry="6" style="stroke:#222222;stroke-width:1.0;"/><rect fill="#F1F1F1" height="35.0938" rx="12.5" ry="12.5" style="stroke:#181818;stroke-width:0.5;" width="141.4063" x="363.21" y="343.1602"/><text fill="#000000" font-family="sans-serif" font-size="12" lengthAdjust="spacing" textLength="121.4063" x="373.21" y="365.6172">Uniewa&#380;nienie karnetu</text><ellipse cx="433.9131" cy="409.2539" fill="none" rx="11" ry="11" style="stroke:#222222;stroke-width:1.0;"/><ellipse cx="433.9131" cy="409.2539" fill="#222222" rx="6" ry="6" style="stroke:#222222;stroke-width:1.0;"/><polygon fill="#F1F1F1" points="236.73,205.1484,407.3374,205.1484,419.3374,217.1484,407.3374,229.1484,236.73,229.1484,224.73,217.1484,236.73,205.1484" style="stroke:#181818;stroke-width:0.5;"/><text fill="#000000" font-family="sans-serif" font-size="11" lengthAdjust="spacing" textLength="14.6738" x="326.0337" y="240.5674">tak</text><text fill="#000000" font-family="sans-serif" font-size="11" lengthAdjust="spacing" textLength="170.6074" x="236.73" y="221.6494">Przedawniony karnet odnaleziony?</text><text fill="#000000" font-family="sans-serif" font-size="11" lengthAdjust="spacing" textLength="14.6792" x="419.3374" y="214.7314">nie</text><ellipse cx="456.0166" cy="217.1484" fill="none" rx="11" ry="11" style="stroke:#222222;stroke-width:1.0;"/><ellipse cx="456.0166" cy="217.1484" fill="#222222" rx="6" ry="6" style="stroke:#222222;stroke-width:1.0;"/><line style="stroke:#181818;stroke-width:1.0;" x1="322.0337" x2="322.0337" y1="71.7852" y2="94.9609"/><polygon fill="#181818" points="318.0337,84.9609,322.0337,94.9609,326.0337,84.9609,322.0337,88.9609" style="stroke:#181818;stroke-width:1.0;"/><line style="stroke:#181818;stroke-width:1.0;" x1="322.0337" x2="322.0337" y1="130.0547" y2="150.0547"/><polygon fill="#181818" points="318.0337,140.0547,322.0337,150.0547,326.0337,140.0547,322.0337,144.0547" style="stroke:#181818;stroke-width:1.0;"/><line style="stroke:#181818;stroke-width:1.0;" x1="210.1543" x2="210.1543" y1="378.2539" y2="398.2539"/><polygon fill="#181818" points="206.1543,388.2539,210.1543,398.2539,214.1543,388.2539,210.1543,392.2539" style="stroke:#181818;stroke-width:1.0;"/><line style="stroke:#181818;stroke-width:1.0;" x1="210.1543" x2="210.1543" y1="433.3477" y2="453.3477"/><polygon fill="#181818" points="206.1543,443.3477,210.1543,453.3477,214.1543,443.3477,210.1543,447.3477" style="stroke:#181818;stroke-width:1.0;"/><line style="stroke:#181818;stroke-width:1.0;" x1="210.1543" x2="210.1543" y1="488.4414" y2="508.4414"/><polygon fill="#181818" points="206.1543,498.4414,210.1543,508.4414,214.1543,498.4414,210.1543,502.4414" style="stroke:#181818;stroke-width:1.0;"/><line style="stroke:#181818;stroke-width:1.0;" x1="433.9131" x2="433.9131" y1="378.2539" y2="398.2539"/><polygon fill="#181818" points="429.9131,388.2539,433.9131,398.2539,437.9131,388.2539,433.9131,392.2539" style="stroke:#181818;stroke-width:1.0;"/><line style="stroke:#181818;stroke-width:1.0;" x1="241.2354" x2="210.1543" y1="321.1602" y2="321.1602"/><line style="stroke:#181818;stroke-width:1.0;" x1="210.1543" x2="210.1543" y1="321.1602" y2="343.1602"/><polygon fill="#181818" points="206.1543,333.1602,210.1543,343.1602,214.1543,333.1602,210.1543,337.1602" style="stroke:#181818;stroke-width:1.0;"/><line style="stroke:#181818;stroke-width:1.0;" x1="402.832" x2="433.9131" y1="321.1602" y2="321.1602"/><line style="stroke:#181818;stroke-width:1.0;" x1="433.9131" x2="433.9131" y1="321.1602" y2="343.1602"/><polygon fill="#181818" points="429.9131,333.1602,433.9131,343.1602,437.9131,333.1602,433.9131,337.1602" style="stroke:#181818;stroke-width:1.0;"/><line style="stroke:#181818;stroke-width:1.0;" x1="322.0337" x2="322.0337" y1="289.1602" y2="309.1602"/><polygon fill="#181818" points="318.0337,299.1602,322.0337,309.1602,326.0337,299.1602,322.0337,303.1602" style="stroke:#181818;stroke-width:1.0;"/><line style="stroke:#181818;stroke-width:1.0;" x1="322.0337" x2="322.0337" y1="229.1484" y2="254.0664"/><polygon fill="#181818" points="318.0337,244.0664,322.0337,254.0664,326.0337,244.0664,322.0337,248.0664" style="stroke:#181818;stroke-width:1.0;"/><line style="stroke:#181818;stroke-width:1.0;" x1="419.3374" x2="445.0166" y1="217.1484" y2="217.1484"/><polygon fill="#181818" points="435.0166,213.1484,445.0166,217.1484,435.0166,221.1484,439.0166,217.1484" style="stroke:#181818;stroke-width:1.0;"/><line style="stroke:#181818;stroke-width:1.0;" x1="322.0337" x2="322.0337" y1="185.1484" y2="205.1484"/><polygon fill="#181818" points="318.0337,195.1484,322.0337,205.1484,326.0337,195.1484,322.0337,199.1484" style="stroke:#181818;stroke-width:1.0;"/><!--SRC=[TL51JiCm4Bpx5IjExHVQ0o-eg8GGvoNUb4tITMHl53dggHBY3OXdSEsDvb-afcaB1Ki-U6TdPsQjh1N1pT9tPFjjq-z8cA14BwJDZJ6R48FIUcE2ebTZyigXign0d19KbEiC5arWuA03S_zwv09R4eqvbqsnVyaYb1KF1JIp-zfZQxkaOr4ZjDZlnFNl6H-vdn_jtCpkh6157QV6uQOsMhdHtDmOpc6Id6Chx2IEskv87KgtKz1d4fWebbC3m_bX8EiYh4cTHQZxBGuHiWwXeA1WNT3zMoquJxI3rkAgyzHqhPEqXX2kvSkTpi_WqZrvF40kJOmNq6DSaP1tRS9PSkVNc1KCNUkT2XLWAnntUkO5TVNfyTTNdV_P2HxMZwElHACg44m6oOi83-Fk_ubnqYInd9jV8nBwZNm1]--></g></svg>