<svg xmlns="http://www.w3.org/2000/svg" xmlns:xlink="http://www.w3.org/1999/xlink" contentStyleType="text/css" height="597px" preserveAspectRatio="none" style="width:929px;height:597px;background:#FFFFFF;" version="1.1" viewBox="0 0 929 597" width="929px" zoomAndPan="magnify"><title>rejestraca pracownika</title><defs/><g><text fill="#000000" font-family="sans-serif" font-size="14" font-weight="bold" lengthAdjust="spacing" textLength="175.4375" x="375.6558" y="32.9951">rejestraca pracownika</text><rect fill="none" height="20.9531" style="stroke:none;stroke-width:1.0;" width="896.749" x="15" y="50.042"/><polygon fill="#F1F1F1" points="133.2676,399.667,292.2949,399.667,304.2949,411.667,292.2949,423.667,133.2676,423.667,121.2676,411.667,133.2676,399.667" style="stroke:#181818;stroke-width:0.5;"/><text fill="#000000" font-family="sans-serif" font-size="11" lengthAdjust="spacing" textLength="17.4238" x="216.7813" y="433.8774">tak</text><text fill="#000000" font-family="sans-serif" font-size="11" lengthAdjust="spacing" textLength="159.0273" x="133.2676" y="415.4751">Czy danych jest prawid&#322;owy?</text><text fill="#000000" font-family="sans-serif" font-size="11" lengthAdjust="spacing" textLength="16.7954" x="304.2949" y="409.0728">nie</text><rect fill="#F1F1F1" height="33.9688" rx="12.5" ry="12.5" style="stroke:#181818;stroke-width:0.5;" width="125.9785" x="149.792" y="455.3774"/><text fill="#000000" font-family="sans-serif" font-size="12" lengthAdjust="spacing" textLength="105.9785" x="159.792" y="476.5161">dodaj pracownika</text><rect fill="#F1F1F1" height="33.9688" rx="12.5" ry="12.5" style="stroke:#181818;stroke-width:0.5;" width="383.5625" x="21" y="509.3462"/><text fill="#000000" font-family="sans-serif" font-size="12" lengthAdjust="spacing" textLength="363.5625" x="31" y="530.4849">wy&#347;wietl potwierdzenie oraz dane logowania dla pracownika</text><ellipse cx="212.7813" cy="574.3149" fill="none" rx="11" ry="11" style="stroke:#222222;stroke-width:1.0;"/><ellipse cx="212.7813" cy="574.3149" fill="#222222" rx="6" ry="6" style="stroke:#222222;stroke-width:1.0;"/><line style="stroke:#000000;stroke-width:1.5;" x1="15" x2="15" y1="50.042" y2="585.3149"/><path d="M423.5625,85.9951 L423.5625,111.1279 L786.5679,111.1279 L786.5679,95.9951 L776.5679,85.9951 L423.5625,85.9951 " fill="#FEFFDD" style="stroke:#181818;stroke-width:0.5;"/><path d="M776.5679,85.9951 L776.5679,95.9951 L786.5679,95.9951 L776.5679,85.9951 " fill="#FEFFDD" style="stroke:#181818;stroke-width:0.5;"/><text fill="#000000" font-family="sans-serif" font-size="13" lengthAdjust="spacing" textLength="342.0054" x="429.5625" y="103.062">Pracowik nie jest jeszcze zarejestrowany w systemie</text><path d="M508.4243,131.1279 L508.4243,156.2607 L701.7061,156.2607 L701.7061,141.1279 L691.7061,131.1279 L508.4243,131.1279 " fill="#FEFFDD" style="stroke:#181818;stroke-width:0.5;"/><path d="M691.7061,131.1279 L691.7061,141.1279 L701.7061,141.1279 L691.7061,131.1279 " fill="#FEFFDD" style="stroke:#181818;stroke-width:0.5;"/><text fill="#000000" font-family="sans-serif" font-size="13" lengthAdjust="spacing" textLength="172.2817" x="514.4243" y="148.1948">Kierownik jest zalogowany</text><ellipse cx="806.5679" cy="121.1279" fill="#222222" rx="10" ry="10" style="stroke:#222222;stroke-width:1.0;"/><rect fill="#F1F1F1" height="33.9688" rx="12.5" ry="12.5" style="stroke:#181818;stroke-width:0.5;" width="198.6406" x="707.2476" y="186.2607"/><text fill="#000000" font-family="sans-serif" font-size="12" lengthAdjust="spacing" textLength="178.6406" x="717.2476" y="207.3994">wyb&#243;r opcji dodaj pracownika</text><rect fill="#F1F1F1" height="33.9688" rx="12.5" ry="12.5" style="stroke:#181818;stroke-width:0.5;" width="189.3301" x="711.9028" y="284.2295"/><text fill="#000000" font-family="sans-serif" font-size="12" lengthAdjust="spacing" textLength="169.3301" x="721.9028" y="305.3682">Wprowad&#378; dane pracownika</text><rect fill="#F1F1F1" height="33.9688" rx="12.5" ry="12.5" style="stroke:#181818;stroke-width:0.5;" width="127.9766" x="742.5796" y="345.6982"/><text fill="#000000" font-family="sans-serif" font-size="12" lengthAdjust="spacing" textLength="107.9766" x="752.5796" y="366.8369">Wy&#243;br opcji dodaj</text><polygon fill="#F1F1F1" points="806.5679,240.2295,818.5679,252.2295,806.5679,264.2295,794.5679,252.2295,806.5679,240.2295" style="stroke:#181818;stroke-width:0.5;"/><line style="stroke:#000000;stroke-width:1.5;" x1="408.5625" x2="408.5625" y1="50.042" y2="585.3149"/><line style="stroke:#000000;stroke-width:1.5;" x1="909.8882" x2="909.8882" y1="50.042" y2="585.3149"/><line style="stroke:#181818;stroke-width:1.0;" x1="212.7813" x2="212.7813" y1="423.667" y2="455.3774"/><polygon fill="#181818" points="208.7813,445.3774,212.7813,455.3774,216.7813,445.3774,212.7813,449.3774" style="stroke:#181818;stroke-width:1.0;"/><line style="stroke:#181818;stroke-width:1.0;" x1="212.7813" x2="212.7813" y1="489.3462" y2="509.3462"/><polygon fill="#181818" points="208.7813,499.3462,212.7813,509.3462,216.7813,499.3462,212.7813,503.3462" style="stroke:#181818;stroke-width:1.0;"/><line style="stroke:#181818;stroke-width:1.0;" x1="212.7813" x2="212.7813" y1="543.3149" y2="563.3149"/><polygon fill="#181818" points="208.7813,553.3149,212.7813,563.3149,216.7813,553.3149,212.7813,557.3149" style="stroke:#181818;stroke-width:1.0;"/><line style="stroke:#181818;stroke-width:1.0;" x1="806.5679" x2="806.5679" y1="131.1279" y2="186.2607"/><polygon fill="#181818" points="802.5679,176.2607,806.5679,186.2607,810.5679,176.2607,806.5679,180.2607" style="stroke:#181818;stroke-width:1.0;"/><line style="stroke:#181818;stroke-width:1.0;" x1="806.5679" x2="806.5679" y1="318.1982" y2="345.6982"/><polygon fill="#181818" points="802.5679,335.6982,806.5679,345.6982,810.5679,335.6982,806.5679,339.6982" style="stroke:#181818;stroke-width:1.0;"/><line style="stroke:#181818;stroke-width:1.0;" x1="806.5679" x2="806.5679" y1="264.2295" y2="284.2295"/><polygon fill="#181818" points="802.5679,274.2295,806.5679,284.2295,810.5679,274.2295,806.5679,278.2295" style="stroke:#181818;stroke-width:1.0;"/><line style="stroke:#181818;stroke-width:1.0;" x1="806.5679" x2="806.5679" y1="220.2295" y2="240.2295"/><polygon fill="#181818" points="802.5679,230.2295,806.5679,240.2295,810.5679,230.2295,806.5679,234.2295" style="stroke:#181818;stroke-width:1.0;"/><line style="stroke:#181818;stroke-width:1.0;" x1="304.2949" x2="671.9996" y1="411.667" y2="411.667"/><polygon fill="#181818" points="667.9996,338.1982,671.9996,328.1982,675.9996,338.1982,671.9996,334.1982" style="stroke:#181818;stroke-width:1.0;"/><line style="stroke:#181818;stroke-width:1.0;" x1="671.9996" x2="671.9996" y1="252.2295" y2="411.667"/><line style="stroke:#181818;stroke-width:1.0;" x1="671.9996" x2="794.5679" y1="252.2295" y2="252.2295"/><polygon fill="#181818" points="784.5679,248.2295,794.5679,252.2295,784.5679,256.2295,788.5679,252.2295" style="stroke:#181818;stroke-width:1.0;"/><line style="stroke:#181818;stroke-width:1.0;" x1="806.5679" x2="806.5679" y1="379.667" y2="384.667"/><line style="stroke:#181818;stroke-width:1.0;" x1="806.5679" x2="212.7813" y1="384.667" y2="384.667"/><line style="stroke:#181818;stroke-width:1.0;" x1="212.7813" x2="212.7813" y1="384.667" y2="399.667"/><polygon fill="#181818" points="208.7813,389.667,212.7813,399.667,216.7813,389.667,212.7813,393.667" style="stroke:#181818;stroke-width:1.0;"/><text fill="#000000" font-family="sans-serif" font-size="18" lengthAdjust="spacing" textLength="65.0742" x="182.105" y="66.75">system</text><text fill="#000000" font-family="sans-serif" font-size="18" lengthAdjust="spacing" textLength="86.4668" x="618.8528" y="66.75">kierownik</text><!--SRC=[RP0nRiCm34LtdOB8P5_16J9qxD8jCsCn2MtLCYG2WWHFlKQFaQrhu7jLibsWHhiGWgJ__lyK5aDmSDIH5uSjmfYd3GFtU52Jdy17B_Ikfdw2diajJyeBEYbtwcei2Wyt6AmG6BfA0syBWdiOcA20oqXj8aYuETc0GuImqPd-vRp- -AsGXCRU5g5gGhmy7mxis7OCschiVWK_AaSZeQZcF1OdFN-1ne5sNvfpV3ukEyIn5Dwq4EwSDrEzf5YqiRsl8J8Yi9u_R8Yd6jX3bKlM9JLKWdsjchzfSjhvCp29WT5AFZYTgEp6EanhigqP8sY3Ex4NEtu3]--></g></svg>