<svg xmlns="http://www.w3.org/2000/svg" xmlns:xlink="http://www.w3.org/1999/xlink" contentStyleType="text/css" height="974px" preserveAspectRatio="none" style="width:858px;height:974px;background:#FFFFFF;" version="1.1" viewBox="0 0 858 974" width="858px" zoomAndPan="magnify"><title>usuni&#281;cie pracownika z systemu</title><defs/><g><text fill="#000000" font-family="sans-serif" font-size="14" font-weight="bold" lengthAdjust="spacing" textLength="255.1719" x="300.0857" y="32.9951">usuni&#281;cie pracownika z systemu</text><rect fill="none" height="20.9531" style="stroke:none;stroke-width:1;" width="825.3433" x="15" y="50.042"/><rect fill="#F1F1F1" height="33.9688" rx="12.5" ry="12.5" style="stroke:#181818;stroke-width:0.5;" width="183.0781" x="64.7314" y="240.2295"/><text fill="#000000" font-family="sans-serif" font-size="12" lengthAdjust="spacing" textLength="163.0781" x="74.7314" y="261.3682">wy&#347;wietl list&#281; pracownik&#243;w</text><rect fill="#F1F1F1" height="33.9688" rx="12.5" ry="12.5" style="stroke:#181818;stroke-width:0.5;" width="270.541" x="21" y="399.667"/><text fill="#000000" font-family="sans-serif" font-size="12" lengthAdjust="spacing" textLength="250.541" x="31" y="420.8057">wy&#347;wietl opcje pasuj&#261;ce do wyszukiwania</text><polygon fill="#F1F1F1" points="156.2705,294.1982,168.2705,306.1982,156.2705,318.1982,144.2705,306.1982,156.2705,294.1982" style="stroke:#181818;stroke-width:0.5;"/><polygon fill="#F1F1F1" points="93.657,453.6357,218.884,453.6357,230.884,465.6357,218.884,477.6357,93.657,477.6357,81.657,465.6357,93.657,453.6357" style="stroke:#181818;stroke-width:0.5;"/><text fill="#000000" font-family="sans-serif" font-size="11" lengthAdjust="spacing" textLength="17.4238" x="160.2705" y="487.8462">tak</text><text fill="#000000" font-family="sans-serif" font-size="11" lengthAdjust="spacing" textLength="125.2271" x="93.657" y="469.4438">znaleziono pracownika</text><text fill="#000000" font-family="sans-serif" font-size="11" lengthAdjust="spacing" textLength="16.7954" x="230.884" y="463.0415">nie</text><rect fill="#F1F1F1" height="33.9688" rx="12.5" ry="12.5" style="stroke:#181818;stroke-width:0.5;" width="178.2266" x="67.1572" y="563.3149"/><text fill="#000000" font-family="sans-serif" font-size="12" lengthAdjust="spacing" textLength="158.2266" x="77.1572" y="584.4536">wy&#347;wietl dane pracownika</text><rect fill="#F1F1F1" height="33.9688" rx="12.5" ry="12.5" style="stroke:#181818;stroke-width:0.5;" width="193.3262" x="59.6074" y="671.2524"/><text fill="#000000" font-family="sans-serif" font-size="12" lengthAdjust="spacing" textLength="173.3262" x="69.6074" y="692.3911">wy&#347;wietl okno potwierdzenia</text><rect fill="#F1F1F1" height="33.9688" rx="12.5" ry="12.5" style="stroke:#181818;stroke-width:0.5;" width="159.541" x="76.5" y="773.6235"/><text fill="#000000" font-family="sans-serif" font-size="12" lengthAdjust="spacing" textLength="139.541" x="86.5" y="794.7622">usu&#324; konto pracownika</text><rect fill="#F1F1F1" height="33.9688" rx="12.5" ry="12.5" style="stroke:#181818;stroke-width:0.5;" width="199.9238" x="56.3086" y="842.5923"/><text fill="#000000" font-family="sans-serif" font-size="12" lengthAdjust="spacing" textLength="179.9238" x="66.3086" y="863.731">wy&#347;wietl powierdzenie opracji</text><ellipse cx="156.2705" cy="951.561" fill="none" rx="11" ry="11" style="stroke:#222222;stroke-width:1;"/><ellipse cx="156.2705" cy="951.561" fill="#222222" rx="6" ry="6" style="stroke:#222222;stroke-width:1;"/><line style="stroke:#000000;stroke-width:1.5;" x1="15" x2="15" y1="50.042" y2="962.561"/><path d="M392.0833,85.9951 L392.0833,111.1279 L634.9783,111.1279 L634.9783,95.9951 L624.9783,85.9951 L392.0833,85.9951 " fill="#FEFFDD" style="stroke:#181818;stroke-width:0.5;"/><path d="M624.9783,85.9951 L624.9783,95.9951 L634.9783,95.9951 L624.9783,85.9951 " fill="#FEFFDD" style="stroke:#181818;stroke-width:0.5;"/><text fill="#000000" font-family="sans-serif" font-size="13" lengthAdjust="spacing" textLength="221.895" x="398.0833" y="103.062">kierownik musi by&#263; zarejetrowany</text><path d="M337.541,131.1279 L337.541,156.2607 L689.5205,156.2607 L689.5205,141.1279 L679.5205,131.1279 L337.541,131.1279 " fill="#FEFFDD" style="stroke:#181818;stroke-width:0.5;"/><path d="M679.5205,131.1279 L679.5205,141.1279 L689.5205,141.1279 L679.5205,131.1279 " fill="#FEFFDD" style="stroke:#181818;stroke-width:0.5;"/><text fill="#000000" font-family="sans-serif" font-size="13" lengthAdjust="spacing" textLength="330.9795" x="343.541" y="148.1948">pracownik musi istnie&#263; w syastemie zarejetrowany</text><ellipse cx="709.5205" cy="121.1279" fill="#222222" rx="10" ry="10" style="stroke:#222222;stroke-width:1;"/><rect fill="#F1F1F1" height="33.9688" rx="12.5" ry="12.5" style="stroke:#181818;stroke-width:0.5;" width="240.6406" x="589.2002" y="186.2607"/><text fill="#000000" font-family="sans-serif" font-size="12" lengthAdjust="spacing" textLength="220.6406" x="599.2002" y="207.3994">wybierz opcj&#281; wy&#347;wielt pracownik&#243;w</text><rect fill="#F1F1F1" height="33.9688" rx="12.5" ry="12.5" style="stroke:#181818;stroke-width:0.5;" width="144.0898" x="637.4756" y="338.1982"/><text fill="#000000" font-family="sans-serif" font-size="12" lengthAdjust="spacing" textLength="124.0898" x="647.4756" y="359.3369">wyszukaj pracownka</text><rect fill="#F1F1F1" height="33.9688" rx="12.5" ry="12.5" style="stroke:#181818;stroke-width:0.5;" width="176.9551" x="621.043" y="509.3462"/><text fill="#000000" font-family="sans-serif" font-size="12" lengthAdjust="spacing" textLength="156.9551" x="631.043" y="530.4849">wybierz konto pracownika</text><rect fill="#F1F1F1" height="33.9688" rx="12.5" ry="12.5" style="stroke:#181818;stroke-width:0.5;" width="208.168" x="605.4365" y="617.2837"/><text fill="#000000" font-family="sans-serif" font-size="12" lengthAdjust="spacing" textLength="188.168" x="615.4365" y="638.4224">wybierz opcj&#281; usu&#324; pracownika</text><polygon fill="#F1F1F1" points="666.5168,725.2212,752.5242,725.2212,764.5242,737.2212,752.5242,749.2212,666.5168,749.2212,654.5168,737.2212,666.5168,725.2212" style="stroke:#181818;stroke-width:0.5;"/><text fill="#000000" font-family="sans-serif" font-size="11" lengthAdjust="spacing" textLength="17.4238" x="713.5205" y="759.4316">tak</text><text fill="#000000" font-family="sans-serif" font-size="11" lengthAdjust="spacing" textLength="86.0073" x="666.5168" y="741.0293">zatwierd&#378; opcj&#281;</text><text fill="#000000" font-family="sans-serif" font-size="11" lengthAdjust="spacing" textLength="16.7954" x="764.5242" y="734.627">nie</text><polygon fill="#F1F1F1" points="709.5205,896.561,721.5205,908.561,709.5205,920.561,697.5205,908.561,709.5205,896.561" style="stroke:#181818;stroke-width:0.5;"/><line style="stroke:#000000;stroke-width:1.5;" x1="322.541" x2="322.541" y1="50.042" y2="962.561"/><line style="stroke:#000000;stroke-width:1.5;" x1="838.4824" x2="838.4824" y1="50.042" y2="962.561"/><line style="stroke:#181818;stroke-width:1;" x1="230.884" x2="303.541" y1="465.6357" y2="465.6357"/><polygon fill="#181818" points="299.541,392.167,303.541,382.167,307.541,392.167,303.541,388.167" style="stroke:#181818;stroke-width:1;"/><line style="stroke:#181818;stroke-width:1;" x1="303.541" x2="303.541" y1="306.1982" y2="465.6357"/><line style="stroke:#181818;stroke-width:1;" x1="303.541" x2="168.2705" y1="306.1982" y2="306.1982"/><polygon fill="#181818" points="178.2705,302.1982,168.2705,306.1982,178.2705,310.1982,174.2705,306.1982" style="stroke:#181818;stroke-width:1;"/><line style="stroke:#181818;stroke-width:1;" x1="156.2705" x2="156.2705" y1="433.6357" y2="453.6357"/><polygon fill="#181818" points="152.2705,443.6357,156.2705,453.6357,160.2705,443.6357,156.2705,447.6357" style="stroke:#181818;stroke-width:1;"/><line style="stroke:#181818;stroke-width:1;" x1="156.2705" x2="156.2705" y1="274.1982" y2="294.1982"/><polygon fill="#181818" points="152.2705,284.1982,156.2705,294.1982,160.2705,284.1982,156.2705,288.1982" style="stroke:#181818;stroke-width:1;"/><line style="stroke:#181818;stroke-width:1;" x1="156.2705" x2="156.2705" y1="807.5923" y2="842.5923"/><polygon fill="#181818" points="152.2705,832.5923,156.2705,842.5923,160.2705,832.5923,156.2705,836.5923" style="stroke:#181818;stroke-width:1;"/><line style="stroke:#181818;stroke-width:1;" x1="709.5205" x2="709.5205" y1="131.1279" y2="186.2607"/><polygon fill="#181818" points="705.5205,176.2607,709.5205,186.2607,713.5205,176.2607,709.5205,180.2607" style="stroke:#181818;stroke-width:1;"/><line style="stroke:#181818;stroke-width:1;" x1="764.5242" x2="819.4824" y1="737.2212" y2="737.2212"/><polygon fill="#181818" points="815.4824,815.0923,819.4824,825.0923,823.4824,815.0923,819.4824,819.0923" style="stroke:#181818;stroke-width:1;"/><line style="stroke:#181818;stroke-width:1;" x1="819.4824" x2="819.4824" y1="737.2212" y2="908.561"/><line style="stroke:#181818;stroke-width:1;" x1="819.4824" x2="721.5205" y1="908.561" y2="908.561"/><polygon fill="#181818" points="731.5205,904.561,721.5205,908.561,731.5205,912.561,727.5205,908.561" style="stroke:#181818;stroke-width:1;"/><line style="stroke:#181818;stroke-width:1;" x1="709.5205" x2="709.5205" y1="220.2295" y2="225.2295"/><line style="stroke:#181818;stroke-width:1;" x1="709.5205" x2="156.2705" y1="225.2295" y2="225.2295"/><line style="stroke:#181818;stroke-width:1;" x1="156.2705" x2="156.2705" y1="225.2295" y2="240.2295"/><polygon fill="#181818" points="152.2705,230.2295,156.2705,240.2295,160.2705,230.2295,156.2705,234.2295" style="stroke:#181818;stroke-width:1;"/><line style="stroke:#181818;stroke-width:1;" x1="709.5205" x2="709.5205" y1="372.167" y2="382.167"/><line style="stroke:#181818;stroke-width:1;" x1="709.5205" x2="156.2705" y1="382.167" y2="382.167"/><line style="stroke:#181818;stroke-width:1;" x1="156.2705" x2="156.2705" y1="382.167" y2="399.667"/><polygon fill="#181818" points="152.2705,389.667,156.2705,399.667,160.2705,389.667,156.2705,393.667" style="stroke:#181818;stroke-width:1;"/><line style="stroke:#181818;stroke-width:1;" x1="156.2705" x2="156.2705" y1="318.1982" y2="323.1982"/><line style="stroke:#181818;stroke-width:1;" x1="156.2705" x2="709.5205" y1="323.1982" y2="323.1982"/><line style="stroke:#181818;stroke-width:1;" x1="709.5205" x2="709.5205" y1="323.1982" y2="338.1982"/><polygon fill="#181818" points="705.5205,328.1982,709.5205,338.1982,713.5205,328.1982,709.5205,332.1982" style="stroke:#181818;stroke-width:1;"/><line style="stroke:#181818;stroke-width:1;" x1="156.2705" x2="156.2705" y1="477.6357" y2="494.3462"/><line style="stroke:#181818;stroke-width:1;" x1="156.2705" x2="709.5205" y1="494.3462" y2="494.3462"/><line style="stroke:#181818;stroke-width:1;" x1="709.5205" x2="709.5205" y1="494.3462" y2="509.3462"/><polygon fill="#181818" points="705.5205,499.3462,709.5205,509.3462,713.5205,499.3462,709.5205,503.3462" style="stroke:#181818;stroke-width:1;"/><line style="stroke:#181818;stroke-width:1;" x1="709.5205" x2="709.5205" y1="543.3149" y2="548.3149"/><line style="stroke:#181818;stroke-width:1;" x1="709.5205" x2="156.2705" y1="548.3149" y2="548.3149"/><line style="stroke:#181818;stroke-width:1;" x1="156.2705" x2="156.2705" y1="548.3149" y2="563.3149"/><polygon fill="#181818" points="152.2705,553.3149,156.2705,563.3149,160.2705,553.3149,156.2705,557.3149" style="stroke:#181818;stroke-width:1;"/><line style="stroke:#181818;stroke-width:1;" x1="156.2705" x2="156.2705" y1="597.2837" y2="602.2837"/><line style="stroke:#181818;stroke-width:1;" x1="156.2705" x2="709.5205" y1="602.2837" y2="602.2837"/><line style="stroke:#181818;stroke-width:1;" x1="709.5205" x2="709.5205" y1="602.2837" y2="617.2837"/><polygon fill="#181818" points="705.5205,607.2837,709.5205,617.2837,713.5205,607.2837,709.5205,611.2837" style="stroke:#181818;stroke-width:1;"/><line style="stroke:#181818;stroke-width:1;" x1="709.5205" x2="709.5205" y1="651.2524" y2="656.2524"/><line style="stroke:#181818;stroke-width:1;" x1="709.5205" x2="156.2705" y1="656.2524" y2="656.2524"/><line style="stroke:#181818;stroke-width:1;" x1="156.2705" x2="156.2705" y1="656.2524" y2="671.2524"/><polygon fill="#181818" points="152.2705,661.2524,156.2705,671.2524,160.2705,661.2524,156.2705,665.2524" style="stroke:#181818;stroke-width:1;"/><line style="stroke:#181818;stroke-width:1;" x1="709.5205" x2="709.5205" y1="749.2212" y2="761.4224"/><line style="stroke:#181818;stroke-width:1;" x1="709.5205" x2="156.2705" y1="761.4224" y2="761.4224"/><line style="stroke:#181818;stroke-width:1;" x1="156.2705" x2="156.2705" y1="761.4224" y2="773.6235"/><polygon fill="#181818" points="152.2705,763.6235,156.2705,773.6235,160.2705,763.6235,156.2705,767.6235" style="stroke:#181818;stroke-width:1;"/><line style="stroke:#181818;stroke-width:1;" x1="156.2705" x2="156.2705" y1="876.561" y2="884.3599"/><line style="stroke:#181818;stroke-width:1;" x1="156.2705" x2="709.5205" y1="884.3599" y2="884.3599"/><line style="stroke:#181818;stroke-width:1;" x1="709.5205" x2="709.5205" y1="884.3599" y2="896.561"/><polygon fill="#181818" points="705.5205,886.561,709.5205,896.561,713.5205,886.561,709.5205,890.561" style="stroke:#181818;stroke-width:1;"/><line style="stroke:#181818;stroke-width:1;" x1="156.2705" x2="156.2705" y1="705.2212" y2="710.2212"/><line style="stroke:#181818;stroke-width:1;" x1="156.2705" x2="709.5205" y1="710.2212" y2="710.2212"/><line style="stroke:#181818;stroke-width:1;" x1="709.5205" x2="709.5205" y1="710.2212" y2="725.2212"/><polygon fill="#181818" points="705.5205,715.2212,709.5205,725.2212,713.5205,715.2212,709.5205,719.2212" style="stroke:#181818;stroke-width:1;"/><line style="stroke:#181818;stroke-width:1;" x1="709.5205" x2="709.5205" y1="920.561" y2="925.561"/><line style="stroke:#181818;stroke-width:1;" x1="709.5205" x2="156.2705" y1="925.561" y2="925.561"/><line style="stroke:#181818;stroke-width:1;" x1="156.2705" x2="156.2705" y1="925.561" y2="940.561"/><polygon fill="#181818" points="152.2705,930.561,156.2705,940.561,160.2705,930.561,156.2705,934.561" style="stroke:#181818;stroke-width:1;"/><text fill="#000000" font-family="sans-serif" font-size="18" lengthAdjust="spacing" textLength="65.0742" x="139.0942" y="66.75">system</text><text fill="#000000" font-family="sans-serif" font-size="18" lengthAdjust="spacing" textLength="86.4668" x="540.1392" y="66.75">kireownik</text><!--SRC=[VP91ReCm44Ntd6AKLRX2Sfe93CrWnqPu40AnRDKpH3r6TzsMtAjZ22aeLPSU___zveEmM89T4nh7upLZWgh6pBUE3K8FeGj2bsQN366u7vB1362ufacK1C5QuYmfh4TXzmBE2u6bGWwgethImQK93ATkV8SUQof9T8wk-zFrG9XT7CGngRDL18mCYhbDERJTIP_gmLTPELwXxMuVBPELtwplp_OOruZQwL8iM8rMzLPJKqKuhwJIq3S6oqLYy2aZlgYjOMZAyIqZo3tCBbOonYKFsZDhq_lUeQMUlVEhfbFT4VQwP1fhWBsWIHU0UI_ZdQmTJnWvEjhUh-ttMlGptrx_I_4cSddHKvttDF7782wK7EVnxUiUbuASoIsqCMZEVsPTlL3vHpPfZefAFYPa0yq59EHoBlItyjKF]--></g></svg>