<svg xmlns="http://www.w3.org/2000/svg" xmlns:xlink="http://www.w3.org/1999/xlink" contentStyleType="text/css" height="1017px" preserveAspectRatio="none" style="width:1490px;height:1017px;background:#FFFFFF;" version="1.1" viewBox="0 0 1490 1017" width="1490px" zoomAndPan="magnify"><title>Wykupienie karnetu</title><defs/><g><text fill="#000000" font-family="sans-serif" font-size="14" font-weight="bold" lengthAdjust="spacing" textLength="159.0791" x="664.3337" y="32.9951">Wykupienie karnetu</text><rect fill="none" height="20.9531" style="stroke:none;stroke-width:1.0;" width="1457.7466" x="15" y="50.042"/><path d="M20,75.9951 L20,101.1279 L328.6377,101.1279 L328.6377,85.9951 L318.6377,75.9951 L20,75.9951 " fill="#FEFFDD" style="stroke:#181818;stroke-width:0.5;"/><path d="M318.6377,75.9951 L318.6377,85.9951 L328.6377,85.9951 L318.6377,75.9951 " fill="#FEFFDD" style="stroke:#181818;stroke-width:0.5;"/><text fill="#000000" font-family="sans-serif" font-size="13" lengthAdjust="spacing" textLength="287.6377" x="26" y="93.062">Pracownik musi by&#263; zalogowany w systemie</text><ellipse cx="358.6377" cy="88.5615" fill="#222222" rx="10" ry="10" style="stroke:#222222;stroke-width:1.0;"/><rect fill="#F1F1F1" height="33.9688" rx="12.5" ry="12.5" style="stroke:#181818;stroke-width:0.5;" width="192.459" x="262.4082" y="121.1279"/><text fill="#000000" font-family="sans-serif" font-size="12" lengthAdjust="spacing" textLength="172.459" x="272.4082" y="142.2666">Pro&#347;ba o utworzenie karnetu</text><line style="stroke:#000000;stroke-width:1.5;" x1="15" x2="15" y1="50.042" y2="1005.9155"/><rect fill="#F1F1F1" height="33.9688" rx="12.5" ry="12.5" style="stroke:#181818;stroke-width:0.5;" width="181.7305" x="579.8398" y="175.0967"/><text fill="#000000" font-family="sans-serif" font-size="12" lengthAdjust="spacing" textLength="161.7305" x="589.8398" y="196.2354">Wyb&#243;r opcji "Nowy karnet"</text><rect fill="#F1F1F1" height="33.9688" rx="12.5" ry="12.5" style="stroke:#181818;stroke-width:0.5;" width="411.6758" x="464.8672" y="371.0342"/><text fill="#000000" font-family="sans-serif" font-size="12" lengthAdjust="spacing" textLength="391.6758" x="474.8672" y="392.1729">Wprowadzenie danych personalnych, p&#322;atniczych i kontaktowych</text><rect fill="#F1F1F1" height="33.9688" rx="12.5" ry="12.5" style="stroke:#181818;stroke-width:0.5;" width="157.0742" x="592.168" y="425.0029"/><text fill="#000000" font-family="sans-serif" font-size="12" lengthAdjust="spacing" textLength="137.0742" x="602.168" y="446.1416">Zatwierdzenie operacji</text><polygon fill="#F1F1F1" points="604.595,491.4053,736.8152,491.4053,748.8152,503.4053,736.8152,515.4053,604.595,515.4053,592.595,503.4053,604.595,491.4053" style="stroke:#181818;stroke-width:0.5;"/><text fill="#000000" font-family="sans-serif" font-size="11" lengthAdjust="spacing" textLength="17.4238" x="674.7051" y="525.6157">tak</text><text fill="#000000" font-family="sans-serif" font-size="11" lengthAdjust="spacing" textLength="132.2202" x="604.595" y="507.2134">Operacja zatwierdzona?</text><text fill="#000000" font-family="sans-serif" font-size="11" lengthAdjust="spacing" textLength="16.7954" x="748.8152" y="500.811">nie</text><ellipse cx="787.6106" cy="503.4053" fill="none" rx="11" ry="11" style="stroke:#222222;stroke-width:1.0;"/><ellipse cx="787.6106" cy="503.4053" fill="#222222" rx="6" ry="6" style="stroke:#222222;stroke-width:1.0;"/><line style="stroke:#000000;stroke-width:1.5;" x1="458.8672" x2="458.8672" y1="50.042" y2="1005.9155"/><rect fill="#F1F1F1" height="33.9688" rx="12.5" ry="12.5" style="stroke:#181818;stroke-width:0.5;" width="168.377" x="1178.4688" y="317.0654"/><text fill="#000000" font-family="sans-serif" font-size="12" lengthAdjust="spacing" textLength="148.377" x="1188.4688" y="338.2041">Wy&#347;wietlenie formularza</text><rect fill="#F1F1F1" height="33.9688" rx="12.5" ry="12.5" style="stroke:#181818;stroke-width:0.5;" width="196.3203" x="1164.4971" y="547.1157"/><text fill="#000000" font-family="sans-serif" font-size="12" lengthAdjust="spacing" textLength="176.3203" x="1174.4971" y="568.2544">Sprawdzenie formatu danych</text><polygon fill="#F1F1F1" points="1262.6572,273.0654,1274.6572,285.0654,1262.6572,297.0654,1250.6572,285.0654,1262.6572,273.0654" style="stroke:#181818;stroke-width:0.5;"/><polygon fill="#F1F1F1" points="1190.6389,601.0845,1334.6755,601.0845,1346.6755,613.0845,1334.6755,625.0845,1190.6389,625.0845,1178.6389,613.0845,1190.6389,601.0845" style="stroke:#181818;stroke-width:0.5;"/><text fill="#000000" font-family="sans-serif" font-size="11" lengthAdjust="spacing" textLength="17.4238" x="1266.6572" y="635.2949">tak</text><text fill="#000000" font-family="sans-serif" font-size="11" lengthAdjust="spacing" textLength="144.0366" x="1190.6389" y="616.8926">Poprawny format danych?</text><text fill="#000000" font-family="sans-serif" font-size="11" lengthAdjust="spacing" textLength="16.7954" x="1346.6755" y="610.4902">nie</text><rect fill="#F1F1F1" height="33.9688" rx="12.5" ry="12.5" style="stroke:#181818;stroke-width:0.5;" width="283.9238" x="1120.6953" y="656.7949"/><text fill="#000000" font-family="sans-serif" font-size="12" lengthAdjust="spacing" textLength="263.9238" x="1130.6953" y="677.9336">Sprawdzenie dost&#281;pno&#347;ci metody p&#322;atniczej</text><polygon fill="#F1F1F1" points="1262.6572,229.0654,1274.6572,241.0654,1262.6572,253.0654,1250.6572,241.0654,1262.6572,229.0654" style="stroke:#181818;stroke-width:0.5;"/><polygon fill="#F1F1F1" points="1185.2437,710.7637,1340.0708,710.7637,1352.0708,722.7637,1340.0708,734.7637,1185.2437,734.7637,1173.2437,722.7637,1185.2437,710.7637" style="stroke:#181818;stroke-width:0.5;"/><text fill="#000000" font-family="sans-serif" font-size="11" lengthAdjust="spacing" textLength="17.4238" x="1266.6572" y="744.9741">tak</text><text fill="#000000" font-family="sans-serif" font-size="11" lengthAdjust="spacing" textLength="154.8271" x="1185.2437" y="726.5718">Metoda p&#322;atnicza dost&#281;pna?</text><text fill="#000000" font-family="sans-serif" font-size="11" lengthAdjust="spacing" textLength="16.7954" x="1352.0708" y="720.1694">nie</text><rect fill="#F1F1F1" height="33.9688" rx="12.5" ry="12.5" style="stroke:#181818;stroke-width:0.5;" width="137.9316" x="1193.6914" y="766.4741"/><text fill="#000000" font-family="sans-serif" font-size="12" lengthAdjust="spacing" textLength="117.9316" x="1203.6914" y="787.6128">Utworzenie karnetu</text><rect fill="#F1F1F1" height="33.9688" rx="12.5" ry="12.5" style="stroke:#181818;stroke-width:0.5;" width="114.1484" x="1205.583" y="820.4429"/><text fill="#000000" font-family="sans-serif" font-size="12" lengthAdjust="spacing" textLength="94.1484" x="1215.583" y="841.5815">Pobranie op&#322;aty</text><rect fill="#F1F1F1" height="33.9688" rx="12.5" ry="12.5" style="stroke:#181818;stroke-width:0.5;" width="314.457" x="1105.4287" y="874.4116"/><text fill="#000000" font-family="sans-serif" font-size="12" lengthAdjust="spacing" textLength="294.457" x="1115.4287" y="895.5503">Wys&#322;anie loginu i tymczasowego has&#322;a do klienta</text><rect fill="#F1F1F1" height="33.9688" rx="12.5" ry="12.5" style="stroke:#181818;stroke-width:0.5;" width="184.6953" x="1170.3096" y="928.3804"/><text fill="#000000" font-family="sans-serif" font-size="12" lengthAdjust="spacing" textLength="164.6953" x="1180.3096" y="949.519">Wy&#347;wietenie potwierdzenia</text><path d="M885.543,980.7827 L885.543,1005.9155 L1231.6572,1005.9155 L1231.6572,990.7827 L1221.6572,980.7827 L885.543,980.7827 " fill="#FEFFDD" style="stroke:#181818;stroke-width:0.5;"/><path d="M1221.6572,980.7827 L1221.6572,990.7827 L1231.6572,990.7827 L1221.6572,980.7827 " fill="#FEFFDD" style="stroke:#181818;stroke-width:0.5;"/><text fill="#000000" font-family="sans-serif" font-size="13" lengthAdjust="spacing" textLength="325.1143" x="891.543" y="997.8496">Utworzenie karnetu identyfikuj&#261;cego u&#380;ytkownika</text><ellipse cx="1262.6572" cy="993.3491" fill="none" rx="11" ry="11" style="stroke:#222222;stroke-width:1.0;"/><ellipse cx="1262.6572" cy="993.3491" fill="#222222" rx="6" ry="6" style="stroke:#222222;stroke-width:1.0;"/><line style="stroke:#000000;stroke-width:1.5;" x1="880.543" x2="880.543" y1="50.042" y2="1005.9155"/><line style="stroke:#000000;stroke-width:1.5;" x1="1470.8857" x2="1470.8857" y1="50.042" y2="1005.9155"/><line style="stroke:#181818;stroke-width:1.0;" x1="358.6377" x2="358.6377" y1="98.5615" y2="121.1279"/><polygon fill="#181818" points="354.6377,111.1279,358.6377,121.1279,362.6377,111.1279,358.6377,115.1279" style="stroke:#181818;stroke-width:1.0;"/><line style="stroke:#181818;stroke-width:1.0;" x1="670.7051" x2="670.7051" y1="405.0029" y2="425.0029"/><polygon fill="#181818" points="666.7051,415.0029,670.7051,425.0029,674.7051,415.0029,670.7051,419.0029" style="stroke:#181818;stroke-width:1.0;"/><line style="stroke:#181818;stroke-width:1.0;" x1="670.7051" x2="670.7051" y1="515.4053" y2="532.1157"/><line style="stroke:#181818;stroke-width:1.0;" x1="670.7051" x2="1262.6572" y1="532.1157" y2="532.1157"/><line style="stroke:#181818;stroke-width:1.0;" x1="1262.6572" x2="1262.6572" y1="532.1157" y2="547.1157"/><polygon fill="#181818" points="1258.6572,537.1157,1262.6572,547.1157,1266.6572,537.1157,1262.6572,541.1157" style="stroke:#181818;stroke-width:1.0;"/><line style="stroke:#181818;stroke-width:1.0;" x1="748.8152" x2="776.6106" y1="503.4053" y2="503.4053"/><polygon fill="#181818" points="766.6106,499.4053,776.6106,503.4053,766.6106,507.4053,770.6106,503.4053" style="stroke:#181818;stroke-width:1.0;"/><line style="stroke:#181818;stroke-width:1.0;" x1="670.7051" x2="670.7051" y1="458.9717" y2="491.4053"/><polygon fill="#181818" points="666.7051,481.4053,670.7051,491.4053,674.7051,481.4053,670.7051,485.4053" style="stroke:#181818;stroke-width:1.0;"/><line style="stroke:#181818;stroke-width:1.0;" x1="1262.6572" x2="1262.6572" y1="297.0654" y2="317.0654"/><polygon fill="#181818" points="1258.6572,307.0654,1262.6572,317.0654,1266.6572,307.0654,1262.6572,311.0654" style="stroke:#181818;stroke-width:1.0;"/><line style="stroke:#181818;stroke-width:1.0;" x1="1346.6755" x2="1433.8857" y1="613.0845" y2="613.0845"/><polygon fill="#181818" points="1429.8857,471.4053,1433.8857,461.4053,1437.8857,471.4053,1433.8857,467.4053" style="stroke:#181818;stroke-width:1.0;"/><line style="stroke:#181818;stroke-width:1.0;" x1="1433.8857" x2="1433.8857" y1="285.0654" y2="613.0845"/><line style="stroke:#181818;stroke-width:1.0;" x1="1433.8857" x2="1274.6572" y1="285.0654" y2="285.0654"/><polygon fill="#181818" points="1284.6572,281.0654,1274.6572,285.0654,1284.6572,289.0654,1280.6572,285.0654" style="stroke:#181818;stroke-width:1.0;"/><line style="stroke:#181818;stroke-width:1.0;" x1="1262.6572" x2="1262.6572" y1="581.0845" y2="601.0845"/><polygon fill="#181818" points="1258.6572,591.0845,1262.6572,601.0845,1266.6572,591.0845,1262.6572,595.0845" style="stroke:#181818;stroke-width:1.0;"/><line style="stroke:#181818;stroke-width:1.0;" x1="1262.6572" x2="1262.6572" y1="625.0845" y2="656.7949"/><polygon fill="#181818" points="1258.6572,646.7949,1262.6572,656.7949,1266.6572,646.7949,1262.6572,650.7949" style="stroke:#181818;stroke-width:1.0;"/><line style="stroke:#181818;stroke-width:1.0;" x1="1262.6572" x2="1262.6572" y1="253.0654" y2="273.0654"/><polygon fill="#181818" points="1258.6572,263.0654,1262.6572,273.0654,1266.6572,263.0654,1262.6572,267.0654" style="stroke:#181818;stroke-width:1.0;"/><line style="stroke:#181818;stroke-width:1.0;" x1="1352.0708" x2="1451.8857" y1="722.7637" y2="722.7637"/><polygon fill="#181818" points="1447.8857,503.3232,1451.8857,493.3232,1455.8857,503.3232,1451.8857,499.3232" style="stroke:#181818;stroke-width:1.0;"/><line style="stroke:#181818;stroke-width:1.0;" x1="1451.8857" x2="1451.8857" y1="241.0654" y2="722.7637"/><line style="stroke:#181818;stroke-width:1.0;" x1="1451.8857" x2="1274.6572" y1="241.0654" y2="241.0654"/><polygon fill="#181818" points="1284.6572,237.0654,1274.6572,241.0654,1284.6572,245.0654,1280.6572,241.0654" style="stroke:#181818;stroke-width:1.0;"/><line style="stroke:#181818;stroke-width:1.0;" x1="1262.6572" x2="1262.6572" y1="690.7637" y2="710.7637"/><polygon fill="#181818" points="1258.6572,700.7637,1262.6572,710.7637,1266.6572,700.7637,1262.6572,704.7637" style="stroke:#181818;stroke-width:1.0;"/><line style="stroke:#181818;stroke-width:1.0;" x1="1262.6572" x2="1262.6572" y1="734.7637" y2="766.4741"/><polygon fill="#181818" points="1258.6572,756.4741,1262.6572,766.4741,1266.6572,756.4741,1262.6572,760.4741" style="stroke:#181818;stroke-width:1.0;"/><line style="stroke:#181818;stroke-width:1.0;" x1="1262.6572" x2="1262.6572" y1="800.4429" y2="820.4429"/><polygon fill="#181818" points="1258.6572,810.4429,1262.6572,820.4429,1266.6572,810.4429,1262.6572,814.4429" style="stroke:#181818;stroke-width:1.0;"/><line style="stroke:#181818;stroke-width:1.0;" x1="1262.6572" x2="1262.6572" y1="854.4116" y2="874.4116"/><polygon fill="#181818" points="1258.6572,864.4116,1262.6572,874.4116,1266.6572,864.4116,1262.6572,868.4116" style="stroke:#181818;stroke-width:1.0;"/><line style="stroke:#181818;stroke-width:1.0;" x1="1262.6572" x2="1262.6572" y1="908.3804" y2="928.3804"/><polygon fill="#181818" points="1258.6572,918.3804,1262.6572,928.3804,1266.6572,918.3804,1262.6572,922.3804" style="stroke:#181818;stroke-width:1.0;"/><line style="stroke:#181818;stroke-width:1.0;" x1="1262.6572" x2="1262.6572" y1="962.3491" y2="982.3491"/><polygon fill="#181818" points="1258.6572,972.3491,1262.6572,982.3491,1266.6572,972.3491,1262.6572,976.3491" style="stroke:#181818;stroke-width:1.0;"/><line style="stroke:#181818;stroke-width:1.0;" x1="358.6377" x2="358.6377" y1="155.0967" y2="160.0967"/><line style="stroke:#181818;stroke-width:1.0;" x1="358.6377" x2="670.7051" y1="160.0967" y2="160.0967"/><line style="stroke:#181818;stroke-width:1.0;" x1="670.7051" x2="670.7051" y1="160.0967" y2="175.0967"/><polygon fill="#181818" points="666.7051,165.0967,670.7051,175.0967,674.7051,165.0967,670.7051,169.0967" style="stroke:#181818;stroke-width:1.0;"/><line style="stroke:#181818;stroke-width:1.0;" x1="1262.6572" x2="1262.6572" y1="351.0342" y2="356.0342"/><line style="stroke:#181818;stroke-width:1.0;" x1="1262.6572" x2="670.7051" y1="356.0342" y2="356.0342"/><line style="stroke:#181818;stroke-width:1.0;" x1="670.7051" x2="670.7051" y1="356.0342" y2="371.0342"/><polygon fill="#181818" points="666.7051,361.0342,670.7051,371.0342,674.7051,361.0342,670.7051,365.0342" style="stroke:#181818;stroke-width:1.0;"/><line style="stroke:#181818;stroke-width:1.0;" x1="670.7051" x2="670.7051" y1="209.0654" y2="214.0654"/><line style="stroke:#181818;stroke-width:1.0;" x1="670.7051" x2="1262.6572" y1="214.0654" y2="214.0654"/><line style="stroke:#181818;stroke-width:1.0;" x1="1262.6572" x2="1262.6572" y1="214.0654" y2="229.0654"/><polygon fill="#181818" points="1258.6572,219.0654,1262.6572,229.0654,1266.6572,219.0654,1262.6572,223.0654" style="stroke:#181818;stroke-width:1.0;"/><text fill="#000000" font-family="sans-serif" font-size="18" lengthAdjust="spacing" textLength="49.9658" x="214.8115" y="66.75">klient</text><text fill="#000000" font-family="sans-serif" font-size="18" lengthAdjust="spacing" textLength="92.3203" x="626.4058" y="66.75">pracownik</text><text fill="#000000" font-family="sans-serif" font-size="18" lengthAdjust="spacing" textLength="65.0742" x="1146.0381" y="66.75">system</text><!--SRC=[TPB1ZjCm48RlVefHJwt44oG7dW2eXD1AtAQ9qxX9F9OzLkGg9oJ4Cw1z3AxSQD-BSUFT0hkS4jk_l_-V6RFXKSFc8GtH6MsDXW6zrHmtIYt30iCekwmMju3psD1ipQ2Mi418WVLq4wd0w5br8o4RUmHBh67K7LUmVxe3Kmm63kdo3Suuqf5cj0dcWZ5QLNjFryS30a7acVpvpp2roWbKzP0Eltvu8DUS36pUqvoAOfCLOL5UEutyz17zzN4sMahCi8xy54VqPtpcEIz1sjMhbKHD3qxxG1R7l7W3xle5sPhcd8yC36GP1nRZfgzLzHbPyBu0IAwY91EwwM3xOLsY55nKWdsx0-wrXQrWTagFGSDMxkwaX-IKjgtfraggZzBlkP1pSkHO8jQbFfXx8yFRxYbBfPshhAZ4oOGLdYTI7F_2jXJuyjrPQNnZOD9CRRfNh4__6htB2hmhy9c0_t7xzCeegpqTFAuDowHKvq45-SrxyZQCZT9gJfCu19hraQ37V2vsvK5YVH_kZUxeFeaytbixNtkHBnE1QOMOEZF4q-Lha-tYzMVYuVPmyJS0]--></g></svg>