<svg xmlns="http://www.w3.org/2000/svg" xmlns:xlink="http://www.w3.org/1999/xlink" contentStyleType="text/css" height="972px" preserveAspectRatio="none" style="width:751px;height:972px;background:#FFFFFF;" version="1.1" viewBox="0 0 751 972" width="751px" zoomAndPan="magnify"><defs/><g><rect fill="none" height="20.9531" style="stroke:none;stroke-width:1;" width="718.5972" x="15" y="12.7451"/><rect fill="#F1F1F1" height="33.9688" rx="12.5" ry="12.5" style="stroke:#181818;stroke-width:0.5;" width="155.8555" x="91.8633" y="181.7998"/><text fill="#000000" font-family="sans-serif" font-size="12" lengthAdjust="spacing" textLength="135.8555" x="101.8633" y="202.9385">Wy&#347;wietl list&#281; z salami</text><rect fill="#F1F1F1" height="33.9688" rx="12.5" ry="12.5" style="stroke:#181818;stroke-width:0.5;" width="297.582" x="21" y="289.7373"/><text fill="#000000" font-family="sans-serif" font-size="12" lengthAdjust="spacing" textLength="277.582" x="31" y="310.876">Wy&#347;wietlenie opcji pasuj&#261;cej do wyszukiwania</text><rect fill="#F1F1F1" height="33.9688" rx="12.5" ry="12.5" style="stroke:#181818;stroke-width:0.5;" width="176.6445" x="81.4688" y="397.6748"/><text fill="#000000" font-family="sans-serif" font-size="12" lengthAdjust="spacing" textLength="156.6445" x="91.4688" y="418.8135">Wy&#347;wietl informacje o sali</text><polygon fill="#F1F1F1" points="111.0957,451.6436,228.4863,451.6436,240.4863,463.6436,228.4863,475.6436,111.0957,475.6436,99.0957,463.6436,111.0957,451.6436" style="stroke:#181818;stroke-width:0.5;"/><text fill="#000000" font-family="sans-serif" font-size="11" lengthAdjust="spacing" textLength="17.4238" x="173.791" y="485.854">tak</text><text fill="#000000" font-family="sans-serif" font-size="11" lengthAdjust="spacing" textLength="117.3906" x="111.0957" y="467.4517">Istniej&#261; sale otwarte?</text><text fill="#000000" font-family="sans-serif" font-size="11" lengthAdjust="spacing" textLength="16.7954" x="240.4863" y="461.0493">nie</text><rect fill="#F1F1F1" height="33.9688" rx="12.5" ry="12.5" style="stroke:#181818;stroke-width:0.5;" width="222.4297" x="58.5762" y="507.354"/><text fill="#000000" font-family="sans-serif" font-size="12" lengthAdjust="spacing" textLength="202.4297" x="68.5762" y="528.4927">Wy&#347;wietlenie listy dost&#281;pnych sal</text><rect fill="#F1F1F1" height="33.9688" rx="12.5" ry="12.5" style="stroke:#181818;stroke-width:0.5;" width="221.0938" x="59.2441" y="669.2603"/><text fill="#000000" font-family="sans-serif" font-size="12" lengthAdjust="spacing" textLength="201.0938" x="69.2441" y="690.3989">Wy&#347;wietlenie okna potwierdzenia</text><rect fill="#F1F1F1" height="33.9688" rx="12.5" ry="12.5" style="stroke:#181818;stroke-width:0.5;" width="137.9375" x="100.8223" y="771.6313"/><text fill="#000000" font-family="sans-serif" font-size="12" lengthAdjust="spacing" textLength="117.9375" x="110.8223" y="792.77">Zmiana statusu sali</text><rect fill="#F1F1F1" height="33.9688" rx="12.5" ry="12.5" style="stroke:#181818;stroke-width:0.5;" width="256.9648" x="41.3086" y="840.6001"/><text fill="#000000" font-family="sans-serif" font-size="12" lengthAdjust="spacing" textLength="236.9648" x="51.3086" y="861.7388">Wygenerowanie potwierdzenia operacji</text><ellipse cx="169.791" cy="949.5688" fill="none" rx="11" ry="11" style="stroke:#222222;stroke-width:1;"/><ellipse cx="169.791" cy="949.5688" fill="#222222" rx="6" ry="6" style="stroke:#222222;stroke-width:1;"/><line style="stroke:#000000;stroke-width:1.5;" x1="15" x2="15" y1="12.7451" y2="960.5688"/><path d="M327.582,38.6982 L327.582,63.8311 L535.9141,63.8311 L535.9141,48.6982 L525.9141,38.6982 L327.582,38.6982 " fill="#FEFFDD" style="stroke:#181818;stroke-width:0.5;"/><path d="M525.9141,38.6982 L525.9141,48.6982 L535.9141,48.6982 L525.9141,38.6982 " fill="#FEFFDD" style="stroke:#181818;stroke-width:0.5;"/><text fill="#000000" font-family="sans-serif" font-size="13" lengthAdjust="spacing" textLength="187.332" x="333.582" y="55.7651">Sala musi istnie&#263; w systemie</text><ellipse cx="565.9141" cy="51.2646" fill="#222222" rx="10" ry="10" style="stroke:#222222;stroke-width:1;"/><rect fill="#F1F1F1" height="33.9688" rx="12.5" ry="12.5" style="stroke:#181818;stroke-width:0.5;" width="323.6445" x="404.0918" y="83.8311"/><text fill="#000000" font-family="sans-serif" font-size="12" lengthAdjust="spacing" textLength="303.6445" x="414.0918" y="104.9697">Menadzer wybiera opcj&#281; Wy&#347;wietl sale treningowe</text><rect fill="#F1F1F1" height="33.9688" rx="12.5" ry="12.5" style="stroke:#181818;stroke-width:0.5;" width="251.7969" x="440.0156" y="235.7686"/><text fill="#000000" font-family="sans-serif" font-size="12" lengthAdjust="spacing" textLength="231.7969" x="450.0156" y="256.9072">Wpisanie numeru sali do wyszukiwarki</text><rect fill="#F1F1F1" height="33.9688" rx="12.5" ry="12.5" style="stroke:#181818;stroke-width:0.5;" width="101.2813" x="515.2734" y="343.7061"/><text fill="#000000" font-family="sans-serif" font-size="12" lengthAdjust="spacing" textLength="81.2813" x="525.2734" y="364.8447">Wybranie sali</text><polygon fill="#F1F1F1" points="565.9141,137.7998,577.9141,149.7998,565.9141,161.7998,553.9141,149.7998,565.9141,137.7998" style="stroke:#181818;stroke-width:0.5;"/><rect fill="#F1F1F1" height="33.9688" rx="12.5" ry="12.5" style="stroke:#181818;stroke-width:0.5;" width="164.334" x="483.7471" y="561.3228"/><text fill="#000000" font-family="sans-serif" font-size="12" lengthAdjust="spacing" textLength="144.334" x="493.7471" y="582.4614">Wybranie dost&#281;pnej sali</text><rect fill="#F1F1F1" height="33.9688" rx="12.5" ry="12.5" style="stroke:#181818;stroke-width:0.5;" width="200.709" x="465.5596" y="615.2915"/><text fill="#000000" font-family="sans-serif" font-size="12" lengthAdjust="spacing" textLength="180.709" x="475.5596" y="636.4302">Wybranie opcji "Zamknij sal&#281;"</text><polygon fill="#F1F1F1" points="502.2209,723.229,629.6072,723.229,641.6072,735.229,629.6072,747.229,502.2209,747.229,490.2209,735.229,502.2209,723.229" style="stroke:#181818;stroke-width:0.5;"/><text fill="#000000" font-family="sans-serif" font-size="11" lengthAdjust="spacing" textLength="17.4238" x="569.9141" y="757.4395">tak</text><text fill="#000000" font-family="sans-serif" font-size="11" lengthAdjust="spacing" textLength="127.3862" x="502.2209" y="739.0371">Potwierdzenie wyboru?</text><text fill="#000000" font-family="sans-serif" font-size="11" lengthAdjust="spacing" textLength="16.7954" x="641.6072" y="732.6348">nie</text><polygon fill="#F1F1F1" points="565.9141,894.5688,577.9141,906.5688,565.9141,918.5688,553.9141,906.5688,565.9141,894.5688" style="stroke:#181818;stroke-width:0.5;"/><line style="stroke:#000000;stroke-width:1.5;" x1="322.582" x2="322.582" y1="12.7451" y2="960.5688"/><line style="stroke:#000000;stroke-width:1.5;" x1="731.7363" x2="731.7363" y1="12.7451" y2="960.5688"/><line style="stroke:#181818;stroke-width:1;" x1="169.791" x2="169.791" y1="431.6436" y2="451.6436"/><polygon fill="#181818" points="165.791,441.6436,169.791,451.6436,173.791,441.6436,169.791,445.6436" style="stroke:#181818;stroke-width:1;"/><line style="stroke:#181818;stroke-width:1;" x1="169.791" x2="169.791" y1="475.6436" y2="507.354"/><polygon fill="#181818" points="165.791,497.354,169.791,507.354,173.791,497.354,169.791,501.354" style="stroke:#181818;stroke-width:1;"/><line style="stroke:#181818;stroke-width:1;" x1="169.791" x2="169.791" y1="805.6001" y2="840.6001"/><polygon fill="#181818" points="165.791,830.6001,169.791,840.6001,173.791,830.6001,169.791,834.6001" style="stroke:#181818;stroke-width:1;"/><line style="stroke:#181818;stroke-width:1;" x1="565.9141" x2="565.9141" y1="61.2646" y2="83.8311"/><polygon fill="#181818" points="561.9141,73.8311,565.9141,83.8311,569.9141,73.8311,565.9141,77.8311" style="stroke:#181818;stroke-width:1;"/><line style="stroke:#181818;stroke-width:1;" x1="565.9141" x2="565.9141" y1="117.7998" y2="137.7998"/><polygon fill="#181818" points="561.9141,127.7998,565.9141,137.7998,569.9141,127.7998,565.9141,131.7998" style="stroke:#181818;stroke-width:1;"/><line style="stroke:#181818;stroke-width:1;" x1="565.9141" x2="565.9141" y1="595.2915" y2="615.2915"/><polygon fill="#181818" points="561.9141,605.2915,565.9141,615.2915,569.9141,605.2915,565.9141,609.2915" style="stroke:#181818;stroke-width:1;"/><line style="stroke:#181818;stroke-width:1;" x1="641.6072" x2="704.3965" y1="735.229" y2="735.229"/><polygon fill="#181818" points="700.3965,813.1001,704.3965,823.1001,708.3965,813.1001,704.3965,817.1001" style="stroke:#181818;stroke-width:1;"/><line style="stroke:#181818;stroke-width:1;" x1="704.3965" x2="704.3965" y1="735.229" y2="906.5688"/><line style="stroke:#181818;stroke-width:1;" x1="704.3965" x2="577.9141" y1="906.5688" y2="906.5688"/><polygon fill="#181818" points="587.9141,902.5688,577.9141,906.5688,587.9141,910.5688,583.9141,906.5688" style="stroke:#181818;stroke-width:1;"/><line style="stroke:#181818;stroke-width:1;" x1="169.791" x2="169.791" y1="215.7686" y2="220.7686"/><line style="stroke:#181818;stroke-width:1;" x1="169.791" x2="565.9141" y1="220.7686" y2="220.7686"/><line style="stroke:#181818;stroke-width:1;" x1="565.9141" x2="565.9141" y1="220.7686" y2="235.7686"/><polygon fill="#181818" points="561.9141,225.7686,565.9141,235.7686,569.9141,225.7686,565.9141,229.7686" style="stroke:#181818;stroke-width:1;"/><line style="stroke:#181818;stroke-width:1;" x1="565.9141" x2="565.9141" y1="269.7373" y2="274.7373"/><line style="stroke:#181818;stroke-width:1;" x1="565.9141" x2="169.791" y1="274.7373" y2="274.7373"/><line style="stroke:#181818;stroke-width:1;" x1="169.791" x2="169.791" y1="274.7373" y2="289.7373"/><polygon fill="#181818" points="165.791,279.7373,169.791,289.7373,173.791,279.7373,169.791,283.7373" style="stroke:#181818;stroke-width:1;"/><line style="stroke:#181818;stroke-width:1;" x1="169.791" x2="169.791" y1="323.7061" y2="328.7061"/><line style="stroke:#181818;stroke-width:1;" x1="169.791" x2="565.9141" y1="328.7061" y2="328.7061"/><line style="stroke:#181818;stroke-width:1;" x1="565.9141" x2="565.9141" y1="328.7061" y2="343.7061"/><polygon fill="#181818" points="561.9141,333.7061,565.9141,343.7061,569.9141,333.7061,565.9141,337.7061" style="stroke:#181818;stroke-width:1;"/><line style="stroke:#181818;stroke-width:1;" x1="565.9141" x2="565.9141" y1="377.6748" y2="382.6748"/><line style="stroke:#181818;stroke-width:1;" x1="565.9141" x2="169.791" y1="382.6748" y2="382.6748"/><line style="stroke:#181818;stroke-width:1;" x1="169.791" x2="169.791" y1="382.6748" y2="397.6748"/><polygon fill="#181818" points="165.791,387.6748,169.791,397.6748,173.791,387.6748,169.791,391.6748" style="stroke:#181818;stroke-width:1;"/><line style="stroke:#181818;stroke-width:1;" x1="565.9141" x2="565.9141" y1="161.7998" y2="166.7998"/><line style="stroke:#181818;stroke-width:1;" x1="565.9141" x2="169.791" y1="166.7998" y2="166.7998"/><line style="stroke:#181818;stroke-width:1;" x1="169.791" x2="169.791" y1="166.7998" y2="181.7998"/><polygon fill="#181818" points="165.791,171.7998,169.791,181.7998,173.791,171.7998,169.791,175.7998" style="stroke:#181818;stroke-width:1;"/><line style="stroke:#181818;stroke-width:1;" x1="99.0957" x2="330.582" y1="463.6436" y2="463.6436"/><polygon fill="#181818" points="326.582,316.7217,330.582,306.7217,334.582,316.7217,330.582,312.7217" style="stroke:#181818;stroke-width:1;"/><line style="stroke:#181818;stroke-width:1;" x1="330.582" x2="330.582" y1="149.7998" y2="463.6436"/><line style="stroke:#181818;stroke-width:1;" x1="330.582" x2="553.9141" y1="149.7998" y2="149.7998"/><polygon fill="#181818" points="563.9141,145.7998,553.9141,149.7998,563.9141,153.7998,559.9141,149.7998" style="stroke:#181818;stroke-width:1;"/><line style="stroke:#181818;stroke-width:1;" x1="169.791" x2="169.791" y1="541.3228" y2="546.3228"/><line style="stroke:#181818;stroke-width:1;" x1="169.791" x2="565.9141" y1="546.3228" y2="546.3228"/><line style="stroke:#181818;stroke-width:1;" x1="565.9141" x2="565.9141" y1="546.3228" y2="561.3228"/><polygon fill="#181818" points="561.9141,551.3228,565.9141,561.3228,569.9141,551.3228,565.9141,555.3228" style="stroke:#181818;stroke-width:1;"/><line style="stroke:#181818;stroke-width:1;" x1="565.9141" x2="565.9141" y1="649.2603" y2="654.2603"/><line style="stroke:#181818;stroke-width:1;" x1="565.9141" x2="169.791" y1="654.2603" y2="654.2603"/><line style="stroke:#181818;stroke-width:1;" x1="169.791" x2="169.791" y1="654.2603" y2="669.2603"/><polygon fill="#181818" points="165.791,659.2603,169.791,669.2603,173.791,659.2603,169.791,663.2603" style="stroke:#181818;stroke-width:1;"/><line style="stroke:#181818;stroke-width:1;" x1="565.9141" x2="565.9141" y1="747.229" y2="759.4302"/><line style="stroke:#181818;stroke-width:1;" x1="565.9141" x2="169.791" y1="759.4302" y2="759.4302"/><line style="stroke:#181818;stroke-width:1;" x1="169.791" x2="169.791" y1="759.4302" y2="771.6313"/><polygon fill="#181818" points="165.791,761.6313,169.791,771.6313,173.791,761.6313,169.791,765.6313" style="stroke:#181818;stroke-width:1;"/><line style="stroke:#181818;stroke-width:1;" x1="169.791" x2="169.791" y1="874.5688" y2="882.3677"/><line style="stroke:#181818;stroke-width:1;" x1="169.791" x2="565.9141" y1="882.3677" y2="882.3677"/><line style="stroke:#181818;stroke-width:1;" x1="565.9141" x2="565.9141" y1="882.3677" y2="894.5688"/><polygon fill="#181818" points="561.9141,884.5688,565.9141,894.5688,569.9141,884.5688,565.9141,888.5688" style="stroke:#181818;stroke-width:1;"/><line style="stroke:#181818;stroke-width:1;" x1="169.791" x2="169.791" y1="703.229" y2="708.229"/><line style="stroke:#181818;stroke-width:1;" x1="169.791" x2="565.9141" y1="708.229" y2="708.229"/><line style="stroke:#181818;stroke-width:1;" x1="565.9141" x2="565.9141" y1="708.229" y2="723.229"/><polygon fill="#181818" points="561.9141,713.229,565.9141,723.229,569.9141,713.229,565.9141,717.229" style="stroke:#181818;stroke-width:1;"/><line style="stroke:#181818;stroke-width:1;" x1="565.9141" x2="565.9141" y1="918.5688" y2="923.5688"/><line style="stroke:#181818;stroke-width:1;" x1="565.9141" x2="169.791" y1="923.5688" y2="923.5688"/><line style="stroke:#181818;stroke-width:1;" x1="169.791" x2="169.791" y1="923.5688" y2="938.5688"/><polygon fill="#181818" points="165.791,928.5688,169.791,938.5688,173.791,928.5688,169.791,932.5688" style="stroke:#181818;stroke-width:1;"/><text fill="#000000" font-family="sans-serif" font-size="18" lengthAdjust="spacing" textLength="65.0742" x="136.2539" y="29.4531">system</text><text fill="#000000" font-family="sans-serif" font-size="18" lengthAdjust="spacing" textLength="86.4668" x="483.9258" y="29.4531">kierownik</text><!--SRC=[XP8zRiCm38LtdOB8v5mX6JftA52WGu5iZ4Cdj6p9q0yC1rwBdY7eTTnxbRARs05Ir9CCaUzzV6BlUz_vGBNgTQ-Pd6qDQwLyG1T05PN5mEO8nWQ2YegmWJUi4Ehe6TW7mpHyGWkJ29FQl931mvaSjDrUz11iavV31Twxxw-MALJWiI88Zem8svQsIe5yZXh2C1xJr_l-TjxClPLuYjWvYM3DsxbUB-iRzYXeO69DBgPYXeCL97-EcbjqUjdwq8fIVs9dQD37SlZ8gRmJCOn_-NTxD_edu_-CW4rXNOrvANwBZYaGQ4yiSMNFOzP2CSLdWmmHw6ajZm2PtApJ4q4MKA_LWq5IRftGf_GQq-Md93FvNCbdwckPp3lZpDTJAAiTrjhmM39SLhzQld_aRhL1Q8HP5a9sunRSrPeBo5uNrvIMnxeeuuKJcSLODuDTpIYYigSX-dZFUIIJ5dc4lNCLTDb8ePzAgV8qPZVzcGCNuya7soZr0m00]--></g></svg>