<svg xmlns="http://www.w3.org/2000/svg" xmlns:xlink="http://www.w3.org/1999/xlink" contentStyleType="text/css" height="651px" preserveAspectRatio="none" style="width:957px;height:651px;background:#FFFFFF;" version="1.1" viewBox="0 0 957 651" width="957px" zoomAndPan="magnify"><title>Zapis klienta na zaj&#281;cia</title><defs/><g><text fill="#000000" font-family="sans-serif" font-size="14" font-weight="bold" lengthAdjust="spacing" textLength="185.7324" x="384.3242" y="32.9951">Zapis klienta na zaj&#281;cia</text><rect fill="none" height="20.9531" style="stroke:none;stroke-width:1.0;" width="924.3809" x="15" y="50.042"/><rect fill="#F1F1F1" height="33.9688" rx="12.5" ry="12.5" style="stroke:#181818;stroke-width:0.5;" width="311.9961" x="208.2944" y="240.2295"/><text fill="#000000" font-family="sans-serif" font-size="12" lengthAdjust="spacing" textLength="291.9961" x="218.2944" y="261.3682">Wy&#347;wietl kalendarz z zaploanowanymi zaj&#281;ciami</text><polygon fill="#F1F1F1" points="302.592,453.6357,425.9929,453.6357,437.9929,465.6357,425.9929,477.6357,302.592,477.6357,290.592,465.6357,302.592,453.6357" style="stroke:#181818;stroke-width:0.5;"/><text fill="#000000" font-family="sans-serif" font-size="11" lengthAdjust="spacing" textLength="17.4238" x="368.2925" y="487.8462">tak</text><text fill="#000000" font-family="sans-serif" font-size="11" lengthAdjust="spacing" textLength="123.4009" x="302.592" y="469.4438">Czy s&#261; wolne miejsca?</text><text fill="#000000" font-family="sans-serif" font-size="11" lengthAdjust="spacing" textLength="16.7954" x="437.9929" y="463.0415">nie</text><rect fill="#F1F1F1" height="33.9688" rx="12.5" ry="12.5" style="stroke:#181818;stroke-width:0.5;" width="167.7969" x="280.394" y="509.3462"/><text fill="#000000" font-family="sans-serif" font-size="12" lengthAdjust="spacing" textLength="147.7969" x="290.394" y="530.4849">Zapisz klienta na zaj&#281;cia</text><path d="M20,567.7329 L20,592.8657 L210.8823,592.8657 L210.8823,577.7329 L200.8823,567.7329 L20,567.7329 " fill="#FEFFDD" style="stroke:#181818;stroke-width:0.5;"/><path d="M200.8823,567.7329 L200.8823,577.7329 L210.8823,577.7329 L200.8823,567.7329 " fill="#FEFFDD" style="stroke:#181818;stroke-width:0.5;"/><text fill="#000000" font-family="sans-serif" font-size="13" lengthAdjust="spacing" textLength="169.8823" x="26" y="584.7998">Kleint przypisany do zaj&#281;&#263;</text><rect fill="#F1F1F1" height="33.9688" rx="12.5" ry="12.5" style="stroke:#181818;stroke-width:0.5;" width="266.8203" x="230.8823" y="563.3149"/><text fill="#000000" font-family="sans-serif" font-size="12" lengthAdjust="spacing" textLength="246.8203" x="240.8823" y="584.4536">wy&#347;wietl potwierdzenie zapisu na zaj&#281;cia</text><ellipse cx="364.2925" cy="628.2837" fill="none" rx="11" ry="11" style="stroke:#222222;stroke-width:1.0;"/><ellipse cx="364.2925" cy="628.2837" fill="#222222" rx="6" ry="6" style="stroke:#222222;stroke-width:1.0;"/><line style="stroke:#000000;stroke-width:1.5;" x1="15" x2="15" y1="50.042" y2="639.2837"/><path d="M574.2217,85.9951 L574.2217,111.1279 L791.0342,111.1279 L791.0342,95.9951 L781.0342,85.9951 L574.2217,85.9951 " fill="#FEFFDD" style="stroke:#181818;stroke-width:0.5;"/><path d="M781.0342,85.9951 L781.0342,95.9951 L791.0342,95.9951 L781.0342,85.9951 " fill="#FEFFDD" style="stroke:#181818;stroke-width:0.5;"/><text fill="#000000" font-family="sans-serif" font-size="13" lengthAdjust="spacing" textLength="195.8125" x="580.2217" y="103.062">Klient zalogowany w systemie</text><path d="M539.2905,131.1279 L539.2905,156.2607 L825.9653,156.2607 L825.9653,141.1279 L815.9653,131.1279 L539.2905,131.1279 " fill="#FEFFDD" style="stroke:#181818;stroke-width:0.5;"/><path d="M815.9653,131.1279 L815.9653,141.1279 L825.9653,141.1279 L815.9653,131.1279 " fill="#FEFFDD" style="stroke:#181818;stroke-width:0.5;"/><text fill="#000000" font-family="sans-serif" font-size="13" lengthAdjust="spacing" textLength="265.6748" x="545.2905" y="148.1948">W systemie istniej&#261; zaplanowane zaj&#281;cia</text><ellipse cx="845.9653" cy="121.1279" fill="#222222" rx="10" ry="10" style="stroke:#222222;stroke-width:1.0;"/><rect fill="#F1F1F1" height="33.9688" rx="12.5" ry="12.5" style="stroke:#181818;stroke-width:0.5;" width="175.1094" x="758.4106" y="186.2607"/><text fill="#000000" font-family="sans-serif" font-size="12" lengthAdjust="spacing" textLength="155.1094" x="768.4106" y="207.3994">Wyb&#243;r ekranu z zaj&#281;ciami</text><rect fill="#F1F1F1" height="33.9688" rx="12.5" ry="12.5" style="stroke:#181818;stroke-width:0.5;" width="93.6406" x="799.145" y="338.1982"/><text fill="#000000" font-family="sans-serif" font-size="12" lengthAdjust="spacing" textLength="73.6406" x="809.145" y="359.3369">Wyb&#243;r zaj&#281;&#263;</text><rect fill="#F1F1F1" height="33.9688" rx="12.5" ry="12.5" style="stroke:#181818;stroke-width:0.5;" width="166.373" x="762.7788" y="399.667"/><text fill="#000000" font-family="sans-serif" font-size="12" lengthAdjust="spacing" textLength="146.373" x="772.7788" y="420.8057">Wybierz opcj&#281; zapisz si&#281;</text><polygon fill="#F1F1F1" points="845.9653,294.1982,857.9653,306.1982,845.9653,318.1982,833.9653,306.1982,845.9653,294.1982" style="stroke:#181818;stroke-width:0.5;"/><line style="stroke:#000000;stroke-width:1.5;" x1="524.2905" x2="524.2905" y1="50.042" y2="639.2837"/><line style="stroke:#000000;stroke-width:1.5;" x1="937.52" x2="937.52" y1="50.042" y2="639.2837"/><line style="stroke:#181818;stroke-width:1.0;" x1="364.2925" x2="364.2925" y1="477.6357" y2="509.3462"/><polygon fill="#181818" points="360.2925,499.3462,364.2925,509.3462,368.2925,499.3462,364.2925,503.3462" style="stroke:#181818;stroke-width:1.0;"/><line style="stroke:#181818;stroke-width:1.0;" x1="364.2925" x2="364.2925" y1="543.3149" y2="563.3149"/><polygon fill="#181818" points="360.2925,553.3149,364.2925,563.3149,368.2925,553.3149,364.2925,557.3149" style="stroke:#181818;stroke-width:1.0;"/><line style="stroke:#181818;stroke-width:1.0;" x1="364.2925" x2="364.2925" y1="597.2837" y2="617.2837"/><polygon fill="#181818" points="360.2925,607.2837,364.2925,617.2837,368.2925,607.2837,364.2925,611.2837" style="stroke:#181818;stroke-width:1.0;"/><line style="stroke:#181818;stroke-width:1.0;" x1="845.9653" x2="845.9653" y1="131.1279" y2="186.2607"/><polygon fill="#181818" points="841.9653,176.2607,845.9653,186.2607,849.9653,176.2607,845.9653,180.2607" style="stroke:#181818;stroke-width:1.0;"/><line style="stroke:#181818;stroke-width:1.0;" x1="845.9653" x2="845.9653" y1="372.167" y2="399.667"/><polygon fill="#181818" points="841.9653,389.667,845.9653,399.667,849.9653,389.667,845.9653,393.667" style="stroke:#181818;stroke-width:1.0;"/><line style="stroke:#181818;stroke-width:1.0;" x1="845.9653" x2="845.9653" y1="318.1982" y2="338.1982"/><polygon fill="#181818" points="841.9653,328.1982,845.9653,338.1982,849.9653,328.1982,845.9653,332.1982" style="stroke:#181818;stroke-width:1.0;"/><line style="stroke:#181818;stroke-width:1.0;" x1="845.9653" x2="845.9653" y1="220.2295" y2="225.2295"/><line style="stroke:#181818;stroke-width:1.0;" x1="845.9653" x2="364.2925" y1="225.2295" y2="225.2295"/><line style="stroke:#181818;stroke-width:1.0;" x1="364.2925" x2="364.2925" y1="225.2295" y2="240.2295"/><polygon fill="#181818" points="360.2925,230.2295,364.2925,240.2295,368.2925,230.2295,364.2925,234.2295" style="stroke:#181818;stroke-width:1.0;"/><line style="stroke:#181818;stroke-width:1.0;" x1="437.9929" x2="734.9722" y1="465.6357" y2="465.6357"/><polygon fill="#181818" points="730.9722,392.167,734.9722,382.167,738.9722,392.167,734.9722,388.167" style="stroke:#181818;stroke-width:1.0;"/><line style="stroke:#181818;stroke-width:1.0;" x1="734.9722" x2="734.9722" y1="306.1982" y2="465.6357"/><line style="stroke:#181818;stroke-width:1.0;" x1="734.9722" x2="833.9653" y1="306.1982" y2="306.1982"/><polygon fill="#181818" points="823.9653,302.1982,833.9653,306.1982,823.9653,310.1982,827.9653,306.1982" style="stroke:#181818;stroke-width:1.0;"/><line style="stroke:#181818;stroke-width:1.0;" x1="845.9653" x2="845.9653" y1="433.6357" y2="438.6357"/><line style="stroke:#181818;stroke-width:1.0;" x1="845.9653" x2="364.2925" y1="438.6357" y2="438.6357"/><line style="stroke:#181818;stroke-width:1.0;" x1="364.2925" x2="364.2925" y1="438.6357" y2="453.6357"/><polygon fill="#181818" points="360.2925,443.6357,364.2925,453.6357,368.2925,443.6357,364.2925,447.6357" style="stroke:#181818;stroke-width:1.0;"/><line style="stroke:#181818;stroke-width:1.0;" x1="364.2925" x2="364.2925" y1="274.1982" y2="279.1982"/><line style="stroke:#181818;stroke-width:1.0;" x1="364.2925" x2="845.9653" y1="279.1982" y2="279.1982"/><line style="stroke:#181818;stroke-width:1.0;" x1="845.9653" x2="845.9653" y1="279.1982" y2="294.1982"/><polygon fill="#181818" points="841.9653,284.1982,845.9653,294.1982,849.9653,284.1982,845.9653,288.1982" style="stroke:#181818;stroke-width:1.0;"/><text fill="#000000" font-family="sans-serif" font-size="18" lengthAdjust="spacing" textLength="65.0742" x="239.969" y="66.75">system</text><text fill="#000000" font-family="sans-serif" font-size="18" lengthAdjust="spacing" textLength="49.9658" x="708.7832" y="66.75">klient</text><!--SRC=[RL4nRiCm3Dpr2YAJ_GLdoD2n3mYGZKsObBOi2H83muBNecy8-em-eUw_IjkfWG3P1F7kUCSJ5akmEM3W18rbSeBW43BMu-t8k3536Y3rIQWrGpFSCIO9HZ5dwr7ONS1v8R1qbWfUPu0AM7_n7ReUkZkVwIbXluw1apYcUlnGUh3e9ZwjNaorxzz-lYDG4z5T8Q-JbhUJpmdm-zKnYOK6BRaJnZp3WkwTrVgM7rdDO285Ge5LVfwFdzlvWqabV3ZgrwJ3AKFYyRRikpExTzOZ5Y-vXwJUEs_LjUQfqn5tfQQ2GcELKsWe19lIL8T5wid5TMstfWXUz15FcLHWsNzz13-lW5Wh237tIfWgEFd_LDgS3ty0]--></g></svg>