<svg xmlns="http://www.w3.org/2000/svg" xmlns:xlink="http://www.w3.org/1999/xlink" contentStyleType="text/css" data-diagram-type="SEQUENCE" height="532px" preserveAspectRatio="none" style="width:697px;height:532px;background:#FFFFFF;" version="1.1" viewBox="0 0 697 532" width="697px" zoomAndPan="magnify"><defs/><g><rect fill="#FFFFFF" fill-opacity="0.00000" height="190.6016" style="stroke:#000000;stroke-width:1.5;" width="680.6992" x="10" y="243.9609"/><g><title>Trener</title><rect fill="#FFFFFF" fill-opacity="0.00000" height="370.2656" width="8" x="42.0815" y="81.2969"/><line style="stroke:#181818;stroke-width:0.5;stroke-dasharray:5.0,5.0;" x1="46" x2="46" y1="81.2969" y2="451.5625"/></g><g><title>GUI</title><rect fill="#FFFFFF" fill-opacity="0.00000" height="370.2656" width="8" x="303.4648" y="81.2969"/><line style="stroke:#181818;stroke-width:0.5;stroke-dasharray:5.0,5.0;" x1="306.8525" x2="306.8525" y1="81.2969" y2="451.5625"/></g><g><title>SystemZajec</title><rect fill="#FFFFFF" fill-opacity="0.00000" height="370.2656" width="8" x="497.8359" y="81.2969"/><line style="stroke:#181818;stroke-width:0.5;stroke-dasharray:5.0,5.0;" x1="501.5479" x2="501.5479" y1="81.2969" y2="451.5625"/></g><text fill="#000000" font-family="sans-serif" font-size="14" lengthAdjust="spacing" textLength="46.1631" x="20" y="77.9951">Trener</text><ellipse cx="46.0815" cy="13.5" fill="#E2E2F0" rx="8" ry="8" style="stroke:#181818;stroke-width:0.5;"/><path d="M46.0815,21.5 L46.0815,48.5 M33.0815,29.5 L59.0815,29.5 M46.0815,48.5 L33.0815,63.5 M46.0815,48.5 L59.0815,63.5 " fill="#FFFFFF" fill-opacity="0.00000" style="stroke:#181818;stroke-width:0.5;"/><text fill="#000000" font-family="sans-serif" font-size="14" lengthAdjust="spacing" textLength="46.1631" x="20" y="463.5576">Trener</text><ellipse cx="46.0815" cy="475.3594" fill="#E2E2F0" rx="8" ry="8" style="stroke:#181818;stroke-width:0.5;"/><path d="M46.0815,483.3594 L46.0815,510.3594 M33.0815,491.3594 L59.0815,491.3594 M46.0815,510.3594 L33.0815,525.3594 M46.0815,510.3594 L59.0815,525.3594 " fill="#FFFFFF" fill-opacity="0.00000" style="stroke:#181818;stroke-width:0.5;"/><rect fill="#E2E2F0" height="30.2969" rx="2.5" ry="2.5" style="stroke:#181818;stroke-width:0.5;" width="39.2246" x="287.8525" y="50"/><text fill="#000000" font-family="sans-serif" font-size="14" lengthAdjust="spacing" textLength="25.2246" x="294.8525" y="69.9951">GUI</text><rect fill="#E2E2F0" height="30.2969" rx="2.5" ry="2.5" style="stroke:#181818;stroke-width:0.5;" width="39.2246" x="287.8525" y="450.5625"/><text fill="#000000" font-family="sans-serif" font-size="14" lengthAdjust="spacing" textLength="25.2246" x="294.8525" y="470.5576">GUI</text><rect fill="#E2E2F0" height="30.2969" rx="2.5" ry="2.5" style="stroke:#181818;stroke-width:0.5;" width="104.5762" x="449.5479" y="50"/><text fill="#000000" font-family="sans-serif" font-size="14" lengthAdjust="spacing" textLength="90.5762" x="456.5479" y="69.9951">SystemZajec</text><rect fill="#E2E2F0" height="30.2969" rx="2.5" ry="2.5" style="stroke:#181818;stroke-width:0.5;" width="104.5762" x="449.5479" y="450.5625"/><text fill="#000000" font-family="sans-serif" font-size="14" lengthAdjust="spacing" textLength="90.5762" x="456.5479" y="470.5576">SystemZajec</text><polygon fill="#181818" points="295.4648,108.4297,305.4648,112.4297,295.4648,116.4297,299.4648,112.4297" style="stroke:#181818;stroke-width:1;"/><line style="stroke:#181818;stroke-width:1;" x1="46.0815" x2="301.4648" y1="112.4297" y2="112.4297"/><text fill="#000000" font-family="sans-serif" font-size="13" lengthAdjust="spacing" textLength="198.98" x="53.0815" y="107.3638">wybiera zarz&#261;dzanie zaj&#281;ciami</text><polygon fill="#181818" points="489.8359,137.5625,499.8359,141.5625,489.8359,145.5625,493.8359,141.5625" style="stroke:#181818;stroke-width:1;"/><line style="stroke:#181818;stroke-width:1;" x1="307.4648" x2="495.8359" y1="141.5625" y2="141.5625"/><text fill="#000000" font-family="sans-serif" font-size="13" lengthAdjust="spacing" textLength="117.1396" x="314.4648" y="136.4966">pobierz list&#281; zaj&#281;&#263;</text><polygon fill="#181818" points="318.4648,166.6953,308.4648,170.6953,318.4648,174.6953,314.4648,170.6953" style="stroke:#181818;stroke-width:1;"/><line style="stroke:#181818;stroke-width:1;stroke-dasharray:2.0,2.0;" x1="312.4648" x2="500.8359" y1="170.6953" y2="170.6953"/><text fill="#000000" font-family="sans-serif" font-size="13" lengthAdjust="spacing" textLength="64.7397" x="324.4648" y="165.6294">lista zaj&#281;&#263;</text><polygon fill="#181818" points="295.4648,195.8281,305.4648,199.8281,295.4648,203.8281,299.4648,199.8281" style="stroke:#181818;stroke-width:1;"/><line style="stroke:#181818;stroke-width:1;" x1="46.0815" x2="301.4648" y1="199.8281" y2="199.8281"/><text fill="#000000" font-family="sans-serif" font-size="13" lengthAdjust="spacing" textLength="199.6528" x="53.0815" y="194.7622">wybiera zaj&#281;cia do anulowania</text><polygon fill="#181818" points="489.8359,224.9609,499.8359,228.9609,489.8359,232.9609,493.8359,228.9609" style="stroke:#181818;stroke-width:1;"/><line style="stroke:#181818;stroke-width:1;" x1="307.4648" x2="495.8359" y1="228.9609" y2="228.9609"/><text fill="#000000" font-family="sans-serif" font-size="13" lengthAdjust="spacing" textLength="167.0957" x="314.4648" y="223.895">&#380;&#261;danie anulowania zaj&#281;&#263;</text><path d="M10,243.9609 L74.4429,243.9609 L74.4429,251.0938 L64.4429,261.0938 L10,261.0938 L10,243.9609 " fill="#EEEEEE" style="stroke:#000000;stroke-width:1.5;"/><rect fill="#FFFFFF" fill-opacity="0.00000" height="190.6016" style="stroke:#000000;stroke-width:1.5;" width="680.6992" x="10" y="243.9609"/><text fill="#000000" font-family="sans-serif" font-size="13" font-weight="bold" lengthAdjust="spacing" textLength="19.4429" x="25" y="257.0278">alt</text><text fill="#000000" font-family="sans-serif" font-size="11" font-weight="bold" lengthAdjust="spacing" textLength="159.6772" x="89.4429" y="256.1714">[zaj&#281;cia mo&#380;na anulowa&#263;]</text><line style="stroke:#181818;stroke-width:1;" x1="501.8359" x2="543.8359" y1="282.2266" y2="282.2266"/><line style="stroke:#181818;stroke-width:1;" x1="543.8359" x2="543.8359" y1="282.2266" y2="295.2266"/><line style="stroke:#181818;stroke-width:1;" x1="502.8359" x2="543.8359" y1="295.2266" y2="295.2266"/><polygon fill="#181818" points="512.8359,291.2266,502.8359,295.2266,512.8359,299.2266,508.8359,295.2266" style="stroke:#181818;stroke-width:1;"/><text fill="#000000" font-family="sans-serif" font-size="13" lengthAdjust="spacing" textLength="169.8633" x="508.8359" y="277.1606">usuni&#281;cie zaj&#281;&#263; z systemu</text><polygon fill="#181818" points="318.4648,320.3594,308.4648,324.3594,318.4648,328.3594,314.4648,324.3594" style="stroke:#181818;stroke-width:1;"/><line style="stroke:#181818;stroke-width:1;stroke-dasharray:2.0,2.0;" x1="312.4648" x2="500.8359" y1="324.3594" y2="324.3594"/><text fill="#000000" font-family="sans-serif" font-size="13" lengthAdjust="spacing" textLength="170.3711" x="324.4648" y="319.2935">potwierdzenie anulowania</text><polygon fill="#181818" points="57.0815,349.4922,47.0815,353.4922,57.0815,357.4922,53.0815,353.4922" style="stroke:#181818;stroke-width:1;"/><line style="stroke:#181818;stroke-width:1;stroke-dasharray:2.0,2.0;" x1="51.0815" x2="306.4648" y1="353.4922" y2="353.4922"/><text fill="#000000" font-family="sans-serif" font-size="13" lengthAdjust="spacing" textLength="237.3833" x="63.0815" y="348.4263">wy&#347;wietlenie komunikatu o sukcesie</text><line style="stroke:#000000;stroke-width:1;stroke-dasharray:2.0,2.0;" x1="10" x2="690.6992" y1="362.4922" y2="362.4922"/><text fill="#000000" font-family="sans-serif" font-size="11" font-weight="bold" lengthAdjust="spacing" textLength="228.5186" x="15" y="372.7026">[zaj&#281;cia nie mog&#261; zosta&#263; anulowane]</text><polygon fill="#181818" points="318.4648,393.4297,308.4648,397.4297,318.4648,401.4297,314.4648,397.4297" style="stroke:#181818;stroke-width:1;"/><line style="stroke:#181818;stroke-width:1;stroke-dasharray:2.0,2.0;" x1="312.4648" x2="500.8359" y1="397.4297" y2="397.4297"/><text fill="#000000" font-family="sans-serif" font-size="13" lengthAdjust="spacing" textLength="131.9297" x="324.4648" y="392.3638">informacja o b&#322;&#281;dzie</text><polygon fill="#181818" points="57.0815,422.5625,47.0815,426.5625,57.0815,430.5625,53.0815,426.5625" style="stroke:#181818;stroke-width:1;"/><line style="stroke:#181818;stroke-width:1;stroke-dasharray:2.0,2.0;" x1="51.0815" x2="306.4648" y1="426.5625" y2="426.5625"/><text fill="#000000" font-family="sans-serif" font-size="13" lengthAdjust="spacing" textLength="227.9443" x="63.0815" y="421.4966">wy&#347;wietlenie komunikatu o b&#322;&#281;dzie</text><!--SRC=[bP4zJiCm5CTtd-9Te1Vem8gOWONjrNaW9x4T-KDHFLQgE4F4LJewz-8vKPe6w80tox__Lu8oM0SlZWmvqQ4BIgeEJO37rwVD_Vde0-ath4aACVEmUoZO7lhZGP53IEXIFbS9ZIA-r7cG2hKI31Nsnc8FdIsQ1Ato8GypdJ_53GExnRymU4NkXizvK5b04rlRSmtyCtkySCkfv0fUxGMsOJNJThmON3X-1ZwRaZ-yeuz65IqjZf30JqJyBLv6T3RqlA9Aj6qrAQO9JCx3o-BnY-dGJd1ZDISs629OyB6Hv1K9Qltw2w1msdxaCoJBdv8xBH5qlvCoxzPfb3MoyM4yvQ5AYlxRQ1MIgRu1]--></g></svg>