<svg xmlns="http://www.w3.org/2000/svg" xmlns:xlink="http://www.w3.org/1999/xlink" contentStyleType="text/css" data-diagram-type="CLASS" height="300px" preserveAspectRatio="none" style="width:756px;height:300px;background:#FFFFFF;" version="1.1" viewBox="0 0 756 300" width="756px" zoomAndPan="magnify"><defs/><g><!--class TrainingComponent--><g id="elem_TrainingComponent"><rect codeLine="1" fill="#F1F1F1" height="64.2969" id="TrainingComponent" rx="2.5" ry="2.5" style="stroke:#181818;stroke-width:0.5;" width="170.5781" x="390.5" y="23.29"/><ellipse cx="405.5" cy="39.29" fill="#B4A7E5" rx="11" ry="11" style="stroke:#181818;stroke-width:1;"/><path d="M401.4219,35.0556 L401.4219,32.8994 L408.8125,32.8994 L408.8125,35.0556 L406.3438,35.0556 L406.3438,43.1338 L408.8125,43.1338 L408.8125,45.29 L401.4219,45.29 L401.4219,43.1338 L403.8906,43.1338 L403.8906,35.0556 L401.4219,35.0556 Z " fill="#000000"/><text fill="#000000" font-family="sans-serif" font-size="14" font-style="italic" lengthAdjust="spacing" textLength="138.5781" x="419.5" y="44.1367">TrainingComponent</text><line style="stroke:#181818;stroke-width:0.5;" x1="391.5" x2="560.0781" y1="55.29" y2="55.29"/><line style="stroke:#181818;stroke-width:0.5;" x1="391.5" x2="560.0781" y1="63.29" y2="63.29"/><ellipse cx="401.5" cy="76.9384" fill="#84BE84" rx="3" ry="3" style="stroke:#038048;stroke-width:1;"/><text fill="#000000" font-family="sans-serif" font-size="14" lengthAdjust="spacing" textLength="129.7188" x="410.5" y="80.2851">void showDetails()</text></g><!--class Exercise--><g id="elem_Exercise"><rect codeLine="5" fill="#F1F1F1" height="96.8906" id="Exercise" rx="2.5" ry="2.5" style="stroke:#181818;stroke-width:0.5;" width="217.5703" x="7" y="180.18"/><ellipse cx="82.0381" cy="196.18" fill="#ADD1B2" rx="11" ry="11" style="stroke:#181818;stroke-width:1;"/><path d="M85.0068,201.8206 Q84.4287,202.1175 83.7881,202.2581 Q83.1475,202.4144 82.4443,202.4144 Q79.9443,202.4144 78.6162,200.7738 Q77.3037,199.1175 77.3037,195.9925 Q77.3037,192.8675 78.6162,191.2113 Q79.9443,189.555 82.4443,189.555 Q83.1475,189.555 83.7881,189.7113 Q84.4443,189.8675 85.0068,190.1644 L85.0068,192.8831 Q84.3818,192.305 83.7881,192.0394 Q83.1943,191.7581 82.5693,191.7581 Q81.2256,191.7581 80.5381,192.8363 Q79.8506,193.8988 79.8506,195.9925 Q79.8506,198.0863 80.5381,199.1644 Q81.2256,200.2269 82.5693,200.2269 Q83.1943,200.2269 83.7881,199.9613 Q84.3818,199.68 85.0068,199.1019 L85.0068,201.8206 Z " fill="#000000"/><text fill="#000000" font-family="sans-serif" font-size="14" lengthAdjust="spacing" textLength="58.9941" x="102.5381" y="201.0267">Exercise</text><line style="stroke:#181818;stroke-width:0.5;" x1="8" x2="223.5703" y1="212.18" y2="212.18"/><rect fill="transparent" height="6" style="stroke:#C82930;stroke-width:1;" width="6" x="15" y="222.8284"/><text fill="#000000" font-family="sans-serif" font-size="14" lengthAdjust="spacing" textLength="90.6514" x="27" y="229.1751">name: String</text><rect fill="transparent" height="6" style="stroke:#C82930;stroke-width:1;" width="6" x="15" y="239.1253"/><text fill="#000000" font-family="sans-serif" font-size="14" lengthAdjust="spacing" textLength="191.5703" x="27" y="245.472">difficulty: ExerciseDifficulty</text><line style="stroke:#181818;stroke-width:0.5;" x1="8" x2="223.5703" y1="252.7738" y2="252.7738"/><ellipse cx="18" cy="266.4222" fill="#84BE84" rx="3" ry="3" style="stroke:#038048;stroke-width:1;"/><text fill="#000000" font-family="sans-serif" font-size="14" lengthAdjust="spacing" textLength="129.7188" x="27" y="269.7689">void showDetails()</text></g><!--class TrainingSessionComposite--><g id="elem_TrainingSessionComposite"><rect codeLine="11" fill="#F1F1F1" height="129.4844" id="TrainingSessionComposite" rx="2.5" ry="2.5" style="stroke:#181818;stroke-width:0.5;" width="432.6973" x="259.44" y="163.89"/><ellipse cx="378.8228" cy="179.89" fill="#ADD1B2" rx="11" ry="11" style="stroke:#181818;stroke-width:1;"/><path d="M381.7916,185.5306 Q381.2134,185.8275 380.5728,185.9681 Q379.9322,186.1244 379.2291,186.1244 Q376.7291,186.1244 375.4009,184.4838 Q374.0884,182.8275 374.0884,179.7025 Q374.0884,176.5775 375.4009,174.9213 Q376.7291,173.265 379.2291,173.265 Q379.9322,173.265 380.5728,173.4213 Q381.2291,173.5775 381.7916,173.8744 L381.7916,176.5931 Q381.1666,176.015 380.5728,175.7494 Q379.9791,175.4681 379.3541,175.4681 Q378.0103,175.4681 377.3228,176.5463 Q376.6353,177.6088 376.6353,179.7025 Q376.6353,181.7963 377.3228,182.8744 Q378.0103,183.9369 379.3541,183.9369 Q379.9791,183.9369 380.5728,183.6713 Q381.1666,183.39 381.7916,182.8119 L381.7916,185.5306 Z " fill="#000000"/><text fill="#000000" font-family="sans-serif" font-size="14" lengthAdjust="spacing" textLength="185.4316" x="399.3228" y="184.7367">TrainingSessionComposite</text><line style="stroke:#181818;stroke-width:0.5;" x1="260.44" x2="691.1373" y1="195.89" y2="195.89"/><rect fill="transparent" height="6" style="stroke:#C82930;stroke-width:1;" width="6" x="267.44" y="206.5384"/><text fill="#000000" font-family="sans-serif" font-size="14" lengthAdjust="spacing" textLength="128.7891" x="279.44" y="212.8851">description: String</text><rect fill="transparent" height="6" style="stroke:#C82930;stroke-width:1;" width="6" x="267.44" y="222.8353"/><text fill="#000000" font-family="sans-serif" font-size="14" lengthAdjust="spacing" textLength="282.1738" x="279.44" y="229.182">components: List&lt;TrainingComponent&gt;</text><line style="stroke:#181818;stroke-width:0.5;" x1="260.44" x2="691.1373" y1="236.4838" y2="236.4838"/><ellipse cx="270.44" cy="250.1322" fill="#84BE84" rx="3" ry="3" style="stroke:#038048;stroke-width:1;"/><text fill="#000000" font-family="sans-serif" font-size="14" lengthAdjust="spacing" textLength="379.5791" x="279.44" y="253.4789">void addComponent(component: TrainingComponent)</text><ellipse cx="270.44" cy="266.4291" fill="#84BE84" rx="3" ry="3" style="stroke:#038048;stroke-width:1;"/><text fill="#000000" font-family="sans-serif" font-size="14" lengthAdjust="spacing" textLength="406.6973" x="279.44" y="269.7757">void removeComponent(component: TrainingComponent)</text><ellipse cx="270.44" cy="282.7259" fill="#84BE84" rx="3" ry="3" style="stroke:#038048;stroke-width:1;"/><text fill="#000000" font-family="sans-serif" font-size="14" lengthAdjust="spacing" textLength="129.7188" x="279.44" y="286.0726">void showDetails()</text></g><!--class ExerciseDifficulty--><g id="elem_ExerciseDifficulty"><rect codeLine="19" fill="#F1F1F1" height="96.8906" id="ExerciseDifficulty" rx="2.5" ry="2.5" style="stroke:#181818;stroke-width:0.5;" width="153.6455" x="595.96" y="7"/><ellipse cx="610.96" cy="23" fill="#EB937F" rx="11" ry="11" style="stroke:#181818;stroke-width:1;"/><path d="M615.0694,29 L607.3506,29 L607.3506,16.6094 L615.0694,16.6094 L615.0694,18.7656 L609.8038,18.7656 L609.8038,21.4375 L614.5694,21.4375 L614.5694,23.5938 L609.8038,23.5938 L609.8038,26.8438 L615.0694,26.8438 L615.0694,29 Z " fill="#000000"/><text fill="#000000" font-family="sans-serif" font-size="14" lengthAdjust="spacing" textLength="121.6455" x="624.96" y="27.8467">ExerciseDifficulty</text><line style="stroke:#181818;stroke-width:0.5;" x1="596.96" x2="748.6055" y1="39" y2="39"/><text fill="#000000" font-family="sans-serif" font-size="14" lengthAdjust="spacing" textLength="35.8613" x="601.96" y="55.9951">EASY</text><text fill="#000000" font-family="sans-serif" font-size="14" lengthAdjust="spacing" textLength="58.1602" x="601.96" y="72.292">MEDIUM</text><text fill="#000000" font-family="sans-serif" font-size="14" lengthAdjust="spacing" textLength="40.6123" x="601.96" y="88.5889">HARD</text><line style="stroke:#181818;stroke-width:0.5;" x1="596.96" x2="748.6055" y1="95.8906" y2="95.8906"/></g><!--reverse link TrainingComponent to Exercise--><g id="link_TrainingComponent_Exercise"><path d="M388.6566,95.4813 C342.0666,116.5313 296.24,137.62 241.79,163.89 C231.3,168.94 220.36,174.32 209.51,179.72 " fill="transparent" id="TrainingComponent-backto-Exercise" style="stroke:#181818;stroke-width:1;stroke-dasharray:7.0,7.0;"/><polygon fill="transparent" points="405.06,88.07,386.1861,90.0135,391.127,100.9491,405.06,88.07" style="stroke:#181818;stroke-width:1;"/></g><!--reverse link TrainingComponent to TrainingSessionComposite--><g id="link_TrainingComponent_TrainingSessionComposite"><path d="M463.6279,105.7261 C461.2379,126.8661 462.51,137.61 463.4,163.45 " fill="transparent" id="TrainingComponent-backto-TrainingSessionComposite" style="stroke:#181818;stroke-width:1;stroke-dasharray:7.0,7.0;"/><polygon fill="transparent" points="465.65,87.84,457.6659,105.052,469.5899,106.4001,465.65,87.84" style="stroke:#181818;stroke-width:1;"/></g><!--reverse link TrainingSessionComposite to TrainingComponent--><g id="link_TrainingSessionComposite_TrainingComponent"><path codeLine="25" d="M489.3362,151.4579 C490.2762,125.6179 489.05,108.98 486.51,87.84 " fill="transparent" id="TrainingSessionComposite-backto-TrainingComponent" style="stroke:#181818;stroke-width:1;"/><polygon fill="#181818" points="488.9,163.45,493.1155,157.5994,489.3362,151.4579,485.1208,157.3086,488.9,163.45" style="stroke:#181818;stroke-width:1;"/><text fill="#000000" font-family="sans-serif" font-size="13" lengthAdjust="spacing" textLength="8.271" x="481.8536" y="153.0284">1</text><text fill="#000000" font-family="sans-serif" font-size="13" lengthAdjust="spacing" textLength="36.5625" x="449.1323" y="107.7756">many</text></g><!--SRC=[dP1DYy9038Rl_HMX9p_emMiHGRO51RrOzx37OIRLG2TJ9kCNud_VRj4YsnLavnIIUTxtJOW3-b9fXArNnCIx3sThnyW1hX4qRmn7HmPaxquP1aML38RHBOfqfKGWFwFN90XawmfjWybBfGHOMKoX2BwPtbk6ofBqeGgNj1FBkjuR2Hvk1OgGuzPKABoPoA1eJtLeo5_1zEElfB0Y2TEUoEmvdJAc6mmwDkrR3vyfZzOTyHzWxnZ81_l70U-BvlFYgotMURRyNBVbOhx9ViYN1umdCOoI16Ah-1Bt0tq3]--></g></svg>