<svg xmlns="http://www.w3.org/2000/svg" xmlns:xlink="http://www.w3.org/1999/xlink" contentStyleType="text/css" data-diagram-type="CLASS" height="424px" preserveAspectRatio="none" style="width:699px;height:424px;background:#FFFFFF;" version="1.1" viewBox="0 0 699 424" width="699px" zoomAndPan="magnify"><defs/><g><!--class TrainingComponent--><g id="elem_TrainingComponent"><rect codeLine="1" fill="#F1F1F1" height="64.2969" id="TrainingComponent" rx="2.5" ry="2.5" style="stroke:#181818;stroke-width:0.5;" width="170.5781" x="390.5" y="7"/><ellipse cx="405.5" cy="23" fill="#B4A7E5" rx="11" ry="11" style="stroke:#181818;stroke-width:1;"/><path d="M401.4219,18.7656 L401.4219,16.6094 L408.8125,16.6094 L408.8125,18.7656 L406.3438,18.7656 L406.3438,26.8438 L408.8125,26.8438 L408.8125,29 L401.4219,29 L401.4219,26.8438 L403.8906,26.8438 L403.8906,18.7656 L401.4219,18.7656 Z " fill="#000000"/><text fill="#000000" font-family="sans-serif" font-size="14" font-style="italic" lengthAdjust="spacing" textLength="138.5781" x="419.5" y="27.8467">TrainingComponent</text><line style="stroke:#181818;stroke-width:0.5;" x1="391.5" x2="560.0781" y1="39" y2="39"/><line style="stroke:#181818;stroke-width:0.5;" x1="391.5" x2="560.0781" y1="47" y2="47"/><ellipse cx="401.5" cy="60.6484" fill="#84BE84" rx="3" ry="3" style="stroke:#038048;stroke-width:1;"/><text fill="#000000" font-family="sans-serif" font-size="14" lengthAdjust="spacing" textLength="129.7188" x="410.5" y="63.9951">void showDetails()</text></g><!--class Exercise--><g id="elem_Exercise"><rect codeLine="5" fill="#F1F1F1" height="96.8906" id="Exercise" rx="2.5" ry="2.5" style="stroke:#181818;stroke-width:0.5;" width="217.5703" x="7" y="147.59"/><ellipse cx="82.0381" cy="163.59" fill="#ADD1B2" rx="11" ry="11" style="stroke:#181818;stroke-width:1;"/><path d="M85.0068,169.2306 Q84.4287,169.5275 83.7881,169.6681 Q83.1475,169.8244 82.4443,169.8244 Q79.9443,169.8244 78.6162,168.1838 Q77.3037,166.5275 77.3037,163.4025 Q77.3037,160.2775 78.6162,158.6213 Q79.9443,156.965 82.4443,156.965 Q83.1475,156.965 83.7881,157.1213 Q84.4443,157.2775 85.0068,157.5744 L85.0068,160.2931 Q84.3818,159.715 83.7881,159.4494 Q83.1943,159.1681 82.5693,159.1681 Q81.2256,159.1681 80.5381,160.2463 Q79.8506,161.3088 79.8506,163.4025 Q79.8506,165.4963 80.5381,166.5744 Q81.2256,167.6369 82.5693,167.6369 Q83.1943,167.6369 83.7881,167.3713 Q84.3818,167.09 85.0068,166.5119 L85.0068,169.2306 Z " fill="#000000"/><text fill="#000000" font-family="sans-serif" font-size="14" lengthAdjust="spacing" textLength="58.9941" x="102.5381" y="168.4367">Exercise</text><line style="stroke:#181818;stroke-width:0.5;" x1="8" x2="223.5703" y1="179.59" y2="179.59"/><rect fill="transparent" height="6" style="stroke:#C82930;stroke-width:1;" width="6" x="15" y="190.2384"/><text fill="#000000" font-family="sans-serif" font-size="14" lengthAdjust="spacing" textLength="90.6514" x="27" y="196.5851">name: String</text><rect fill="transparent" height="6" style="stroke:#C82930;stroke-width:1;" width="6" x="15" y="206.5353"/><text fill="#000000" font-family="sans-serif" font-size="14" lengthAdjust="spacing" textLength="191.5703" x="27" y="212.882">difficulty: ExerciseDifficulty</text><line style="stroke:#181818;stroke-width:0.5;" x1="8" x2="223.5703" y1="220.1838" y2="220.1838"/><ellipse cx="18" cy="233.8322" fill="#84BE84" rx="3" ry="3" style="stroke:#038048;stroke-width:1;"/><text fill="#000000" font-family="sans-serif" font-size="14" lengthAdjust="spacing" textLength="129.7188" x="27" y="237.1789">void showDetails()</text></g><!--class TrainingSessionComposite--><g id="elem_TrainingSessionComposite"><rect codeLine="11" fill="#F1F1F1" height="129.4844" id="TrainingSessionComposite" rx="2.5" ry="2.5" style="stroke:#181818;stroke-width:0.5;" width="432.6973" x="259.44" y="131.3"/><ellipse cx="378.8228" cy="147.3" fill="#ADD1B2" rx="11" ry="11" style="stroke:#181818;stroke-width:1;"/><path d="M381.7916,152.9406 Q381.2134,153.2375 380.5728,153.3781 Q379.9322,153.5344 379.2291,153.5344 Q376.7291,153.5344 375.4009,151.8938 Q374.0884,150.2375 374.0884,147.1125 Q374.0884,143.9875 375.4009,142.3313 Q376.7291,140.675 379.2291,140.675 Q379.9322,140.675 380.5728,140.8313 Q381.2291,140.9875 381.7916,141.2844 L381.7916,144.0031 Q381.1666,143.425 380.5728,143.1594 Q379.9791,142.8781 379.3541,142.8781 Q378.0103,142.8781 377.3228,143.9563 Q376.6353,145.0188 376.6353,147.1125 Q376.6353,149.2063 377.3228,150.2844 Q378.0103,151.3469 379.3541,151.3469 Q379.9791,151.3469 380.5728,151.0813 Q381.1666,150.8 381.7916,150.2219 L381.7916,152.9406 Z " fill="#000000"/><text fill="#000000" font-family="sans-serif" font-size="14" lengthAdjust="spacing" textLength="185.4316" x="399.3228" y="152.1467">TrainingSessionComposite</text><line style="stroke:#181818;stroke-width:0.5;" x1="260.44" x2="691.1373" y1="163.3" y2="163.3"/><rect fill="transparent" height="6" style="stroke:#C82930;stroke-width:1;" width="6" x="267.44" y="173.9484"/><text fill="#000000" font-family="sans-serif" font-size="14" lengthAdjust="spacing" textLength="128.7891" x="279.44" y="180.2951">description: String</text><rect fill="transparent" height="6" style="stroke:#C82930;stroke-width:1;" width="6" x="267.44" y="190.2453"/><text fill="#000000" font-family="sans-serif" font-size="14" lengthAdjust="spacing" textLength="282.1738" x="279.44" y="196.592">components: List&lt;TrainingComponent&gt;</text><line style="stroke:#181818;stroke-width:0.5;" x1="260.44" x2="691.1373" y1="203.8938" y2="203.8938"/><ellipse cx="270.44" cy="217.5422" fill="#84BE84" rx="3" ry="3" style="stroke:#038048;stroke-width:1;"/><text fill="#000000" font-family="sans-serif" font-size="14" lengthAdjust="spacing" textLength="379.5791" x="279.44" y="220.8889">void addComponent(component: TrainingComponent)</text><ellipse cx="270.44" cy="233.8391" fill="#84BE84" rx="3" ry="3" style="stroke:#038048;stroke-width:1;"/><text fill="#000000" font-family="sans-serif" font-size="14" lengthAdjust="spacing" textLength="406.6973" x="279.44" y="237.1857">void removeComponent(component: TrainingComponent)</text><ellipse cx="270.44" cy="250.1359" fill="#84BE84" rx="3" ry="3" style="stroke:#038048;stroke-width:1;"/><text fill="#000000" font-family="sans-serif" font-size="14" lengthAdjust="spacing" textLength="129.7188" x="279.44" y="253.4826">void showDetails()</text></g><!--class ExerciseDifficulty--><g id="elem_ExerciseDifficulty"><rect codeLine="19" fill="#F1F1F1" height="96.8906" id="ExerciseDifficulty" rx="2.5" ry="2.5" style="stroke:#181818;stroke-width:0.5;" width="153.6455" x="38.96" y="320.78"/><ellipse cx="53.96" cy="336.78" fill="#EB937F" rx="11" ry="11" style="stroke:#181818;stroke-width:1;"/><path d="M58.0694,342.78 L50.3506,342.78 L50.3506,330.3894 L58.0694,330.3894 L58.0694,332.5456 L52.8038,332.5456 L52.8038,335.2175 L57.5694,335.2175 L57.5694,337.3738 L52.8038,337.3738 L52.8038,340.6238 L58.0694,340.6238 L58.0694,342.78 Z " fill="#000000"/><text fill="#000000" font-family="sans-serif" font-size="14" lengthAdjust="spacing" textLength="121.6455" x="67.96" y="341.6267">ExerciseDifficulty</text><line style="stroke:#181818;stroke-width:0.5;" x1="39.96" x2="191.6055" y1="352.78" y2="352.78"/><text fill="#000000" font-family="sans-serif" font-size="14" lengthAdjust="spacing" textLength="35.8613" x="44.96" y="369.7751">EASY</text><text fill="#000000" font-family="sans-serif" font-size="14" lengthAdjust="spacing" textLength="58.1602" x="44.96" y="386.072">MEDIUM</text><text fill="#000000" font-family="sans-serif" font-size="14" lengthAdjust="spacing" textLength="40.6123" x="44.96" y="402.3689">HARD</text><line style="stroke:#181818;stroke-width:0.5;" x1="39.96" x2="191.6055" y1="409.6706" y2="409.6706"/></g><!--reverse link TrainingComponent to Exercise--><g id="link_TrainingComponent_Exercise"><path d="M373.3601,77.531 C328.7001,94.311 290.25,109.66 241.79,131.3 C230.7,136.24 219.2,141.66 207.84,147.18 " fill="transparent" id="TrainingComponent-backto-Exercise" style="stroke:#181818;stroke-width:1;stroke-dasharray:7.0,7.0;"/><polygon fill="transparent" points="390.21,71.2,371.2498,71.9143,375.4704,83.1476,390.21,71.2" style="stroke:#181818;stroke-width:1;"/></g><!--reverse link TrainingComponent to TrainingSessionComposite--><g id="link_TrainingComponent_TrainingSessionComposite"><path d="M463.2871,89.3771 C461.3571,106.5271 462.67,110.53 463.21,131.11 " fill="transparent" id="TrainingComponent-backto-TrainingSessionComposite" style="stroke:#181818;stroke-width:1;stroke-dasharray:7.0,7.0;"/><polygon fill="transparent" points="465.3,71.49,457.3247,88.7061,469.2494,90.0481,465.3,71.49" style="stroke:#181818;stroke-width:1;"/></g><!--reverse link TrainingSessionComposite to TrainingComponent--><g id="link_TrainingSessionComposite_TrainingComponent"><path codeLine="25" d="M489.4322,119.1146 C490.0022,98.5346 488.93,88.64 486.88,71.49 " fill="transparent" id="TrainingSessionComposite-backto-TrainingComponent" style="stroke:#181818;stroke-width:1;"/><polygon fill="#181818" points="489.1,131.11,493.2646,125.223,489.4322,119.1146,485.2677,125.0016,489.1,131.11" style="stroke:#181818;stroke-width:1;"/><text fill="#000000" font-family="sans-serif" font-size="13" lengthAdjust="spacing" textLength="8.271" x="482.1333" y="120.2619">1</text><text fill="#000000" font-family="sans-serif" font-size="13" lengthAdjust="spacing" textLength="36.5625" x="449.5751" y="91.4138">many</text></g><!--reverse link Exercise to ExerciseDifficulty--><g id="link_Exercise_ExerciseDifficulty"><path codeLine="26" d="M115.79,250.72 C115.79,274.37 115.79,296.85 115.79,320.5 " fill="transparent" id="Exercise-backto-ExerciseDifficulty" style="stroke:#181818;stroke-width:1;"/><polygon fill="#181818" points="115.79,244.72,111.79,253.72,115.79,249.72,119.79,253.72,115.79,244.72" style="stroke:#181818;stroke-width:1;"/></g><!--SRC=[dL5DQm8n4BtdLmnxqfOzU5sa8Dq51RrqsqEF8Pcj0vjaoKIhIFzxqqM3D1MaEGqpypxcXMn0tqc5yEebMR8VpyuCpg8DS18GtoFi7MdWhVkiCKZgUJ8LNqAeNZ93Sq2lY17833sQ2EERJ2LOQR22DlWuFRSqTHsfNH-ELIAhK-yE1nUr5fd9sL6KATpfI2ChJqE8o5_6r6MNArWJXtb6ydJjJcgT1fE4hNBfwJNAet5x_0Sm2mFjplmHuFdGPj6-ZyMcgLTlcx5SBbxg7-JD08jP0Gzb2OMHzbZaXaJw_7dSohM_0G00]--></g></svg>