<?xml version="1.0" encoding="UTF-8" standalone="no"?><svg xmlns="http://www.w3.org/2000/svg" xmlns:xlink="http://www.w3.org/1999/xlink" contentStyleType="text/css" height="680px" preserveAspectRatio="none" style="width:596px;height:680px;background:#FFFFFF;" version="1.1" viewBox="0 0 596 680" width="596px" zoomAndPan="magnify"><defs/><g><rect fill="none" height="391" style="stroke:#000000;stroke-width:1.5;" width="579.5" x="10" y="190.6641"/><rect fill="none" height="167.7578" style="stroke:#000000;stroke-width:1.5;" width="492.5" x="20" y="378.9063"/><line style="stroke:#181818;stroke-width:0.5;stroke-dasharray:5.0,5.0;" x1="56" x2="56" y1="82.6094" y2="598.6641"/><line style="stroke:#181818;stroke-width:0.5;stroke-dasharray:5.0,5.0;" x1="174.5" x2="174.5" y1="82.6094" y2="598.6641"/><line style="stroke:#181818;stroke-width:0.5;stroke-dasharray:5.0,5.0;" x1="304" x2="304" y1="82.6094" y2="598.6641"/><line style="stroke:#181818;stroke-width:0.5;stroke-dasharray:5.0,5.0;" x1="464.5" x2="464.5" y1="82.6094" y2="598.6641"/><line style="stroke:#181818;stroke-width:0.5;stroke-dasharray:5.0,5.0;" x1="545.5" x2="545.5" y1="82.6094" y2="598.6641"/><text fill="#000000" font-family="sans-serif" font-size="14" lengthAdjust="spacing" textLength="46" x="30" y="79.5332">Trainer</text><ellipse cx="56" cy="13.5" fill="#E2E2F0" rx="8" ry="8" style="stroke:#181818;stroke-width:0.5;"/><path d="M56,21.5 L56,48.5 M43,29.5 L69,29.5 M56,48.5 L43,63.5 M56,48.5 L69,63.5 " fill="none" style="stroke:#181818;stroke-width:0.5;"/><text fill="#000000" font-family="sans-serif" font-size="14" lengthAdjust="spacing" textLength="46" x="30" y="612.1973">Trainer</text><ellipse cx="56" cy="623.7734" fill="#E2E2F0" rx="8" ry="8" style="stroke:#181818;stroke-width:0.5;"/><path d="M56,631.7734 L56,658.7734 M43,639.7734 L69,639.7734 M56,658.7734 L43,673.7734 M56,658.7734 L69,673.7734 " fill="none" style="stroke:#181818;stroke-width:0.5;"/><rect fill="#E2E2F0" height="31.6094" rx="2.5" ry="2.5" style="stroke:#181818;stroke-width:0.5;" width="37" x="156.5" y="50"/><text fill="#000000" font-family="sans-serif" font-size="14" lengthAdjust="spacing" textLength="23" x="163.5" y="71.5332">GUI</text><rect fill="#E2E2F0" height="31.6094" rx="2.5" ry="2.5" style="stroke:#181818;stroke-width:0.5;" width="37" x="156.5" y="597.6641"/><text fill="#000000" font-family="sans-serif" font-size="14" lengthAdjust="spacing" textLength="23" x="163.5" y="619.1973">GUI</text><rect fill="#E2E2F0" height="31.6094" rx="2.5" ry="2.5" style="stroke:#181818;stroke-width:0.5;" width="114" x="247" y="50"/><text fill="#000000" font-family="sans-serif" font-size="14" lengthAdjust="spacing" textLength="100" x="254" y="71.5332">ExerciseService</text><rect fill="#E2E2F0" height="31.6094" rx="2.5" ry="2.5" style="stroke:#181818;stroke-width:0.5;" width="114" x="247" y="597.6641"/><text fill="#000000" font-family="sans-serif" font-size="14" lengthAdjust="spacing" textLength="100" x="254" y="619.1973">ExerciseService</text><rect fill="#E2E2F0" height="31.6094" rx="2.5" ry="2.5" style="stroke:#181818;stroke-width:0.5;" width="75" x="427.5" y="50"/><text fill="#000000" font-family="sans-serif" font-size="14" lengthAdjust="spacing" textLength="61" x="434.5" y="71.5332">Database</text><rect fill="#E2E2F0" height="31.6094" rx="2.5" ry="2.5" style="stroke:#181818;stroke-width:0.5;" width="75" x="427.5" y="597.6641"/><text fill="#000000" font-family="sans-serif" font-size="14" lengthAdjust="spacing" textLength="61" x="434.5" y="619.1973">Database</text><rect fill="#E2E2F0" height="31.6094" rx="2.5" ry="2.5" style="stroke:#181818;stroke-width:0.5;" width="67" x="512.5" y="50"/><text fill="#000000" font-family="sans-serif" font-size="14" lengthAdjust="spacing" textLength="53" x="519.5" y="71.5332">Exercise</text><rect fill="#E2E2F0" height="31.6094" rx="2.5" ry="2.5" style="stroke:#181818;stroke-width:0.5;" width="67" x="512.5" y="597.6641"/><text fill="#000000" font-family="sans-serif" font-size="14" lengthAdjust="spacing" textLength="53" x="519.5" y="619.1973">Exercise</text><polygon fill="#181818" points="163,110.9609,173,114.9609,163,118.9609,167,114.9609" style="stroke:#181818;stroke-width:1.0;"/><line style="stroke:#181818;stroke-width:1.0;" x1="56" x2="169" y1="114.9609" y2="114.9609"/><text fill="#000000" font-family="sans-serif" font-size="13" lengthAdjust="spacing" textLength="95" x="63" y="110.1045">createExercise()</text><polygon fill="#181818" points="292,141.3125,302,145.3125,292,149.3125,296,145.3125" style="stroke:#181818;stroke-width:1.0;"/><line style="stroke:#181818;stroke-width:1.0;" x1="175" x2="298" y1="145.3125" y2="145.3125"/><text fill="#000000" font-family="sans-serif" font-size="13" lengthAdjust="spacing" textLength="95" x="182" y="140.4561">createExercise()</text><polygon fill="#181818" points="453,171.6641,463,175.6641,453,179.6641,457,175.6641" style="stroke:#181818;stroke-width:1.0;"/><line style="stroke:#181818;stroke-width:1.0;" x1="304" x2="459" y1="175.6641" y2="175.6641"/><text fill="#000000" font-family="sans-serif" font-size="13" lengthAdjust="spacing" textLength="137" x="311" y="170.8076">checkIfExerciseExists()</text><path d="M10,190.6641 L71,190.6641 L71,199.0156 L61,209.0156 L10,209.0156 L10,190.6641 " fill="#EEEEEE" style="stroke:#000000;stroke-width:1.5;"/><rect fill="none" height="391" style="stroke:#000000;stroke-width:1.5;" width="579.5" x="10" y="190.6641"/><text fill="#000000" font-family="sans-serif" font-size="13" font-weight="bold" lengthAdjust="spacing" textLength="16" x="25" y="205.1592">alt</text><text fill="#000000" font-family="sans-serif" font-size="11" font-weight="bold" lengthAdjust="spacing" textLength="138" x="86" y="204.083">[exercise does not exist]</text><polygon fill="#181818" points="315,211.0156,305,215.0156,315,219.0156,311,215.0156" style="stroke:#181818;stroke-width:1.0;"/><line style="stroke:#181818;stroke-width:1.0;stroke-dasharray:2.0,2.0;" x1="309" x2="464" y1="215.0156" y2="215.0156"/><polygon fill="#181818" points="534,241.3672,544,245.3672,534,249.3672,538,245.3672" style="stroke:#181818;stroke-width:1.0;"/><line style="stroke:#181818;stroke-width:1.0;" x1="304" x2="540" y1="245.3672" y2="245.3672"/><text fill="#000000" font-family="sans-serif" font-size="13" lengthAdjust="spacing" textLength="50" x="311" y="240.5107">«create»</text><polygon fill="#181818" points="315,255.3672,305,259.3672,315,263.3672,311,259.3672" style="stroke:#181818;stroke-width:1.0;"/><line style="stroke:#181818;stroke-width:1.0;" x1="309" x2="545" y1="259.3672" y2="259.3672"/><polygon fill="#181818" points="453,285.7188,463,289.7188,453,293.7188,457,289.7188" style="stroke:#181818;stroke-width:1.0;"/><line style="stroke:#181818;stroke-width:1.0;" x1="304" x2="459" y1="289.7188" y2="289.7188"/><text fill="#000000" font-family="sans-serif" font-size="13" lengthAdjust="spacing" textLength="85" x="311" y="284.8623">saveExercise()</text><polygon fill="#181818" points="315,299.7188,305,303.7188,315,307.7188,311,303.7188" style="stroke:#181818;stroke-width:1.0;"/><line style="stroke:#181818;stroke-width:1.0;stroke-dasharray:2.0,2.0;" x1="309" x2="464" y1="303.7188" y2="303.7188"/><polygon fill="#181818" points="186,330.0703,176,334.0703,186,338.0703,182,334.0703" style="stroke:#181818;stroke-width:1.0;"/><line style="stroke:#181818;stroke-width:1.0;stroke-dasharray:2.0,2.0;" x1="180" x2="303" y1="334.0703" y2="334.0703"/><text fill="#000000" font-family="sans-serif" font-size="13" lengthAdjust="spacing" textLength="102" x="192" y="329.2139">exerciseCreated()</text><polygon fill="#181818" points="67,344.0703,57,348.0703,67,352.0703,63,348.0703" style="stroke:#181818;stroke-width:1.0;"/><line style="stroke:#181818;stroke-width:1.0;stroke-dasharray:2.0,2.0;" x1="61" x2="174" y1="348.0703" y2="348.0703"/><line style="stroke:#000000;stroke-width:1.0;stroke-dasharray:2.0,2.0;" x1="10" x2="589.5" y1="357.0703" y2="357.0703"/><text fill="#000000" font-family="sans-serif" font-size="11" font-weight="bold" lengthAdjust="spacing" textLength="136" x="15" y="368.4893">[exercise already exists]</text><path d="M20,378.9063 L85,378.9063 L85,387.2578 L75,397.2578 L20,397.2578 L20,378.9063 " fill="#EEEEEE" style="stroke:#000000;stroke-width:1.5;"/><rect fill="none" height="167.7578" style="stroke:#000000;stroke-width:1.5;" width="492.5" x="20" y="378.9063"/><text fill="#000000" font-family="sans-serif" font-size="13" font-weight="bold" lengthAdjust="spacing" textLength="20" x="35" y="393.4014">opt</text><text fill="#000000" font-family="sans-serif" font-size="11" font-weight="bold" lengthAdjust="spacing" textLength="80" x="100" y="392.3252">[edit exercise]</text><polygon fill="#181818" points="163,415.6094,173,419.6094,163,423.6094,167,419.6094" style="stroke:#181818;stroke-width:1.0;"/><line style="stroke:#181818;stroke-width:1.0;" x1="56" x2="169" y1="419.6094" y2="419.6094"/><text fill="#000000" font-family="sans-serif" font-size="13" lengthAdjust="spacing" textLength="80" x="63" y="414.7529">editExercise()</text><polygon fill="#181818" points="292,445.9609,302,449.9609,292,453.9609,296,449.9609" style="stroke:#181818;stroke-width:1.0;"/><line style="stroke:#181818;stroke-width:1.0;" x1="175" x2="298" y1="449.9609" y2="449.9609"/><text fill="#000000" font-family="sans-serif" font-size="13" lengthAdjust="spacing" textLength="98" x="182" y="445.1045">updateExercise()</text><polygon fill="#181818" points="453,476.3125,463,480.3125,453,484.3125,457,480.3125" style="stroke:#181818;stroke-width:1.0;"/><line style="stroke:#181818;stroke-width:1.0;" x1="304" x2="459" y1="480.3125" y2="480.3125"/><text fill="#000000" font-family="sans-serif" font-size="13" lengthAdjust="spacing" textLength="85" x="311" y="475.4561">saveExercise()</text><polygon fill="#181818" points="315,490.3125,305,494.3125,315,498.3125,311,494.3125" style="stroke:#181818;stroke-width:1.0;"/><line style="stroke:#181818;stroke-width:1.0;stroke-dasharray:2.0,2.0;" x1="309" x2="464" y1="494.3125" y2="494.3125"/><polygon fill="#181818" points="186,520.6641,176,524.6641,186,528.6641,182,524.6641" style="stroke:#181818;stroke-width:1.0;"/><line style="stroke:#181818;stroke-width:1.0;stroke-dasharray:2.0,2.0;" x1="180" x2="303" y1="524.6641" y2="524.6641"/><text fill="#000000" font-family="sans-serif" font-size="13" lengthAdjust="spacing" textLength="105" x="192" y="519.8076">exerciseUpdated()</text><polygon fill="#181818" points="67,534.6641,57,538.6641,67,542.6641,63,538.6641" style="stroke:#181818;stroke-width:1.0;"/><line style="stroke:#181818;stroke-width:1.0;stroke-dasharray:2.0,2.0;" x1="61" x2="174" y1="538.6641" y2="538.6641"/><polygon fill="#181818" points="186,555.6641,176,559.6641,186,563.6641,182,559.6641" style="stroke:#181818;stroke-width:1.0;"/><line style="stroke:#181818;stroke-width:1.0;stroke-dasharray:2.0,2.0;" x1="180" x2="303" y1="559.6641" y2="559.6641"/><polygon fill="#181818" points="67,569.6641,57,573.6641,67,577.6641,63,573.6641" style="stroke:#181818;stroke-width:1.0;"/><line style="stroke:#181818;stroke-width:1.0;stroke-dasharray:2.0,2.0;" x1="61" x2="174" y1="573.6641" y2="573.6641"/><!--SRC=[bL7B3i8W4Bpp5HjFUl07ZEd1HundzGDMM2EneGsWqRztmL9j9JwuCJl33BCeVMLXQr4Rig96wxNKDHeFgzswSrzUoKhjQ4FseYLrPeiPe8F10ZtkqT4WAnIYiO5n4Lw72KXBw2aHXYCHO9xsl79CqUUmZ6CmyqZoj3wayVAgdNSimD83DI2eYXoOAY0y5i27nUDtwpZAM2M83QVJHxYYw93XzyTYReUNr__z6wdjDFrn7aEfvgbOB7FIfgdaX6qTM39PtHvjE14LLStjAFqiBQBXlAqnq7hHMy_SCi-rwYupAVxevai_ltMqYq5KF_DBJm4ZepvsdY_Og3i0]--></g></svg>