<svg xmlns="http://www.w3.org/2000/svg" xmlns:xlink="http://www.w3.org/1999/xlink" contentStyleType="text/css" data-diagram-type="CLASS" height="506px" preserveAspectRatio="none" style="width:943px;height:506px;background:#FFFFFF;" version="1.1" viewBox="0 0 943 506" width="943px" zoomAndPan="magnify"><defs/><g><!--class Membership--><g id="elem_Membership"><rect codeLine="1" fill="#F1F1F1" height="113.1875" id="Membership" rx="2.5" ry="2.5" style="stroke:#181818;stroke-width:0.5;" width="241.5576" x="351" y="7"/><ellipse cx="424.2642" cy="23" fill="#B4A7E5" rx="11" ry="11" style="stroke:#181818;stroke-width:1;"/><path d="M420.186,18.7656 L420.186,16.6094 L427.5767,16.6094 L427.5767,18.7656 L425.1079,18.7656 L425.1079,26.8438 L427.5767,26.8438 L427.5767,29 L420.186,29 L420.186,26.8438 L422.6548,26.8438 L422.6548,18.7656 L420.186,18.7656 Z " fill="#000000"/><text fill="#000000" font-family="sans-serif" font-size="14" font-style="italic" lengthAdjust="spacing" textLength="86.5293" x="444.7642" y="27.8467">Membership</text><line style="stroke:#181818;stroke-width:0.5;" x1="352" x2="591.5576" y1="39" y2="39"/><line style="stroke:#181818;stroke-width:0.5;" x1="352" x2="591.5576" y1="47" y2="47"/><ellipse cx="362" cy="60.6484" fill="#84BE84" rx="3" ry="3" style="stroke:#038048;stroke-width:1;"/><text fill="#000000" font-family="sans-serif" font-size="14" lengthAdjust="spacing" textLength="105.6563" x="371" y="63.9951">getCost(): float</text><ellipse cx="362" cy="76.9453" fill="#84BE84" rx="3" ry="3" style="stroke:#038048;stroke-width:1;"/><text fill="#000000" font-family="sans-serif" font-size="14" lengthAdjust="spacing" textLength="186.5254" x="371" y="80.292">getCancellationFee(): float</text><ellipse cx="362" cy="93.2422" fill="#84BE84" rx="3" ry="3" style="stroke:#038048;stroke-width:1;"/><text fill="#000000" font-family="sans-serif" font-size="14" lengthAdjust="spacing" textLength="215.5576" x="371" y="96.5889">getDiscountPercentage(): float</text><ellipse cx="362" cy="109.5391" fill="#84BE84" rx="3" ry="3" style="stroke:#038048;stroke-width:1;"/><text fill="#000000" font-family="sans-serif" font-size="14" lengthAdjust="spacing" textLength="188.5078" x="371" y="112.8857">getBenefits(): List&lt;string&gt;</text></g><!--class GenericMembership--><g id="elem_GenericMembership"><rect codeLine="8" fill="#F1F1F1" height="113.1875" id="GenericMembership" rx="2.5" ry="2.5" style="stroke:#181818;stroke-width:0.5;" width="241.5576" x="7" y="196.49"/><ellipse cx="53.1187" cy="212.49" fill="#ADD1B2" rx="11" ry="11" style="stroke:#181818;stroke-width:1;"/><path d="M56.0874,218.1306 Q55.5093,218.4275 54.8687,218.5681 Q54.228,218.7244 53.5249,218.7244 Q51.0249,218.7244 49.6968,217.0838 Q48.3843,215.4275 48.3843,212.3025 Q48.3843,209.1775 49.6968,207.5213 Q51.0249,205.865 53.5249,205.865 Q54.228,205.865 54.8687,206.0213 Q55.5249,206.1775 56.0874,206.4744 L56.0874,209.1931 Q55.4624,208.615 54.8687,208.3494 Q54.2749,208.0681 53.6499,208.0681 Q52.3062,208.0681 51.6187,209.1463 Q50.9312,210.2088 50.9312,212.3025 Q50.9312,214.3963 51.6187,215.4744 Q52.3062,216.5369 53.6499,216.5369 Q54.2749,216.5369 54.8687,216.2713 Q55.4624,215.99 56.0874,215.4119 L56.0874,218.1306 Z " fill="#000000"/><text fill="#000000" font-family="sans-serif" font-size="14" lengthAdjust="spacing" textLength="140.8203" x="73.6187" y="217.3367">GenericMembership</text><line style="stroke:#181818;stroke-width:0.5;" x1="8" x2="247.5576" y1="228.49" y2="228.49"/><line style="stroke:#181818;stroke-width:0.5;" x1="8" x2="247.5576" y1="236.49" y2="236.49"/><ellipse cx="18" cy="250.1384" fill="#84BE84" rx="3" ry="3" style="stroke:#038048;stroke-width:1;"/><text fill="#000000" font-family="sans-serif" font-size="14" lengthAdjust="spacing" textLength="105.6563" x="27" y="253.4851">getCost(): float</text><ellipse cx="18" cy="266.4353" fill="#84BE84" rx="3" ry="3" style="stroke:#038048;stroke-width:1;"/><text fill="#000000" font-family="sans-serif" font-size="14" lengthAdjust="spacing" textLength="186.5254" x="27" y="269.782">getCancellationFee(): float</text><ellipse cx="18" cy="282.7322" fill="#84BE84" rx="3" ry="3" style="stroke:#038048;stroke-width:1;"/><text fill="#000000" font-family="sans-serif" font-size="14" lengthAdjust="spacing" textLength="215.5576" x="27" y="286.0789">getDiscountPercentage(): float</text><ellipse cx="18" cy="299.0291" fill="#84BE84" rx="3" ry="3" style="stroke:#038048;stroke-width:1;"/><text fill="#000000" font-family="sans-serif" font-size="14" lengthAdjust="spacing" textLength="188.5078" x="27" y="302.3757">getBenefits(): List&lt;string&gt;</text></g><!--class MembershipDecorator--><g id="elem_MembershipDecorator"><rect codeLine="15" fill="#F1F1F1" height="145.7813" id="MembershipDecorator" rx="2.5" ry="2.5" style="stroke:#181818;stroke-width:0.5;" width="377.0391" x="283.26" y="180.19"/><ellipse cx="389.364" cy="196.19" fill="#ADD1B2" rx="11" ry="11" style="stroke:#181818;stroke-width:1;"/><path d="M392.3328,201.8306 Q391.7546,202.1275 391.114,202.2681 Q390.4734,202.4244 389.7703,202.4244 Q387.2703,202.4244 385.9421,200.7838 Q384.6296,199.1275 384.6296,196.0025 Q384.6296,192.8775 385.9421,191.2213 Q387.2703,189.565 389.7703,189.565 Q390.4734,189.565 391.114,189.7213 Q391.7703,189.8775 392.3328,190.1744 L392.3328,192.8931 Q391.7078,192.315 391.114,192.0494 Q390.5203,191.7681 389.8953,191.7681 Q388.5515,191.7681 387.864,192.8463 Q387.1765,193.9088 387.1765,196.0025 Q387.1765,198.0963 387.864,199.1744 Q388.5515,200.2369 389.8953,200.2369 Q390.5203,200.2369 391.114,199.9713 Q391.7078,199.69 392.3328,199.1119 L392.3328,201.8306 Z " fill="#000000"/><text fill="#000000" font-family="sans-serif" font-size="14" lengthAdjust="spacing" textLength="156.3311" x="409.864" y="201.0367">MembershipDecorator</text><line style="stroke:#181818;stroke-width:0.5;" x1="284.26" x2="659.2991" y1="212.19" y2="212.19"/><polygon fill="none" points="294.26,220.8384,298.26,224.8384,294.26,228.8384,290.26,224.8384" style="stroke:#B38D22;stroke-width:1;"/><text fill="#000000" font-family="sans-serif" font-size="14" lengthAdjust="spacing" textLength="183.7842" x="303.26" y="229.1851">membership: Membership</text><line style="stroke:#181818;stroke-width:0.5;" x1="284.26" x2="659.2991" y1="236.4869" y2="236.4869"/><ellipse cx="294.26" cy="250.1353" fill="#84BE84" rx="3" ry="3" style="stroke:#038048;stroke-width:1;"/><text fill="#000000" font-family="sans-serif" font-size="14" lengthAdjust="spacing" textLength="351.0391" x="303.26" y="253.482">MembershipDecorator(membership: Membership)</text><ellipse cx="294.26" cy="266.4322" fill="#84BE84" rx="3" ry="3" style="stroke:#038048;stroke-width:1;"/><text fill="#000000" font-family="sans-serif" font-size="14" lengthAdjust="spacing" textLength="105.6563" x="303.26" y="269.7789">getCost(): float</text><ellipse cx="294.26" cy="282.7291" fill="#84BE84" rx="3" ry="3" style="stroke:#038048;stroke-width:1;"/><text fill="#000000" font-family="sans-serif" font-size="14" lengthAdjust="spacing" textLength="186.5254" x="303.26" y="286.0757">getCancellationFee(): float</text><ellipse cx="294.26" cy="299.0259" fill="#84BE84" rx="3" ry="3" style="stroke:#038048;stroke-width:1;"/><text fill="#000000" font-family="sans-serif" font-size="14" lengthAdjust="spacing" textLength="215.5576" x="303.26" y="302.3726">getDiscountPercentage(): float</text><ellipse cx="294.26" cy="315.3228" fill="#84BE84" rx="3" ry="3" style="stroke:#038048;stroke-width:1;"/><text fill="#000000" font-family="sans-serif" font-size="14" lengthAdjust="spacing" textLength="188.5078" x="303.26" y="318.6695">getBenefits(): List&lt;string&gt;</text></g><!--class PoolAccessMembershipDecorator--><g id="elem_PoolAccessMembershipDecorator"><rect codeLine="24" fill="#F1F1F1" height="113.1875" id="PoolAccessMembershipDecorator" rx="2.5" ry="2.5" style="stroke:#181818;stroke-width:0.5;" width="265.9668" x="38.8" y="385.97"/><ellipse cx="53.8" cy="401.97" fill="#ADD1B2" rx="11" ry="11" style="stroke:#181818;stroke-width:1;"/><path d="M56.7688,407.6106 Q56.1906,407.9075 55.55,408.0481 Q54.9094,408.2044 54.2063,408.2044 Q51.7063,408.2044 50.3781,406.5638 Q49.0656,404.9075 49.0656,401.7825 Q49.0656,398.6575 50.3781,397.0013 Q51.7063,395.345 54.2063,395.345 Q54.9094,395.345 55.55,395.5013 Q56.2063,395.6575 56.7688,395.9544 L56.7688,398.6731 Q56.1438,398.095 55.55,397.8294 Q54.9563,397.5481 54.3313,397.5481 Q52.9875,397.5481 52.3,398.6263 Q51.6125,399.6888 51.6125,401.7825 Q51.6125,403.8763 52.3,404.9544 Q52.9875,406.0169 54.3313,406.0169 Q54.9563,406.0169 55.55,405.7513 Q56.1438,405.47 56.7688,404.8919 L56.7688,407.6106 Z " fill="#000000"/><text fill="#000000" font-family="sans-serif" font-size="14" lengthAdjust="spacing" textLength="233.9668" x="67.8" y="406.8167">PoolAccessMembershipDecorator</text><line style="stroke:#181818;stroke-width:0.5;" x1="39.8" x2="303.7668" y1="417.97" y2="417.97"/><line style="stroke:#181818;stroke-width:0.5;" x1="39.8" x2="303.7668" y1="425.97" y2="425.97"/><ellipse cx="49.8" cy="439.6184" fill="#84BE84" rx="3" ry="3" style="stroke:#038048;stroke-width:1;"/><text fill="#000000" font-family="sans-serif" font-size="14" lengthAdjust="spacing" textLength="105.6563" x="58.8" y="442.9651">getCost(): float</text><ellipse cx="49.8" cy="455.9153" fill="#84BE84" rx="3" ry="3" style="stroke:#038048;stroke-width:1;"/><text fill="#000000" font-family="sans-serif" font-size="14" lengthAdjust="spacing" textLength="186.5254" x="58.8" y="459.262">getCancellationFee(): float</text><ellipse cx="49.8" cy="472.2122" fill="#84BE84" rx="3" ry="3" style="stroke:#038048;stroke-width:1;"/><text fill="#000000" font-family="sans-serif" font-size="14" lengthAdjust="spacing" textLength="215.5576" x="58.8" y="475.5589">getDiscountPercentage(): float</text><ellipse cx="49.8" cy="488.5091" fill="#84BE84" rx="3" ry="3" style="stroke:#038048;stroke-width:1;"/><text fill="#000000" font-family="sans-serif" font-size="14" lengthAdjust="spacing" textLength="188.5078" x="58.8" y="491.8557">getBenefits(): List&lt;string&gt;</text></g><!--class FreeDrinksMembershipDecorator--><g id="elem_FreeDrinksMembershipDecorator"><rect codeLine="31" fill="#F1F1F1" height="113.1875" id="FreeDrinksMembershipDecorator" rx="2.5" ry="2.5" style="stroke:#181818;stroke-width:0.5;" width="264.0664" x="339.75" y="385.97"/><ellipse cx="354.75" cy="401.97" fill="#ADD1B2" rx="11" ry="11" style="stroke:#181818;stroke-width:1;"/><path d="M357.7188,407.6106 Q357.1406,407.9075 356.5,408.0481 Q355.8594,408.2044 355.1563,408.2044 Q352.6563,408.2044 351.3281,406.5638 Q350.0156,404.9075 350.0156,401.7825 Q350.0156,398.6575 351.3281,397.0013 Q352.6563,395.345 355.1563,395.345 Q355.8594,395.345 356.5,395.5013 Q357.1563,395.6575 357.7188,395.9544 L357.7188,398.6731 Q357.0938,398.095 356.5,397.8294 Q355.9063,397.5481 355.2813,397.5481 Q353.9375,397.5481 353.25,398.6263 Q352.5625,399.6888 352.5625,401.7825 Q352.5625,403.8763 353.25,404.9544 Q353.9375,406.0169 355.2813,406.0169 Q355.9063,406.0169 356.5,405.7513 Q357.0938,405.47 357.7188,404.8919 L357.7188,407.6106 Z " fill="#000000"/><text fill="#000000" font-family="sans-serif" font-size="14" lengthAdjust="spacing" textLength="232.0664" x="368.75" y="406.8167">FreeDrinksMembershipDecorator</text><line style="stroke:#181818;stroke-width:0.5;" x1="340.75" x2="602.8164" y1="417.97" y2="417.97"/><line style="stroke:#181818;stroke-width:0.5;" x1="340.75" x2="602.8164" y1="425.97" y2="425.97"/><ellipse cx="350.75" cy="439.6184" fill="#84BE84" rx="3" ry="3" style="stroke:#038048;stroke-width:1;"/><text fill="#000000" font-family="sans-serif" font-size="14" lengthAdjust="spacing" textLength="105.6563" x="359.75" y="442.9651">getCost(): float</text><ellipse cx="350.75" cy="455.9153" fill="#84BE84" rx="3" ry="3" style="stroke:#038048;stroke-width:1;"/><text fill="#000000" font-family="sans-serif" font-size="14" lengthAdjust="spacing" textLength="186.5254" x="359.75" y="459.262">getCancellationFee(): float</text><ellipse cx="350.75" cy="472.2122" fill="#84BE84" rx="3" ry="3" style="stroke:#038048;stroke-width:1;"/><text fill="#000000" font-family="sans-serif" font-size="14" lengthAdjust="spacing" textLength="215.5576" x="359.75" y="475.5589">getDiscountPercentage(): float</text><ellipse cx="350.75" cy="488.5091" fill="#84BE84" rx="3" ry="3" style="stroke:#038048;stroke-width:1;"/><text fill="#000000" font-family="sans-serif" font-size="14" lengthAdjust="spacing" textLength="188.5078" x="359.75" y="491.8557">getBenefits(): List&lt;string&gt;</text></g><!--class GroupExercisesMembershipDecorator--><g id="elem_GroupExercisesMembershipDecorator"><rect codeLine="38" fill="#F1F1F1" height="113.1875" id="GroupExercisesMembershipDecorator" rx="2.5" ry="2.5" style="stroke:#181818;stroke-width:0.5;" width="297.5488" x="639" y="385.97"/><ellipse cx="654" cy="401.97" fill="#ADD1B2" rx="11" ry="11" style="stroke:#181818;stroke-width:1;"/><path d="M656.9688,407.6106 Q656.3906,407.9075 655.75,408.0481 Q655.1094,408.2044 654.4063,408.2044 Q651.9063,408.2044 650.5781,406.5638 Q649.2656,404.9075 649.2656,401.7825 Q649.2656,398.6575 650.5781,397.0013 Q651.9063,395.345 654.4063,395.345 Q655.1094,395.345 655.75,395.5013 Q656.4063,395.6575 656.9688,395.9544 L656.9688,398.6731 Q656.3438,398.095 655.75,397.8294 Q655.1563,397.5481 654.5313,397.5481 Q653.1875,397.5481 652.5,398.6263 Q651.8125,399.6888 651.8125,401.7825 Q651.8125,403.8763 652.5,404.9544 Q653.1875,406.0169 654.5313,406.0169 Q655.1563,406.0169 655.75,405.7513 Q656.3438,405.47 656.9688,404.8919 L656.9688,407.6106 Z " fill="#000000"/><text fill="#000000" font-family="sans-serif" font-size="14" lengthAdjust="spacing" textLength="265.5488" x="668" y="406.8167">GroupExercisesMembershipDecorator</text><line style="stroke:#181818;stroke-width:0.5;" x1="640" x2="935.5488" y1="417.97" y2="417.97"/><line style="stroke:#181818;stroke-width:0.5;" x1="640" x2="935.5488" y1="425.97" y2="425.97"/><ellipse cx="650" cy="439.6184" fill="#84BE84" rx="3" ry="3" style="stroke:#038048;stroke-width:1;"/><text fill="#000000" font-family="sans-serif" font-size="14" lengthAdjust="spacing" textLength="105.6563" x="659" y="442.9651">getCost(): float</text><ellipse cx="650" cy="455.9153" fill="#84BE84" rx="3" ry="3" style="stroke:#038048;stroke-width:1;"/><text fill="#000000" font-family="sans-serif" font-size="14" lengthAdjust="spacing" textLength="186.5254" x="659" y="459.262">getCancellationFee(): float</text><ellipse cx="650" cy="472.2122" fill="#84BE84" rx="3" ry="3" style="stroke:#038048;stroke-width:1;"/><text fill="#000000" font-family="sans-serif" font-size="14" lengthAdjust="spacing" textLength="215.5576" x="659" y="475.5589">getDiscountPercentage(): float</text><ellipse cx="650" cy="488.5091" fill="#84BE84" rx="3" ry="3" style="stroke:#038048;stroke-width:1;"/><text fill="#000000" font-family="sans-serif" font-size="14" lengthAdjust="spacing" textLength="188.5078" x="659" y="491.8557">getBenefits(): List&lt;string&gt;</text></g><!--link Membership to MembershipDecorator--><g id="link_Membership_MembershipDecorator"><path codeLine="45" d="M459.674,126.5811 C458.664,145.1411 458.4275,148.0849 458.9875,167.6949 " fill="none" id="Membership-MembershipDecorator" style="stroke:#181818;stroke-width:1;"/><polygon fill="#181818" points="460,120.59,455.5169,129.3594,459.7283,125.5826,463.5051,129.7941,460,120.59" style="stroke:#181818;stroke-width:1;"/><polygon fill="none" points="459.33,179.69,463.1571,173.5783,458.9875,167.6949,455.1604,173.8066,459.33,179.69" style="stroke:#181818;stroke-width:1;"/></g><!--reverse link Membership to MembershipDecorator--><g id="link_Membership_MembershipDecorator"><path codeLine="46" d="M485.286,138.5602 C486.356,157.1202 485.55,160.08 484.96,179.69 " fill="none" id="Membership-backto-MembershipDecorator" style="stroke:#181818;stroke-width:1;stroke-dasharray:7.0,7.0;"/><polygon fill="none" points="484.25,120.59,479.2959,138.9055,491.276,138.2148,484.25,120.59" style="stroke:#181818;stroke-width:1;"/></g><!--reverse link MembershipDecorator to PoolAccessMembershipDecorator--><g id="link_MembershipDecorator_PoolAccessMembershipDecorator"><path codeLine="47" d="M340.9547,335.8378 C309.4247,355.5378 291.02,367.05 261.19,385.69 " fill="none" id="MembershipDecorator-backto-PoolAccessMembershipDecorator" style="stroke:#181818;stroke-width:1;"/><polygon fill="none" points="356.22,326.3,337.7754,330.7494,344.1339,340.9262,356.22,326.3" style="stroke:#181818;stroke-width:1;"/></g><!--reverse link MembershipDecorator to FreeDrinksMembershipDecorator--><g id="link_MembershipDecorator_FreeDrinksMembershipDecorator"><path codeLine="48" d="M471.78,344.3 C471.78,364 471.78,367.05 471.78,385.69 " fill="none" id="MembershipDecorator-backto-FreeDrinksMembershipDecorator" style="stroke:#181818;stroke-width:1;"/><polygon fill="none" points="471.78,326.3,465.78,344.3,477.78,344.3,471.78,326.3" style="stroke:#181818;stroke-width:1;"/></g><!--reverse link MembershipDecorator to GroupExercisesMembershipDecorator--><g id="link_MembershipDecorator_GroupExercisesMembershipDecorator"><path codeLine="49" d="M608.9812,335.4833 C642.1912,355.1833 662.18,367.05 693.6,385.69 " fill="none" id="MembershipDecorator-backto-GroupExercisesMembershipDecorator" style="stroke:#181818;stroke-width:1;"/><polygon fill="none" points="593.5,326.3,605.92,340.6437,612.0423,330.323,593.5,326.3" style="stroke:#181818;stroke-width:1;"/></g><!--reverse link Membership to GenericMembership--><g id="link_Membership_GenericMembership"><path codeLine="50" d="M353.2258,129.2055 C309.4758,153.0555 274.35,172.2 230.59,196.05 " fill="none" id="Membership-backto-GenericMembership" style="stroke:#181818;stroke-width:1;stroke-dasharray:7.0,7.0;"/><polygon fill="none" points="369.03,120.59,350.354,123.9375,356.0977,134.4736,369.03,120.59" style="stroke:#181818;stroke-width:1;"/></g><!--SRC=[pPJ1QiCm38RlUGf3BoqZVO0G1blJzh91Ny4JIYhgMaLIOB3ktPT1MJFgj5VxAFs_-NvRDaL3QJsWUyVZ1uhkwUI-2ZUi9zUXhLXjlgXS6zZRgEmZO0ZUYEC6CQ5eI87xQ3iKm6Y-IubUCM9Bfh-jDrAhrOHYzrny5mK4h-gsWq88yeIxKZK8BDvOBdWpT_phLIFTPVU4SPusBF99ksCEBm2eEfqx2z2D83P3xP0xw5QuFwq_Xqr8CL_OqUEhov9Jq_jFSruk7sYk0UjpMTwVh6dRtNkUjZqyzPimDv_G3m00]--></g></svg>