<?xml version="1.0" encoding="UTF-8" standalone="no"?><svg xmlns="http://www.w3.org/2000/svg" xmlns:xlink="http://www.w3.org/1999/xlink" contentStyleType="text/css" height="637px" preserveAspectRatio="none" style="width:1217px;height:637px;background:#FFFFFF;" version="1.1" viewBox="0 0 1217 637" width="1217px" zoomAndPan="magnify"><defs/><g><!--class Exercise--><g id="elem_Exercise"><rect codeLine="1" fill="#F1F1F1" height="83.2188" id="Exercise" rx="2.5" ry="2.5" style="stroke:#181818;stroke-width:0.5;" width="207" x="235.5" y="24.5"/><ellipse cx="308.25" cy="40.5" fill="#A9DCDF" rx="11" ry="11" style="stroke:#181818;stroke-width:1.0;"/><path d="M310.4375,42.2656 L306.2969,42.2656 L305.875,43.2969 L306.2969,43.2969 Q306.9063,43.2969 307.1719,43.5313 Q307.4375,43.7656 307.4375,44.1563 Q307.4375,44.5313 307.1719,44.7656 Q306.9063,45 306.2969,45 L304,45 Q303.3906,45 303.1406,44.7656 Q302.875,44.5313 302.875,44.1406 Q302.875,43.7656 303.1563,43.5313 Q303.4219,43.2813 304.0469,43.2969 L306.7188,36.6406 L305.6094,36.6406 Q305,36.6406 304.7344,36.4063 Q304.4688,36.1719 304.4688,35.7813 Q304.4688,35.4063 304.7344,35.1719 Q305,34.9375 305.6094,34.9375 L309.2813,34.9375 L312.6719,43.2969 Q313.2656,43.2969 313.4531,43.4375 Q313.8438,43.7031 313.8438,44.1563 Q313.8438,44.5313 313.5781,44.7656 Q313.3281,45 312.7188,45 L310.4219,45 Q309.8125,45 309.5469,44.7656 Q309.2813,44.5313 309.2813,44.1406 Q309.2813,43.7656 309.5469,43.5313 Q309.8125,43.2969 310.4219,43.2969 L310.8438,43.2969 L310.4375,42.2656 Z M309.7188,40.5625 L308.3594,37.1875 L306.9844,40.5625 L309.7188,40.5625 Z " fill="#000000"/><text fill="#000000" font-family="sans-serif" font-size="14" font-style="italic" lengthAdjust="spacing" textLength="53" x="328.75" y="46.2285">Exercise</text><line style="stroke:#181818;stroke-width:0.5;" x1="236.5" x2="441.5" y1="56.5" y2="56.5"/><ellipse cx="246.5" cy="70.8047" fill="none" rx="3" ry="3" style="stroke:#038048;stroke-width:1.0;"/><text fill="#000000" font-family="sans-serif" font-size="14" lengthAdjust="spacing" textLength="181" x="255.5" y="75.0332">exerciseType : ExerciseType</text><line style="stroke:#181818;stroke-width:0.5;" x1="236.5" x2="441.5" y1="82.1094" y2="82.1094"/><ellipse cx="246.5" cy="96.4141" fill="#84BE84" rx="3" ry="3" style="stroke:#038048;stroke-width:1.0;"/><text fill="#000000" font-family="sans-serif" font-size="14" lengthAdjust="spacing" textLength="115" x="255.5" y="100.6426">getExerciseType()</text></g><!--class ExerciseType--><g id="elem_ExerciseType"><rect codeLine="6" fill="#F1F1F1" height="118.4375" id="ExerciseType" rx="2.5" ry="2.5" style="stroke:#181818;stroke-width:0.5;" width="127" x="658.5" y="7"/><ellipse cx="678" cy="23" fill="#B4A7E5" rx="11" ry="11" style="stroke:#181818;stroke-width:1.0;"/><path d="M678.9531,19.6406 L678.9531,26.2969 L680.6719,26.2969 Q681.2813,26.2969 681.5469,26.5313 Q681.8125,26.7656 681.8125,27.1563 Q681.8125,27.5313 681.5469,27.7656 Q681.2813,28 680.6719,28 L675.5313,28 Q674.9219,28 674.6563,27.7656 Q674.3906,27.5313 674.3906,27.1406 Q674.3906,26.7656 674.6563,26.5313 Q674.9219,26.2969 675.5313,26.2969 L677.25,26.2969 L677.25,19.6406 L675.5313,19.6406 Q674.9219,19.6406 674.6563,19.4063 Q674.3906,19.1719 674.3906,18.7813 Q674.3906,18.4063 674.6563,18.1719 Q674.9219,17.9375 675.5313,17.9375 L680.6719,17.9375 Q681.2813,17.9375 681.5469,18.1719 Q681.8125,18.4063 681.8125,18.7813 Q681.8125,19.1719 681.5469,19.4063 Q681.2813,19.6406 680.6719,19.6406 L678.9531,19.6406 Z " fill="#000000"/><text fill="#000000" font-family="sans-serif" font-size="14" font-style="italic" lengthAdjust="spacing" textLength="85" x="693" y="28.7285">ExerciseType</text><line style="stroke:#181818;stroke-width:0.5;" x1="659.5" x2="784.5" y1="39" y2="39"/><ellipse cx="669.5" cy="53.3047" fill="none" rx="3" ry="3" style="stroke:#038048;stroke-width:1.0;"/><text fill="#000000" font-family="sans-serif" font-size="14" lengthAdjust="spacing" textLength="71" x="678.5" y="57.5332">type : Type</text><line style="stroke:#181818;stroke-width:0.5;" x1="659.5" x2="784.5" y1="64.6094" y2="64.6094"/><ellipse cx="669.5" cy="78.9141" fill="#84BE84" rx="3" ry="3" style="stroke:#038048;stroke-width:1.0;"/><text fill="#000000" font-family="sans-serif" font-size="14" lengthAdjust="spacing" textLength="62" x="678.5" y="83.1426">getType()</text><ellipse cx="669.5" cy="96.5234" fill="#84BE84" rx="3" ry="3" style="stroke:#038048;stroke-width:1.0;"/><text fill="#000000" font-family="sans-serif" font-size="14" lengthAdjust="spacing" textLength="101" x="678.5" y="100.752">getDescription()</text><ellipse cx="669.5" cy="114.1328" fill="#84BE84" rx="3" ry="3" style="stroke:#038048;stroke-width:1.0;"/><text fill="#000000" font-family="sans-serif" font-size="14" lengthAdjust="spacing" textLength="95" x="678.5" y="118.3613">getTutorialUrl()</text></g><!--class OutdoorExercise--><g id="elem_OutdoorExercise"><rect codeLine="14" fill="#F1F1F1" height="118.4375" id="OutdoorExercise" rx="2.5" ry="2.5" style="stroke:#181818;stroke-width:0.5;" width="198" x="7" y="259.5"/><ellipse cx="49.45" cy="275.5" fill="#ADD1B2" rx="11" ry="11" style="stroke:#181818;stroke-width:1.0;"/><path d="M52.2156,271.375 Q52.3719,271.1563 52.5594,271.0469 Q52.7469,270.9375 52.9656,270.9375 Q53.3406,270.9375 53.575,271.2031 Q53.8094,271.4531 53.8094,272.0625 L53.8094,273.5156 Q53.8094,274.125 53.575,274.3906 Q53.3406,274.6563 52.9656,274.6563 Q52.6219,274.6563 52.4188,274.4531 Q52.2156,274.2656 52.1063,273.75 Q52.0594,273.3906 51.8719,273.2031 Q51.5438,272.8281 50.9344,272.6094 Q50.325,272.3906 49.7,272.3906 Q48.9344,272.3906 48.2938,272.7188 Q47.6688,273.0469 47.1688,273.7969 Q46.6844,274.5469 46.6844,275.5781 L46.6844,276.6719 Q46.6844,277.9063 47.575,278.7344 Q48.4656,279.5469 50.0594,279.5469 Q50.9969,279.5469 51.6531,279.2969 Q52.0438,279.1406 52.4656,278.7031 Q52.7313,278.4375 52.8719,278.3594 Q53.0281,278.2813 53.2313,278.2813 Q53.5594,278.2813 53.8094,278.5469 Q54.075,278.7969 54.075,279.1406 Q54.075,279.4844 53.7313,279.8906 Q53.2313,280.4688 52.4344,280.7969 Q51.3563,281.25 50.0594,281.25 Q48.5438,281.25 47.3406,280.625 Q46.3563,280.125 45.6688,279.0625 Q44.9813,277.9844 44.9813,276.7031 L44.9813,275.5469 Q44.9813,274.2188 45.5906,273.0781 Q46.2156,271.9219 47.3094,271.3125 Q48.4031,270.6875 49.6375,270.6875 Q50.3719,270.6875 51.0125,270.8594 Q51.6688,271.0156 52.2156,271.375 Z " fill="#000000"/><text fill="#000000" font-family="sans-serif" font-size="14" lengthAdjust="spacing" textLength="105" x="69.55" y="281.2285">OutdoorExercise</text><line style="stroke:#181818;stroke-width:0.5;" x1="8" x2="204" y1="291.5" y2="291.5"/><rect fill="none" height="6" style="stroke:#C82930;stroke-width:1.0;" width="6" x="15" y="302.8047"/><text fill="#000000" font-family="sans-serif" font-size="14" lengthAdjust="spacing" textLength="84" x="27" y="310.0332">name : String</text><rect fill="none" height="6" style="stroke:#C82930;stroke-width:1.0;" width="6" x="15" y="320.4141"/><text fill="#000000" font-family="sans-serif" font-size="14" lengthAdjust="spacing" textLength="154" x="27" y="327.6426">preferredTerrain : String</text><line style="stroke:#181818;stroke-width:0.5;" x1="8" x2="204" y1="334.7188" y2="334.7188"/><ellipse cx="18" cy="349.0234" fill="#84BE84" rx="3" ry="3" style="stroke:#038048;stroke-width:1.0;"/><text fill="#000000" font-family="sans-serif" font-size="14" lengthAdjust="spacing" textLength="172" x="27" y="353.252">getExerciseDataSummary()</text><ellipse cx="18" cy="366.6328" fill="#84BE84" rx="3" ry="3" style="stroke:#038048;stroke-width:1.0;"/><text fill="#000000" font-family="sans-serif" font-size="14" lengthAdjust="spacing" textLength="148" x="27" y="370.8613">getExerciseTutorialUrl()</text></g><!--class IndoorExercise--><g id="elem_IndoorExercise"><rect codeLine="21" fill="#F1F1F1" height="100.8281" id="IndoorExercise" rx="2.5" ry="2.5" style="stroke:#181818;stroke-width:0.5;" width="198" x="240" y="268"/><ellipse cx="288.25" cy="284" fill="#ADD1B2" rx="11" ry="11" style="stroke:#181818;stroke-width:1.0;"/><path d="M291.0156,279.875 Q291.1719,279.6563 291.3594,279.5469 Q291.5469,279.4375 291.7656,279.4375 Q292.1406,279.4375 292.375,279.7031 Q292.6094,279.9531 292.6094,280.5625 L292.6094,282.0156 Q292.6094,282.625 292.375,282.8906 Q292.1406,283.1563 291.7656,283.1563 Q291.4219,283.1563 291.2188,282.9531 Q291.0156,282.7656 290.9063,282.25 Q290.8594,281.8906 290.6719,281.7031 Q290.3438,281.3281 289.7344,281.1094 Q289.125,280.8906 288.5,280.8906 Q287.7344,280.8906 287.0938,281.2188 Q286.4688,281.5469 285.9688,282.2969 Q285.4844,283.0469 285.4844,284.0781 L285.4844,285.1719 Q285.4844,286.4063 286.375,287.2344 Q287.2656,288.0469 288.8594,288.0469 Q289.7969,288.0469 290.4531,287.7969 Q290.8438,287.6406 291.2656,287.2031 Q291.5313,286.9375 291.6719,286.8594 Q291.8281,286.7813 292.0313,286.7813 Q292.3594,286.7813 292.6094,287.0469 Q292.875,287.2969 292.875,287.6406 Q292.875,287.9844 292.5313,288.3906 Q292.0313,288.9688 291.2344,289.2969 Q290.1563,289.75 288.8594,289.75 Q287.3438,289.75 286.1406,289.125 Q285.1563,288.625 284.4688,287.5625 Q283.7813,286.4844 283.7813,285.2031 L283.7813,284.0469 Q283.7813,282.7188 284.3906,281.5781 Q285.0156,280.4219 286.1094,279.8125 Q287.2031,279.1875 288.4375,279.1875 Q289.1719,279.1875 289.8125,279.3594 Q290.4688,279.5156 291.0156,279.875 Z " fill="#000000"/><text fill="#000000" font-family="sans-serif" font-size="14" lengthAdjust="spacing" textLength="93" x="308.75" y="289.7285">IndoorExercise</text><line style="stroke:#181818;stroke-width:0.5;" x1="241" x2="437" y1="300" y2="300"/><rect fill="none" height="6" style="stroke:#C82930;stroke-width:1.0;" width="6" x="248" y="311.3047"/><text fill="#000000" font-family="sans-serif" font-size="14" lengthAdjust="spacing" textLength="84" x="260" y="318.5332">name : String</text><line style="stroke:#181818;stroke-width:0.5;" x1="241" x2="437" y1="325.6094" y2="325.6094"/><ellipse cx="251" cy="339.9141" fill="#84BE84" rx="3" ry="3" style="stroke:#038048;stroke-width:1.0;"/><text fill="#000000" font-family="sans-serif" font-size="14" lengthAdjust="spacing" textLength="172" x="260" y="344.1426">getExerciseDataSummary()</text><ellipse cx="251" cy="357.5234" fill="#84BE84" rx="3" ry="3" style="stroke:#038048;stroke-width:1.0;"/><text fill="#000000" font-family="sans-serif" font-size="14" lengthAdjust="spacing" textLength="148" x="260" y="361.752">getExerciseTutorialUrl()</text></g><!--class GeneralExercise--><g id="elem_GeneralExercise"><rect codeLine="29" fill="#F1F1F1" height="249.7031" id="GeneralExercise" rx="2.5" ry="2.5" style="stroke:#181818;stroke-width:0.5;" width="195" x="775.5" y="193.5"/><ellipse cx="817.05" cy="209.5" fill="#ADD1B2" rx="11" ry="11" style="stroke:#181818;stroke-width:1.0;"/><path d="M819.8156,205.375 Q819.9719,205.1563 820.1594,205.0469 Q820.3469,204.9375 820.5656,204.9375 Q820.9406,204.9375 821.175,205.2031 Q821.4094,205.4531 821.4094,206.0625 L821.4094,207.5156 Q821.4094,208.125 821.175,208.3906 Q820.9406,208.6563 820.5656,208.6563 Q820.2219,208.6563 820.0188,208.4531 Q819.8156,208.2656 819.7063,207.75 Q819.6594,207.3906 819.4719,207.2031 Q819.1438,206.8281 818.5344,206.6094 Q817.925,206.3906 817.3,206.3906 Q816.5344,206.3906 815.8938,206.7188 Q815.2688,207.0469 814.7688,207.7969 Q814.2844,208.5469 814.2844,209.5781 L814.2844,210.6719 Q814.2844,211.9063 815.175,212.7344 Q816.0656,213.5469 817.6594,213.5469 Q818.5969,213.5469 819.2531,213.2969 Q819.6438,213.1406 820.0656,212.7031 Q820.3313,212.4375 820.4719,212.3594 Q820.6281,212.2813 820.8313,212.2813 Q821.1594,212.2813 821.4094,212.5469 Q821.675,212.7969 821.675,213.1406 Q821.675,213.4844 821.3313,213.8906 Q820.8313,214.4688 820.0344,214.7969 Q818.9563,215.25 817.6594,215.25 Q816.1438,215.25 814.9406,214.625 Q813.9563,214.125 813.2688,213.0625 Q812.5813,211.9844 812.5813,210.7031 L812.5813,209.5469 Q812.5813,208.2188 813.1906,207.0781 Q813.8156,205.9219 814.9094,205.3125 Q816.0031,204.6875 817.2375,204.6875 Q817.9719,204.6875 818.6125,204.8594 Q819.2688,205.0156 819.8156,205.375 Z " fill="#000000"/><text fill="#000000" font-family="sans-serif" font-size="14" lengthAdjust="spacing" textLength="104" x="836.95" y="215.2285">GeneralExercise</text><line style="stroke:#181818;stroke-width:0.5;" x1="776.5" x2="969.5" y1="225.5" y2="225.5"/><rect fill="none" height="6" style="stroke:#C82930;stroke-width:1.0;" width="6" x="783.5" y="236.8047"/><text fill="#000000" font-family="sans-serif" font-size="14" lengthAdjust="spacing" textLength="71" x="795.5" y="244.0332">type : Type</text><rect fill="none" height="6" style="stroke:#C82930;stroke-width:1.0;" width="6" x="783.5" y="254.4141"/><text fill="#000000" font-family="sans-serif" font-size="14" lengthAdjust="spacing" textLength="84" x="795.5" y="261.6426">name : String</text><rect fill="none" height="6" style="stroke:#C82930;stroke-width:1.0;" width="6" x="783.5" y="272.0234"/><text fill="#000000" font-family="sans-serif" font-size="14" lengthAdjust="spacing" textLength="169" x="795.5" y="279.252">difficulty : ExerciseDifficulty</text><rect fill="none" height="6" style="stroke:#C82930;stroke-width:1.0;" width="6" x="783.5" y="289.6328"/><text fill="#000000" font-family="sans-serif" font-size="14" lengthAdjust="spacing" textLength="118" x="795.5" y="296.8613">description : String</text><rect fill="none" height="6" style="stroke:#C82930;stroke-width:1.0;" width="6" x="783.5" y="307.2422"/><text fill="#000000" font-family="sans-serif" font-size="14" lengthAdjust="spacing" textLength="79" x="795.5" y="314.4707">duration : int</text><rect fill="none" height="6" style="stroke:#C82930;stroke-width:1.0;" width="6" x="783.5" y="324.8516"/><text fill="#000000" font-family="sans-serif" font-size="14" lengthAdjust="spacing" textLength="154" x="795.5" y="332.0801">preferredTerrain : String</text><rect fill="none" height="6" style="stroke:#C82930;stroke-width:1.0;" width="6" x="783.5" y="342.4609"/><text fill="#000000" font-family="sans-serif" font-size="14" lengthAdjust="spacing" textLength="109" x="795.5" y="349.6895">tutorialUrl : String</text><line style="stroke:#181818;stroke-width:1.0;" x1="776.5" x2="969.5" y1="356.7656" y2="356.7656"/><ellipse cx="786.5" cy="371.0703" fill="#84BE84" rx="3" ry="3" style="stroke:#038048;stroke-width:1.0;"/><text fill="#000000" font-family="sans-serif" font-size="14" lengthAdjust="spacing" textLength="62" x="795.5" y="375.2988">getType()</text><ellipse cx="786.5" cy="388.6797" fill="#84BE84" rx="3" ry="3" style="stroke:#038048;stroke-width:1.0;"/><text fill="#000000" font-family="sans-serif" font-size="14" lengthAdjust="spacing" textLength="101" x="795.5" y="392.9082">getDescription()</text><ellipse cx="786.5" cy="406.2891" fill="#84BE84" rx="3" ry="3" style="stroke:#038048;stroke-width:1.0;"/><text fill="#000000" font-family="sans-serif" font-size="14" lengthAdjust="spacing" textLength="95" x="795.5" y="410.5176">getTutorialUrl()</text><line style="stroke:#181818;stroke-width:1.0;" x1="776.5" x2="969.5" y1="417.5938" y2="417.5938"/><text fill="#000000" font-family="sans-serif" font-size="14" lengthAdjust="spacing" textLength="131" x="781.5" y="436.127">getters and setters...</text></g><!--class SportExercise--><g id="elem_SportExercise"><rect codeLine="45" fill="#F1F1F1" height="267.3125" id="SportExercise" rx="2.5" ry="2.5" style="stroke:#181818;stroke-width:0.5;" width="195" x="473.5" y="185"/><ellipse cx="523.25" cy="201" fill="#ADD1B2" rx="11" ry="11" style="stroke:#181818;stroke-width:1.0;"/><path d="M526.0156,196.875 Q526.1719,196.6563 526.3594,196.5469 Q526.5469,196.4375 526.7656,196.4375 Q527.1406,196.4375 527.375,196.7031 Q527.6094,196.9531 527.6094,197.5625 L527.6094,199.0156 Q527.6094,199.625 527.375,199.8906 Q527.1406,200.1563 526.7656,200.1563 Q526.4219,200.1563 526.2188,199.9531 Q526.0156,199.7656 525.9063,199.25 Q525.8594,198.8906 525.6719,198.7031 Q525.3438,198.3281 524.7344,198.1094 Q524.125,197.8906 523.5,197.8906 Q522.7344,197.8906 522.0938,198.2188 Q521.4688,198.5469 520.9688,199.2969 Q520.4844,200.0469 520.4844,201.0781 L520.4844,202.1719 Q520.4844,203.4063 521.375,204.2344 Q522.2656,205.0469 523.8594,205.0469 Q524.7969,205.0469 525.4531,204.7969 Q525.8438,204.6406 526.2656,204.2031 Q526.5313,203.9375 526.6719,203.8594 Q526.8281,203.7813 527.0313,203.7813 Q527.3594,203.7813 527.6094,204.0469 Q527.875,204.2969 527.875,204.6406 Q527.875,204.9844 527.5313,205.3906 Q527.0313,205.9688 526.2344,206.2969 Q525.1563,206.75 523.8594,206.75 Q522.3438,206.75 521.1406,206.125 Q520.1563,205.625 519.4688,204.5625 Q518.7813,203.4844 518.7813,202.2031 L518.7813,201.0469 Q518.7813,199.7188 519.3906,198.5781 Q520.0156,197.4219 521.1094,196.8125 Q522.2031,196.1875 523.4375,196.1875 Q524.1719,196.1875 524.8125,196.3594 Q525.4688,196.5156 526.0156,196.875 Z " fill="#000000"/><text fill="#000000" font-family="sans-serif" font-size="14" lengthAdjust="spacing" textLength="87" x="543.75" y="206.7285">SportExercise</text><line style="stroke:#181818;stroke-width:0.5;" x1="474.5" x2="667.5" y1="217" y2="217"/><rect fill="none" height="6" style="stroke:#C82930;stroke-width:1.0;" width="6" x="481.5" y="228.3047"/><text fill="#000000" font-family="sans-serif" font-size="14" lengthAdjust="spacing" textLength="71" x="493.5" y="235.5332">type : Type</text><rect fill="none" height="6" style="stroke:#C82930;stroke-width:1.0;" width="6" x="481.5" y="245.9141"/><text fill="#000000" font-family="sans-serif" font-size="14" lengthAdjust="spacing" textLength="84" x="493.5" y="253.1426">name : String</text><rect fill="none" height="6" style="stroke:#C82930;stroke-width:1.0;" width="6" x="481.5" y="263.5234"/><text fill="#000000" font-family="sans-serif" font-size="14" lengthAdjust="spacing" textLength="78" x="493.5" y="270.752">sport : Sport</text><rect fill="none" height="6" style="stroke:#C82930;stroke-width:1.0;" width="6" x="481.5" y="281.1328"/><text fill="#000000" font-family="sans-serif" font-size="14" lengthAdjust="spacing" textLength="169" x="493.5" y="288.3613">difficulty : ExerciseDifficulty</text><rect fill="none" height="6" style="stroke:#C82930;stroke-width:1.0;" width="6" x="481.5" y="298.7422"/><text fill="#000000" font-family="sans-serif" font-size="14" lengthAdjust="spacing" textLength="118" x="493.5" y="305.9707">description : String</text><rect fill="none" height="6" style="stroke:#C82930;stroke-width:1.0;" width="6" x="481.5" y="316.3516"/><text fill="#000000" font-family="sans-serif" font-size="14" lengthAdjust="spacing" textLength="79" x="493.5" y="323.5801">duration : int</text><rect fill="none" height="6" style="stroke:#C82930;stroke-width:1.0;" width="6" x="481.5" y="333.9609"/><text fill="#000000" font-family="sans-serif" font-size="14" lengthAdjust="spacing" textLength="154" x="493.5" y="341.1895">preferredTerrain : String</text><rect fill="none" height="6" style="stroke:#C82930;stroke-width:1.0;" width="6" x="481.5" y="351.5703"/><text fill="#000000" font-family="sans-serif" font-size="14" lengthAdjust="spacing" textLength="109" x="493.5" y="358.7988">tutorialUrl : String</text><line style="stroke:#181818;stroke-width:1.0;" x1="474.5" x2="667.5" y1="365.875" y2="365.875"/><ellipse cx="484.5" cy="380.1797" fill="#84BE84" rx="3" ry="3" style="stroke:#038048;stroke-width:1.0;"/><text fill="#000000" font-family="sans-serif" font-size="14" lengthAdjust="spacing" textLength="62" x="493.5" y="384.4082">getType()</text><ellipse cx="484.5" cy="397.7891" fill="#84BE84" rx="3" ry="3" style="stroke:#038048;stroke-width:1.0;"/><text fill="#000000" font-family="sans-serif" font-size="14" lengthAdjust="spacing" textLength="101" x="493.5" y="402.0176">getDescription()</text><ellipse cx="484.5" cy="415.3984" fill="#84BE84" rx="3" ry="3" style="stroke:#038048;stroke-width:1.0;"/><text fill="#000000" font-family="sans-serif" font-size="14" lengthAdjust="spacing" textLength="95" x="493.5" y="419.627">getTutorialUrl()</text><line style="stroke:#181818;stroke-width:1.0;" x1="474.5" x2="667.5" y1="426.7031" y2="426.7031"/><text fill="#000000" font-family="sans-serif" font-size="14" lengthAdjust="spacing" textLength="131" x="479.5" y="445.2363">getters and setters...</text></g><!--class RehabilitationExercise--><g id="elem_RehabilitationExercise"><rect codeLine="62" fill="#F1F1F1" height="267.3125" id="RehabilitationExercise" rx="2.5" ry="2.5" style="stroke:#181818;stroke-width:0.5;" width="205" x="1005.5" y="185"/><ellipse cx="1035.8" cy="201" fill="#ADD1B2" rx="11" ry="11" style="stroke:#181818;stroke-width:1.0;"/><path d="M1038.5656,196.875 Q1038.7219,196.6563 1038.9094,196.5469 Q1039.0969,196.4375 1039.3156,196.4375 Q1039.6906,196.4375 1039.925,196.7031 Q1040.1594,196.9531 1040.1594,197.5625 L1040.1594,199.0156 Q1040.1594,199.625 1039.925,199.8906 Q1039.6906,200.1563 1039.3156,200.1563 Q1038.9719,200.1563 1038.7688,199.9531 Q1038.5656,199.7656 1038.4563,199.25 Q1038.4094,198.8906 1038.2219,198.7031 Q1037.8938,198.3281 1037.2844,198.1094 Q1036.675,197.8906 1036.05,197.8906 Q1035.2844,197.8906 1034.6438,198.2188 Q1034.0188,198.5469 1033.5188,199.2969 Q1033.0344,200.0469 1033.0344,201.0781 L1033.0344,202.1719 Q1033.0344,203.4063 1033.925,204.2344 Q1034.8156,205.0469 1036.4094,205.0469 Q1037.3469,205.0469 1038.0031,204.7969 Q1038.3938,204.6406 1038.8156,204.2031 Q1039.0813,203.9375 1039.2219,203.8594 Q1039.3781,203.7813 1039.5813,203.7813 Q1039.9094,203.7813 1040.1594,204.0469 Q1040.425,204.2969 1040.425,204.6406 Q1040.425,204.9844 1040.0813,205.3906 Q1039.5813,205.9688 1038.7844,206.2969 Q1037.7063,206.75 1036.4094,206.75 Q1034.8938,206.75 1033.6906,206.125 Q1032.7063,205.625 1032.0188,204.5625 Q1031.3313,203.4844 1031.3313,202.2031 L1031.3313,201.0469 Q1031.3313,199.7188 1031.9406,198.5781 Q1032.5656,197.4219 1033.6594,196.8125 Q1034.7531,196.1875 1035.9875,196.1875 Q1036.7219,196.1875 1037.3625,196.3594 Q1038.0188,196.5156 1038.5656,196.875 Z " fill="#000000"/><text fill="#000000" font-family="sans-serif" font-size="14" lengthAdjust="spacing" textLength="139" x="1053.2" y="206.7285">RehabilitationExercise</text><line style="stroke:#181818;stroke-width:0.5;" x1="1006.5" x2="1209.5" y1="217" y2="217"/><rect fill="none" height="6" style="stroke:#C82930;stroke-width:1.0;" width="6" x="1013.5" y="228.3047"/><text fill="#000000" font-family="sans-serif" font-size="14" lengthAdjust="spacing" textLength="71" x="1025.5" y="235.5332">type : Type</text><rect fill="none" height="6" style="stroke:#C82930;stroke-width:1.0;" width="6" x="1013.5" y="245.9141"/><text fill="#000000" font-family="sans-serif" font-size="14" lengthAdjust="spacing" textLength="84" x="1025.5" y="253.1426">name : String</text><rect fill="none" height="6" style="stroke:#C82930;stroke-width:1.0;" width="6" x="1013.5" y="263.5234"/><text fill="#000000" font-family="sans-serif" font-size="14" lengthAdjust="spacing" textLength="169" x="1025.5" y="270.752">difficulty : ExerciseDifficulty</text><rect fill="none" height="6" style="stroke:#C82930;stroke-width:1.0;" width="6" x="1013.5" y="281.1328"/><text fill="#000000" font-family="sans-serif" font-size="14" lengthAdjust="spacing" textLength="179" x="1025.5" y="288.3613">assistanceNeeded : boolean</text><rect fill="none" height="6" style="stroke:#C82930;stroke-width:1.0;" width="6" x="1013.5" y="298.7422"/><text fill="#000000" font-family="sans-serif" font-size="14" lengthAdjust="spacing" textLength="118" x="1025.5" y="305.9707">description : String</text><rect fill="none" height="6" style="stroke:#C82930;stroke-width:1.0;" width="6" x="1013.5" y="316.3516"/><text fill="#000000" font-family="sans-serif" font-size="14" lengthAdjust="spacing" textLength="79" x="1025.5" y="323.5801">duration : int</text><rect fill="none" height="6" style="stroke:#C82930;stroke-width:1.0;" width="6" x="1013.5" y="333.9609"/><text fill="#000000" font-family="sans-serif" font-size="14" lengthAdjust="spacing" textLength="154" x="1025.5" y="341.1895">preferredTerrain : String</text><rect fill="none" height="6" style="stroke:#C82930;stroke-width:1.0;" width="6" x="1013.5" y="351.5703"/><text fill="#000000" font-family="sans-serif" font-size="14" lengthAdjust="spacing" textLength="109" x="1025.5" y="358.7988">tutorialUrl : String</text><line style="stroke:#181818;stroke-width:1.0;" x1="1006.5" x2="1209.5" y1="365.875" y2="365.875"/><ellipse cx="1016.5" cy="380.1797" fill="#84BE84" rx="3" ry="3" style="stroke:#038048;stroke-width:1.0;"/><text fill="#000000" font-family="sans-serif" font-size="14" lengthAdjust="spacing" textLength="62" x="1025.5" y="384.4082">getType()</text><ellipse cx="1016.5" cy="397.7891" fill="#84BE84" rx="3" ry="3" style="stroke:#038048;stroke-width:1.0;"/><text fill="#000000" font-family="sans-serif" font-size="14" lengthAdjust="spacing" textLength="101" x="1025.5" y="402.0176">getDescription()</text><ellipse cx="1016.5" cy="415.3984" fill="#84BE84" rx="3" ry="3" style="stroke:#038048;stroke-width:1.0;"/><text fill="#000000" font-family="sans-serif" font-size="14" lengthAdjust="spacing" textLength="95" x="1025.5" y="419.627">getTutorialUrl()</text><line style="stroke:#181818;stroke-width:1.0;" x1="1006.5" x2="1209.5" y1="426.7031" y2="426.7031"/><text fill="#000000" font-family="sans-serif" font-size="14" lengthAdjust="spacing" textLength="131" x="1011.5" y="445.2363">getters and setters...</text></g><!--class ExerciseDifficulty--><g id="elem_ExerciseDifficulty"><rect codeLine="80" fill="#F1F1F1" height="118.4375" id="ExerciseDifficulty" rx="2.5" ry="2.5" style="stroke:#181818;stroke-width:0.5;" width="138" x="818" y="512"/><ellipse cx="833" cy="528" fill="#EB937F" rx="11" ry="11" style="stroke:#181818;stroke-width:1.0;"/><path d="M831.8594,528.7969 L831.8594,531.2969 L836.1875,531.2969 L836.1875,530.375 Q836.1875,529.7656 836.4219,529.5 Q836.6719,529.2344 837.0469,529.2344 Q837.4219,529.2344 837.6563,529.5 Q837.8906,529.7656 837.8906,530.375 L837.8906,533 L829.8906,533 Q829.2656,533 829,532.7656 Q828.75,532.5313 828.75,532.1406 Q828.75,531.7656 829.0156,531.5313 Q829.2813,531.2969 829.8906,531.2969 L830.1563,531.2969 L830.1563,524.6406 L829.8906,524.6406 Q829.2656,524.6406 829,524.4063 Q828.75,524.1719 828.75,523.7813 Q828.75,523.4063 829,523.1719 Q829.2656,522.9375 829.8906,522.9375 L837.5156,522.9375 L837.5156,525.5313 Q837.5156,526.1406 837.2813,526.4063 Q837.0625,526.6563 836.6719,526.6563 Q836.2969,526.6563 836.0625,526.4063 Q835.8281,526.1406 835.8281,525.5313 L835.8281,524.6406 L831.8594,524.6406 L831.8594,527.0938 L833.3438,527.0938 Q833.3438,526.4375 833.4688,526.25 Q833.7344,525.8438 834.2031,525.8438 Q834.5781,525.8438 834.8125,526.1094 Q835.0469,526.3594 835.0469,526.9688 L835.0469,528.9375 Q835.0469,529.4844 834.9219,529.6719 Q834.6563,530.0625 834.2031,530.0625 Q833.7344,530.0625 833.4688,529.6563 Q833.3438,529.4688 833.3438,528.7969 L831.8594,528.7969 Z " fill="#000000"/><text fill="#000000" font-family="sans-serif" font-size="14" lengthAdjust="spacing" textLength="106" x="847" y="533.7285">ExerciseDifficulty</text><line style="stroke:#181818;stroke-width:0.5;" x1="819" x2="955" y1="544" y2="544"/><text fill="#000000" font-family="sans-serif" font-size="14" lengthAdjust="spacing" textLength="69" x="824" y="562.5332">BEGINNER</text><text fill="#000000" font-family="sans-serif" font-size="14" lengthAdjust="spacing" textLength="100" x="824" y="580.1426">INTERMEDIATE</text><text fill="#000000" font-family="sans-serif" font-size="14" lengthAdjust="spacing" textLength="75" x="824" y="597.752">ADVANCED</text><text fill="#000000" font-family="sans-serif" font-size="14" lengthAdjust="spacing" textLength="106" x="824" y="615.3613">PROFESSIONAL</text><line style="stroke:#181818;stroke-width:0.5;" x1="819" x2="955" y1="622.4375" y2="622.4375"/></g><!--class Type--><g id="elem_Type"><rect codeLine="87" fill="#F1F1F1" height="100.8281" id="Type" rx="2.5" ry="2.5" style="stroke:#181818;stroke-width:0.5;" width="122" x="661" y="520.5"/><ellipse cx="702.1" cy="536.5" fill="#EB937F" rx="11" ry="11" style="stroke:#181818;stroke-width:1.0;"/><path d="M700.9594,537.2969 L700.9594,539.7969 L705.2875,539.7969 L705.2875,538.875 Q705.2875,538.2656 705.5219,538 Q705.7719,537.7344 706.1469,537.7344 Q706.5219,537.7344 706.7563,538 Q706.9906,538.2656 706.9906,538.875 L706.9906,541.5 L698.9906,541.5 Q698.3656,541.5 698.1,541.2656 Q697.85,541.0313 697.85,540.6406 Q697.85,540.2656 698.1156,540.0313 Q698.3813,539.7969 698.9906,539.7969 L699.2563,539.7969 L699.2563,533.1406 L698.9906,533.1406 Q698.3656,533.1406 698.1,532.9063 Q697.85,532.6719 697.85,532.2813 Q697.85,531.9063 698.1,531.6719 Q698.3656,531.4375 698.9906,531.4375 L706.6156,531.4375 L706.6156,534.0313 Q706.6156,534.6406 706.3813,534.9063 Q706.1625,535.1563 705.7719,535.1563 Q705.3969,535.1563 705.1625,534.9063 Q704.9281,534.6406 704.9281,534.0313 L704.9281,533.1406 L700.9594,533.1406 L700.9594,535.5938 L702.4438,535.5938 Q702.4438,534.9375 702.5688,534.75 Q702.8344,534.3438 703.3031,534.3438 Q703.6781,534.3438 703.9125,534.6094 Q704.1469,534.8594 704.1469,535.4688 L704.1469,537.4375 Q704.1469,537.9844 704.0219,538.1719 Q703.7563,538.5625 703.3031,538.5625 Q702.8344,538.5625 702.5688,538.1563 Q702.4438,537.9688 702.4438,537.2969 L700.9594,537.2969 Z " fill="#000000"/><text fill="#000000" font-family="sans-serif" font-size="14" lengthAdjust="spacing" textLength="32" x="721.9" y="542.2285">Type</text><line style="stroke:#181818;stroke-width:0.5;" x1="662" x2="782" y1="552.5" y2="552.5"/><text fill="#000000" font-family="sans-serif" font-size="14" lengthAdjust="spacing" textLength="65" x="667" y="571.0332">GENERAL</text><text fill="#000000" font-family="sans-serif" font-size="14" lengthAdjust="spacing" textLength="48" x="667" y="588.6426">SPORT</text><text fill="#000000" font-family="sans-serif" font-size="14" lengthAdjust="spacing" textLength="110" x="667" y="606.252">REHABILITATION</text><line style="stroke:#181818;stroke-width:0.5;" x1="662" x2="782" y1="613.3281" y2="613.3281"/></g><!--class Sport--><g id="elem_Sport"><rect codeLine="93" fill="#F1F1F1" height="118.4375" id="Sport" rx="2.5" ry="2.5" style="stroke:#181818;stroke-width:0.5;" width="100" x="521" y="512"/><ellipse cx="551.3" cy="528" fill="#EB937F" rx="11" ry="11" style="stroke:#181818;stroke-width:1.0;"/><path d="M550.1594,528.7969 L550.1594,531.2969 L554.4875,531.2969 L554.4875,530.375 Q554.4875,529.7656 554.7219,529.5 Q554.9719,529.2344 555.3469,529.2344 Q555.7219,529.2344 555.9563,529.5 Q556.1906,529.7656 556.1906,530.375 L556.1906,533 L548.1906,533 Q547.5656,533 547.3,532.7656 Q547.05,532.5313 547.05,532.1406 Q547.05,531.7656 547.3156,531.5313 Q547.5813,531.2969 548.1906,531.2969 L548.4563,531.2969 L548.4563,524.6406 L548.1906,524.6406 Q547.5656,524.6406 547.3,524.4063 Q547.05,524.1719 547.05,523.7813 Q547.05,523.4063 547.3,523.1719 Q547.5656,522.9375 548.1906,522.9375 L555.8156,522.9375 L555.8156,525.5313 Q555.8156,526.1406 555.5813,526.4063 Q555.3625,526.6563 554.9719,526.6563 Q554.5969,526.6563 554.3625,526.4063 Q554.1281,526.1406 554.1281,525.5313 L554.1281,524.6406 L550.1594,524.6406 L550.1594,527.0938 L551.6438,527.0938 Q551.6438,526.4375 551.7688,526.25 Q552.0344,525.8438 552.5031,525.8438 Q552.8781,525.8438 553.1125,526.1094 Q553.3469,526.3594 553.3469,526.9688 L553.3469,528.9375 Q553.3469,529.4844 553.2219,529.6719 Q552.9563,530.0625 552.5031,530.0625 Q552.0344,530.0625 551.7688,529.6563 Q551.6438,529.4688 551.6438,528.7969 L550.1594,528.7969 Z " fill="#000000"/><text fill="#000000" font-family="sans-serif" font-size="14" lengthAdjust="spacing" textLength="34" x="568.7" y="533.7285">Sport</text><line style="stroke:#181818;stroke-width:0.5;" x1="522" x2="620" y1="544" y2="544"/><text fill="#000000" font-family="sans-serif" font-size="14" lengthAdjust="spacing" textLength="74" x="527" y="562.5332">FOOTBALL</text><text fill="#000000" font-family="sans-serif" font-size="14" lengthAdjust="spacing" textLength="88" x="527" y="580.1426">BASKETBALL</text><text fill="#000000" font-family="sans-serif" font-size="14" lengthAdjust="spacing" textLength="60" x="527" y="597.752">RUNNING</text><text fill="#000000" font-family="sans-serif" font-size="14" lengthAdjust="spacing" textLength="88" x="527" y="615.3613">VOLLEYBALL</text><line style="stroke:#181818;stroke-width:0.5;" x1="522" x2="620" y1="622.4375" y2="622.4375"/></g><!--reverse link Exercise to OutdoorExercise--><g id="link_Exercise_OutdoorExercise"><path d="M283.05,122.01 C263.47,141.63 241.51,164.06 222,185 C199.7,208.93 175.77,236.01 155.48,259.42 " fill="none" id="Exercise-backto-OutdoorExercise" style="stroke:#181818;stroke-width:1.0;"/><polygon fill="none" points="278.38,116.78,297.48,107.62,288.26,126.7,278.38,116.78" style="stroke:#181818;stroke-width:1.0;"/></g><!--reverse link Exercise to IndoorExercise--><g id="link_Exercise_IndoorExercise"><path d="M339,127.68 C339,170.7 339,227.71 339,267.98 " fill="none" id="Exercise-backto-IndoorExercise" style="stroke:#181818;stroke-width:1.0;"/><polygon fill="none" points="332,127.53,339,107.53,346,127.53,332,127.53" style="stroke:#181818;stroke-width:1.0;"/></g><!--reverse link ExerciseType to GeneralExercise--><g id="link_ExerciseType_GeneralExercise"><path d="M767.43,142.37 C777.17,158.52 787.7,176 798.22,193.44 " fill="none" id="ExerciseType-backto-GeneralExercise" style="stroke:#181818;stroke-width:1.0;stroke-dasharray:7.0,7.0;"/><polygon fill="none" points="761.35,145.84,757.02,125.1,773.34,138.61,761.35,145.84" style="stroke:#181818;stroke-width:1.0;"/></g><!--reverse link ExerciseType to SportExercise--><g id="link_ExerciseType_SportExercise"><path d="M676.62,142.28 C668.46,155.81 659.75,170.27 650.95,184.87 " fill="none" id="ExerciseType-backto-SportExercise" style="stroke:#181818;stroke-width:1.0;stroke-dasharray:7.0,7.0;"/><polygon fill="none" points="670.66,138.61,686.98,125.1,682.65,145.84,670.66,138.61" style="stroke:#181818;stroke-width:1.0;"/></g><!--reverse link ExerciseType to RehabilitationExercise--><g id="link_ExerciseType_RehabilitationExercise"><path d="M804.63,93.49 C859.67,113.49 931.91,144.43 988,185 C993.91,189.27 999.75,193.88 1005.47,198.72 " fill="none" id="ExerciseType-backto-RehabilitationExercise" style="stroke:#181818;stroke-width:1.0;stroke-dasharray:7.0,7.0;"/><polygon fill="none" points="802.08,100.01,785.56,86.74,806.75,86.81,802.08,100.01" style="stroke:#181818;stroke-width:1.0;"/></g><!--link Exercise to ExerciseType--><g id="link_Exercise_ExerciseType"><path codeLine="101" d="M454.6,66 C454.6,66 579.73,66 638.18,66 " fill="none" id="Exercise-ExerciseType" style="stroke:#181818;stroke-width:1.0;"/><polygon fill="none" points="442.6,66,448.6,70,454.6,66,448.6,62,442.6,66" style="stroke:#181818;stroke-width:1.0;"/><polygon fill="none" points="638.43,59,658.43,66,638.43,73,638.43,59" style="stroke:#181818;stroke-width:1.0;"/></g><!--link GeneralExercise to ExerciseDifficulty--><g id="link_GeneralExercise_ExerciseDifficulty"><path codeLine="102" d="M879.94,443.65 C881.16,465.47 882.38,487.33 883.46,506.58 " fill="none" id="GeneralExercise-to-ExerciseDifficulty" style="stroke:#181818;stroke-width:1.0;"/><polygon fill="#181818" points="883.76,511.94,887.2385,502.7259,883.4739,506.9482,879.2516,503.1836,883.76,511.94" style="stroke:#181818;stroke-width:1.0;"/></g><!--link SportExercise to ExerciseDifficulty--><g id="link_SportExercise_ExerciseDifficulty"><path codeLine="103" d="M668.82,397.04 C715.53,434.07 770.49,477.64 813.56,511.78 " fill="none" id="SportExercise-to-ExerciseDifficulty" style="stroke:#181818;stroke-width:1.0;"/><polygon fill="#181818" points="817.69,515.06,813.118,506.3366,813.7704,511.9558,808.1512,512.6081,817.69,515.06" style="stroke:#181818;stroke-width:1.0;"/></g><!--link SportExercise to Sport--><g id="link_SportExercise_Sport"><path codeLine="104" d="M571,452.09 C571,471.12 571,489.93 571,506.75 " fill="none" id="SportExercise-to-Sport" style="stroke:#181818;stroke-width:1.0;"/><polygon fill="#181818" points="571,511.9,575,502.9,571,506.9,567,502.9,571,511.9" style="stroke:#181818;stroke-width:1.0;"/></g><!--link RehabilitationExercise to ExerciseDifficulty--><g id="link_RehabilitationExercise_ExerciseDifficulty"><path codeLine="105" d="M1005.26,435.95 C983.31,460.83 960.95,486.18 941.67,508.03 " fill="none" id="RehabilitationExercise-to-ExerciseDifficulty" style="stroke:#181818;stroke-width:1.0;"/><polygon fill="#181818" points="938.35,511.79,947.3024,507.6846,941.6567,508.0396,941.3017,502.3939,938.35,511.79" style="stroke:#181818;stroke-width:1.0;"/></g><!--link GeneralExercise to Type--><g id="link_GeneralExercise_Type"><path codeLine="106" d="M798.16,443.65 C782.86,469.03 767.53,494.48 754.67,515.81 " fill="none" id="GeneralExercise-to-Type" style="stroke:#181818;stroke-width:1.0;"/><polygon fill="#181818" points="751.96,520.3,760.0343,514.6603,754.543,516.0188,753.1844,510.5275,751.96,520.3" style="stroke:#181818;stroke-width:1.0;"/></g><!--link SportExercise to Type--><g id="link_SportExercise_Type"><path codeLine="107" d="M650.92,452.09 C664.49,474.59 677.86,496.77 689.28,515.73 " fill="none" id="SportExercise-to-Type" style="stroke:#181818;stroke-width:1.0;"/><polygon fill="#181818" points="692.14,520.47,690.9395,510.6946,689.5675,516.1825,684.0796,514.8105,692.14,520.47" style="stroke:#181818;stroke-width:1.0;"/></g><!--link RehabilitationExercise to Type--><g id="link_RehabilitationExercise_Type"><path codeLine="108" d="M1005.27,439.68 C999.64,444.08 993.87,448.22 988,452 C914.25,499.47 878.03,471.95 800,512 C795.92,514.09 791.83,516.4 787.77,518.84 " fill="none" id="RehabilitationExercise-to-Type" style="stroke:#181818;stroke-width:1.0;"/><polygon fill="#181818" points="783.39,521.54,793.1493,520.2152,787.6444,518.9131,788.9464,513.4082,783.39,521.54" style="stroke:#181818;stroke-width:1.0;"/></g><!--link ExerciseType to Type--><g id="link_ExerciseType_Type"><path codeLine="109" d="M722,125.19 C722,223.13 722,419.56 722,515.18 " fill="none" id="ExerciseType-to-Type" style="stroke:#181818;stroke-width:1.0;"/><polygon fill="#181818" points="722,520.22,726,511.22,722,515.22,718,511.22,722,520.22" style="stroke:#181818;stroke-width:1.0;"/></g><!--SRC=[xLLHRvim47xdL_XnKqL-m1ugaU5cQCnKu5RQemENr18OP1kfKRV_FcCJ0qbQLUkaIjLu2BxlVDzzlZi7jbLQibAZicPA8Vm8ikGAq5E0p7E5O0JeeGFqnVi7Szon1pr7FtqEVWS15nhaZfMmYF2ish4jMSPeRyUWIiaxpLinXsclMybPVIThbojmqhDULsqh_GdWKOEepeuK8i6Q8NcX9HVx4Uiax41AgAZvPLmi_Oj3naopecyQ9WzpMVwSf_ASkaJyhRWt9J-ctu00oMgVZZTT3Gq8hHODEgeuxS_bebLyj-DbN-l3R39Y3nvtJMqy8-Wb6t4pCAzgXT4sdV745RvnbcOancS6M24cAgJSUhLQJUqikbRgVrjDDL0EuF3-N-4S7jYMrrnR_Uynk4O5Lvg94WX01PNPkstR6fZuc7KFGFJDXNAusgxn9Y44vzP82CNv3nmd4SKMYEBxY7p5iJLky-m65qMIaIWTY2tlrAKDDZJ6CwoBsoodTfNZRz4wIHCQKHFem-njS74tMKRNKUe2rr7n7KzcVaT8GZPsVP-bAVvfNGED7vqs32NVF-XVrylFsEb_OnXUNngAvPL_zIPtdP-PvcTOBYcoKi_fBVm2k_Klli57z0y0]--></g></svg>