<?xml version="1.0" encoding="UTF-8" standalone="no"?><svg xmlns="http://www.w3.org/2000/svg" xmlns:xlink="http://www.w3.org/1999/xlink" contentStyleType="text/css" height="649px" preserveAspectRatio="none" style="width:899px;height:649px;background:#FFFFFF;" version="1.1" viewBox="0 0 899 649" width="899px" zoomAndPan="magnify"><defs/><g><!--class ExerciseFactory--><g id="elem_ExerciseFactory"><rect codeLine="1" fill="#F1F1F1" height="83.2188" id="ExerciseFactory" rx="2.5" ry="2.5" style="stroke:#181818;stroke-width:0.5;" width="245" x="327" y="7"/><ellipse cx="394.75" cy="23" fill="#B4A7E5" rx="11" ry="11" style="stroke:#181818;stroke-width:1.0;"/><path d="M395.7031,19.6406 L395.7031,26.2969 L397.4219,26.2969 Q398.0313,26.2969 398.2969,26.5313 Q398.5625,26.7656 398.5625,27.1563 Q398.5625,27.5313 398.2969,27.7656 Q398.0313,28 397.4219,28 L392.2813,28 Q391.6719,28 391.4063,27.7656 Q391.1406,27.5313 391.1406,27.1406 Q391.1406,26.7656 391.4063,26.5313 Q391.6719,26.2969 392.2813,26.2969 L394,26.2969 L394,19.6406 L392.2813,19.6406 Q391.6719,19.6406 391.4063,19.4063 Q391.1406,19.1719 391.1406,18.7813 Q391.1406,18.4063 391.4063,18.1719 Q391.6719,17.9375 392.2813,17.9375 L397.4219,17.9375 Q398.0313,17.9375 398.2969,18.1719 Q398.5625,18.4063 398.5625,18.7813 Q398.5625,19.1719 398.2969,19.4063 Q398.0313,19.6406 397.4219,19.6406 L395.7031,19.6406 Z " fill="#000000"/><text fill="#000000" font-family="sans-serif" font-size="14" font-style="italic" lengthAdjust="spacing" textLength="101" x="415.25" y="28.7285">ExerciseFactory</text><line style="stroke:#181818;stroke-width:0.5;" x1="328" x2="571" y1="39" y2="39"/><line style="stroke:#181818;stroke-width:0.5;" x1="328" x2="571" y1="47" y2="47"/><ellipse cx="338" cy="61.3047" fill="#84BE84" rx="3" ry="3" style="stroke:#038048;stroke-width:1.0;"/><text fill="#000000" font-family="sans-serif" font-size="14" lengthAdjust="spacing" textLength="219" x="347" y="65.5332">createGeneralExercise() : Exercise</text><ellipse cx="338" cy="78.9141" fill="#84BE84" rx="3" ry="3" style="stroke:#038048;stroke-width:1.0;"/><text fill="#000000" font-family="sans-serif" font-size="14" lengthAdjust="spacing" textLength="202" x="347" y="83.1426">createSportExercise() : Exercise</text></g><!--class OutdoorExerciseFactory--><g id="elem_OutdoorExerciseFactory"><rect codeLine="6" fill="#F1F1F1" height="83.2188" id="OutdoorExerciseFactory" rx="2.5" ry="2.5" style="stroke:#181818;stroke-width:0.5;" width="245" x="608" y="150"/><ellipse cx="650" cy="166" fill="#ADD1B2" rx="11" ry="11" style="stroke:#181818;stroke-width:1.0;"/><path d="M652.7656,161.875 Q652.9219,161.6563 653.1094,161.5469 Q653.2969,161.4375 653.5156,161.4375 Q653.8906,161.4375 654.125,161.7031 Q654.3594,161.9531 654.3594,162.5625 L654.3594,164.0156 Q654.3594,164.625 654.125,164.8906 Q653.8906,165.1563 653.5156,165.1563 Q653.1719,165.1563 652.9688,164.9531 Q652.7656,164.7656 652.6563,164.25 Q652.6094,163.8906 652.4219,163.7031 Q652.0938,163.3281 651.4844,163.1094 Q650.875,162.8906 650.25,162.8906 Q649.4844,162.8906 648.8438,163.2188 Q648.2188,163.5469 647.7188,164.2969 Q647.2344,165.0469 647.2344,166.0781 L647.2344,167.1719 Q647.2344,168.4063 648.125,169.2344 Q649.0156,170.0469 650.6094,170.0469 Q651.5469,170.0469 652.2031,169.7969 Q652.5938,169.6406 653.0156,169.2031 Q653.2813,168.9375 653.4219,168.8594 Q653.5781,168.7813 653.7813,168.7813 Q654.1094,168.7813 654.3594,169.0469 Q654.625,169.2969 654.625,169.6406 Q654.625,169.9844 654.2813,170.3906 Q653.7813,170.9688 652.9844,171.2969 Q651.9063,171.75 650.6094,171.75 Q649.0938,171.75 647.8906,171.125 Q646.9063,170.625 646.2188,169.5625 Q645.5313,168.4844 645.5313,167.2031 L645.5313,166.0469 Q645.5313,164.7188 646.1406,163.5781 Q646.7656,162.4219 647.8594,161.8125 Q648.9531,161.1875 650.1875,161.1875 Q650.9219,161.1875 651.5625,161.3594 Q652.2188,161.5156 652.7656,161.875 Z " fill="#000000"/><text fill="#000000" font-family="sans-serif" font-size="14" lengthAdjust="spacing" textLength="153" x="670" y="171.7285">OutdoorExerciseFactory</text><line style="stroke:#181818;stroke-width:0.5;" x1="609" x2="852" y1="182" y2="182"/><line style="stroke:#181818;stroke-width:0.5;" x1="609" x2="852" y1="190" y2="190"/><ellipse cx="619" cy="204.3047" fill="#84BE84" rx="3" ry="3" style="stroke:#038048;stroke-width:1.0;"/><text fill="#000000" font-family="sans-serif" font-size="14" lengthAdjust="spacing" textLength="219" x="628" y="208.5332">createGeneralExercise() : Exercise</text><ellipse cx="619" cy="221.9141" fill="#84BE84" rx="3" ry="3" style="stroke:#038048;stroke-width:1.0;"/><text fill="#000000" font-family="sans-serif" font-size="14" lengthAdjust="spacing" textLength="202" x="628" y="226.1426">createSportExercise() : Exercise</text></g><!--class IndoorExerciseFactory--><g id="elem_IndoorExerciseFactory"><rect codeLine="12" fill="#F1F1F1" height="83.2188" id="IndoorExerciseFactory" rx="2.5" ry="2.5" style="stroke:#181818;stroke-width:0.5;" width="245" x="46" y="150"/><ellipse cx="93.75" cy="166" fill="#ADD1B2" rx="11" ry="11" style="stroke:#181818;stroke-width:1.0;"/><path d="M96.5156,161.875 Q96.6719,161.6563 96.8594,161.5469 Q97.0469,161.4375 97.2656,161.4375 Q97.6406,161.4375 97.875,161.7031 Q98.1094,161.9531 98.1094,162.5625 L98.1094,164.0156 Q98.1094,164.625 97.875,164.8906 Q97.6406,165.1563 97.2656,165.1563 Q96.9219,165.1563 96.7188,164.9531 Q96.5156,164.7656 96.4063,164.25 Q96.3594,163.8906 96.1719,163.7031 Q95.8438,163.3281 95.2344,163.1094 Q94.625,162.8906 94,162.8906 Q93.2344,162.8906 92.5938,163.2188 Q91.9688,163.5469 91.4688,164.2969 Q90.9844,165.0469 90.9844,166.0781 L90.9844,167.1719 Q90.9844,168.4063 91.875,169.2344 Q92.7656,170.0469 94.3594,170.0469 Q95.2969,170.0469 95.9531,169.7969 Q96.3438,169.6406 96.7656,169.2031 Q97.0313,168.9375 97.1719,168.8594 Q97.3281,168.7813 97.5313,168.7813 Q97.8594,168.7813 98.1094,169.0469 Q98.375,169.2969 98.375,169.6406 Q98.375,169.9844 98.0313,170.3906 Q97.5313,170.9688 96.7344,171.2969 Q95.6563,171.75 94.3594,171.75 Q92.8438,171.75 91.6406,171.125 Q90.6563,170.625 89.9688,169.5625 Q89.2813,168.4844 89.2813,167.2031 L89.2813,166.0469 Q89.2813,164.7188 89.8906,163.5781 Q90.5156,162.4219 91.6094,161.8125 Q92.7031,161.1875 93.9375,161.1875 Q94.6719,161.1875 95.3125,161.3594 Q95.9688,161.5156 96.5156,161.875 Z " fill="#000000"/><text fill="#000000" font-family="sans-serif" font-size="14" lengthAdjust="spacing" textLength="141" x="114.25" y="171.7285">IndoorExerciseFactory</text><line style="stroke:#181818;stroke-width:0.5;" x1="47" x2="290" y1="182" y2="182"/><line style="stroke:#181818;stroke-width:0.5;" x1="47" x2="290" y1="190" y2="190"/><ellipse cx="57" cy="204.3047" fill="#84BE84" rx="3" ry="3" style="stroke:#038048;stroke-width:1.0;"/><text fill="#000000" font-family="sans-serif" font-size="14" lengthAdjust="spacing" textLength="219" x="66" y="208.5332">createGeneralExercise() : Exercise</text><ellipse cx="57" cy="221.9141" fill="#84BE84" rx="3" ry="3" style="stroke:#038048;stroke-width:1.0;"/><text fill="#000000" font-family="sans-serif" font-size="14" lengthAdjust="spacing" textLength="202" x="66" y="226.1426">createSportExercise() : Exercise</text></g><!--class Exercise--><g id="elem_Exercise"><rect codeLine="17" fill="#F1F1F1" height="83.2188" id="Exercise" rx="2.5" ry="2.5" style="stroke:#181818;stroke-width:0.5;" width="247" x="326" y="150"/><ellipse cx="418.75" cy="166" fill="#B4A7E5" rx="11" ry="11" style="stroke:#181818;stroke-width:1.0;"/><path d="M419.7031,162.6406 L419.7031,169.2969 L421.4219,169.2969 Q422.0313,169.2969 422.2969,169.5313 Q422.5625,169.7656 422.5625,170.1563 Q422.5625,170.5313 422.2969,170.7656 Q422.0313,171 421.4219,171 L416.2813,171 Q415.6719,171 415.4063,170.7656 Q415.1406,170.5313 415.1406,170.1406 Q415.1406,169.7656 415.4063,169.5313 Q415.6719,169.2969 416.2813,169.2969 L418,169.2969 L418,162.6406 L416.2813,162.6406 Q415.6719,162.6406 415.4063,162.4063 Q415.1406,162.1719 415.1406,161.7813 Q415.1406,161.4063 415.4063,161.1719 Q415.6719,160.9375 416.2813,160.9375 L421.4219,160.9375 Q422.0313,160.9375 422.2969,161.1719 Q422.5625,161.4063 422.5625,161.7813 Q422.5625,162.1719 422.2969,162.4063 Q422.0313,162.6406 421.4219,162.6406 L419.7031,162.6406 Z " fill="#000000"/><text fill="#000000" font-family="sans-serif" font-size="14" font-style="italic" lengthAdjust="spacing" textLength="53" x="439.25" y="171.7285">Exercise</text><line style="stroke:#181818;stroke-width:0.5;" x1="327" x2="572" y1="182" y2="182"/><line style="stroke:#181818;stroke-width:0.5;" x1="327" x2="572" y1="190" y2="190"/><ellipse cx="337" cy="204.3047" fill="#84BE84" rx="3" ry="3" style="stroke:#038048;stroke-width:1.0;"/><text fill="#000000" font-family="sans-serif" font-size="14" lengthAdjust="spacing" textLength="221" x="346" y="208.5332">getExerciseDataSummary() : String</text><ellipse cx="337" cy="221.9141" fill="#84BE84" rx="3" ry="3" style="stroke:#038048;stroke-width:1.0;"/><text fill="#000000" font-family="sans-serif" font-size="14" lengthAdjust="spacing" textLength="197" x="346" y="226.1426">getExerciseTutorialUrl() : String</text></g><!--class OutdoorGeneralExercise--><g id="elem_OutdoorGeneralExercise"><rect codeLine="22" fill="#F1F1F1" height="153.6563" id="OutdoorGeneralExercise" rx="2.5" ry="2.5" style="stroke:#181818;stroke-width:0.5;" width="195" x="467" y="301.5"/><ellipse cx="485.15" cy="317.5" fill="#ADD1B2" rx="11" ry="11" style="stroke:#181818;stroke-width:1.0;"/><path d="M487.9156,313.375 Q488.0719,313.1563 488.2594,313.0469 Q488.4469,312.9375 488.6656,312.9375 Q489.0406,312.9375 489.275,313.2031 Q489.5094,313.4531 489.5094,314.0625 L489.5094,315.5156 Q489.5094,316.125 489.275,316.3906 Q489.0406,316.6563 488.6656,316.6563 Q488.3219,316.6563 488.1188,316.4531 Q487.9156,316.2656 487.8063,315.75 Q487.7594,315.3906 487.5719,315.2031 Q487.2438,314.8281 486.6344,314.6094 Q486.025,314.3906 485.4,314.3906 Q484.6344,314.3906 483.9938,314.7188 Q483.3688,315.0469 482.8688,315.7969 Q482.3844,316.5469 482.3844,317.5781 L482.3844,318.6719 Q482.3844,319.9063 483.275,320.7344 Q484.1656,321.5469 485.7594,321.5469 Q486.6969,321.5469 487.3531,321.2969 Q487.7438,321.1406 488.1656,320.7031 Q488.4313,320.4375 488.5719,320.3594 Q488.7281,320.2813 488.9313,320.2813 Q489.2594,320.2813 489.5094,320.5469 Q489.775,320.7969 489.775,321.1406 Q489.775,321.4844 489.4313,321.8906 Q488.9313,322.4688 488.1344,322.7969 Q487.0563,323.25 485.7594,323.25 Q484.2438,323.25 483.0406,322.625 Q482.0563,322.125 481.3688,321.0625 Q480.6813,319.9844 480.6813,318.7031 L480.6813,317.5469 Q480.6813,316.2188 481.2906,315.0781 Q481.9156,313.9219 483.0094,313.3125 Q484.1031,312.6875 485.3375,312.6875 Q486.0719,312.6875 486.7125,312.8594 Q487.3688,313.0156 487.9156,313.375 Z " fill="#000000"/><text fill="#000000" font-family="sans-serif" font-size="14" lengthAdjust="spacing" textLength="156" x="499.85" y="323.2285">OutdoorGeneralExercise</text><line style="stroke:#181818;stroke-width:0.5;" x1="468" x2="661" y1="333.5" y2="333.5"/><rect fill="none" height="6" style="stroke:#C82930;stroke-width:1.0;" width="6" x="475" y="344.8047"/><text fill="#000000" font-family="sans-serif" font-size="14" lengthAdjust="spacing" textLength="84" x="487" y="352.0332">name : String</text><rect fill="none" height="6" style="stroke:#C82930;stroke-width:1.0;" width="6" x="475" y="362.4141"/><text fill="#000000" font-family="sans-serif" font-size="14" lengthAdjust="spacing" textLength="169" x="487" y="369.6426">difficulty : ExerciseDifficulty</text><rect fill="none" height="6" style="stroke:#C82930;stroke-width:1.0;" width="6" x="475" y="380.0234"/><text fill="#000000" font-family="sans-serif" font-size="14" lengthAdjust="spacing" textLength="118" x="487" y="387.252">description : String</text><rect fill="none" height="6" style="stroke:#C82930;stroke-width:1.0;" width="6" x="475" y="397.6328"/><text fill="#000000" font-family="sans-serif" font-size="14" lengthAdjust="spacing" textLength="79" x="487" y="404.8613">duration : int</text><rect fill="none" height="6" style="stroke:#C82930;stroke-width:1.0;" width="6" x="475" y="415.2422"/><text fill="#000000" font-family="sans-serif" font-size="14" lengthAdjust="spacing" textLength="154" x="487" y="422.4707">preferredTerrain : String</text><rect fill="none" height="6" style="stroke:#C82930;stroke-width:1.0;" width="6" x="475" y="432.8516"/><text fill="#000000" font-family="sans-serif" font-size="14" lengthAdjust="spacing" textLength="109" x="487" y="440.0801">tutorialUrl : String</text><line style="stroke:#181818;stroke-width:0.5;" x1="468" x2="661" y1="447.1563" y2="447.1563"/></g><!--class OutdoorSportExercise--><g id="elem_OutdoorSportExercise"><rect codeLine="31" fill="#F1F1F1" height="171.2656" id="OutdoorSportExercise" rx="2.5" ry="2.5" style="stroke:#181818;stroke-width:0.5;" width="195" x="697" y="293"/><ellipse cx="722.8" cy="309" fill="#ADD1B2" rx="11" ry="11" style="stroke:#181818;stroke-width:1.0;"/><path d="M725.5656,304.875 Q725.7219,304.6563 725.9094,304.5469 Q726.0969,304.4375 726.3156,304.4375 Q726.6906,304.4375 726.925,304.7031 Q727.1594,304.9531 727.1594,305.5625 L727.1594,307.0156 Q727.1594,307.625 726.925,307.8906 Q726.6906,308.1563 726.3156,308.1563 Q725.9719,308.1563 725.7688,307.9531 Q725.5656,307.7656 725.4563,307.25 Q725.4094,306.8906 725.2219,306.7031 Q724.8938,306.3281 724.2844,306.1094 Q723.675,305.8906 723.05,305.8906 Q722.2844,305.8906 721.6438,306.2188 Q721.0188,306.5469 720.5188,307.2969 Q720.0344,308.0469 720.0344,309.0781 L720.0344,310.1719 Q720.0344,311.4063 720.925,312.2344 Q721.8156,313.0469 723.4094,313.0469 Q724.3469,313.0469 725.0031,312.7969 Q725.3938,312.6406 725.8156,312.2031 Q726.0813,311.9375 726.2219,311.8594 Q726.3781,311.7813 726.5813,311.7813 Q726.9094,311.7813 727.1594,312.0469 Q727.425,312.2969 727.425,312.6406 Q727.425,312.9844 727.0813,313.3906 Q726.5813,313.9688 725.7844,314.2969 Q724.7063,314.75 723.4094,314.75 Q721.8938,314.75 720.6906,314.125 Q719.7063,313.625 719.0188,312.5625 Q718.3313,311.4844 718.3313,310.2031 L718.3313,309.0469 Q718.3313,307.7188 718.9406,306.5781 Q719.5656,305.4219 720.6594,304.8125 Q721.7531,304.1875 722.9875,304.1875 Q723.7219,304.1875 724.3625,304.3594 Q725.0188,304.5156 725.5656,304.875 Z " fill="#000000"/><text fill="#000000" font-family="sans-serif" font-size="14" lengthAdjust="spacing" textLength="139" x="739.2" y="314.7285">OutdoorSportExercise</text><line style="stroke:#181818;stroke-width:0.5;" x1="698" x2="891" y1="325" y2="325"/><rect fill="none" height="6" style="stroke:#C82930;stroke-width:1.0;" width="6" x="705" y="336.3047"/><text fill="#000000" font-family="sans-serif" font-size="14" lengthAdjust="spacing" textLength="84" x="717" y="343.5332">name : String</text><rect fill="none" height="6" style="stroke:#C82930;stroke-width:1.0;" width="6" x="705" y="353.9141"/><text fill="#000000" font-family="sans-serif" font-size="14" lengthAdjust="spacing" textLength="78" x="717" y="361.1426">sport : Sport</text><rect fill="none" height="6" style="stroke:#C82930;stroke-width:1.0;" width="6" x="705" y="371.5234"/><text fill="#000000" font-family="sans-serif" font-size="14" lengthAdjust="spacing" textLength="169" x="717" y="378.752">difficulty : ExerciseDifficulty</text><rect fill="none" height="6" style="stroke:#C82930;stroke-width:1.0;" width="6" x="705" y="389.1328"/><text fill="#000000" font-family="sans-serif" font-size="14" lengthAdjust="spacing" textLength="118" x="717" y="396.3613">description : String</text><rect fill="none" height="6" style="stroke:#C82930;stroke-width:1.0;" width="6" x="705" y="406.7422"/><text fill="#000000" font-family="sans-serif" font-size="14" lengthAdjust="spacing" textLength="79" x="717" y="413.9707">duration : int</text><rect fill="none" height="6" style="stroke:#C82930;stroke-width:1.0;" width="6" x="705" y="424.3516"/><text fill="#000000" font-family="sans-serif" font-size="14" lengthAdjust="spacing" textLength="154" x="717" y="431.5801">preferredTerrain : String</text><rect fill="none" height="6" style="stroke:#C82930;stroke-width:1.0;" width="6" x="705" y="441.9609"/><text fill="#000000" font-family="sans-serif" font-size="14" lengthAdjust="spacing" textLength="109" x="717" y="449.1895">tutorialUrl : String</text><line style="stroke:#181818;stroke-width:0.5;" x1="698" x2="891" y1="456.2656" y2="456.2656"/></g><!--class IndoorGeneralExercise--><g id="elem_IndoorGeneralExercise"><rect codeLine="41" fill="#F1F1F1" height="136.0469" id="IndoorGeneralExercise" rx="2.5" ry="2.5" style="stroke:#181818;stroke-width:0.5;" width="195" x="7" y="310.5"/><ellipse cx="30.55" cy="326.5" fill="#ADD1B2" rx="11" ry="11" style="stroke:#181818;stroke-width:1.0;"/><path d="M33.3156,322.375 Q33.4719,322.1563 33.6594,322.0469 Q33.8469,321.9375 34.0656,321.9375 Q34.4406,321.9375 34.675,322.2031 Q34.9094,322.4531 34.9094,323.0625 L34.9094,324.5156 Q34.9094,325.125 34.675,325.3906 Q34.4406,325.6563 34.0656,325.6563 Q33.7219,325.6563 33.5188,325.4531 Q33.3156,325.2656 33.2063,324.75 Q33.1594,324.3906 32.9719,324.2031 Q32.6438,323.8281 32.0344,323.6094 Q31.425,323.3906 30.8,323.3906 Q30.0344,323.3906 29.3938,323.7188 Q28.7688,324.0469 28.2688,324.7969 Q27.7844,325.5469 27.7844,326.5781 L27.7844,327.6719 Q27.7844,328.9063 28.675,329.7344 Q29.5656,330.5469 31.1594,330.5469 Q32.0969,330.5469 32.7531,330.2969 Q33.1438,330.1406 33.5656,329.7031 Q33.8313,329.4375 33.9719,329.3594 Q34.1281,329.2813 34.3313,329.2813 Q34.6594,329.2813 34.9094,329.5469 Q35.175,329.7969 35.175,330.1406 Q35.175,330.4844 34.8313,330.8906 Q34.3313,331.4688 33.5344,331.7969 Q32.4563,332.25 31.1594,332.25 Q29.6438,332.25 28.4406,331.625 Q27.4563,331.125 26.7688,330.0625 Q26.0813,328.9844 26.0813,327.7031 L26.0813,326.5469 Q26.0813,325.2188 26.6906,324.0781 Q27.3156,322.9219 28.4094,322.3125 Q29.5031,321.6875 30.7375,321.6875 Q31.4719,321.6875 32.1125,321.8594 Q32.7688,322.0156 33.3156,322.375 Z " fill="#000000"/><text fill="#000000" font-family="sans-serif" font-size="14" lengthAdjust="spacing" textLength="144" x="46.45" y="332.2285">IndoorGeneralExercise</text><line style="stroke:#181818;stroke-width:0.5;" x1="8" x2="201" y1="342.5" y2="342.5"/><rect fill="none" height="6" style="stroke:#C82930;stroke-width:1.0;" width="6" x="15" y="353.8047"/><text fill="#000000" font-family="sans-serif" font-size="14" lengthAdjust="spacing" textLength="84" x="27" y="361.0332">name : String</text><rect fill="none" height="6" style="stroke:#C82930;stroke-width:1.0;" width="6" x="15" y="371.4141"/><text fill="#000000" font-family="sans-serif" font-size="14" lengthAdjust="spacing" textLength="169" x="27" y="378.6426">difficulty : ExerciseDifficulty</text><rect fill="none" height="6" style="stroke:#C82930;stroke-width:1.0;" width="6" x="15" y="389.0234"/><text fill="#000000" font-family="sans-serif" font-size="14" lengthAdjust="spacing" textLength="118" x="27" y="396.252">description : String</text><rect fill="none" height="6" style="stroke:#C82930;stroke-width:1.0;" width="6" x="15" y="406.6328"/><text fill="#000000" font-family="sans-serif" font-size="14" lengthAdjust="spacing" textLength="79" x="27" y="413.8613">duration : int</text><rect fill="none" height="6" style="stroke:#C82930;stroke-width:1.0;" width="6" x="15" y="424.2422"/><text fill="#000000" font-family="sans-serif" font-size="14" lengthAdjust="spacing" textLength="109" x="27" y="431.4707">tutorialUrl : String</text><line style="stroke:#181818;stroke-width:0.5;" x1="8" x2="201" y1="438.5469" y2="438.5469"/></g><!--class IndoorSportExercise--><g id="elem_IndoorSportExercise"><rect codeLine="49" fill="#F1F1F1" height="153.6563" id="IndoorSportExercise" rx="2.5" ry="2.5" style="stroke:#181818;stroke-width:0.5;" width="195" x="237" y="301.5"/><ellipse cx="268.2" cy="317.5" fill="#ADD1B2" rx="11" ry="11" style="stroke:#181818;stroke-width:1.0;"/><path d="M270.9656,313.375 Q271.1219,313.1563 271.3094,313.0469 Q271.4969,312.9375 271.7156,312.9375 Q272.0906,312.9375 272.325,313.2031 Q272.5594,313.4531 272.5594,314.0625 L272.5594,315.5156 Q272.5594,316.125 272.325,316.3906 Q272.0906,316.6563 271.7156,316.6563 Q271.3719,316.6563 271.1688,316.4531 Q270.9656,316.2656 270.8563,315.75 Q270.8094,315.3906 270.6219,315.2031 Q270.2938,314.8281 269.6844,314.6094 Q269.075,314.3906 268.45,314.3906 Q267.6844,314.3906 267.0438,314.7188 Q266.4188,315.0469 265.9188,315.7969 Q265.4344,316.5469 265.4344,317.5781 L265.4344,318.6719 Q265.4344,319.9063 266.325,320.7344 Q267.2156,321.5469 268.8094,321.5469 Q269.7469,321.5469 270.4031,321.2969 Q270.7938,321.1406 271.2156,320.7031 Q271.4813,320.4375 271.6219,320.3594 Q271.7781,320.2813 271.9813,320.2813 Q272.3094,320.2813 272.5594,320.5469 Q272.825,320.7969 272.825,321.1406 Q272.825,321.4844 272.4813,321.8906 Q271.9813,322.4688 271.1844,322.7969 Q270.1063,323.25 268.8094,323.25 Q267.2938,323.25 266.0906,322.625 Q265.1063,322.125 264.4188,321.0625 Q263.7313,319.9844 263.7313,318.7031 L263.7313,317.5469 Q263.7313,316.2188 264.3406,315.0781 Q264.9656,313.9219 266.0594,313.3125 Q267.1531,312.6875 268.3875,312.6875 Q269.1219,312.6875 269.7625,312.8594 Q270.4188,313.0156 270.9656,313.375 Z " fill="#000000"/><text fill="#000000" font-family="sans-serif" font-size="14" lengthAdjust="spacing" textLength="127" x="285.8" y="323.2285">IndoorSportExercise</text><line style="stroke:#181818;stroke-width:0.5;" x1="238" x2="431" y1="333.5" y2="333.5"/><rect fill="none" height="6" style="stroke:#C82930;stroke-width:1.0;" width="6" x="245" y="344.8047"/><text fill="#000000" font-family="sans-serif" font-size="14" lengthAdjust="spacing" textLength="84" x="257" y="352.0332">name : String</text><rect fill="none" height="6" style="stroke:#C82930;stroke-width:1.0;" width="6" x="245" y="362.4141"/><text fill="#000000" font-family="sans-serif" font-size="14" lengthAdjust="spacing" textLength="78" x="257" y="369.6426">sport : Sport</text><rect fill="none" height="6" style="stroke:#C82930;stroke-width:1.0;" width="6" x="245" y="380.0234"/><text fill="#000000" font-family="sans-serif" font-size="14" lengthAdjust="spacing" textLength="169" x="257" y="387.252">difficulty : ExerciseDifficulty</text><rect fill="none" height="6" style="stroke:#C82930;stroke-width:1.0;" width="6" x="245" y="397.6328"/><text fill="#000000" font-family="sans-serif" font-size="14" lengthAdjust="spacing" textLength="118" x="257" y="404.8613">description : String</text><rect fill="none" height="6" style="stroke:#C82930;stroke-width:1.0;" width="6" x="245" y="415.2422"/><text fill="#000000" font-family="sans-serif" font-size="14" lengthAdjust="spacing" textLength="79" x="257" y="422.4707">duration : int</text><rect fill="none" height="6" style="stroke:#C82930;stroke-width:1.0;" width="6" x="245" y="432.8516"/><text fill="#000000" font-family="sans-serif" font-size="14" lengthAdjust="spacing" textLength="109" x="257" y="440.0801">tutorialUrl : String</text><line style="stroke:#181818;stroke-width:0.5;" x1="238" x2="431" y1="447.1563" y2="447.1563"/></g><!--class ExerciseDifficulty--><g id="elem_ExerciseDifficulty"><rect codeLine="58" fill="#F1F1F1" height="118.4375" id="ExerciseDifficulty" rx="2.5" ry="2.5" style="stroke:#181818;stroke-width:0.5;" width="138" x="380.5" y="524"/><ellipse cx="395.5" cy="540" fill="#EB937F" rx="11" ry="11" style="stroke:#181818;stroke-width:1.0;"/><path d="M394.3594,540.7969 L394.3594,543.2969 L398.6875,543.2969 L398.6875,542.375 Q398.6875,541.7656 398.9219,541.5 Q399.1719,541.2344 399.5469,541.2344 Q399.9219,541.2344 400.1563,541.5 Q400.3906,541.7656 400.3906,542.375 L400.3906,545 L392.3906,545 Q391.7656,545 391.5,544.7656 Q391.25,544.5313 391.25,544.1406 Q391.25,543.7656 391.5156,543.5313 Q391.7813,543.2969 392.3906,543.2969 L392.6563,543.2969 L392.6563,536.6406 L392.3906,536.6406 Q391.7656,536.6406 391.5,536.4063 Q391.25,536.1719 391.25,535.7813 Q391.25,535.4063 391.5,535.1719 Q391.7656,534.9375 392.3906,534.9375 L400.0156,534.9375 L400.0156,537.5313 Q400.0156,538.1406 399.7813,538.4063 Q399.5625,538.6563 399.1719,538.6563 Q398.7969,538.6563 398.5625,538.4063 Q398.3281,538.1406 398.3281,537.5313 L398.3281,536.6406 L394.3594,536.6406 L394.3594,539.0938 L395.8438,539.0938 Q395.8438,538.4375 395.9688,538.25 Q396.2344,537.8438 396.7031,537.8438 Q397.0781,537.8438 397.3125,538.1094 Q397.5469,538.3594 397.5469,538.9688 L397.5469,540.9375 Q397.5469,541.4844 397.4219,541.6719 Q397.1563,542.0625 396.7031,542.0625 Q396.2344,542.0625 395.9688,541.6563 Q395.8438,541.4688 395.8438,540.7969 L394.3594,540.7969 Z " fill="#000000"/><text fill="#000000" font-family="sans-serif" font-size="14" lengthAdjust="spacing" textLength="106" x="409.5" y="545.7285">ExerciseDifficulty</text><line style="stroke:#181818;stroke-width:0.5;" x1="381.5" x2="517.5" y1="556" y2="556"/><text fill="#000000" font-family="sans-serif" font-size="14" lengthAdjust="spacing" textLength="69" x="386.5" y="574.5332">BEGINNER</text><text fill="#000000" font-family="sans-serif" font-size="14" lengthAdjust="spacing" textLength="100" x="386.5" y="592.1426">INTERMEDIATE</text><text fill="#000000" font-family="sans-serif" font-size="14" lengthAdjust="spacing" textLength="75" x="386.5" y="609.752">ADVANCED</text><text fill="#000000" font-family="sans-serif" font-size="14" lengthAdjust="spacing" textLength="106" x="386.5" y="627.3613">PROFESSIONAL</text><line style="stroke:#181818;stroke-width:0.5;" x1="381.5" x2="517.5" y1="634.4375" y2="634.4375"/></g><!--class Sport--><g id="elem_Sport"><rect codeLine="65" fill="#F1F1F1" height="118.4375" id="Sport" rx="2.5" ry="2.5" style="stroke:#181818;stroke-width:0.5;" width="100" x="648.5" y="524"/><ellipse cx="678.8" cy="540" fill="#EB937F" rx="11" ry="11" style="stroke:#181818;stroke-width:1.0;"/><path d="M677.6594,540.7969 L677.6594,543.2969 L681.9875,543.2969 L681.9875,542.375 Q681.9875,541.7656 682.2219,541.5 Q682.4719,541.2344 682.8469,541.2344 Q683.2219,541.2344 683.4563,541.5 Q683.6906,541.7656 683.6906,542.375 L683.6906,545 L675.6906,545 Q675.0656,545 674.8,544.7656 Q674.55,544.5313 674.55,544.1406 Q674.55,543.7656 674.8156,543.5313 Q675.0813,543.2969 675.6906,543.2969 L675.9563,543.2969 L675.9563,536.6406 L675.6906,536.6406 Q675.0656,536.6406 674.8,536.4063 Q674.55,536.1719 674.55,535.7813 Q674.55,535.4063 674.8,535.1719 Q675.0656,534.9375 675.6906,534.9375 L683.3156,534.9375 L683.3156,537.5313 Q683.3156,538.1406 683.0813,538.4063 Q682.8625,538.6563 682.4719,538.6563 Q682.0969,538.6563 681.8625,538.4063 Q681.6281,538.1406 681.6281,537.5313 L681.6281,536.6406 L677.6594,536.6406 L677.6594,539.0938 L679.1438,539.0938 Q679.1438,538.4375 679.2688,538.25 Q679.5344,537.8438 680.0031,537.8438 Q680.3781,537.8438 680.6125,538.1094 Q680.8469,538.3594 680.8469,538.9688 L680.8469,540.9375 Q680.8469,541.4844 680.7219,541.6719 Q680.4563,542.0625 680.0031,542.0625 Q679.5344,542.0625 679.2688,541.6563 Q679.1438,541.4688 679.1438,540.7969 L677.6594,540.7969 Z " fill="#000000"/><text fill="#000000" font-family="sans-serif" font-size="14" lengthAdjust="spacing" textLength="34" x="696.2" y="545.7285">Sport</text><line style="stroke:#181818;stroke-width:0.5;" x1="649.5" x2="747.5" y1="556" y2="556"/><text fill="#000000" font-family="sans-serif" font-size="14" lengthAdjust="spacing" textLength="74" x="654.5" y="574.5332">FOOTBALL</text><text fill="#000000" font-family="sans-serif" font-size="14" lengthAdjust="spacing" textLength="88" x="654.5" y="592.1426">BASKETBALL</text><text fill="#000000" font-family="sans-serif" font-size="14" lengthAdjust="spacing" textLength="60" x="654.5" y="609.752">RUNNING</text><text fill="#000000" font-family="sans-serif" font-size="14" lengthAdjust="spacing" textLength="88" x="654.5" y="627.3613">VOLLEYBALL</text><line style="stroke:#181818;stroke-width:0.5;" x1="649.5" x2="747.5" y1="634.4375" y2="634.4375"/></g><!--reverse link ExerciseFactory to OutdoorExerciseFactory--><g id="link_ExerciseFactory_OutdoorExerciseFactory"><path codeLine="74" d="M548.41,99.13 C581.55,115.76 618.09,134.1 649.68,149.95 " fill="none" id="ExerciseFactory-backto-OutdoorExerciseFactory" style="stroke:#181818;stroke-width:1.0;stroke-dasharray:7.0,7.0;"/><polygon fill="none" points="545.14,105.32,530.4,90.09,551.42,92.81,545.14,105.32" style="stroke:#181818;stroke-width:1.0;"/></g><!--reverse link ExerciseFactory to IndoorExerciseFactory--><g id="link_ExerciseFactory_IndoorExerciseFactory"><path codeLine="75" d="M350.59,99.13 C317.45,115.76 280.91,134.1 249.32,149.95 " fill="none" id="ExerciseFactory-backto-IndoorExerciseFactory" style="stroke:#181818;stroke-width:1.0;stroke-dasharray:7.0,7.0;"/><polygon fill="none" points="347.58,92.81,368.6,90.09,353.86,105.32,347.58,92.81" style="stroke:#181818;stroke-width:1.0;"/></g><!--link OutdoorExerciseFactory to OutdoorGeneralExercise--><g id="link_OutdoorExerciseFactory_OutdoorGeneralExercise"><path codeLine="77" d="M694.07,233.1 C677.11,252 656.31,275.18 636.38,297.39 " fill="none" id="OutdoorExerciseFactory-to-OutdoorGeneralExercise" style="stroke:#181818;stroke-width:1.0;"/><polygon fill="#181818" points="632.94,301.23,641.9262,297.1991,636.2777,297.5072,635.9696,291.8587,632.94,301.23" style="stroke:#181818;stroke-width:1.0;"/></g><!--link OutdoorExerciseFactory to OutdoorSportExercise--><g id="link_OutdoorExerciseFactory_OutdoorSportExercise"><path codeLine="78" d="M744.55,233.1 C750.18,249.38 756.9,268.82 763.57,288.09 " fill="none" id="OutdoorExerciseFactory-to-OutdoorSportExercise" style="stroke:#181818;stroke-width:1.0;"/><polygon fill="#181818" points="765.26,292.98,766.1112,283.168,763.6318,288.2525,758.5473,285.7731,765.26,292.98" style="stroke:#181818;stroke-width:1.0;"/></g><!--link IndoorExerciseFactory to IndoorGeneralExercise--><g id="link_IndoorExerciseFactory_IndoorGeneralExercise"><path codeLine="80" d="M154.45,233.1 C147.11,254.34 137.89,280.98 129.38,305.57 " fill="none" id="IndoorExerciseFactory-to-IndoorGeneralExercise" style="stroke:#181818;stroke-width:1.0;"/><polygon fill="#181818" points="127.69,310.46,134.4221,303.2712,129.3309,305.7369,126.8652,300.6457,127.69,310.46" style="stroke:#181818;stroke-width:1.0;"/></g><!--link IndoorExerciseFactory to IndoorSportExercise--><g id="link_IndoorExerciseFactory_IndoorSportExercise"><path codeLine="81" d="M204.93,233.1 C221.89,252 242.69,275.18 262.62,297.39 " fill="none" id="IndoorExerciseFactory-to-IndoorSportExercise" style="stroke:#181818;stroke-width:1.0;"/><polygon fill="#181818" points="266.06,301.23,263.0304,291.8587,262.7223,297.5072,257.0738,297.1991,266.06,301.23" style="stroke:#181818;stroke-width:1.0;"/></g><!--reverse link Exercise to OutdoorGeneralExercise--><g id="link_Exercise_OutdoorGeneralExercise"><path codeLine="83" d="M485.36,250.19 C495.41,266.35 506.48,284.17 517.09,301.23 " fill="none" id="Exercise-backto-OutdoorGeneralExercise" style="stroke:#181818;stroke-width:1.0;stroke-dasharray:7.0,7.0;"/><polygon fill="none" points="479.35,253.78,474.74,233.1,491.24,246.39,479.35,253.78" style="stroke:#181818;stroke-width:1.0;"/></g><!--link OutdoorGeneralExercise to ExerciseDifficulty--><g id="link_OutdoorGeneralExercise_ExerciseDifficulty"><path codeLine="84" d="M521.19,455.77 C509.29,476.72 496.53,499.19 485.12,519.28 " fill="none" id="OutdoorGeneralExercise-to-ExerciseDifficulty" style="stroke:#181818;stroke-width:1.0;"/><polygon fill="#181818" points="482.55,523.8,490.4779,517.9563,485.023,519.4544,483.5249,513.9995,482.55,523.8" style="stroke:#181818;stroke-width:1.0;"/></g><!--reverse link Exercise to OutdoorSportExercise--><g id="link_Exercise_OutdoorSportExercise"><path codeLine="85" d="M574.05,240.94 C608.94,256.1 646.38,273.91 679.5,293 C685.3,296.34 691.15,299.92 696.98,303.64 " fill="none" id="Exercise-backto-OutdoorSportExercise" style="stroke:#181818;stroke-width:1.0;stroke-dasharray:7.0,7.0;"/><polygon fill="none" points="571.16,247.32,555.51,233.03,576.66,234.44,571.16,247.32" style="stroke:#181818;stroke-width:1.0;"/></g><!--link OutdoorSportExercise to ExerciseDifficulty--><g id="link_OutdoorSportExercise_ExerciseDifficulty"><path codeLine="86" d="M696.73,452.93 C690.96,456.77 685.19,460.48 679.5,464 C629.04,495.21 569.35,525.65 523.43,547.8 " fill="none" id="OutdoorSportExercise-to-ExerciseDifficulty" style="stroke:#181818;stroke-width:1.0;"/><polygon fill="#181818" points="518.75,550.05,528.5948,549.7666,523.2587,547.8887,525.1367,542.5526,518.75,550.05" style="stroke:#181818;stroke-width:1.0;"/></g><!--link OutdoorSportExercise to Sport--><g id="link_OutdoorSportExercise_Sport"><path codeLine="87" d="M754.34,464.2 C745.66,482.53 736.61,501.6 728.4,518.93 " fill="none" id="OutdoorSportExercise-to-Sport" style="stroke:#181818;stroke-width:1.0;"/><polygon fill="#181818" points="726.11,523.76,733.583,517.3448,728.2541,519.2431,726.3559,513.9142,726.11,523.76" style="stroke:#181818;stroke-width:1.0;"/></g><!--reverse link Exercise to IndoorGeneralExercise--><g id="link_Exercise_IndoorGeneralExercise"><path codeLine="90" d="M324.95,240.94 C290.06,256.1 252.62,273.91 219.5,293 C210.27,298.32 200.9,304.24 191.69,310.4 " fill="none" id="Exercise-backto-IndoorGeneralExercise" style="stroke:#181818;stroke-width:1.0;stroke-dasharray:7.0,7.0;"/><polygon fill="none" points="322.34,234.44,343.49,233.03,327.84,247.32,322.34,234.44" style="stroke:#181818;stroke-width:1.0;"/></g><!--link IndoorGeneralExercise to ExerciseDifficulty--><g id="link_IndoorGeneralExercise_ExerciseDifficulty"><path codeLine="91" d="M193,446.67 C201.82,452.72 210.76,458.59 219.5,464 C269.96,495.21 329.65,525.65 375.57,547.8 " fill="none" id="IndoorGeneralExercise-to-ExerciseDifficulty" style="stroke:#181818;stroke-width:1.0;"/><polygon fill="#181818" points="380.25,550.05,373.8633,542.5526,375.7413,547.8887,370.4052,549.7666,380.25,550.05" style="stroke:#181818;stroke-width:1.0;"/></g><!--reverse link Exercise to IndoorSportExercise--><g id="link_Exercise_IndoorSportExercise"><path codeLine="92" d="M413.64,250.19 C403.59,266.35 392.52,284.17 381.91,301.23 " fill="none" id="Exercise-backto-IndoorSportExercise" style="stroke:#181818;stroke-width:1.0;stroke-dasharray:7.0,7.0;"/><polygon fill="none" points="407.76,246.39,424.26,233.1,419.65,253.78,407.76,246.39" style="stroke:#181818;stroke-width:1.0;"/></g><!--link IndoorSportExercise to ExerciseDifficulty--><g id="link_IndoorSportExercise_ExerciseDifficulty"><path codeLine="93" d="M377.81,455.77 C389.71,476.72 402.47,499.19 413.88,519.28 " fill="none" id="IndoorSportExercise-to-ExerciseDifficulty" style="stroke:#181818;stroke-width:1.0;"/><polygon fill="#181818" points="416.45,523.8,415.4751,513.9995,413.977,519.4544,408.5221,517.9563,416.45,523.8" style="stroke:#181818;stroke-width:1.0;"/></g><!--link IndoorSportExercise to Sport--><g id="link_IndoorSportExercise_Sport"><path codeLine="94" d="M432.14,453.15 C437.94,456.93 443.76,460.57 449.5,464 C513.57,502.24 591.99,537.68 643.5,559.55 " fill="none" id="IndoorSportExercise-to-Sport" style="stroke:#181818;stroke-width:1.0;"/><polygon fill="#181818" points="648.4,561.62,641.6655,554.4335,643.794,559.6746,638.5528,561.8031,648.4,561.62" style="stroke:#181818;stroke-width:1.0;"/></g><!--SRC=[pLJBReCm4Bpp5JwsgiW7z12952T2fQO24gb7YvZ84ezeiQL6RV-zO08fO3Vf9Gq7mClixCooMbu81YbD6CBl319UiILDH0c73mlLrmDAW571LgnWGBCEStUF7lk40J3Qbo3qi2_BIZ9QLIYGObkMS8s2nufUSQs2VDBFhioEzLak5JIIUKxXe0WY0RpOJN6nh7LocgqX-uaRDt8alIreeuBcR4XkeorFKvx8J1n-w7RxO8TYLG9yBtXPJ0Waq6EyjdeCxe6b381ju_fE-IH9d7oONGpw-fk7gW4smUPvmxxQeVltdtE9o1lilKasAsIkgTAANk2LHmWErS4ZCGvViEivCLO1nzquv0cxwl0Q1aiSHLv07B_dLRPQgcKGn0l7zrjU9th6fsEu9iGZA_M-2NmVlwbFQk7ebnkQpUJdVBnZBUrUCc1DpBOzDoo22p86Fzuow6dmsc4-Yn_HwsME_9fG3QjckdH638n3p5_u6cmxybsFpdZGWmmbDRtIyrram0HLaMy0]--></g></svg>