<?xml version="1.0" encoding="UTF-8" standalone="no"?><svg xmlns="http://www.w3.org/2000/svg" xmlns:xlink="http://www.w3.org/1999/xlink" contentStyleType="text/css" height="346px" preserveAspectRatio="none" style="width:885px;height:346px;background:#FFFFFF;" version="1.1" viewBox="0 0 885 346" width="885px" zoomAndPan="magnify"><defs/><g><!--class Gym--><g id="elem_Gym"><rect codeLine="1" fill="#F1F1F1" height="171.2656" id="Gym" rx="2.5" ry="2.5" style="stroke:#181818;stroke-width:0.5;" width="325" x="7" y="168"/><ellipse cx="150.75" cy="184" fill="#ADD1B2" rx="11" ry="11" style="stroke:#181818;stroke-width:1.0;"/><path d="M153.5156,179.875 Q153.6719,179.6563 153.8594,179.5469 Q154.0469,179.4375 154.2656,179.4375 Q154.6406,179.4375 154.875,179.7031 Q155.1094,179.9531 155.1094,180.5625 L155.1094,182.0156 Q155.1094,182.625 154.875,182.8906 Q154.6406,183.1563 154.2656,183.1563 Q153.9219,183.1563 153.7188,182.9531 Q153.5156,182.7656 153.4063,182.25 Q153.3594,181.8906 153.1719,181.7031 Q152.8438,181.3281 152.2344,181.1094 Q151.625,180.8906 151,180.8906 Q150.2344,180.8906 149.5938,181.2188 Q148.9688,181.5469 148.4688,182.2969 Q147.9844,183.0469 147.9844,184.0781 L147.9844,185.1719 Q147.9844,186.4063 148.875,187.2344 Q149.7656,188.0469 151.3594,188.0469 Q152.2969,188.0469 152.9531,187.7969 Q153.3438,187.6406 153.7656,187.2031 Q154.0313,186.9375 154.1719,186.8594 Q154.3281,186.7813 154.5313,186.7813 Q154.8594,186.7813 155.1094,187.0469 Q155.375,187.2969 155.375,187.6406 Q155.375,187.9844 155.0313,188.3906 Q154.5313,188.9688 153.7344,189.2969 Q152.6563,189.75 151.3594,189.75 Q149.8438,189.75 148.6406,189.125 Q147.6563,188.625 146.9688,187.5625 Q146.2813,186.4844 146.2813,185.2031 L146.2813,184.0469 Q146.2813,182.7188 146.8906,181.5781 Q147.5156,180.4219 148.6094,179.8125 Q149.7031,179.1875 150.9375,179.1875 Q151.6719,179.1875 152.3125,179.3594 Q152.9688,179.5156 153.5156,179.875 Z " fill="#000000"/><text fill="#000000" font-family="sans-serif" font-size="14" lengthAdjust="spacing" textLength="29" x="171.25" y="189.7285">Gym</text><line style="stroke:#181818;stroke-width:0.5;" x1="8" x2="331" y1="200" y2="200"/><rect fill="none" height="6" style="stroke:#C82930;stroke-width:1.0;" width="6" x="15" y="211.3047"/><text fill="#000000" font-family="sans-serif" font-size="14" lengthAdjust="spacing" textLength="84" x="27" y="218.5332">name : String</text><rect fill="none" height="6" style="stroke:#C82930;stroke-width:1.0;" width="6" x="15" y="228.9141"/><text fill="#000000" font-family="sans-serif" font-size="14" lengthAdjust="spacing" textLength="103" x="27" y="236.1426">identifier : String</text><rect fill="none" height="6" style="stroke:#C82930;stroke-width:1.0;" width="6" x="15" y="246.5234"/><text fill="#000000" font-family="sans-serif" font-size="14" lengthAdjust="spacing" textLength="181" x="27" y="253.752">avabilityState : AvabilityState</text><rect fill="none" height="6" style="stroke:#C82930;stroke-width:1.0;" width="6" x="15" y="264.1328"/><text fill="#000000" font-family="sans-serif" font-size="14" lengthAdjust="spacing" textLength="122" x="27" y="271.3613">maxParticipants: int</text><line style="stroke:#181818;stroke-width:0.5;" x1="8" x2="331" y1="278.4375" y2="278.4375"/><ellipse cx="18" cy="292.7422" fill="#84BE84" rx="3" ry="3" style="stroke:#038048;stroke-width:1.0;"/><text fill="#000000" font-family="sans-serif" font-size="14" lengthAdjust="spacing" textLength="80" x="27" y="296.9707">open() : void</text><ellipse cx="18" cy="310.3516" fill="#84BE84" rx="3" ry="3" style="stroke:#038048;stroke-width:1.0;"/><text fill="#000000" font-family="sans-serif" font-size="14" lengthAdjust="spacing" textLength="299" x="27" y="314.5801">Maintain(String startDate, String endDate): void</text><ellipse cx="18" cy="327.9609" fill="#84BE84" rx="3" ry="3" style="stroke:#038048;stroke-width:1.0;"/><text fill="#000000" font-family="sans-serif" font-size="14" lengthAdjust="spacing" textLength="138" x="27" y="332.1895">handleBooking(): void</text></g><!--class AvailabilityState--><g id="elem_AvailabilityState"><rect codeLine="12" fill="#F1F1F1" height="65.6094" id="AvailabilityState" rx="2.5" ry="2.5" style="stroke:#181818;stroke-width:0.5;" width="241" x="367" y="220.5"/><ellipse cx="434.25" cy="236.5" fill="#B4A7E5" rx="11" ry="11" style="stroke:#181818;stroke-width:1.0;"/><path d="M435.2031,233.1406 L435.2031,239.7969 L436.9219,239.7969 Q437.5313,239.7969 437.7969,240.0313 Q438.0625,240.2656 438.0625,240.6563 Q438.0625,241.0313 437.7969,241.2656 Q437.5313,241.5 436.9219,241.5 L431.7813,241.5 Q431.1719,241.5 430.9063,241.2656 Q430.6406,241.0313 430.6406,240.6406 Q430.6406,240.2656 430.9063,240.0313 Q431.1719,239.7969 431.7813,239.7969 L433.5,239.7969 L433.5,233.1406 L431.7813,233.1406 Q431.1719,233.1406 430.9063,232.9063 Q430.6406,232.6719 430.6406,232.2813 Q430.6406,231.9063 430.9063,231.6719 Q431.1719,231.4375 431.7813,231.4375 L436.9219,231.4375 Q437.5313,231.4375 437.7969,231.6719 Q438.0625,231.9063 438.0625,232.2813 Q438.0625,232.6719 437.7969,232.9063 Q437.5313,233.1406 436.9219,233.1406 L435.2031,233.1406 Z " fill="#000000"/><text fill="#000000" font-family="sans-serif" font-size="14" font-style="italic" lengthAdjust="spacing" textLength="98" x="454.75" y="242.2285">AvailabilityState</text><line style="stroke:#181818;stroke-width:0.5;" x1="368" x2="607" y1="252.5" y2="252.5"/><line style="stroke:#181818;stroke-width:0.5;" x1="368" x2="607" y1="260.5" y2="260.5"/><ellipse cx="378" cy="274.8047" fill="#84BE84" rx="3" ry="3" style="stroke:#038048;stroke-width:1.0;"/><text fill="#000000" font-family="sans-serif" font-size="14" lengthAdjust="spacing" textLength="215" x="387" y="279.0332">handleBooking() : AvailabilityState</text></g><!--class BookedState--><g id="elem_BookedState"><rect codeLine="17" fill="#F1F1F1" height="83.2188" id="BookedState" rx="2.5" ry="2.5" style="stroke:#181818;stroke-width:0.5;" width="237" x="97" y="16"/><ellipse cx="170.75" cy="32" fill="#ADD1B2" rx="11" ry="11" style="stroke:#181818;stroke-width:1.0;"/><path d="M173.5156,27.875 Q173.6719,27.6563 173.8594,27.5469 Q174.0469,27.4375 174.2656,27.4375 Q174.6406,27.4375 174.875,27.7031 Q175.1094,27.9531 175.1094,28.5625 L175.1094,30.0156 Q175.1094,30.625 174.875,30.8906 Q174.6406,31.1563 174.2656,31.1563 Q173.9219,31.1563 173.7188,30.9531 Q173.5156,30.7656 173.4063,30.25 Q173.3594,29.8906 173.1719,29.7031 Q172.8438,29.3281 172.2344,29.1094 Q171.625,28.8906 171,28.8906 Q170.2344,28.8906 169.5938,29.2188 Q168.9688,29.5469 168.4688,30.2969 Q167.9844,31.0469 167.9844,32.0781 L167.9844,33.1719 Q167.9844,34.4063 168.875,35.2344 Q169.7656,36.0469 171.3594,36.0469 Q172.2969,36.0469 172.9531,35.7969 Q173.3438,35.6406 173.7656,35.2031 Q174.0313,34.9375 174.1719,34.8594 Q174.3281,34.7813 174.5313,34.7813 Q174.8594,34.7813 175.1094,35.0469 Q175.375,35.2969 175.375,35.6406 Q175.375,35.9844 175.0313,36.3906 Q174.5313,36.9688 173.7344,37.2969 Q172.6563,37.75 171.3594,37.75 Q169.8438,37.75 168.6406,37.125 Q167.6563,36.625 166.9688,35.5625 Q166.2813,34.4844 166.2813,33.2031 L166.2813,32.0469 Q166.2813,30.7188 166.8906,29.5781 Q167.5156,28.4219 168.6094,27.8125 Q169.7031,27.1875 170.9375,27.1875 Q171.6719,27.1875 172.3125,27.3594 Q172.9688,27.5156 173.5156,27.875 Z " fill="#000000"/><text fill="#000000" font-family="sans-serif" font-size="14" lengthAdjust="spacing" textLength="81" x="191.25" y="37.7285">BookedState</text><line style="stroke:#181818;stroke-width:0.5;" x1="98" x2="333" y1="48" y2="48"/><rect fill="none" height="6" style="stroke:#C82930;stroke-width:1.0;" width="6" x="105" y="59.3047"/><text fill="#000000" font-family="sans-serif" font-size="14" lengthAdjust="spacing" textLength="106" x="117" y="66.5332">bookingId: String</text><line style="stroke:#181818;stroke-width:0.5;" x1="98" x2="333" y1="73.6094" y2="73.6094"/><ellipse cx="108" cy="87.9141" fill="#84BE84" rx="3" ry="3" style="stroke:#038048;stroke-width:1.0;"/><text fill="#000000" font-family="sans-serif" font-size="14" lengthAdjust="spacing" textLength="211" x="117" y="92.1426">handleBooking(): AvailabilityState</text></g><!--class OpenedState--><g id="elem_OpenedState"><rect codeLine="23" fill="#F1F1F1" height="65.6094" id="OpenedState" rx="2.5" ry="2.5" style="stroke:#181818;stroke-width:0.5;" width="237" x="369" y="24.5"/><ellipse cx="441.25" cy="40.5" fill="#ADD1B2" rx="11" ry="11" style="stroke:#181818;stroke-width:1.0;"/><path d="M444.0156,36.375 Q444.1719,36.1563 444.3594,36.0469 Q444.5469,35.9375 444.7656,35.9375 Q445.1406,35.9375 445.375,36.2031 Q445.6094,36.4531 445.6094,37.0625 L445.6094,38.5156 Q445.6094,39.125 445.375,39.3906 Q445.1406,39.6563 444.7656,39.6563 Q444.4219,39.6563 444.2188,39.4531 Q444.0156,39.2656 443.9063,38.75 Q443.8594,38.3906 443.6719,38.2031 Q443.3438,37.8281 442.7344,37.6094 Q442.125,37.3906 441.5,37.3906 Q440.7344,37.3906 440.0938,37.7188 Q439.4688,38.0469 438.9688,38.7969 Q438.4844,39.5469 438.4844,40.5781 L438.4844,41.6719 Q438.4844,42.9063 439.375,43.7344 Q440.2656,44.5469 441.8594,44.5469 Q442.7969,44.5469 443.4531,44.2969 Q443.8438,44.1406 444.2656,43.7031 Q444.5313,43.4375 444.6719,43.3594 Q444.8281,43.2813 445.0313,43.2813 Q445.3594,43.2813 445.6094,43.5469 Q445.875,43.7969 445.875,44.1406 Q445.875,44.4844 445.5313,44.8906 Q445.0313,45.4688 444.2344,45.7969 Q443.1563,46.25 441.8594,46.25 Q440.3438,46.25 439.1406,45.625 Q438.1563,45.125 437.4688,44.0625 Q436.7813,42.9844 436.7813,41.7031 L436.7813,40.5469 Q436.7813,39.2188 437.3906,38.0781 Q438.0156,36.9219 439.1094,36.3125 Q440.2031,35.6875 441.4375,35.6875 Q442.1719,35.6875 442.8125,35.8594 Q443.4688,36.0156 444.0156,36.375 Z " fill="#000000"/><text fill="#000000" font-family="sans-serif" font-size="14" lengthAdjust="spacing" textLength="84" x="461.75" y="46.2285">OpenedState</text><line style="stroke:#181818;stroke-width:0.5;" x1="370" x2="605" y1="56.5" y2="56.5"/><line style="stroke:#181818;stroke-width:0.5;" x1="370" x2="605" y1="64.5" y2="64.5"/><ellipse cx="380" cy="78.8047" fill="#84BE84" rx="3" ry="3" style="stroke:#038048;stroke-width:1.0;"/><text fill="#000000" font-family="sans-serif" font-size="14" lengthAdjust="spacing" textLength="211" x="389" y="83.0332">handleBooking(): AvailabilityState</text></g><!--class MaintainedState--><g id="elem_MaintainedState"><rect codeLine="28" fill="#F1F1F1" height="100.8281" id="MaintainedState" rx="2.5" ry="2.5" style="stroke:#181818;stroke-width:0.5;" width="237" x="641" y="7"/><ellipse cx="704.25" cy="23" fill="#ADD1B2" rx="11" ry="11" style="stroke:#181818;stroke-width:1.0;"/><path d="M707.0156,18.875 Q707.1719,18.6563 707.3594,18.5469 Q707.5469,18.4375 707.7656,18.4375 Q708.1406,18.4375 708.375,18.7031 Q708.6094,18.9531 708.6094,19.5625 L708.6094,21.0156 Q708.6094,21.625 708.375,21.8906 Q708.1406,22.1563 707.7656,22.1563 Q707.4219,22.1563 707.2188,21.9531 Q707.0156,21.7656 706.9063,21.25 Q706.8594,20.8906 706.6719,20.7031 Q706.3438,20.3281 705.7344,20.1094 Q705.125,19.8906 704.5,19.8906 Q703.7344,19.8906 703.0938,20.2188 Q702.4688,20.5469 701.9688,21.2969 Q701.4844,22.0469 701.4844,23.0781 L701.4844,24.1719 Q701.4844,25.4063 702.375,26.2344 Q703.2656,27.0469 704.8594,27.0469 Q705.7969,27.0469 706.4531,26.7969 Q706.8438,26.6406 707.2656,26.2031 Q707.5313,25.9375 707.6719,25.8594 Q707.8281,25.7813 708.0313,25.7813 Q708.3594,25.7813 708.6094,26.0469 Q708.875,26.2969 708.875,26.6406 Q708.875,26.9844 708.5313,27.3906 Q708.0313,27.9688 707.2344,28.2969 Q706.1563,28.75 704.8594,28.75 Q703.3438,28.75 702.1406,28.125 Q701.1563,27.625 700.4688,26.5625 Q699.7813,25.4844 699.7813,24.2031 L699.7813,23.0469 Q699.7813,21.7188 700.3906,20.5781 Q701.0156,19.4219 702.1094,18.8125 Q703.2031,18.1875 704.4375,18.1875 Q705.1719,18.1875 705.8125,18.3594 Q706.4688,18.5156 707.0156,18.875 Z " fill="#000000"/><text fill="#000000" font-family="sans-serif" font-size="14" lengthAdjust="spacing" textLength="102" x="724.75" y="28.7285">MaintainedState</text><line style="stroke:#181818;stroke-width:0.5;" x1="642" x2="877" y1="39" y2="39"/><rect fill="none" height="6" style="stroke:#C82930;stroke-width:1.0;" width="6" x="649" y="50.3047"/><text fill="#000000" font-family="sans-serif" font-size="14" lengthAdjust="spacing" textLength="156" x="661" y="57.5332">maintenanceStart: String</text><rect fill="none" height="6" style="stroke:#C82930;stroke-width:1.0;" width="6" x="649" y="67.9141"/><text fill="#000000" font-family="sans-serif" font-size="14" lengthAdjust="spacing" textLength="151" x="661" y="75.1426">maintenanceEnd: String</text><line style="stroke:#181818;stroke-width:0.5;" x1="642" x2="877" y1="82.2188" y2="82.2188"/><ellipse cx="652" cy="96.5234" fill="#84BE84" rx="3" ry="3" style="stroke:#038048;stroke-width:1.0;"/><text fill="#000000" font-family="sans-serif" font-size="14" lengthAdjust="spacing" textLength="211" x="661" y="100.752">handleBooking(): AvailabilityState</text></g><!--link BookedState to AvailabilityState--><g id="link_BookedState_AvailabilityState"><path codeLine="35" d="M272.52,99.17 C317.37,131.16 379.77,175.66 425.79,208.48 " fill="none" id="BookedState-to-AvailabilityState" style="stroke:#181818;stroke-width:1.0;stroke-dasharray:7.0,7.0;"/><polygon fill="none" points="430.03,202.91,442.25,220.22,421.9,214.31,430.03,202.91" style="stroke:#181818;stroke-width:1.0;"/></g><!--link OpenedState to AvailabilityState--><g id="link_OpenedState_AvailabilityState"><path codeLine="36" d="M487.5,90.54 C487.5,120.3 487.5,165.18 487.5,200.15 " fill="none" id="OpenedState-to-AvailabilityState" style="stroke:#181818;stroke-width:1.0;stroke-dasharray:7.0,7.0;"/><polygon fill="none" points="494.5,200.42,487.5,220.42,480.5,200.42,494.5,200.42" style="stroke:#181818;stroke-width:1.0;"/></g><!--link MaintainedState to AvailabilityState--><g id="link_MaintainedState_AvailabilityState"><path codeLine="37" d="M689.81,108.21 C646.37,139.19 590.98,178.7 549.14,208.53 " fill="none" id="MaintainedState-to-AvailabilityState" style="stroke:#181818;stroke-width:1.0;stroke-dasharray:7.0,7.0;"/><polygon fill="none" points="553.04,214.35,532.69,220.27,544.91,202.96,553.04,214.35" style="stroke:#181818;stroke-width:1.0;"/></g><!--link Gym to AvailabilityState--><g id="link_Gym_AvailabilityState"><path codeLine="38" d="M344.23,253.5 C344.23,253.5 351.02,253.5 353.8,253.5 " fill="none" id="Gym-AvailabilityState" style="stroke:#181818;stroke-width:1.0;"/><polygon fill="none" points="332.23,253.5,338.23,257.5,344.23,253.5,338.23,249.5,332.23,253.5" style="stroke:#181818;stroke-width:1.0;"/><polygon fill="#181818" points="366.8,253.5,357.8,249.5,361.8,253.5,357.8,257.5,366.8,253.5" style="stroke:#181818;stroke-width:1.0;"/><line style="stroke:#181818;stroke-width:1.0;" x1="361.8" x2="353.8" y1="253.5" y2="253.5"/></g><!--SRC=[dL9BQiCm4Dtx5BDqQ9q3P55eQIbTb1PyWeaqIORQeo2Ba93qxXtP3aZ6ARG6BJplewSdcGQx3bvFxRa0_IeGR0bMK0VFiXrdR4a2RvZy5C43hhdXSAe3XgXxp0OZgyNZ9_h0XlSeeLi1I-YXEt1xadAXmeDZEyxUKN5TvR0LT475psftFsuE93R-BpBP3iKszEJSbrBAA_PT58NQaT-WeHYFcpJXULuyd2IdzbQcxoloo2O65Qm7wPlD6ff9zPllXxQH-VvHVsrkagsDOn8KGtNiSdA92VmY_yoVD0BBvULXXfOSxXPbalyMJPyhkAholDs56Vm7]--></g></svg>