<?xml version="1.0" encoding="UTF-8" standalone="no"?><svg xmlns="http://www.w3.org/2000/svg" xmlns:xlink="http://www.w3.org/1999/xlink" contentStyleType="text/css" height="1066px" preserveAspectRatio="none" style="width:1310px;height:1066px;background:#FFFFFF;" version="1.1" viewBox="0 0 1310 1066" width="1310px" zoomAndPan="magnify"><defs/><g><rect fill="none" height="22.6406" style="stroke:none;stroke-width:1.0;" width="1277.5" x="15" y="12.4551"/><rect fill="#F1F1F1" height="35.0938" rx="12.5" ry="12.5" style="stroke:#181818;stroke-width:0.5;" width="186" x="466" y="207.8926"/><text fill="#000000" font-family="sans-serif" font-size="12" lengthAdjust="spacing" textLength="166" x="476" y="230.3496">Wyświetlenie kalendarza zajęć</text><polygon fill="#F1F1F1" points="458,417.1738,660,417.1738,672,429.1738,660,441.1738,458,441.1738,446,429.1738,458,417.1738" style="stroke:#181818;stroke-width:0.5;"/><text fill="#000000" font-family="sans-serif" font-size="11" lengthAdjust="spacing" textLength="14" x="563" y="452.5928">tak</text><text fill="#000000" font-family="sans-serif" font-size="11" lengthAdjust="spacing" textLength="202" x="458" y="433.6748">Czy na liście istnieje chociaż jeden Klient?</text><text fill="#000000" font-family="sans-serif" font-size="11" lengthAdjust="spacing" textLength="14" x="672" y="426.7568">nie</text><rect fill="#F1F1F1" height="35.0938" rx="12.5" ry="12.5" style="stroke:#181818;stroke-width:0.5;" width="230" x="444" y="474.0928"/><text fill="#000000" font-family="sans-serif" font-size="12" lengthAdjust="spacing" textLength="210" x="454" y="496.5498">Wyświetlenie listy zapisanych Klientów</text><rect fill="#F1F1F1" height="35.0938" rx="12.5" ry="12.5" style="stroke:#181818;stroke-width:0.5;" width="170" x="474" y="584.2803"/><text fill="#000000" font-family="sans-serif" font-size="12" lengthAdjust="spacing" textLength="150" x="484" y="606.7373">Wyświetlenie profilu Klienta</text><polygon fill="#F1F1F1" points="432.5,863.6553,685.5,863.6553,697.5,875.6553,685.5,887.6553,432.5,887.6553,420.5,875.6553,432.5,863.6553" style="stroke:#181818;stroke-width:0.5;"/><text fill="#000000" font-family="sans-serif" font-size="11" lengthAdjust="spacing" textLength="14" x="563" y="899.0742">nie</text><text fill="#000000" font-family="sans-serif" font-size="11" lengthAdjust="spacing" textLength="253" x="432.5" y="880.1563">Wiadomość pusta lub zawiera niedozwolone treści?</text><text fill="#000000" font-family="sans-serif" font-size="11" lengthAdjust="spacing" textLength="14" x="697.5" y="873.2383">tak</text><rect fill="#F1F1F1" height="35.0938" rx="12.5" ry="12.5" style="stroke:#181818;stroke-width:0.5;" width="185" x="721.5" y="773.5146"/><text fill="#000000" font-family="sans-serif" font-size="12" lengthAdjust="spacing" textLength="162" x="734.5" y="795.9717">Informacja zwrotna do trenera</text><rect fill="#F1F1F1" height="35.0938" rx="12.5" ry="12.5" style="stroke:#181818;stroke-width:0.5;" width="196" x="461" y="920.5742"/><text fill="#000000" font-family="sans-serif" font-size="12" lengthAdjust="spacing" textLength="176" x="471" y="943.0313">Wysłanie wiadomości do klienta</text><rect fill="#F1F1F1" height="35.0938" rx="12.5" ry="12.5" style="stroke:#181818;stroke-width:0.5;" width="308" x="405" y="975.668"/><text fill="#000000" font-family="sans-serif" font-size="12" lengthAdjust="spacing" textLength="288" x="415" y="998.125">Wygenerowanie potwierdzenia wysłania wiadomości</text><path d="M20,1028.5859 L20,1054.9375 L528,1054.9375 L528,1038.5859 L518,1028.5859 L20,1028.5859 " fill="#FEFFDD" style="stroke:#181818;stroke-width:0.5;"/><path d="M518,1028.5859 L518,1038.5859 L528,1038.5859 L518,1028.5859 " fill="#FEFFDD" style="stroke:#181818;stroke-width:0.5;"/><text fill="#000000" font-family="sans-serif" font-size="13" lengthAdjust="spacing" textLength="487" x="26" y="1047.0811">Wiadomość od Trenera dociera do Klienta, który ma możliwość na nią odpowiedzieć</text><ellipse cx="559" cy="1041.7617" fill="none" rx="11" ry="11" style="stroke:#222222;stroke-width:1.0;"/><ellipse cx="559" cy="1041.7617" fill="#222222" rx="6" ry="6" style="stroke:#111111;stroke-width:1.0;"/><line style="stroke:#000000;stroke-width:1.5;" x1="15" x2="15" y1="12.4551" y2="1054.9375"/><path d="M925.5,50.0957 L925.5,76.4473 L1124.5,76.4473 L1124.5,60.0957 L1114.5,50.0957 L925.5,50.0957 " fill="#FEFFDD" style="stroke:#181818;stroke-width:0.5;"/><path d="M1114.5,50.0957 L1114.5,60.0957 L1124.5,60.0957 L1114.5,50.0957 " fill="#FEFFDD" style="stroke:#181818;stroke-width:0.5;"/><text fill="#000000" font-family="sans-serif" font-size="13" lengthAdjust="spacing" textLength="178" x="931.5" y="68.5908">Trener zalogowany w systemie</text><path d="M938.5,96.4473 L938.5,122.7988 L1111.5,122.7988 L1111.5,106.4473 L1101.5,96.4473 L938.5,96.4473 " fill="#FEFFDD" style="stroke:#181818;stroke-width:0.5;"/><path d="M1101.5,96.4473 L1101.5,106.4473 L1111.5,106.4473 L1101.5,96.4473 " fill="#FEFFDD" style="stroke:#181818;stroke-width:0.5;"/><text fill="#000000" font-family="sans-serif" font-size="13" lengthAdjust="spacing" textLength="152" x="944.5" y="114.9424">W systemie istnieje Klient</text><ellipse cx="1144.5" cy="86.4473" fill="#222222" rx="10" ry="10" style="stroke:#222222;stroke-width:1.0;"/><rect fill="#F1F1F1" height="35.0938" rx="12.5" ry="12.5" style="stroke:#181818;stroke-width:0.5;" width="285" x="1002" y="152.7988"/><text fill="#000000" font-family="sans-serif" font-size="12" lengthAdjust="spacing" textLength="265" x="1012" y="175.2559">przejście do sekcji Organizacja zajęć w systemie</text><rect fill="#F1F1F1" height="35.0938" rx="12.5" ry="12.5" style="stroke:#181818;stroke-width:0.5;" width="85" x="1102" y="262.9863"/><text fill="#000000" font-family="sans-serif" font-size="12" lengthAdjust="spacing" textLength="65" x="1112" y="285.4434">Wybór zajęć</text><rect fill="#F1F1F1" height="35.0938" rx="12.5" ry="12.5" style="stroke:#181818;stroke-width:0.5;" width="240" x="1024.5" y="362.0801"/><text fill="#000000" font-family="sans-serif" font-size="12" lengthAdjust="spacing" textLength="220" x="1034.5" y="384.5371">Wybranie opcji lista zapisanych Klientów</text><polygon fill="#F1F1F1" points="1144.5,318.0801,1156.5,330.0801,1144.5,342.0801,1132.5,330.0801,1144.5,318.0801" style="stroke:#181818;stroke-width:0.5;"/><rect fill="#F1F1F1" height="35.0938" rx="12.5" ry="12.5" style="stroke:#181818;stroke-width:0.5;" width="177" x="1056" y="529.1865"/><text fill="#000000" font-family="sans-serif" font-size="12" lengthAdjust="spacing" textLength="157" x="1066" y="551.6436">Wybranie jednego z Klientów</text><rect fill="#F1F1F1" height="35.0938" rx="12.5" ry="12.5" style="stroke:#181818;stroke-width:0.5;" width="269" x="1010" y="639.374"/><text fill="#000000" font-family="sans-serif" font-size="12" lengthAdjust="spacing" textLength="249" x="1020" y="661.8311">Wybór opcji napisania wiadomości do Klienta</text><rect fill="#F1F1F1" height="35.0938" rx="12.5" ry="12.5" style="stroke:#181818;stroke-width:0.5;" width="175" x="1057" y="738.4678"/><text fill="#000000" font-family="sans-serif" font-size="12" lengthAdjust="spacing" textLength="155" x="1067" y="760.9248">Wpisanie treści wiadomości</text><rect fill="#F1F1F1" height="35.0938" rx="12.5" ry="12.5" style="stroke:#181818;stroke-width:0.5;" width="142" x="1073.5" y="808.5615"/><text fill="#000000" font-family="sans-serif" font-size="12" lengthAdjust="spacing" textLength="122" x="1083.5" y="831.0186">Wybór przycisku Wyślij</text><polygon fill="#F1F1F1" points="1144.5,694.4678,1156.5,706.4678,1144.5,718.4678,1132.5,706.4678,1144.5,694.4678" style="stroke:#181818;stroke-width:0.5;"/><line style="stroke:#000000;stroke-width:1.5;" x1="910.5" x2="910.5" y1="12.4551" y2="1054.9375"/><line style="stroke:#000000;stroke-width:1.5;" x1="1291" x2="1291" y1="12.4551" y2="1054.9375"/><line style="stroke:#181818;stroke-width:1.0;" x1="559" x2="559" y1="441.1738" y2="474.0928"/><polygon fill="#181818" points="555,464.0928,559,474.0928,563,464.0928,559,468.0928" style="stroke:#181818;stroke-width:1.0;"/><line style="stroke:#181818;stroke-width:1.0;" x1="697.5" x2="814" y1="875.6553" y2="875.6553"/><line style="stroke:#181818;stroke-width:1.0;" x1="814" x2="814" y1="808.6084" y2="875.6553"/><polygon fill="#181818" points="810,818.6084,814,808.6084,818,818.6084,814,814.6084" style="stroke:#181818;stroke-width:1.0;"/><line style="stroke:#181818;stroke-width:1.0;" x1="559" x2="559" y1="887.6553" y2="920.5742"/><polygon fill="#181818" points="555,910.5742,559,920.5742,563,910.5742,559,914.5742" style="stroke:#181818;stroke-width:1.0;"/><line style="stroke:#181818;stroke-width:1.0;" x1="559" x2="559" y1="955.668" y2="975.668"/><polygon fill="#181818" points="555,965.668,559,975.668,563,965.668,559,969.668" style="stroke:#181818;stroke-width:1.0;"/><line style="stroke:#181818;stroke-width:1.0;" x1="559" x2="559" y1="1010.7617" y2="1030.7617"/><polygon fill="#181818" points="555,1020.7617,559,1030.7617,563,1020.7617,559,1024.7617" style="stroke:#181818;stroke-width:1.0;"/><line style="stroke:#181818;stroke-width:1.0;" x1="1144.5" x2="1144.5" y1="96.4473" y2="152.7988"/><polygon fill="#181818" points="1140.5,142.7988,1144.5,152.7988,1148.5,142.7988,1144.5,146.7988" style="stroke:#181818;stroke-width:1.0;"/><line style="stroke:#181818;stroke-width:1.0;" x1="1144.5" x2="1144.5" y1="342.0801" y2="362.0801"/><polygon fill="#181818" points="1140.5,352.0801,1144.5,362.0801,1148.5,352.0801,1144.5,356.0801" style="stroke:#181818;stroke-width:1.0;"/><line style="stroke:#181818;stroke-width:1.0;" x1="1144.5" x2="1144.5" y1="298.0801" y2="318.0801"/><polygon fill="#181818" points="1140.5,308.0801,1144.5,318.0801,1148.5,308.0801,1144.5,312.0801" style="stroke:#181818;stroke-width:1.0;"/><line style="stroke:#181818;stroke-width:1.0;" x1="1144.5" x2="1144.5" y1="773.5615" y2="808.5615"/><polygon fill="#181818" points="1140.5,798.5615,1144.5,808.5615,1148.5,798.5615,1144.5,802.5615" style="stroke:#181818;stroke-width:1.0;"/><line style="stroke:#181818;stroke-width:1.0;" x1="1144.5" x2="1144.5" y1="718.4678" y2="738.4678"/><polygon fill="#181818" points="1140.5,728.4678,1144.5,738.4678,1148.5,728.4678,1144.5,732.4678" style="stroke:#181818;stroke-width:1.0;"/><line style="stroke:#181818;stroke-width:1.0;" x1="1144.5" x2="1144.5" y1="674.4678" y2="694.4678"/><polygon fill="#181818" points="1140.5,684.4678,1144.5,694.4678,1148.5,684.4678,1144.5,688.4678" style="stroke:#181818;stroke-width:1.0;"/><line style="stroke:#181818;stroke-width:1.0;" x1="1144.5" x2="1144.5" y1="187.8926" y2="192.8926"/><line style="stroke:#181818;stroke-width:1.0;" x1="1144.5" x2="559" y1="192.8926" y2="192.8926"/><line style="stroke:#181818;stroke-width:1.0;" x1="559" x2="559" y1="192.8926" y2="207.8926"/><polygon fill="#181818" points="555,197.8926,559,207.8926,563,197.8926,559,201.8926" style="stroke:#181818;stroke-width:1.0;"/><line style="stroke:#181818;stroke-width:1.0;" x1="559" x2="559" y1="242.9863" y2="247.9863"/><line style="stroke:#181818;stroke-width:1.0;" x1="559" x2="1144.5" y1="247.9863" y2="247.9863"/><line style="stroke:#181818;stroke-width:1.0;" x1="1144.5" x2="1144.5" y1="247.9863" y2="262.9863"/><polygon fill="#181818" points="1140.5,252.9863,1144.5,262.9863,1148.5,252.9863,1144.5,256.9863" style="stroke:#181818;stroke-width:1.0;"/><line style="stroke:#181818;stroke-width:1.0;" x1="672" x2="1017.375" y1="429.1738" y2="429.1738"/><polygon fill="#181818" points="1013.375,389.627,1017.375,379.627,1021.375,389.627,1017.375,385.627" style="stroke:#181818;stroke-width:1.0;"/><line style="stroke:#181818;stroke-width:1.0;" x1="1017.375" x2="1017.375" y1="330.0801" y2="429.1738"/><line style="stroke:#181818;stroke-width:1.0;" x1="1017.375" x2="1132.5" y1="330.0801" y2="330.0801"/><polygon fill="#181818" points="1122.5,326.0801,1132.5,330.0801,1122.5,334.0801,1126.5,330.0801" style="stroke:#181818;stroke-width:1.0;"/><line style="stroke:#181818;stroke-width:1.0;" x1="1144.5" x2="1144.5" y1="397.1738" y2="402.1738"/><line style="stroke:#181818;stroke-width:1.0;" x1="1144.5" x2="559" y1="402.1738" y2="402.1738"/><line style="stroke:#181818;stroke-width:1.0;" x1="559" x2="559" y1="402.1738" y2="417.1738"/><polygon fill="#181818" points="555,407.1738,559,417.1738,563,407.1738,559,411.1738" style="stroke:#181818;stroke-width:1.0;"/><line style="stroke:#181818;stroke-width:1.0;" x1="559" x2="559" y1="509.1865" y2="514.1865"/><line style="stroke:#181818;stroke-width:1.0;" x1="559" x2="1144.5" y1="514.1865" y2="514.1865"/><line style="stroke:#181818;stroke-width:1.0;" x1="1144.5" x2="1144.5" y1="514.1865" y2="529.1865"/><polygon fill="#181818" points="1140.5,519.1865,1144.5,529.1865,1148.5,519.1865,1144.5,523.1865" style="stroke:#181818;stroke-width:1.0;"/><line style="stroke:#181818;stroke-width:1.0;" x1="1144.5" x2="1144.5" y1="564.2803" y2="569.2803"/><line style="stroke:#181818;stroke-width:1.0;" x1="1144.5" x2="559" y1="569.2803" y2="569.2803"/><line style="stroke:#181818;stroke-width:1.0;" x1="559" x2="559" y1="569.2803" y2="584.2803"/><polygon fill="#181818" points="555,574.2803,559,584.2803,563,574.2803,559,578.2803" style="stroke:#181818;stroke-width:1.0;"/><line style="stroke:#181818;stroke-width:1.0;" x1="559" x2="559" y1="619.374" y2="624.374"/><line style="stroke:#181818;stroke-width:1.0;" x1="559" x2="1144.5" y1="624.374" y2="624.374"/><line style="stroke:#181818;stroke-width:1.0;" x1="1144.5" x2="1144.5" y1="624.374" y2="639.374"/><polygon fill="#181818" points="1140.5,629.374,1144.5,639.374,1148.5,629.374,1144.5,633.374" style="stroke:#181818;stroke-width:1.0;"/><line style="stroke:#181818;stroke-width:1.0;" x1="814" x2="814" y1="706.4678" y2="773.5146"/><line style="stroke:#181818;stroke-width:1.0;" x1="814" x2="1132.5" y1="706.4678" y2="706.4678"/><polygon fill="#181818" points="1122.5,702.4678,1132.5,706.4678,1122.5,710.4678,1126.5,706.4678" style="stroke:#181818;stroke-width:1.0;"/><line style="stroke:#181818;stroke-width:1.0;" x1="1144.5" x2="1144.5" y1="843.6553" y2="848.6553"/><line style="stroke:#181818;stroke-width:1.0;" x1="1144.5" x2="559" y1="848.6553" y2="848.6553"/><line style="stroke:#181818;stroke-width:1.0;" x1="559" x2="559" y1="848.6553" y2="863.6553"/><polygon fill="#181818" points="555,853.6553,559,863.6553,563,853.6553,559,857.6553" style="stroke:#181818;stroke-width:1.0;"/><text fill="#000000" font-family="sans-serif" font-size="18" lengthAdjust="spacing" textLength="59" x="435.75" y="31.1406">System</text><text fill="#000000" font-family="sans-serif" font-size="18" lengthAdjust="spacing" textLength="54" x="1076.25" y="31.1406">Trener</text><!--SRC=[TLCxZjim4ErrYYbj82UGYnIfWXGf4i3rM1hBb6XI86aG4bG52FOCmHvZs-tMlbTcH4hn6Xir0iJtvds6clm4FmOVw5nCOOAVZWovmWTqeJXgYq6P1emD19gEeSm0657RnaOq0qJmCr_HXuJzUWpA1wEe9VYc5PbGbBqRgRqzLtnMM_3KLQs2xwv1eqQiMcIPzlhd-dIdiIicFnNbVhWzHqL14q-43lbTenjNnaxI2EpmzkB-VNJK4uRvkqDXsbuaDJiJQgyy9wfEsU3RIqnoYGRnf3J1viiuW44c9UThgkfaAuMtLsYf9fDdVDuo03QCs4ehi0dORH_zY_xmF_sS8_dbqOOQ2-EZnOU9lRD7fIyPXU_hIA5DabC8KM5jprRYo1vMJcuB-2dt2KmG7Ct0Ez8kGz9qNkfGATzTG2nfrQPZCNd0gelewXA-cgDrvxJZw6pWFbavp9ThLLuAtozIV1FwYwnANmvS5yTr26ogjcEqsfhLNMvTkawjI_zBJ_xsQqxo4BjROZEa4HzolQLA6qIe7cdkAjFnVG4-sFxZwt_dtTRvzv6mbKhlfUvFqF4stG1d1CQ_QXKJoqZ4wszczvQDrAEYwzDV]--></g></svg>