<svg xmlns="http://www.w3.org/2000/svg" xmlns:xlink="http://www.w3.org/1999/xlink" contentStyleType="text/css" data-diagram-type="SEQUENCE" height="630px" preserveAspectRatio="none" style="width:523px;height:630px;background:#FFFFFF;" version="1.1" viewBox="0 0 523 630" width="523px" zoomAndPan="magnify"><defs/><g><rect fill="#FFFFFF" fill-opacity="0.00000" height="333.4063" style="stroke:#000000;stroke-width:1.5;" width="506.6123" x="10" y="199.6953"/><rect fill="#FFFFFF" fill-opacity="0.00000" height="145.0703" style="stroke:#000000;stroke-width:1.5;" width="486.6123" x="20" y="381.0313"/><g><title>User</title><rect fill="#FFFFFF" fill-opacity="0.00000" height="468.8047" width="8" x="44.9551" y="81.2969"/><line style="stroke:#181818;stroke-width:0.5;stroke-dasharray:5.0,5.0;" x1="48" x2="48" y1="81.2969" y2="550.1016"/></g><g><title>GUI</title><rect fill="#FFFFFF" fill-opacity="0.00000" height="468.8047" width="8" x="110.7671" y="81.2969"/><line style="stroke:#181818;stroke-width:0.5;stroke-dasharray:5.0,5.0;" x1="114.1548" x2="114.1548" y1="81.2969" y2="550.1016"/></g><g><title>LoginManager</title><rect fill="#FFFFFF" fill-opacity="0.00000" height="468.8047" width="8" x="256.9404" y="81.2969"/><line style="stroke:#181818;stroke-width:0.5;stroke-dasharray:5.0,5.0;" x1="260.25" x2="260.25" y1="81.2969" y2="550.1016"/></g><g><title>Database</title><rect fill="#FFFFFF" fill-opacity="0.00000" height="468.8047" width="8" x="456.2119" y="81.2969"/><line style="stroke:#181818;stroke-width:0.5;stroke-dasharray:5.0,5.0;" x1="459.8115" x2="459.8115" y1="81.2969" y2="550.1016"/></g><text fill="#000000" font-family="sans-serif" font-size="14" lengthAdjust="spacing" textLength="31.9102" x="30" y="77.9951">User</text><ellipse cx="48.9551" cy="13.5" fill="#E2E2F0" rx="8" ry="8" style="stroke:#181818;stroke-width:0.5;"/><path d="M48.9551,21.5 L48.9551,48.5 M35.9551,29.5 L61.9551,29.5 M48.9551,48.5 L35.9551,63.5 M48.9551,48.5 L61.9551,63.5 " fill="#FFFFFF" fill-opacity="0.00000" style="stroke:#181818;stroke-width:0.5;"/><text fill="#000000" font-family="sans-serif" font-size="14" lengthAdjust="spacing" textLength="31.9102" x="30" y="562.0967">User</text><ellipse cx="48.9551" cy="573.8984" fill="#E2E2F0" rx="8" ry="8" style="stroke:#181818;stroke-width:0.5;"/><path d="M48.9551,581.8984 L48.9551,608.8984 M35.9551,589.8984 L61.9551,589.8984 M48.9551,608.8984 L35.9551,623.8984 M48.9551,608.8984 L61.9551,623.8984 " fill="#FFFFFF" fill-opacity="0.00000" style="stroke:#181818;stroke-width:0.5;"/><rect fill="#E2E2F0" height="30.2969" rx="2.5" ry="2.5" style="stroke:#181818;stroke-width:0.5;" width="39.2246" x="95.1548" y="50"/><text fill="#000000" font-family="sans-serif" font-size="14" lengthAdjust="spacing" textLength="25.2246" x="102.1548" y="69.9951">GUI</text><rect fill="#E2E2F0" height="30.2969" rx="2.5" ry="2.5" style="stroke:#181818;stroke-width:0.5;" width="39.2246" x="95.1548" y="549.1016"/><text fill="#000000" font-family="sans-serif" font-size="14" lengthAdjust="spacing" textLength="25.2246" x="102.1548" y="569.0967">GUI</text><rect fill="#E2E2F0" height="30.2969" rx="2.5" ry="2.5" style="stroke:#181818;stroke-width:0.5;" width="113.3809" x="204.25" y="50"/><text fill="#000000" font-family="sans-serif" font-size="14" lengthAdjust="spacing" textLength="99.3809" x="211.25" y="69.9951">LoginManager</text><rect fill="#E2E2F0" height="30.2969" rx="2.5" ry="2.5" style="stroke:#181818;stroke-width:0.5;" width="113.3809" x="204.25" y="549.1016"/><text fill="#000000" font-family="sans-serif" font-size="14" lengthAdjust="spacing" textLength="99.3809" x="211.25" y="569.0967">LoginManager</text><text fill="#000000" font-family="sans-serif" font-size="14" lengthAdjust="spacing" textLength="66.8008" x="423.8115" y="77.9951">Database</text><path d="M442.2119,29 C442.2119,19 460.2119,19 460.2119,19 C460.2119,19 478.2119,19 478.2119,29 L478.2119,55 C478.2119,65 460.2119,65 460.2119,65 C460.2119,65 442.2119,65 442.2119,55 L442.2119,29 " fill="#E2E2F0" style="stroke:#181818;stroke-width:1.5;"/><path d="M442.2119,29 C442.2119,39 460.2119,39 460.2119,39 C460.2119,39 478.2119,39 478.2119,29 " fill="#FFFFFF" fill-opacity="0.00000" style="stroke:#181818;stroke-width:1.5;"/><text fill="#000000" font-family="sans-serif" font-size="14" lengthAdjust="spacing" textLength="66.8008" x="423.8115" y="562.0967">Database</text><path d="M442.2119,575.3984 C442.2119,565.3984 460.2119,565.3984 460.2119,565.3984 C460.2119,565.3984 478.2119,565.3984 478.2119,575.3984 L478.2119,601.3984 C478.2119,611.3984 460.2119,611.3984 460.2119,611.3984 C460.2119,611.3984 442.2119,611.3984 442.2119,601.3984 L442.2119,575.3984 " fill="#E2E2F0" style="stroke:#181818;stroke-width:1.5;"/><path d="M442.2119,575.3984 C442.2119,585.3984 460.2119,585.3984 460.2119,585.3984 C460.2119,585.3984 478.2119,585.3984 478.2119,575.3984 " fill="#FFFFFF" fill-opacity="0.00000" style="stroke:#181818;stroke-width:1.5;"/><polygon fill="#181818" points="102.7671,108.4297,112.7671,112.4297,102.7671,116.4297,106.7671,112.4297" style="stroke:#181818;stroke-width:1;"/><line style="stroke:#181818;stroke-width:1;" x1="48.9551" x2="108.7671" y1="112.4297" y2="112.4297"/><text fill="#000000" font-family="sans-serif" font-size="13" lengthAdjust="spacing" textLength="41.812" x="55.9551" y="107.3638">login()</text><polygon fill="#181818" points="248.9404,137.5625,258.9404,141.5625,248.9404,145.5625,252.9404,141.5625" style="stroke:#181818;stroke-width:1;"/><line style="stroke:#181818;stroke-width:1;" x1="114.7671" x2="254.9404" y1="141.5625" y2="141.5625"/><text fill="#000000" font-family="sans-serif" font-size="13" lengthAdjust="spacing" textLength="122.1733" x="121.7671" y="136.4966">checkCredentials()</text><polygon fill="#181818" points="448.2119,166.6953,458.2119,170.6953,448.2119,174.6953,452.2119,170.6953" style="stroke:#181818;stroke-width:1;"/><line style="stroke:#181818;stroke-width:1;" x1="260.9404" x2="454.2119" y1="170.6953" y2="170.6953"/><text fill="#000000" font-family="sans-serif" font-size="13" lengthAdjust="spacing" textLength="64.4541" x="267.9404" y="165.6294">findUser()</text><polygon fill="#181818" points="271.9404,180.6953,261.9404,184.6953,271.9404,188.6953,267.9404,184.6953" style="stroke:#181818;stroke-width:1;"/><line style="stroke:#181818;stroke-width:1;stroke-dasharray:2.0,2.0;" x1="265.9404" x2="459.2119" y1="184.6953" y2="184.6953"/><path d="M10,199.6953 L74.4429,199.6953 L74.4429,206.8281 L64.4429,216.8281 L10,216.8281 L10,199.6953 " fill="#EEEEEE" style="stroke:#000000;stroke-width:1.5;"/><rect fill="#FFFFFF" fill-opacity="0.00000" height="333.4063" style="stroke:#000000;stroke-width:1.5;" width="506.6123" x="10" y="199.6953"/><text fill="#000000" font-family="sans-serif" font-size="13" font-weight="bold" lengthAdjust="spacing" textLength="19.4429" x="25" y="212.7622">alt</text><text fill="#000000" font-family="sans-serif" font-size="11" font-weight="bold" lengthAdjust="spacing" textLength="113.2334" x="89.4429" y="211.9058">[credentials valid]</text><line style="stroke:#181818;stroke-width:1;" x1="260.9404" x2="302.9404" y1="237.9609" y2="237.9609"/><line style="stroke:#181818;stroke-width:1;" x1="302.9404" x2="302.9404" y1="237.9609" y2="250.9609"/><line style="stroke:#181818;stroke-width:1;" x1="261.9404" x2="302.9404" y1="250.9609" y2="250.9609"/><polygon fill="#181818" points="271.9404,246.9609,261.9404,250.9609,271.9404,254.9609,267.9404,250.9609" style="stroke:#181818;stroke-width:1;"/><text fill="#000000" font-family="sans-serif" font-size="13" lengthAdjust="spacing" textLength="101.2959" x="267.9404" y="232.895">createSession()</text><polygon fill="#181818" points="448.2119,276.0938,458.2119,280.0938,448.2119,284.0938,452.2119,280.0938" style="stroke:#181818;stroke-width:1;"/><line style="stroke:#181818;stroke-width:1;" x1="260.9404" x2="454.2119" y1="280.0938" y2="280.0938"/><text fill="#000000" font-family="sans-serif" font-size="13" lengthAdjust="spacing" textLength="142.1431" x="267.9404" y="275.0278">resetFailedAttempts()</text><polygon fill="#181818" points="271.9404,290.0938,261.9404,294.0938,271.9404,298.0938,267.9404,294.0938" style="stroke:#181818;stroke-width:1;"/><line style="stroke:#181818;stroke-width:1;stroke-dasharray:2.0,2.0;" x1="265.9404" x2="459.2119" y1="294.0938" y2="294.0938"/><polygon fill="#181818" points="125.7671,304.0938,115.7671,308.0938,125.7671,312.0938,121.7671,308.0938" style="stroke:#181818;stroke-width:1;"/><line style="stroke:#181818;stroke-width:1;stroke-dasharray:2.0,2.0;" x1="119.7671" x2="259.9404" y1="308.0938" y2="308.0938"/><polygon fill="#181818" points="59.9551,318.0938,49.9551,322.0938,59.9551,326.0938,55.9551,322.0938" style="stroke:#181818;stroke-width:1;"/><line style="stroke:#181818;stroke-width:1;stroke-dasharray:2.0,2.0;" x1="53.9551" x2="113.7671" y1="322.0938" y2="322.0938"/><line style="stroke:#000000;stroke-width:1;stroke-dasharray:2.0,2.0;" x1="10" x2="516.6123" y1="331.0938" y2="331.0938"/><text fill="#000000" font-family="sans-serif" font-size="11" font-weight="bold" lengthAdjust="spacing" textLength="124.835" x="15" y="341.3042">[credentials invalid]</text><polygon fill="#181818" points="448.2119,362.0313,458.2119,366.0313,448.2119,370.0313,452.2119,366.0313" style="stroke:#181818;stroke-width:1;"/><line style="stroke:#181818;stroke-width:1;" x1="260.9404" x2="454.2119" y1="366.0313" y2="366.0313"/><text fill="#000000" font-family="sans-serif" font-size="13" lengthAdjust="spacing" textLength="175.2715" x="267.9404" y="360.9653">incrementFailedAttempts()</text><path d="M20,381.0313 L84.4429,381.0313 L84.4429,388.1641 L74.4429,398.1641 L20,398.1641 L20,381.0313 " fill="#EEEEEE" style="stroke:#000000;stroke-width:1.5;"/><rect fill="#FFFFFF" fill-opacity="0.00000" height="145.0703" style="stroke:#000000;stroke-width:1.5;" width="486.6123" x="20" y="381.0313"/><text fill="#000000" font-family="sans-serif" font-size="13" font-weight="bold" lengthAdjust="spacing" textLength="19.4429" x="35" y="394.0981">alt</text><text fill="#000000" font-family="sans-serif" font-size="11" font-weight="bold" lengthAdjust="spacing" textLength="208.3608" x="99.4429" y="393.2417">[max failed attemps not reached]</text><polygon fill="#181818" points="271.9404,400.1641,261.9404,404.1641,271.9404,408.1641,267.9404,404.1641" style="stroke:#181818;stroke-width:1;"/><line style="stroke:#181818;stroke-width:1;stroke-dasharray:2.0,2.0;" x1="265.9404" x2="459.2119" y1="404.1641" y2="404.1641"/><polygon fill="#181818" points="125.7671,414.1641,115.7671,418.1641,125.7671,422.1641,121.7671,418.1641" style="stroke:#181818;stroke-width:1;"/><line style="stroke:#181818;stroke-width:1;stroke-dasharray:2.0,2.0;" x1="119.7671" x2="259.9404" y1="418.1641" y2="418.1641"/><polygon fill="#181818" points="59.9551,428.1641,49.9551,432.1641,59.9551,436.1641,55.9551,432.1641" style="stroke:#181818;stroke-width:1;"/><line style="stroke:#181818;stroke-width:1;stroke-dasharray:2.0,2.0;" x1="53.9551" x2="113.7671" y1="432.1641" y2="432.1641"/><line style="stroke:#000000;stroke-width:1;stroke-dasharray:2.0,2.0;" x1="20" x2="506.6123" y1="441.1641" y2="441.1641"/><text fill="#000000" font-family="sans-serif" font-size="11" font-weight="bold" lengthAdjust="spacing" textLength="183.8848" x="25" y="451.3745">[max failed attemps reached]</text><polygon fill="#181818" points="448.2119,472.1016,458.2119,476.1016,448.2119,480.1016,452.2119,476.1016" style="stroke:#181818;stroke-width:1;"/><line style="stroke:#181818;stroke-width:1;" x1="260.9404" x2="454.2119" y1="476.1016" y2="476.1016"/><text fill="#000000" font-family="sans-serif" font-size="13" lengthAdjust="spacing" textLength="89.1021" x="267.9404" y="471.0356">lockAccount()</text><polygon fill="#181818" points="271.9404,486.1016,261.9404,490.1016,271.9404,494.1016,267.9404,490.1016" style="stroke:#181818;stroke-width:1;"/><line style="stroke:#181818;stroke-width:1;stroke-dasharray:2.0,2.0;" x1="265.9404" x2="459.2119" y1="490.1016" y2="490.1016"/><polygon fill="#181818" points="125.7671,500.1016,115.7671,504.1016,125.7671,508.1016,121.7671,504.1016" style="stroke:#181818;stroke-width:1;"/><line style="stroke:#181818;stroke-width:1;stroke-dasharray:2.0,2.0;" x1="119.7671" x2="259.9404" y1="504.1016" y2="504.1016"/><polygon fill="#181818" points="59.9551,514.1016,49.9551,518.1016,59.9551,522.1016,55.9551,518.1016" style="stroke:#181818;stroke-width:1;"/><line style="stroke:#181818;stroke-width:1;stroke-dasharray:2.0,2.0;" x1="53.9551" x2="113.7671" y1="518.1016" y2="518.1016"/><!--SRC=[jL71JiCm3BtdAtnaX_r03qWJqn0IdAPzW4cyOIrDgiGWFXydwzIkQ-54fKYr_TxBUmvQYGaEcPBfC0bRxZ08F1zURkhNUEBmXW5F2dGe-8wPODl_65C4OFrOU0tu0dvO6IrARynjm7wGFJybSXI4qMV5ZG65S9LjuCZ15Ma5NPkmdaWQWrx03ehmXPwT0VscoXChYL1eJpbpB7xd68ENH9baX-p9RKIexIJtd6LhzugN7TL1NO_MTVdabJyEmM4vnc2AWt9QvSmQAujfyHkETGXOfnb254s3-X8N-Ryp_9hZBajfr3mpTq_lNOxceprlh8sVGVeu_-8pEAFd1m00]--></g></svg>