<svg xmlns="http://www.w3.org/2000/svg" xmlns:xlink="http://www.w3.org/1999/xlink" contentStyleType="text/css" data-diagram-type="CLASS" height="251px" preserveAspectRatio="none" style="width:1232px;height:251px;background:#FFFFFF;" version="1.1" viewBox="0 0 1232 251" width="1232px" zoomAndPan="magnify"><defs/><g><g id="elem_n"><path d="M841.27,34.73 L841.27,59.8628 L1225.8828,59.8628 L1225.8828,44.73 L1215.8828,34.73 L841.27,34.73 " fill="#FEFFDD" style="stroke:#181818;stroke-width:0.5;"/><path d="M1215.8828,34.73 L1215.8828,44.73 L1225.8828,44.73 L1215.8828,34.73 " fill="#FEFFDD" style="stroke:#181818;stroke-width:1;"/><text fill="#000000" font-family="sans-serif" font-size="13" lengthAdjust="spacing" textLength="363.6128" x="847.27" y="51.7969">Diagram zawiera jedynie elementy nale&#380;&#261;ce do wzorca.</text></g><!--class MembershipType--><g id="elem_MembershipType"><rect codeLine="3" fill="#F1F1F1" height="96.8906" id="MembershipType" rx="2.5" ry="2.5" style="stroke:#181818;stroke-width:0.5;" width="152.8662" x="1023.14" y="147.59"/><ellipse cx="1038.14" cy="163.59" fill="#EB937F" rx="11" ry="11" style="stroke:#181818;stroke-width:1;"/><path d="M1042.2494,169.59 L1034.5306,169.59 L1034.5306,157.1994 L1042.2494,157.1994 L1042.2494,159.3556 L1036.9837,159.3556 L1036.9837,162.0275 L1041.7494,162.0275 L1041.7494,164.1838 L1036.9837,164.1838 L1036.9837,167.4338 L1042.2494,167.4338 L1042.2494,169.59 Z " fill="#000000"/><text fill="#000000" font-family="sans-serif" font-size="14" lengthAdjust="spacing" textLength="120.8662" x="1052.14" y="168.4367">MembershipType</text><line style="stroke:#181818;stroke-width:0.5;" x1="1024.14" x2="1175.0062" y1="179.59" y2="179.59"/><text fill="#000000" font-family="sans-serif" font-size="14" lengthAdjust="spacing" textLength="82.8037" x="1029.14" y="196.5851">STANDARD,</text><text fill="#000000" font-family="sans-serif" font-size="14" lengthAdjust="spacing" textLength="70" x="1029.14" y="212.882">PREMIUM,</text><text fill="#000000" font-family="sans-serif" font-size="14" lengthAdjust="spacing" textLength="96.4346" x="1029.14" y="229.1789">MULTI_SPORT</text><line style="stroke:#181818;stroke-width:0.5;" x1="1024.14" x2="1175.0062" y1="236.4806" y2="236.4806"/></g><!--class Membership--><g id="elem_Membership"><rect codeLine="9" fill="#F1F1F1" height="80.5938" id="Membership" rx="2.5" ry="2.5" style="stroke:#181818;stroke-width:0.5;" width="243.1504" x="285" y="155.74"/><ellipse cx="359.0605" cy="171.74" fill="#A9DCDF" rx="11" ry="11" style="stroke:#181818;stroke-width:1;"/><path d="M359.1699,167.0837 L358.0137,172.1619 L360.3418,172.1619 L359.1699,167.0837 Z M357.6855,164.8494 L360.6699,164.8494 L364.0293,177.24 L361.5762,177.24 L360.8105,174.1775 L357.5293,174.1775 L356.7793,177.24 L354.3418,177.24 L357.6855,164.8494 Z " fill="#000000"/><text fill="#000000" font-family="sans-serif" font-size="14" font-style="italic" lengthAdjust="spacing" textLength="86.5293" x="379.5605" y="176.5867">Membership</text><line style="stroke:#181818;stroke-width:0.5;" x1="286" x2="527.1504" y1="187.74" y2="187.74"/><line style="stroke:#181818;stroke-width:0.5;" x1="286" x2="527.1504" y1="195.74" y2="195.74"/><ellipse cx="296" cy="209.3884" fill="#84BE84" rx="3" ry="3" style="stroke:#038048;stroke-width:1;"/><text fill="#000000" font-family="sans-serif" font-size="14" font-style="italic" lengthAdjust="spacing" textLength="217.1504" x="305" y="212.7351">getValidityTime(): unsigned int</text><ellipse cx="296" cy="225.6853" fill="#84BE84" rx="3" ry="3" style="stroke:#038048;stroke-width:1;"/><text fill="#000000" font-family="sans-serif" font-size="14" font-style="italic" lengthAdjust="spacing" textLength="159.4141" x="305" y="229.032">getChargePrice(): float</text></g><!--class MultisportMembership--><g id="elem_MultisportMembership"><rect codeLine="14" fill="#F1F1F1" height="80.5938" id="MultisportMembership" rx="2.5" ry="2.5" style="stroke:#181818;stroke-width:0.5;" width="243.1504" x="7" y="7"/><ellipse cx="46.4841" cy="23" fill="#ADD1B2" rx="11" ry="11" style="stroke:#181818;stroke-width:1;"/><path d="M49.4529,28.6406 Q48.8748,28.9375 48.2341,29.0781 Q47.5935,29.2344 46.8904,29.2344 Q44.3904,29.2344 43.0623,27.5938 Q41.7498,25.9375 41.7498,22.8125 Q41.7498,19.6875 43.0623,18.0313 Q44.3904,16.375 46.8904,16.375 Q47.5935,16.375 48.2341,16.5313 Q48.8904,16.6875 49.4529,16.9844 L49.4529,19.7031 Q48.8279,19.125 48.2341,18.8594 Q47.6404,18.5781 47.0154,18.5781 Q45.6716,18.5781 44.9841,19.6563 Q44.2966,20.7188 44.2966,22.8125 Q44.2966,24.9063 44.9841,25.9844 Q45.6716,27.0469 47.0154,27.0469 Q47.6404,27.0469 48.2341,26.7813 Q48.8279,26.5 49.4529,25.9219 L49.4529,28.6406 Z " fill="#000000"/><text fill="#000000" font-family="sans-serif" font-size="14" lengthAdjust="spacing" textLength="156.7412" x="65.925" y="27.8467">MultisportMembership</text><line style="stroke:#181818;stroke-width:0.5;" x1="8" x2="249.1504" y1="39" y2="39"/><line style="stroke:#181818;stroke-width:0.5;" x1="8" x2="249.1504" y1="47" y2="47"/><ellipse cx="18" cy="60.6484" fill="#84BE84" rx="3" ry="3" style="stroke:#038048;stroke-width:1;"/><text fill="#000000" font-family="sans-serif" font-size="14" lengthAdjust="spacing" textLength="217.1504" x="27" y="63.9951">getValidityTime(): unsigned int</text><ellipse cx="18" cy="76.9453" fill="#84BE84" rx="3" ry="3" style="stroke:#038048;stroke-width:1;"/><text fill="#000000" font-family="sans-serif" font-size="14" lengthAdjust="spacing" textLength="159.4141" x="27" y="80.292">getChargePrice(): float</text></g><!--class StandardMembership--><g id="elem_StandardMembership"><rect codeLine="21" fill="#F1F1F1" height="80.5938" id="StandardMembership" rx="2.5" ry="2.5" style="stroke:#181818;stroke-width:0.5;" width="243.1504" x="285" y="7"/><ellipse cx="327.3081" cy="23" fill="#ADD1B2" rx="11" ry="11" style="stroke:#181818;stroke-width:1;"/><path d="M330.2768,28.6406 Q329.6987,28.9375 329.0581,29.0781 Q328.4174,29.2344 327.7143,29.2344 Q325.2143,29.2344 323.8862,27.5938 Q322.5737,25.9375 322.5737,22.8125 Q322.5737,19.6875 323.8862,18.0313 Q325.2143,16.375 327.7143,16.375 Q328.4174,16.375 329.0581,16.5313 Q329.7143,16.6875 330.2768,16.9844 L330.2768,19.7031 Q329.6518,19.125 329.0581,18.8594 Q328.4643,18.5781 327.8393,18.5781 Q326.4956,18.5781 325.8081,19.6563 Q325.1206,20.7188 325.1206,22.8125 Q325.1206,24.9063 325.8081,25.9844 Q326.4956,27.0469 327.8393,27.0469 Q328.4643,27.0469 329.0581,26.7813 Q329.6518,26.5 330.2768,25.9219 L330.2768,28.6406 Z " fill="#000000"/><text fill="#000000" font-family="sans-serif" font-size="14" lengthAdjust="spacing" textLength="150.4658" x="347.3765" y="27.8467">StandardMembership</text><line style="stroke:#181818;stroke-width:0.5;" x1="286" x2="527.1504" y1="39" y2="39"/><line style="stroke:#181818;stroke-width:0.5;" x1="286" x2="527.1504" y1="47" y2="47"/><ellipse cx="296" cy="60.6484" fill="#84BE84" rx="3" ry="3" style="stroke:#038048;stroke-width:1;"/><text fill="#000000" font-family="sans-serif" font-size="14" lengthAdjust="spacing" textLength="217.1504" x="305" y="63.9951">getValidityTime(): unsigned int</text><ellipse cx="296" cy="76.9453" fill="#84BE84" rx="3" ry="3" style="stroke:#038048;stroke-width:1;"/><text fill="#000000" font-family="sans-serif" font-size="14" lengthAdjust="spacing" textLength="159.4141" x="305" y="80.292">getChargePrice(): float</text></g><!--class PremiumMembership--><g id="elem_PremiumMembership"><rect codeLine="28" fill="#F1F1F1" height="80.5938" id="PremiumMembership" rx="2.5" ry="2.5" style="stroke:#181818;stroke-width:0.5;" width="243.1504" x="563" y="7"/><ellipse cx="605.7972" cy="23" fill="#ADD1B2" rx="11" ry="11" style="stroke:#181818;stroke-width:1;"/><path d="M608.7659,28.6406 Q608.1878,28.9375 607.5472,29.0781 Q606.9065,29.2344 606.2034,29.2344 Q603.7034,29.2344 602.3753,27.5938 Q601.0628,25.9375 601.0628,22.8125 Q601.0628,19.6875 602.3753,18.0313 Q603.7034,16.375 606.2034,16.375 Q606.9065,16.375 607.5472,16.5313 Q608.2034,16.6875 608.7659,16.9844 L608.7659,19.7031 Q608.1409,19.125 607.5472,18.8594 Q606.9534,18.5781 606.3284,18.5781 Q604.9847,18.5781 604.2972,19.6563 Q603.6097,20.7188 603.6097,22.8125 Q603.6097,24.9063 604.2972,25.9844 Q604.9847,27.0469 606.3284,27.0469 Q606.9534,27.0469 607.5472,26.7813 Q608.1409,26.5 608.7659,25.9219 L608.7659,28.6406 Z " fill="#000000"/><text fill="#000000" font-family="sans-serif" font-size="14" lengthAdjust="spacing" textLength="149.3789" x="625.9743" y="27.8467">PremiumMembership</text><line style="stroke:#181818;stroke-width:0.5;" x1="564" x2="805.1504" y1="39" y2="39"/><line style="stroke:#181818;stroke-width:0.5;" x1="564" x2="805.1504" y1="47" y2="47"/><ellipse cx="574" cy="60.6484" fill="#84BE84" rx="3" ry="3" style="stroke:#038048;stroke-width:1;"/><text fill="#000000" font-family="sans-serif" font-size="14" lengthAdjust="spacing" textLength="217.1504" x="583" y="63.9951">getValidityTime(): unsigned int</text><ellipse cx="574" cy="76.9453" fill="#84BE84" rx="3" ry="3" style="stroke:#038048;stroke-width:1;"/><text fill="#000000" font-family="sans-serif" font-size="14" lengthAdjust="spacing" textLength="159.4141" x="583" y="80.292">getChargePrice(): float</text></g><!--class Worker--><g id="elem_Worker"><rect codeLine="37" fill="#F1F1F1" height="64.2969" id="Worker" rx="2.5" ry="2.5" style="stroke:#181818;stroke-width:0.5;" width="425.2051" x="562.97" y="163.89"/><ellipse cx="746.0022" cy="179.89" fill="#ADD1B2" rx="11" ry="11" style="stroke:#181818;stroke-width:1;"/><path d="M748.971,185.5306 Q748.3929,185.8275 747.7522,185.9681 Q747.1116,186.1244 746.4085,186.1244 Q743.9085,186.1244 742.5804,184.4838 Q741.2679,182.8275 741.2679,179.7025 Q741.2679,176.5775 742.5804,174.9213 Q743.9085,173.265 746.4085,173.265 Q747.1116,173.265 747.7522,173.4213 Q748.4085,173.5775 748.971,173.8744 L748.971,176.5931 Q748.346,176.015 747.7522,175.7494 Q747.1585,175.4681 746.5335,175.4681 Q745.1897,175.4681 744.5022,176.5463 Q743.8147,177.6088 743.8147,179.7025 Q743.8147,181.7963 744.5022,182.8744 Q745.1897,183.9369 746.5335,183.9369 Q747.1585,183.9369 747.7522,183.6713 Q748.346,183.39 748.971,182.8119 L748.971,185.5306 Z " fill="#000000"/><text fill="#000000" font-family="sans-serif" font-size="14" lengthAdjust="spacing" textLength="50.6406" x="766.5022" y="184.7367">Worker</text><line style="stroke:#181818;stroke-width:0.5;" x1="563.97" x2="987.1751" y1="195.89" y2="195.89"/><line style="stroke:#181818;stroke-width:0.5;" x1="563.97" x2="987.1751" y1="203.89" y2="203.89"/><ellipse cx="573.97" cy="217.5384" fill="#84BE84" rx="3" ry="3" style="stroke:#038048;stroke-width:1;"/><text fill="#000000" font-family="sans-serif" font-size="14" lengthAdjust="spacing" textLength="399.2051" x="582.97" y="220.8851">createMembership(type: MembershipType): Membership</text></g><!--reverse link MultisportMembership to Membership--><g id="link_MultisportMembership_Membership"><path codeLine="19" d="M219.7279,96.4037 C259.2779,117.2837 291.72,134.41 331.28,155.29 " fill="none" id="MultisportMembership-backto-Membership" style="stroke:#181818;stroke-width:1;"/><polygon fill="none" points="203.81,88,216.9266,101.7096,222.5291,91.0977,203.81,88" style="stroke:#181818;stroke-width:1;"/></g><!--reverse link StandardMembership to Membership--><g id="link_StandardMembership_Membership"><path codeLine="26" d="M406.58,106 C406.58,126.88 406.58,134.41 406.58,155.29 " fill="none" id="StandardMembership-backto-Membership" style="stroke:#181818;stroke-width:1;"/><polygon fill="none" points="406.58,88,400.58,106,412.58,106,406.58,88" style="stroke:#181818;stroke-width:1;"/></g><!--reverse link PremiumMembership to Membership--><g id="link_PremiumMembership_Membership"><path codeLine="33" d="M593.4221,96.4037 C553.8721,117.2837 521.43,134.41 481.87,155.29 " fill="none" id="PremiumMembership-backto-Membership" style="stroke:#181818;stroke-width:1;"/><polygon fill="none" points="609.34,88,590.6209,91.0977,596.2234,101.7096,609.34,88" style="stroke:#181818;stroke-width:1;"/></g><!--link Worker to MembershipType--><g id="link_Worker_MembershipType"><path codeLine="35" d="M988.52,196.03 C999.94,196.03 1005.36,196.03 1016.79,196.03 " fill="none" id="Worker-to-MembershipType" style="stroke:#181818;stroke-width:1;stroke-dasharray:7.0,7.0;"/><polygon fill="#181818" points="1022.79,196.03,1013.79,192.03,1017.79,196.03,1013.79,200.03,1022.79,196.03" style="stroke:#181818;stroke-width:1;"/></g><!--reverse link Membership to Worker--><g id="link_Membership_Worker"><path codeLine="41" d="M534.37,196.03 C545.8,196.03 551.23,196.03 562.65,196.03 " fill="none" id="Membership-backto-Worker" style="stroke:#181818;stroke-width:1;stroke-dasharray:7.0,7.0;"/><polygon fill="#181818" points="528.37,196.03,537.37,200.03,533.37,196.03,537.37,192.03,528.37,196.03" style="stroke:#181818;stroke-width:1;"/></g><!--SRC=[jPB1Ji9048RlVOe99uZI1o36X8W74giD53sQeHtAwkwMp4v32dBqhJpgUmdOnWhLU65li_dd_xvDrcP2q1eeJ1aDh72fY16UA2ci8Y1DXgmKO57JnzlxQqoGPB1SPHoZtm9qO3sFR6uW83CbTdErY8e5mTg3xHb7_Tj1VpGutq_Xw3eOJeAl8PZSHCF7SNWtYhoDv-7K2MCi46jqhjPMDft1kefi82MvHwqI9KMa3BKxFSYjKwcb19ILneMhEN9A8Qjudv_f36K7Bdcv5kKM6Ki3-N-uFnYDxHSltMxjdPN9MD0coCafF1gwVx48cOpApIaaZgkF71uoVYO6drKw5__ou6zLZcMg4ekPKEWxsfPjjdUmswbVx6mgbARPJz8d]--></g></svg>