<svg xmlns="http://www.w3.org/2000/svg" xmlns:xlink="http://www.w3.org/1999/xlink" contentStyleType="text/css" height="344px" preserveAspectRatio="none" style="width:1392px;height:344px;background:#FFFFFF;" version="1.1" viewBox="0 0 1392 344" width="1392px" zoomAndPan="magnify"><defs/><g><!--class User--><g id="elem_User"><rect codeLine="2" fill="#F1F1F1" height="64.2969" id="User" rx="2.5" ry="2.5" style="stroke:#181818;stroke-width:0.5;" width="193.3096" x="625.59" y="7"/><ellipse cx="702.0397" cy="23" fill="#ADD1B2" rx="11" ry="11" style="stroke:#181818;stroke-width:1;"/><path d="M705.0085,28.6406 Q704.4303,28.9375 703.7897,29.0781 Q703.1491,29.2344 702.446,29.2344 Q699.946,29.2344 698.6178,27.5938 Q697.3053,25.9375 697.3053,22.8125 Q697.3053,19.6875 698.6178,18.0313 Q699.946,16.375 702.446,16.375 Q703.1491,16.375 703.7897,16.5313 Q704.446,16.6875 705.0085,16.9844 L705.0085,19.7031 Q704.3835,19.125 703.7897,18.8594 Q703.196,18.5781 702.571,18.5781 Q701.2272,18.5781 700.5397,19.6563 Q699.8522,20.7188 699.8522,22.8125 Q699.8522,24.9063 700.5397,25.9844 Q701.2272,27.0469 702.571,27.0469 Q703.196,27.0469 703.7897,26.7813 Q704.3835,26.5 705.0085,25.9219 L705.0085,28.6406 Z " fill="#000000"/><text fill="#000000" font-family="sans-serif" font-size="14" lengthAdjust="spacing" textLength="31.9102" x="722.5397" y="27.8467">User</text><line style="stroke:#181818;stroke-width:0.5;" x1="626.59" x2="817.8996" y1="39" y2="39"/><line style="stroke:#181818;stroke-width:0.5;" x1="626.59" x2="817.8996" y1="47" y2="47"/><ellipse cx="636.59" cy="60.6484" fill="#84BE84" rx="3" ry="3" style="stroke:#038048;stroke-width:1;"/><text fill="#000000" font-family="sans-serif" font-size="14" lengthAdjust="spacing" text-decoration="underline" textLength="167.3096" x="645.59" y="63.9951">sendMessage(Message)</text></g><!--class MessageService--><g id="elem_MessageService"><rect codeLine="7" fill="#F1F1F1" height="64.2969" id="MessageService" rx="2.5" ry="2.5" style="stroke:#181818;stroke-width:0.5;" width="304.4688" x="570.01" y="148.3"/><ellipse cx="661.4441" cy="164.3" fill="#B4A7E5" rx="11" ry="11" style="stroke:#181818;stroke-width:1;"/><path d="M657.366,160.0656 L657.366,157.9094 L664.7566,157.9094 L664.7566,160.0656 L662.2878,160.0656 L662.2878,168.1437 L664.7566,168.1437 L664.7566,170.3 L657.366,170.3 L657.366,168.1437 L659.8347,168.1437 L659.8347,160.0656 L657.366,160.0656 Z " fill="#000000"/><text fill="#000000" font-family="sans-serif" font-size="14" font-style="italic" lengthAdjust="spacing" textLength="113.1006" x="681.9441" y="169.1467">MessageService</text><line style="stroke:#181818;stroke-width:0.5;" x1="571.01" x2="873.4788" y1="180.3" y2="180.3"/><line style="stroke:#181818;stroke-width:0.5;" x1="571.01" x2="873.4788" y1="188.3" y2="188.3"/><ellipse cx="581.01" cy="201.9484" fill="#84BE84" rx="3" ry="3" style="stroke:#038048;stroke-width:1;"/><text fill="#000000" font-family="sans-serif" font-size="14" lengthAdjust="spacing" textLength="278.4688" x="590.01" y="205.2951">sendMessage(message: Message): bool</text></g><!--class MessangerMessageAdapter--><g id="elem_MessangerMessageAdapter"><rect codeLine="14" fill="#F1F1F1" height="48" id="MessangerMessageAdapter" rx="2.5" ry="2.5" style="stroke:#181818;stroke-width:0.5;" width="225.1357" x="365.68" y="15.15"/><ellipse cx="380.68" cy="31.15" fill="#ADD1B2" rx="11" ry="11" style="stroke:#181818;stroke-width:1;"/><path d="M383.6488,36.7906 Q383.0706,37.0875 382.43,37.2281 Q381.7894,37.3844 381.0863,37.3844 Q378.5863,37.3844 377.2581,35.7437 Q375.9456,34.0875 375.9456,30.9625 Q375.9456,27.8375 377.2581,26.1812 Q378.5863,24.525 381.0863,24.525 Q381.7894,24.525 382.43,24.6812 Q383.0863,24.8375 383.6488,25.1344 L383.6488,27.8531 Q383.0238,27.275 382.43,27.0094 Q381.8363,26.7281 381.2113,26.7281 Q379.8675,26.7281 379.18,27.8062 Q378.4925,28.8687 378.4925,30.9625 Q378.4925,33.0562 379.18,34.1344 Q379.8675,35.1969 381.2113,35.1969 Q381.8363,35.1969 382.43,34.9312 Q383.0238,34.65 383.6488,34.0719 L383.6488,36.7906 Z " fill="#000000"/><text fill="#000000" font-family="sans-serif" font-size="14" lengthAdjust="spacing" textLength="193.1357" x="394.68" y="35.9967">MessangerMessageAdapter</text><line style="stroke:#181818;stroke-width:0.5;" x1="366.68" x2="589.8157" y1="47.15" y2="47.15"/><line style="stroke:#181818;stroke-width:0.5;" x1="366.68" x2="589.8157" y1="55.15" y2="55.15"/></g><!--class MessengerMessangeService--><g id="elem_MessengerMessangeService"><rect codeLine="21" fill="#F1F1F1" height="64.2969" id="MessengerMessangeService" rx="2.5" ry="2.5" style="stroke:#181818;stroke-width:0.5;" width="482.2578" x="237.11" y="273.59"/><ellipse cx="374.9909" cy="289.59" fill="#ADD1B2" rx="11" ry="11" style="stroke:#181818;stroke-width:1;"/><path d="M377.9596,295.2306 Q377.3815,295.5275 376.7409,295.6681 Q376.1002,295.8244 375.3971,295.8244 Q372.8971,295.8244 371.569,294.1838 Q370.2565,292.5275 370.2565,289.4025 Q370.2565,286.2775 371.569,284.6213 Q372.8971,282.965 375.3971,282.965 Q376.1002,282.965 376.7409,283.1213 Q377.3971,283.2775 377.9596,283.5744 L377.9596,286.2931 Q377.3346,285.715 376.7409,285.4494 Q376.1471,285.1681 375.5221,285.1681 Q374.1784,285.1681 373.4909,286.2463 Q372.8034,287.3088 372.8034,289.4025 Q372.8034,291.4963 373.4909,292.5744 Q374.1784,293.6369 375.5221,293.6369 Q376.1471,293.6369 376.7409,293.3713 Q377.3346,293.09 377.9596,292.5119 L377.9596,295.2306 Z " fill="#000000"/><text fill="#000000" font-family="sans-serif" font-size="14" lengthAdjust="spacing" textLength="197.9961" x="395.4909" y="294.4367">MessengerMessangeService</text><line style="stroke:#181818;stroke-width:0.5;" x1="238.11" x2="718.3678" y1="305.59" y2="305.59"/><line style="stroke:#181818;stroke-width:0.5;" x1="238.11" x2="718.3678" y1="313.59" y2="313.59"/><ellipse cx="248.11" cy="327.2384" fill="#84BE84" rx="3" ry="3" style="stroke:#038048;stroke-width:1;"/><text fill="#000000" font-family="sans-serif" font-size="14" lengthAdjust="spacing" textLength="456.2578" x="257.11" y="330.5851">sendMessage(from: userId, to: User, title: String, content: String)</text></g><g id="elem_GMN9"><path d="M6,293.18 L6,318.3128 A0,0 0 0 0 6,318.3128 L202.4873,318.3128 A0,0 0 0 0 202.4873,318.3128 L202.4873,311.18 L236.74,305.74 L202.4873,303.18 L202.4873,303.18 L192.4873,293.18 L6,293.18 A0,0 0 0 0 6,293.18 " fill="#FEFFDD" style="stroke:#181818;stroke-width:0.5;"/><path d="M192.4873,293.18 L192.4873,303.18 L202.4873,303.18 L192.4873,293.18 " fill="#FEFFDD" style="stroke:#181818;stroke-width:0.5;"/><text fill="#000000" font-family="sans-serif" font-size="13" lengthAdjust="spacing" textLength="175.4873" x="12" y="310.2469">External service / interface</text></g><!--class DiscordMessangeService--><g id="elem_DiscordMessangeService"><rect codeLine="28" fill="#F1F1F1" height="64.2969" id="DiscordMessangeService" rx="2.5" ry="2.5" style="stroke:#181818;stroke-width:0.5;" width="397.1436" x="756.67" y="273.59"/><ellipse cx="863.5704" cy="289.59" fill="#ADD1B2" rx="11" ry="11" style="stroke:#181818;stroke-width:1;"/><path d="M866.5391,295.2306 Q865.961,295.5275 865.3204,295.6681 Q864.6798,295.8244 863.9766,295.8244 Q861.4766,295.8244 860.1485,294.1838 Q858.836,292.5275 858.836,289.4025 Q858.836,286.2775 860.1485,284.6213 Q861.4766,282.965 863.9766,282.965 Q864.6798,282.965 865.3204,283.1213 Q865.9766,283.2775 866.5391,283.5744 L866.5391,286.2931 Q865.9141,285.715 865.3204,285.4494 Q864.7266,285.1681 864.1016,285.1681 Q862.7579,285.1681 862.0704,286.2463 Q861.3829,287.3088 861.3829,289.4025 Q861.3829,291.4963 862.0704,292.5744 Q862.7579,293.6369 864.1016,293.6369 Q864.7266,293.6369 865.3204,293.3713 Q865.9141,293.09 866.5391,292.5119 L866.5391,295.2306 Z " fill="#000000"/><text fill="#000000" font-family="sans-serif" font-size="14" lengthAdjust="spacing" textLength="174.8428" x="884.0704" y="294.4367">DiscordMessangeService</text><line style="stroke:#181818;stroke-width:0.5;" x1="757.67" x2="1152.8136" y1="305.59" y2="305.59"/><line style="stroke:#181818;stroke-width:0.5;" x1="757.67" x2="1152.8136" y1="313.59" y2="313.59"/><ellipse cx="767.67" cy="327.2384" fill="#84BE84" rx="3" ry="3" style="stroke:#038048;stroke-width:1;"/><text fill="#000000" font-family="sans-serif" font-size="14" lengthAdjust="spacing" textLength="371.1436" x="776.67" y="330.5851">sendMessage(from: Long, to: Long, message: String)</text></g><g id="elem_GMN13"><path d="M1189,293.18 L1189,301.74 L1154.31,305.74 L1189,309.74 L1189,318.3128 A0,0 0 0 0 1189,318.3128 L1385.4873,318.3128 A0,0 0 0 0 1385.4873,318.3128 L1385.4873,303.18 L1375.4873,293.18 L1189,293.18 A0,0 0 0 0 1189,293.18 " fill="#FEFFDD" style="stroke:#181818;stroke-width:0.5;"/><path d="M1375.4873,293.18 L1375.4873,303.18 L1385.4873,303.18 L1375.4873,293.18 " fill="#FEFFDD" style="stroke:#181818;stroke-width:0.5;"/><text fill="#000000" font-family="sans-serif" font-size="13" lengthAdjust="spacing" textLength="175.4873" x="1195" y="310.2469">External service / interface</text></g><!--class DiscordMessageAdapter--><g id="elem_DiscordMessageAdapter"><rect fill="#F1F1F1" height="48" id="DiscordMessageAdapter" rx="2.5" ry="2.5" style="stroke:#181818;stroke-width:0.5;" width="202.0166" x="854.24" y="15.15"/><ellipse cx="869.24" cy="31.15" fill="#ADD1B2" rx="11" ry="11" style="stroke:#181818;stroke-width:1;"/><path d="M872.2088,36.7906 Q871.6306,37.0875 870.99,37.2281 Q870.3494,37.3844 869.6463,37.3844 Q867.1463,37.3844 865.8181,35.7437 Q864.5056,34.0875 864.5056,30.9625 Q864.5056,27.8375 865.8181,26.1812 Q867.1463,24.525 869.6463,24.525 Q870.3494,24.525 870.99,24.6812 Q871.6463,24.8375 872.2088,25.1344 L872.2088,27.8531 Q871.5838,27.275 870.99,27.0094 Q870.3963,26.7281 869.7713,26.7281 Q868.4275,26.7281 867.74,27.8062 Q867.0525,28.8687 867.0525,30.9625 Q867.0525,33.0562 867.74,34.1344 Q868.4275,35.1969 869.7713,35.1969 Q870.3963,35.1969 870.99,34.9312 Q871.5838,34.65 872.2088,34.0719 L872.2088,36.7906 Z " fill="#000000"/><text fill="#000000" font-family="sans-serif" font-size="14" lengthAdjust="spacing" textLength="170.0166" x="883.24" y="35.9967">DiscordMessageAdapter</text><line style="stroke:#181818;stroke-width:0.5;" x1="855.24" x2="1055.2566" y1="47.15" y2="47.15"/><line style="stroke:#181818;stroke-width:0.5;" x1="855.24" x2="1055.2566" y1="55.15" y2="55.15"/></g><g id="elem_n"><path d="M1090.92,19.02 L1090.92,59.2856 L1309.5733,59.2856 L1309.5733,29.02 L1299.5733,19.02 L1090.92,19.02 " fill="#FEFFDD" style="stroke:#181818;stroke-width:0.5;"/><path d="M1299.5733,19.02 L1299.5733,29.02 L1309.5733,29.02 L1299.5733,19.02 " fill="#FEFFDD" style="stroke:#181818;stroke-width:1;"/><text fill="#000000" font-family="sans-serif" font-size="13" lengthAdjust="spacing" textLength="161.8271" x="1096.92" y="36.0869">Diagram zawiera jedynie</text><text fill="#000000" font-family="sans-serif" font-size="13" lengthAdjust="spacing" textLength="197.6533" x="1096.92" y="51.2197">elementy nale&#380;&#261;ce do wzorca.</text></g><!--link User to MessageService--><g id="link_User_MessageService"><path codeLine="12" d="M722.24,71.76 C722.24,94.55 722.24,119.19 722.24,141.96 " fill="none" id="User-to-MessageService" style="stroke:#181818;stroke-width:1;stroke-dasharray:7.0,7.0;"/><polygon fill="#181818" points="722.24,147.96,726.24,138.96,722.24,142.96,718.24,138.96,722.24,147.96" style="stroke:#181818;stroke-width:1;"/><text fill="#000000" font-family="sans-serif" font-size="13" lengthAdjust="spacing" textLength="29.7832" x="723.24" y="114.3669">uses</text></g><!--link MessangerMessageAdapter to MessageService--><g id="link_MessangerMessageAdapter_MessageService"><path codeLine="18" d="M519.36,63.62 C559.97,86.8 606.708,113.4859 651.568,139.0959 " fill="none" id="MessangerMessageAdapter-to-MessageService" style="stroke:#181818;stroke-width:1;stroke-dasharray:7.0,7.0;"/><polygon fill="none" points="667.2,148.02,654.5427,133.8852,648.5933,144.3066,667.2,148.02" style="stroke:#181818;stroke-width:1;"/><text fill="#000000" font-family="sans-serif" font-size="13" lengthAdjust="spacing" textLength="77.1304" x="615.85" y="114.3669">Implements</text></g><!--link MessangerMessageAdapter to MessengerMessangeService--><g id="link_MessangerMessageAdapter_MessengerMessangeService"><path codeLine="19" d="M478.24,63.63 C478.24,111.31 478.24,213.5 478.24,267.24 " fill="none" id="MessangerMessageAdapter-to-MessengerMessangeService" style="stroke:#181818;stroke-width:1;stroke-dasharray:7.0,7.0;"/><polygon fill="#181818" points="478.24,273.24,482.24,264.24,478.24,268.24,474.24,264.24,478.24,273.24" style="stroke:#181818;stroke-width:1;"/><text fill="#000000" font-family="sans-serif" font-size="13" lengthAdjust="spacing" textLength="31.0591" x="479.24" y="185.0069">Uses</text></g><!--link DiscordMessageAdapter to MessageService--><g id="link_DiscordMessageAdapter_MessageService"><path codeLine="36" d="M914.49,63.62 C894.99,74.91 871.35,88.71 850.24,101.3 C824.86,116.43 812.1743,124.0997 788.8243,138.4197 " fill="none" id="DiscordMessageAdapter-to-MessageService" style="stroke:#181818;stroke-width:1;stroke-dasharray:7.0,7.0;"/><polygon fill="none" points="773.48,147.83,791.961,143.5345,785.6875,133.305,773.48,147.83" style="stroke:#181818;stroke-width:1;"/><text fill="#000000" font-family="sans-serif" font-size="13" lengthAdjust="spacing" textLength="77.1304" x="851.24" y="114.3669">Implements</text></g><!--link DiscordMessageAdapter to DiscordMessangeService--><g id="link_DiscordMessageAdapter_DiscordMessangeService"><path codeLine="37" d="M955.24,63.63 C955.24,111.31 955.24,213.5 955.24,267.24 " fill="none" id="DiscordMessageAdapter-to-DiscordMessangeService" style="stroke:#181818;stroke-width:1;stroke-dasharray:7.0,7.0;"/><polygon fill="#181818" points="955.24,273.24,959.24,264.24,955.24,268.24,951.24,264.24,955.24,273.24" style="stroke:#181818;stroke-width:1;"/><text fill="#000000" font-family="sans-serif" font-size="13" lengthAdjust="spacing" textLength="31.0591" x="956.24" y="185.0069">Uses</text></g><!--SRC=[bP6nJiCm48PtFyKf4nLjsJCW8PMX4anLDnPZNuAHOrTdGsbBHzwA4TuBEqv2QHEfJBPyz___vpkXkNEmT4Wx1d09E-UvLs8F3esyH-TuYHVDEM9xnfWo7gdW0g5vNY2zAe59VoYhqfctZQCS7gtLjKjCXCdq-iW4SiXU7BgCCL6JrMLJ8ZLzDvAlV8ADFWFbuFpUPpslLXehD3u434idIOfTqVmnMHxpzJMUJgCWM-KGFaTpEGPlythguQQy3ZDQU5Ac78EmORx6jmznviPw18s5PxTlWT1m7OmJpXLqws0X2s9hYpPJJbYIPuBTsPWUiTAjMzulHm8XLJwTJNB8yA_j30d3Rlh_TR2P6ZERALuIhs3Brmg9mpFAZL7uO325R23Wu_VdrqSGImlhhIN1fnbm1uRz0000]--></g></svg>