<svg xmlns="http://www.w3.org/2000/svg" xmlns:xlink="http://www.w3.org/1999/xlink" contentStyleType="text/css" data-diagram-type="CLASS" height="344px" preserveAspectRatio="none" style="width:1389px;height:344px;background:#FFFFFF;" version="1.1" viewBox="0 0 1389 344" width="1389px" zoomAndPan="magnify"><defs/><g><!--class User--><g id="elem_User"><rect codeLine="2" fill="#F1F1F1" height="64.2969" id="User" rx="2.5" ry="2.5" style="stroke:#181818;stroke-width:0.5;" width="193.3096" x="622.59" y="7"/><ellipse cx="699.0397" cy="23" fill="#ADD1B2" rx="11" ry="11" style="stroke:#181818;stroke-width:1;"/><path d="M702.0085,28.6406 Q701.4303,28.9375 700.7897,29.0781 Q700.1491,29.2344 699.446,29.2344 Q696.946,29.2344 695.6178,27.5938 Q694.3053,25.9375 694.3053,22.8125 Q694.3053,19.6875 695.6178,18.0313 Q696.946,16.375 699.446,16.375 Q700.1491,16.375 700.7897,16.5313 Q701.446,16.6875 702.0085,16.9844 L702.0085,19.7031 Q701.3835,19.125 700.7897,18.8594 Q700.196,18.5781 699.571,18.5781 Q698.2272,18.5781 697.5397,19.6563 Q696.8522,20.7188 696.8522,22.8125 Q696.8522,24.9063 697.5397,25.9844 Q698.2272,27.0469 699.571,27.0469 Q700.196,27.0469 700.7897,26.7813 Q701.3835,26.5 702.0085,25.9219 L702.0085,28.6406 Z " fill="#000000"/><text fill="#000000" font-family="sans-serif" font-size="14" lengthAdjust="spacing" textLength="31.9102" x="719.5397" y="27.8467">User</text><line style="stroke:#181818;stroke-width:0.5;" x1="623.59" x2="814.8996" y1="39" y2="39"/><line style="stroke:#181818;stroke-width:0.5;" x1="623.59" x2="814.8996" y1="47" y2="47"/><ellipse cx="633.59" cy="60.6484" fill="#84BE84" rx="3" ry="3" style="stroke:#038048;stroke-width:1;"/><text fill="#000000" font-family="sans-serif" font-size="14" lengthAdjust="spacing" text-decoration="underline" textLength="167.3096" x="642.59" y="63.9951">sendMessage(Message)</text></g><!--class MessageService--><g id="elem_MessageService"><rect codeLine="7" fill="#F1F1F1" height="64.2969" id="MessageService" rx="2.5" ry="2.5" style="stroke:#181818;stroke-width:0.5;" width="304.4688" x="567.01" y="148.3"/><ellipse cx="658.4441" cy="164.3" fill="#B4A7E5" rx="11" ry="11" style="stroke:#181818;stroke-width:1;"/><path d="M654.366,160.0656 L654.366,157.9094 L661.7566,157.9094 L661.7566,160.0656 L659.2878,160.0656 L659.2878,168.1437 L661.7566,168.1437 L661.7566,170.3 L654.366,170.3 L654.366,168.1437 L656.8347,168.1437 L656.8347,160.0656 L654.366,160.0656 Z " fill="#000000"/><text fill="#000000" font-family="sans-serif" font-size="14" font-style="italic" lengthAdjust="spacing" textLength="113.1006" x="678.9441" y="169.1467">MessageService</text><line style="stroke:#181818;stroke-width:0.5;" x1="568.01" x2="870.4788" y1="180.3" y2="180.3"/><line style="stroke:#181818;stroke-width:0.5;" x1="568.01" x2="870.4788" y1="188.3" y2="188.3"/><ellipse cx="578.01" cy="201.9484" fill="#84BE84" rx="3" ry="3" style="stroke:#038048;stroke-width:1;"/><text fill="#000000" font-family="sans-serif" font-size="14" lengthAdjust="spacing" textLength="278.4688" x="587.01" y="205.2951">sendMessage(message: Message): bool</text></g><!--class MessangerMessageAdapter--><g id="elem_MessangerMessageAdapter"><rect codeLine="14" fill="#F1F1F1" height="48" id="MessangerMessageAdapter" rx="2.5" ry="2.5" style="stroke:#181818;stroke-width:0.5;" width="225.1357" x="362.68" y="15.15"/><ellipse cx="377.68" cy="31.15" fill="#ADD1B2" rx="11" ry="11" style="stroke:#181818;stroke-width:1;"/><path d="M380.6488,36.7906 Q380.0706,37.0875 379.43,37.2281 Q378.7894,37.3844 378.0863,37.3844 Q375.5863,37.3844 374.2581,35.7437 Q372.9456,34.0875 372.9456,30.9625 Q372.9456,27.8375 374.2581,26.1812 Q375.5863,24.525 378.0863,24.525 Q378.7894,24.525 379.43,24.6812 Q380.0863,24.8375 380.6488,25.1344 L380.6488,27.8531 Q380.0238,27.275 379.43,27.0094 Q378.8363,26.7281 378.2113,26.7281 Q376.8675,26.7281 376.18,27.8062 Q375.4925,28.8687 375.4925,30.9625 Q375.4925,33.0562 376.18,34.1344 Q376.8675,35.1969 378.2113,35.1969 Q378.8363,35.1969 379.43,34.9312 Q380.0238,34.65 380.6488,34.0719 L380.6488,36.7906 Z " fill="#000000"/><text fill="#000000" font-family="sans-serif" font-size="14" lengthAdjust="spacing" textLength="193.1357" x="391.68" y="35.9967">MessangerMessageAdapter</text><line style="stroke:#181818;stroke-width:0.5;" x1="363.68" x2="586.8157" y1="47.15" y2="47.15"/><line style="stroke:#181818;stroke-width:0.5;" x1="363.68" x2="586.8157" y1="55.15" y2="55.15"/></g><!--class MessengerMessangeService--><g id="elem_MessengerMessangeService"><rect codeLine="21" fill="#F1F1F1" height="64.2969" id="MessengerMessangeService" rx="2.5" ry="2.5" style="stroke:#181818;stroke-width:0.5;" width="475.0459" x="237.72" y="273.59"/><ellipse cx="371.9949" cy="289.59" fill="#ADD1B2" rx="11" ry="11" style="stroke:#181818;stroke-width:1;"/><path d="M374.9637,295.2306 Q374.3855,295.5275 373.7449,295.6681 Q373.1043,295.8244 372.4012,295.8244 Q369.9012,295.8244 368.573,294.1838 Q367.2605,292.5275 367.2605,289.4025 Q367.2605,286.2775 368.573,284.6213 Q369.9012,282.965 372.4012,282.965 Q373.1043,282.965 373.7449,283.1213 Q374.4012,283.2775 374.9637,283.5744 L374.9637,286.2931 Q374.3387,285.715 373.7449,285.4494 Q373.1512,285.1681 372.5262,285.1681 Q371.1824,285.1681 370.4949,286.2463 Q369.8074,287.3088 369.8074,289.4025 Q369.8074,291.4963 370.4949,292.5744 Q371.1824,293.6369 372.5262,293.6369 Q373.1512,293.6369 373.7449,293.3713 Q374.3387,293.09 374.9637,292.5119 L374.9637,295.2306 Z " fill="#000000"/><text fill="#000000" font-family="sans-serif" font-size="14" lengthAdjust="spacing" textLength="197.9961" x="392.4949" y="294.4367">MessengerMessangeService</text><line style="stroke:#181818;stroke-width:0.5;" x1="238.72" x2="711.7659" y1="305.59" y2="305.59"/><line style="stroke:#181818;stroke-width:0.5;" x1="238.72" x2="711.7659" y1="313.59" y2="313.59"/><ellipse cx="248.72" cy="327.2384" fill="#84BE84" rx="3" ry="3" style="stroke:#038048;stroke-width:1;"/><text fill="#000000" font-family="sans-serif" font-size="14" lengthAdjust="spacing" textLength="449.0459" x="257.72" y="330.5851">sendMessage(from: Long, to: Long, title: String, content: String)</text></g><g id="elem_GMN9"><path d="M6,293.18 L6,318.3128 A0,0 0 0 0 6,318.3128 L202.4873,318.3128 A0,0 0 0 0 202.4873,318.3128 L202.4873,311.18 L237.38,305.74 L202.4873,303.18 L202.4873,303.18 L192.4873,293.18 L6,293.18 A0,0 0 0 0 6,293.18 " fill="#FEFFDD" style="stroke:#181818;stroke-width:0.5;"/><path d="M192.4873,293.18 L192.4873,303.18 L202.4873,303.18 L192.4873,293.18 " fill="#FEFFDD" style="stroke:#181818;stroke-width:0.5;"/><text fill="#000000" font-family="sans-serif" font-size="13" lengthAdjust="spacing" textLength="175.4873" x="12" y="310.2469">External service / interface</text></g><!--class DiscordMessangeService--><g id="elem_DiscordMessangeService"><rect codeLine="28" fill="#F1F1F1" height="64.2969" id="DiscordMessangeService" rx="2.5" ry="2.5" style="stroke:#181818;stroke-width:0.5;" width="397.1436" x="753.67" y="273.59"/><ellipse cx="860.5704" cy="289.59" fill="#ADD1B2" rx="11" ry="11" style="stroke:#181818;stroke-width:1;"/><path d="M863.5391,295.2306 Q862.961,295.5275 862.3204,295.6681 Q861.6798,295.8244 860.9766,295.8244 Q858.4766,295.8244 857.1485,294.1838 Q855.836,292.5275 855.836,289.4025 Q855.836,286.2775 857.1485,284.6213 Q858.4766,282.965 860.9766,282.965 Q861.6798,282.965 862.3204,283.1213 Q862.9766,283.2775 863.5391,283.5744 L863.5391,286.2931 Q862.9141,285.715 862.3204,285.4494 Q861.7266,285.1681 861.1016,285.1681 Q859.7579,285.1681 859.0704,286.2463 Q858.3829,287.3088 858.3829,289.4025 Q858.3829,291.4963 859.0704,292.5744 Q859.7579,293.6369 861.1016,293.6369 Q861.7266,293.6369 862.3204,293.3713 Q862.9141,293.09 863.5391,292.5119 L863.5391,295.2306 Z " fill="#000000"/><text fill="#000000" font-family="sans-serif" font-size="14" lengthAdjust="spacing" textLength="174.8428" x="881.0704" y="294.4367">DiscordMessangeService</text><line style="stroke:#181818;stroke-width:0.5;" x1="754.67" x2="1149.8136" y1="305.59" y2="305.59"/><line style="stroke:#181818;stroke-width:0.5;" x1="754.67" x2="1149.8136" y1="313.59" y2="313.59"/><ellipse cx="764.67" cy="327.2384" fill="#84BE84" rx="3" ry="3" style="stroke:#038048;stroke-width:1;"/><text fill="#000000" font-family="sans-serif" font-size="14" lengthAdjust="spacing" textLength="371.1436" x="773.67" y="330.5851">sendMessage(from: Long, to: Long, message: String)</text></g><g id="elem_GMN13"><path d="M1186,293.18 L1186,301.74 L1151.31,305.74 L1186,309.74 L1186,318.3128 A0,0 0 0 0 1186,318.3128 L1382.4873,318.3128 A0,0 0 0 0 1382.4873,318.3128 L1382.4873,303.18 L1372.4873,293.18 L1186,293.18 A0,0 0 0 0 1186,293.18 " fill="#FEFFDD" style="stroke:#181818;stroke-width:0.5;"/><path d="M1372.4873,293.18 L1372.4873,303.18 L1382.4873,303.18 L1372.4873,293.18 " fill="#FEFFDD" style="stroke:#181818;stroke-width:0.5;"/><text fill="#000000" font-family="sans-serif" font-size="13" lengthAdjust="spacing" textLength="175.4873" x="1192" y="310.2469">External service / interface</text></g><!--class DiscordMessageAdapter--><g id="elem_DiscordMessageAdapter"><rect fill="#F1F1F1" height="48" id="DiscordMessageAdapter" rx="2.5" ry="2.5" style="stroke:#181818;stroke-width:0.5;" width="202.0166" x="851.24" y="15.15"/><ellipse cx="866.24" cy="31.15" fill="#ADD1B2" rx="11" ry="11" style="stroke:#181818;stroke-width:1;"/><path d="M869.2088,36.7906 Q868.6306,37.0875 867.99,37.2281 Q867.3494,37.3844 866.6463,37.3844 Q864.1463,37.3844 862.8181,35.7437 Q861.5056,34.0875 861.5056,30.9625 Q861.5056,27.8375 862.8181,26.1812 Q864.1463,24.525 866.6463,24.525 Q867.3494,24.525 867.99,24.6812 Q868.6463,24.8375 869.2088,25.1344 L869.2088,27.8531 Q868.5838,27.275 867.99,27.0094 Q867.3963,26.7281 866.7713,26.7281 Q865.4275,26.7281 864.74,27.8062 Q864.0525,28.8687 864.0525,30.9625 Q864.0525,33.0562 864.74,34.1344 Q865.4275,35.1969 866.7713,35.1969 Q867.3963,35.1969 867.99,34.9312 Q868.5838,34.65 869.2088,34.0719 L869.2088,36.7906 Z " fill="#000000"/><text fill="#000000" font-family="sans-serif" font-size="14" lengthAdjust="spacing" textLength="170.0166" x="880.24" y="35.9967">DiscordMessageAdapter</text><line style="stroke:#181818;stroke-width:0.5;" x1="852.24" x2="1052.2566" y1="47.15" y2="47.15"/><line style="stroke:#181818;stroke-width:0.5;" x1="852.24" x2="1052.2566" y1="55.15" y2="55.15"/></g><g id="elem_n"><path d="M1087.92,19.02 L1087.92,59.2856 L1306.5733,59.2856 L1306.5733,29.02 L1296.5733,19.02 L1087.92,19.02 " fill="#FEFFDD" style="stroke:#181818;stroke-width:0.5;"/><path d="M1296.5733,19.02 L1296.5733,29.02 L1306.5733,29.02 L1296.5733,19.02 " fill="#FEFFDD" style="stroke:#181818;stroke-width:1;"/><text fill="#000000" font-family="sans-serif" font-size="13" lengthAdjust="spacing" textLength="161.8271" x="1093.92" y="36.0869">Diagram zawiera jedynie</text><text fill="#000000" font-family="sans-serif" font-size="13" lengthAdjust="spacing" textLength="197.6533" x="1093.92" y="51.2197">elementy nale&#380;&#261;ce do wzorca.</text></g><!--link User to MessageService--><g id="link_User_MessageService"><path codeLine="12" d="M719.24,71.76 C719.24,94.55 719.24,119.19 719.24,141.96 " fill="transparent" id="User-to-MessageService" style="stroke:#181818;stroke-width:1;stroke-dasharray:7.0,7.0;"/><polygon fill="#181818" points="719.24,147.96,723.24,138.96,719.24,142.96,715.24,138.96,719.24,147.96" style="stroke:#181818;stroke-width:1;"/><text fill="#000000" font-family="sans-serif" font-size="13" lengthAdjust="spacing" textLength="29.7832" x="720.24" y="114.3669">uses</text></g><!--link MessangerMessageAdapter to MessageService--><g id="link_MessangerMessageAdapter_MessageService"><path codeLine="18" d="M516.36,63.62 C556.97,86.8 603.708,113.4859 648.568,139.0959 " fill="transparent" id="MessangerMessageAdapter-to-MessageService" style="stroke:#181818;stroke-width:1;stroke-dasharray:7.0,7.0;"/><polygon fill="transparent" points="664.2,148.02,651.5427,133.8852,645.5933,144.3066,664.2,148.02" style="stroke:#181818;stroke-width:1;"/><text fill="#000000" font-family="sans-serif" font-size="13" lengthAdjust="spacing" textLength="77.1304" x="612.85" y="114.3669">Implements</text></g><!--link MessangerMessageAdapter to MessengerMessangeService--><g id="link_MessangerMessageAdapter_MessengerMessangeService"><path codeLine="19" d="M475.24,63.63 C475.24,111.31 475.24,213.5 475.24,267.24 " fill="transparent" id="MessangerMessageAdapter-to-MessengerMessangeService" style="stroke:#181818;stroke-width:1;stroke-dasharray:7.0,7.0;"/><polygon fill="#181818" points="475.24,273.24,479.24,264.24,475.24,268.24,471.24,264.24,475.24,273.24" style="stroke:#181818;stroke-width:1;"/><text fill="#000000" font-family="sans-serif" font-size="13" lengthAdjust="spacing" textLength="31.0591" x="476.24" y="185.0069">Uses</text></g><!--link DiscordMessageAdapter to MessageService--><g id="link_DiscordMessageAdapter_MessageService"><path codeLine="36" d="M911.49,63.62 C891.99,74.91 868.35,88.71 847.24,101.3 C821.86,116.43 809.1743,124.0997 785.8243,138.4197 " fill="transparent" id="DiscordMessageAdapter-to-MessageService" style="stroke:#181818;stroke-width:1;stroke-dasharray:7.0,7.0;"/><polygon fill="transparent" points="770.48,147.83,788.961,143.5345,782.6875,133.305,770.48,147.83" style="stroke:#181818;stroke-width:1;"/><text fill="#000000" font-family="sans-serif" font-size="13" lengthAdjust="spacing" textLength="77.1304" x="848.24" y="114.3669">Implements</text></g><!--link DiscordMessageAdapter to DiscordMessangeService--><g id="link_DiscordMessageAdapter_DiscordMessangeService"><path codeLine="37" d="M952.24,63.63 C952.24,111.31 952.24,213.5 952.24,267.24 " fill="transparent" id="DiscordMessageAdapter-to-DiscordMessangeService" style="stroke:#181818;stroke-width:1;stroke-dasharray:7.0,7.0;"/><polygon fill="#181818" points="952.24,273.24,956.24,264.24,952.24,268.24,948.24,264.24,952.24,273.24" style="stroke:#181818;stroke-width:1;"/><text fill="#000000" font-family="sans-serif" font-size="13" lengthAdjust="spacing" textLength="31.0591" x="953.24" y="185.0069">Uses</text></g><!--SRC=[dP6nJiCm48PtFyKf4nMqx1cGaCg015FLZULmBi78ELUseRIb8s_52E-54oSXj8a4J4vyz__t-NwfqJbOEh8x0N0AE-VHAxa7HvpTadDOq4bpJiHU2A7OayrH4ZJN2xBFIbBKzsLbFDEsSPB2lJ6wTgacmdHsSM02AIHFZbmYXAp9wZ8NP9k-omnNFi9MFYFbuFmwP7rThZILn3uC69TEevIw8lymMHxo3JKURoEtfapXnd1n1jvqNyhhiA65jwhwbIPibtrxKMsSZIVGb7jnzHBu67MmZJ3dq8KXmYIeMbkmkNBIsEoVM5rqtnmHnAhYuTSaVOO_PJCc3CaClwkNIusPp1KM5alOubgHHNYaRCEAxfZYa0q4VFfy_tWBuip0Uckin5a2w8355m00]--></g></svg>