<svg xmlns="http://www.w3.org/2000/svg" xmlns:xlink="http://www.w3.org/1999/xlink" contentStyleType="text/css" data-diagram-type="CLASS" height="251px" preserveAspectRatio="none" style="width:1045px;height:251px;background:#FFFFFF;" version="1.1" viewBox="0 0 1045 251" width="1045px" zoomAndPan="magnify"><defs/><g><!--class User--><g id="elem_User"><rect codeLine="1" fill="#F1F1F1" height="48" id="User" rx="2.5" ry="2.5" style="stroke:#181818;stroke-width:0.5;" width="63.9102" x="264.98" y="188.33"/><ellipse cx="279.98" cy="204.33" fill="#ADD1B2" rx="11" ry="11" style="stroke:#181818;stroke-width:1;"/><path d="M282.9488,209.9706 Q282.3706,210.2675 281.73,210.4081 Q281.0894,210.5644 280.3863,210.5644 Q277.8863,210.5644 276.5581,208.9237 Q275.2456,207.2675 275.2456,204.1425 Q275.2456,201.0175 276.5581,199.3612 Q277.8863,197.705 280.3863,197.705 Q281.0894,197.705 281.73,197.8612 Q282.3863,198.0175 282.9488,198.3144 L282.9488,201.0331 Q282.3238,200.455 281.73,200.1894 Q281.1363,199.9081 280.5113,199.9081 Q279.1675,199.9081 278.48,200.9862 Q277.7925,202.0487 277.7925,204.1425 Q277.7925,206.2362 278.48,207.3144 Q279.1675,208.3769 280.5113,208.3769 Q281.1363,208.3769 281.73,208.1112 Q282.3238,207.83 282.9488,207.2519 L282.9488,209.9706 Z " fill="#000000"/><text fill="#000000" font-family="sans-serif" font-size="14" lengthAdjust="spacing" textLength="31.9102" x="293.98" y="209.1767">User</text><line style="stroke:#181818;stroke-width:0.5;" x1="265.98" x2="327.8902" y1="220.33" y2="220.33"/><line style="stroke:#181818;stroke-width:0.5;" x1="265.98" x2="327.8902" y1="228.33" y2="228.33"/></g><g id="elem_GMN3"><path d="M6,192.2 L6,232.4656 A0,0 0 0 0 6,232.4656 L229.8647,232.4656 A0,0 0 0 0 229.8647,232.4656 L229.8647,216.33 L264.59,212.33 L229.8647,208.33 L229.8647,202.2 L219.8647,192.2 L6,192.2 A0,0 0 0 0 6,192.2 " fill="#FEFFDD" style="stroke:#181818;stroke-width:0.5;"/><path d="M219.8647,192.2 L219.8647,202.2 L229.8647,202.2 L219.8647,192.2 " fill="#FEFFDD" style="stroke:#181818;stroke-width:0.5;"/><text fill="#000000" font-family="sans-serif" font-size="13" lengthAdjust="spacing" textLength="202.8647" x="12" y="209.2669">if training session got canceled</text><text fill="#000000" font-family="sans-serif" font-size="13" lengthAdjust="spacing" textLength="143.4888" x="12" y="224.3997">send message to user</text></g><!--class Client--><g id="elem_Client"><rect codeLine="10" fill="#F1F1F1" height="48" id="Client" rx="2.5" ry="2.5" style="stroke:#181818;stroke-width:0.5;" width="72.5303" x="260.67" y="39.59"/><ellipse cx="275.67" cy="55.59" fill="#ADD1B2" rx="11" ry="11" style="stroke:#181818;stroke-width:1;"/><path d="M278.6387,61.2306 Q278.0606,61.5275 277.42,61.6681 Q276.7794,61.8244 276.0762,61.8244 Q273.5762,61.8244 272.2481,60.1838 Q270.9356,58.5275 270.9356,55.4025 Q270.9356,52.2775 272.2481,50.6213 Q273.5762,48.965 276.0762,48.965 Q276.7794,48.965 277.42,49.1213 Q278.0762,49.2775 278.6387,49.5744 L278.6387,52.2931 Q278.0137,51.715 277.42,51.4494 Q276.8262,51.1681 276.2012,51.1681 Q274.8575,51.1681 274.17,52.2463 Q273.4825,53.3088 273.4825,55.4025 Q273.4825,57.4963 274.17,58.5744 Q274.8575,59.6369 276.2012,59.6369 Q276.8262,59.6369 277.42,59.3713 Q278.0137,59.09 278.6387,58.5119 L278.6387,61.2306 Z " fill="#000000"/><text fill="#000000" font-family="sans-serif" font-size="14" lengthAdjust="spacing" textLength="40.5303" x="289.67" y="60.4367">Client</text><line style="stroke:#181818;stroke-width:0.5;" x1="261.67" x2="332.2003" y1="71.59" y2="71.59"/><line style="stroke:#181818;stroke-width:0.5;" x1="261.67" x2="332.2003" y1="79.59" y2="79.59"/></g><!--class TrainingSessionSubscribier--><g id="elem_TrainingSessionSubscribier"><rect codeLine="16" fill="#F1F1F1" height="64.2969" id="TrainingSessionSubscribier" rx="2.5" ry="2.5" style="stroke:#181818;stroke-width:0.5;" width="441.4883" x="364.19" y="180.18"/><ellipse cx="486.1124" cy="196.18" fill="#B4A7E5" rx="11" ry="11" style="stroke:#181818;stroke-width:1;"/><path d="M482.0342,191.9456 L482.0342,189.7894 L489.4249,189.7894 L489.4249,191.9456 L486.9561,191.9456 L486.9561,200.0237 L489.4249,200.0237 L489.4249,202.18 L482.0342,202.18 L482.0342,200.0237 L484.503,200.0237 L484.503,191.9456 L482.0342,191.9456 Z " fill="#000000"/><text fill="#000000" font-family="sans-serif" font-size="14" font-style="italic" lengthAdjust="spacing" textLength="189.1436" x="506.6124" y="201.0267">TrainingSessionSubscribier</text><line style="stroke:#181818;stroke-width:0.5;" x1="365.19" x2="804.6783" y1="212.18" y2="212.18"/><line style="stroke:#181818;stroke-width:0.5;" x1="365.19" x2="804.6783" y1="220.18" y2="220.18"/><ellipse cx="375.19" cy="233.8284" fill="#84BE84" rx="3" ry="3" style="stroke:#038048;stroke-width:1;"/><text fill="#000000" font-family="sans-serif" font-size="14" lengthAdjust="spacing" textLength="415.4883" x="384.19" y="237.1751">trainingSessionCanceled (trainingSession: TrainingSession)</text></g><!--class TrainingSession--><g id="elem_TrainingSession"><rect codeLine="23" fill="#F1F1F1" height="113.1875" id="TrainingSession" rx="2.5" ry="2.5" style="stroke:#181818;stroke-width:0.5;" width="419.1484" x="375.36" y="7"/><ellipse cx="525.3268" cy="23" fill="#ADD1B2" rx="11" ry="11" style="stroke:#181818;stroke-width:1;"/><path d="M528.2955,28.6406 Q527.7174,28.9375 527.0768,29.0781 Q526.4362,29.2344 525.733,29.2344 Q523.233,29.2344 521.9049,27.5938 Q520.5924,25.9375 520.5924,22.8125 Q520.5924,19.6875 521.9049,18.0313 Q523.233,16.375 525.733,16.375 Q526.4362,16.375 527.0768,16.5313 Q527.733,16.6875 528.2955,16.9844 L528.2955,19.7031 Q527.6705,19.125 527.0768,18.8594 Q526.483,18.5781 525.858,18.5781 Q524.5143,18.5781 523.8268,19.6563 Q523.1393,20.7188 523.1393,22.8125 Q523.1393,24.9063 523.8268,25.9844 Q524.5143,27.0469 525.858,27.0469 Q526.483,27.0469 527.0768,26.7813 Q527.6705,26.5 528.2955,25.9219 L528.2955,28.6406 Z " fill="#000000"/><text fill="#000000" font-family="sans-serif" font-size="14" lengthAdjust="spacing" textLength="110.7148" x="545.8268" y="27.8467">TrainingSession</text><line style="stroke:#181818;stroke-width:0.5;" x1="376.36" x2="793.5084" y1="39" y2="39"/><text fill="#000000" font-family="sans-serif" font-size="14" lengthAdjust="spacing" textLength="174.7949" x="381.36" y="55.9951">Attendants: List&lt;Client&gt;</text><line style="stroke:#181818;stroke-width:0.5;" x1="376.36" x2="793.5084" y1="63.2969" y2="63.2969"/><ellipse cx="386.36" cy="76.9453" fill="#84BE84" rx="3" ry="3" style="stroke:#038048;stroke-width:1;"/><text fill="#000000" font-family="sans-serif" font-size="14" lengthAdjust="spacing" textLength="366.0303" x="395.36" y="80.292">addObserver(observer : TrainingSessionSubscribier)</text><ellipse cx="386.36" cy="93.2422" fill="#84BE84" rx="3" ry="3" style="stroke:#038048;stroke-width:1;"/><text fill="#000000" font-family="sans-serif" font-size="14" lengthAdjust="spacing" textLength="393.1484" x="395.36" y="96.5889">removeObserver(observer : TrainingSessionSubscribier)</text><ellipse cx="386.36" cy="109.5391" fill="#84BE84" rx="3" ry="3" style="stroke:#038048;stroke-width:1;"/><text fill="#000000" font-family="sans-serif" font-size="14" lengthAdjust="spacing" textLength="166.9883" x="395.36" y="112.8857">cancelTrainingSession()</text></g><g id="elem_n"><path d="M829.28,43.46 L829.28,83.7256 L1038.5769,83.7256 L1038.5769,53.46 L1028.5769,43.46 L829.28,43.46 " fill="#FEFFDD" style="stroke:#181818;stroke-width:0.5;"/><path d="M1028.5769,43.46 L1028.5769,53.46 L1038.5769,53.46 L1028.5769,43.46 " fill="#FEFFDD" style="stroke:#181818;stroke-width:1;"/><text fill="#000000" font-family="sans-serif" font-size="13" lengthAdjust="spacing" textLength="161.8271" x="835.28" y="60.5269">Diagram zawiera jedynie</text><text fill="#000000" font-family="sans-serif" font-size="13" lengthAdjust="spacing" textLength="188.2969" x="835.28" y="75.6597">elementy istotne dla wzorca.</text></g><!--link Client to User--><g id="link_Client_User"><path codeLine="14" d="M296.93,87.84 C296.93,115.32 296.93,142.76 296.93,170.19 " fill="transparent" id="Client-to-User" style="stroke:#181818;stroke-width:1;"/><polygon fill="transparent" points="296.93,188.19,302.93,170.19,290.93,170.19,296.93,188.19" style="stroke:#181818;stroke-width:1;"/></g><!--link TrainingSession to TrainingSessionSubscribier--><g id="link_TrainingSession_TrainingSessionSubscribier"><path codeLine="20" d="M584.93,132.48 C584.93,152.57 584.93,144.51 584.93,161.8 " fill="transparent" id="TrainingSession-TrainingSessionSubscribier" style="stroke:#181818;stroke-width:1;"/><polygon fill="transparent" points="584.93,120.48,580.93,126.48,584.93,132.48,588.93,126.48,584.93,120.48" style="stroke:#181818;stroke-width:1;"/><polygon fill="transparent" points="584.93,179.8,590.93,161.8,578.93,161.8,584.93,179.8" style="stroke:#181818;stroke-width:1;"/></g><!--link User to TrainingSessionSubscribier--><g id="link_User_TrainingSessionSubscribier"><path codeLine="21" d="M329.28,212.33 C340.76,212.33 334.25,212.33 345.73,212.33 " fill="transparent" id="User-to-TrainingSessionSubscribier" style="stroke:#181818;stroke-width:1;"/><polygon fill="transparent" points="363.73,212.33,345.73,206.33,345.73,218.33,363.73,212.33" style="stroke:#181818;stroke-width:1;"/></g><!--SRC=[dP71JiCm38RlUOfVEtL2um4gD0cD8ng7mOsBcxfLKEj8YRTf0zwT9Es5Ie34BV5l-_jjsu5Yn4laW7S3c4zZzbuP0tSAtnKb2ww31dBYf4Va69qNz5vXIImFtAQKoD9YJ1hr3FKufjBSRrSGky6nQ89CeVBPR3wsXM2C4-NGaMKypvZ3H3aScsY3QzpauqQ_oxkPZseXrCj6wmnUnE2BXP-HfcpcZnnZouIBZEpsNZKjXKHZZKSNzMuQV6lo9A2sVMfI_nE7oiyFrB-GrgKiyEXF_9_AwLYBhAeiHlBHLm-E-a0ZhdHEHOGtRY_Y-5NIYiTa_88qX5TXj0FXVFN1qkqA527c2m00]--></g></svg>