<?xml version="1.0" encoding="UTF-8" standalone="no"?><svg xmlns="http://www.w3.org/2000/svg" xmlns:xlink="http://www.w3.org/1999/xlink" contentStyleType="text/css" height="1180px" preserveAspectRatio="none" style="width:1026px;height:1180px;background:#FFFFFF;" version="1.1" viewBox="0 0 1026 1180" width="1026px" zoomAndPan="magnify"><defs/><g><rect fill="none" height="22.6406" style="stroke:none;stroke-width:1.0;" width="993" x="15" y="12.4551"/><rect fill="#F1F1F1" height="35.0938" rx="12.5" ry="12.5" style="stroke:#181818;stroke-width:0.5;" width="231" x="282.5" y="207.8926"/><text fill="#000000" font-family="sans-serif" font-size="12" lengthAdjust="spacing" textLength="211" x="292.5" y="230.3496">Wyświetlenie opcji Dodaj nowe zajęcia</text><rect fill="#F1F1F1" height="35.0938" rx="12.5" ry="12.5" style="stroke:#181818;stroke-width:0.5;" width="287" x="254.5" y="362.0801"/><text fill="#000000" font-family="sans-serif" font-size="12" lengthAdjust="spacing" textLength="267" x="264.5" y="384.5371">Wyświetlenie formularza, do podania szczegółów</text><rect fill="#F1F1F1" height="35.0938" rx="12.5" ry="12.5" style="stroke:#181818;stroke-width:0.5;" width="178" x="309" y="615.3613"/><text fill="#000000" font-family="sans-serif" font-size="12" lengthAdjust="spacing" textLength="158" x="319" y="637.8184">Wyświetlenie dostępnych sal</text><polygon fill="#F1F1F1" points="398,571.3613,410,583.3613,398,595.3613,386,583.3613,398,571.3613" style="stroke:#181818;stroke-width:0.5;"/><rect fill="#F1F1F1" height="35.0938" rx="12.5" ry="12.5" style="stroke:#181818;stroke-width:0.5;" width="207" x="294.5" y="865.0615"/><text fill="#000000" font-family="sans-serif" font-size="12" lengthAdjust="spacing" textLength="187" x="304.5" y="887.5186">Sprawdzenie poprawności danych</text><polygon fill="#F1F1F1" points="398,527.3613,410,539.3613,398,551.3613,386,539.3613,398,527.3613" style="stroke:#181818;stroke-width:0.5;"/><polygon fill="#F1F1F1" points="326,920.1553,470,920.1553,482,932.1553,470,944.1553,326,944.1553,314,932.1553,326,920.1553" style="stroke:#181818;stroke-width:0.5;"/><text fill="#000000" font-family="sans-serif" font-size="11" lengthAdjust="spacing" textLength="14" x="402" y="955.5742">tak</text><text fill="#000000" font-family="sans-serif" font-size="11" lengthAdjust="spacing" textLength="144" x="326" y="936.6563">Wolny termin i dostępna sala?</text><text fill="#000000" font-family="sans-serif" font-size="11" lengthAdjust="spacing" textLength="14" x="482" y="929.7383">nie</text><polygon fill="#F1F1F1" points="398,318.0801,410,330.0801,398,342.0801,386,330.0801,398,318.0801" style="stroke:#181818;stroke-width:0.5;"/><polygon fill="#F1F1F1" points="321.5,977.0742,474.5,977.0742,486.5,989.0742,474.5,1001.0742,321.5,1001.0742,309.5,989.0742,321.5,977.0742" style="stroke:#181818;stroke-width:0.5;"/><text fill="#000000" font-family="sans-serif" font-size="11" lengthAdjust="spacing" textLength="14" x="402" y="1012.4932">tak</text><text fill="#000000" font-family="sans-serif" font-size="11" lengthAdjust="spacing" textLength="153" x="321.5" y="993.5752">Formularz nie zawiera błędów?</text><text fill="#000000" font-family="sans-serif" font-size="11" lengthAdjust="spacing" textLength="14" x="486.5" y="986.6572">nie</text><rect fill="#F1F1F1" height="35.0938" rx="12.5" ry="12.5" style="stroke:#181818;stroke-width:0.5;" width="360" x="218" y="1033.9932"/><text fill="#000000" font-family="sans-serif" font-size="12" lengthAdjust="spacing" textLength="340" x="228" y="1056.4502">Dodanie nowych zajęć do kalendarza i udostępnienie klientom</text><rect fill="#F1F1F1" height="35.0938" rx="12.5" ry="12.5" style="stroke:#181818;stroke-width:0.5;" width="280" x="258" y="1089.0869"/><text fill="#000000" font-family="sans-serif" font-size="12" lengthAdjust="spacing" textLength="260" x="268" y="1111.5439">Wygenerowanie potwierdzenia utworzenia zajęć</text><path d="M20,1142.0049 L20,1168.3564 L367,1168.3564 L367,1152.0049 L357,1142.0049 L20,1142.0049 " fill="#FEFFDD" style="stroke:#181818;stroke-width:0.5;"/><path d="M357,1142.0049 L357,1152.0049 L367,1152.0049 L357,1142.0049 " fill="#FEFFDD" style="stroke:#181818;stroke-width:0.5;"/><text fill="#000000" font-family="sans-serif" font-size="13" lengthAdjust="spacing" textLength="326" x="26" y="1160.5">Zajęcia dodane do kalendarza i są dostępne dla klientów</text><ellipse cx="398" cy="1155.1807" fill="none" rx="11" ry="11" style="stroke:#222222;stroke-width:1.0;"/><ellipse cx="398" cy="1155.1807" fill="#222222" rx="6" ry="6" style="stroke:#111111;stroke-width:1.0;"/><line style="stroke:#000000;stroke-width:1.5;" x1="15" x2="15" y1="12.4551" y2="1168.3564"/><path d="M619,50.0957 L619,76.4473 L818,76.4473 L818,60.0957 L808,50.0957 L619,50.0957 " fill="#FEFFDD" style="stroke:#181818;stroke-width:0.5;"/><path d="M808,50.0957 L808,60.0957 L818,60.0957 L808,50.0957 " fill="#FEFFDD" style="stroke:#181818;stroke-width:0.5;"/><text fill="#000000" font-family="sans-serif" font-size="13" lengthAdjust="spacing" textLength="178" x="625" y="68.5908">Trener zalogowany w systemie</text><path d="M597,96.4473 L597,122.7988 L840,122.7988 L840,106.4473 L830,96.4473 L597,96.4473 " fill="#FEFFDD" style="stroke:#181818;stroke-width:0.5;"/><path d="M830,96.4473 L830,106.4473 L840,106.4473 L830,96.4473 " fill="#FEFFDD" style="stroke:#181818;stroke-width:0.5;"/><text fill="#000000" font-family="sans-serif" font-size="13" lengthAdjust="spacing" textLength="222" x="603" y="114.9424">Dostępna jest sala do zarezerwowania</text><ellipse cx="860" cy="86.4473" fill="#222222" rx="10" ry="10" style="stroke:#222222;stroke-width:1.0;"/><rect fill="#F1F1F1" height="35.0938" rx="12.5" ry="12.5" style="stroke:#181818;stroke-width:0.5;" width="285" x="717.5" y="152.7988"/><text fill="#000000" font-family="sans-serif" font-size="12" lengthAdjust="spacing" textLength="265" x="727.5" y="175.2559">przejście do sekcji Organizacja zajęć w systemie</text><rect fill="#F1F1F1" height="35.0938" rx="12.5" ry="12.5" style="stroke:#181818;stroke-width:0.5;" width="193" x="763.5" y="262.9863"/><text fill="#000000" font-family="sans-serif" font-size="12" lengthAdjust="spacing" textLength="173" x="773.5" y="285.4434">Wybór opcji Dodaj nowe zajęcia</text><rect fill="#F1F1F1" height="35.0938" rx="12.5" ry="12.5" style="stroke:#181818;stroke-width:0.5;" width="138" x="791" y="417.1738"/><text fill="#000000" font-family="sans-serif" font-size="12" lengthAdjust="spacing" textLength="118" x="801" y="439.6309">Wpisanie szczegółów</text><rect fill="#F1F1F1" height="35.0938" rx="12.5" ry="12.5" style="stroke:#181818;stroke-width:0.5;" width="191" x="764.5" y="472.2676"/><text fill="#000000" font-family="sans-serif" font-size="12" lengthAdjust="spacing" textLength="171" x="774.5" y="494.7246">Wybranie opcji Rezerwacja Sali</text><rect fill="#F1F1F1" height="35.0938" rx="12.5" ry="12.5" style="stroke:#181818;stroke-width:0.5;" width="77" x="821.5" y="677.9551"/><text fill="#000000" font-family="sans-serif" font-size="12" lengthAdjust="spacing" textLength="57" x="831.5" y="700.4121">Wybór sali</text><polygon fill="#F1F1F1" points="802,753.0488,918,753.0488,930,765.0488,918,777.0488,802,777.0488,790,765.0488,802,753.0488" style="stroke:#181818;stroke-width:0.5;"/><text fill="#000000" font-family="sans-serif" font-size="11" lengthAdjust="spacing" textLength="14" x="864" y="788.4678">tak</text><text fill="#000000" font-family="sans-serif" font-size="11" lengthAdjust="spacing" textLength="116" x="802" y="769.5498">Potwierdzenie wyboru?</text><text fill="#000000" font-family="sans-serif" font-size="11" lengthAdjust="spacing" textLength="14" x="930" y="762.6318">nie</text><rect fill="#F1F1F1" height="35.0938" rx="12.5" ry="12.5" style="stroke:#181818;stroke-width:0.5;" width="191" x="764.5" y="809.9678"/><text fill="#000000" font-family="sans-serif" font-size="12" lengthAdjust="spacing" textLength="171" x="774.5" y="832.4248">Wybranie opcji zapisz formularz</text><line style="stroke:#000000;stroke-width:1.5;" x1="582" x2="582" y1="12.4551" y2="1168.3564"/><line style="stroke:#000000;stroke-width:1.5;" x1="1006.5" x2="1006.5" y1="12.4551" y2="1168.3564"/><line style="stroke:#181818;stroke-width:1.0;" x1="398" x2="398" y1="595.3613" y2="615.3613"/><polygon fill="#181818" points="394,605.3613,398,615.3613,402,605.3613,398,609.3613" style="stroke:#181818;stroke-width:1.0;"/><line style="stroke:#181818;stroke-width:1.0;" x1="398" x2="398" y1="551.3613" y2="571.3613"/><polygon fill="#181818" points="394,561.3613,398,571.3613,402,561.3613,398,565.3613" style="stroke:#181818;stroke-width:1.0;"/><line style="stroke:#181818;stroke-width:1.0;" x1="314" x2="282.5" y1="932.1553" y2="932.1553"/><polygon fill="#181818" points="278.5,733.0488,282.5,723.0488,286.5,733.0488,282.5,729.0488" style="stroke:#181818;stroke-width:1.0;"/><line style="stroke:#181818;stroke-width:1.0;" x1="282.5" x2="282.5" y1="539.3613" y2="932.1553"/><line style="stroke:#181818;stroke-width:1.0;" x1="282.5" x2="386" y1="539.3613" y2="539.3613"/><polygon fill="#181818" points="376,535.3613,386,539.3613,376,543.3613,380,539.3613" style="stroke:#181818;stroke-width:1.0;"/><line style="stroke:#181818;stroke-width:1.0;" x1="398" x2="398" y1="900.1553" y2="920.1553"/><polygon fill="#181818" points="394,910.1553,398,920.1553,402,910.1553,398,914.1553" style="stroke:#181818;stroke-width:1.0;"/><line style="stroke:#181818;stroke-width:1.0;" x1="398" x2="398" y1="342.0801" y2="362.0801"/><polygon fill="#181818" points="394,352.0801,398,362.0801,402,352.0801,398,356.0801" style="stroke:#181818;stroke-width:1.0;"/><line style="stroke:#181818;stroke-width:1.0;" x1="309.5" x2="242.5" y1="989.0742" y2="989.0742"/><polygon fill="#181818" points="238.5,642.9082,242.5,632.9082,246.5,642.9082,242.5,638.9082" style="stroke:#181818;stroke-width:1.0;"/><line style="stroke:#181818;stroke-width:1.0;" x1="242.5" x2="242.5" y1="330.0801" y2="989.0742"/><line style="stroke:#181818;stroke-width:1.0;" x1="242.5" x2="386" y1="330.0801" y2="330.0801"/><polygon fill="#181818" points="376,326.0801,386,330.0801,376,334.0801,380,330.0801" style="stroke:#181818;stroke-width:1.0;"/><line style="stroke:#181818;stroke-width:1.0;" x1="398" x2="398" y1="944.1553" y2="977.0742"/><polygon fill="#181818" points="394,967.0742,398,977.0742,402,967.0742,398,971.0742" style="stroke:#181818;stroke-width:1.0;"/><line style="stroke:#181818;stroke-width:1.0;" x1="398" x2="398" y1="1001.0742" y2="1033.9932"/><polygon fill="#181818" points="394,1023.9932,398,1033.9932,402,1023.9932,398,1027.9932" style="stroke:#181818;stroke-width:1.0;"/><line style="stroke:#181818;stroke-width:1.0;" x1="398" x2="398" y1="1069.0869" y2="1089.0869"/><polygon fill="#181818" points="394,1079.0869,398,1089.0869,402,1079.0869,398,1083.0869" style="stroke:#181818;stroke-width:1.0;"/><line style="stroke:#181818;stroke-width:1.0;" x1="398" x2="398" y1="1124.1807" y2="1144.1807"/><polygon fill="#181818" points="394,1134.1807,398,1144.1807,402,1134.1807,398,1138.1807" style="stroke:#181818;stroke-width:1.0;"/><line style="stroke:#181818;stroke-width:1.0;" x1="860" x2="860" y1="96.4473" y2="152.7988"/><polygon fill="#181818" points="856,142.7988,860,152.7988,864,142.7988,860,146.7988" style="stroke:#181818;stroke-width:1.0;"/><line style="stroke:#181818;stroke-width:1.0;" x1="860" x2="860" y1="452.2676" y2="472.2676"/><polygon fill="#181818" points="856,462.2676,860,472.2676,864,462.2676,860,466.2676" style="stroke:#181818;stroke-width:1.0;"/><line style="stroke:#181818;stroke-width:1.0;" x1="860" x2="860" y1="713.0488" y2="753.0488"/><polygon fill="#181818" points="856,743.0488,860,753.0488,864,743.0488,860,747.0488" style="stroke:#181818;stroke-width:1.0;"/><line style="stroke:#181818;stroke-width:1.0;" x1="860" x2="860" y1="777.0488" y2="809.9678"/><polygon fill="#181818" points="856,799.9678,860,809.9678,864,799.9678,860,803.9678" style="stroke:#181818;stroke-width:1.0;"/><line style="stroke:#181818;stroke-width:1.0;" x1="860" x2="860" y1="187.8926" y2="192.8926"/><line style="stroke:#181818;stroke-width:1.0;" x1="860" x2="398" y1="192.8926" y2="192.8926"/><line style="stroke:#181818;stroke-width:1.0;" x1="398" x2="398" y1="192.8926" y2="207.8926"/><polygon fill="#181818" points="394,197.8926,398,207.8926,402,197.8926,398,201.8926" style="stroke:#181818;stroke-width:1.0;"/><line style="stroke:#181818;stroke-width:1.0;" x1="398" x2="398" y1="242.9863" y2="247.9863"/><line style="stroke:#181818;stroke-width:1.0;" x1="398" x2="860" y1="247.9863" y2="247.9863"/><line style="stroke:#181818;stroke-width:1.0;" x1="860" x2="860" y1="247.9863" y2="262.9863"/><polygon fill="#181818" points="856,252.9863,860,262.9863,864,252.9863,860,256.9863" style="stroke:#181818;stroke-width:1.0;"/><line style="stroke:#181818;stroke-width:1.0;" x1="398" x2="398" y1="397.1738" y2="402.1738"/><line style="stroke:#181818;stroke-width:1.0;" x1="398" x2="860" y1="402.1738" y2="402.1738"/><line style="stroke:#181818;stroke-width:1.0;" x1="860" x2="860" y1="402.1738" y2="417.1738"/><polygon fill="#181818" points="856,407.1738,860,417.1738,864,407.1738,860,411.1738" style="stroke:#181818;stroke-width:1.0;"/><line style="stroke:#181818;stroke-width:1.0;" x1="398" x2="398" y1="650.4551" y2="660.4551"/><line style="stroke:#181818;stroke-width:1.0;" x1="398" x2="860" y1="660.4551" y2="660.4551"/><line style="stroke:#181818;stroke-width:1.0;" x1="860" x2="860" y1="660.4551" y2="677.9551"/><polygon fill="#181818" points="856,667.9551,860,677.9551,864,667.9551,860,671.9551" style="stroke:#181818;stroke-width:1.0;"/><line style="stroke:#181818;stroke-width:1.0;" x1="930" x2="961" y1="765.0488" y2="765.0488"/><polygon fill="#181818" points="957,670.4551,961,660.4551,965,670.4551,961,666.4551" style="stroke:#181818;stroke-width:1.0;"/><line style="stroke:#181818;stroke-width:1.0;" x1="961" x2="961" y1="583.3613" y2="765.0488"/><line style="stroke:#181818;stroke-width:1.0;" x1="961" x2="410" y1="583.3613" y2="583.3613"/><polygon fill="#181818" points="420,579.3613,410,583.3613,420,587.3613,416,583.3613" style="stroke:#181818;stroke-width:1.0;"/><line style="stroke:#181818;stroke-width:1.0;" x1="860" x2="860" y1="845.0615" y2="850.0615"/><line style="stroke:#181818;stroke-width:1.0;" x1="860" x2="398" y1="850.0615" y2="850.0615"/><line style="stroke:#181818;stroke-width:1.0;" x1="398" x2="398" y1="850.0615" y2="865.0615"/><polygon fill="#181818" points="394,855.0615,398,865.0615,402,855.0615,398,859.0615" style="stroke:#181818;stroke-width:1.0;"/><line style="stroke:#181818;stroke-width:1.0;" x1="860" x2="860" y1="507.3613" y2="512.3613"/><line style="stroke:#181818;stroke-width:1.0;" x1="860" x2="398" y1="512.3613" y2="512.3613"/><line style="stroke:#181818;stroke-width:1.0;" x1="398" x2="398" y1="512.3613" y2="527.3613"/><polygon fill="#181818" points="394,517.3613,398,527.3613,402,517.3613,398,521.3613" style="stroke:#181818;stroke-width:1.0;"/><line style="stroke:#181818;stroke-width:1.0;" x1="860" x2="860" y1="298.0801" y2="303.0801"/><line style="stroke:#181818;stroke-width:1.0;" x1="860" x2="398" y1="303.0801" y2="303.0801"/><line style="stroke:#181818;stroke-width:1.0;" x1="398" x2="398" y1="303.0801" y2="318.0801"/><polygon fill="#181818" points="394,308.0801,398,318.0801,402,308.0801,398,312.0801" style="stroke:#181818;stroke-width:1.0;"/><text fill="#000000" font-family="sans-serif" font-size="18" lengthAdjust="spacing" textLength="59" x="271.5" y="31.1406">System</text><text fill="#000000" font-family="sans-serif" font-size="18" lengthAdjust="spacing" textLength="54" x="769.75" y="31.1406">Trener</text><!--SRC=[VLDBZfj04DrpYbhQKau0YsoisIQA8usKNHdAJ6DCe-wsMhHOZHJD6QmvXezWVAzKyR6P6HGs67UzL-zLlsfj2zl6EZf6hMlXjw6AJ6GT6XVjIurELJbKsX6Kj7VnM001IvrhZrK37coFLxG8s6ZhkdDT8HHa7LWi4JBD18O26IyS2gEuDe6AstkgI4uj7T92mG-Jysd0j4065DsvUvkrIwBMjb7ytDpUlI9NKiLWNGjmepCiM8Md0PSgJCIVLE-k5_E_CaCreOk07-6NzwSUUssEfn9Dm6yYjcOMzW0sf87ow-NsUhtuP21m4q6jB0fseKWq6No8_zKFfZUznL8DHJDL2vzpiTFpINGstaEJliWb91-nxWks7vEzztyq1V-YIeBLJ-sOtMIXf_VDJflJzpKe2ol-OoqPW9N3mpgQiywD1kIfXCSu7vtcNk9jRT2FRMej7vMMf02FdTtCvpDfUzOb9zEHEQeArDqxzl5R5lcHu6dI1D8re3X5sDrUktF65xTC4M_w990aIiOyHPOpSa2-XKmYmt9EanxLUpgK_7Rwc4WwSrclVYd4x6F222VdjHb-ZiG9xwck5xVkpnXdxisIw8i4s_szJuLFUIS75Upj7m00]--></g></svg>