<?xml version="1.0" encoding="UTF-8" standalone="no"?><svg xmlns="http://www.w3.org/2000/svg" xmlns:xlink="http://www.w3.org/1999/xlink" contentStyleType="text/css" height="596px" preserveAspectRatio="none" style="width:572px;height:596px;background:#FFFFFF;" version="1.1" viewBox="0 0 572 596" width="572px" zoomAndPan="magnify"><defs/><g><rect fill="none" height="336.8359" style="stroke:#000000;stroke-width:1.5;" width="555.5" x="10" y="160.3125"/><rect fill="none" height="62.7031" style="stroke:#000000;stroke-width:1.5;" width="246" x="309.5" y="230.0156"/><line style="stroke:#181818;stroke-width:0.5;stroke-dasharray:5.0,5.0;" x1="46" x2="46" y1="82.6094" y2="514.1484"/><line style="stroke:#181818;stroke-width:0.5;stroke-dasharray:5.0,5.0;" x1="217.5" x2="217.5" y1="82.6094" y2="514.1484"/><line style="stroke:#181818;stroke-width:0.5;stroke-dasharray:5.0,5.0;" x1="369.5" x2="369.5" y1="82.6094" y2="514.1484"/><line style="stroke:#181818;stroke-width:0.5;stroke-dasharray:5.0,5.0;" x1="528.5" x2="528.5" y1="82.6094" y2="514.1484"/><text fill="#000000" font-family="sans-serif" font-size="14" lengthAdjust="spacing" textLength="46" x="20" y="79.5332">Trainer</text><ellipse cx="46" cy="13.5" fill="#E2E2F0" rx="8" ry="8" style="stroke:#181818;stroke-width:0.5;"/><path d="M46,21.5 L46,48.5 M33,29.5 L59,29.5 M46,48.5 L33,63.5 M46,48.5 L59,63.5 " fill="none" style="stroke:#181818;stroke-width:0.5;"/><text fill="#000000" font-family="sans-serif" font-size="14" lengthAdjust="spacing" textLength="46" x="20" y="527.6816">Trainer</text><ellipse cx="46" cy="539.2578" fill="#E2E2F0" rx="8" ry="8" style="stroke:#181818;stroke-width:0.5;"/><path d="M46,547.2578 L46,574.2578 M33,555.2578 L59,555.2578 M46,574.2578 L33,589.2578 M46,574.2578 L59,589.2578 " fill="none" style="stroke:#181818;stroke-width:0.5;"/><rect fill="#E2E2F0" height="31.6094" rx="2.5" ry="2.5" style="stroke:#181818;stroke-width:0.5;" width="37" x="199.5" y="50"/><text fill="#000000" font-family="sans-serif" font-size="14" lengthAdjust="spacing" textLength="23" x="206.5" y="71.5332">GUI</text><rect fill="#E2E2F0" height="31.6094" rx="2.5" ry="2.5" style="stroke:#181818;stroke-width:0.5;" width="37" x="199.5" y="513.1484"/><text fill="#000000" font-family="sans-serif" font-size="14" lengthAdjust="spacing" textLength="23" x="206.5" y="534.6816">GUI</text><rect fill="#E2E2F0" height="31.6094" rx="2.5" ry="2.5" style="stroke:#181818;stroke-width:0.5;" width="101" x="319.5" y="50"/><text fill="#000000" font-family="sans-serif" font-size="14" lengthAdjust="spacing" textLength="87" x="326.5" y="71.5332">GymCalendar</text><rect fill="#E2E2F0" height="31.6094" rx="2.5" ry="2.5" style="stroke:#181818;stroke-width:0.5;" width="101" x="319.5" y="513.1484"/><text fill="#000000" font-family="sans-serif" font-size="14" lengthAdjust="spacing" textLength="87" x="326.5" y="534.6816">GymCalendar</text><rect fill="#E2E2F0" height="31.6094" rx="2.5" ry="2.5" style="stroke:#181818;stroke-width:0.5;" width="33" x="512.5" y="50"/><text fill="#000000" font-family="sans-serif" font-size="14" lengthAdjust="spacing" textLength="19" x="519.5" y="71.5332">DB</text><rect fill="#E2E2F0" height="31.6094" rx="2.5" ry="2.5" style="stroke:#181818;stroke-width:0.5;" width="33" x="512.5" y="513.1484"/><text fill="#000000" font-family="sans-serif" font-size="14" lengthAdjust="spacing" textLength="19" x="519.5" y="534.6816">DB</text><polygon fill="#181818" points="206,110.9609,216,114.9609,206,118.9609,210,114.9609" style="stroke:#181818;stroke-width:1.0;"/><line style="stroke:#181818;stroke-width:1.0;" x1="46" x2="212" y1="114.9609" y2="114.9609"/><text fill="#000000" font-family="sans-serif" font-size="13" lengthAdjust="spacing" textLength="71" x="53" y="110.1045">selectGym()</text><polygon fill="#181818" points="358,141.3125,368,145.3125,358,149.3125,362,145.3125" style="stroke:#181818;stroke-width:1.0;"/><line style="stroke:#181818;stroke-width:1.0;" x1="218" x2="364" y1="145.3125" y2="145.3125"/><text fill="#000000" font-family="sans-serif" font-size="13" lengthAdjust="spacing" textLength="70" x="225" y="140.4561">selectDate()</text><path d="M10,160.3125 L71,160.3125 L71,168.6641 L61,178.6641 L10,178.6641 L10,160.3125 " fill="#EEEEEE" style="stroke:#000000;stroke-width:1.5;"/><rect fill="none" height="336.8359" style="stroke:#000000;stroke-width:1.5;" width="555.5" x="10" y="160.3125"/><text fill="#000000" font-family="sans-serif" font-size="13" font-weight="bold" lengthAdjust="spacing" textLength="16" x="25" y="174.8076">alt</text><text fill="#000000" font-family="sans-serif" font-size="11" font-weight="bold" lengthAdjust="spacing" textLength="82" x="86" y="173.7314">[gym available]</text><polygon fill="#181818" points="517,197.0156,527,201.0156,517,205.0156,521,201.0156" style="stroke:#181818;stroke-width:1.0;"/><line style="stroke:#181818;stroke-width:1.0;" x1="370" x2="523" y1="201.0156" y2="201.0156"/><text fill="#000000" font-family="sans-serif" font-size="13" lengthAdjust="spacing" textLength="104" x="377" y="196.1592">checkAvailability()</text><polygon fill="#181818" points="381,211.0156,371,215.0156,381,219.0156,377,215.0156" style="stroke:#181818;stroke-width:1.0;"/><line style="stroke:#181818;stroke-width:1.0;" x1="375" x2="528" y1="215.0156" y2="215.0156"/><path d="M309.5,230.0156 L374.5,230.0156 L374.5,238.3672 L364.5,248.3672 L309.5,248.3672 L309.5,230.0156 " fill="#EEEEEE" style="stroke:#000000;stroke-width:1.5;"/><rect fill="none" height="62.7031" style="stroke:#000000;stroke-width:1.5;" width="246" x="309.5" y="230.0156"/><text fill="#000000" font-family="sans-serif" font-size="13" font-weight="bold" lengthAdjust="spacing" textLength="20" x="324.5" y="244.5107">opt</text><text fill="#000000" font-family="sans-serif" font-size="11" font-weight="bold" lengthAdjust="spacing" textLength="135" x="389.5" y="243.4346">[multiple dates booking]</text><polygon fill="#181818" points="517,266.7188,527,270.7188,517,274.7188,521,270.7188" style="stroke:#181818;stroke-width:1.0;"/><line style="stroke:#181818;stroke-width:1.0;" x1="370" x2="523" y1="270.7188" y2="270.7188"/><text fill="#000000" font-family="sans-serif" font-size="13" lengthAdjust="spacing" textLength="135" x="377" y="265.8623">bookMultipleSessions()</text><polygon fill="#181818" points="381,280.7188,371,284.7188,381,288.7188,377,284.7188" style="stroke:#181818;stroke-width:1.0;"/><line style="stroke:#181818;stroke-width:1.0;" x1="375" x2="528" y1="284.7188" y2="284.7188"/><polygon fill="#181818" points="517,318.0703,527,322.0703,517,326.0703,521,322.0703" style="stroke:#181818;stroke-width:1.0;"/><line style="stroke:#181818;stroke-width:1.0;" x1="370" x2="523" y1="322.0703" y2="322.0703"/><text fill="#000000" font-family="sans-serif" font-size="13" lengthAdjust="spacing" textLength="64" x="377" y="317.2139">bookGym()</text><polygon fill="#181818" points="381,332.0703,371,336.0703,381,340.0703,377,336.0703" style="stroke:#181818;stroke-width:1.0;"/><line style="stroke:#181818;stroke-width:1.0;" x1="375" x2="528" y1="336.0703" y2="336.0703"/><polygon fill="#181818" points="229,362.4219,219,366.4219,229,370.4219,225,366.4219" style="stroke:#181818;stroke-width:1.0;"/><line style="stroke:#181818;stroke-width:1.0;stroke-dasharray:2.0,2.0;" x1="223" x2="369" y1="366.4219" y2="366.4219"/><text fill="#000000" font-family="sans-serif" font-size="13" lengthAdjust="spacing" textLength="128" x="235" y="361.5654">reservationConfirmed()</text><polygon fill="#181818" points="57,392.7734,47,396.7734,57,400.7734,53,396.7734" style="stroke:#181818;stroke-width:1.0;"/><line style="stroke:#181818;stroke-width:1.0;stroke-dasharray:2.0,2.0;" x1="51" x2="217" y1="396.7734" y2="396.7734"/><text fill="#000000" font-family="sans-serif" font-size="13" lengthAdjust="spacing" textLength="148" x="63" y="391.917">bookingSuccessHandler()</text><line style="stroke:#000000;stroke-width:1.0;stroke-dasharray:2.0,2.0;" x1="10" x2="565.5" y1="405.7734" y2="405.7734"/><text fill="#000000" font-family="sans-serif" font-size="11" font-weight="bold" lengthAdjust="spacing" textLength="77" x="15" y="417.1924">[gym booked]</text><polygon fill="#181818" points="57,438.9609,47,442.9609,57,446.9609,53,442.9609" style="stroke:#181818;stroke-width:1.0;"/><line style="stroke:#181818;stroke-width:1.0;stroke-dasharray:2.0,2.0;" x1="51" x2="217" y1="442.9609" y2="442.9609"/><text fill="#000000" font-family="sans-serif" font-size="13" lengthAdjust="spacing" textLength="121" x="63" y="438.1045">gymBookedHandler()</text><line style="stroke:#000000;stroke-width:1.0;stroke-dasharray:2.0,2.0;" x1="10" x2="565.5" y1="451.9609" y2="451.9609"/><text fill="#000000" font-family="sans-serif" font-size="11" font-weight="bold" lengthAdjust="spacing" textLength="72" x="15" y="463.3799">[gym closed]</text><polygon fill="#181818" points="57,485.1484,47,489.1484,57,493.1484,53,489.1484" style="stroke:#181818;stroke-width:1.0;"/><line style="stroke:#181818;stroke-width:1.0;stroke-dasharray:2.0,2.0;" x1="51" x2="217" y1="489.1484" y2="489.1484"/><text fill="#000000" font-family="sans-serif" font-size="13" lengthAdjust="spacing" textLength="117" x="63" y="484.292">gymClosedHandler()</text><!--SRC=[VP0nRiCm34LtdO9ZC_G26GhKDj1sw9Jq08p4fa9eoP2O0BvzACL9Oo2ED_7_nqz_j18JR1FwGCaCcCHRFs0G-FZvch_7laMcu73kwnfZ9XvUtme6QyZ4P4MHbvKfaoByypT3XqBgCCW2-x47FA5dt34PqE-Uq0LTevpz8tjulzWyUnaLBruLvnbr6WU1_iZY1oPm6fPX5-F1XtsLbqAAvtl2DfIpZo5FEG-pT5P5VPXdEozzB9yxusvT9igKJYXwHHl3hqyzkMbDhLQDr_xNrz_R7AtLmpynEAQaRk9CjU9Y8BT0gw6f-WFGSipFmBRgTs1mPm00]--></g></svg>