<svg xmlns="http://www.w3.org/2000/svg" xmlns:xlink="http://www.w3.org/1999/xlink" contentStyleType="text/css" height="991px" preserveAspectRatio="none" style="width:1165px;height:991px;background:#FFFFFF;" version="1.1" viewBox="0 0 1165 991" width="1165px" zoomAndPan="magnify"><title>Rezygnacja z karnetu</title><defs/><g><text fill="#000000" font-family="sans-serif" font-size="14" font-weight="bold" lengthAdjust="spacing" textLength="142.3857" x="509.954" y="34.5332">Rezygnacja z karnetu</text><rect fill="none" height="22.6406" style="stroke:none;stroke-width:1.0;" width="1132.2937" x="15" y="51.0645"/><path d="M42.2732,88.7051 L42.2732,115.0566 L293.7629,115.0566 L293.7629,98.7051 L283.7629,88.7051 L42.2732,88.7051 " fill="#FEFFDD" style="stroke:#181818;stroke-width:0.5;"/><path d="M283.7629,88.7051 L283.7629,98.7051 L293.7629,98.7051 L283.7629,88.7051 " fill="#FEFFDD" style="stroke:#181818;stroke-width:0.5;"/><text fill="#000000" font-family="sans-serif" font-size="13" lengthAdjust="spacing" textLength="230.4897" x="48.2732" y="107.2002">Musi istnie&#263; karnet identyfikuj&#261;cy klienta</text><path d="M30,135.0566 L30,161.4082 L306.0361,161.4082 L306.0361,145.0566 L296.0361,135.0566 L30,135.0566 " fill="#FEFFDD" style="stroke:#181818;stroke-width:0.5;"/><path d="M296.0361,135.0566 L296.0361,145.0566 L306.0361,145.0566 L296.0361,135.0566 " fill="#FEFFDD" style="stroke:#181818;stroke-width:0.5;"/><text fill="#000000" font-family="sans-serif" font-size="13" lengthAdjust="spacing" textLength="255.0361" x="36" y="153.5518">Pracownik musi by&#263; zalogowany w systemie</text><ellipse cx="326.0361" cy="125.0566" fill="#222222" rx="10" ry="10" style="stroke:#222222;stroke-width:1.0;"/><rect fill="#F1F1F1" height="35.0938" rx="12.5" ry="12.5" style="stroke:#181818;stroke-width:0.5;" width="182.0879" x="234.9922" y="191.4082"/><text fill="#000000" font-family="sans-serif" font-size="12" lengthAdjust="spacing" textLength="162.0879" x="244.9922" y="213.8652">Pro&#347;ba o rezygnacj&#281; z karnetu</text><line style="stroke:#000000;stroke-width:1.5;" x1="15" x2="15" y1="51.0645" y2="979.4531"/><rect fill="#F1F1F1" height="35.0938" rx="12.5" ry="12.5" style="stroke:#181818;stroke-width:0.5;" width="184.5547" x="435.5059" y="246.502"/><text fill="#000000" font-family="sans-serif" font-size="12" lengthAdjust="spacing" textLength="164.5547" x="445.5059" y="268.959">Wyb&#243;r opcji "Wy&#347;wietl karnety"</text><rect fill="#F1F1F1" height="35.0938" rx="12.5" ry="12.5" style="stroke:#181818;stroke-width:0.5;" width="201.4063" x="427.0801" y="400.6895"/><text fill="#000000" font-family="sans-serif" font-size="12" lengthAdjust="spacing" textLength="181.4063" x="437.0801" y="423.1465">Wpisanie danych do wyszukiwarki</text><rect fill="#F1F1F1" height="35.0938" rx="12.5" ry="12.5" style="stroke:#181818;stroke-width:0.5;" width="189.3828" x="433.0918" y="567.7959"/><text fill="#000000" font-family="sans-serif" font-size="12" lengthAdjust="spacing" textLength="169.3828" x="443.0918" y="590.2529">Wyb&#243;r karnetu z listy wynikowej</text><rect fill="#F1F1F1" height="35.0938" rx="12.5" ry="12.5" style="stroke:#181818;stroke-width:0.5;" width="159.2363" x="448.165" y="622.8896"/><text fill="#000000" font-family="sans-serif" font-size="12" lengthAdjust="spacing" textLength="139.2363" x="458.165" y="645.3467">Wyb&#243;r opcji "Usu&#324; karnet"</text><rect fill="#F1F1F1" height="35.0938" rx="12.5" ry="12.5" style="stroke:#181818;stroke-width:0.5;" width="140.0586" x="457.7539" y="733.0771"/><text fill="#000000" font-family="sans-serif" font-size="12" lengthAdjust="spacing" textLength="120.0586" x="467.7539" y="755.5342">Zatwierdzenie operacji</text><polygon fill="#F1F1F1" points="468.4729,788.1709,587.0935,788.1709,599.0935,800.1709,587.0935,812.1709,468.4729,812.1709,456.4729,800.1709,468.4729,788.1709" style="stroke:#181818;stroke-width:0.5;"/><text fill="#000000" font-family="sans-serif" font-size="11" lengthAdjust="spacing" textLength="14.6738" x="531.7832" y="823.5898">tak</text><text fill="#000000" font-family="sans-serif" font-size="11" lengthAdjust="spacing" textLength="118.6206" x="468.4729" y="804.6719">Operacja zatwierdzona?</text><text fill="#000000" font-family="sans-serif" font-size="11" lengthAdjust="spacing" textLength="14.6792" x="599.0935" y="797.7539">nie</text><ellipse cx="635.7727" cy="800.1709" fill="none" rx="11" ry="11" style="stroke:#222222;stroke-width:1.0;"/><ellipse cx="635.7727" cy="800.1709" fill="#222222" rx="6" ry="6" style="stroke:#222222;stroke-width:1.0;"/><line style="stroke:#000000;stroke-width:1.5;" x1="421.0801" x2="421.0801" y1="51.0645" y2="979.4531"/><rect fill="#F1F1F1" height="35.0938" rx="12.5" ry="12.5" style="stroke:#181818;stroke-width:0.5;" width="166.0449" x="900.0481" y="345.5957"/><text fill="#000000" font-family="sans-serif" font-size="12" lengthAdjust="spacing" textLength="146.0449" x="910.0481" y="368.0527">Wy&#347;wietlenie listy karnet&#243;w</text><rect fill="#F1F1F1" height="35.0938" rx="12.5" ry="12.5" style="stroke:#181818;stroke-width:0.5;" width="263.4453" x="851.3479" y="455.7832"/><text fill="#000000" font-family="sans-serif" font-size="12" lengthAdjust="spacing" textLength="243.4453" x="861.3479" y="478.2402">Wy&#347;wietlenie opcji pasuj&#261;cych do wyszukania</text><polygon fill="#F1F1F1" points="983.0706,301.5957,995.0706,313.5957,983.0706,325.5957,971.0706,313.5957,983.0706,301.5957" style="stroke:#181818;stroke-width:0.5;"/><polygon fill="#F1F1F1" points="936.291,510.877,1029.8501,510.877,1041.8501,522.877,1029.8501,534.877,936.291,534.877,924.291,522.877,936.291,510.877" style="stroke:#181818;stroke-width:0.5;"/><text fill="#000000" font-family="sans-serif" font-size="11" lengthAdjust="spacing" textLength="14.6738" x="987.0706" y="546.2959">tak</text><text fill="#000000" font-family="sans-serif" font-size="11" lengthAdjust="spacing" textLength="93.5591" x="936.291" y="527.3779">Karnet znaleziony?</text><text fill="#000000" font-family="sans-serif" font-size="11" lengthAdjust="spacing" textLength="14.6792" x="1041.8501" y="520.46">nie</text><rect fill="#F1F1F1" height="35.0938" rx="12.5" ry="12.5" style="stroke:#181818;stroke-width:0.5;" width="216.084" x="875.0286" y="677.9834"/><text fill="#000000" font-family="sans-serif" font-size="12" lengthAdjust="spacing" textLength="196.084" x="885.0286" y="700.4404">Wy&#347;wietlenie okna z potwierdzeniem</text><rect fill="#F1F1F1" height="35.0938" rx="12.5" ry="12.5" style="stroke:#181818;stroke-width:0.5;" width="116.0527" x="925.0442" y="845.0898"/><text fill="#000000" font-family="sans-serif" font-size="12" lengthAdjust="spacing" textLength="96.0527" x="935.0442" y="867.5469">Usuni&#281;cie karnetu</text><rect fill="#F1F1F1" height="35.0938" rx="12.5" ry="12.5" style="stroke:#181818;stroke-width:0.5;" width="228.7813" x="868.6799" y="900.1836"/><text fill="#000000" font-family="sans-serif" font-size="12" lengthAdjust="spacing" textLength="208.7813" x="878.6799" y="922.6406">Wygenerowanie potwierdzenia operacji</text><path d="M655.7727,953.1016 L655.7727,979.4531 L952.0706,979.4531 L952.0706,963.1016 L942.0706,953.1016 L655.7727,953.1016 " fill="#FEFFDD" style="stroke:#181818;stroke-width:0.5;"/><path d="M942.0706,953.1016 L942.0706,963.1016 L952.0706,963.1016 L942.0706,953.1016 " fill="#FEFFDD" style="stroke:#181818;stroke-width:0.5;"/><text fill="#000000" font-family="sans-serif" font-size="13" lengthAdjust="spacing" textLength="275.2979" x="661.7727" y="971.5967">Karnet identyfikuj&#261;cy klienta usuni&#281;ty z systemu</text><ellipse cx="983.0706" cy="966.2773" fill="none" rx="11" ry="11" style="stroke:#222222;stroke-width:1.0;"/><ellipse cx="983.0706" cy="966.2773" fill="#222222" rx="6" ry="6" style="stroke:#222222;stroke-width:1.0;"/><line style="stroke:#000000;stroke-width:1.5;" x1="650.7727" x2="650.7727" y1="51.0645" y2="979.4531"/><line style="stroke:#000000;stroke-width:1.5;" x1="1145.7932" x2="1145.7932" y1="51.0645" y2="979.4531"/><line style="stroke:#181818;stroke-width:1.0;" x1="326.0361" x2="326.0361" y1="135.0566" y2="191.4082"/><polygon fill="#181818" points="322.0361,181.4082,326.0361,191.4082,330.0361,181.4082,326.0361,185.4082" style="stroke:#181818;stroke-width:1.0;"/><line style="stroke:#181818;stroke-width:1.0;" x1="527.7832" x2="527.7832" y1="602.8896" y2="622.8896"/><polygon fill="#181818" points="523.7832,612.8896,527.7832,622.8896,531.7832,612.8896,527.7832,616.8896" style="stroke:#181818;stroke-width:1.0;"/><line style="stroke:#181818;stroke-width:1.0;" x1="527.7832" x2="527.7832" y1="812.1709" y2="830.0898"/><line style="stroke:#181818;stroke-width:1.0;" x1="527.7832" x2="983.0706" y1="830.0898" y2="830.0898"/><line style="stroke:#181818;stroke-width:1.0;" x1="983.0706" x2="983.0706" y1="830.0898" y2="845.0898"/><polygon fill="#181818" points="979.0706,835.0898,983.0706,845.0898,987.0706,835.0898,983.0706,839.0898" style="stroke:#181818;stroke-width:1.0;"/><line style="stroke:#181818;stroke-width:1.0;" x1="599.0935" x2="624.7727" y1="800.1709" y2="800.1709"/><polygon fill="#181818" points="614.7727,796.1709,624.7727,800.1709,614.7727,804.1709,618.7727,800.1709" style="stroke:#181818;stroke-width:1.0;"/><line style="stroke:#181818;stroke-width:1.0;" x1="527.7832" x2="527.7832" y1="768.1709" y2="788.1709"/><polygon fill="#181818" points="523.7832,778.1709,527.7832,788.1709,531.7832,778.1709,527.7832,782.1709" style="stroke:#181818;stroke-width:1.0;"/><line style="stroke:#181818;stroke-width:1.0;" x1="983.0706" x2="983.0706" y1="325.5957" y2="345.5957"/><polygon fill="#181818" points="979.0706,335.5957,983.0706,345.5957,987.0706,335.5957,983.0706,339.5957" style="stroke:#181818;stroke-width:1.0;"/><line style="stroke:#181818;stroke-width:1.0;" x1="1041.8501" x2="1126.7932" y1="522.877" y2="522.877"/><polygon fill="#181818" points="1122.7932,428.2363,1126.7932,418.2363,1130.7932,428.2363,1126.7932,424.2363" style="stroke:#181818;stroke-width:1.0;"/><line style="stroke:#181818;stroke-width:1.0;" x1="1126.7932" x2="1126.7932" y1="313.5957" y2="522.877"/><line style="stroke:#181818;stroke-width:1.0;" x1="1126.7932" x2="995.0706" y1="313.5957" y2="313.5957"/><polygon fill="#181818" points="1005.0706,309.5957,995.0706,313.5957,1005.0706,317.5957,1001.0706,313.5957" style="stroke:#181818;stroke-width:1.0;"/><line style="stroke:#181818;stroke-width:1.0;" x1="983.0706" x2="983.0706" y1="490.877" y2="510.877"/><polygon fill="#181818" points="979.0706,500.877,983.0706,510.877,987.0706,500.877,983.0706,504.877" style="stroke:#181818;stroke-width:1.0;"/><line style="stroke:#181818;stroke-width:1.0;" x1="983.0706" x2="983.0706" y1="880.1836" y2="900.1836"/><polygon fill="#181818" points="979.0706,890.1836,983.0706,900.1836,987.0706,890.1836,983.0706,894.1836" style="stroke:#181818;stroke-width:1.0;"/><line style="stroke:#181818;stroke-width:1.0;" x1="983.0706" x2="983.0706" y1="935.2773" y2="955.2773"/><polygon fill="#181818" points="979.0706,945.2773,983.0706,955.2773,987.0706,945.2773,983.0706,949.2773" style="stroke:#181818;stroke-width:1.0;"/><line style="stroke:#181818;stroke-width:1.0;" x1="326.0361" x2="326.0361" y1="226.502" y2="231.502"/><line style="stroke:#181818;stroke-width:1.0;" x1="326.0361" x2="527.7832" y1="231.502" y2="231.502"/><line style="stroke:#181818;stroke-width:1.0;" x1="527.7832" x2="527.7832" y1="231.502" y2="246.502"/><polygon fill="#181818" points="523.7832,236.502,527.7832,246.502,531.7832,236.502,527.7832,240.502" style="stroke:#181818;stroke-width:1.0;"/><line style="stroke:#181818;stroke-width:1.0;" x1="983.0706" x2="983.0706" y1="380.6895" y2="385.6895"/><line style="stroke:#181818;stroke-width:1.0;" x1="983.0706" x2="527.7832" y1="385.6895" y2="385.6895"/><line style="stroke:#181818;stroke-width:1.0;" x1="527.7832" x2="527.7832" y1="385.6895" y2="400.6895"/><polygon fill="#181818" points="523.7832,390.6895,527.7832,400.6895,531.7832,390.6895,527.7832,394.6895" style="stroke:#181818;stroke-width:1.0;"/><line style="stroke:#181818;stroke-width:1.0;" x1="527.7832" x2="527.7832" y1="435.7832" y2="440.7832"/><line style="stroke:#181818;stroke-width:1.0;" x1="527.7832" x2="983.0706" y1="440.7832" y2="440.7832"/><line style="stroke:#181818;stroke-width:1.0;" x1="983.0706" x2="983.0706" y1="440.7832" y2="455.7832"/><polygon fill="#181818" points="979.0706,445.7832,983.0706,455.7832,987.0706,445.7832,983.0706,449.7832" style="stroke:#181818;stroke-width:1.0;"/><line style="stroke:#181818;stroke-width:1.0;" x1="527.7832" x2="527.7832" y1="281.5957" y2="286.5957"/><line style="stroke:#181818;stroke-width:1.0;" x1="527.7832" x2="983.0706" y1="286.5957" y2="286.5957"/><line style="stroke:#181818;stroke-width:1.0;" x1="983.0706" x2="983.0706" y1="286.5957" y2="301.5957"/><polygon fill="#181818" points="979.0706,291.5957,983.0706,301.5957,987.0706,291.5957,983.0706,295.5957" style="stroke:#181818;stroke-width:1.0;"/><line style="stroke:#181818;stroke-width:1.0;" x1="983.0706" x2="983.0706" y1="534.877" y2="552.377"/><line style="stroke:#181818;stroke-width:1.0;" x1="983.0706" x2="527.7832" y1="552.377" y2="552.377"/><line style="stroke:#181818;stroke-width:1.0;" x1="527.7832" x2="527.7832" y1="552.377" y2="567.7959"/><polygon fill="#181818" points="523.7832,557.7959,527.7832,567.7959,531.7832,557.7959,527.7832,561.7959" style="stroke:#181818;stroke-width:1.0;"/><line style="stroke:#181818;stroke-width:1.0;" x1="527.7832" x2="527.7832" y1="657.9834" y2="662.9834"/><line style="stroke:#181818;stroke-width:1.0;" x1="527.7832" x2="983.0706" y1="662.9834" y2="662.9834"/><line style="stroke:#181818;stroke-width:1.0;" x1="983.0706" x2="983.0706" y1="662.9834" y2="677.9834"/><polygon fill="#181818" points="979.0706,667.9834,983.0706,677.9834,987.0706,667.9834,983.0706,671.9834" style="stroke:#181818;stroke-width:1.0;"/><line style="stroke:#181818;stroke-width:1.0;" x1="983.0706" x2="983.0706" y1="713.0771" y2="718.0771"/><line style="stroke:#181818;stroke-width:1.0;" x1="983.0706" x2="527.7832" y1="718.0771" y2="718.0771"/><line style="stroke:#181818;stroke-width:1.0;" x1="527.7832" x2="527.7832" y1="718.0771" y2="733.0771"/><polygon fill="#181818" points="523.7832,723.0771,527.7832,733.0771,531.7832,723.0771,527.7832,727.0771" style="stroke:#181818;stroke-width:1.0;"/><text fill="#000000" font-family="sans-serif" font-size="18" lengthAdjust="spacing" textLength="42.0205" x="199.5303" y="69.75">klient</text><text fill="#000000" font-family="sans-serif" font-size="18" lengthAdjust="spacing" textLength="81.0352" x="497.9093" y="69.75">pracownik</text><text fill="#000000" font-family="sans-serif" font-size="18" lengthAdjust="spacing" textLength="57.0059" x="872.2805" y="69.75">system</text><!--SRC=[VL91Rjim4Bpp5GkTx2_OXpuW2184A0BqjfPMzeeoAP0K20ewjkWRWZmZJuZzhomZEdM3j4UjXhCpinCuz0JL0qrfRx3k42RGw0o5iL9grZFedia4DGyp30vh6mrhDViPVFA1ZkyWvGEweDhUOc2p1sC3GKzjsC3jw1dO1yDq-bseWHkXJ2thiJlzgbFPWLyIt5-MmZ5JxPBGJDZRlOre4iIYWqbjxfqzF-yGBBYBdzFJ7qDRbLsepMFQlRuui4FTCLIFwVmScK9VOAdAE3yhHmDXoF028F40lNX91Vhw4Zyu1_QO_pSYgZv0Oo4cFusQ8phDXV8Jrw9WGB_4SFrCk71R940yi1nfTRE4DndiQM9hqhUr90iheLhdn60LKA__DbciImYBy9WaIHkfstxEuRiVppyBllg7NcroFmORPEQQAG-FbmH-uDLKI4dkrcNZtCBgRlcKrnUKDIZomu5CaKszfyMBjCaEYap3RP4XsWoVdceX_hYbQDkJ8PTh8FDhKNYz_ftigsBT_BUBC2ux9REfL6nKRm00]--></g></svg>