<svg xmlns="http://www.w3.org/2000/svg" xmlns:xlink="http://www.w3.org/1999/xlink" contentStyleType="text/css" data-diagram-type="SEQUENCE" height="506px" preserveAspectRatio="none" style="width:691px;height:506px;background:#FFFFFF;" version="1.1" viewBox="0 0 691 506" width="691px" zoomAndPan="magnify"><defs/><g><rect fill="transparent" height="158.0703" style="stroke:#000000;stroke-width:1.5;" width="543.3213" x="10" y="251.0938"/><g><title>Client</title><rect fill="transparent" height="344.8672" width="8" x="39.2651" y="81.2969"/><line style="stroke:#181818;stroke-width:0.5;stroke-dasharray:5.0,5.0;" x1="43" x2="43" y1="81.2969" y2="426.1641"/></g><g><title>GUI</title><rect fill="transparent" height="344.8672" width="8" x="190.7578" y="81.2969"/><line style="stroke:#181818;stroke-width:0.5;stroke-dasharray:5.0,5.0;" x1="194.1455" x2="194.1455" y1="81.2969" y2="426.1641"/></g><g><title>TrainingSession</title><rect fill="transparent" height="344.8672" width="8" x="342.2505" y="81.2969"/><line style="stroke:#181818;stroke-width:0.5;stroke-dasharray:5.0,5.0;" x1="345.8931" x2="345.8931" y1="81.2969" y2="426.1641"/></g><g><title>Client</title><rect fill="transparent" height="344.8672" width="8" x="512.0562" y="81.2969"/><line style="stroke:#181818;stroke-width:0.5;stroke-dasharray:5.0,5.0;" x1="515.791" x2="515.791" y1="81.2969" y2="426.1641"/></g><text fill="#000000" font-family="sans-serif" font-size="14" lengthAdjust="spacing" textLength="40.5303" x="20" y="77.9951">Client</text><ellipse cx="43.2651" cy="13.5" fill="#E2E2F0" rx="8" ry="8" style="stroke:#181818;stroke-width:0.5;"/><path d="M43.2651,21.5 L43.2651,48.5 M30.2651,29.5 L56.2651,29.5 M43.2651,48.5 L30.2651,63.5 M43.2651,48.5 L56.2651,63.5 " fill="transparent" style="stroke:#181818;stroke-width:0.5;"/><text fill="#000000" font-family="sans-serif" font-size="14" lengthAdjust="spacing" textLength="40.5303" x="20" y="438.1592">Client</text><ellipse cx="43.2651" cy="449.9609" fill="#E2E2F0" rx="8" ry="8" style="stroke:#181818;stroke-width:0.5;"/><path d="M43.2651,457.9609 L43.2651,484.9609 M30.2651,465.9609 L56.2651,465.9609 M43.2651,484.9609 L30.2651,499.9609 M43.2651,484.9609 L56.2651,499.9609 " fill="transparent" style="stroke:#181818;stroke-width:0.5;"/><rect fill="#E2E2F0" height="30.2969" rx="2.5" ry="2.5" style="stroke:#181818;stroke-width:0.5;" width="39.2246" x="175.1455" y="50"/><text fill="#000000" font-family="sans-serif" font-size="14" lengthAdjust="spacing" textLength="25.2246" x="182.1455" y="69.9951">GUI</text><rect fill="#E2E2F0" height="30.2969" rx="2.5" ry="2.5" style="stroke:#181818;stroke-width:0.5;" width="39.2246" x="175.1455" y="425.1641"/><text fill="#000000" font-family="sans-serif" font-size="14" lengthAdjust="spacing" textLength="25.2246" x="182.1455" y="445.1592">GUI</text><rect fill="#E2E2F0" height="30.2969" rx="2.5" ry="2.5" style="stroke:#181818;stroke-width:0.5;" width="124.7148" x="283.8931" y="50"/><text fill="#000000" font-family="sans-serif" font-size="14" lengthAdjust="spacing" textLength="110.7148" x="290.8931" y="69.9951">TrainingSession</text><rect fill="#E2E2F0" height="30.2969" rx="2.5" ry="2.5" style="stroke:#181818;stroke-width:0.5;" width="124.7148" x="283.8931" y="425.1641"/><text fill="#000000" font-family="sans-serif" font-size="14" lengthAdjust="spacing" textLength="110.7148" x="290.8931" y="445.1592">TrainingSession</text><rect fill="#E2E2F0" height="30.2969" rx="2.5" ry="2.5" style="stroke:#181818;stroke-width:0.5;" width="54.5303" x="488.791" y="50"/><text fill="#000000" font-family="sans-serif" font-size="14" lengthAdjust="spacing" textLength="40.5303" x="495.791" y="69.9951">Client</text><rect fill="#E2E2F0" height="30.2969" rx="2.5" ry="2.5" style="stroke:#181818;stroke-width:0.5;" width="54.5303" x="488.791" y="425.1641"/><text fill="#000000" font-family="sans-serif" font-size="14" lengthAdjust="spacing" textLength="40.5303" x="495.791" y="445.1592">Client</text><path d="M521,96.2969 L521,151.2969 L684,151.2969 L684,106.2969 L674,96.2969 L521,96.2969 " fill="#FEFFDD" style="stroke:#181818;stroke-width:0.5;"/><path d="M674,96.2969 L674,106.2969 L684,106.2969 L674,96.2969 " fill="#FEFFDD" style="stroke:#181818;stroke-width:0.5;"/><text fill="#000000" font-family="sans-serif" font-size="13" lengthAdjust="spacing" textLength="113.9785" x="527" y="113.3638">Client class is not</text><text fill="#000000" font-family="sans-serif" font-size="13" lengthAdjust="spacing" textLength="142.7334" x="527" y="128.4966">the not same thing as</text><text fill="#000000" font-family="sans-serif" font-size="13" lengthAdjust="spacing" textLength="81.415" x="527" y="143.6294">Client Actor!</text><polygon fill="#181818" points="182.7578,173.8281,192.7578,177.8281,182.7578,181.8281,186.7578,177.8281" style="stroke:#181818;stroke-width:1;"/><line style="stroke:#181818;stroke-width:1;" x1="43.2651" x2="188.7578" y1="177.8281" y2="177.8281"/><text fill="#000000" font-family="sans-serif" font-size="13" lengthAdjust="spacing" textLength="127.4927" x="50.2651" y="172.7622">signupForTraining()</text><polygon fill="#181818" points="334.2505,202.9609,344.2505,206.9609,334.2505,210.9609,338.2505,206.9609" style="stroke:#181818;stroke-width:1;"/><line style="stroke:#181818;stroke-width:1;" x1="194.7578" x2="340.2505" y1="206.9609" y2="206.9609"/><text fill="#000000" font-family="sans-serif" font-size="13" lengthAdjust="spacing" textLength="127.4927" x="201.7578" y="201.895">signupForTraining()</text><polygon fill="#181818" points="504.0562,232.0938,514.0562,236.0938,504.0562,240.0938,508.0562,236.0938" style="stroke:#181818;stroke-width:1;"/><line style="stroke:#181818;stroke-width:1;" x1="346.2505" x2="510.0562" y1="236.0938" y2="236.0938"/><text fill="#000000" font-family="sans-serif" font-size="13" lengthAdjust="spacing" textLength="145.8057" x="353.2505" y="231.0278">hasValidMembership()</text><path d="M10,251.0938 L74.4429,251.0938 L74.4429,258.2266 L64.4429,268.2266 L10,268.2266 L10,251.0938 " fill="#EEEEEE" style="stroke:#000000;stroke-width:1.5;"/><rect fill="transparent" height="158.0703" style="stroke:#000000;stroke-width:1.5;" width="543.3213" x="10" y="251.0938"/><text fill="#000000" font-family="sans-serif" font-size="13" font-weight="bold" lengthAdjust="spacing" textLength="19.4429" x="25" y="264.1606">alt</text><text fill="#000000" font-family="sans-serif" font-size="11" font-weight="bold" lengthAdjust="spacing" textLength="146.6899" x="89.4429" y="263.3042">[has valid membership]</text><polygon fill="#181818" points="357.2505,270.2266,347.2505,274.2266,357.2505,278.2266,353.2505,274.2266" style="stroke:#181818;stroke-width:1;"/><line style="stroke:#181818;stroke-width:1;stroke-dasharray:2.0,2.0;" x1="351.2505" x2="515.0562" y1="274.2266" y2="274.2266"/><line style="stroke:#181818;stroke-width:1;" x1="346.2505" x2="388.2505" y1="303.3594" y2="303.3594"/><line style="stroke:#181818;stroke-width:1;" x1="388.2505" x2="388.2505" y1="303.3594" y2="316.3594"/><line style="stroke:#181818;stroke-width:1;" x1="347.2505" x2="388.2505" y1="316.3594" y2="316.3594"/><polygon fill="#181818" points="357.2505,312.3594,347.2505,316.3594,357.2505,320.3594,353.2505,316.3594" style="stroke:#181818;stroke-width:1;"/><text fill="#000000" font-family="sans-serif" font-size="13" lengthAdjust="spacing" textLength="140.6641" x="353.2505" y="298.2935">Add to attendants list</text><polygon fill="#181818" points="205.7578,326.3594,195.7578,330.3594,205.7578,334.3594,201.7578,330.3594" style="stroke:#181818;stroke-width:1;"/><line style="stroke:#181818;stroke-width:1;stroke-dasharray:2.0,2.0;" x1="199.7578" x2="345.2505" y1="330.3594" y2="330.3594"/><polygon fill="#181818" points="54.2651,340.3594,44.2651,344.3594,54.2651,348.3594,50.2651,344.3594" style="stroke:#181818;stroke-width:1;"/><line style="stroke:#181818;stroke-width:1;stroke-dasharray:2.0,2.0;" x1="48.2651" x2="193.7578" y1="344.3594" y2="344.3594"/><line style="stroke:#000000;stroke-width:1;stroke-dasharray:2.0,2.0;" x1="10" x2="553.3213" y1="353.3594" y2="353.3594"/><text fill="#000000" font-family="sans-serif" font-size="11" font-weight="bold" lengthAdjust="spacing" textLength="178.6802" x="15" y="363.5698">[does not have membership]</text><polygon fill="#181818" points="357.2505,369.1641,347.2505,373.1641,357.2505,377.1641,353.2505,373.1641" style="stroke:#181818;stroke-width:1;"/><line style="stroke:#181818;stroke-width:1;stroke-dasharray:2.0,2.0;" x1="351.2505" x2="515.0562" y1="373.1641" y2="373.1641"/><polygon fill="#181818" points="205.7578,383.1641,195.7578,387.1641,205.7578,391.1641,201.7578,387.1641" style="stroke:#181818;stroke-width:1;"/><line style="stroke:#181818;stroke-width:1;stroke-dasharray:2.0,2.0;" x1="199.7578" x2="345.2505" y1="387.1641" y2="387.1641"/><polygon fill="#181818" points="54.2651,397.1641,44.2651,401.1641,54.2651,405.1641,50.2651,401.1641" style="stroke:#181818;stroke-width:1;"/><line style="stroke:#181818;stroke-width:1;stroke-dasharray:2.0,2.0;" x1="48.2651" x2="193.7578" y1="401.1641" y2="401.1641"/><!--SRC=[ZP31JiCm38RlVWfp6uUzm0v84nA80oS6TzEOrbAQLB7PyyzfksdhAaHESVxV-J-R6ii5dwDmCYITRmG35PD61lBdry-tc_fGI9AazeDL9QSRRVaJGCh6MAJj3FFF-HNzpDOcaYgAeXjn5ApZiL3gsGjFyl-kM_OL-W4uXUfZ09YnSVjKQNUeqgRVuIMNC-lc4Loe-e9-tRimrRufOeSTwHT52U_SVtFHJWRt0qMh2XwhXFr5kyRUtgTF0w-atL7kGq3BI6O-jczQCOhQUlkqXL4RXxxG4t1Knf1vMdT7H_u_x5zXk9wM0fm0]--></g></svg>