<svg xmlns="http://www.w3.org/2000/svg" xmlns:xlink="http://www.w3.org/1999/xlink" contentStyleType="text/css" data-diagram-type="SEQUENCE" height="507px" preserveAspectRatio="none" style="width:691px;height:507px;background:#FFFFFF;" version="1.1" viewBox="0 0 691 507" width="691px" zoomAndPan="magnify"><defs/><g><rect fill="transparent" height="159.0703" style="stroke:#000000;stroke-width:1.5;" width="626.1221" x="10" y="251.0938"/><g><title>Client</title><rect fill="transparent" height="345.8672" width="8" x="39.2651" y="81.2969"/><line style="stroke:#181818;stroke-width:0.5;stroke-dasharray:5.0,5.0;" x1="43" x2="43" y1="81.2969" y2="427.1641"/></g><g><title>GUI</title><rect fill="transparent" height="345.8672" width="8" x="190.7578" y="81.2969"/><line style="stroke:#181818;stroke-width:0.5;stroke-dasharray:5.0,5.0;" x1="194.1455" x2="194.1455" y1="81.2969" y2="427.1641"/></g><g><title>TrainingSession</title><rect fill="transparent" height="345.8672" width="8" x="342.2505" y="81.2969"/><line style="stroke:#181818;stroke-width:0.5;stroke-dasharray:5.0,5.0;" x1="345.8931" x2="345.8931" y1="81.2969" y2="427.1641"/></g><g><title>Client</title><rect fill="transparent" height="345.8672" width="8" x="512.0562" y="81.2969"/><line style="stroke:#181818;stroke-width:0.5;stroke-dasharray:5.0,5.0;" x1="515.791" x2="515.791" y1="81.2969" y2="427.1641"/></g><g><title>Database</title><rect fill="transparent" height="345.8672" width="8" x="585.7217" y="81.2969"/><line style="stroke:#181818;stroke-width:0.5;stroke-dasharray:5.0,5.0;" x1="589.3213" x2="589.3213" y1="81.2969" y2="427.1641"/></g><text fill="#000000" font-family="sans-serif" font-size="14" lengthAdjust="spacing" textLength="40.5303" x="20" y="77.9951">Client</text><ellipse cx="43.2651" cy="13.5" fill="#E2E2F0" rx="8" ry="8" style="stroke:#181818;stroke-width:0.5;"/><path d="M43.2651,21.5 L43.2651,48.5 M30.2651,29.5 L56.2651,29.5 M43.2651,48.5 L30.2651,63.5 M43.2651,48.5 L56.2651,63.5 " fill="transparent" style="stroke:#181818;stroke-width:0.5;"/><text fill="#000000" font-family="sans-serif" font-size="14" lengthAdjust="spacing" textLength="40.5303" x="20" y="439.1592">Client</text><ellipse cx="43.2651" cy="450.9609" fill="#E2E2F0" rx="8" ry="8" style="stroke:#181818;stroke-width:0.5;"/><path d="M43.2651,458.9609 L43.2651,485.9609 M30.2651,466.9609 L56.2651,466.9609 M43.2651,485.9609 L30.2651,500.9609 M43.2651,485.9609 L56.2651,500.9609 " fill="transparent" style="stroke:#181818;stroke-width:0.5;"/><rect fill="#E2E2F0" height="30.2969" rx="2.5" ry="2.5" style="stroke:#181818;stroke-width:0.5;" width="39.2246" x="175.1455" y="50"/><text fill="#000000" font-family="sans-serif" font-size="14" lengthAdjust="spacing" textLength="25.2246" x="182.1455" y="69.9951">GUI</text><rect fill="#E2E2F0" height="30.2969" rx="2.5" ry="2.5" style="stroke:#181818;stroke-width:0.5;" width="39.2246" x="175.1455" y="426.1641"/><text fill="#000000" font-family="sans-serif" font-size="14" lengthAdjust="spacing" textLength="25.2246" x="182.1455" y="446.1592">GUI</text><rect fill="#E2E2F0" height="30.2969" rx="2.5" ry="2.5" style="stroke:#181818;stroke-width:0.5;" width="124.7148" x="283.8931" y="50"/><text fill="#000000" font-family="sans-serif" font-size="14" lengthAdjust="spacing" textLength="110.7148" x="290.8931" y="69.9951">TrainingSession</text><rect fill="#E2E2F0" height="30.2969" rx="2.5" ry="2.5" style="stroke:#181818;stroke-width:0.5;" width="124.7148" x="283.8931" y="426.1641"/><text fill="#000000" font-family="sans-serif" font-size="14" lengthAdjust="spacing" textLength="110.7148" x="290.8931" y="446.1592">TrainingSession</text><rect fill="#E2E2F0" height="30.2969" rx="2.5" ry="2.5" style="stroke:#181818;stroke-width:0.5;" width="54.5303" x="488.791" y="50"/><text fill="#000000" font-family="sans-serif" font-size="14" lengthAdjust="spacing" textLength="40.5303" x="495.791" y="69.9951">Client</text><rect fill="#E2E2F0" height="30.2969" rx="2.5" ry="2.5" style="stroke:#181818;stroke-width:0.5;" width="54.5303" x="488.791" y="426.1641"/><text fill="#000000" font-family="sans-serif" font-size="14" lengthAdjust="spacing" textLength="40.5303" x="495.791" y="446.1592">Client</text><text fill="#000000" font-family="sans-serif" font-size="14" lengthAdjust="spacing" textLength="66.8008" x="553.3213" y="77.9951">Database</text><path d="M571.7217,29 C571.7217,19 589.7217,19 589.7217,19 C589.7217,19 607.7217,19 607.7217,29 L607.7217,55 C607.7217,65 589.7217,65 589.7217,65 C589.7217,65 571.7217,65 571.7217,55 L571.7217,29 " fill="#E2E2F0" style="stroke:#181818;stroke-width:1.5;"/><path d="M571.7217,29 C571.7217,39 589.7217,39 589.7217,39 C589.7217,39 607.7217,39 607.7217,29 " fill="transparent" style="stroke:#181818;stroke-width:1.5;"/><text fill="#000000" font-family="sans-serif" font-size="14" lengthAdjust="spacing" textLength="66.8008" x="553.3213" y="439.1592">Database</text><path d="M571.7217,452.4609 C571.7217,442.4609 589.7217,442.4609 589.7217,442.4609 C589.7217,442.4609 607.7217,442.4609 607.7217,452.4609 L607.7217,478.4609 C607.7217,488.4609 589.7217,488.4609 589.7217,488.4609 C589.7217,488.4609 571.7217,488.4609 571.7217,478.4609 L571.7217,452.4609 " fill="#E2E2F0" style="stroke:#181818;stroke-width:1.5;"/><path d="M571.7217,452.4609 C571.7217,462.4609 589.7217,462.4609 589.7217,462.4609 C589.7217,462.4609 607.7217,462.4609 607.7217,452.4609 " fill="transparent" style="stroke:#181818;stroke-width:1.5;"/><path d="M521,96.2969 L521,151.2969 L684,151.2969 L684,106.2969 L674,96.2969 L521,96.2969 " fill="#FEFFDD" style="stroke:#181818;stroke-width:0.5;"/><path d="M674,96.2969 L674,106.2969 L684,106.2969 L674,96.2969 " fill="#FEFFDD" style="stroke:#181818;stroke-width:0.5;"/><text fill="#000000" font-family="sans-serif" font-size="13" lengthAdjust="spacing" textLength="113.9785" x="527" y="113.3638">Client class is not</text><text fill="#000000" font-family="sans-serif" font-size="13" lengthAdjust="spacing" textLength="142.7334" x="527" y="128.4966">the not same thing as</text><text fill="#000000" font-family="sans-serif" font-size="13" lengthAdjust="spacing" textLength="81.415" x="527" y="143.6294">Client Actor!</text><polygon fill="#181818" points="182.7578,173.8281,192.7578,177.8281,182.7578,181.8281,186.7578,177.8281" style="stroke:#181818;stroke-width:1;"/><line style="stroke:#181818;stroke-width:1;" x1="43.2651" x2="188.7578" y1="177.8281" y2="177.8281"/><text fill="#000000" font-family="sans-serif" font-size="13" lengthAdjust="spacing" textLength="127.4927" x="50.2651" y="172.7622">signupForTraining()</text><polygon fill="#181818" points="334.2505,202.9609,344.2505,206.9609,334.2505,210.9609,338.2505,206.9609" style="stroke:#181818;stroke-width:1;"/><line style="stroke:#181818;stroke-width:1;" x1="194.7578" x2="340.2505" y1="206.9609" y2="206.9609"/><text fill="#000000" font-family="sans-serif" font-size="13" lengthAdjust="spacing" textLength="127.4927" x="201.7578" y="201.895">signupForTraining()</text><polygon fill="#181818" points="504.0562,232.0938,514.0562,236.0938,504.0562,240.0938,508.0562,236.0938" style="stroke:#181818;stroke-width:1;"/><line style="stroke:#181818;stroke-width:1;" x1="346.2505" x2="510.0562" y1="236.0938" y2="236.0938"/><text fill="#000000" font-family="sans-serif" font-size="13" lengthAdjust="spacing" textLength="145.8057" x="353.2505" y="231.0278">hasValidMembership()</text><path d="M10,251.0938 L74.4429,251.0938 L74.4429,258.2266 L64.4429,268.2266 L10,268.2266 L10,251.0938 " fill="#EEEEEE" style="stroke:#000000;stroke-width:1.5;"/><rect fill="transparent" height="159.0703" style="stroke:#000000;stroke-width:1.5;" width="626.1221" x="10" y="251.0938"/><text fill="#000000" font-family="sans-serif" font-size="13" font-weight="bold" lengthAdjust="spacing" textLength="19.4429" x="25" y="264.1606">alt</text><text fill="#000000" font-family="sans-serif" font-size="11" font-weight="bold" lengthAdjust="spacing" textLength="146.6899" x="89.4429" y="263.3042">[has valid membership]</text><polygon fill="#181818" points="357.2505,270.2266,347.2505,274.2266,357.2505,278.2266,353.2505,274.2266" style="stroke:#181818;stroke-width:1;"/><line style="stroke:#181818;stroke-width:1;stroke-dasharray:2.0,2.0;" x1="351.2505" x2="515.0562" y1="274.2266" y2="274.2266"/><polygon fill="#181818" points="577.7217,299.3594,587.7217,303.3594,577.7217,307.3594,581.7217,303.3594" style="stroke:#181818;stroke-width:1;"/><line style="stroke:#181818;stroke-width:1;" x1="346.2505" x2="583.7217" y1="303.3594" y2="303.3594"/><text fill="#000000" font-family="sans-serif" font-size="13" lengthAdjust="spacing" textLength="47.6709" x="353.2505" y="298.2935">query()</text><polygon fill="#181818" points="357.2505,313.3594,347.2505,317.3594,357.2505,321.3594,353.2505,317.3594" style="stroke:#181818;stroke-width:1;"/><line style="stroke:#181818;stroke-width:1;stroke-dasharray:2.0,2.0;" x1="351.2505" x2="588.7217" y1="317.3594" y2="317.3594"/><polygon fill="#181818" points="205.7578,327.3594,195.7578,331.3594,205.7578,335.3594,201.7578,331.3594" style="stroke:#181818;stroke-width:1;"/><line style="stroke:#181818;stroke-width:1;stroke-dasharray:2.0,2.0;" x1="199.7578" x2="345.2505" y1="331.3594" y2="331.3594"/><polygon fill="#181818" points="54.2651,341.3594,44.2651,345.3594,54.2651,349.3594,50.2651,345.3594" style="stroke:#181818;stroke-width:1;"/><line style="stroke:#181818;stroke-width:1;stroke-dasharray:2.0,2.0;" x1="48.2651" x2="193.7578" y1="345.3594" y2="345.3594"/><line style="stroke:#000000;stroke-width:1;stroke-dasharray:2.0,2.0;" x1="10" x2="636.1221" y1="354.3594" y2="354.3594"/><text fill="#000000" font-family="sans-serif" font-size="11" font-weight="bold" lengthAdjust="spacing" textLength="178.6802" x="15" y="364.5698">[does not have membership]</text><polygon fill="#181818" points="357.2505,370.1641,347.2505,374.1641,357.2505,378.1641,353.2505,374.1641" style="stroke:#181818;stroke-width:1;"/><line style="stroke:#181818;stroke-width:1;stroke-dasharray:2.0,2.0;" x1="351.2505" x2="515.0562" y1="374.1641" y2="374.1641"/><polygon fill="#181818" points="205.7578,384.1641,195.7578,388.1641,205.7578,392.1641,201.7578,388.1641" style="stroke:#181818;stroke-width:1;"/><line style="stroke:#181818;stroke-width:1;stroke-dasharray:2.0,2.0;" x1="199.7578" x2="345.2505" y1="388.1641" y2="388.1641"/><polygon fill="#181818" points="54.2651,398.1641,44.2651,402.1641,54.2651,406.1641,50.2651,402.1641" style="stroke:#181818;stroke-width:1;"/><line style="stroke:#181818;stroke-width:1;stroke-dasharray:2.0,2.0;" x1="48.2651" x2="193.7578" y1="402.1641" y2="402.1641"/><!--SRC=[ZP5DJiGm38NtFeNPmM8kq0KI0e5Oi8APlTkOrbARb3Wp4hV7wSzefaI8hk9yptv-AJKfH7piXNr2qkL4C59CqiX8TlsoVxsgFoA95z- -iwe4VyMsay1HefgKyMaz67CrW0-9CKhR9GoVgnhjMqOqFQcYA9eG9v0wdWgbWQsm3MpMPSj33dC3x5tMCG0iSN1tdrDKgDBwu_WSufhXzWuCPBv9LTPkHBbljgYm8prGB-wDXvgZTZAQ7gXFcU0f8npEx7BjtM_tEN31pTKLVXqvVjlmB75rgRtSFJ_2nARCv-K9kBSVumBFhztHYV-_wrzcM7Rp3du0]--></g></svg>