<svg xmlns="http://www.w3.org/2000/svg" xmlns:xlink="http://www.w3.org/1999/xlink" contentStyleType="text/css" data-diagram-type="CLASS" height="359px" preserveAspectRatio="none" style="width:1229px;height:359px;background:#FFFFFF;" version="1.1" viewBox="0 0 1229 359" width="1229px" zoomAndPan="magnify"><defs/><g><!--class ExerciseDifficulty--><g id="elem_ExerciseDifficulty"><rect codeLine="1" fill="#F1F1F1" height="96.8906" id="ExerciseDifficulty" rx="2.5" ry="2.5" style="stroke:#181818;stroke-width:0.5;" width="153.6455" x="366.1" y="7"/><ellipse cx="381.1" cy="23" fill="#EB937F" rx="11" ry="11" style="stroke:#181818;stroke-width:1;"/><path d="M385.2094,29 L377.4906,29 L377.4906,16.6094 L385.2094,16.6094 L385.2094,18.7656 L379.9438,18.7656 L379.9438,21.4375 L384.7094,21.4375 L384.7094,23.5938 L379.9438,23.5938 L379.9438,26.8438 L385.2094,26.8438 L385.2094,29 Z " fill="#000000"/><text fill="#000000" font-family="sans-serif" font-size="14" lengthAdjust="spacing" textLength="121.6455" x="395.1" y="27.8467">ExerciseDifficulty</text><line style="stroke:#181818;stroke-width:0.5;" x1="367.1" x2="518.7455" y1="39" y2="39"/><text fill="#000000" font-family="sans-serif" font-size="14" lengthAdjust="spacing" textLength="35.8613" x="372.1" y="55.9951">EASY</text><text fill="#000000" font-family="sans-serif" font-size="14" lengthAdjust="spacing" textLength="58.1602" x="372.1" y="72.292">MEDIUM</text><text fill="#000000" font-family="sans-serif" font-size="14" lengthAdjust="spacing" textLength="40.6123" x="372.1" y="88.5889">HARD</text><line style="stroke:#181818;stroke-width:0.5;" x1="367.1" x2="518.7455" y1="95.8906" y2="95.8906"/></g><!--class TrainingDifficultyStrategy--><g id="elem_TrainingDifficultyStrategy"><rect codeLine="7" fill="#F1F1F1" height="64.2969" id="TrainingDifficultyStrategy" rx="2.5" ry="2.5" style="stroke:#181818;stroke-width:0.5;" width="381.8447" x="424" y="163.89"/><ellipse cx="520.7046" cy="179.89" fill="#B4A7E5" rx="11" ry="11" style="stroke:#181818;stroke-width:1;"/><path d="M516.6265,175.6556 L516.6265,173.4994 L524.0171,173.4994 L524.0171,175.6556 L521.5483,175.6556 L521.5483,183.7338 L524.0171,183.7338 L524.0171,185.89 L516.6265,185.89 L516.6265,183.7338 L519.0952,183.7338 L519.0952,175.6556 L516.6265,175.6556 Z " fill="#000000"/><text fill="#000000" font-family="sans-serif" font-size="14" font-style="italic" lengthAdjust="spacing" textLength="179.9355" x="541.2046" y="184.7367">TrainingDifficultyStrategy</text><line style="stroke:#181818;stroke-width:0.5;" x1="425" x2="804.8447" y1="195.89" y2="195.89"/><line style="stroke:#181818;stroke-width:0.5;" x1="425" x2="804.8447" y1="203.89" y2="203.89"/><ellipse cx="435" cy="217.5384" fill="#84BE84" rx="3" ry="3" style="stroke:#038048;stroke-width:1;"/><text fill="#000000" font-family="sans-serif" font-size="14" lengthAdjust="spacing" textLength="355.8447" x="444" y="220.8851">calculateDifficulty(client: Client): ExerciseDifficulty</text></g><!--class BeginnerStrategy--><g id="elem_BeginnerStrategy"><rect codeLine="11" fill="#F1F1F1" height="64.2969" id="BeginnerStrategy" rx="2.5" ry="2.5" style="stroke:#181818;stroke-width:0.5;" width="381.8447" x="7" y="288.18"/><ellipse cx="132.125" cy="304.18" fill="#ADD1B2" rx="11" ry="11" style="stroke:#181818;stroke-width:1;"/><path d="M135.0938,309.8206 Q134.5156,310.1175 133.875,310.2581 Q133.2344,310.4144 132.5313,310.4144 Q130.0313,310.4144 128.7031,308.7738 Q127.3906,307.1175 127.3906,303.9925 Q127.3906,300.8675 128.7031,299.2113 Q130.0313,297.555 132.5313,297.555 Q133.2344,297.555 133.875,297.7113 Q134.5313,297.8675 135.0938,298.1644 L135.0938,300.8831 Q134.4688,300.305 133.875,300.0394 Q133.2813,299.7581 132.6563,299.7581 Q131.3125,299.7581 130.625,300.8363 Q129.9375,301.8988 129.9375,303.9925 Q129.9375,306.0863 130.625,307.1644 Q131.3125,308.2269 132.6563,308.2269 Q133.2813,308.2269 133.875,307.9613 Q134.4688,307.68 135.0938,307.1019 L135.0938,309.8206 Z " fill="#000000"/><text fill="#000000" font-family="sans-serif" font-size="14" lengthAdjust="spacing" textLength="123.0947" x="152.625" y="309.0267">BeginnerStrategy</text><line style="stroke:#181818;stroke-width:0.5;" x1="8" x2="387.8447" y1="320.18" y2="320.18"/><line style="stroke:#181818;stroke-width:0.5;" x1="8" x2="387.8447" y1="328.18" y2="328.18"/><ellipse cx="18" cy="341.8284" fill="#84BE84" rx="3" ry="3" style="stroke:#038048;stroke-width:1;"/><text fill="#000000" font-family="sans-serif" font-size="14" lengthAdjust="spacing" textLength="355.8447" x="27" y="345.1751">calculateDifficulty(client: Client): ExerciseDifficulty</text></g><!--class AdvancedStrategy--><g id="elem_AdvancedStrategy"><rect codeLine="15" fill="#F1F1F1" height="64.2969" id="AdvancedStrategy" rx="2.5" ry="2.5" style="stroke:#181818;stroke-width:0.5;" width="381.8447" x="424" y="288.18"/><ellipse cx="545.9805" cy="304.18" fill="#ADD1B2" rx="11" ry="11" style="stroke:#181818;stroke-width:1;"/><path d="M548.9492,309.8206 Q548.3711,310.1175 547.7305,310.2581 Q547.0898,310.4144 546.3867,310.4144 Q543.8867,310.4144 542.5586,308.7738 Q541.2461,307.1175 541.2461,303.9925 Q541.2461,300.8675 542.5586,299.2113 Q543.8867,297.555 546.3867,297.555 Q547.0898,297.555 547.7305,297.7113 Q548.3867,297.8675 548.9492,298.1644 L548.9492,300.8831 Q548.3242,300.305 547.7305,300.0394 Q547.1367,299.7581 546.5117,299.7581 Q545.168,299.7581 544.4805,300.8363 Q543.793,301.8988 543.793,303.9925 Q543.793,306.0863 544.4805,307.1644 Q545.168,308.2269 546.5117,308.2269 Q547.1367,308.2269 547.7305,307.9613 Q548.3242,307.68 548.9492,307.1019 L548.9492,309.8206 Z " fill="#000000"/><text fill="#000000" font-family="sans-serif" font-size="14" lengthAdjust="spacing" textLength="129.3838" x="566.4805" y="309.0267">AdvancedStrategy</text><line style="stroke:#181818;stroke-width:0.5;" x1="425" x2="804.8447" y1="320.18" y2="320.18"/><line style="stroke:#181818;stroke-width:0.5;" x1="425" x2="804.8447" y1="328.18" y2="328.18"/><ellipse cx="435" cy="341.8284" fill="#84BE84" rx="3" ry="3" style="stroke:#038048;stroke-width:1;"/><text fill="#000000" font-family="sans-serif" font-size="14" lengthAdjust="spacing" textLength="355.8447" x="444" y="345.1751">calculateDifficulty(client: Client): ExerciseDifficulty</text></g><!--class ExpertStrategy--><g id="elem_ExpertStrategy"><rect codeLine="19" fill="#F1F1F1" height="64.2969" id="ExpertStrategy" rx="2.5" ry="2.5" style="stroke:#181818;stroke-width:0.5;" width="381.8447" x="841" y="288.18"/><ellipse cx="974.7417" cy="304.18" fill="#ADD1B2" rx="11" ry="11" style="stroke:#181818;stroke-width:1;"/><path d="M977.7104,309.8206 Q977.1323,310.1175 976.4917,310.2581 Q975.8511,310.4144 975.1479,310.4144 Q972.6479,310.4144 971.3198,308.7738 Q970.0073,307.1175 970.0073,303.9925 Q970.0073,300.8675 971.3198,299.2113 Q972.6479,297.555 975.1479,297.555 Q975.8511,297.555 976.4917,297.7113 Q977.1479,297.8675 977.7104,298.1644 L977.7104,300.8831 Q977.0854,300.305 976.4917,300.0394 Q975.8979,299.7581 975.2729,299.7581 Q973.9292,299.7581 973.2417,300.8363 Q972.5542,301.8988 972.5542,303.9925 Q972.5542,306.0863 973.2417,307.1644 Q973.9292,308.2269 975.2729,308.2269 Q975.8979,308.2269 976.4917,307.9613 Q977.0854,307.68 977.7104,307.1019 L977.7104,309.8206 Z " fill="#000000"/><text fill="#000000" font-family="sans-serif" font-size="14" lengthAdjust="spacing" textLength="105.8613" x="995.2417" y="309.0267">ExpertStrategy</text><line style="stroke:#181818;stroke-width:0.5;" x1="842" x2="1221.8447" y1="320.18" y2="320.18"/><line style="stroke:#181818;stroke-width:0.5;" x1="842" x2="1221.8447" y1="328.18" y2="328.18"/><ellipse cx="852" cy="341.8284" fill="#84BE84" rx="3" ry="3" style="stroke:#038048;stroke-width:1;"/><text fill="#000000" font-family="sans-serif" font-size="14" lengthAdjust="spacing" textLength="355.8447" x="861" y="345.1751">calculateDifficulty(client: Client): ExerciseDifficulty</text></g><!--class TrainingSession--><g id="elem_TrainingSession"><rect codeLine="23" fill="#F1F1F1" height="96.8906" id="TrainingSession" rx="2.5" ry="2.5" style="stroke:#181818;stroke-width:0.5;" width="467.2461" x="554.3" y="7"/><ellipse cx="728.3156" cy="23" fill="#ADD1B2" rx="11" ry="11" style="stroke:#181818;stroke-width:1;"/><path d="M731.2844,28.6406 Q730.7063,28.9375 730.0656,29.0781 Q729.425,29.2344 728.7219,29.2344 Q726.2219,29.2344 724.8938,27.5938 Q723.5813,25.9375 723.5813,22.8125 Q723.5813,19.6875 724.8938,18.0313 Q726.2219,16.375 728.7219,16.375 Q729.425,16.375 730.0656,16.5313 Q730.7219,16.6875 731.2844,16.9844 L731.2844,19.7031 Q730.6594,19.125 730.0656,18.8594 Q729.4719,18.5781 728.8469,18.5781 Q727.5031,18.5781 726.8156,19.6563 Q726.1281,20.7188 726.1281,22.8125 Q726.1281,24.9063 726.8156,25.9844 Q727.5031,27.0469 728.8469,27.0469 Q729.4719,27.0469 730.0656,26.7813 Q730.6594,26.5 731.2844,25.9219 L731.2844,28.6406 Z " fill="#000000"/><text fill="#000000" font-family="sans-serif" font-size="14" lengthAdjust="spacing" textLength="110.7148" x="748.8156" y="27.8467">TrainingSession</text><line style="stroke:#181818;stroke-width:0.5;" x1="555.3" x2="1020.5461" y1="39" y2="39"/><rect fill="#FFFFFF" fill-opacity="0.00000" height="6" style="stroke:#C82930;stroke-width:1;" width="6" x="562.3" y="49.6484"/><text fill="#000000" font-family="sans-serif" font-size="14" lengthAdjust="spacing" textLength="309.8457" x="574.3" y="55.9951">difficultyStrategy: TrainingDifficultyStrategy</text><line style="stroke:#181818;stroke-width:0.5;" x1="555.3" x2="1020.5461" y1="63.2969" y2="63.2969"/><ellipse cx="565.3" cy="76.9453" fill="#84BE84" rx="3" ry="3" style="stroke:#038048;stroke-width:1;"/><text fill="#000000" font-family="sans-serif" font-size="14" lengthAdjust="spacing" textLength="441.2461" x="574.3" y="80.292">setDifficultyStrategy(strategy: TrainingDifficultyStrategy): void</text><ellipse cx="565.3" cy="93.2422" fill="#84BE84" rx="3" ry="3" style="stroke:#038048;stroke-width:1;"/><text fill="#000000" font-family="sans-serif" font-size="14" lengthAdjust="spacing" textLength="364.9092" x="574.3" y="96.5889">determineDifficulty(client: Client): ExerciseDifficulty</text></g><!--reverse link TrainingDifficultyStrategy to BeginnerStrategy--><g id="link_TrainingDifficultyStrategy_BeginnerStrategy"><path codeLine="30" d="M489.9876,233.6759 C427.9676,251.8659 367.55,269.58 305.54,287.77 " fill="#FFFFFF" fill-opacity="0.00000" id="TrainingDifficultyStrategy-backto-BeginnerStrategy" style="stroke:#181818;stroke-width:1;stroke-dasharray:7.0,7.0;"/><polygon fill="#FFFFFF" fill-opacity="0.00000" points="507.26,228.61,488.2989,227.9184,491.6762,239.4334,507.26,228.61" style="stroke:#181818;stroke-width:1;"/></g><!--reverse link TrainingDifficultyStrategy to AdvancedStrategy--><g id="link_TrainingDifficultyStrategy_AdvancedStrategy"><path codeLine="31" d="M614.92,246.53 C614.92,264.79 614.92,269.7 614.92,287.94 " fill="#FFFFFF" fill-opacity="0.00000" id="TrainingDifficultyStrategy-backto-AdvancedStrategy" style="stroke:#181818;stroke-width:1;stroke-dasharray:7.0,7.0;"/><polygon fill="#FFFFFF" fill-opacity="0.00000" points="614.92,228.53,608.92,246.53,620.92,246.53,614.92,228.53" style="stroke:#181818;stroke-width:1;"/></g><!--reverse link TrainingDifficultyStrategy to ExpertStrategy--><g id="link_TrainingDifficultyStrategy_ExpertStrategy"><path codeLine="32" d="M739.8524,233.6759 C801.8724,251.8659 862.3,269.58 924.31,287.77 " fill="#FFFFFF" fill-opacity="0.00000" id="TrainingDifficultyStrategy-backto-ExpertStrategy" style="stroke:#181818;stroke-width:1;stroke-dasharray:7.0,7.0;"/><polygon fill="#FFFFFF" fill-opacity="0.00000" points="722.58,228.61,738.1638,239.4334,741.5411,227.9184,722.58,228.61" style="stroke:#181818;stroke-width:1;"/></g><!--link TrainingSession to TrainingDifficultyStrategy--><g id="link_TrainingSession_TrainingDifficultyStrategy"><path codeLine="33" d="M719.0229,111.6405 C694.4829,131.2905 680.7927,142.2687 658.8727,159.8287 " fill="#FFFFFF" fill-opacity="0.00000" id="TrainingSession-TrainingDifficultyStrategy" style="stroke:#181818;stroke-width:1;"/><polygon fill="#FFFFFF" fill-opacity="0.00000" points="728.39,104.14,721.2063,104.7679,719.0229,111.6405,726.2066,111.0126,728.39,104.14" style="stroke:#181818;stroke-width:1;"/><polygon fill="#181818" points="654.19,163.58,663.7149,161.0749,658.0923,160.4539,658.7132,154.8312,654.19,163.58" style="stroke:#181818;stroke-width:1;"/></g><!--link ExerciseDifficulty to TrainingDifficultyStrategy--><g id="link_ExerciseDifficulty_TrainingDifficultyStrategy"><path codeLine="34" d="M502.12,104.14 C526.51,123.79 549.4182,142.2551 571.2082,159.8151 " fill="#FFFFFF" fill-opacity="0.00000" id="ExerciseDifficulty-to-TrainingDifficultyStrategy" style="stroke:#181818;stroke-width:1;"/><polygon fill="#181818" points="575.88,163.58,571.3822,154.8181,571.9868,160.4426,566.3624,161.0472,575.88,163.58" style="stroke:#181818;stroke-width:1;"/></g><!--SRC=[hPF1Yi8m48RlUOgvhRBK1oWYTBS5FNYnUl0OacaPYLD9eYZgkvij5LahTLcQIq8c_vV9FnFa_HQo8rf53bCg2b9xuqzm5X16bkJhUZ7FqjbgNY-doI8LLo68FTf2AeIbbSJ4vKEUUoizbdVC9oXfGY3iFSuCb25a7yDtFG_Z5sdytAECT0w-i2HcjFsJ4tsGh53tJywEExI-V-xTxnoTeueRS0IwvN_SKPic6uU-7HkuFm12beUATCFH6DfXI_oFLtt00erK6nGTdJI-Z4QjBdWhU2xkMy7lcebdgwiecdHv-k8dTIjk]--></g></svg>