<svg xmlns="http://www.w3.org/2000/svg" xmlns:xlink="http://www.w3.org/1999/xlink" contentStyleType="text/css" height="903px" preserveAspectRatio="none" style="width:584px;height:903px;background:#FFFFFF;" version="1.1" viewBox="0 0 584 903" width="584px" zoomAndPan="magnify"><defs/><g><!--class TrainingSession--><g id="elem_TrainingSession"><rect codeLine="4" fill="#F1F1F1" height="504.3125" id="TrainingSession" rx="2.5" ry="2.5" style="stroke:#181818;stroke-width:0.5;" width="570.5029" x="7" y="392.05"/><ellipse cx="232.644" cy="408.05" fill="#ADD1B2" rx="11" ry="11" style="stroke:#181818;stroke-width:1;"/><path d="M235.6128,413.6906 Q235.0347,413.9875 234.394,414.1281 Q233.7534,414.2844 233.0503,414.2844 Q230.5503,414.2844 229.2222,412.6438 Q227.9097,410.9875 227.9097,407.8625 Q227.9097,404.7375 229.2222,403.0813 Q230.5503,401.425 233.0503,401.425 Q233.7534,401.425 234.394,401.5813 Q235.0503,401.7375 235.6128,402.0344 L235.6128,404.7531 Q234.9878,404.175 234.394,403.9094 Q233.8003,403.6281 233.1753,403.6281 Q231.8315,403.6281 231.144,404.7063 Q230.4565,405.7688 230.4565,407.8625 Q230.4565,409.9563 231.144,411.0344 Q231.8315,412.0969 233.1753,412.0969 Q233.8003,412.0969 234.394,411.8313 Q234.9878,411.55 235.6128,410.9719 L235.6128,413.6906 Z " fill="#000000"/><text fill="#000000" font-family="sans-serif" font-size="14" lengthAdjust="spacing" textLength="110.7148" x="253.144" y="412.8967">TrainingSession</text><line style="stroke:#181818;stroke-width:0.5;" x1="8" x2="576.5029" y1="424.05" y2="424.05"/><text fill="#000000" font-family="sans-serif" font-size="14" lengthAdjust="spacing" textLength="120.4287" x="13" y="441.0451">~startDate: Date</text><text fill="#000000" font-family="sans-serif" font-size="14" lengthAdjust="spacing" textLength="156.8711" x="13" y="457.342">~isCancelled: boolean</text><text fill="#000000" font-family="sans-serif" font-size="14" lengthAdjust="spacing" textLength="140.5195" x="13" y="473.6389">~description: String</text><text fill="#000000" font-family="sans-serif" font-size="14" lengthAdjust="spacing" textLength="111.2617" x="13" y="489.9357">~duration: float</text><text fill="#000000" font-family="sans-serif" font-size="14" lengthAdjust="spacing" textLength="151.0332" x="13" y="506.2326">~skillLevel: SkillLevel</text><text fill="#000000" font-family="sans-serif" font-size="14" lengthAdjust="spacing" textLength="117.8721" x="13" y="522.5295">~trainer: Trainer</text><text fill="#000000" font-family="sans-serif" font-size="14" lengthAdjust="spacing" textLength="185.5273" x="13" y="538.8264">~attendants: List&lt;Client&gt;</text><line style="stroke:#181818;stroke-width:0.5;" x1="8" x2="576.5029" y1="546.1281" y2="546.1281"/><text fill="#000000" font-family="sans-serif" font-size="14" lengthAdjust="spacing" textLength="558.5029" x="13" y="563.1232">~TrainingSession(Date, String, float, SkillLevel, List&lt;Client&gt;, boolean, Trainer):</text><text fill="#000000" font-family="sans-serif" font-size="14" lengthAdjust="spacing" textLength="176.3262" x="13" y="579.4201">+getDescription(): String</text><text fill="#000000" font-family="sans-serif" font-size="14" lengthAdjust="spacing" textLength="155.9346" x="13" y="595.717">+getStartDate(): Date</text><text fill="#000000" font-family="sans-serif" font-size="14" lengthAdjust="spacing" textLength="182.8818" x="13" y="612.0139">+setTrainer(Trainer): void</text><text fill="#000000" font-family="sans-serif" font-size="14" lengthAdjust="spacing" textLength="179.5254" x="13" y="628.3107">+equals(Object): boolean</text><text fill="#000000" font-family="sans-serif" font-size="14" lengthAdjust="spacing" textLength="119.5332" x="13" y="644.6076">+hashCode(): int</text><text fill="#000000" font-family="sans-serif" font-size="14" lengthAdjust="spacing" textLength="207.6348" x="13" y="660.9045">+setCancelled(boolean): void</text><text fill="#000000" font-family="sans-serif" font-size="14" lengthAdjust="spacing" textLength="129.4385" x="13" y="677.2014">+toString(): String</text><text fill="#000000" font-family="sans-serif" font-size="14" lengthAdjust="spacing" textLength="147.0684" x="13" y="693.4982">+getDuration(): float</text><text fill="#000000" font-family="sans-serif" font-size="14" lengthAdjust="spacing" textLength="214.5732" x="13" y="709.7951">+setSkillLevel(SkillLevel): void</text><text fill="#000000" font-family="sans-serif" font-size="14" lengthAdjust="spacing" textLength="197.6133" x="13" y="726.092">#canEqual(Object): boolean</text><text fill="#000000" font-family="sans-serif" font-size="14" lengthAdjust="spacing" textLength="186.5391" x="13" y="742.3889">+getSkillLevel(): SkillLevel</text><text fill="#000000" font-family="sans-serif" font-size="14" lengthAdjust="spacing" textLength="220.4385" x="13" y="758.6857">+getAttendants(): List&lt;Client&gt;</text><text fill="#000000" font-family="sans-serif" font-size="14" lengthAdjust="spacing" textLength="240.8438" x="13" y="774.9826">+builder(): TrainingSessionBuilder</text><text fill="#000000" font-family="sans-serif" font-size="14" lengthAdjust="spacing" textLength="167.7949" x="13" y="791.2795">+isCancelled(): boolean</text><text fill="#000000" font-family="sans-serif" font-size="14" lengthAdjust="spacing" textLength="154.8477" x="13" y="807.5764">+getTrainer(): Trainer</text><text fill="#000000" font-family="sans-serif" font-size="14" lengthAdjust="spacing" textLength="183.9688" x="13" y="823.8732">+setStartDate(Date): void</text><text fill="#000000" font-family="sans-serif" font-size="14" lengthAdjust="spacing" textLength="204.3604" x="13" y="840.1701">+setDescription(String): void</text><text fill="#000000" font-family="sans-serif" font-size="14" lengthAdjust="spacing" textLength="248.4727" x="13" y="856.467">+setAttendants(List&lt;Client&gt;): void</text><text fill="#000000" font-family="sans-serif" font-size="14" lengthAdjust="spacing" textLength="175.1025" x="13" y="872.7639">+setDuration(float): void</text><text fill="#000000" font-family="sans-serif" font-size="14" lengthAdjust="spacing" textLength="149.1328" x="13" y="889.0607">+main(String[]): void</text></g><!--class TrainingSessionBuilder--><g id="elem_TrainingSessionBuilder"><rect codeLine="34" fill="#F1F1F1" height="325.0469" id="TrainingSessionBuilder" rx="2.5" ry="2.5" style="stroke:#181818;stroke-width:0.5;" width="368.6787" x="107.91" y="7"/><ellipse cx="207.8856" cy="23" fill="#ADD1B2" rx="11" ry="11" style="stroke:#181818;stroke-width:1;"/><path d="M210.8543,28.6406 Q210.2762,28.9375 209.6356,29.0781 Q208.995,29.2344 208.2918,29.2344 Q205.7918,29.2344 204.4637,27.5938 Q203.1512,25.9375 203.1512,22.8125 Q203.1512,19.6875 204.4637,18.0313 Q205.7918,16.375 208.2918,16.375 Q208.995,16.375 209.6356,16.5313 Q210.2918,16.6875 210.8543,16.9844 L210.8543,19.7031 Q210.2293,19.125 209.6356,18.8594 Q209.0418,18.5781 208.4168,18.5781 Q207.0731,18.5781 206.3856,19.6563 Q205.6981,20.7188 205.6981,22.8125 Q205.6981,24.9063 206.3856,25.9844 Q207.0731,27.0469 208.4168,27.0469 Q209.0418,27.0469 209.6356,26.7813 Q210.2293,26.5 210.8543,25.9219 L210.8543,28.6406 Z " fill="#000000"/><text fill="#000000" font-family="sans-serif" font-size="14" lengthAdjust="spacing" textLength="160.2275" x="228.3856" y="27.8467">TrainingSessionBuilder</text><line style="stroke:#181818;stroke-width:0.5;" x1="108.91" x2="475.5887" y1="39" y2="39"/><text fill="#000000" font-family="sans-serif" font-size="14" lengthAdjust="spacing" textLength="133.8408" x="113.91" y="55.9951">-description: String</text><text fill="#000000" font-family="sans-serif" font-size="14" lengthAdjust="spacing" textLength="144.3545" x="113.91" y="72.292">-skillLevel: SkillLevel</text><text fill="#000000" font-family="sans-serif" font-size="14" lengthAdjust="spacing" textLength="113.75" x="113.91" y="88.5889">-startDate: Date</text><text fill="#000000" font-family="sans-serif" font-size="14" lengthAdjust="spacing" textLength="104.583" x="113.91" y="104.8857">-duration: float</text><text fill="#000000" font-family="sans-serif" font-size="14" lengthAdjust="spacing" textLength="150.1924" x="113.91" y="121.1826">-isCancelled: boolean</text><text fill="#000000" font-family="sans-serif" font-size="14" lengthAdjust="spacing" textLength="111.1934" x="113.91" y="137.4795">-trainer: Trainer</text><text fill="#000000" font-family="sans-serif" font-size="14" lengthAdjust="spacing" textLength="178.8486" x="113.91" y="153.7764">-attendants: List&lt;Client&gt;</text><line style="stroke:#181818;stroke-width:0.5;" x1="108.91" x2="475.5887" y1="161.0781" y2="161.0781"/><text fill="#000000" font-family="sans-serif" font-size="14" lengthAdjust="spacing" textLength="187.5986" x="113.91" y="178.0732">~TrainingSessionBuilder():</text><text fill="#000000" font-family="sans-serif" font-size="14" lengthAdjust="spacing" textLength="291.5801" x="113.91" y="194.3701">+startDate(Date): TrainingSessionBuilder</text><text fill="#000000" font-family="sans-serif" font-size="14" lengthAdjust="spacing" textLength="311.6709" x="113.91" y="210.667">+description(String): TrainingSessionBuilder</text><text fill="#000000" font-family="sans-serif" font-size="14" lengthAdjust="spacing" textLength="282.4131" x="113.91" y="226.9639">+duration(float): TrainingSessionBuilder</text><text fill="#000000" font-family="sans-serif" font-size="14" lengthAdjust="spacing" textLength="322.1846" x="113.91" y="243.2607">+skillLevel(SkillLevel): TrainingSessionBuilder</text><text fill="#000000" font-family="sans-serif" font-size="14" lengthAdjust="spacing" textLength="356.6787" x="113.91" y="259.5576">+attendants(List&lt;Client&gt;): TrainingSessionBuilder</text><text fill="#000000" font-family="sans-serif" font-size="14" lengthAdjust="spacing" textLength="328.0225" x="113.91" y="275.8545">+isCancelled(boolean): TrainingSessionBuilder</text><text fill="#000000" font-family="sans-serif" font-size="14" lengthAdjust="spacing" textLength="289.0234" x="113.91" y="292.1514">+trainer(Trainer): TrainingSessionBuilder</text><text fill="#000000" font-family="sans-serif" font-size="14" lengthAdjust="spacing" textLength="176.9619" x="113.91" y="308.4482">+build(): TrainingSession</text><text fill="#000000" font-family="sans-serif" font-size="14" lengthAdjust="spacing" textLength="129.4385" x="113.91" y="324.7451">+toString(): String</text></g><!--reverse link TrainingSessionBuilder to TrainingSession--><g id="link_TrainingSessionBuilder_TrainingSession"><path codeLine="54" d="M292.25,348.53 C292.25,367.77 292.25,371.75 292.25,391.87 " fill="none" id="TrainingSessionBuilder-backto-TrainingSession" style="stroke:#181818;stroke-width:1;"/><ellipse cx="292.25" cy="340.53" fill="#FFFFFF" rx="8" ry="8" style="stroke:#181818;stroke-width:1;"/><line style="stroke:#181818;stroke-width:1;" x1="292.25" x2="292.25" y1="348.53" y2="332.53"/><line style="stroke:#181818;stroke-width:1;" x1="284.25" x2="300.25" y1="340.53" y2="340.53"/></g><!--SRC=[ZLGzRuCm4Dtv5ITr0GLBdL5LAHyTAaNga6vL1mUkYHl7Jl4bGwlqjzVO41m2g0o8t3i_ltjt5xCJwi1BleTSScEcHALO7mcVSwrMuXlXFY9z0DAmraHw3uKeCIUXLHIv4_1QSg64sgpG61k6dmZWjnkD5vmmXPLbLviKFgJcP7_kX9HBFA5COIaCFSobG4MFgRrCI-GgzJnO9XauMaEyf8ehW-hjOiBCkSfHIYoovg032ZHvAGwLsAo-siUF9VT1fyCJNwHaWIm7aPUGDLfSa1EXAhWYarr9j-04DaYBzkuu2MvtuAgfeeBgEYPWaEeRuhRganQ5G_7hoAM9NzQVrluaB7G2MswsSrquEg6eORlO4jV98Hzfh-bMtQAsfq8QWnnVwqlSVhQSTv1pzLJ9x5UvkM98EZuxV7fnjS9lV5qVXIoiFKdMdQ-PHrnMC0_nhOJ6uYJifo_lqfNg5NfbhllfxUea1D93tLsQnbjdR0ZkhPQQ-Usz0SxzErPNsxzgizOa2xE1BM334yzwjeprB0qRsZpMjp9iV6LCr_oH1XTzlHZBxve-aci6Pdpa21_i_3-7jDtEaGDqyzSmakmMfMTDXZR_R87wYGPc3IQCGPVl3m00]--></g></svg>