<svg xmlns="http://www.w3.org/2000/svg" xmlns:xlink="http://www.w3.org/1999/xlink" contentStyleType="text/css" height="1068px" preserveAspectRatio="none" style="width:888px;height:1068px;background:#FFFFFF;" version="1.1" viewBox="0 0 888 1068" width="888px" zoomAndPan="magnify"><defs/><g><rect fill="none" height="20.9531" style="stroke:none;stroke-width:1;" width="855.4968" x="15" y="12.7451"/><rect fill="#F1F1F1" height="33.9688" rx="12.5" ry="12.5" style="stroke:#181818;stroke-width:0.5;" width="198.6406" x="76.6377" y="137.7998"/><text fill="#000000" font-family="sans-serif" font-size="12" lengthAdjust="spacing" textLength="178.6406" x="86.6377" y="158.9385">Wy&#347;wietlenie listy z zaj&#281;ciami</text><rect fill="#F1F1F1" height="33.9688" rx="12.5" ry="12.5" style="stroke:#181818;stroke-width:0.5;" width="309.916" x="21" y="245.7373"/><text fill="#000000" font-family="sans-serif" font-size="12" lengthAdjust="spacing" textLength="289.916" x="31" y="266.876">Wy&#347;wietlenie opcji formularza z opcjami raportu</text><rect fill="#F1F1F1" height="33.9688" rx="12.5" ry="12.5" style="stroke:#181818;stroke-width:0.5;" width="136.9414" x="107.4873" y="446.0771"/><text fill="#000000" font-family="sans-serif" font-size="12" lengthAdjust="spacing" textLength="116.9414" x="117.4873" y="467.2158">Wy&#347;wietlenie b&#322;&#281;du</text><rect fill="#F1F1F1" height="33.9688" rx="12.5" ry="12.5" style="stroke:#181818;stroke-width:0.5;" width="202.4551" x="74.7305" y="515.0459"/><text fill="#000000" font-family="sans-serif" font-size="12" lengthAdjust="spacing" textLength="182.4551" x="84.7305" y="536.1846">Powr&#243;t do wyboru zakresu dat</text><polygon fill="#F1F1F1" points="43.813,397.6748,308.103,397.6748,320.103,409.6748,308.103,421.6748,43.813,421.6748,31.813,409.6748,43.813,397.6748" style="stroke:#181818;stroke-width:0.5;"/><text fill="#000000" font-family="sans-serif" font-size="11" lengthAdjust="spacing" textLength="17.4238" x="179.958" y="431.8853">tak</text><text fill="#000000" font-family="sans-serif" font-size="11" lengthAdjust="spacing" textLength="264.29" x="43.813" y="413.4829">Data pocz&#261;tkowa nast&#281;puje po dacie ko&#324;cowej?</text><text fill="#000000" font-family="sans-serif" font-size="11" lengthAdjust="spacing" textLength="16.7954" x="320.103" y="407.0806">nie</text><polygon fill="#F1F1F1" points="175.958,569.0146,187.958,581.0146,175.958,593.0146,163.958,581.0146,175.958,569.0146" style="stroke:#181818;stroke-width:0.5;"/><polygon fill="#F1F1F1" points="175.958,299.7061,187.958,311.7061,175.958,323.7061,163.958,311.7061,175.958,299.7061" style="stroke:#181818;stroke-width:0.5;"/><polygon fill="#F1F1F1" points="43.813,613.0146,308.103,613.0146,320.103,625.0146,308.103,637.0146,43.813,637.0146,31.813,625.0146,43.813,613.0146" style="stroke:#181818;stroke-width:0.5;"/><text fill="#000000" font-family="sans-serif" font-size="11" lengthAdjust="spacing" textLength="264.29" x="43.813" y="628.8228">Data pocz&#261;tkowa nast&#281;puje po dacie ko&#324;cowej?</text><rect fill="#F1F1F1" height="33.9688" rx="12.5" ry="12.5" style="stroke:#181818;stroke-width:0.5;" width="221.0938" x="65.4111" y="764.9521"/><text fill="#000000" font-family="sans-serif" font-size="12" lengthAdjust="spacing" textLength="201.0938" x="75.4111" y="786.0908">Wy&#347;wietlenie okna potwierdzenia</text><rect fill="#F1F1F1" height="33.9688" rx="12.5" ry="12.5" style="stroke:#181818;stroke-width:0.5;" width="265.8652" x="43.0254" y="867.3232"/><text fill="#000000" font-family="sans-serif" font-size="12" lengthAdjust="spacing" textLength="245.8652" x="53.0254" y="888.4619">Utworzenie pliku z raportem do pobrania</text><rect fill="#F1F1F1" height="33.9688" rx="12.5" ry="12.5" style="stroke:#181818;stroke-width:0.5;" width="256.9648" x="47.4756" y="936.292"/><text fill="#000000" font-family="sans-serif" font-size="12" lengthAdjust="spacing" textLength="236.9648" x="57.4756" y="957.4307">Wygenerowanie potwierdzenia operacji</text><ellipse cx="175.958" cy="1045.2607" fill="none" rx="11" ry="11" style="stroke:#222222;stroke-width:1;"/><ellipse cx="175.958" cy="1045.2607" fill="#222222" rx="6" ry="6" style="stroke:#222222;stroke-width:1;"/><line style="stroke:#000000;stroke-width:1.5;" x1="15" x2="15" y1="12.7451" y2="1056.2607"/><path d="M365.863,38.6982 L365.863,63.8311 L676.7034,63.8311 L676.7034,48.6982 L666.7034,38.6982 L365.863,38.6982 " fill="#FEFFDD" style="stroke:#181818;stroke-width:0.5;"/><path d="M666.7034,38.6982 L666.7034,48.6982 L676.7034,48.6982 L666.7034,38.6982 " fill="#FEFFDD" style="stroke:#181818;stroke-width:0.5;"/><text fill="#000000" font-family="sans-serif" font-size="13" lengthAdjust="spacing" textLength="289.8403" x="371.863" y="55.7651">Pracownik musi by&#263; zalogowany do systemu</text><ellipse cx="706.7034" cy="51.2646" fill="#222222" rx="10" ry="10" style="stroke:#222222;stroke-width:1;"/><rect fill="#F1F1F1" height="33.9688" rx="12.5" ry="12.5" style="stroke:#181818;stroke-width:0.5;" width="269.4395" x="571.9836" y="83.8311"/><text fill="#000000" font-family="sans-serif" font-size="12" lengthAdjust="spacing" textLength="249.4395" x="581.9836" y="104.9697">Menadzer wybiera opcj&#281; Wy&#347;wietl zaj&#281;cia</text><rect fill="#F1F1F1" height="33.9688" rx="12.5" ry="12.5" style="stroke:#181818;stroke-width:0.5;" width="212.3281" x="600.5393" y="191.7686"/><text fill="#000000" font-family="sans-serif" font-size="12" lengthAdjust="spacing" textLength="192.3281" x="610.5393" y="212.9072">Wybranie opcji "Generuj raport"</text><rect fill="#F1F1F1" height="33.9688" rx="12.5" ry="12.5" style="stroke:#181818;stroke-width:0.5;" width="303.3301" x="555.0383" y="343.7061"/><text fill="#000000" font-family="sans-serif" font-size="12" lengthAdjust="spacing" textLength="283.3301" x="565.0383" y="364.8447">Wybranie zakresu dat przeprowadzonych zaj&#281;&#263;</text><rect fill="#F1F1F1" height="33.9688" rx="12.5" ry="12.5" style="stroke:#181818;stroke-width:0.5;" width="261.7695" x="575.8186" y="657.0146"/><text fill="#000000" font-family="sans-serif" font-size="12" lengthAdjust="spacing" textLength="241.7695" x="585.8186" y="678.1533">Wybranie typu raportu "Podsumowanie"</text><rect fill="#F1F1F1" height="33.9688" rx="12.5" ry="12.5" style="stroke:#181818;stroke-width:0.5;" width="171.6289" x="620.8889" y="710.9834"/><text fill="#000000" font-family="sans-serif" font-size="12" lengthAdjust="spacing" textLength="151.6289" x="630.8889" y="732.1221">Wybranie opcji "Generuj"</text><polygon fill="#F1F1F1" points="643.0103,818.9209,770.3965,818.9209,782.3965,830.9209,770.3965,842.9209,643.0103,842.9209,631.0103,830.9209,643.0103,818.9209" style="stroke:#181818;stroke-width:0.5;"/><text fill="#000000" font-family="sans-serif" font-size="11" lengthAdjust="spacing" textLength="17.4238" x="710.7034" y="853.1313">tak</text><text fill="#000000" font-family="sans-serif" font-size="11" lengthAdjust="spacing" textLength="127.3862" x="643.0103" y="834.729">Potwierdzenie wyboru?</text><text fill="#000000" font-family="sans-serif" font-size="11" lengthAdjust="spacing" textLength="16.7954" x="782.3965" y="828.3267">nie</text><polygon fill="#F1F1F1" points="706.7034,990.2607,718.7034,1002.2607,706.7034,1014.2607,694.7034,1002.2607,706.7034,990.2607" style="stroke:#181818;stroke-width:0.5;"/><line style="stroke:#000000;stroke-width:1.5;" x1="360.863" x2="360.863" y1="12.7451" y2="1056.2607"/><line style="stroke:#000000;stroke-width:1.5;" x1="868.636" x2="868.636" y1="12.7451" y2="1056.2607"/><line style="stroke:#181818;stroke-width:1;" x1="175.958" x2="175.958" y1="480.0459" y2="515.0459"/><polygon fill="#181818" points="171.958,505.0459,175.958,515.0459,179.958,505.0459,175.958,509.0459" style="stroke:#181818;stroke-width:1;"/><line style="stroke:#181818;stroke-width:1;" x1="175.958" x2="175.958" y1="421.6748" y2="446.0771"/><polygon fill="#181818" points="171.958,436.0771,175.958,446.0771,179.958,436.0771,175.958,440.0771" style="stroke:#181818;stroke-width:1;"/><line style="stroke:#181818;stroke-width:1;" x1="320.103" x2="332.103" y1="409.6748" y2="409.6748"/><polygon fill="#181818" points="328.103,487.5459,332.103,497.5459,336.103,487.5459,332.103,491.5459" style="stroke:#181818;stroke-width:1;"/><line style="stroke:#181818;stroke-width:1;" x1="332.103" x2="332.103" y1="409.6748" y2="581.0146"/><line style="stroke:#181818;stroke-width:1;" x1="332.103" x2="187.958" y1="581.0146" y2="581.0146"/><polygon fill="#181818" points="197.958,577.0146,187.958,581.0146,197.958,585.0146,193.958,581.0146" style="stroke:#181818;stroke-width:1;"/><line style="stroke:#181818;stroke-width:1;" x1="175.958" x2="175.958" y1="549.0146" y2="569.0146"/><polygon fill="#181818" points="171.958,559.0146,175.958,569.0146,179.958,559.0146,175.958,563.0146" style="stroke:#181818;stroke-width:1;"/><line style="stroke:#181818;stroke-width:1;" x1="320.103" x2="341.863" y1="625.0146" y2="625.0146"/><polygon fill="#181818" points="337.863,473.0615,341.863,463.0615,345.863,473.0615,341.863,469.0615" style="stroke:#181818;stroke-width:1;"/><line style="stroke:#181818;stroke-width:1;" x1="341.863" x2="341.863" y1="311.7061" y2="625.0146"/><line style="stroke:#181818;stroke-width:1;" x1="341.863" x2="187.958" y1="311.7061" y2="311.7061"/><polygon fill="#181818" points="197.958,307.7061,187.958,311.7061,197.958,315.7061,193.958,311.7061" style="stroke:#181818;stroke-width:1;"/><line style="stroke:#181818;stroke-width:1;" x1="175.958" x2="175.958" y1="593.0146" y2="613.0146"/><polygon fill="#181818" points="171.958,603.0146,175.958,613.0146,179.958,603.0146,175.958,607.0146" style="stroke:#181818;stroke-width:1;"/><line style="stroke:#181818;stroke-width:1;" x1="175.958" x2="175.958" y1="279.7061" y2="299.7061"/><polygon fill="#181818" points="171.958,289.7061,175.958,299.7061,179.958,289.7061,175.958,293.7061" style="stroke:#181818;stroke-width:1;"/><line style="stroke:#181818;stroke-width:1;" x1="175.958" x2="175.958" y1="901.292" y2="936.292"/><polygon fill="#181818" points="171.958,926.292,175.958,936.292,179.958,926.292,175.958,930.292" style="stroke:#181818;stroke-width:1;"/><line style="stroke:#181818;stroke-width:1;" x1="706.7034" x2="706.7034" y1="61.2646" y2="83.8311"/><polygon fill="#181818" points="702.7034,73.8311,706.7034,83.8311,710.7034,73.8311,706.7034,77.8311" style="stroke:#181818;stroke-width:1;"/><line style="stroke:#181818;stroke-width:1;" x1="706.7034" x2="706.7034" y1="690.9834" y2="710.9834"/><polygon fill="#181818" points="702.7034,700.9834,706.7034,710.9834,710.7034,700.9834,706.7034,704.9834" style="stroke:#181818;stroke-width:1;"/><line style="stroke:#181818;stroke-width:1;" x1="782.3965" x2="849.636" y1="830.9209" y2="830.9209"/><polygon fill="#181818" points="845.636,908.792,849.636,918.792,853.636,908.792,849.636,912.792" style="stroke:#181818;stroke-width:1;"/><line style="stroke:#181818;stroke-width:1;" x1="849.636" x2="849.636" y1="830.9209" y2="1002.2607"/><line style="stroke:#181818;stroke-width:1;" x1="849.636" x2="718.7034" y1="1002.2607" y2="1002.2607"/><polygon fill="#181818" points="728.7034,998.2607,718.7034,1002.2607,728.7034,1006.2607,724.7034,1002.2607" style="stroke:#181818;stroke-width:1;"/><line style="stroke:#181818;stroke-width:1;" x1="706.7034" x2="706.7034" y1="117.7998" y2="122.7998"/><line style="stroke:#181818;stroke-width:1;" x1="706.7034" x2="175.958" y1="122.7998" y2="122.7998"/><line style="stroke:#181818;stroke-width:1;" x1="175.958" x2="175.958" y1="122.7998" y2="137.7998"/><polygon fill="#181818" points="171.958,127.7998,175.958,137.7998,179.958,127.7998,175.958,131.7998" style="stroke:#181818;stroke-width:1;"/><line style="stroke:#181818;stroke-width:1;" x1="175.958" x2="175.958" y1="171.7686" y2="176.7686"/><line style="stroke:#181818;stroke-width:1;" x1="175.958" x2="706.7034" y1="176.7686" y2="176.7686"/><line style="stroke:#181818;stroke-width:1;" x1="706.7034" x2="706.7034" y1="176.7686" y2="191.7686"/><polygon fill="#181818" points="702.7034,181.7686,706.7034,191.7686,710.7034,181.7686,706.7034,185.7686" style="stroke:#181818;stroke-width:1;"/><line style="stroke:#181818;stroke-width:1;" x1="706.7034" x2="706.7034" y1="225.7373" y2="230.7373"/><line style="stroke:#181818;stroke-width:1;" x1="706.7034" x2="175.958" y1="230.7373" y2="230.7373"/><line style="stroke:#181818;stroke-width:1;" x1="175.958" x2="175.958" y1="230.7373" y2="245.7373"/><polygon fill="#181818" points="171.958,235.7373,175.958,245.7373,179.958,235.7373,175.958,239.7373" style="stroke:#181818;stroke-width:1;"/><line style="stroke:#181818;stroke-width:1;" x1="706.7034" x2="706.7034" y1="377.6748" y2="382.6748"/><line style="stroke:#181818;stroke-width:1;" x1="706.7034" x2="175.958" y1="382.6748" y2="382.6748"/><line style="stroke:#181818;stroke-width:1;" x1="175.958" x2="175.958" y1="382.6748" y2="397.6748"/><polygon fill="#181818" points="171.958,387.6748,175.958,397.6748,179.958,387.6748,175.958,391.6748" style="stroke:#181818;stroke-width:1;"/><line style="stroke:#181818;stroke-width:1;" x1="175.958" x2="175.958" y1="323.7061" y2="328.7061"/><line style="stroke:#181818;stroke-width:1;" x1="175.958" x2="706.7034" y1="328.7061" y2="328.7061"/><line style="stroke:#181818;stroke-width:1;" x1="706.7034" x2="706.7034" y1="328.7061" y2="343.7061"/><polygon fill="#181818" points="702.7034,333.7061,706.7034,343.7061,710.7034,333.7061,706.7034,337.7061" style="stroke:#181818;stroke-width:1;"/><line style="stroke:#181818;stroke-width:1;" x1="175.958" x2="175.958" y1="637.0146" y2="642.0146"/><line style="stroke:#181818;stroke-width:1;" x1="175.958" x2="706.7034" y1="642.0146" y2="642.0146"/><line style="stroke:#181818;stroke-width:1;" x1="706.7034" x2="706.7034" y1="642.0146" y2="657.0146"/><polygon fill="#181818" points="702.7034,647.0146,706.7034,657.0146,710.7034,647.0146,706.7034,651.0146" style="stroke:#181818;stroke-width:1;"/><line style="stroke:#181818;stroke-width:1;" x1="706.7034" x2="706.7034" y1="744.9521" y2="749.9521"/><line style="stroke:#181818;stroke-width:1;" x1="706.7034" x2="175.958" y1="749.9521" y2="749.9521"/><line style="stroke:#181818;stroke-width:1;" x1="175.958" x2="175.958" y1="749.9521" y2="764.9521"/><polygon fill="#181818" points="171.958,754.9521,175.958,764.9521,179.958,754.9521,175.958,758.9521" style="stroke:#181818;stroke-width:1;"/><line style="stroke:#181818;stroke-width:1;" x1="706.7034" x2="706.7034" y1="842.9209" y2="855.1221"/><line style="stroke:#181818;stroke-width:1;" x1="706.7034" x2="175.958" y1="855.1221" y2="855.1221"/><line style="stroke:#181818;stroke-width:1;" x1="175.958" x2="175.958" y1="855.1221" y2="867.3232"/><polygon fill="#181818" points="171.958,857.3232,175.958,867.3232,179.958,857.3232,175.958,861.3232" style="stroke:#181818;stroke-width:1;"/><line style="stroke:#181818;stroke-width:1;" x1="175.958" x2="175.958" y1="970.2607" y2="978.0596"/><line style="stroke:#181818;stroke-width:1;" x1="175.958" x2="706.7034" y1="978.0596" y2="978.0596"/><line style="stroke:#181818;stroke-width:1;" x1="706.7034" x2="706.7034" y1="978.0596" y2="990.2607"/><polygon fill="#181818" points="702.7034,980.2607,706.7034,990.2607,710.7034,980.2607,706.7034,984.2607" style="stroke:#181818;stroke-width:1;"/><line style="stroke:#181818;stroke-width:1;" x1="175.958" x2="175.958" y1="798.9209" y2="803.9209"/><line style="stroke:#181818;stroke-width:1;" x1="175.958" x2="706.7034" y1="803.9209" y2="803.9209"/><line style="stroke:#181818;stroke-width:1;" x1="706.7034" x2="706.7034" y1="803.9209" y2="818.9209"/><polygon fill="#181818" points="702.7034,808.9209,706.7034,818.9209,710.7034,808.9209,706.7034,812.9209" style="stroke:#181818;stroke-width:1;"/><line style="stroke:#181818;stroke-width:1;" x1="706.7034" x2="706.7034" y1="1014.2607" y2="1019.2607"/><line style="stroke:#181818;stroke-width:1;" x1="706.7034" x2="175.958" y1="1019.2607" y2="1019.2607"/><line style="stroke:#181818;stroke-width:1;" x1="175.958" x2="175.958" y1="1019.2607" y2="1034.2607"/><polygon fill="#181818" points="171.958,1024.2607,175.958,1034.2607,179.958,1024.2607,175.958,1028.2607" style="stroke:#181818;stroke-width:1;"/><text fill="#000000" font-family="sans-serif" font-size="18" lengthAdjust="spacing" textLength="65.0742" x="155.3944" y="29.4531">system</text><text fill="#000000" font-family="sans-serif" font-size="18" lengthAdjust="spacing" textLength="86.4668" x="571.5161" y="29.4531">kierownik</text><!--SRC=[bLCnZjim4EpvYeKhtnVi8as0L07S1AdNqigcAP44kOGWGLMGuDvWv1bvGkH_PNdIwNHtIIvH9IrtPcTcgI4EiOjCZHhCO3G5rrfjb8gCWK5LjKFMzWJMCK5D5U_W4B1uw88cHGt7Rho77cjtSYtQ3ae74sDIkuzaiUmfGDiTXHl1-U8oNk5pT_lUQk9QWF9TQDmh1VCpn65vtosTPBK8q94xw1TKe_TFCFCCTWoO4NcWXiq7iXJI1G9w5tYp_vTX4xHoeKarXXvbRYx9q9acJJI1F26_eQD74oWcA971Xvwy12tHEDiLvydEUFzQbQvW-nuPmRkY7x-n4H1OZ3nUVRgGb8Mm47hZRbzbANHvTmTy9WjRHdEdVkFgUFioNijP-kEStS6ruUSFpikJLRcGreAdNgeZROLXOYLRwcfb7zgphkc_nQfrOazfSUVJOyYmERWofYRVBatpwlwquCqBNoysQcnMnr89SYrjldPh0Jdkm-gOvZ1UXxeC-CIj2rElhxMHt6RTrEGmlNkGYOlgKzOvMNckH8p83o9U_fvsPEUL-WK0]--></g></svg>