<svg xmlns="http://www.w3.org/2000/svg" xmlns:xlink="http://www.w3.org/1999/xlink" contentStyleType="text/css" height="1014px" preserveAspectRatio="none" style="width:884px;height:1014px;background:#FFFFFF;" version="1.1" viewBox="0 0 884 1014" width="884px" zoomAndPan="magnify"><defs/><g><rect fill="none" height="20.9531" style="stroke:none;stroke-width:1;" width="851.7368" x="15" y="12.7451"/><rect fill="#F1F1F1" height="33.9688" rx="12.5" ry="12.5" style="stroke:#181818;stroke-width:0.5;" width="203.2695" x="74.3232" y="137.7998"/><text fill="#000000" font-family="sans-serif" font-size="12" lengthAdjust="spacing" textLength="183.2695" x="84.3232" y="158.9385">Wy&#347;wietlenie listy z karnetami</text><rect fill="#F1F1F1" height="33.9688" rx="12.5" ry="12.5" style="stroke:#181818;stroke-width:0.5;" width="309.916" x="21" y="245.7373"/><text fill="#000000" font-family="sans-serif" font-size="12" lengthAdjust="spacing" textLength="289.916" x="31" y="266.876">Wy&#347;wietlenie opcji formularza z opcjami raportu</text><rect fill="#F1F1F1" height="33.9688" rx="12.5" ry="12.5" style="stroke:#181818;stroke-width:0.5;" width="136.9414" x="107.4873" y="446.0771"/><text fill="#000000" font-family="sans-serif" font-size="12" lengthAdjust="spacing" textLength="116.9414" x="117.4873" y="467.2158">Wy&#347;wietlenie b&#322;&#281;du</text><rect fill="#F1F1F1" height="33.9688" rx="12.5" ry="12.5" style="stroke:#181818;stroke-width:0.5;" width="202.4551" x="74.7305" y="515.0459"/><text fill="#000000" font-family="sans-serif" font-size="12" lengthAdjust="spacing" textLength="182.4551" x="84.7305" y="536.1846">Powr&#243;t do wyboru zakresu dat</text><polygon fill="#F1F1F1" points="43.813,397.6748,308.103,397.6748,320.103,409.6748,308.103,421.6748,43.813,421.6748,31.813,409.6748,43.813,397.6748" style="stroke:#181818;stroke-width:0.5;"/><text fill="#000000" font-family="sans-serif" font-size="11" lengthAdjust="spacing" textLength="17.4238" x="179.958" y="431.8853">tak</text><text fill="#000000" font-family="sans-serif" font-size="11" lengthAdjust="spacing" textLength="264.29" x="43.813" y="413.4829">Data pocz&#261;tkowa nast&#281;puje po dacie ko&#324;cowej?</text><text fill="#000000" font-family="sans-serif" font-size="11" lengthAdjust="spacing" textLength="16.7954" x="320.103" y="407.0806">nie</text><polygon fill="#F1F1F1" points="175.958,569.0146,187.958,581.0146,175.958,593.0146,163.958,581.0146,175.958,569.0146" style="stroke:#181818;stroke-width:0.5;"/><polygon fill="#F1F1F1" points="175.958,299.7061,187.958,311.7061,175.958,323.7061,163.958,311.7061,175.958,299.7061" style="stroke:#181818;stroke-width:0.5;"/><polygon fill="#F1F1F1" points="43.813,613.0146,308.103,613.0146,320.103,625.0146,308.103,637.0146,43.813,637.0146,31.813,625.0146,43.813,613.0146" style="stroke:#181818;stroke-width:0.5;"/><text fill="#000000" font-family="sans-serif" font-size="11" lengthAdjust="spacing" textLength="264.29" x="43.813" y="628.8228">Data pocz&#261;tkowa nast&#281;puje po dacie ko&#324;cowej?</text><rect fill="#F1F1F1" height="33.9688" rx="12.5" ry="12.5" style="stroke:#181818;stroke-width:0.5;" width="221.0938" x="65.4111" y="710.9834"/><text fill="#000000" font-family="sans-serif" font-size="12" lengthAdjust="spacing" textLength="201.0938" x="75.4111" y="732.1221">Wy&#347;wietlenie okna potwierdzenia</text><rect fill="#F1F1F1" height="33.9688" rx="12.5" ry="12.5" style="stroke:#181818;stroke-width:0.5;" width="265.8652" x="43.0254" y="813.3545"/><text fill="#000000" font-family="sans-serif" font-size="12" lengthAdjust="spacing" textLength="245.8652" x="53.0254" y="834.4932">Utworzenie pliku z raportem do pobrania</text><rect fill="#F1F1F1" height="33.9688" rx="12.5" ry="12.5" style="stroke:#181818;stroke-width:0.5;" width="256.9648" x="47.4756" y="882.3232"/><text fill="#000000" font-family="sans-serif" font-size="12" lengthAdjust="spacing" textLength="236.9648" x="57.4756" y="903.4619">Wygenerowanie potwierdzenia operacji</text><ellipse cx="175.958" cy="991.292" fill="none" rx="11" ry="11" style="stroke:#222222;stroke-width:1;"/><ellipse cx="175.958" cy="991.292" fill="#222222" rx="6" ry="6" style="stroke:#222222;stroke-width:1;"/><line style="stroke:#000000;stroke-width:1.5;" x1="15" x2="15" y1="12.7451" y2="1002.292"/><path d="M362.103,38.6982 L362.103,63.8311 L672.9434,63.8311 L672.9434,48.6982 L662.9434,38.6982 L362.103,38.6982 " fill="#FEFFDD" style="stroke:#181818;stroke-width:0.5;"/><path d="M662.9434,38.6982 L662.9434,48.6982 L672.9434,48.6982 L662.9434,38.6982 " fill="#FEFFDD" style="stroke:#181818;stroke-width:0.5;"/><text fill="#000000" font-family="sans-serif" font-size="13" lengthAdjust="spacing" textLength="289.8403" x="368.103" y="55.7651">Pracownik musi by&#263; zalogowany do systemu</text><ellipse cx="702.9434" cy="51.2646" fill="#222222" rx="10" ry="10" style="stroke:#222222;stroke-width:1;"/><rect fill="#F1F1F1" height="33.9688" rx="12.5" ry="12.5" style="stroke:#181818;stroke-width:0.5;" width="273.8164" x="566.0352" y="83.8311"/><text fill="#000000" font-family="sans-serif" font-size="12" lengthAdjust="spacing" textLength="253.8164" x="576.0352" y="104.9697">Menadzer wybiera opcj&#281; Wy&#347;wietl karnety</text><rect fill="#F1F1F1" height="33.9688" rx="12.5" ry="12.5" style="stroke:#181818;stroke-width:0.5;" width="276.998" x="564.4443" y="191.7686"/><text fill="#000000" font-family="sans-serif" font-size="12" lengthAdjust="spacing" textLength="256.998" x="574.4443" y="212.9072">Wybranie opcji "Generuj raport sprzedazy"</text><rect fill="#F1F1F1" height="33.9688" rx="12.5" ry="12.5" style="stroke:#181818;stroke-width:0.5;" width="215.9434" x="594.9717" y="343.7061"/><text fill="#000000" font-family="sans-serif" font-size="12" lengthAdjust="spacing" textLength="195.9434" x="604.9717" y="364.8447">Wybranie zakresu dat sprzedazy</text><rect fill="#F1F1F1" height="33.9688" rx="12.5" ry="12.5" style="stroke:#181818;stroke-width:0.5;" width="171.6289" x="617.1289" y="657.0146"/><text fill="#000000" font-family="sans-serif" font-size="12" lengthAdjust="spacing" textLength="151.6289" x="627.1289" y="678.1533">Wybranie opcji "Generuj"</text><polygon fill="#F1F1F1" points="639.2502,764.9521,766.6365,764.9521,778.6365,776.9521,766.6365,788.9521,639.2502,788.9521,627.2502,776.9521,639.2502,764.9521" style="stroke:#181818;stroke-width:0.5;"/><text fill="#000000" font-family="sans-serif" font-size="11" lengthAdjust="spacing" textLength="17.4238" x="706.9434" y="799.1626">tak</text><text fill="#000000" font-family="sans-serif" font-size="11" lengthAdjust="spacing" textLength="127.3862" x="639.2502" y="780.7603">Potwierdzenie wyboru?</text><text fill="#000000" font-family="sans-serif" font-size="11" lengthAdjust="spacing" textLength="16.7954" x="778.6365" y="774.3579">nie</text><polygon fill="#F1F1F1" points="702.9434,936.292,714.9434,948.292,702.9434,960.292,690.9434,948.292,702.9434,936.292" style="stroke:#181818;stroke-width:0.5;"/><line style="stroke:#000000;stroke-width:1.5;" x1="357.103" x2="357.103" y1="12.7451" y2="1002.292"/><line style="stroke:#000000;stroke-width:1.5;" x1="864.876" x2="864.876" y1="12.7451" y2="1002.292"/><line style="stroke:#181818;stroke-width:1;" x1="175.958" x2="175.958" y1="480.0459" y2="515.0459"/><polygon fill="#181818" points="171.958,505.0459,175.958,515.0459,179.958,505.0459,175.958,509.0459" style="stroke:#181818;stroke-width:1;"/><line style="stroke:#181818;stroke-width:1;" x1="175.958" x2="175.958" y1="421.6748" y2="446.0771"/><polygon fill="#181818" points="171.958,436.0771,175.958,446.0771,179.958,436.0771,175.958,440.0771" style="stroke:#181818;stroke-width:1;"/><line style="stroke:#181818;stroke-width:1;" x1="320.103" x2="332.103" y1="409.6748" y2="409.6748"/><polygon fill="#181818" points="328.103,487.5459,332.103,497.5459,336.103,487.5459,332.103,491.5459" style="stroke:#181818;stroke-width:1;"/><line style="stroke:#181818;stroke-width:1;" x1="332.103" x2="332.103" y1="409.6748" y2="581.0146"/><line style="stroke:#181818;stroke-width:1;" x1="332.103" x2="187.958" y1="581.0146" y2="581.0146"/><polygon fill="#181818" points="197.958,577.0146,187.958,581.0146,197.958,585.0146,193.958,581.0146" style="stroke:#181818;stroke-width:1;"/><line style="stroke:#181818;stroke-width:1;" x1="175.958" x2="175.958" y1="549.0146" y2="569.0146"/><polygon fill="#181818" points="171.958,559.0146,175.958,569.0146,179.958,559.0146,175.958,563.0146" style="stroke:#181818;stroke-width:1;"/><line style="stroke:#181818;stroke-width:1;" x1="320.103" x2="338.103" y1="625.0146" y2="625.0146"/><polygon fill="#181818" points="334.103,473.0615,338.103,463.0615,342.103,473.0615,338.103,469.0615" style="stroke:#181818;stroke-width:1;"/><line style="stroke:#181818;stroke-width:1;" x1="338.103" x2="338.103" y1="311.7061" y2="625.0146"/><line style="stroke:#181818;stroke-width:1;" x1="338.103" x2="187.958" y1="311.7061" y2="311.7061"/><polygon fill="#181818" points="197.958,307.7061,187.958,311.7061,197.958,315.7061,193.958,311.7061" style="stroke:#181818;stroke-width:1;"/><line style="stroke:#181818;stroke-width:1;" x1="175.958" x2="175.958" y1="593.0146" y2="613.0146"/><polygon fill="#181818" points="171.958,603.0146,175.958,613.0146,179.958,603.0146,175.958,607.0146" style="stroke:#181818;stroke-width:1;"/><line style="stroke:#181818;stroke-width:1;" x1="175.958" x2="175.958" y1="279.7061" y2="299.7061"/><polygon fill="#181818" points="171.958,289.7061,175.958,299.7061,179.958,289.7061,175.958,293.7061" style="stroke:#181818;stroke-width:1;"/><line style="stroke:#181818;stroke-width:1;" x1="175.958" x2="175.958" y1="847.3232" y2="882.3232"/><polygon fill="#181818" points="171.958,872.3232,175.958,882.3232,179.958,872.3232,175.958,876.3232" style="stroke:#181818;stroke-width:1;"/><line style="stroke:#181818;stroke-width:1;" x1="702.9434" x2="702.9434" y1="61.2646" y2="83.8311"/><polygon fill="#181818" points="698.9434,73.8311,702.9434,83.8311,706.9434,73.8311,702.9434,77.8311" style="stroke:#181818;stroke-width:1;"/><line style="stroke:#181818;stroke-width:1;" x1="778.6365" x2="845.876" y1="776.9521" y2="776.9521"/><polygon fill="#181818" points="841.876,854.8232,845.876,864.8232,849.876,854.8232,845.876,858.8232" style="stroke:#181818;stroke-width:1;"/><line style="stroke:#181818;stroke-width:1;" x1="845.876" x2="845.876" y1="776.9521" y2="948.292"/><line style="stroke:#181818;stroke-width:1;" x1="845.876" x2="714.9434" y1="948.292" y2="948.292"/><polygon fill="#181818" points="724.9434,944.292,714.9434,948.292,724.9434,952.292,720.9434,948.292" style="stroke:#181818;stroke-width:1;"/><line style="stroke:#181818;stroke-width:1;" x1="702.9434" x2="702.9434" y1="117.7998" y2="122.7998"/><line style="stroke:#181818;stroke-width:1;" x1="702.9434" x2="175.958" y1="122.7998" y2="122.7998"/><line style="stroke:#181818;stroke-width:1;" x1="175.958" x2="175.958" y1="122.7998" y2="137.7998"/><polygon fill="#181818" points="171.958,127.7998,175.958,137.7998,179.958,127.7998,175.958,131.7998" style="stroke:#181818;stroke-width:1;"/><line style="stroke:#181818;stroke-width:1;" x1="175.958" x2="175.958" y1="171.7686" y2="176.7686"/><line style="stroke:#181818;stroke-width:1;" x1="175.958" x2="702.9434" y1="176.7686" y2="176.7686"/><line style="stroke:#181818;stroke-width:1;" x1="702.9434" x2="702.9434" y1="176.7686" y2="191.7686"/><polygon fill="#181818" points="698.9434,181.7686,702.9434,191.7686,706.9434,181.7686,702.9434,185.7686" style="stroke:#181818;stroke-width:1;"/><line style="stroke:#181818;stroke-width:1;" x1="702.9434" x2="702.9434" y1="225.7373" y2="230.7373"/><line style="stroke:#181818;stroke-width:1;" x1="702.9434" x2="175.958" y1="230.7373" y2="230.7373"/><line style="stroke:#181818;stroke-width:1;" x1="175.958" x2="175.958" y1="230.7373" y2="245.7373"/><polygon fill="#181818" points="171.958,235.7373,175.958,245.7373,179.958,235.7373,175.958,239.7373" style="stroke:#181818;stroke-width:1;"/><line style="stroke:#181818;stroke-width:1;" x1="702.9434" x2="702.9434" y1="377.6748" y2="382.6748"/><line style="stroke:#181818;stroke-width:1;" x1="702.9434" x2="175.958" y1="382.6748" y2="382.6748"/><line style="stroke:#181818;stroke-width:1;" x1="175.958" x2="175.958" y1="382.6748" y2="397.6748"/><polygon fill="#181818" points="171.958,387.6748,175.958,397.6748,179.958,387.6748,175.958,391.6748" style="stroke:#181818;stroke-width:1;"/><line style="stroke:#181818;stroke-width:1;" x1="175.958" x2="175.958" y1="323.7061" y2="328.7061"/><line style="stroke:#181818;stroke-width:1;" x1="175.958" x2="702.9434" y1="328.7061" y2="328.7061"/><line style="stroke:#181818;stroke-width:1;" x1="702.9434" x2="702.9434" y1="328.7061" y2="343.7061"/><polygon fill="#181818" points="698.9434,333.7061,702.9434,343.7061,706.9434,333.7061,702.9434,337.7061" style="stroke:#181818;stroke-width:1;"/><line style="stroke:#181818;stroke-width:1;" x1="175.958" x2="175.958" y1="637.0146" y2="642.0146"/><line style="stroke:#181818;stroke-width:1;" x1="175.958" x2="702.9434" y1="642.0146" y2="642.0146"/><line style="stroke:#181818;stroke-width:1;" x1="702.9434" x2="702.9434" y1="642.0146" y2="657.0146"/><polygon fill="#181818" points="698.9434,647.0146,702.9434,657.0146,706.9434,647.0146,702.9434,651.0146" style="stroke:#181818;stroke-width:1;"/><line style="stroke:#181818;stroke-width:1;" x1="702.9434" x2="702.9434" y1="690.9834" y2="695.9834"/><line style="stroke:#181818;stroke-width:1;" x1="702.9434" x2="175.958" y1="695.9834" y2="695.9834"/><line style="stroke:#181818;stroke-width:1;" x1="175.958" x2="175.958" y1="695.9834" y2="710.9834"/><polygon fill="#181818" points="171.958,700.9834,175.958,710.9834,179.958,700.9834,175.958,704.9834" style="stroke:#181818;stroke-width:1;"/><line style="stroke:#181818;stroke-width:1;" x1="702.9434" x2="702.9434" y1="788.9521" y2="801.1533"/><line style="stroke:#181818;stroke-width:1;" x1="702.9434" x2="175.958" y1="801.1533" y2="801.1533"/><line style="stroke:#181818;stroke-width:1;" x1="175.958" x2="175.958" y1="801.1533" y2="813.3545"/><polygon fill="#181818" points="171.958,803.3545,175.958,813.3545,179.958,803.3545,175.958,807.3545" style="stroke:#181818;stroke-width:1;"/><line style="stroke:#181818;stroke-width:1;" x1="175.958" x2="175.958" y1="916.292" y2="924.0908"/><line style="stroke:#181818;stroke-width:1;" x1="175.958" x2="702.9434" y1="924.0908" y2="924.0908"/><line style="stroke:#181818;stroke-width:1;" x1="702.9434" x2="702.9434" y1="924.0908" y2="936.292"/><polygon fill="#181818" points="698.9434,926.292,702.9434,936.292,706.9434,926.292,702.9434,930.292" style="stroke:#181818;stroke-width:1;"/><line style="stroke:#181818;stroke-width:1;" x1="175.958" x2="175.958" y1="744.9521" y2="749.9521"/><line style="stroke:#181818;stroke-width:1;" x1="175.958" x2="702.9434" y1="749.9521" y2="749.9521"/><line style="stroke:#181818;stroke-width:1;" x1="702.9434" x2="702.9434" y1="749.9521" y2="764.9521"/><polygon fill="#181818" points="698.9434,754.9521,702.9434,764.9521,706.9434,754.9521,702.9434,758.9521" style="stroke:#181818;stroke-width:1;"/><line style="stroke:#181818;stroke-width:1;" x1="702.9434" x2="702.9434" y1="960.292" y2="965.292"/><line style="stroke:#181818;stroke-width:1;" x1="702.9434" x2="175.958" y1="965.292" y2="965.292"/><line style="stroke:#181818;stroke-width:1;" x1="175.958" x2="175.958" y1="965.292" y2="980.292"/><polygon fill="#181818" points="171.958,970.292,175.958,980.292,179.958,970.292,175.958,974.292" style="stroke:#181818;stroke-width:1;"/><text fill="#000000" font-family="sans-serif" font-size="18" lengthAdjust="spacing" textLength="65.0742" x="153.5144" y="29.4531">system</text><text fill="#000000" font-family="sans-serif" font-size="18" lengthAdjust="spacing" textLength="86.4668" x="567.7561" y="29.4531">kierownik</text><!--SRC=[bL9BRjj03DtFAGYld2lOYsuAT1N0cw9hsgASyKWp0mu5GO9MHOAUmSWnSeJ8zoedKbqbwLShWKE-7pca8NL9g3Q36vmb3gstpfWao0Ach0AAzKVmGGWgAcK3EyR3InVKJRAmxyPlq6CLZg55tq4HO49ipEQMF1OzCRJTNh4HGZoSnZDywIwFhIMfm25xacvh3CpVa8Rh_-RQIDuglqtIGJyFOMstFwVSgwazOnx8T1PMdyWJDoTWZ45TfSWz5TXtg-s_i4uWPU2wgP1xL06vfFGpO3F1C4L2-OkY7XrJQg30XOxtCcm9wuye234S-l51d6OB7fECvzYSICkAS50y5oxtkWqwVRW1kICFQq5tOtvXOt_vEfwBMUiFdiqkjFpy97bhkgF0pLBXr4jLehKYJAZa2rik_49xPolwRx5c6T7l5hPw8_RDNfpFbA8LrYFp5hUlK7E6kyKppGxV9tKb-2njuAatLjPf6FEAgSu9nV0YS-PHESUiCvzz7bWgKIDwxkhbpn4c2T6Oxm00]--></g></svg>