<svg xmlns="http://www.w3.org/2000/svg" xmlns:xlink="http://www.w3.org/1999/xlink" contentStyleType="text/css" data-diagram-type="CLASS" height="332px" preserveAspectRatio="none" style="width:1090px;height:332px;background:#FFFFFF;" version="1.1" viewBox="0 0 1090 332" width="1090px" zoomAndPan="magnify"><defs/><g><!--class User--><g id="elem_User"><rect codeLine="1" fill="#F1F1F1" height="129.4844" id="User" rx="2.5" ry="2.5" style="stroke:#181818;stroke-width:0.5;" width="236.4307" x="135" y="7"/><ellipse cx="233.0103" cy="23" fill="#A9DCDF" rx="11" ry="11" style="stroke:#181818;stroke-width:1;"/><path d="M233.1196,18.3438 L231.9634,23.4219 L234.2915,23.4219 L233.1196,18.3438 Z M231.6353,16.1094 L234.6196,16.1094 L237.979,28.5 L235.5259,28.5 L234.7603,25.4375 L231.479,25.4375 L230.729,28.5 L228.2915,28.5 L231.6353,16.1094 Z " fill="#000000"/><text fill="#000000" font-family="sans-serif" font-size="14" font-style="italic" lengthAdjust="spacing" textLength="31.9102" x="253.5103" y="27.8467">User</text><line style="stroke:#181818;stroke-width:0.5;" x1="136" x2="370.4307" y1="39" y2="39"/><rect fill="#FFFFFF" fill-opacity="0.00000" height="6" style="stroke:#C82930;stroke-width:1;" width="6" x="143" y="49.6484"/><text fill="#000000" font-family="sans-serif" font-size="14" lengthAdjust="spacing" textLength="122.4658" x="155" y="55.9951">firstName : string</text><rect fill="#FFFFFF" fill-opacity="0.00000" height="6" style="stroke:#C82930;stroke-width:1;" width="6" x="143" y="65.9453"/><text fill="#000000" font-family="sans-serif" font-size="14" lengthAdjust="spacing" textLength="115.9102" x="155" y="72.292">lastName: string</text><rect fill="#FFFFFF" fill-opacity="0.00000" height="6" style="stroke:#C82930;stroke-width:1;" width="6" x="143" y="82.2422"/><text fill="#000000" font-family="sans-serif" font-size="14" lengthAdjust="spacing" textLength="87.9648" x="155" y="88.5889">email: string</text><line style="stroke:#181818;stroke-width:1;" x1="136" x2="370.4307" y1="95.8906" y2="95.8906"/><ellipse cx="146" cy="109.5391" fill="#84BE84" rx="3" ry="3" style="stroke:#038048;stroke-width:1;"/><text fill="#000000" font-family="sans-serif" font-size="14" font-style="italic" lengthAdjust="spacing" textLength="154.6836" x="155" y="112.8857">accept(visitor: Visitor)</text><text fill="#000000" font-family="sans-serif" font-size="14" lengthAdjust="spacing" textLength="210.4307" x="155" y="129.1826">// constructor, getters, setters</text></g><!--class Client--><g id="elem_Client"><rect codeLine="10" fill="#F1F1F1" height="113.1875" id="Client" rx="2.5" ry="2.5" style="stroke:#181818;stroke-width:0.5;" width="236.4307" x="7" y="204.63"/><ellipse cx="100.7002" cy="220.63" fill="#ADD1B2" rx="11" ry="11" style="stroke:#181818;stroke-width:1;"/><path d="M103.6689,226.2706 Q103.0908,226.5675 102.4502,226.7081 Q101.8096,226.8644 101.1064,226.8644 Q98.6064,226.8644 97.2783,225.2238 Q95.9658,223.5675 95.9658,220.4425 Q95.9658,217.3175 97.2783,215.6613 Q98.6064,214.005 101.1064,214.005 Q101.8096,214.005 102.4502,214.1613 Q103.1064,214.3175 103.6689,214.6144 L103.6689,217.3331 Q103.0439,216.755 102.4502,216.4894 Q101.8564,216.2081 101.2314,216.2081 Q99.8877,216.2081 99.2002,217.2863 Q98.5127,218.3488 98.5127,220.4425 Q98.5127,222.5363 99.2002,223.6144 Q99.8877,224.6769 101.2314,224.6769 Q101.8564,224.6769 102.4502,224.4113 Q103.0439,224.13 103.6689,223.5519 L103.6689,226.2706 Z " fill="#000000"/><text fill="#000000" font-family="sans-serif" font-size="14" lengthAdjust="spacing" textLength="40.5303" x="121.2002" y="225.4767">Client</text><line style="stroke:#181818;stroke-width:0.5;" x1="8" x2="242.4307" y1="236.63" y2="236.63"/><rect fill="#FFFFFF" fill-opacity="0.00000" height="6" style="stroke:#C82930;stroke-width:1;" width="6" x="15" y="247.2784"/><text fill="#000000" font-family="sans-serif" font-size="14" lengthAdjust="spacing" textLength="87.8213" x="27" y="253.6251">weight: float</text><rect fill="#FFFFFF" fill-opacity="0.00000" height="6" style="stroke:#C82930;stroke-width:1;" width="6" x="15" y="263.5753"/><text fill="#000000" font-family="sans-serif" font-size="14" lengthAdjust="spacing" textLength="85.2441" x="27" y="269.922">height: float</text><line style="stroke:#181818;stroke-width:1;" x1="8" x2="242.4307" y1="277.2238" y2="277.2238"/><ellipse cx="18" cy="290.8722" fill="#84BE84" rx="3" ry="3" style="stroke:#038048;stroke-width:1;"/><text fill="#000000" font-family="sans-serif" font-size="14" lengthAdjust="spacing" textLength="154.6836" x="27" y="294.2189">accept(visitor: Visitor)</text><text fill="#000000" font-family="sans-serif" font-size="14" lengthAdjust="spacing" textLength="210.4307" x="27" y="310.5157">// constructor, getters, setters</text></g><!--class Trainer--><g id="elem_Trainer"><rect codeLine="18" fill="#F1F1F1" height="96.8906" id="Trainer" rx="2.5" ry="2.5" style="stroke:#181818;stroke-width:0.5;" width="236.4307" x="549" y="212.78"/><ellipse cx="637.9561" cy="228.78" fill="#ADD1B2" rx="11" ry="11" style="stroke:#181818;stroke-width:1;"/><path d="M640.9248,234.4206 Q640.3467,234.7175 639.7061,234.8581 Q639.0654,235.0144 638.3623,235.0144 Q635.8623,235.0144 634.5342,233.3738 Q633.2217,231.7175 633.2217,228.5925 Q633.2217,225.4675 634.5342,223.8113 Q635.8623,222.155 638.3623,222.155 Q639.0654,222.155 639.7061,222.3113 Q640.3623,222.4675 640.9248,222.7644 L640.9248,225.4831 Q640.2998,224.905 639.7061,224.6394 Q639.1123,224.3581 638.4873,224.3581 Q637.1436,224.3581 636.4561,225.4363 Q635.7686,226.4988 635.7686,228.5925 Q635.7686,230.6863 636.4561,231.7644 Q637.1436,232.8269 638.4873,232.8269 Q639.1123,232.8269 639.7061,232.5613 Q640.2998,232.28 640.9248,231.7019 L640.9248,234.4206 Z " fill="#000000"/><text fill="#000000" font-family="sans-serif" font-size="14" lengthAdjust="spacing" textLength="50.0186" x="658.4561" y="233.6267">Trainer</text><line style="stroke:#181818;stroke-width:0.5;" x1="550" x2="784.4307" y1="244.78" y2="244.78"/><rect fill="#FFFFFF" fill-opacity="0.00000" height="6" style="stroke:#C82930;stroke-width:1;" width="6" x="557" y="255.4284"/><text fill="#000000" font-family="sans-serif" font-size="14" lengthAdjust="spacing" textLength="114.7959" x="569" y="261.7751">expertise: string</text><line style="stroke:#181818;stroke-width:1;" x1="550" x2="784.4307" y1="269.0769" y2="269.0769"/><ellipse cx="560" cy="282.7253" fill="#84BE84" rx="3" ry="3" style="stroke:#038048;stroke-width:1;"/><text fill="#000000" font-family="sans-serif" font-size="14" lengthAdjust="spacing" textLength="154.6836" x="569" y="286.072">accept(visitor: Visitor)</text><text fill="#000000" font-family="sans-serif" font-size="14" lengthAdjust="spacing" textLength="210.4307" x="569" y="302.3689">// constructor, getters, setters</text></g><!--class Worker--><g id="elem_Worker"><rect codeLine="25" fill="#F1F1F1" height="113.1875" id="Worker" rx="2.5" ry="2.5" style="stroke:#181818;stroke-width:0.5;" width="236.4307" x="278" y="204.63"/><ellipse cx="366.645" cy="220.63" fill="#ADD1B2" rx="11" ry="11" style="stroke:#181818;stroke-width:1;"/><path d="M369.6138,226.2706 Q369.0356,226.5675 368.395,226.7081 Q367.7544,226.8644 367.0513,226.8644 Q364.5513,226.8644 363.2231,225.2238 Q361.9106,223.5675 361.9106,220.4425 Q361.9106,217.3175 363.2231,215.6613 Q364.5513,214.005 367.0513,214.005 Q367.7544,214.005 368.395,214.1613 Q369.0513,214.3175 369.6138,214.6144 L369.6138,217.3331 Q368.9888,216.755 368.395,216.4894 Q367.8013,216.2081 367.1763,216.2081 Q365.8325,216.2081 365.145,217.2863 Q364.4575,218.3488 364.4575,220.4425 Q364.4575,222.5363 365.145,223.6144 Q365.8325,224.6769 367.1763,224.6769 Q367.8013,224.6769 368.395,224.4113 Q368.9888,224.13 369.6138,223.5519 L369.6138,226.2706 Z " fill="#000000"/><text fill="#000000" font-family="sans-serif" font-size="14" lengthAdjust="spacing" textLength="50.6406" x="387.145" y="225.4767">Worker</text><line style="stroke:#181818;stroke-width:0.5;" x1="279" x2="513.4307" y1="236.63" y2="236.63"/><rect fill="#FFFFFF" fill-opacity="0.00000" height="6" style="stroke:#C82930;stroke-width:1;" width="6" x="286" y="247.2784"/><text fill="#000000" font-family="sans-serif" font-size="14" lengthAdjust="spacing" textLength="132.1797" x="298" y="253.6251">department: string</text><rect fill="#FFFFFF" fill-opacity="0.00000" height="6" style="stroke:#C82930;stroke-width:1;" width="6" x="286" y="263.5753"/><text fill="#000000" font-family="sans-serif" font-size="14" lengthAdjust="spacing" textLength="83.002" x="298" y="269.922">salary: float</text><line style="stroke:#181818;stroke-width:1;" x1="279" x2="513.4307" y1="277.2238" y2="277.2238"/><ellipse cx="289" cy="290.8722" fill="#84BE84" rx="3" ry="3" style="stroke:#038048;stroke-width:1;"/><text fill="#000000" font-family="sans-serif" font-size="14" lengthAdjust="spacing" textLength="154.6836" x="298" y="294.2189">accept(visitor: Visitor)</text><text fill="#000000" font-family="sans-serif" font-size="14" lengthAdjust="spacing" textLength="210.4307" x="298" y="310.5157">// constructor, getters, setters</text></g><!--class Visitor--><g id="elem_Visitor"><rect codeLine="33" fill="#F1F1F1" height="96.8906" id="Visitor" rx="2.5" ry="2.5" style="stroke:#181818;stroke-width:0.5;" width="263.2617" x="406.58" y="23.3"/><ellipse cx="511.7304" cy="39.3" fill="#B4A7E5" rx="11" ry="11" style="stroke:#181818;stroke-width:1;"/><path d="M507.6523,35.0656 L507.6523,32.9094 L515.0429,32.9094 L515.0429,35.0656 L512.5741,35.0656 L512.5741,43.1438 L515.0429,43.1438 L515.0429,45.3 L507.6523,45.3 L507.6523,43.1438 L510.121,43.1438 L510.121,35.0656 L507.6523,35.0656 Z " fill="#000000"/><text fill="#000000" font-family="sans-serif" font-size="14" font-style="italic" lengthAdjust="spacing" textLength="44.4609" x="532.2304" y="44.1467">Visitor</text><line style="stroke:#181818;stroke-width:0.5;" x1="407.58" x2="668.8417" y1="55.3" y2="55.3"/><line style="stroke:#181818;stroke-width:0.5;" x1="407.58" x2="668.8417" y1="63.3" y2="63.3"/><ellipse cx="417.58" cy="76.9484" fill="#84BE84" rx="3" ry="3" style="stroke:#038048;stroke-width:1;"/><text fill="#000000" font-family="sans-serif" font-size="14" lengthAdjust="spacing" textLength="207.2451" x="426.58" y="80.2951">visitClient(client: Client): void</text><ellipse cx="417.58" cy="93.2453" fill="#84BE84" rx="3" ry="3" style="stroke:#038048;stroke-width:1;"/><text fill="#000000" font-family="sans-serif" font-size="14" lengthAdjust="spacing" textLength="237.2617" x="426.58" y="96.592">visitWorker(worker: Worker): void</text><ellipse cx="417.58" cy="109.5422" fill="#84BE84" rx="3" ry="3" style="stroke:#038048;stroke-width:1;"/><text fill="#000000" font-family="sans-serif" font-size="14" lengthAdjust="spacing" textLength="234.7256" x="426.58" y="112.8889">visitTrainer(trainer: Trainer): void</text></g><!--class JSONExportVisitor--><g id="elem_JSONExportVisitor"><rect codeLine="39" fill="#F1F1F1" height="129.4844" id="JSONExportVisitor" rx="2.5" ry="2.5" style="stroke:#181818;stroke-width:0.5;" width="263.2617" x="820.58" y="196.49"/><ellipse cx="885.5624" cy="212.49" fill="#ADD1B2" rx="11" ry="11" style="stroke:#181818;stroke-width:1;"/><path d="M888.5312,218.1306 Q887.953,218.4275 887.3124,218.5681 Q886.6718,218.7244 885.9687,218.7244 Q883.4687,218.7244 882.1405,217.0838 Q880.828,215.4275 880.828,212.3025 Q880.828,209.1775 882.1405,207.5213 Q883.4687,205.865 885.9687,205.865 Q886.6718,205.865 887.3124,206.0213 Q887.9687,206.1775 888.5312,206.4744 L888.5312,209.1931 Q887.9062,208.615 887.3124,208.3494 Q886.7187,208.0681 886.0937,208.0681 Q884.7499,208.0681 884.0624,209.1463 Q883.3749,210.2088 883.3749,212.3025 Q883.3749,214.3963 884.0624,215.4744 Q884.7499,216.5369 886.0937,216.5369 Q886.7187,216.5369 887.3124,216.2713 Q887.9062,215.99 888.5312,215.4119 L888.5312,218.1306 Z " fill="#000000"/><text fill="#000000" font-family="sans-serif" font-size="14" lengthAdjust="spacing" textLength="124.7969" x="906.0624" y="217.3367">JSONExportVisitor</text><line style="stroke:#181818;stroke-width:0.5;" x1="821.58" x2="1082.8417" y1="228.49" y2="228.49"/><rect fill="#FFFFFF" fill-opacity="0.00000" height="6" style="stroke:#C82930;stroke-width:1;" width="6" x="828.58" y="239.1384"/><text fill="#000000" font-family="sans-serif" font-size="14" lengthAdjust="spacing" textLength="157.8418" x="840.58" y="245.4851">jsonObject: JsonObject</text><line style="stroke:#181818;stroke-width:0.5;" x1="821.58" x2="1082.8417" y1="252.7869" y2="252.7869"/><ellipse cx="831.58" cy="266.4353" fill="#84BE84" rx="3" ry="3" style="stroke:#038048;stroke-width:1;"/><text fill="#000000" font-family="sans-serif" font-size="14" lengthAdjust="spacing" textLength="207.2451" x="840.58" y="269.782">visitClient(client: Client): void</text><ellipse cx="831.58" cy="282.7322" fill="#84BE84" rx="3" ry="3" style="stroke:#038048;stroke-width:1;"/><text fill="#000000" font-family="sans-serif" font-size="14" lengthAdjust="spacing" textLength="237.2617" x="840.58" y="286.0789">visitWorker(worker: Worker): void</text><ellipse cx="831.58" cy="299.0291" fill="#84BE84" rx="3" ry="3" style="stroke:#038048;stroke-width:1;"/><text fill="#000000" font-family="sans-serif" font-size="14" lengthAdjust="spacing" textLength="234.7256" x="840.58" y="302.3757">visitTrainer(trainer: Trainer): void</text><ellipse cx="831.58" cy="315.3259" fill="#84BE84" rx="3" ry="3" style="stroke:#038048;stroke-width:1;"/><text fill="#000000" font-family="sans-serif" font-size="14" lengthAdjust="spacing" textLength="116.1152" x="840.58" y="318.6726">toString(): string</text></g><!--reverse link User to Client--><g id="link_User_Client"><path codeLine="47" d="M199.372,151.6066 C184.382,173.5666 177.88,183.09 163.36,204.35 " fill="#FFFFFF" fill-opacity="0.00000" id="User-backto-Client" style="stroke:#181818;stroke-width:1;"/><polygon fill="#FFFFFF" fill-opacity="0.00000" points="209.52,136.74,194.4164,148.224,204.3275,154.9893,209.52,136.74" style="stroke:#181818;stroke-width:1;"/></g><!--reverse link User to Worker--><g id="link_User_Worker"><path codeLine="48" d="M312.9464,151.0519 C329.6964,173.0119 337.38,183.09 353.6,204.35 " fill="#FFFFFF" fill-opacity="0.00000" id="User-backto-Worker" style="stroke:#181818;stroke-width:1;"/><polygon fill="#FFFFFF" fill-opacity="0.00000" points="302.03,136.74,308.1758,154.6907,317.7171,147.4131,302.03,136.74" style="stroke:#181818;stroke-width:1;"/></g><!--reverse link Worker to Trainer--><g id="link_Worker_Trainer"><path codeLine="49" d="M532.78,261.23 C544.09,261.23 537.41,261.23 548.72,261.23 " fill="#FFFFFF" fill-opacity="0.00000" id="Worker-backto-Trainer" style="stroke:#181818;stroke-width:1;"/><polygon fill="#FFFFFF" fill-opacity="0.00000" points="514.78,261.23,532.78,267.23,532.78,255.23,514.78,261.23" style="stroke:#181818;stroke-width:1;"/></g><!--link User to Visitor--><g id="link_User_Visitor"><path codeLine="51" d="M371.78,71.74 C383.27,71.74 388.75,71.74 400.24,71.74 " fill="#FFFFFF" fill-opacity="0.00000" id="User-to-Visitor" style="stroke:#181818;stroke-width:1;stroke-dasharray:7.0,7.0;"/><polygon fill="#181818" points="406.24,71.74,397.24,67.74,401.24,71.74,397.24,75.74,406.24,71.74" style="stroke:#181818;stroke-width:1;"/></g><!--link Visitor to Client--><g id="link_Visitor_Client"><path codeLine="52" d="M429.04,120.67 C377.68,143.38 315.68,171.05 260.22,196.49 C254.68,199.02 254.4624,199.1042 248.7524,201.7542 " fill="#FFFFFF" fill-opacity="0.00000" id="Visitor-to-Client" style="stroke:#181818;stroke-width:1;stroke-dasharray:7.0,7.0;"/><polygon fill="#181818" points="243.31,204.28,253.1576,204.1196,247.8454,202.1751,249.7898,196.863,243.31,204.28" style="stroke:#181818;stroke-width:1;"/></g><!--link Visitor to Worker--><g id="link_Visitor_Worker"><path codeLine="53" d="M502.02,120.54 C482.71,146.03 462.4521,172.7666 442.2721,199.4166 " fill="#FFFFFF" fill-opacity="0.00000" id="Visitor-to-Worker" style="stroke:#181818;stroke-width:1;stroke-dasharray:7.0,7.0;"/><polygon fill="#181818" points="438.65,204.2,447.272,199.4397,441.6684,200.2139,440.8942,194.6102,438.65,204.2" style="stroke:#181818;stroke-width:1;"/></g><!--link Visitor to Trainer--><g id="link_Visitor_Trainer"><path codeLine="54" d="M571.1,120.54 C590.51,148.75 611.5885,179.3873 630.9885,207.5773 " fill="#FFFFFF" fill-opacity="0.00000" id="Visitor-to-Trainer" style="stroke:#181818;stroke-width:1;stroke-dasharray:7.0,7.0;"/><polygon fill="#181818" points="634.39,212.52,632.5829,202.8383,631.5554,208.4011,625.9927,207.3737,634.39,212.52" style="stroke:#181818;stroke-width:1;"/></g><!--reverse link Visitor to JSONExportVisitor--><g id="link_Visitor_JSONExportVisitor"><path codeLine="56" d="M660.4176,128.0843 C714.0876,152.3843 763.39,174.71 820.32,200.5 " fill="#FFFFFF" fill-opacity="0.00000" id="Visitor-backto-JSONExportVisitor" style="stroke:#181818;stroke-width:1;stroke-dasharray:7.0,7.0;"/><polygon fill="#FFFFFF" fill-opacity="0.00000" points="644.02,120.66,657.9428,133.5501,662.8923,122.6184,644.02,120.66" style="stroke:#181818;stroke-width:1;"/></g><!--SRC=[nPCzRy8m48Rt_8eRWo1Xjr2NgWi33FHZFim1faaSsLUW0lvxZJ_IK5QaBh7rwCtTU-ybkBHiK3B82gs5Dqi6JXb00MjbBC-m9X3WDAhPUEnadjv0gb5LVLAunn1E6AjV0AMablEziegr4V0UBWEd6uz1wiO9lwGZ8zWGCnax0XiksINBWhldIb73qT-1r6RB0jQLHlPa-vS45mzf_MfGDLqsT6p9iB9qF_D3kdreyzarMr6BXcit-Ktc5Yiqtu-ULZNkjaP9wKLlOWY-NiW_b_uGSHq30NkjLh-gO3u_-4F4MUvKCT2SmobImadOPJ5Tp6SlnrORxZigO6TrCr_kI3edq-x-FsQlGjOBlvnyqAt9pU1_gCcvAAA17WYzihXhXypryorIxVXkwMdvbFQHfHHAnsBDFefL-wWhcE3aN9RtkVu0]--></g></svg>