<svg xmlns="http://www.w3.org/2000/svg" xmlns:xlink="http://www.w3.org/1999/xlink" contentStyleType="text/css" data-diagram-type="SEQUENCE" height="619px" preserveAspectRatio="none" style="width:997px;height:619px;background:#FFFFFF;" version="1.1" viewBox="0 0 997 619" width="997px" zoomAndPan="magnify"><defs/><g><rect fill="#FFFFFF" fill-opacity="0.00000" height="248.8672" style="stroke:#000000;stroke-width:1.5;" width="980.5459" x="10" y="273.0938"/><g><title>Klient</title><rect fill="#FFFFFF" fill-opacity="0.00000" height="457.6641" width="8" x="38.9678" y="81.2969"/><line style="stroke:#181818;stroke-width:0.5;stroke-dasharray:5.0,5.0;" x1="42" x2="42" y1="81.2969" y2="538.9609"/></g><g><title>GUI</title><rect fill="#FFFFFF" fill-opacity="0.00000" height="457.6641" width="8" x="443.3447" y="81.2969"/><line style="stroke:#181818;stroke-width:0.5;stroke-dasharray:5.0,5.0;" x1="446.7324" x2="446.7324" y1="81.2969" y2="538.9609"/></g><g><title>Pracownik</title><rect fill="#FFFFFF" fill-opacity="0.00000" height="457.6641" width="8" x="633.9009" y="81.2969"/><line style="stroke:#181818;stroke-width:0.5;stroke-dasharray:5.0,5.0;" x1="637.2207" x2="637.2207" y1="81.2969" y2="538.9609"/></g><g><title>SystemPlatnosci</title><rect fill="#FFFFFF" fill-opacity="0.00000" height="457.6641" width="8" x="812.5806" y="81.2969"/><line style="stroke:#181818;stroke-width:0.5;stroke-dasharray:5.0,5.0;" x1="816.1177" x2="816.1177" y1="81.2969" y2="538.9609"/></g><text fill="#000000" font-family="sans-serif" font-size="14" lengthAdjust="spacing" textLength="39.9355" x="20" y="77.9951">Klient</text><ellipse cx="42.9678" cy="13.5" fill="#E2E2F0" rx="8" ry="8" style="stroke:#181818;stroke-width:0.5;"/><path d="M42.9678,21.5 L42.9678,48.5 M29.9678,29.5 L55.9678,29.5 M42.9678,48.5 L29.9678,63.5 M42.9678,48.5 L55.9678,63.5 " fill="#FFFFFF" fill-opacity="0.00000" style="stroke:#181818;stroke-width:0.5;"/><text fill="#000000" font-family="sans-serif" font-size="14" lengthAdjust="spacing" textLength="39.9355" x="20" y="550.9561">Klient</text><ellipse cx="42.9678" cy="562.7578" fill="#E2E2F0" rx="8" ry="8" style="stroke:#181818;stroke-width:0.5;"/><path d="M42.9678,570.7578 L42.9678,597.7578 M29.9678,578.7578 L55.9678,578.7578 M42.9678,597.7578 L29.9678,612.7578 M42.9678,597.7578 L55.9678,612.7578 " fill="#FFFFFF" fill-opacity="0.00000" style="stroke:#181818;stroke-width:0.5;"/><rect fill="#E2E2F0" height="30.2969" rx="2.5" ry="2.5" style="stroke:#181818;stroke-width:0.5;" width="39.2246" x="427.7324" y="50"/><text fill="#000000" font-family="sans-serif" font-size="14" lengthAdjust="spacing" textLength="25.2246" x="434.7324" y="69.9951">GUI</text><rect fill="#E2E2F0" height="30.2969" rx="2.5" ry="2.5" style="stroke:#181818;stroke-width:0.5;" width="39.2246" x="427.7324" y="537.9609"/><text fill="#000000" font-family="sans-serif" font-size="14" lengthAdjust="spacing" textLength="25.2246" x="434.7324" y="557.9561">GUI</text><rect fill="#E2E2F0" height="30.2969" rx="2.5" ry="2.5" style="stroke:#181818;stroke-width:0.5;" width="85.3604" x="595.2207" y="50"/><text fill="#000000" font-family="sans-serif" font-size="14" lengthAdjust="spacing" textLength="71.3604" x="602.2207" y="69.9951">Pracownik</text><rect fill="#E2E2F0" height="30.2969" rx="2.5" ry="2.5" style="stroke:#181818;stroke-width:0.5;" width="85.3604" x="595.2207" y="537.9609"/><text fill="#000000" font-family="sans-serif" font-size="14" lengthAdjust="spacing" textLength="71.3604" x="602.2207" y="557.9561">Pracownik</text><rect fill="#E2E2F0" height="30.2969" rx="2.5" ry="2.5" style="stroke:#181818;stroke-width:0.5;" width="128.9258" x="752.1177" y="50"/><text fill="#000000" font-family="sans-serif" font-size="14" lengthAdjust="spacing" textLength="114.9258" x="759.1177" y="69.9951">SystemPlatnosci</text><rect fill="#E2E2F0" height="30.2969" rx="2.5" ry="2.5" style="stroke:#181818;stroke-width:0.5;" width="128.9258" x="752.1177" y="537.9609"/><text fill="#000000" font-family="sans-serif" font-size="14" lengthAdjust="spacing" textLength="114.9258" x="759.1177" y="557.9561">SystemPlatnosci</text><polygon fill="#181818" points="435.3447,108.4297,445.3447,112.4297,435.3447,116.4297,439.3447,112.4297" style="stroke:#181818;stroke-width:1;"/><line style="stroke:#181818;stroke-width:1;" x1="42.9678" x2="441.3447" y1="112.4297" y2="112.4297"/><text fill="#000000" font-family="sans-serif" font-size="13" lengthAdjust="spacing" textLength="189.1094" x="49.9678" y="107.3638">pro&#347;ba o wykupienie karnetu</text><polygon fill="#181818" points="625.9009,137.5625,635.9009,141.5625,625.9009,145.5625,629.9009,141.5625" style="stroke:#181818;stroke-width:1;"/><line style="stroke:#181818;stroke-width:1;" x1="447.3447" x2="631.9009" y1="141.5625" y2="141.5625"/><text fill="#000000" font-family="sans-serif" font-size="13" lengthAdjust="spacing" textLength="126.9531" x="454.3447" y="136.4966">przekazanie pro&#347;by</text><polygon fill="#181818" points="458.3447,166.6953,448.3447,170.6953,458.3447,174.6953,454.3447,170.6953" style="stroke:#181818;stroke-width:1;"/><line style="stroke:#181818;stroke-width:1;" x1="452.3447" x2="636.9009" y1="170.6953" y2="170.6953"/><text fill="#000000" font-family="sans-serif" font-size="13" lengthAdjust="spacing" textLength="122.7065" x="464.3447" y="165.6294">wy&#347;wietl formularz</text><polygon fill="#181818" points="435.3447,195.8281,445.3447,199.8281,435.3447,203.8281,439.3447,199.8281" style="stroke:#181818;stroke-width:1;"/><line style="stroke:#181818;stroke-width:1;" x1="42.9678" x2="441.3447" y1="199.8281" y2="199.8281"/><text fill="#000000" font-family="sans-serif" font-size="13" lengthAdjust="spacing" textLength="124.7441" x="49.9678" y="194.7622">wype&#322;nia formularz</text><polygon fill="#181818" points="625.9009,224.9609,635.9009,228.9609,625.9009,232.9609,629.9009,228.9609" style="stroke:#181818;stroke-width:1;"/><line style="stroke:#181818;stroke-width:1;" x1="447.3447" x2="631.9009" y1="228.9609" y2="228.9609"/><text fill="#000000" font-family="sans-serif" font-size="13" lengthAdjust="spacing" textLength="166.5562" x="454.3447" y="223.895">przes&#322;anie danych klienta</text><polygon fill="#181818" points="804.5806,254.0938,814.5806,258.0938,804.5806,262.0938,808.5806,258.0938" style="stroke:#181818;stroke-width:1;"/><line style="stroke:#181818;stroke-width:1;" x1="637.9009" x2="810.5806" y1="258.0938" y2="258.0938"/><text fill="#000000" font-family="sans-serif" font-size="13" lengthAdjust="spacing" textLength="137.7949" x="644.9009" y="253.0278">inicjalizacja p&#322;atno&#347;ci</text><path d="M10,273.0938 L74.4429,273.0938 L74.4429,280.2266 L64.4429,290.2266 L10,290.2266 L10,273.0938 " fill="#EEEEEE" style="stroke:#000000;stroke-width:1.5;"/><rect fill="#FFFFFF" fill-opacity="0.00000" height="248.8672" style="stroke:#000000;stroke-width:1.5;" width="980.5459" x="10" y="273.0938"/><text fill="#000000" font-family="sans-serif" font-size="13" font-weight="bold" lengthAdjust="spacing" textLength="19.4429" x="25" y="286.1606">alt</text><text fill="#000000" font-family="sans-serif" font-size="11" font-weight="bold" lengthAdjust="spacing" textLength="163.0503" x="89.4429" y="285.3042">[p&#322;atno&#347;&#263; zaakceptowana]</text><line style="stroke:#181818;stroke-width:1;" x1="816.5806" x2="858.5806" y1="311.3594" y2="311.3594"/><line style="stroke:#181818;stroke-width:1;" x1="858.5806" x2="858.5806" y1="311.3594" y2="324.3594"/><line style="stroke:#181818;stroke-width:1;" x1="817.5806" x2="858.5806" y1="324.3594" y2="324.3594"/><polygon fill="#181818" points="827.5806,320.3594,817.5806,324.3594,827.5806,328.3594,823.5806,324.3594" style="stroke:#181818;stroke-width:1;"/><text fill="#000000" font-family="sans-serif" font-size="13" lengthAdjust="spacing" textLength="154.9653" x="823.5806" y="306.2935">przetwarzanie p&#322;atno&#347;ci</text><polygon fill="#181818" points="648.9009,349.4922,638.9009,353.4922,648.9009,357.4922,644.9009,353.4922" style="stroke:#181818;stroke-width:1;"/><line style="stroke:#181818;stroke-width:1;stroke-dasharray:2.0,2.0;" x1="642.9009" x2="815.5806" y1="353.4922" y2="353.4922"/><text fill="#000000" font-family="sans-serif" font-size="13" lengthAdjust="spacing" textLength="154.6797" x="654.9009" y="348.4263">potwierdzenie p&#322;atno&#347;ci</text><polygon fill="#181818" points="458.3447,378.625,448.3447,382.625,458.3447,386.625,454.3447,382.625" style="stroke:#181818;stroke-width:1;"/><line style="stroke:#181818;stroke-width:1;stroke-dasharray:2.0,2.0;" x1="452.3447" x2="636.9009" y1="382.625" y2="382.625"/><text fill="#000000" font-family="sans-serif" font-size="13" lengthAdjust="spacing" textLength="157.1045" x="464.3447" y="377.5591">wygenerowanie karnetu</text><polygon fill="#181818" points="53.9678,407.7578,43.9678,411.7578,53.9678,415.7578,49.9678,411.7578" style="stroke:#181818;stroke-width:1;"/><line style="stroke:#181818;stroke-width:1;stroke-dasharray:2.0,2.0;" x1="47.9678" x2="446.3447" y1="411.7578" y2="411.7578"/><text fill="#000000" font-family="sans-serif" font-size="13" lengthAdjust="spacing" textLength="380.377" x="59.9678" y="406.6919">wy&#347;wietlenie potwierdzenia i przes&#322;anie danych logowania</text><line style="stroke:#000000;stroke-width:1;stroke-dasharray:2.0,2.0;" x1="10" x2="990.5459" y1="420.7578" y2="420.7578"/><text fill="#000000" font-family="sans-serif" font-size="11" font-weight="bold" lengthAdjust="spacing" textLength="131.3984" x="15" y="430.9683">[p&#322;atno&#347;&#263; odrzucona]</text><polygon fill="#181818" points="648.9009,451.6953,638.9009,455.6953,648.9009,459.6953,644.9009,455.6953" style="stroke:#181818;stroke-width:1;"/><line style="stroke:#181818;stroke-width:1;stroke-dasharray:2.0,2.0;" x1="642.9009" x2="815.5806" y1="455.6953" y2="455.6953"/><text fill="#000000" font-family="sans-serif" font-size="13" lengthAdjust="spacing" textLength="91.0317" x="654.9009" y="450.6294">b&#322;&#261;d p&#322;atno&#347;ci</text><polygon fill="#181818" points="458.3447,480.8281,448.3447,484.8281,458.3447,488.8281,454.3447,484.8281" style="stroke:#181818;stroke-width:1;"/><line style="stroke:#181818;stroke-width:1;stroke-dasharray:2.0,2.0;" x1="452.3447" x2="636.9009" y1="484.8281" y2="484.8281"/><text fill="#000000" font-family="sans-serif" font-size="13" lengthAdjust="spacing" textLength="131.9297" x="464.3447" y="479.7622">informacja o b&#322;&#281;dzie</text><polygon fill="#181818" points="53.9678,509.9609,43.9678,513.9609,53.9678,517.9609,49.9678,513.9609" style="stroke:#181818;stroke-width:1;"/><line style="stroke:#181818;stroke-width:1;stroke-dasharray:2.0,2.0;" x1="47.9678" x2="446.3447" y1="513.9609" y2="513.9609"/><text fill="#000000" font-family="sans-serif" font-size="13" lengthAdjust="spacing" textLength="227.9443" x="59.9678" y="508.895">wy&#347;wietlenie komunikatu o b&#322;&#281;dzie</text><!--SRC=[ZL51QiCm4Bph5Vk1VY27Nalf9L3wW8syJRTI926l4TOnKFg6ak_4_wfaGs8R5wgBa7PsPcSMjVW8BvR9YGeOXJK7T09FRy-BzpwYzicnMVo-zgtGQMzHd6yrApKnmSDZ9TX1Y7wu710yfDvqeTIOm61q99qgY0gyCLTu9eCPAsfgxTMjV2DD_N19J6BXtSTJPp7cjMxg0mrdnpY3RCkrmtcKQz3r-WFCo8DBrPNB7R1Z_OcMCvOBGg4ebU5I0q0hzu_hDsH4eoc8J-XGGJahjas1EfcaClKKnKnWas5boqk99pQPjffdpkvf7SbHh2FErbF1OsO5DiKxYtwYdWaXy5QUrXz7MbHaMreauvkOE-t_IcNfwJ2Shr_DVyomgoiV5-F7jfycC_t3ZV6dhZ2XT8j6Siql]--></g></svg>