<svg xmlns="http://www.w3.org/2000/svg" xmlns:xlink="http://www.w3.org/1999/xlink" contentStyleType="text/css" height="1159px" preserveAspectRatio="none" style="width:1222px;height:1159px;background:#FFFFFF;" version="1.1" viewBox="0 0 1222 1159" width="1222px" zoomAndPan="magnify"><title>Zmiana danych na karnecie</title><defs/><g><text fill="#000000" font-family="sans-serif" font-size="14" font-weight="bold" lengthAdjust="spacing" textLength="182.8545" x="518.5227" y="34.5332">Zmiana danych na karnecie</text><rect fill="none" height="22.6406" style="stroke:none;stroke-width:1.0;" width="1189.8999" x="15" y="51.0645"/><path d="M30,88.7051 L30,115.0566 L306.0361,115.0566 L306.0361,98.7051 L296.0361,88.7051 L30,88.7051 " fill="#FEFFDD" style="stroke:#181818;stroke-width:0.5;"/><path d="M296.0361,88.7051 L296.0361,98.7051 L306.0361,98.7051 L296.0361,88.7051 " fill="#FEFFDD" style="stroke:#181818;stroke-width:0.5;"/><text fill="#000000" font-family="sans-serif" font-size="13" lengthAdjust="spacing" textLength="255.0361" x="36" y="107.2002">Pracownik musi by&#263; zalogowany w systemie</text><path d="M42.2732,135.0566 L42.2732,161.4082 L293.7629,161.4082 L293.7629,145.0566 L283.7629,135.0566 L42.2732,135.0566 " fill="#FEFFDD" style="stroke:#181818;stroke-width:0.5;"/><path d="M283.7629,135.0566 L283.7629,145.0566 L293.7629,145.0566 L283.7629,135.0566 " fill="#FEFFDD" style="stroke:#181818;stroke-width:0.5;"/><text fill="#000000" font-family="sans-serif" font-size="13" lengthAdjust="spacing" textLength="230.4897" x="48.2732" y="153.5518">Musi istnie&#263; karnet identyfikuj&#261;cy klienta</text><ellipse cx="326.0361" cy="125.0566" fill="#222222" rx="10" ry="10" style="stroke:#222222;stroke-width:1.0;"/><rect fill="#F1F1F1" height="35.0938" rx="12.5" ry="12.5" style="stroke:#181818;stroke-width:0.5;" width="264.1367" x="193.9678" y="191.4082"/><text fill="#000000" font-family="sans-serif" font-size="12" lengthAdjust="spacing" textLength="244.1367" x="203.9678" y="213.8652">Pro&#347;ba o zmodyfikowanie danych na karnecie</text><line style="stroke:#000000;stroke-width:1.5;" x1="15" x2="15" y1="51.0645" y2="1147.29"/><rect fill="#F1F1F1" height="35.0938" rx="12.5" ry="12.5" style="stroke:#181818;stroke-width:0.5;" width="200.5684" x="487.5342" y="246.502"/><text fill="#000000" font-family="sans-serif" font-size="12" lengthAdjust="spacing" textLength="180.5684" x="497.5342" y="268.959">Wybranie opcji "Wy&#347;wietl karnety"</text><rect fill="#F1F1F1" height="35.0938" rx="12.5" ry="12.5" style="stroke:#181818;stroke-width:0.5;" width="239.4277" x="468.1045" y="400.6895"/><text fill="#000000" font-family="sans-serif" font-size="12" lengthAdjust="spacing" textLength="219.4277" x="478.1045" y="423.1465">Wpisanie danych klienta do wyszukiwarki</text><rect fill="#F1F1F1" height="35.0938" rx="12.5" ry="12.5" style="stroke:#181818;stroke-width:0.5;" width="174.0371" x="500.7998" y="567.7959"/><text fill="#000000" font-family="sans-serif" font-size="12" lengthAdjust="spacing" textLength="154.0371" x="510.7998" y="590.2529">Wyb&#243;r opcji z listy wynikowej</text><rect fill="#F1F1F1" height="35.0938" rx="12.5" ry="12.5" style="stroke:#181818;stroke-width:0.5;" width="170.0645" x="502.7861" y="721.9834"/><text fill="#000000" font-family="sans-serif" font-size="12" lengthAdjust="spacing" textLength="150.0645" x="512.7861" y="744.4404">Edycja danych w formularzu</text><rect fill="#F1F1F1" height="35.0938" rx="12.5" ry="12.5" style="stroke:#181818;stroke-width:0.5;" width="130.0449" x="522.7959" y="777.0771"/><text fill="#000000" font-family="sans-serif" font-size="12" lengthAdjust="spacing" textLength="110.0449" x="532.7959" y="799.5342">Zatwierdzenie zmian</text><polygon fill="#F1F1F1" points="528.5081,843.9951,647.1287,843.9951,659.1287,855.9951,647.1287,867.9951,528.5081,867.9951,516.5081,855.9951,528.5081,843.9951" style="stroke:#181818;stroke-width:0.5;"/><text fill="#000000" font-family="sans-serif" font-size="11" lengthAdjust="spacing" textLength="14.6738" x="591.8184" y="879.4141">tak</text><text fill="#000000" font-family="sans-serif" font-size="11" lengthAdjust="spacing" textLength="118.6206" x="528.5081" y="860.4961">Operacja zatwierdzona?</text><text fill="#000000" font-family="sans-serif" font-size="11" lengthAdjust="spacing" textLength="14.6792" x="659.1287" y="853.5781">nie</text><ellipse cx="695.8079" cy="855.9951" fill="none" rx="11" ry="11" style="stroke:#222222;stroke-width:1.0;"/><ellipse cx="695.8079" cy="855.9951" fill="#222222" rx="6" ry="6" style="stroke:#222222;stroke-width:1.0;"/><line style="stroke:#000000;stroke-width:1.5;" x1="462.1045" x2="462.1045" y1="51.0645" y2="1147.29"/><rect fill="#F1F1F1" height="35.0938" rx="12.5" ry="12.5" style="stroke:#181818;stroke-width:0.5;" width="166.0449" x="954.3203" y="345.5957"/><text fill="#000000" font-family="sans-serif" font-size="12" lengthAdjust="spacing" textLength="146.0449" x="964.3203" y="368.0527">Wy&#347;wietlenie listy karnet&#243;w</text><rect fill="#F1F1F1" height="35.0938" rx="12.5" ry="12.5" style="stroke:#181818;stroke-width:0.5;" width="263.4453" x="905.6201" y="455.7832"/><text fill="#000000" font-family="sans-serif" font-size="12" lengthAdjust="spacing" textLength="243.4453" x="915.6201" y="478.2402">Wy&#347;wietlenie opcji pasuj&#261;cych do wyszukania</text><polygon fill="#F1F1F1" points="1037.3428,301.5957,1049.3428,313.5957,1037.3428,325.5957,1025.3428,313.5957,1037.3428,301.5957" style="stroke:#181818;stroke-width:0.5;"/><polygon fill="#F1F1F1" points="993.0098,510.877,1081.6758,510.877,1093.6758,522.877,1081.6758,534.877,993.0098,534.877,981.0098,522.877,993.0098,510.877" style="stroke:#181818;stroke-width:0.5;"/><text fill="#000000" font-family="sans-serif" font-size="11" lengthAdjust="spacing" textLength="14.6738" x="1041.3428" y="546.2959">tak</text><text fill="#000000" font-family="sans-serif" font-size="11" lengthAdjust="spacing" textLength="88.666" x="993.0098" y="527.3779">Klient znaleziony?</text><text fill="#000000" font-family="sans-serif" font-size="11" lengthAdjust="spacing" textLength="14.6792" x="1093.6758" y="520.46">nie</text><rect fill="#F1F1F1" height="35.0938" rx="12.5" ry="12.5" style="stroke:#181818;stroke-width:0.5;" width="201.3887" x="936.6484" y="666.8896"/><text fill="#000000" font-family="sans-serif" font-size="12" lengthAdjust="spacing" textLength="181.3887" x="946.6484" y="689.3467">Wy&#347;wietlenie formularza z danymi</text><rect fill="#F1F1F1" height="35.0938" rx="12.5" ry="12.5" style="stroke:#181818;stroke-width:0.5;" width="270.1133" x="902.2861" y="900.9141"/><text fill="#000000" font-family="sans-serif" font-size="12" lengthAdjust="spacing" textLength="250.1133" x="912.2861" y="923.3711">Sprawdzenie czy dane maj&#261; prawid&#322;owy format</text><polygon fill="#F1F1F1" points="1037.3428,622.8896,1049.3428,634.8896,1037.3428,646.8896,1025.3428,634.8896,1037.3428,622.8896" style="stroke:#181818;stroke-width:0.5;"/><polygon fill="#F1F1F1" points="961.8386,956.0078,1112.8469,956.0078,1124.8469,968.0078,1112.8469,980.0078,961.8386,980.0078,949.8386,968.0078,961.8386,956.0078" style="stroke:#181818;stroke-width:0.5;"/><text fill="#000000" font-family="sans-serif" font-size="11" lengthAdjust="spacing" textLength="14.6738" x="1041.3428" y="991.4268">tak</text><text fill="#000000" font-family="sans-serif" font-size="11" lengthAdjust="spacing" textLength="151.0083" x="961.8386" y="972.5088">Dane maj&#261; prawid&#322;owy format?</text><text fill="#000000" font-family="sans-serif" font-size="11" lengthAdjust="spacing" textLength="14.6792" x="1124.8469" y="965.5908">nie</text><rect fill="#F1F1F1" height="35.0938" rx="12.5" ry="12.5" style="stroke:#181818;stroke-width:0.5;" width="168.7461" x="952.9697" y="1012.9268"/><text fill="#000000" font-family="sans-serif" font-size="12" lengthAdjust="spacing" textLength="148.7461" x="962.9697" y="1035.3838">Modyfikacja danych karnetu</text><rect fill="#F1F1F1" height="35.0938" rx="12.5" ry="12.5" style="stroke:#181818;stroke-width:0.5;" width="228.7813" x="922.9521" y="1068.0205"/><text fill="#000000" font-family="sans-serif" font-size="12" lengthAdjust="spacing" textLength="208.7813" x="932.9521" y="1090.4775">Wygenerowanie potwierdzenie operacji</text><path d="M716.5322,1120.9385 L716.5322,1147.29 L1006.3428,1147.29 L1006.3428,1130.9385 L996.3428,1120.9385 L716.5322,1120.9385 " fill="#FEFFDD" style="stroke:#181818;stroke-width:0.5;"/><path d="M996.3428,1120.9385 L996.3428,1130.9385 L1006.3428,1130.9385 L996.3428,1120.9385 " fill="#FEFFDD" style="stroke:#181818;stroke-width:0.5;"/><text fill="#000000" font-family="sans-serif" font-size="13" lengthAdjust="spacing" textLength="268.8105" x="722.5322" y="1139.4336">Zmodyfikowane dane na karnecie u&#380;ytkownika</text><ellipse cx="1037.3428" cy="1134.1143" fill="none" rx="11" ry="11" style="stroke:#222222;stroke-width:1.0;"/><ellipse cx="1037.3428" cy="1134.1143" fill="#222222" rx="6" ry="6" style="stroke:#222222;stroke-width:1.0;"/><line style="stroke:#000000;stroke-width:1.5;" x1="711.5322" x2="711.5322" y1="51.0645" y2="1147.29"/><line style="stroke:#000000;stroke-width:1.5;" x1="1203.3994" x2="1203.3994" y1="51.0645" y2="1147.29"/><line style="stroke:#181818;stroke-width:1.0;" x1="326.0361" x2="326.0361" y1="135.0566" y2="191.4082"/><polygon fill="#181818" points="322.0361,181.4082,326.0361,191.4082,330.0361,181.4082,326.0361,185.4082" style="stroke:#181818;stroke-width:1.0;"/><line style="stroke:#181818;stroke-width:1.0;" x1="587.8184" x2="587.8184" y1="757.0771" y2="777.0771"/><polygon fill="#181818" points="583.8184,767.0771,587.8184,777.0771,591.8184,767.0771,587.8184,771.0771" style="stroke:#181818;stroke-width:1.0;"/><line style="stroke:#181818;stroke-width:1.0;" x1="587.8184" x2="587.8184" y1="867.9951" y2="885.9141"/><line style="stroke:#181818;stroke-width:1.0;" x1="587.8184" x2="1037.3428" y1="885.9141" y2="885.9141"/><line style="stroke:#181818;stroke-width:1.0;" x1="1037.3428" x2="1037.3428" y1="885.9141" y2="900.9141"/><polygon fill="#181818" points="1033.3428,890.9141,1037.3428,900.9141,1041.3428,890.9141,1037.3428,894.9141" style="stroke:#181818;stroke-width:1.0;"/><line style="stroke:#181818;stroke-width:1.0;" x1="659.1287" x2="684.8079" y1="855.9951" y2="855.9951"/><polygon fill="#181818" points="674.8079,851.9951,684.8079,855.9951,674.8079,859.9951,678.8079,855.9951" style="stroke:#181818;stroke-width:1.0;"/><line style="stroke:#181818;stroke-width:1.0;" x1="587.8184" x2="587.8184" y1="812.1709" y2="843.9951"/><polygon fill="#181818" points="583.8184,833.9951,587.8184,843.9951,591.8184,833.9951,587.8184,837.9951" style="stroke:#181818;stroke-width:1.0;"/><line style="stroke:#181818;stroke-width:1.0;" x1="1037.3428" x2="1037.3428" y1="325.5957" y2="345.5957"/><polygon fill="#181818" points="1033.3428,335.5957,1037.3428,345.5957,1041.3428,335.5957,1037.3428,339.5957" style="stroke:#181818;stroke-width:1.0;"/><line style="stroke:#181818;stroke-width:1.0;" x1="1093.6758" x2="1181.0654" y1="522.877" y2="522.877"/><polygon fill="#181818" points="1177.0654,428.2363,1181.0654,418.2363,1185.0654,428.2363,1181.0654,424.2363" style="stroke:#181818;stroke-width:1.0;"/><line style="stroke:#181818;stroke-width:1.0;" x1="1181.0654" x2="1181.0654" y1="313.5957" y2="522.877"/><line style="stroke:#181818;stroke-width:1.0;" x1="1181.0654" x2="1049.3428" y1="313.5957" y2="313.5957"/><polygon fill="#181818" points="1059.3428,309.5957,1049.3428,313.5957,1059.3428,317.5957,1055.3428,313.5957" style="stroke:#181818;stroke-width:1.0;"/><line style="stroke:#181818;stroke-width:1.0;" x1="1037.3428" x2="1037.3428" y1="490.877" y2="510.877"/><polygon fill="#181818" points="1033.3428,500.877,1037.3428,510.877,1041.3428,500.877,1037.3428,504.877" style="stroke:#181818;stroke-width:1.0;"/><line style="stroke:#181818;stroke-width:1.0;" x1="1037.3428" x2="1037.3428" y1="646.8896" y2="666.8896"/><polygon fill="#181818" points="1033.3428,656.8896,1037.3428,666.8896,1041.3428,656.8896,1037.3428,660.8896" style="stroke:#181818;stroke-width:1.0;"/><line style="stroke:#181818;stroke-width:1.0;" x1="1124.8469" x2="1184.3994" y1="968.0078" y2="968.0078"/><polygon fill="#181818" points="1180.3994,823.9951,1184.3994,813.9951,1188.3994,823.9951,1184.3994,819.9951" style="stroke:#181818;stroke-width:1.0;"/><line style="stroke:#181818;stroke-width:1.0;" x1="1184.3994" x2="1184.3994" y1="634.8896" y2="968.0078"/><line style="stroke:#181818;stroke-width:1.0;" x1="1184.3994" x2="1049.3428" y1="634.8896" y2="634.8896"/><polygon fill="#181818" points="1059.3428,630.8896,1049.3428,634.8896,1059.3428,638.8896,1055.3428,634.8896" style="stroke:#181818;stroke-width:1.0;"/><line style="stroke:#181818;stroke-width:1.0;" x1="1037.3428" x2="1037.3428" y1="936.0078" y2="956.0078"/><polygon fill="#181818" points="1033.3428,946.0078,1037.3428,956.0078,1041.3428,946.0078,1037.3428,950.0078" style="stroke:#181818;stroke-width:1.0;"/><line style="stroke:#181818;stroke-width:1.0;" x1="1037.3428" x2="1037.3428" y1="980.0078" y2="1012.9268"/><polygon fill="#181818" points="1033.3428,1002.9268,1037.3428,1012.9268,1041.3428,1002.9268,1037.3428,1006.9268" style="stroke:#181818;stroke-width:1.0;"/><line style="stroke:#181818;stroke-width:1.0;" x1="1037.3428" x2="1037.3428" y1="1048.0205" y2="1068.0205"/><polygon fill="#181818" points="1033.3428,1058.0205,1037.3428,1068.0205,1041.3428,1058.0205,1037.3428,1062.0205" style="stroke:#181818;stroke-width:1.0;"/><line style="stroke:#181818;stroke-width:1.0;" x1="1037.3428" x2="1037.3428" y1="1103.1143" y2="1123.1143"/><polygon fill="#181818" points="1033.3428,1113.1143,1037.3428,1123.1143,1041.3428,1113.1143,1037.3428,1117.1143" style="stroke:#181818;stroke-width:1.0;"/><line style="stroke:#181818;stroke-width:1.0;" x1="326.0361" x2="326.0361" y1="226.502" y2="231.502"/><line style="stroke:#181818;stroke-width:1.0;" x1="326.0361" x2="587.8184" y1="231.502" y2="231.502"/><line style="stroke:#181818;stroke-width:1.0;" x1="587.8184" x2="587.8184" y1="231.502" y2="246.502"/><polygon fill="#181818" points="583.8184,236.502,587.8184,246.502,591.8184,236.502,587.8184,240.502" style="stroke:#181818;stroke-width:1.0;"/><line style="stroke:#181818;stroke-width:1.0;" x1="1037.3428" x2="1037.3428" y1="380.6895" y2="385.6895"/><line style="stroke:#181818;stroke-width:1.0;" x1="1037.3428" x2="587.8184" y1="385.6895" y2="385.6895"/><line style="stroke:#181818;stroke-width:1.0;" x1="587.8184" x2="587.8184" y1="385.6895" y2="400.6895"/><polygon fill="#181818" points="583.8184,390.6895,587.8184,400.6895,591.8184,390.6895,587.8184,394.6895" style="stroke:#181818;stroke-width:1.0;"/><line style="stroke:#181818;stroke-width:1.0;" x1="587.8184" x2="587.8184" y1="435.7832" y2="440.7832"/><line style="stroke:#181818;stroke-width:1.0;" x1="587.8184" x2="1037.3428" y1="440.7832" y2="440.7832"/><line style="stroke:#181818;stroke-width:1.0;" x1="1037.3428" x2="1037.3428" y1="440.7832" y2="455.7832"/><polygon fill="#181818" points="1033.3428,445.7832,1037.3428,455.7832,1041.3428,445.7832,1037.3428,449.7832" style="stroke:#181818;stroke-width:1.0;"/><line style="stroke:#181818;stroke-width:1.0;" x1="587.8184" x2="587.8184" y1="281.5957" y2="286.5957"/><line style="stroke:#181818;stroke-width:1.0;" x1="587.8184" x2="1037.3428" y1="286.5957" y2="286.5957"/><line style="stroke:#181818;stroke-width:1.0;" x1="1037.3428" x2="1037.3428" y1="286.5957" y2="301.5957"/><polygon fill="#181818" points="1033.3428,291.5957,1037.3428,301.5957,1041.3428,291.5957,1037.3428,295.5957" style="stroke:#181818;stroke-width:1.0;"/><line style="stroke:#181818;stroke-width:1.0;" x1="1037.3428" x2="1037.3428" y1="534.877" y2="552.377"/><line style="stroke:#181818;stroke-width:1.0;" x1="1037.3428" x2="587.8184" y1="552.377" y2="552.377"/><line style="stroke:#181818;stroke-width:1.0;" x1="587.8184" x2="587.8184" y1="552.377" y2="567.7959"/><polygon fill="#181818" points="583.8184,557.7959,587.8184,567.7959,591.8184,557.7959,587.8184,561.7959" style="stroke:#181818;stroke-width:1.0;"/><line style="stroke:#181818;stroke-width:1.0;" x1="1037.3428" x2="1037.3428" y1="701.9834" y2="706.9834"/><line style="stroke:#181818;stroke-width:1.0;" x1="1037.3428" x2="587.8184" y1="706.9834" y2="706.9834"/><line style="stroke:#181818;stroke-width:1.0;" x1="587.8184" x2="587.8184" y1="706.9834" y2="721.9834"/><polygon fill="#181818" points="583.8184,711.9834,587.8184,721.9834,591.8184,711.9834,587.8184,715.9834" style="stroke:#181818;stroke-width:1.0;"/><line style="stroke:#181818;stroke-width:1.0;" x1="587.8184" x2="587.8184" y1="602.8896" y2="607.8896"/><line style="stroke:#181818;stroke-width:1.0;" x1="587.8184" x2="1037.3428" y1="607.8896" y2="607.8896"/><line style="stroke:#181818;stroke-width:1.0;" x1="1037.3428" x2="1037.3428" y1="607.8896" y2="622.8896"/><polygon fill="#181818" points="1033.3428,612.8896,1037.3428,622.8896,1041.3428,612.8896,1037.3428,616.8896" style="stroke:#181818;stroke-width:1.0;"/><text fill="#000000" font-family="sans-serif" font-size="18" lengthAdjust="spacing" textLength="42.0205" x="220.0425" y="69.75">klient</text><text fill="#000000" font-family="sans-serif" font-size="18" lengthAdjust="spacing" textLength="81.0352" x="548.8013" y="69.75">pracownik</text><text fill="#000000" font-family="sans-serif" font-size="18" lengthAdjust="spacing" textLength="57.0059" x="931.4634" y="69.75">system</text><!--SRC=[VLCnRkCm4EpvYeKh-mjoaUPI7O8BS8K1TsjfPQybaG99WI2Xwe3W7f5dfBqkyR-Eb6X728nqAcPcPuOZoxObMEqxHebGeVJb2U9NWrfIoRGIOcn6Q5ecQSNOZz1hB9MJt8ZHZ62yiTHD864iQYlgLg5bUGIfB45BjItW-Sg1RZ0C1__n5mAswgXSl0Wkop3TPJyb3XihcI9lScQ1gsZ8rzmCvu-NqcU7A8fdhIwl1mG5eLDLGgGZJ7V2RKLA98gTF-W9elhopB3Q-SkhOx9jFkPN2Mb6eQadj8cG0PHORVJcC_JzpTrKUpRBmzaXL0gSDs5esA5kE4j_qPoTz6ZcU95-eqLDt6Ohu4uSts_zSzA68B6bm4hwXqri3DPHQfEgXBN5PlCPz_rDvnCXstTUfgRe_6tKMkbkQ547ZCIKg-DhtCVAb-VRXDmdTDYAOeysYkWgJ2eXhItok8RrhvxYE28nN25AOdHlJoIpQseDpL7Yn5GlI5PSvzP-npcwB5i6dyuJT1XBIqDrN5t-AESdCsY_jlRZE_3z1ekdULEuo3g_V8gvyqUIfFFWUhKChUQWgQyfnRsbxnUBfJdBOgumNFvvsqm_4eh_]--></g></svg>