<svg xmlns="http://www.w3.org/2000/svg" xmlns:xlink="http://www.w3.org/1999/xlink" contentStyleType="text/css" height="1941px" preserveAspectRatio="none" style="width:1596px;height:1941px;background:#FFFFFF;" version="1.1" viewBox="0 0 1596 1941" width="1596px" zoomAndPan="magnify"><defs><filter height="300%" id="f176h6exnf3si2" width="300%" x="-1" y="-1"><feGaussianBlur result="blurOut" stdDeviation="2.0"/><feColorMatrix in="blurOut" result="blurOut2" type="matrix" values="0 0 0 0 0 0 0 0 0 0 0 0 0 0 0 0 0 0 .4 0"/><feOffset dx="4.0" dy="4.0" in="blurOut2" result="blurOut3"/><feBlend in="SourceGraphic" in2="blurOut3" mode="normal"/></filter></defs><g><!--entity client--><g id="elem_client"><ellipse cx="106.6351" cy="1645.94" fill="#FEFECE" filter="url(#f176h6exnf3si2)" rx="8" ry="8" style="stroke:#A80036;stroke-width:2.0;"/><path d="M106.6351,1653.94 L106.6351,1680.94 M93.6351,1661.94 L119.6351,1661.94 M106.6351,1680.94 L93.6351,1695.94 M106.6351,1680.94 L119.6351,1695.94 " fill="none" filter="url(#f176h6exnf3si2)" style="stroke:#A80036;stroke-width:2.0;"/><text fill="#000000" font-family="sans-serif" font-size="14" lengthAdjust="spacing" textLength="40.5303" x="86.37" y="1715.9351">Client</text></g><!--entity manager--><g id="elem_manager"><ellipse cx="106.6331" cy="909.94" fill="#FEFECE" filter="url(#f176h6exnf3si2)" rx="8" ry="8" style="stroke:#A80036;stroke-width:2.0;"/><path d="M106.6331,917.94 L106.6331,944.94 M93.6331,925.94 L119.6331,925.94 M106.6331,944.94 L93.6331,959.94 M106.6331,944.94 L119.6331,959.94 " fill="none" filter="url(#f176h6exnf3si2)" style="stroke:#A80036;stroke-width:2.0;"/><text fill="#000000" font-family="sans-serif" font-size="14" lengthAdjust="spacing" textLength="61.3662" x="75.95" y="979.9351">Manager</text></g><!--entity coach--><g id="elem_coach"><ellipse cx="106.6351" cy="176.94" fill="#FEFECE" filter="url(#f176h6exnf3si2)" rx="8" ry="8" style="stroke:#A80036;stroke-width:2.0;"/><path d="M106.6351,184.94 L106.6351,211.94 M93.6351,192.94 L119.6351,192.94 M106.6351,211.94 L93.6351,226.94 M106.6351,211.94 L119.6351,226.94 " fill="none" filter="url(#f176h6exnf3si2)" style="stroke:#A80036;stroke-width:2.0;"/><text fill="#000000" font-family="sans-serif" font-size="14" lengthAdjust="spacing" textLength="43.4902" x="84.89" y="246.9351">Coach</text></g><!--entity worker--><g id="elem_worker"><ellipse cx="495.7203" cy="581.94" fill="#FEFECE" filter="url(#f176h6exnf3si2)" rx="8" ry="8" style="stroke:#A80036;stroke-width:2.0;"/><path d="M495.7203,589.94 L495.7203,616.94 M482.7203,597.94 L508.7203,597.94 M495.7203,616.94 L482.7203,631.94 M495.7203,616.94 L508.7203,631.94 " fill="none" filter="url(#f176h6exnf3si2)" style="stroke:#A80036;stroke-width:2.0;"/><text fill="#000000" font-family="sans-serif" font-size="14" lengthAdjust="spacing" textLength="50.6406" x="470.4" y="651.9351">Worker</text></g><g id="elem_buyMembership"><ellipse cx="495.7179" cy="1373.5856" fill="#FEFECE" filter="url(#f176h6exnf3si2)" rx="79.6779" ry="18.3356" style="stroke:#A80036;stroke-width:1.0;"/><text fill="#000000" font-family="sans-serif" font-size="14" lengthAdjust="spacing" textLength="117.7422" x="435.058" y="1377.0019">Buy Membership</text></g><g id="elem_cancelMembership"><ellipse cx="495.7208" cy="1446.5862" fill="#FEFECE" filter="url(#f176h6exnf3si2)" rx="88.5308" ry="20.1062" style="stroke:#A80036;stroke-width:1.0;"/><text fill="#000000" font-family="sans-serif" font-size="14" lengthAdjust="spacing" textLength="138.4072" x="426.5171" y="1449.4328">Cancel Membership</text></g><g id="elem_changePersonalData"><ellipse cx="495.7201" cy="1531.594" fill="#FEFECE" filter="url(#f176h6exnf3si2)" rx="138.7201" ry="30.144" style="stroke:#A80036;stroke-width:1.0;"/><text fill="#000000" font-family="sans-serif" font-size="14" lengthAdjust="spacing" textLength="246.9209" x="372.2596" y="1534.4407">Change Membership Personal Data</text></g><g id="elem_signupTraining"><ellipse cx="495.7179" cy="1621.5896" fill="#FEFECE" filter="url(#f176h6exnf3si2)" rx="110.4979" ry="24.4996" style="stroke:#A80036;stroke-width:1.0;"/><text fill="#000000" font-family="sans-serif" font-size="14" lengthAdjust="spacing" textLength="186.9561" x="402.2399" y="1624.4363">Signup for training session</text></g><g id="elem_contactCoach"><ellipse cx="495.7178" cy="1698.5896" fill="#FEFECE" filter="url(#f176h6exnf3si2)" rx="77.8978" ry="17.9796" style="stroke:#A80036;stroke-width:1.0;"/><text fill="#000000" font-family="sans-serif" font-size="14" lengthAdjust="spacing" textLength="113.3604" x="436.5433" y="1702.2037">Contact a coach</text></g><g id="elem_ExtendSubcription"><ellipse cx="495.7198" cy="1771.594" fill="#FEFECE" filter="url(#f176h6exnf3si2)" rx="89.2198" ry="20.244" style="stroke:#A80036;stroke-width:1.0;"/><text fill="#000000" font-family="sans-serif" font-size="14" lengthAdjust="spacing" textLength="139.9727" x="425.7334" y="1774.4406">Extend Membership</text></g><g id="elem_BrowseTrainingSessions"><ellipse cx="999.9063" cy="1773.5913" fill="#FEFECE" filter="url(#f176h6exnf3si2)" rx="106.4563" ry="23.6913" style="stroke:#A80036;stroke-width:1.0;"/><text fill="#000000" font-family="sans-serif" font-size="14" lengthAdjust="spacing" textLength="178.1924" x="910.8101" y="1776.4379">Browse Training Sessions</text></g><g id="elem_ClientLogin"><ellipse cx="495.7186" cy="1912.5897" fill="#FEFECE" filter="url(#f176h6exnf3si2)" rx="64.3986" ry="15.2797" style="stroke:#A80036;stroke-width:1.0;"/><text fill="#000000" font-family="sans-serif" font-size="14" lengthAdjust="spacing" textLength="77.0068" x="454.2152" y="1916.3373">client login</text></g><g id="elem_setUpSession"><ellipse cx="495.7179" cy="28.5936" fill="#FEFECE" filter="url(#f176h6exnf3si2)" rx="100.9679" ry="22.5936" style="stroke:#A80036;stroke-width:1.0;"/><text fill="#000000" font-family="sans-serif" font-size="14" lengthAdjust="spacing" textLength="166.1885" x="412.6237" y="31.4403">Set Up Training Session</text></g><g id="elem_cancelSession"><ellipse cx="999.9066" cy="149.5913" fill="#FEFECE" filter="url(#f176h6exnf3si2)" rx="101.3566" ry="22.6713" style="stroke:#A80036;stroke-width:1.0;"/><text fill="#000000" font-family="sans-serif" font-size="14" lengthAdjust="spacing" textLength="167.043" x="916.3851" y="152.438">Cancel Training Session</text></g><g id="elem_contactClients"><ellipse cx="495.7242" cy="174.5868" fill="#FEFECE" filter="url(#f176h6exnf3si2)" rx="75.2842" ry="17.4568" style="stroke:#A80036;stroke-width:1.0;"/><text fill="#000000" font-family="sans-serif" font-size="14" lengthAdjust="spacing" textLength="106.7432" x="439.3526" y="178.3344">Contact Clients</text></g><g id="elem_BookGym"><ellipse cx="495.7159" cy="241.5912" fill="#FEFECE" filter="url(#f176h6exnf3si2)" rx="62.7559" ry="14.9512" style="stroke:#A80036;stroke-width:1.0;"/><text fill="#000000" font-family="sans-serif" font-size="14" lengthAdjust="spacing" textLength="72.0645" x="456.6837" y="245.3387">Book Gym</text></g><g id="elem_SwitchGym"><ellipse cx="495.7208" cy="319.5942" fill="#FEFECE" filter="url(#f176h6exnf3si2)" rx="129.1708" ry="28.2342" style="stroke:#A80036;stroke-width:1.0;"/><text fill="#000000" font-family="sans-serif" font-size="14" lengthAdjust="spacing" textLength="226.8232" x="382.3091" y="322.4408">Switch Gym for Training Session</text></g><g id="elem_AccessTrainessList"><ellipse cx="495.7191" cy="404.5918" fill="#FEFECE" filter="url(#f176h6exnf3si2)" rx="98.0091" ry="22.0018" style="stroke:#A80036;stroke-width:1.0;"/><text fill="#000000" font-family="sans-serif" font-size="14" lengthAdjust="spacing" textLength="159.6602" x="415.889" y="407.4385">Access List of Trainees</text></g><g id="elem_CheckTrainneProgress"><ellipse cx="106.6323" cy="404.5865" fill="#FEFECE" filter="url(#f176h6exnf3si2)" rx="100.6323" ry="22.5265" style="stroke:#A80036;stroke-width:1.0;"/><text fill="#000000" font-family="sans-serif" font-size="14" lengthAdjust="spacing" textLength="165.4502" x="23.9072" y="407.4331">Check Trainee Progress</text></g><g id="elem_accessMembershipList"><ellipse cx="1464.4003" cy="573.5921" fill="#FEFECE" filter="url(#f176h6exnf3si2)" rx="117.7603" ry="25.9521" style="stroke:#A80036;stroke-width:1.0;"/><text fill="#000000" font-family="sans-serif" font-size="14" lengthAdjust="spacing" textLength="202.5693" x="1363.1156" y="576.4387">Access Clients' Memberships</text></g><g id="elem_authorizePurchase"><ellipse cx="999.913" cy="304.5946" fill="#FEFECE" filter="url(#f176h6exnf3si2)" rx="161.923" ry="34.7846" style="stroke:#A80036;stroke-width:1.0;"/><text fill="#000000" font-family="sans-serif" font-size="14" lengthAdjust="spacing" textLength="295.2236" x="852.3012" y="307.4413">Authorize Membership Purchase for Client</text></g><g id="elem_cancelClientMembership"><ellipse cx="999.9052" cy="400.585" fill="#FEFECE" filter="url(#f176h6exnf3si2)" rx="119.8752" ry="26.375" style="stroke:#A80036;stroke-width:1.0;"/><text fill="#000000" font-family="sans-serif" font-size="14" lengthAdjust="spacing" textLength="207.0879" x="896.3612" y="403.4317">Cancel Membership for Client</text></g><g id="elem_changeClientData"><ellipse cx="999.9062" cy="507.5872" fill="#FEFECE" filter="url(#f176h6exnf3si2)" rx="215.7362" ry="45.5472" style="stroke:#A80036;stroke-width:1.0;"/><text fill="#000000" font-family="sans-serif" font-size="14" lengthAdjust="spacing" textLength="405.5967" x="797.1078" y="510.4339">Change Client Personal Data Assigned to the Membership</text></g><g id="elem_verifyMemberships"><ellipse cx="999.9079" cy="613.5876" fill="#FEFECE" filter="url(#f176h6exnf3si2)" rx="114.4379" ry="25.2876" style="stroke:#A80036;stroke-width:1.0;"/><text fill="#000000" font-family="sans-serif" font-size="14" lengthAdjust="spacing" textLength="195.4463" x="902.1848" y="616.4343">Verify Clients' Memberships</text></g><g id="elem_maintainGym"><ellipse cx="999.911" cy="690.5862" fill="#FEFECE" filter="url(#f176h6exnf3si2)" rx="71.731" ry="16.7462" style="stroke:#A80036;stroke-width:1.0;"/><text fill="#000000" font-family="sans-serif" font-size="14" lengthAdjust="spacing" textLength="97.4736" x="948.1742" y="694.3338">Maintain Gym</text></g><g id="elem_notifyClientsMebershipExpiration"><ellipse cx="999.9123" cy="779.5885" fill="#FEFECE" filter="url(#f176h6exnf3si2)" rx="173.8423" ry="37.1685" style="stroke:#A80036;stroke-width:1.0;"/><text fill="#000000" font-family="sans-serif" font-size="14" lengthAdjust="spacing" textLength="319.8262" x="839.9992" y="782.4351">Notify Clients about Memberships Expirations</text></g><g id="elem_generateClientActivityRaport"><ellipse cx="999.9109" cy="879.5882" fill="#FEFECE" filter="url(#f176h6exnf3si2)" rx="128.8409" ry="28.1682" style="stroke:#A80036;stroke-width:1.0;"/><text fill="#000000" font-family="sans-serif" font-size="14" lengthAdjust="spacing" textLength="226.126" x="886.8479" y="882.4349">Generate Clients' Actvity Raport</text></g><g id="elem_addWorker"><ellipse cx="495.7168" cy="705.5874" fill="#FEFECE" filter="url(#f176h6exnf3si2)" rx="65.4368" ry="15.4874" style="stroke:#A80036;stroke-width:1.0;"/><text fill="#000000" font-family="sans-serif" font-size="14" lengthAdjust="spacing" textLength="80.0488" x="452.6924" y="709.3349">Add worker</text></g><g id="elem_deleteWorker"><ellipse cx="495.7227" cy="772.5885" fill="#FEFECE" filter="url(#f176h6exnf3si2)" rx="72.1927" ry="16.8385" style="stroke:#A80036;stroke-width:1.0;"/><text fill="#000000" font-family="sans-serif" font-size="14" lengthAdjust="spacing" textLength="98.6973" x="443.3741" y="776.3361">Delete worker</text></g><g id="elem_updateWorker"><ellipse cx="495.7185" cy="841.5877" fill="#FEFECE" filter="url(#f176h6exnf3si2)" rx="73.9885" ry="17.1977" style="stroke:#A80036;stroke-width:1.0;"/><text fill="#000000" font-family="sans-serif" font-size="14" lengthAdjust="spacing" textLength="103.4004" x="441.0183" y="845.3353">Update worker</text></g><g id="elem_addGym"><ellipse cx="495.719" cy="908.5889" fill="#FEFECE" filter="url(#f176h6exnf3si2)" rx="56.789" ry="14.7489" style="stroke:#A80036;stroke-width:1.0;"/><text fill="#000000" font-family="sans-serif" font-size="14" lengthAdjust="spacing" textLength="62.6104" x="461.4138" y="912.3365">Add gym</text></g><g id="elem_closeGym"><ellipse cx="495.7234" cy="973.5887" fill="#FEFECE" filter="url(#f176h6exnf3si2)" rx="63.1934" ry="15.0387" style="stroke:#A80036;stroke-width:1.0;"/><text fill="#000000" font-family="sans-serif" font-size="14" lengthAdjust="spacing" textLength="73.3975" x="456.0246" y="977.3362">Close gym</text></g><g id="elem_updateGymAvabilityInformation"><ellipse cx="495.7232" cy="1057.5906" fill="#FEFECE" filter="url(#f176h6exnf3si2)" rx="159.4532" ry="34.2906" style="stroke:#A80036;stroke-width:1.0;"/><text fill="#000000" font-family="sans-serif" font-size="14" lengthAdjust="spacing" textLength="290.1104" x="350.668" y="1060.4373">Update Infomation About Gym's Avaiblity</text></g><g id="elem_manageGyms"><ellipse cx="495.7247" cy="1143.5869" fill="#FEFECE" filter="url(#f176h6exnf3si2)" rx="72.7347" ry="16.9469" style="stroke:#A80036;stroke-width:1.0;"/><text fill="#000000" font-family="sans-serif" font-size="14" lengthAdjust="spacing" textLength="100.126" x="442.6618" y="1147.3345">Manage Gyms</text></g><g id="elem_monitorMembershipDetails"><ellipse cx="495.7216" cy="1219.5943" fill="#FEFECE" filter="url(#f176h6exnf3si2)" rx="108.9216" ry="24.1843" style="stroke:#A80036;stroke-width:1.0;"/><text fill="#000000" font-family="sans-serif" font-size="14" lengthAdjust="spacing" textLength="183.5449" x="403.9491" y="1222.441">Monitor Mebership Details</text></g><g id="elem_analyzeGymsUsage"><ellipse cx="495.7166" cy="1299.5933" fill="#FEFECE" filter="url(#f176h6exnf3si2)" rx="92.6666" ry="20.9333" style="stroke:#A80036;stroke-width:1.0;"/><text fill="#000000" font-family="sans-serif" font-size="14" lengthAdjust="spacing" textLength="147.752" x="421.8406" y="1302.44">Analyze Gyms Usage</text></g><!--link client to BrowseTrainingSessions--><g id="link_client_BrowseTrainingSessions"><path d="M127.12,1693.71 C164.71,1723.62 251.04,1786.75 336.26,1809.59 C546.04,1865.8 800.3128,1821.0555 922.9028,1792.8455 " fill="none" id="client-to-BrowseTrainingSessions" style="stroke:#A80036;stroke-width:1.0;"/><polygon fill="#A80036" points="928.75,1791.5,919.0822,1789.6202,923.8773,1792.6213,920.8762,1797.4164,928.75,1791.5" style="stroke:#A80036;stroke-width:1.0;"/></g><!--link client to buyMembership--><g id="link_client_buyMembership"><path d="M127.16,1639.58 C160.69,1578.77 235.44,1461.13 336.26,1408.59 C362.87,1394.73 388.8649,1387.4028 417.0349,1382.3328 " fill="none" id="client-to-buyMembership" style="stroke:#A80036;stroke-width:1.0;"/><polygon fill="#A80036" points="422.94,1381.27,413.3738,1378.9274,418.0191,1382.1557,414.7908,1386.8009,422.94,1381.27" style="stroke:#A80036;stroke-width:1.0;"/></g><!--link client to cancelMembership--><g id="link_client_cancelMembership"><path d="M127.19,1655.07 C163.9,1614.29 247.46,1528.31 336.26,1483.59 C361.75,1470.76 385.9126,1463.4968 412.9426,1457.9468 " fill="none" id="client-to-cancelMembership" style="stroke:#A80036;stroke-width:1.0;"/><polygon fill="#A80036" points="418.82,1456.74,409.1994,1454.6319,413.9222,1457.7457,410.8084,1462.4684,418.82,1456.74" style="stroke:#A80036;stroke-width:1.0;"/></g><!--link client to changePersonalData--><g id="link_client_changePersonalData"><path d="M127.21,1668.32 C166.37,1649.98 257.35,1608.36 336.26,1579.59 C359.76,1571.03 379.8467,1564.4762 403.6967,1557.2662 " fill="none" id="client-to-changePersonalData" style="stroke:#A80036;stroke-width:1.0;"/><polygon fill="#A80036" points="409.44,1555.53,399.6676,1554.3055,404.6539,1556.9769,401.9825,1561.9632,409.44,1555.53" style="stroke:#A80036;stroke-width:1.0;"/></g><!--link client to ExtendSubcription--><g id="link_client_ExtendSubcription"><path d="M127.2,1682.42 C166.7,1692.15 258.82,1714.82 336.26,1733.59 C368.16,1741.32 397.8445,1748.4548 427.1645,1755.4648 " fill="none" id="client-to-ExtendSubcription" style="stroke:#A80036;stroke-width:1.0;"/><polygon fill="#A80036" points="433,1756.86,425.1768,1750.8769,428.1371,1755.6973,423.3166,1758.6576,433,1756.86" style="stroke:#A80036;stroke-width:1.0;"/></g><!--link client to ClientLogin--><g id="link_client_ClientLogin"><path d="M123.7,1719.37 C143.34,1764.42 181.04,1834.51 237.26,1870.59 C295.87,1908.2 370.94,1915.7735 426.36,1915.8335 " fill="none" id="client-to-ClientLogin" style="stroke:#A80036;stroke-width:1.0;"/><polygon fill="#A80036" points="432.36,1915.84,423.3643,1911.8303,427.36,1915.8346,423.3557,1919.8303,432.36,1915.84" style="stroke:#A80036;stroke-width:1.0;"/></g><!--link client to signupTraining--><g id="link_client_signupTraining"><path d="M127.36,1674.74 C177.2,1667.53 304.7718,1649.0687 396.3318,1635.8287 " fill="none" id="client-to-signupTraining" style="stroke:#A80036;stroke-width:1.0;"/><polygon fill="#A80036" points="402.27,1634.97,392.7902,1632.2992,397.3215,1635.6856,393.9351,1640.2169,402.27,1634.97" style="stroke:#A80036;stroke-width:1.0;"/></g><!--link client to contactCoach--><g id="link_client_contactCoach"><path d="M127.36,1678.66 C180.43,1681.54 322.4088,1689.2452 413.5388,1694.1852 " fill="none" id="client-to-contactCoach" style="stroke:#A80036;stroke-width:1.0;"/><polygon fill="#A80036" points="419.53,1694.51,410.7597,1690.0287,414.5373,1694.2394,410.3267,1698.017,419.53,1694.51" style="stroke:#A80036;stroke-width:1.0;"/></g><!--link signupTraining to BrowseTrainingSessions--><g id="link_signupTraining_BrowseTrainingSessions"><path d="M569.9,1640.16 C596.8,1647.2 627.45,1655.49 655.17,1663.59 C755.76,1692.99 865.9384,1729.0311 934.1884,1751.8011 " fill="none" id="signupTraining-to-BrowseTrainingSessions" style="stroke:#A80036;stroke-width:1.0;stroke-dasharray:7.0,7.0;"/><polygon fill="#A80036" points="939.88,1753.7,932.6085,1747.0573,935.137,1752.1176,930.0767,1754.6461,939.88,1753.7" style="stroke:#A80036;stroke-width:1.0;"/><text fill="#000000" font-family="sans-serif" font-size="13" lengthAdjust="spacing" textLength="63.0068" x="688.17" y="1670.7969">&#171;include&#187;</text></g><!--link coach to setUpSession--><g id="link_coach_setUpSession"><path d="M128.8,178.7 C151.88,148.47 191.69,102.86 237.26,78.59 C286.3,52.48 341.1026,40.6134 391.2926,34.6034 " fill="none" id="coach-to-setUpSession" style="stroke:#A80036;stroke-width:1.0;"/><polygon fill="#A80036" points="397.25,33.89,387.8383,30.9884,392.2855,34.4845,388.7894,38.9317,397.25,33.89" style="stroke:#A80036;stroke-width:1.0;"/></g><!--link coach to cancelSession--><g id="link_coach_cancelSession"><path d="M128.57,199.86 C168.23,183.87 257.41,150.53 336.26,139.59 C539.12,111.46 774.2673,126.7084 902.3673,138.9684 " fill="none" id="coach-to-cancelSession" style="stroke:#A80036;stroke-width:1.0;"/><polygon fill="#A80036" points="908.34,139.54,899.762,134.7008,903.3627,139.0636,898.9999,142.6644,908.34,139.54" style="stroke:#A80036;stroke-width:1.0;"/></g><!--link coach to BookGym--><g id="link_coach_BookGym"><path d="M128.72,210.39 C186.38,215.3 342.2517,228.5899 430.1517,236.0899 " fill="none" id="coach-to-BookGym" style="stroke:#A80036;stroke-width:1.0;"/><polygon fill="#A80036" points="436.13,236.6,427.5026,231.8493,431.1481,236.1749,426.8225,239.8204,436.13,236.6" style="stroke:#A80036;stroke-width:1.0;"/></g><!--link coach to SwitchGym--><g id="link_coach_SwitchGym"><path d="M128.72,214.64 C182.2,229.97 319.5424,269.3563 410.1524,295.3363 " fill="none" id="coach-to-SwitchGym" style="stroke:#A80036;stroke-width:1.0;"/><polygon fill="#A80036" points="415.92,296.99,408.3711,290.6644,411.1137,295.6119,406.1661,298.3545,415.92,296.99" style="stroke:#A80036;stroke-width:1.0;"/></g><!--link coach to AccessTrainessList--><g id="link_coach_AccessTrainessList"><path d="M128.74,227.05 C167.28,259.81 252.79,328.16 336.26,365.59 C361.47,376.89 384.6116,383.9 410.8416,389.91 " fill="none" id="coach-to-AccessTrainessList" style="stroke:#A80036;stroke-width:1.0;"/><polygon fill="#A80036" points="416.69,391.25,408.8107,385.341,411.8163,390.1333,407.024,393.1389,416.69,391.25" style="stroke:#A80036;stroke-width:1.0;"/></g><!--link coach to contactClients--><g id="link_coach_contactClients"><path d="M128.73,206.59 C154.39,204.17 198.99,200 237.26,196.59 C300.49,190.96 366.5011,185.3326 418.2511,180.9826 " fill="none" id="coach-to-contactClients" style="stroke:#A80036;stroke-width:1.0;"/><polygon fill="#A80036" points="424.23,180.48,414.9266,177.2479,419.2476,180.8988,415.5967,185.2198,424.23,180.48" style="stroke:#A80036;stroke-width:1.0;"/></g><!--link CheckTrainneProgress to AccessTrainessList--><g id="link_CheckTrainneProgress_AccessTrainessList"><path d="M207.57,404.59 C266.03,404.59 333.51,404.59 391.5,404.59 " fill="none" id="CheckTrainneProgress-to-AccessTrainessList" style="stroke:#A80036;stroke-width:1.0;stroke-dasharray:7.0,7.0;"/><polygon fill="#A80036" points="397.5,404.59,388.5,400.59,392.5,404.59,388.5,408.59,397.5,404.59" style="stroke:#A80036;stroke-width:1.0;"/><text fill="#000000" font-family="sans-serif" font-size="13" lengthAdjust="spacing" textLength="67.958" x="238.26" y="400.6569">&#171;extends&#187;</text></g><!--link SwitchGym to cancelSession--><g id="link_SwitchGym_cancelSession"><path d="M577.22,297.29 C602.3,290.06 629.97,281.78 655.17,273.59 C759.85,239.55 874.91,196.828 941.82,171.448 " fill="none" id="SwitchGym-to-cancelSession" style="stroke:#A80036;stroke-width:1.0;stroke-dasharray:7.0,7.0;"/><polygon fill="#A80036" points="947.43,169.32,937.5964,168.7719,942.755,171.0933,940.4337,176.2519,947.43,169.32" style="stroke:#A80036;stroke-width:1.0;"/><text fill="#000000" font-family="sans-serif" font-size="13" lengthAdjust="spacing" textLength="67.958" x="686.17" y="237.4769">&#171;extends&#187;</text></g><!--link worker to maintainGym--><g id="link_worker_maintainGym"><path d="M521.28,617.36 C597,628.97 822.4293,663.5305 932.9593,680.4805 " fill="none" id="worker-to-maintainGym" style="stroke:#A80036;stroke-width:1.0;"/><polygon fill="#A80036" points="938.89,681.39,930.6003,676.072,933.9478,680.6321,929.3877,683.9796,938.89,681.39" style="stroke:#A80036;stroke-width:1.0;"/></g><!--link worker to authorizePurchase--><g id="link_worker_authorizePurchase"><path d="M521.37,583.37 C567.22,529.24 671.27,415.88 784.17,356.59 C810.15,342.95 833.9739,334.3231 862.7539,326.8231 " fill="none" id="worker-to-authorizePurchase" style="stroke:#A80036;stroke-width:1.0;"/><polygon fill="#A80036" points="868.56,325.31,858.8422,323.7089,863.7216,326.5709,860.8596,331.4503,868.56,325.31" style="stroke:#A80036;stroke-width:1.0;"/></g><!--link worker to cancelClientMembership--><g id="link_worker_cancelClientMembership"><path d="M521.43,595.2 C569.46,560.37 679.87,484.66 784.17,444.59 C819.87,430.87 854.7411,422.247 891.0911,415.487 " fill="none" id="worker-to-cancelClientMembership" style="stroke:#A80036;stroke-width:1.0;"/><polygon fill="#A80036" points="896.99,414.39,887.4104,412.1029,892.0743,415.3042,888.873,419.9681,896.99,414.39" style="stroke:#A80036;stroke-width:1.0;"/></g><!--link worker to changeClientData--><g id="link_worker_changeClientData"><path d="M521.28,608.41 C579.42,596.13 723.4693,565.729 839.9793,541.139 " fill="none" id="worker-to-changeClientData" style="stroke:#A80036;stroke-width:1.0;"/><polygon fill="#A80036" points="845.85,539.9,836.218,537.8448,840.9578,540.9325,837.87,545.6723,845.85,539.9" style="stroke:#A80036;stroke-width:1.0;"/></g><!--link worker to verifyMemberships--><g id="link_worker_verifyMemberships"><path d="M521.28,613.59 C586.21,613.59 759.62,613.59 879.12,613.59 " fill="none" id="worker-to-verifyMemberships" style="stroke:#A80036;stroke-width:1.0;"/><polygon fill="#A80036" points="885.12,613.59,876.12,609.59,880.12,613.59,876.12,617.59,885.12,613.59" style="stroke:#A80036;stroke-width:1.0;"/></g><!--link worker to notifyClientsMebershipExpiration--><g id="link_worker_notifyClientsMebershipExpiration"><path d="M521.5,622.58 C552.75,633.98 608.09,654.34 655.17,672.59 C712.81,694.93 725.43,705.32 784.17,724.59 C815.07,734.73 843.1585,742.668 874.7085,750.768 " fill="none" id="worker-to-notifyClientsMebershipExpiration" style="stroke:#A80036;stroke-width:1.0;"/><polygon fill="#A80036" points="880.52,752.26,872.7974,746.1476,875.6771,751.0166,870.808,753.8963,880.52,752.26" style="stroke:#A80036;stroke-width:1.0;"/></g><!--link worker to generateClientActivityRaport--><g id="link_worker_generateClientActivityRaport"><path d="M521.5,617.6 C555.01,624.09 615.18,639.65 655.17,672.59 C674.88,688.82 670.04,701.02 685.17,721.59 C724.75,775.37 726.53,800.9 784.17,834.59 C813.11,851.51 841.6496,860.9181 874.3596,867.5481 " fill="none" id="worker-to-generateClientActivityRaport" style="stroke:#A80036;stroke-width:1.0;"/><polygon fill="#A80036" points="880.24,868.74,872.214,863.0319,875.3396,867.7467,870.6248,870.8724,880.24,868.74" style="stroke:#A80036;stroke-width:1.0;"/></g><!--link generateClientActivityRaport to accessMembershipList--><g id="link_generateClientActivityRaport_accessMembershipList"><path d="M1117.48,867.78 C1150.59,861.14 1185.74,850.77 1215.64,834.59 C1323.89,776.02 1408.9796,658.0538 1443.9596,604.4838 " fill="none" id="generateClientActivityRaport-to-accessMembershipList" style="stroke:#A80036;stroke-width:1.0;stroke-dasharray:7.0,7.0;"/><polygon fill="#A80036" points="1447.24,599.46,1438.9701,604.8088,1444.5063,603.6465,1445.6686,609.1827,1447.24,599.46" style="stroke:#A80036;stroke-width:1.0;"/><text fill="#000000" font-family="sans-serif" font-size="13" lengthAdjust="spacing" textLength="69.7798" x="1246.64" y="761.1169">&#171;includes&#187;</text></g><!--link notifyClientsMebershipExpiration to accessMembershipList--><g id="link_notifyClientsMebershipExpiration_accessMembershipList"><path d="M1127.02,753.94 C1156.65,746.1 1187.72,736.37 1215.64,724.59 C1297.1,690.24 1378.4397,635.5243 1424.6097,602.3043 " fill="none" id="notifyClientsMebershipExpiration-to-accessMembershipList" style="stroke:#A80036;stroke-width:1.0;stroke-dasharray:7.0,7.0;"/><polygon fill="#A80036" points="1429.48,598.8,1419.8383,600.8095,1425.4214,601.7202,1424.5107,607.3033,1429.48,598.8" style="stroke:#A80036;stroke-width:1.0;"/><text fill="#000000" font-family="sans-serif" font-size="13" lengthAdjust="spacing" textLength="69.7798" x="1246.64" y="669.9569">&#171;includes&#187;</text></g><!--link authorizePurchase to accessMembershipList--><g id="link_authorizePurchase_accessMembershipList"><path d="M1127.96,326.18 C1157.56,333.68 1188.37,343.6 1215.64,356.59 C1314.24,403.55 1399.7759,496.6315 1438.8159,543.2115 " fill="none" id="authorizePurchase-to-accessMembershipList" style="stroke:#A80036;stroke-width:1.0;stroke-dasharray:7.0,7.0;"/><polygon fill="#A80036" points="1442.67,547.81,1439.9545,538.3429,1439.4582,543.9779,1433.8232,543.4817,1442.67,547.81" style="stroke:#A80036;stroke-width:1.0;"/><text fill="#000000" font-family="sans-serif" font-size="13" lengthAdjust="spacing" textLength="69.7798" x="1246.64" y="369.3869">&#171;includes&#187;</text></g><!--link cancelClientMembership to accessMembershipList--><g id="link_cancelClientMembership_accessMembershipList"><path d="M1100.83,415.11 C1137.54,421.98 1179.06,431.61 1215.64,444.59 C1293.11,472.09 1371.4895,516.5926 1419.0695,545.6526 " fill="none" id="cancelClientMembership-to-accessMembershipList" style="stroke:#A80036;stroke-width:1.0;stroke-dasharray:7.0,7.0;"/><polygon fill="#A80036" points="1424.19,548.78,1418.5942,540.6752,1419.9229,546.1738,1414.4243,547.5026,1424.19,548.78" style="stroke:#A80036;stroke-width:1.0;"/><text fill="#000000" font-family="sans-serif" font-size="13" lengthAdjust="spacing" textLength="69.7798" x="1246.64" y="454.3569">&#171;includes&#187;</text></g><!--link changeClientData to accessMembershipList--><g id="link_changeClientData_accessMembershipList"><path d="M1179.72,533.11 C1242.51,542.07 1304.7902,550.9522 1358.6002,558.6322 " fill="none" id="changeClientData-to-accessMembershipList" style="stroke:#A80036;stroke-width:1.0;stroke-dasharray:7.0,7.0;"/><polygon fill="#A80036" points="1364.54,559.48,1356.1955,554.2485,1359.5902,558.7735,1355.0651,562.1682,1364.54,559.48" style="stroke:#A80036;stroke-width:1.0;"/><text fill="#000000" font-family="sans-serif" font-size="13" lengthAdjust="spacing" textLength="69.7798" x="1246.64" y="538.6369">&#171;includes&#187;</text></g><!--link verifyMemberships to accessMembershipList--><g id="link_verifyMemberships_accessMembershipList"><path d="M1107.01,604.41 C1181.02,598.01 1273.5223,590.0171 1348.2023,583.5571 " fill="none" id="verifyMemberships-to-accessMembershipList" style="stroke:#A80036;stroke-width:1.0;stroke-dasharray:7.0,7.0;"/><polygon fill="#A80036" points="1354.18,583.04,1344.8688,579.8305,1349.1986,583.4709,1345.5582,587.8007,1354.18,583.04" style="stroke:#A80036;stroke-width:1.0;"/><text fill="#000000" font-family="sans-serif" font-size="13" lengthAdjust="spacing" textLength="69.7798" x="1246.64" y="582.5969">&#171;includes&#187;</text></g><!--link manager to worker--><g id="link_manager_worker"><path d="M131.88,899.53 C155.89,859.71 195.09,799.37 237.26,753.59 C275.78,711.78 286.96,700.89 336.26,672.59 C380.56,647.16 420.5046,633.8859 452.6646,624.8959 " fill="none" id="manager-to-worker" style="stroke:#A80036;stroke-width:1.0;"/><polygon fill="none" points="470,620.05,451.0493,619.1175,454.2799,630.6744,470,620.05" style="stroke:#A80036;stroke-width:1.0;"/></g><!--link manager to addGym--><g id="link_manager_addGym"><path d="M137.68,939.03 C203.05,933.46 352.9217,920.6795 435.4117,913.6495 " fill="none" id="manager-to-addGym" style="stroke:#A80036;stroke-width:1.0;"/><polygon fill="#A80036" points="441.39,913.14,432.0828,909.9187,436.4081,913.5646,432.7622,917.8898,441.39,913.14" style="stroke:#A80036;stroke-width:1.0;"/></g><!--link manager to closeGym--><g id="link_manager_closeGym"><path d="M137.68,944.07 C201.54,949.35 345.7704,961.2756 429.5804,968.2056 " fill="none" id="manager-to-closeGym" style="stroke:#A80036;stroke-width:1.0;"/><polygon fill="#A80036" points="435.56,968.7,426.9202,963.972,430.577,968.288,426.261,971.9447,435.56,968.7" style="stroke:#A80036;stroke-width:1.0;"/></g><!--link manager to addWorker--><g id="link_manager_addWorker"><path d="M137.71,903.23 C177.49,855.6 252.43,776.06 336.26,738.59 C367.43,724.66 398.78,717.4339 429.34,712.7239 " fill="none" id="manager-to-addWorker" style="stroke:#A80036;stroke-width:1.0;"/><polygon fill="#A80036" points="435.27,711.81,425.7657,709.2276,430.3283,712.5716,426.9843,717.1342,435.27,711.81" style="stroke:#A80036;stroke-width:1.0;"/></g><!--link manager to deleteWorker--><g id="link_manager_deleteWorker"><path d="M137.8,919.44 C180.06,889.45 260.27,836.28 336.26,806.59 C367.06,794.56 397.0521,787.4573 426.8921,782.1673 " fill="none" id="manager-to-deleteWorker" style="stroke:#A80036;stroke-width:1.0;"/><polygon fill="#A80036" points="432.8,781.12,423.2399,778.7524,427.8768,781.9928,424.6364,786.6296,432.8,781.12" style="stroke:#A80036;stroke-width:1.0;"/></g><!--link manager to updateWorker--><g id="link_manager_updateWorker"><path d="M137.62,931.85 C163.81,923.46 202.91,911.22 237.26,901.59 C306.2,882.26 380.8514,865.459 433.2414,854.309 " fill="none" id="manager-to-updateWorker" style="stroke:#A80036;stroke-width:1.0;"/><polygon fill="#A80036" points="439.11,853.06,429.4745,851.0211,434.2195,854.1008,431.1398,858.8459,439.11,853.06" style="stroke:#A80036;stroke-width:1.0;"/></g><!--link manager to manageGyms--><g id="link_manager_manageGyms"><path d="M137.5,970.14 C178.78,1007.97 257.2,1074.04 336.26,1109.59 C365.65,1122.8 394.5251,1129.9931 424.0151,1135.0131 " fill="none" id="manager-to-manageGyms" style="stroke:#A80036;stroke-width:1.0;"/><polygon fill="#A80036" points="429.93,1136.02,421.7289,1130.5664,425.0009,1135.1809,420.3864,1138.453,429.93,1136.02" style="stroke:#A80036;stroke-width:1.0;"/></g><!--link manager to analyzeGymsUsage--><g id="link_manager_analyzeGymsUsage"><path d="M123.19,983.57 C152.39,1055.48 222.84,1200.4 336.26,1261.59 C360.41,1274.62 383.1457,1281.9614 409.3557,1287.6314 " fill="none" id="manager-to-analyzeGymsUsage" style="stroke:#A80036;stroke-width:1.0;"/><polygon fill="#A80036" points="415.22,1288.9,407.2692,1283.0875,410.333,1287.8428,405.5777,1290.9066,415.22,1288.9" style="stroke:#A80036;stroke-width:1.0;"/></g><!--link manager to monitorMembershipDetails--><g id="link_manager_monitorMembershipDetails"><path d="M134.63,983.74 C172.4,1038.72 246.56,1133.14 336.26,1177.59 C359.47,1189.09 380.3872,1196.2328 405.2072,1202.5828 " fill="none" id="manager-to-monitorMembershipDetails" style="stroke:#A80036;stroke-width:1.0;"/><polygon fill="#A80036" points="411.02,1204.07,403.2923,1197.9641,406.176,1202.8307,401.3094,1205.7145,411.02,1204.07" style="stroke:#A80036;stroke-width:1.0;"/></g><!--link manager to updateGymAvabilityInformation--><g id="link_manager_updateGymAvabilityInformation"><path d="M137.68,950.6 C193.55,967.34 309.7525,1002.1576 395.5125,1027.8576 " fill="none" id="manager-to-updateGymAvabilityInformation" style="stroke:#A80036;stroke-width:1.0;"/><polygon fill="#A80036" points="401.26,1029.58,393.787,1023.1648,396.4704,1028.1447,391.4905,1030.8281,401.26,1029.58" style="stroke:#A80036;stroke-width:1.0;"/></g><!--SRC=[ZLPDRnen4BtlhnZbmYdz0LM4H9CggfHKKLEQizarYvN5HhOtAL5_VCSUBnxl0k60MDvxu_dqi9rSU_06h6et7XfbPUsLqPLxLHgiSRAgHEsDXTjEIUr1EAZZKu8VXHQjj07VqkEWDwBUH7buIE2BiQyaVezFLLNDqd6zaxLm4gw-zNjubDkLj6wZTbT1lEht6SdAMw5hsOt5TKIFwZT2jvBfuGc_ZHOTt0alo3fg1Zp0sVvPjRhVmHeJyLOehNGBJZg7zOgsBlA_4yNy6kqnVn1K2_93MAnILdx_wwLknXaH-jolQgjsiJkvMDQyu_VW4vuf71VjY1ouWO9iJQM7phIACg0cFuJVK5M9lhwUdpYAAyeUCMBI3yvDgytOQTwCPA4MaOwxmBtncfSokFvoAadu2ZStIjTTtyZvF0nij6TZ8JqiTvCUq4X8lzmbO3AuHoseN5EJD4EKjYjcY20s5CQymlr-IqE0F_2PXVkkFDvCnE8a7ms2D8NPegvH00_AUJ1hCfEI0Y6E8EU2X5ywMRyESdYofhMeeMaBL6Iq70ZiPLmSeLz5yJ9SLYZZGwOPoMbax4YixEYoeiS2Z9CoFIHEYOm3wyAK75n7VH7oM3fBkt1SwXJ5ZAq3gfk8V4RBWYzwlp5MVPIBhhTurv1U7rOv7JM81y6PxJgsfQG8EBDkqnz7iMfXuSBzaqtuw_4RETdXqPGiontyHrgrtf-kpLla6PfD7x5R7Z-7gx5DG37dFurd3a2iJE-v5znAEsM5FsnP7GsI_b4cNLRbe- -bbeZ97FsYzc_Ax-6Ns1bBLMsJY3GeK4510i2bJCCIfvN7p-19Ju6pnxjMIaRLByX9WGlsqs8mxRbCg-fi7SATEdOB-AuET-kpS2u-Q5hJIorFrFjYyt4lBZMSzkbIIzn8mwjS-iPs_PkdLpPW_toBfaaeBPEcUHcjiZlPIHnu9ceYCjOjTuqeTNr4agvqsQRxY_wAgtlRuVlgWQt3hu9FJdxejTbI-nVnTgDeXdzYRqAjEfmnvXuPX5SgmC7Cabt5bqgeK3Z2NUMNuF2JYunMyMLvc42uatXnksH2R6vA8bdIk3Vt7-G5bWuTKFu41pI2sBdSiFbG7WuTQZ8MfZfpj6WK9yhES8ObNvm_ZhEmEPNzrEM9Rlm7]--></g></svg>