<svg xmlns="http://www.w3.org/2000/svg" xmlns:xlink="http://www.w3.org/1999/xlink" contentStyleType="text/css" data-diagram-type="SEQUENCE" height="518px" preserveAspectRatio="none" style="width:642px;height:518px;background:#FFFFFF;" version="1.1" viewBox="0 0 642 518" width="642px" zoomAndPan="magnify"><defs/><g><rect fill="transparent" height="235.5" style="stroke:#000000;stroke-width:1.5;" width="626.7866" x="9" y="185.6953"/><g><title>Manager</title><rect fill="transparent" height="356.8984" width="8" x="112.6831" y="81.2969"/><line style="stroke:#181818;stroke-width:0.5;stroke-dasharray:5.0,5.0;" x1="116" x2="116" y1="81.2969" y2="438.1953"/></g><g><title>GUI</title><rect fill="transparent" height="356.8984" width="8" x="201.7275" y="81.2969"/><line style="stroke:#181818;stroke-width:0.5;stroke-dasharray:5.0,5.0;" x1="205.1152" x2="205.1152" y1="81.2969" y2="438.1953"/></g><g><title>Manager</title><rect fill="transparent" height="356.8984" width="8" x="290.772" y="81.2969"/><line style="stroke:#181818;stroke-width:0.5;stroke-dasharray:5.0,5.0;" x1="294.0889" x2="294.0889" y1="81.2969" y2="438.1953"/></g><g><title>Gym</title><rect fill="transparent" height="190.7188" width="8" x="395.6167" y="247.4766"/><line style="stroke:#181818;stroke-width:0.5;stroke-dasharray:5.0,5.0;" x1="399.231" x2="399.231" y1="247.4766" y2="438.1953"/></g><g><title>GymValidator</title><rect fill="transparent" height="356.8984" width="8" x="483.9941" y="81.2969"/><line style="stroke:#181818;stroke-width:0.5;stroke-dasharray:5.0,5.0;" x1="487.0024" x2="487.0024" y1="81.2969" y2="438.1953"/></g><g><title>Database</title><rect fill="transparent" height="356.8984" width="8" x="585.3862" y="81.2969"/><line style="stroke:#181818;stroke-width:0.5;stroke-dasharray:5.0,5.0;" x1="588.9858" x2="588.9858" y1="81.2969" y2="438.1953"/></g><text fill="#000000" font-family="sans-serif" font-size="14" lengthAdjust="spacing" textLength="61.3662" x="83" y="77.9951">Manager</text><ellipse cx="116.6831" cy="13.5" fill="#E2E2F0" rx="8" ry="8" style="stroke:#181818;stroke-width:0.5;"/><path d="M116.6831,21.5 L116.6831,48.5 M103.6831,29.5 L129.6831,29.5 M116.6831,48.5 L103.6831,63.5 M116.6831,48.5 L129.6831,63.5 " fill="transparent" style="stroke:#181818;stroke-width:0.5;"/><text fill="#000000" font-family="sans-serif" font-size="14" lengthAdjust="spacing" textLength="61.3662" x="83" y="450.1904">Manager</text><ellipse cx="116.6831" cy="461.9922" fill="#E2E2F0" rx="8" ry="8" style="stroke:#181818;stroke-width:0.5;"/><path d="M116.6831,469.9922 L116.6831,496.9922 M103.6831,477.9922 L129.6831,477.9922 M116.6831,496.9922 L103.6831,511.9922 M116.6831,496.9922 L129.6831,511.9922 " fill="transparent" style="stroke:#181818;stroke-width:0.5;"/><rect fill="#E2E2F0" height="30.2969" rx="2.5" ry="2.5" style="stroke:#181818;stroke-width:0.5;" width="39.2246" x="186.1152" y="50"/><text fill="#000000" font-family="sans-serif" font-size="14" lengthAdjust="spacing" textLength="25.2246" x="193.1152" y="69.9951">GUI</text><rect fill="#E2E2F0" height="30.2969" rx="2.5" ry="2.5" style="stroke:#181818;stroke-width:0.5;" width="39.2246" x="186.1152" y="437.1953"/><text fill="#000000" font-family="sans-serif" font-size="14" lengthAdjust="spacing" textLength="25.2246" x="193.1152" y="457.1904">GUI</text><rect fill="#E2E2F0" height="30.2969" rx="2.5" ry="2.5" style="stroke:#181818;stroke-width:0.5;" width="75.3662" x="257.0889" y="50"/><text fill="#000000" font-family="sans-serif" font-size="14" lengthAdjust="spacing" textLength="61.3662" x="264.0889" y="69.9951">Manager</text><rect fill="#E2E2F0" height="30.2969" rx="2.5" ry="2.5" style="stroke:#181818;stroke-width:0.5;" width="75.3662" x="257.0889" y="437.1953"/><text fill="#000000" font-family="sans-serif" font-size="14" lengthAdjust="spacing" textLength="61.3662" x="264.0889" y="457.1904">Manager</text><rect fill="#E2E2F0" height="30.2969" rx="2.5" ry="2.5" style="stroke:#181818;stroke-width:0.5;" width="46.7715" x="376.231" y="437.1953"/><text fill="#000000" font-family="sans-serif" font-size="14" lengthAdjust="spacing" textLength="32.7715" x="383.231" y="457.1904">Gym</text><rect fill="#E2E2F0" height="30.2969" rx="2.5" ry="2.5" style="stroke:#181818;stroke-width:0.5;" width="109.9834" x="433.0024" y="50"/><text fill="#000000" font-family="sans-serif" font-size="14" lengthAdjust="spacing" textLength="95.9834" x="440.0024" y="69.9951">GymValidator</text><rect fill="#E2E2F0" height="30.2969" rx="2.5" ry="2.5" style="stroke:#181818;stroke-width:0.5;" width="109.9834" x="433.0024" y="437.1953"/><text fill="#000000" font-family="sans-serif" font-size="14" lengthAdjust="spacing" textLength="95.9834" x="440.0024" y="457.1904">GymValidator</text><text fill="#000000" font-family="sans-serif" font-size="14" lengthAdjust="spacing" textLength="66.8008" x="552.9858" y="77.9951">Database</text><path d="M571.3862,29 C571.3862,19 589.3862,19 589.3862,19 C589.3862,19 607.3862,19 607.3862,29 L607.3862,55 C607.3862,65 589.3862,65 589.3862,65 C589.3862,65 571.3862,65 571.3862,55 L571.3862,29 " fill="#E2E2F0" style="stroke:#181818;stroke-width:1.5;"/><path d="M571.3862,29 C571.3862,39 589.3862,39 589.3862,39 C589.3862,39 607.3862,39 607.3862,29 " fill="transparent" style="stroke:#181818;stroke-width:1.5;"/><text fill="#000000" font-family="sans-serif" font-size="14" lengthAdjust="spacing" textLength="66.8008" x="552.9858" y="450.1904">Database</text><path d="M571.3862,463.4922 C571.3862,453.4922 589.3862,453.4922 589.3862,453.4922 C589.3862,453.4922 607.3862,453.4922 607.3862,463.4922 L607.3862,489.4922 C607.3862,499.4922 589.3862,499.4922 589.3862,499.4922 C589.3862,499.4922 571.3862,499.4922 571.3862,489.4922 L571.3862,463.4922 " fill="#E2E2F0" style="stroke:#181818;stroke-width:1.5;"/><path d="M571.3862,463.4922 C571.3862,473.4922 589.3862,473.4922 589.3862,473.4922 C589.3862,473.4922 607.3862,473.4922 607.3862,463.4922 " fill="transparent" style="stroke:#181818;stroke-width:1.5;"/><polygon fill="#181818" points="193.7275,108.4297,203.7275,112.4297,193.7275,116.4297,197.7275,112.4297" style="stroke:#181818;stroke-width:1;"/><line style="stroke:#181818;stroke-width:1;" x1="116.6831" x2="199.7275" y1="112.4297" y2="112.4297"/><text fill="#000000" font-family="sans-serif" font-size="13" lengthAdjust="spacing" textLength="65.0444" x="123.6831" y="107.3638">addGym()</text><polygon fill="#181818" points="282.772,137.5625,292.772,141.5625,282.772,145.5625,286.772,141.5625" style="stroke:#181818;stroke-width:1;"/><line style="stroke:#181818;stroke-width:1;" x1="205.7275" x2="288.772" y1="141.5625" y2="141.5625"/><text fill="#000000" font-family="sans-serif" font-size="13" lengthAdjust="spacing" textLength="65.0444" x="212.7275" y="136.4966">addGym()</text><polygon fill="#181818" points="475.9941,166.6953,485.9941,170.6953,475.9941,174.6953,479.9941,170.6953" style="stroke:#181818;stroke-width:1;"/><line style="stroke:#181818;stroke-width:1;" x1="294.772" x2="481.9941" y1="170.6953" y2="170.6953"/><text fill="#000000" font-family="sans-serif" font-size="13" lengthAdjust="spacing" textLength="137.8394" x="301.772" y="165.6294">validateGymDetails()</text><path d="M9,185.6953 L73.4429,185.6953 L73.4429,192.8281 L63.4429,202.8281 L9,202.8281 L9,185.6953 " fill="#EEEEEE" style="stroke:#000000;stroke-width:1.5;"/><rect fill="transparent" height="235.5" style="stroke:#000000;stroke-width:1.5;" width="626.7866" x="9" y="185.6953"/><text fill="#000000" font-family="sans-serif" font-size="13" font-weight="bold" lengthAdjust="spacing" textLength="19.4429" x="24" y="198.7622">alt</text><text fill="#000000" font-family="sans-serif" font-size="11" font-weight="bold" lengthAdjust="spacing" textLength="140.0942" x="88.4429" y="197.9058">[validation successful]</text><polygon fill="#181818" points="305.772,204.8281,295.772,208.8281,305.772,212.8281,301.772,208.8281" style="stroke:#181818;stroke-width:1;"/><line style="stroke:#181818;stroke-width:1;stroke-dasharray:2.0,2.0;" x1="299.772" x2="486.9941" y1="208.8281" y2="208.8281"/><polygon fill="#181818" points="364.231,233.9609,374.231,237.9609,364.231,241.9609,368.231,237.9609" style="stroke:#181818;stroke-width:1;"/><line style="stroke:#181818;stroke-width:1;" x1="294.772" x2="370.231" y1="237.9609" y2="237.9609"/><text fill="#000000" font-family="sans-serif" font-size="13" lengthAdjust="spacing" textLength="57.459" x="301.772" y="232.895">&#171;create&#187;</text><rect fill="#E2E2F0" height="30.2969" rx="2.5" ry="2.5" style="stroke:#181818;stroke-width:0.5;" width="46.7715" x="376.231" y="216.8281"/><text fill="#000000" font-family="sans-serif" font-size="14" lengthAdjust="spacing" textLength="32.7715" x="383.231" y="236.8232">Gym</text><polygon fill="#181818" points="305.772,260.125,295.772,264.125,305.772,268.125,301.772,264.125" style="stroke:#181818;stroke-width:1;"/><line style="stroke:#181818;stroke-width:1;stroke-dasharray:2.0,2.0;" x1="299.772" x2="398.6167" y1="264.125" y2="264.125"/><polygon fill="#181818" points="577.3862,289.2578,587.3862,293.2578,577.3862,297.2578,581.3862,293.2578" style="stroke:#181818;stroke-width:1;"/><line style="stroke:#181818;stroke-width:1;" x1="294.772" x2="583.3862" y1="293.2578" y2="293.2578"/><text fill="#000000" font-family="sans-serif" font-size="13" lengthAdjust="spacing" textLength="71.0049" x="301.772" y="288.1919">saveGym()</text><polygon fill="#181818" points="305.772,303.2578,295.772,307.2578,305.772,311.2578,301.772,307.2578" style="stroke:#181818;stroke-width:1;"/><line style="stroke:#181818;stroke-width:1;stroke-dasharray:2.0,2.0;" x1="299.772" x2="588.3862" y1="307.2578" y2="307.2578"/><polygon fill="#181818" points="216.7275,317.2578,206.7275,321.2578,216.7275,325.2578,212.7275,321.2578" style="stroke:#181818;stroke-width:1;"/><line style="stroke:#181818;stroke-width:1;stroke-dasharray:2.0,2.0;" x1="210.7275" x2="293.772" y1="321.2578" y2="321.2578"/><polygon fill="#181818" points="127.6831,331.2578,117.6831,335.2578,127.6831,339.2578,123.6831,335.2578" style="stroke:#181818;stroke-width:1;"/><line style="stroke:#181818;stroke-width:1;stroke-dasharray:2.0,2.0;" x1="121.6831" x2="204.7275" y1="335.2578" y2="335.2578"/><line style="stroke:#000000;stroke-width:1;stroke-dasharray:2.0,2.0;" x1="9" x2="635.7866" y1="344.2578" y2="344.2578"/><text fill="#000000" font-family="sans-serif" font-size="11" font-weight="bold" lengthAdjust="spacing" textLength="110.8164" x="14" y="354.4683">[validation failed]</text><polygon fill="#181818" points="305.772,360.0625,295.772,364.0625,305.772,368.0625,301.772,364.0625" style="stroke:#181818;stroke-width:1;"/><line style="stroke:#181818;stroke-width:1;stroke-dasharray:2.0,2.0;" x1="299.772" x2="486.9941" y1="364.0625" y2="364.0625"/><polygon fill="#181818" points="216.7275,374.0625,206.7275,378.0625,216.7275,382.0625,212.7275,378.0625" style="stroke:#181818;stroke-width:1;"/><line style="stroke:#181818;stroke-width:1;stroke-dasharray:2.0,2.0;" x1="210.7275" x2="293.772" y1="378.0625" y2="378.0625"/><polygon fill="#181818" points="127.6831,398.6289,117.6831,402.6289,127.6831,406.6289,123.6831,402.6289" style="stroke:#181818;stroke-width:1;"/><line style="stroke:#181818;stroke-width:1;stroke-dasharray:2.0,2.0;" x1="121.6831" x2="204.7275" y1="402.6289" y2="402.6289"/><path d="M19,391.0625 L19,416.0625 L111,416.0625 L111,401.0625 L101,391.0625 L19,391.0625 " fill="#FEFFDD" style="stroke:#181818;stroke-width:0.5;"/><path d="M101,391.0625 L101,401.0625 L111,401.0625 L101,391.0625 " fill="#FEFFDD" style="stroke:#181818;stroke-width:0.5;"/><text fill="#000000" font-family="sans-serif" font-size="13" lengthAdjust="spacing" textLength="71.1953" x="25" y="408.1294">Show error</text><!--SRC=[dL6xRiCm3Dpv5HoR0Fu1m_3I04M7JaMwqnAT2f3jG99JvEz3oNRYrrGD1icxuv4qgT0v_AAMBkoGF3P325TomIXpfJRWn_apGfVUBCfRrRibxt6flJT9Us_MvH-oHbEq5_ms9I1VgiWpdgP0O5q1Z1wObN4Ip96qbZPl1uYfLET3pD35R49xMacBCMPXdZYGiLu406J319ckHTyhnTxNlGMKzsgGhLmnuMj3sHsFnnoBGZaMixBSqeeiIxpT1hgIKJtTU5WeKgIqCS_trCzh9InTwgK3jdBVsQQrd83rFxOSRVPCXcBR1KRBTKYPlE_VxW_PEVdbCULM9mv800y0]--></g></svg>