<?xml version="1.0" encoding="UTF-8" standalone="no"?><svg xmlns="http://www.w3.org/2000/svg" xmlns:xlink="http://www.w3.org/1999/xlink" contentStyleType="text/css" height="905px" preserveAspectRatio="none" style="width:1014px;height:905px;background:#FFFFFF;" version="1.1" viewBox="0 0 1014 905" width="1014px" zoomAndPan="magnify"><defs/><g><rect fill="none" height="22.6406" style="stroke:none;stroke-width:1.0;" width="981.5" x="15" y="12.4551"/><rect fill="#F1F1F1" height="35.0938" rx="12.5" ry="12.5" style="stroke:#181818;stroke-width:0.5;" width="186" x="350" y="207.8926"/><text fill="#000000" font-family="sans-serif" font-size="12" lengthAdjust="spacing" textLength="166" x="360" y="230.3496">Wyświetlenie kalendarza zajęć</text><polygon fill="#F1F1F1" points="342,428.2676,544,428.2676,556,440.2676,544,452.2676,342,452.2676,330,440.2676,342,428.2676" style="stroke:#181818;stroke-width:0.5;"/><text fill="#000000" font-family="sans-serif" font-size="11" lengthAdjust="spacing" textLength="14" x="447" y="463.6865">tak</text><text fill="#000000" font-family="sans-serif" font-size="11" lengthAdjust="spacing" textLength="202" x="342" y="444.7686">Czy na liście istnieje chociaż jeden Klient?</text><text fill="#000000" font-family="sans-serif" font-size="11" lengthAdjust="spacing" textLength="14" x="556" y="437.8506">nie</text><rect fill="#F1F1F1" height="35.0938" rx="12.5" ry="12.5" style="stroke:#181818;stroke-width:0.5;" width="230" x="328" y="485.1865"/><text fill="#000000" font-family="sans-serif" font-size="12" lengthAdjust="spacing" textLength="210" x="338" y="507.6436">Wyświetlenie listy zapisanych Klientów</text><rect fill="#F1F1F1" height="35.0938" rx="12.5" ry="12.5" style="stroke:#181818;stroke-width:0.5;" width="170" x="358" y="639.374"/><text fill="#000000" font-family="sans-serif" font-size="12" lengthAdjust="spacing" textLength="150" x="368" y="661.8311">Wyświetlenie profilu Klienta</text><polygon fill="#F1F1F1" points="443,595.374,455,607.374,443,619.374,431,607.374,443,595.374" style="stroke:#181818;stroke-width:0.5;"/><polygon fill="#F1F1F1" points="302.5,757.0615,583.5,757.0615,595.5,769.0615,583.5,781.0615,302.5,781.0615,290.5,769.0615,302.5,757.0615" style="stroke:#181818;stroke-width:0.5;"/><text fill="#000000" font-family="sans-serif" font-size="11" lengthAdjust="spacing" textLength="14" x="447" y="792.4805">tak</text><text fill="#000000" font-family="sans-serif" font-size="11" lengthAdjust="spacing" textLength="281" x="302.5" y="773.5625">Dane na temat postępów Klienta znajdują się w systemie?</text><text fill="#000000" font-family="sans-serif" font-size="11" lengthAdjust="spacing" textLength="14" x="595.5" y="766.6445">nie</text><rect fill="#F1F1F1" height="35.0938" rx="12.5" ry="12.5" style="stroke:#181818;stroke-width:0.5;" width="230" x="328" y="813.9805"/><text fill="#000000" font-family="sans-serif" font-size="12" lengthAdjust="spacing" textLength="210" x="338" y="836.4375">Wyświetlenie danych i statystyk Klienta</text><path d="M20,866.8984 L20,893.25 L412,893.25 L412,876.8984 L402,866.8984 L20,866.8984 " fill="#FEFFDD" style="stroke:#181818;stroke-width:0.5;"/><path d="M402,866.8984 L402,876.8984 L412,876.8984 L402,866.8984 " fill="#FEFFDD" style="stroke:#181818;stroke-width:0.5;"/><text fill="#000000" font-family="sans-serif" font-size="13" lengthAdjust="spacing" textLength="371" x="26" y="885.3936">Uzyskany dostęp do szczegółowych statystyk postępów klienta</text><ellipse cx="443" cy="880.0742" fill="none" rx="11" ry="11" style="stroke:#222222;stroke-width:1.0;"/><ellipse cx="443" cy="880.0742" fill="#222222" rx="6" ry="6" style="stroke:#111111;stroke-width:1.0;"/><line style="stroke:#000000;stroke-width:1.5;" x1="15" x2="15" y1="12.4551" y2="893.25"/><path d="M629.5,50.0957 L629.5,76.4473 L828.5,76.4473 L828.5,60.0957 L818.5,50.0957 L629.5,50.0957 " fill="#FEFFDD" style="stroke:#181818;stroke-width:0.5;"/><path d="M818.5,50.0957 L818.5,60.0957 L828.5,60.0957 L818.5,50.0957 " fill="#FEFFDD" style="stroke:#181818;stroke-width:0.5;"/><text fill="#000000" font-family="sans-serif" font-size="13" lengthAdjust="spacing" textLength="178" x="635.5" y="68.5908">Trener zalogowany w systemie</text><path d="M642.5,96.4473 L642.5,122.7988 L815.5,122.7988 L815.5,106.4473 L805.5,96.4473 L642.5,96.4473 " fill="#FEFFDD" style="stroke:#181818;stroke-width:0.5;"/><path d="M805.5,96.4473 L805.5,106.4473 L815.5,106.4473 L805.5,96.4473 " fill="#FEFFDD" style="stroke:#181818;stroke-width:0.5;"/><text fill="#000000" font-family="sans-serif" font-size="13" lengthAdjust="spacing" textLength="152" x="648.5" y="114.9424">W systemie istnieje Klient</text><ellipse cx="848.5" cy="86.4473" fill="#222222" rx="10" ry="10" style="stroke:#222222;stroke-width:1.0;"/><rect fill="#F1F1F1" height="35.0938" rx="12.5" ry="12.5" style="stroke:#181818;stroke-width:0.5;" width="285" x="706" y="152.7988"/><text fill="#000000" font-family="sans-serif" font-size="12" lengthAdjust="spacing" textLength="265" x="716" y="175.2559">przejście do sekcji Organizacja zajęć w systemie</text><rect fill="#F1F1F1" height="35.0938" rx="12.5" ry="12.5" style="stroke:#181818;stroke-width:0.5;" width="85" x="806" y="262.9863"/><text fill="#000000" font-family="sans-serif" font-size="12" lengthAdjust="spacing" textLength="65" x="816" y="285.4434">Wybór zajęć</text><rect fill="#F1F1F1" height="35.0938" rx="12.5" ry="12.5" style="stroke:#181818;stroke-width:0.5;" width="240" x="728.5" y="373.1738"/><text fill="#000000" font-family="sans-serif" font-size="12" lengthAdjust="spacing" textLength="220" x="738.5" y="395.6309">Wybranie opcji lista zapisanych Klientów</text><rect fill="#F1F1F1" height="35.0938" rx="12.5" ry="12.5" style="stroke:#181818;stroke-width:0.5;" width="23" x="837" y="318.0801"/><text fill="#000000" font-family="sans-serif" font-size="12" lengthAdjust="spacing" textLength="3" x="847" y="340.5371"> </text><rect fill="#F1F1F1" height="35.0938" rx="12.5" ry="12.5" style="stroke:#181818;stroke-width:0.5;" width="177" x="760" y="540.2803"/><text fill="#000000" font-family="sans-serif" font-size="12" lengthAdjust="spacing" textLength="157" x="770" y="562.7373">Wybranie jednego z Klientów</text><rect fill="#F1F1F1" height="35.0938" rx="12.5" ry="12.5" style="stroke:#181818;stroke-width:0.5;" width="176" x="760.5" y="701.9678"/><text fill="#000000" font-family="sans-serif" font-size="12" lengthAdjust="spacing" textLength="156" x="770.5" y="724.4248">Wybór opcji statystyki Klienta</text><line style="stroke:#000000;stroke-width:1.5;" x1="614.5" x2="614.5" y1="12.4551" y2="893.25"/><line style="stroke:#000000;stroke-width:1.5;" x1="995" x2="995" y1="12.4551" y2="893.25"/><line style="stroke:#181818;stroke-width:1.0;" x1="443" x2="443" y1="452.2676" y2="485.1865"/><polygon fill="#181818" points="439,475.1865,443,485.1865,447,475.1865,443,479.1865" style="stroke:#181818;stroke-width:1.0;"/><line style="stroke:#181818;stroke-width:1.0;" x1="443" x2="443" y1="619.374" y2="639.374"/><polygon fill="#181818" points="439,629.374,443,639.374,447,629.374,443,633.374" style="stroke:#181818;stroke-width:1.0;"/><line style="stroke:#181818;stroke-width:1.0;" x1="290.5" x2="278.5" y1="769.0615" y2="769.0615"/><polygon fill="#181818" points="274.5,694.4678,278.5,684.4678,282.5,694.4678,278.5,690.4678" style="stroke:#181818;stroke-width:1.0;"/><line style="stroke:#181818;stroke-width:1.0;" x1="278.5" x2="278.5" y1="607.374" y2="769.0615"/><line style="stroke:#181818;stroke-width:1.0;" x1="278.5" x2="431" y1="607.374" y2="607.374"/><polygon fill="#181818" points="421,603.374,431,607.374,421,611.374,425,607.374" style="stroke:#181818;stroke-width:1.0;"/><line style="stroke:#181818;stroke-width:1.0;" x1="443" x2="443" y1="781.0615" y2="813.9805"/><polygon fill="#181818" points="439,803.9805,443,813.9805,447,803.9805,443,807.9805" style="stroke:#181818;stroke-width:1.0;"/><line style="stroke:#181818;stroke-width:1.0;" x1="443" x2="443" y1="849.0742" y2="869.0742"/><polygon fill="#181818" points="439,859.0742,443,869.0742,447,859.0742,443,863.0742" style="stroke:#181818;stroke-width:1.0;"/><line style="stroke:#181818;stroke-width:1.0;" x1="848.5" x2="848.5" y1="96.4473" y2="152.7988"/><polygon fill="#181818" points="844.5,142.7988,848.5,152.7988,852.5,142.7988,848.5,146.7988" style="stroke:#181818;stroke-width:1.0;"/><line style="stroke:#181818;stroke-width:1.0;" x1="848.5" x2="848.5" y1="353.1738" y2="373.1738"/><polygon fill="#181818" points="844.5,363.1738,848.5,373.1738,852.5,363.1738,848.5,367.1738" style="stroke:#181818;stroke-width:1.0;"/><line style="stroke:#181818;stroke-width:1.0;" x1="848.5" x2="848.5" y1="298.0801" y2="318.0801"/><polygon fill="#181818" points="844.5,308.0801,848.5,318.0801,852.5,308.0801,848.5,312.0801" style="stroke:#181818;stroke-width:1.0;"/><line style="stroke:#181818;stroke-width:1.0;" x1="848.5" x2="848.5" y1="187.8926" y2="192.8926"/><line style="stroke:#181818;stroke-width:1.0;" x1="848.5" x2="443" y1="192.8926" y2="192.8926"/><line style="stroke:#181818;stroke-width:1.0;" x1="443" x2="443" y1="192.8926" y2="207.8926"/><polygon fill="#181818" points="439,197.8926,443,207.8926,447,197.8926,443,201.8926" style="stroke:#181818;stroke-width:1.0;"/><line style="stroke:#181818;stroke-width:1.0;" x1="443" x2="443" y1="242.9863" y2="247.9863"/><line style="stroke:#181818;stroke-width:1.0;" x1="443" x2="848.5" y1="247.9863" y2="247.9863"/><line style="stroke:#181818;stroke-width:1.0;" x1="848.5" x2="848.5" y1="247.9863" y2="262.9863"/><polygon fill="#181818" points="844.5,252.9863,848.5,262.9863,852.5,252.9863,848.5,256.9863" style="stroke:#181818;stroke-width:1.0;"/><line style="stroke:#181818;stroke-width:1.0;" x1="556" x2="766.75" y1="440.2676" y2="440.2676"/><polygon fill="#181818" points="762.75,397.9473,766.75,387.9473,770.75,397.9473,766.75,393.9473" style="stroke:#181818;stroke-width:1.0;"/><line style="stroke:#181818;stroke-width:1.0;" x1="766.75" x2="766.75" y1="335.627" y2="440.2676"/><line style="stroke:#181818;stroke-width:1.0;" x1="766.75" x2="837" y1="335.627" y2="335.627"/><polygon fill="#181818" points="827,331.627,837,335.627,827,339.627,831,335.627" style="stroke:#181818;stroke-width:1.0;"/><line style="stroke:#181818;stroke-width:1.0;" x1="848.5" x2="848.5" y1="408.2676" y2="413.2676"/><line style="stroke:#181818;stroke-width:1.0;" x1="848.5" x2="443" y1="413.2676" y2="413.2676"/><line style="stroke:#181818;stroke-width:1.0;" x1="443" x2="443" y1="413.2676" y2="428.2676"/><polygon fill="#181818" points="439,418.2676,443,428.2676,447,418.2676,443,422.2676" style="stroke:#181818;stroke-width:1.0;"/><line style="stroke:#181818;stroke-width:1.0;" x1="443" x2="443" y1="520.2803" y2="525.2803"/><line style="stroke:#181818;stroke-width:1.0;" x1="443" x2="848.5" y1="525.2803" y2="525.2803"/><line style="stroke:#181818;stroke-width:1.0;" x1="848.5" x2="848.5" y1="525.2803" y2="540.2803"/><polygon fill="#181818" points="844.5,530.2803,848.5,540.2803,852.5,530.2803,848.5,534.2803" style="stroke:#181818;stroke-width:1.0;"/><line style="stroke:#181818;stroke-width:1.0;" x1="443" x2="443" y1="674.4678" y2="684.4678"/><line style="stroke:#181818;stroke-width:1.0;" x1="443" x2="848.5" y1="684.4678" y2="684.4678"/><line style="stroke:#181818;stroke-width:1.0;" x1="848.5" x2="848.5" y1="684.4678" y2="701.9678"/><polygon fill="#181818" points="844.5,691.9678,848.5,701.9678,852.5,691.9678,848.5,695.9678" style="stroke:#181818;stroke-width:1.0;"/><line style="stroke:#181818;stroke-width:1.0;" x1="848.5" x2="848.5" y1="737.0615" y2="742.0615"/><line style="stroke:#181818;stroke-width:1.0;" x1="848.5" x2="443" y1="742.0615" y2="742.0615"/><line style="stroke:#181818;stroke-width:1.0;" x1="443" x2="443" y1="742.0615" y2="757.0615"/><polygon fill="#181818" points="439,747.0615,443,757.0615,447,747.0615,443,751.0615" style="stroke:#181818;stroke-width:1.0;"/><line style="stroke:#181818;stroke-width:1.0;" x1="848.5" x2="848.5" y1="575.374" y2="580.374"/><line style="stroke:#181818;stroke-width:1.0;" x1="848.5" x2="443" y1="580.374" y2="580.374"/><line style="stroke:#181818;stroke-width:1.0;" x1="443" x2="443" y1="580.374" y2="595.374"/><polygon fill="#181818" points="439,585.374,443,595.374,447,585.374,443,589.374" style="stroke:#181818;stroke-width:1.0;"/><text fill="#000000" font-family="sans-serif" font-size="18" lengthAdjust="spacing" textLength="59" x="287.75" y="31.1406">System</text><text fill="#000000" font-family="sans-serif" font-size="18" lengthAdjust="spacing" textLength="54" x="780.25" y="31.1406">Trener</text><!--SRC=[ZLAnJiCm4Dtp5JUslv0E3B0nC03gV2JNr8wnBTjL52iJ4k8Rgdv6LxOc_uLTfss08k75ak-zT- -ThxCTFBRMqMlMkGwU34aocNLeNBOI2XsJ5KZb20IjN3u2mADGbMfGjj20FV8PNIKipsLWrab6dE1UC98koxNnn8TT4Mgb0ajrmHayc0ebyrXm36rul-q_9ZqMMMUxB5-smwvXv0G5HQWnt2KQVsOiOfe8UpdipUNHa2PqUGRXnAB1I5SwzXN1NkHhPaEiOZswFEoRnH4V-oO-D6ic26QtlWM9WPWYdECLQrKm73w1KqborBcP1m3C0c8UnmCpX_NyPv3eeVt3mobGyXoa9LKA_1IIx5sRa3PgnSHc1EFtyQJy8RqBGsvhDa7zodo7acBey1dXKIlh-gqEpKySy19vkU7zErZMRoS_zwy1b2dsnCt5Z7LANrsnPz_QEgvYcUmSbyaNdgh3VdXJJLIyw4qyrqdw2m00]--></g></svg>