<?xml version="1.0" encoding="UTF-8" standalone="no"?><svg xmlns="http://www.w3.org/2000/svg" xmlns:xlink="http://www.w3.org/1999/xlink" contentStyleType="text/css" height="943px" preserveAspectRatio="none" style="width:1014px;height:943px;background:#FFFFFF;" version="1.1" viewBox="0 0 1014 943" width="1014px" zoomAndPan="magnify"><defs/><g><text fill="#000000" font-family="sans-serif" font-size="14" font-weight="bold" lengthAdjust="spacing" textLength="391" x="310.25" y="34.5332">Analiza postępów Klienta przez Trenera : Damian Karwat</text><rect fill="none" height="22.6406" style="stroke:none;stroke-width:1.0;" width="981.5" x="15" y="51.0645"/><rect fill="#F1F1F1" height="35.0938" rx="12.5" ry="12.5" style="stroke:#181818;stroke-width:0.5;" width="186" x="350" y="246.502"/><text fill="#000000" font-family="sans-serif" font-size="12" lengthAdjust="spacing" textLength="166" x="360" y="268.959">Wyświetlenie kalendarza zajęć</text><polygon fill="#F1F1F1" points="342,466.877,544,466.877,556,478.877,544,490.877,342,490.877,330,478.877,342,466.877" style="stroke:#181818;stroke-width:0.5;"/><text fill="#000000" font-family="sans-serif" font-size="11" lengthAdjust="spacing" textLength="14" x="447" y="502.2959">tak</text><text fill="#000000" font-family="sans-serif" font-size="11" lengthAdjust="spacing" textLength="202" x="342" y="483.3779">Czy na liście istnieje chociaż jeden Klient?</text><text fill="#000000" font-family="sans-serif" font-size="11" lengthAdjust="spacing" textLength="14" x="556" y="476.46">nie</text><rect fill="#F1F1F1" height="35.0938" rx="12.5" ry="12.5" style="stroke:#181818;stroke-width:0.5;" width="230" x="328" y="523.7959"/><text fill="#000000" font-family="sans-serif" font-size="12" lengthAdjust="spacing" textLength="210" x="338" y="546.2529">Wyświetlenie listy zapisanych Klientów</text><rect fill="#F1F1F1" height="35.0938" rx="12.5" ry="12.5" style="stroke:#181818;stroke-width:0.5;" width="170" x="358" y="677.9834"/><text fill="#000000" font-family="sans-serif" font-size="12" lengthAdjust="spacing" textLength="150" x="368" y="700.4404">Wyświetlenie profilu Klienta</text><polygon fill="#F1F1F1" points="443,633.9834,455,645.9834,443,657.9834,431,645.9834,443,633.9834" style="stroke:#181818;stroke-width:0.5;"/><polygon fill="#F1F1F1" points="302.5,795.6709,583.5,795.6709,595.5,807.6709,583.5,819.6709,302.5,819.6709,290.5,807.6709,302.5,795.6709" style="stroke:#181818;stroke-width:0.5;"/><text fill="#000000" font-family="sans-serif" font-size="11" lengthAdjust="spacing" textLength="14" x="447" y="831.0898">tak</text><text fill="#000000" font-family="sans-serif" font-size="11" lengthAdjust="spacing" textLength="281" x="302.5" y="812.1719">Dane na temat postępów Klienta znajdują się w systemie?</text><text fill="#000000" font-family="sans-serif" font-size="11" lengthAdjust="spacing" textLength="14" x="595.5" y="805.2539">nie</text><rect fill="#F1F1F1" height="35.0938" rx="12.5" ry="12.5" style="stroke:#181818;stroke-width:0.5;" width="230" x="328" y="852.5898"/><text fill="#000000" font-family="sans-serif" font-size="12" lengthAdjust="spacing" textLength="210" x="338" y="875.0469">Wyświetlenie danych i statystyk Klienta</text><path d="M20,905.5078 L20,931.8594 L412,931.8594 L412,915.5078 L402,905.5078 L20,905.5078 " fill="#FEFFDD" style="stroke:#181818;stroke-width:0.5;"/><path d="M402,905.5078 L402,915.5078 L412,915.5078 L402,905.5078 " fill="#FEFFDD" style="stroke:#181818;stroke-width:0.5;"/><text fill="#000000" font-family="sans-serif" font-size="13" lengthAdjust="spacing" textLength="371" x="26" y="924.0029">Uzyskany dostęp do szczegółowych statystyk postępów klienta</text><ellipse cx="443" cy="918.6836" fill="none" rx="11" ry="11" style="stroke:#222222;stroke-width:1.0;"/><ellipse cx="443" cy="918.6836" fill="#222222" rx="6" ry="6" style="stroke:#111111;stroke-width:1.0;"/><line style="stroke:#000000;stroke-width:1.5;" x1="15" x2="15" y1="51.0645" y2="931.8594"/><path d="M629.5,88.7051 L629.5,115.0566 L828.5,115.0566 L828.5,98.7051 L818.5,88.7051 L629.5,88.7051 " fill="#FEFFDD" style="stroke:#181818;stroke-width:0.5;"/><path d="M818.5,88.7051 L818.5,98.7051 L828.5,98.7051 L818.5,88.7051 " fill="#FEFFDD" style="stroke:#181818;stroke-width:0.5;"/><text fill="#000000" font-family="sans-serif" font-size="13" lengthAdjust="spacing" textLength="178" x="635.5" y="107.2002">Trener zalogowany w systemie</text><path d="M642.5,135.0566 L642.5,161.4082 L815.5,161.4082 L815.5,145.0566 L805.5,135.0566 L642.5,135.0566 " fill="#FEFFDD" style="stroke:#181818;stroke-width:0.5;"/><path d="M805.5,135.0566 L805.5,145.0566 L815.5,145.0566 L805.5,135.0566 " fill="#FEFFDD" style="stroke:#181818;stroke-width:0.5;"/><text fill="#000000" font-family="sans-serif" font-size="13" lengthAdjust="spacing" textLength="152" x="648.5" y="153.5518">W systemie istnieje Klient</text><ellipse cx="848.5" cy="125.0566" fill="#222222" rx="10" ry="10" style="stroke:#222222;stroke-width:1.0;"/><rect fill="#F1F1F1" height="35.0938" rx="12.5" ry="12.5" style="stroke:#181818;stroke-width:0.5;" width="285" x="706" y="191.4082"/><text fill="#000000" font-family="sans-serif" font-size="12" lengthAdjust="spacing" textLength="265" x="716" y="213.8652">przejście do sekcji Organizacja zajęć w systemie</text><rect fill="#F1F1F1" height="35.0938" rx="12.5" ry="12.5" style="stroke:#181818;stroke-width:0.5;" width="85" x="806" y="301.5957"/><text fill="#000000" font-family="sans-serif" font-size="12" lengthAdjust="spacing" textLength="65" x="816" y="324.0527">Wybór zajęć</text><rect fill="#F1F1F1" height="35.0938" rx="12.5" ry="12.5" style="stroke:#181818;stroke-width:0.5;" width="240" x="728.5" y="411.7832"/><text fill="#000000" font-family="sans-serif" font-size="12" lengthAdjust="spacing" textLength="220" x="738.5" y="434.2402">Wybranie opcji lista zapisanych Klientów</text><rect fill="#F1F1F1" height="35.0938" rx="12.5" ry="12.5" style="stroke:#181818;stroke-width:0.5;" width="23" x="837" y="356.6895"/><text fill="#000000" font-family="sans-serif" font-size="12" lengthAdjust="spacing" textLength="3" x="847" y="379.1465"> </text><rect fill="#F1F1F1" height="35.0938" rx="12.5" ry="12.5" style="stroke:#181818;stroke-width:0.5;" width="177" x="760" y="578.8896"/><text fill="#000000" font-family="sans-serif" font-size="12" lengthAdjust="spacing" textLength="157" x="770" y="601.3467">Wybranie jednego z Klientów</text><rect fill="#F1F1F1" height="35.0938" rx="12.5" ry="12.5" style="stroke:#181818;stroke-width:0.5;" width="176" x="760.5" y="740.5771"/><text fill="#000000" font-family="sans-serif" font-size="12" lengthAdjust="spacing" textLength="156" x="770.5" y="763.0342">Wybór opcji statystyki Klienta</text><line style="stroke:#000000;stroke-width:1.5;" x1="614.5" x2="614.5" y1="51.0645" y2="931.8594"/><line style="stroke:#000000;stroke-width:1.5;" x1="995" x2="995" y1="51.0645" y2="931.8594"/><line style="stroke:#181818;stroke-width:1.0;" x1="443" x2="443" y1="490.877" y2="523.7959"/><polygon fill="#181818" points="439,513.7959,443,523.7959,447,513.7959,443,517.7959" style="stroke:#181818;stroke-width:1.0;"/><line style="stroke:#181818;stroke-width:1.0;" x1="443" x2="443" y1="657.9834" y2="677.9834"/><polygon fill="#181818" points="439,667.9834,443,677.9834,447,667.9834,443,671.9834" style="stroke:#181818;stroke-width:1.0;"/><line style="stroke:#181818;stroke-width:1.0;" x1="290.5" x2="278.5" y1="807.6709" y2="807.6709"/><polygon fill="#181818" points="274.5,733.0771,278.5,723.0771,282.5,733.0771,278.5,729.0771" style="stroke:#181818;stroke-width:1.0;"/><line style="stroke:#181818;stroke-width:1.0;" x1="278.5" x2="278.5" y1="645.9834" y2="807.6709"/><line style="stroke:#181818;stroke-width:1.0;" x1="278.5" x2="431" y1="645.9834" y2="645.9834"/><polygon fill="#181818" points="421,641.9834,431,645.9834,421,649.9834,425,645.9834" style="stroke:#181818;stroke-width:1.0;"/><line style="stroke:#181818;stroke-width:1.0;" x1="443" x2="443" y1="819.6709" y2="852.5898"/><polygon fill="#181818" points="439,842.5898,443,852.5898,447,842.5898,443,846.5898" style="stroke:#181818;stroke-width:1.0;"/><line style="stroke:#181818;stroke-width:1.0;" x1="443" x2="443" y1="887.6836" y2="907.6836"/><polygon fill="#181818" points="439,897.6836,443,907.6836,447,897.6836,443,901.6836" style="stroke:#181818;stroke-width:1.0;"/><line style="stroke:#181818;stroke-width:1.0;" x1="848.5" x2="848.5" y1="135.0566" y2="191.4082"/><polygon fill="#181818" points="844.5,181.4082,848.5,191.4082,852.5,181.4082,848.5,185.4082" style="stroke:#181818;stroke-width:1.0;"/><line style="stroke:#181818;stroke-width:1.0;" x1="848.5" x2="848.5" y1="391.7832" y2="411.7832"/><polygon fill="#181818" points="844.5,401.7832,848.5,411.7832,852.5,401.7832,848.5,405.7832" style="stroke:#181818;stroke-width:1.0;"/><line style="stroke:#181818;stroke-width:1.0;" x1="848.5" x2="848.5" y1="336.6895" y2="356.6895"/><polygon fill="#181818" points="844.5,346.6895,848.5,356.6895,852.5,346.6895,848.5,350.6895" style="stroke:#181818;stroke-width:1.0;"/><line style="stroke:#181818;stroke-width:1.0;" x1="848.5" x2="848.5" y1="226.502" y2="231.502"/><line style="stroke:#181818;stroke-width:1.0;" x1="848.5" x2="443" y1="231.502" y2="231.502"/><line style="stroke:#181818;stroke-width:1.0;" x1="443" x2="443" y1="231.502" y2="246.502"/><polygon fill="#181818" points="439,236.502,443,246.502,447,236.502,443,240.502" style="stroke:#181818;stroke-width:1.0;"/><line style="stroke:#181818;stroke-width:1.0;" x1="443" x2="443" y1="281.5957" y2="286.5957"/><line style="stroke:#181818;stroke-width:1.0;" x1="443" x2="848.5" y1="286.5957" y2="286.5957"/><line style="stroke:#181818;stroke-width:1.0;" x1="848.5" x2="848.5" y1="286.5957" y2="301.5957"/><polygon fill="#181818" points="844.5,291.5957,848.5,301.5957,852.5,291.5957,848.5,295.5957" style="stroke:#181818;stroke-width:1.0;"/><line style="stroke:#181818;stroke-width:1.0;" x1="556" x2="766.75" y1="478.877" y2="478.877"/><polygon fill="#181818" points="762.75,436.5566,766.75,426.5566,770.75,436.5566,766.75,432.5566" style="stroke:#181818;stroke-width:1.0;"/><line style="stroke:#181818;stroke-width:1.0;" x1="766.75" x2="766.75" y1="374.2363" y2="478.877"/><line style="stroke:#181818;stroke-width:1.0;" x1="766.75" x2="837" y1="374.2363" y2="374.2363"/><polygon fill="#181818" points="827,370.2363,837,374.2363,827,378.2363,831,374.2363" style="stroke:#181818;stroke-width:1.0;"/><line style="stroke:#181818;stroke-width:1.0;" x1="848.5" x2="848.5" y1="446.877" y2="451.877"/><line style="stroke:#181818;stroke-width:1.0;" x1="848.5" x2="443" y1="451.877" y2="451.877"/><line style="stroke:#181818;stroke-width:1.0;" x1="443" x2="443" y1="451.877" y2="466.877"/><polygon fill="#181818" points="439,456.877,443,466.877,447,456.877,443,460.877" style="stroke:#181818;stroke-width:1.0;"/><line style="stroke:#181818;stroke-width:1.0;" x1="443" x2="443" y1="558.8896" y2="563.8896"/><line style="stroke:#181818;stroke-width:1.0;" x1="443" x2="848.5" y1="563.8896" y2="563.8896"/><line style="stroke:#181818;stroke-width:1.0;" x1="848.5" x2="848.5" y1="563.8896" y2="578.8896"/><polygon fill="#181818" points="844.5,568.8896,848.5,578.8896,852.5,568.8896,848.5,572.8896" style="stroke:#181818;stroke-width:1.0;"/><line style="stroke:#181818;stroke-width:1.0;" x1="443" x2="443" y1="713.0771" y2="723.0771"/><line style="stroke:#181818;stroke-width:1.0;" x1="443" x2="848.5" y1="723.0771" y2="723.0771"/><line style="stroke:#181818;stroke-width:1.0;" x1="848.5" x2="848.5" y1="723.0771" y2="740.5771"/><polygon fill="#181818" points="844.5,730.5771,848.5,740.5771,852.5,730.5771,848.5,734.5771" style="stroke:#181818;stroke-width:1.0;"/><line style="stroke:#181818;stroke-width:1.0;" x1="848.5" x2="848.5" y1="775.6709" y2="780.6709"/><line style="stroke:#181818;stroke-width:1.0;" x1="848.5" x2="443" y1="780.6709" y2="780.6709"/><line style="stroke:#181818;stroke-width:1.0;" x1="443" x2="443" y1="780.6709" y2="795.6709"/><polygon fill="#181818" points="439,785.6709,443,795.6709,447,785.6709,443,789.6709" style="stroke:#181818;stroke-width:1.0;"/><line style="stroke:#181818;stroke-width:1.0;" x1="848.5" x2="848.5" y1="613.9834" y2="618.9834"/><line style="stroke:#181818;stroke-width:1.0;" x1="848.5" x2="443" y1="618.9834" y2="618.9834"/><line style="stroke:#181818;stroke-width:1.0;" x1="443" x2="443" y1="618.9834" y2="633.9834"/><polygon fill="#181818" points="439,623.9834,443,633.9834,447,623.9834,443,627.9834" style="stroke:#181818;stroke-width:1.0;"/><text fill="#000000" font-family="sans-serif" font-size="18" lengthAdjust="spacing" textLength="59" x="287.75" y="69.75">System</text><text fill="#000000" font-family="sans-serif" font-size="18" lengthAdjust="spacing" textLength="54" x="780.25" y="69.75">Trener</text><!--SRC=[ZL8nRi904EpzYYtX2wQ8ej1Hf4WYweszcBFDdNMtoFA9AbAKDo2UGPiEyw_iOGDEGgIuiRGxipipjwou9BZNM2gFK1d7xROwx6kObOeqIybwyl1iIPD5Y66AAuKQPcXhv6ZZDl3KEAPLjE5D3uiSe-LeKHfafJFGXWbAMd3S0y1ZQJ9JeswW1dVYAxf9c5_Qe1nhHJdrqg8uICkFkqHwgG57HP8hUBGPQl6Iv2XhydRRVWnsJ8BYA9utnrsjIApBH2XG_YbQVs5CWfi0UptixRLegIBaE0BvGjDYe9igx2r5Nk1NoecjPDchb2Wd9tpOs_6XNYh9VFJW6z0enCx2nLwoD8d2uoVab9BkvzoD1G0ZGOn3F31YBCO_ZGGDpHyQpeOwpJ9QKsR03o6Tl5i9LTOiLBa-7yNtU3h_ufubvAPG0zGlprFK54pBOqZnnhbvZNcwpjjtSAhT3bxkNm6adUs1cgiOnwQwUM8lld55ECMqatCw9fzuoWxxuvkfmyJhl87ceXlz1G00]--></g></svg>