<?xml version="1.0" encoding="UTF-8" standalone="no"?><svg xmlns="http://www.w3.org/2000/svg" xmlns:xlink="http://www.w3.org/1999/xlink" contentStyleType="text/css" height="1116px" preserveAspectRatio="none" style="width:1310px;height:1116px;background:#FFFFFF;" version="1.1" viewBox="0 0 1310 1116" width="1310px" zoomAndPan="magnify"><defs/><g><text fill="#000000" font-family="sans-serif" font-size="14" font-weight="bold" lengthAdjust="spacing" textLength="305" x="501.25" y="34.5332">Kontakt Trenera z Klientem : Damian Karwat</text><rect fill="none" height="22.6406" style="stroke:none;stroke-width:1.0;" width="1277.5" x="15" y="51.0645"/><rect fill="#F1F1F1" height="35.0938" rx="12.5" ry="12.5" style="stroke:#181818;stroke-width:0.5;" width="186" x="466" y="246.502"/><text fill="#000000" font-family="sans-serif" font-size="12" lengthAdjust="spacing" textLength="166" x="476" y="268.959">Wyświetlenie kalendarza zajęć</text><polygon fill="#F1F1F1" points="458,466.877,660,466.877,672,478.877,660,490.877,458,490.877,446,478.877,458,466.877" style="stroke:#181818;stroke-width:0.5;"/><text fill="#000000" font-family="sans-serif" font-size="11" lengthAdjust="spacing" textLength="14" x="563" y="502.2959">tak</text><text fill="#000000" font-family="sans-serif" font-size="11" lengthAdjust="spacing" textLength="202" x="458" y="483.3779">Czy na liście istnieje chociaż jeden Klient?</text><text fill="#000000" font-family="sans-serif" font-size="11" lengthAdjust="spacing" textLength="14" x="672" y="476.46">nie</text><rect fill="#F1F1F1" height="35.0938" rx="12.5" ry="12.5" style="stroke:#181818;stroke-width:0.5;" width="230" x="444" y="523.7959"/><text fill="#000000" font-family="sans-serif" font-size="12" lengthAdjust="spacing" textLength="210" x="454" y="546.2529">Wyświetlenie listy zapisanych Klientów</text><rect fill="#F1F1F1" height="35.0938" rx="12.5" ry="12.5" style="stroke:#181818;stroke-width:0.5;" width="170" x="474" y="633.9834"/><text fill="#000000" font-family="sans-serif" font-size="12" lengthAdjust="spacing" textLength="150" x="484" y="656.4404">Wyświetlenie profilu Klienta</text><polygon fill="#F1F1F1" points="432.5,913.3584,685.5,913.3584,697.5,925.3584,685.5,937.3584,432.5,937.3584,420.5,925.3584,432.5,913.3584" style="stroke:#181818;stroke-width:0.5;"/><text fill="#000000" font-family="sans-serif" font-size="11" lengthAdjust="spacing" textLength="14" x="563" y="948.7773">nie</text><text fill="#000000" font-family="sans-serif" font-size="11" lengthAdjust="spacing" textLength="253" x="432.5" y="929.8594">Wiadomość pusta lub zawiera niedozwolone treści?</text><text fill="#000000" font-family="sans-serif" font-size="11" lengthAdjust="spacing" textLength="14" x="697.5" y="922.9414">tak</text><rect fill="#F1F1F1" height="35.0938" rx="12.5" ry="12.5" style="stroke:#181818;stroke-width:0.5;" width="185" x="721.5" y="823.2178"/><text fill="#000000" font-family="sans-serif" font-size="12" lengthAdjust="spacing" textLength="162" x="734.5" y="845.6748">Informacja zwrotna do trenera</text><rect fill="#F1F1F1" height="35.0938" rx="12.5" ry="12.5" style="stroke:#181818;stroke-width:0.5;" width="196" x="461" y="970.2773"/><text fill="#000000" font-family="sans-serif" font-size="12" lengthAdjust="spacing" textLength="176" x="471" y="992.7344">Wysłanie wiadomości do klienta</text><rect fill="#F1F1F1" height="35.0938" rx="12.5" ry="12.5" style="stroke:#181818;stroke-width:0.5;" width="308" x="405" y="1025.3711"/><text fill="#000000" font-family="sans-serif" font-size="12" lengthAdjust="spacing" textLength="288" x="415" y="1047.8281">Wygenerowanie potwierdzenia wysłania wiadomości</text><path d="M20,1078.2891 L20,1104.6406 L528,1104.6406 L528,1088.2891 L518,1078.2891 L20,1078.2891 " fill="#FEFFDD" style="stroke:#181818;stroke-width:0.5;"/><path d="M518,1078.2891 L518,1088.2891 L528,1088.2891 L518,1078.2891 " fill="#FEFFDD" style="stroke:#181818;stroke-width:0.5;"/><text fill="#000000" font-family="sans-serif" font-size="13" lengthAdjust="spacing" textLength="487" x="26" y="1096.7842">Wiadomość od Trenera dociera do Klienta, który ma możliwość na nią odpowiedzieć</text><ellipse cx="559" cy="1091.4648" fill="none" rx="11" ry="11" style="stroke:#222222;stroke-width:1.0;"/><ellipse cx="559" cy="1091.4648" fill="#222222" rx="6" ry="6" style="stroke:#111111;stroke-width:1.0;"/><line style="stroke:#000000;stroke-width:1.5;" x1="15" x2="15" y1="51.0645" y2="1104.6406"/><path d="M925.5,88.7051 L925.5,115.0566 L1124.5,115.0566 L1124.5,98.7051 L1114.5,88.7051 L925.5,88.7051 " fill="#FEFFDD" style="stroke:#181818;stroke-width:0.5;"/><path d="M1114.5,88.7051 L1114.5,98.7051 L1124.5,98.7051 L1114.5,88.7051 " fill="#FEFFDD" style="stroke:#181818;stroke-width:0.5;"/><text fill="#000000" font-family="sans-serif" font-size="13" lengthAdjust="spacing" textLength="178" x="931.5" y="107.2002">Trener zalogowany w systemie</text><path d="M938.5,135.0566 L938.5,161.4082 L1111.5,161.4082 L1111.5,145.0566 L1101.5,135.0566 L938.5,135.0566 " fill="#FEFFDD" style="stroke:#181818;stroke-width:0.5;"/><path d="M1101.5,135.0566 L1101.5,145.0566 L1111.5,145.0566 L1101.5,135.0566 " fill="#FEFFDD" style="stroke:#181818;stroke-width:0.5;"/><text fill="#000000" font-family="sans-serif" font-size="13" lengthAdjust="spacing" textLength="152" x="944.5" y="153.5518">W systemie istnieje Klient</text><ellipse cx="1144.5" cy="125.0566" fill="#222222" rx="10" ry="10" style="stroke:#222222;stroke-width:1.0;"/><rect fill="#F1F1F1" height="35.0938" rx="12.5" ry="12.5" style="stroke:#181818;stroke-width:0.5;" width="285" x="1002" y="191.4082"/><text fill="#000000" font-family="sans-serif" font-size="12" lengthAdjust="spacing" textLength="265" x="1012" y="213.8652">przejście do sekcji Organizacja zajęć w systemie</text><rect fill="#F1F1F1" height="35.0938" rx="12.5" ry="12.5" style="stroke:#181818;stroke-width:0.5;" width="85" x="1102" y="301.5957"/><text fill="#000000" font-family="sans-serif" font-size="12" lengthAdjust="spacing" textLength="65" x="1112" y="324.0527">Wybór zajęć</text><rect fill="#F1F1F1" height="35.0938" rx="12.5" ry="12.5" style="stroke:#181818;stroke-width:0.5;" width="240" x="1024.5" y="411.7832"/><text fill="#000000" font-family="sans-serif" font-size="12" lengthAdjust="spacing" textLength="220" x="1034.5" y="434.2402">Wybranie opcji lista zapisanych Klientów</text><rect fill="#F1F1F1" height="35.0938" rx="12.5" ry="12.5" style="stroke:#181818;stroke-width:0.5;" width="23" x="1133" y="356.6895"/><text fill="#000000" font-family="sans-serif" font-size="12" lengthAdjust="spacing" textLength="3" x="1143" y="379.1465"> </text><rect fill="#F1F1F1" height="35.0938" rx="12.5" ry="12.5" style="stroke:#181818;stroke-width:0.5;" width="177" x="1056" y="578.8896"/><text fill="#000000" font-family="sans-serif" font-size="12" lengthAdjust="spacing" textLength="157" x="1066" y="601.3467">Wybranie jednego z Klientów</text><rect fill="#F1F1F1" height="35.0938" rx="12.5" ry="12.5" style="stroke:#181818;stroke-width:0.5;" width="269" x="1010" y="689.0771"/><text fill="#000000" font-family="sans-serif" font-size="12" lengthAdjust="spacing" textLength="249" x="1020" y="711.5342">Wybór opcji napisania wiadomości do Klienta</text><rect fill="#F1F1F1" height="35.0938" rx="12.5" ry="12.5" style="stroke:#181818;stroke-width:0.5;" width="175" x="1057" y="788.1709"/><text fill="#000000" font-family="sans-serif" font-size="12" lengthAdjust="spacing" textLength="155" x="1067" y="810.6279">Wpisanie treści wiadomości</text><rect fill="#F1F1F1" height="35.0938" rx="12.5" ry="12.5" style="stroke:#181818;stroke-width:0.5;" width="142" x="1073.5" y="858.2646"/><text fill="#000000" font-family="sans-serif" font-size="12" lengthAdjust="spacing" textLength="122" x="1083.5" y="880.7217">Wybór przycisku Wyślij</text><polygon fill="#F1F1F1" points="1144.5,744.1709,1156.5,756.1709,1144.5,768.1709,1132.5,756.1709,1144.5,744.1709" style="stroke:#181818;stroke-width:0.5;"/><line style="stroke:#000000;stroke-width:1.5;" x1="910.5" x2="910.5" y1="51.0645" y2="1104.6406"/><line style="stroke:#000000;stroke-width:1.5;" x1="1291" x2="1291" y1="51.0645" y2="1104.6406"/><line style="stroke:#181818;stroke-width:1.0;" x1="559" x2="559" y1="490.877" y2="523.7959"/><polygon fill="#181818" points="555,513.7959,559,523.7959,563,513.7959,559,517.7959" style="stroke:#181818;stroke-width:1.0;"/><line style="stroke:#181818;stroke-width:1.0;" x1="697.5" x2="814" y1="925.3584" y2="925.3584"/><line style="stroke:#181818;stroke-width:1.0;" x1="814" x2="814" y1="858.3115" y2="925.3584"/><polygon fill="#181818" points="810,868.3115,814,858.3115,818,868.3115,814,864.3115" style="stroke:#181818;stroke-width:1.0;"/><line style="stroke:#181818;stroke-width:1.0;" x1="559" x2="559" y1="937.3584" y2="970.2773"/><polygon fill="#181818" points="555,960.2773,559,970.2773,563,960.2773,559,964.2773" style="stroke:#181818;stroke-width:1.0;"/><line style="stroke:#181818;stroke-width:1.0;" x1="559" x2="559" y1="1005.3711" y2="1025.3711"/><polygon fill="#181818" points="555,1015.3711,559,1025.3711,563,1015.3711,559,1019.3711" style="stroke:#181818;stroke-width:1.0;"/><line style="stroke:#181818;stroke-width:1.0;" x1="559" x2="559" y1="1060.4648" y2="1080.4648"/><polygon fill="#181818" points="555,1070.4648,559,1080.4648,563,1070.4648,559,1074.4648" style="stroke:#181818;stroke-width:1.0;"/><line style="stroke:#181818;stroke-width:1.0;" x1="1144.5" x2="1144.5" y1="135.0566" y2="191.4082"/><polygon fill="#181818" points="1140.5,181.4082,1144.5,191.4082,1148.5,181.4082,1144.5,185.4082" style="stroke:#181818;stroke-width:1.0;"/><line style="stroke:#181818;stroke-width:1.0;" x1="1144.5" x2="1144.5" y1="391.7832" y2="411.7832"/><polygon fill="#181818" points="1140.5,401.7832,1144.5,411.7832,1148.5,401.7832,1144.5,405.7832" style="stroke:#181818;stroke-width:1.0;"/><line style="stroke:#181818;stroke-width:1.0;" x1="1144.5" x2="1144.5" y1="336.6895" y2="356.6895"/><polygon fill="#181818" points="1140.5,346.6895,1144.5,356.6895,1148.5,346.6895,1144.5,350.6895" style="stroke:#181818;stroke-width:1.0;"/><line style="stroke:#181818;stroke-width:1.0;" x1="1144.5" x2="1144.5" y1="823.2646" y2="858.2646"/><polygon fill="#181818" points="1140.5,848.2646,1144.5,858.2646,1148.5,848.2646,1144.5,852.2646" style="stroke:#181818;stroke-width:1.0;"/><line style="stroke:#181818;stroke-width:1.0;" x1="1144.5" x2="1144.5" y1="768.1709" y2="788.1709"/><polygon fill="#181818" points="1140.5,778.1709,1144.5,788.1709,1148.5,778.1709,1144.5,782.1709" style="stroke:#181818;stroke-width:1.0;"/><line style="stroke:#181818;stroke-width:1.0;" x1="1144.5" x2="1144.5" y1="724.1709" y2="744.1709"/><polygon fill="#181818" points="1140.5,734.1709,1144.5,744.1709,1148.5,734.1709,1144.5,738.1709" style="stroke:#181818;stroke-width:1.0;"/><line style="stroke:#181818;stroke-width:1.0;" x1="1144.5" x2="1144.5" y1="226.502" y2="231.502"/><line style="stroke:#181818;stroke-width:1.0;" x1="1144.5" x2="559" y1="231.502" y2="231.502"/><line style="stroke:#181818;stroke-width:1.0;" x1="559" x2="559" y1="231.502" y2="246.502"/><polygon fill="#181818" points="555,236.502,559,246.502,563,236.502,559,240.502" style="stroke:#181818;stroke-width:1.0;"/><line style="stroke:#181818;stroke-width:1.0;" x1="559" x2="559" y1="281.5957" y2="286.5957"/><line style="stroke:#181818;stroke-width:1.0;" x1="559" x2="1144.5" y1="286.5957" y2="286.5957"/><line style="stroke:#181818;stroke-width:1.0;" x1="1144.5" x2="1144.5" y1="286.5957" y2="301.5957"/><polygon fill="#181818" points="1140.5,291.5957,1144.5,301.5957,1148.5,291.5957,1144.5,295.5957" style="stroke:#181818;stroke-width:1.0;"/><line style="stroke:#181818;stroke-width:1.0;" x1="672" x2="1017.75" y1="478.877" y2="478.877"/><polygon fill="#181818" points="1013.75,436.5566,1017.75,426.5566,1021.75,436.5566,1017.75,432.5566" style="stroke:#181818;stroke-width:1.0;"/><line style="stroke:#181818;stroke-width:1.0;" x1="1017.75" x2="1017.75" y1="374.2363" y2="478.877"/><line style="stroke:#181818;stroke-width:1.0;" x1="1017.75" x2="1133" y1="374.2363" y2="374.2363"/><polygon fill="#181818" points="1123,370.2363,1133,374.2363,1123,378.2363,1127,374.2363" style="stroke:#181818;stroke-width:1.0;"/><line style="stroke:#181818;stroke-width:1.0;" x1="1144.5" x2="1144.5" y1="446.877" y2="451.877"/><line style="stroke:#181818;stroke-width:1.0;" x1="1144.5" x2="559" y1="451.877" y2="451.877"/><line style="stroke:#181818;stroke-width:1.0;" x1="559" x2="559" y1="451.877" y2="466.877"/><polygon fill="#181818" points="555,456.877,559,466.877,563,456.877,559,460.877" style="stroke:#181818;stroke-width:1.0;"/><line style="stroke:#181818;stroke-width:1.0;" x1="559" x2="559" y1="558.8896" y2="563.8896"/><line style="stroke:#181818;stroke-width:1.0;" x1="559" x2="1144.5" y1="563.8896" y2="563.8896"/><line style="stroke:#181818;stroke-width:1.0;" x1="1144.5" x2="1144.5" y1="563.8896" y2="578.8896"/><polygon fill="#181818" points="1140.5,568.8896,1144.5,578.8896,1148.5,568.8896,1144.5,572.8896" style="stroke:#181818;stroke-width:1.0;"/><line style="stroke:#181818;stroke-width:1.0;" x1="1144.5" x2="1144.5" y1="613.9834" y2="618.9834"/><line style="stroke:#181818;stroke-width:1.0;" x1="1144.5" x2="559" y1="618.9834" y2="618.9834"/><line style="stroke:#181818;stroke-width:1.0;" x1="559" x2="559" y1="618.9834" y2="633.9834"/><polygon fill="#181818" points="555,623.9834,559,633.9834,563,623.9834,559,627.9834" style="stroke:#181818;stroke-width:1.0;"/><line style="stroke:#181818;stroke-width:1.0;" x1="559" x2="559" y1="669.0771" y2="674.0771"/><line style="stroke:#181818;stroke-width:1.0;" x1="559" x2="1144.5" y1="674.0771" y2="674.0771"/><line style="stroke:#181818;stroke-width:1.0;" x1="1144.5" x2="1144.5" y1="674.0771" y2="689.0771"/><polygon fill="#181818" points="1140.5,679.0771,1144.5,689.0771,1148.5,679.0771,1144.5,683.0771" style="stroke:#181818;stroke-width:1.0;"/><line style="stroke:#181818;stroke-width:1.0;" x1="814" x2="814" y1="756.1709" y2="823.2178"/><line style="stroke:#181818;stroke-width:1.0;" x1="814" x2="1132.5" y1="756.1709" y2="756.1709"/><polygon fill="#181818" points="1122.5,752.1709,1132.5,756.1709,1122.5,760.1709,1126.5,756.1709" style="stroke:#181818;stroke-width:1.0;"/><line style="stroke:#181818;stroke-width:1.0;" x1="1144.5" x2="1144.5" y1="893.3584" y2="898.3584"/><line style="stroke:#181818;stroke-width:1.0;" x1="1144.5" x2="559" y1="898.3584" y2="898.3584"/><line style="stroke:#181818;stroke-width:1.0;" x1="559" x2="559" y1="898.3584" y2="913.3584"/><polygon fill="#181818" points="555,903.3584,559,913.3584,563,903.3584,559,907.3584" style="stroke:#181818;stroke-width:1.0;"/><text fill="#000000" font-family="sans-serif" font-size="18" lengthAdjust="spacing" textLength="59" x="435.75" y="69.75">System</text><text fill="#000000" font-family="sans-serif" font-size="18" lengthAdjust="spacing" textLength="54" x="1076.25" y="69.75">Trener</text><!--SRC=[TLCnZjim4EprYYrj82-GYnIv9d2H8W5ShwMrJ8dc2XGDGeAh08TxGt3FkFQwi_-LNL7M-PoB6WBQ6UxCx3AOO0dMx08s0NvvSkGH1bXRGoxG0N9um8D11slq4KDswaxmi- -ab9t2QM9aNK0Vifrb3CPLu3WGMDg5V0B0W9OhZkXwYD2DV4EV4ZPp6KmNdA6Q9ZLPtlg1wijp8RMIeQEcg0tyy1KwCs1HYt2ipt_EJpSzLgeuopVzvJaQ4hDo8pGePub-c1ahTQEmxTkBV__fgIKCUGRoQT6ZqhdLlbRaARyrdTWgzfFAjvUu6l7QD_4XxesalFWszE1GYCd2RA_OSs7myWerbUIcUxuk1G0BGImr7bZ8X9RtHbH3_nyDLqD9irpjgE9vj0doRpIjvvsnnmc57tD9nbrgPn2YmP8Fh7Pq83CdsPvIIs22u6a4tf1MSx1wkqotBqpN744bMLE_vxZ5eedeono-kntxGnfsz1maJ-aSqkAkxWBVN5l9IhH77PSzRYKkiIjRBg9A7Y9RThEwANNDEgMk-LzpwYw_HoTtjfkhRO5KgaFtNAFae8tAWSQi9Zf-3A0Bt7x-3cwqSpa_pL9M9PtNkBz08zFqFHmG1FzgJKmifnRFZy9kMOIKWw7pqry0]--></g></svg>