<?xml version="1.0" encoding="UTF-8" standalone="no"?><svg xmlns="http://www.w3.org/2000/svg" xmlns:xlink="http://www.w3.org/1999/xlink" contentStyleType="text/css" height="776px" preserveAspectRatio="none" style="width:1084px;height:776px;background:#FFFFFF;" version="1.1" viewBox="0 0 1084 776" width="1084px" zoomAndPan="magnify"><defs/><g><text fill="#000000" font-family="sans-serif" font-size="14" font-weight="bold" lengthAdjust="spacing" textLength="327" x="377" y="34.5332">Odwołanie zajęć przez trenera : Damian Karwat</text><rect fill="none" height="22.6406" style="stroke:none;stroke-width:1.0;" width="1051" x="15" y="51.0645"/><rect fill="#F1F1F1" height="35.0938" rx="12.5" ry="12.5" style="stroke:#181818;stroke-width:0.5;" width="186" x="364" y="290.502"/><text fill="#000000" font-family="sans-serif" font-size="12" lengthAdjust="spacing" textLength="166" x="374" y="312.959">Wyświetlenie kalendarza zajęć</text><rect fill="#F1F1F1" height="35.0938" rx="12.5" ry="12.5" style="stroke:#181818;stroke-width:0.5;" width="201" x="356.5" y="463.2832"/><text fill="#000000" font-family="sans-serif" font-size="12" lengthAdjust="spacing" textLength="181" x="366.5" y="485.7402">Wyświetlenie okna potwierdzenia</text><polygon fill="#F1F1F1" points="457,246.502,469,258.502,457,270.502,445,258.502,457,246.502" style="stroke:#181818;stroke-width:0.5;"/><rect fill="#F1F1F1" height="35.0938" rx="12.5" ry="12.5" style="stroke:#181818;stroke-width:0.5;" width="178" x="368" y="575.2959"/><text fill="#000000" font-family="sans-serif" font-size="12" lengthAdjust="spacing" textLength="158" x="378" y="597.7529">Usunięcie zajęć z kalendarza</text><rect fill="#F1F1F1" height="35.0938" rx="12.5" ry="12.5" style="stroke:#181818;stroke-width:0.5;" width="324" x="295" y="630.3896"/><text fill="#000000" font-family="sans-serif" font-size="12" lengthAdjust="spacing" textLength="304" x="305" y="652.8467">Wysłanie powiadomienia o odwołaniu zajęć do klientów</text><rect fill="#F1F1F1" height="35.0938" rx="12.5" ry="12.5" style="stroke:#181818;stroke-width:0.5;" width="278" x="318" y="685.4834"/><text fill="#000000" font-family="sans-serif" font-size="12" lengthAdjust="spacing" textLength="258" x="328" y="707.9404">Wygenerowanie potwierdzenia odwołania zajęć</text><path d="M20,738.4014 L20,764.7529 L426,764.7529 L426,748.4014 L416,738.4014 L20,738.4014 " fill="#FEFFDD" style="stroke:#181818;stroke-width:0.5;"/><path d="M416,738.4014 L416,748.4014 L426,748.4014 L416,738.4014 " fill="#FEFFDD" style="stroke:#181818;stroke-width:0.5;"/><text fill="#000000" font-family="sans-serif" font-size="13" lengthAdjust="spacing" textLength="385" x="26" y="756.8965">Zajęcia usunięte z kalendarza, powiadomienie wysłane do klientów</text><ellipse cx="457" cy="751.5771" fill="none" rx="11" ry="11" style="stroke:#222222;stroke-width:1.0;"/><ellipse cx="457" cy="751.5771" fill="#222222" rx="6" ry="6" style="stroke:#111111;stroke-width:1.0;"/><line style="stroke:#000000;stroke-width:1.5;" x1="15" x2="15" y1="51.0645" y2="764.7529"/><path d="M668.5,88.7051 L668.5,115.0566 L867.5,115.0566 L867.5,98.7051 L857.5,88.7051 L668.5,88.7051 " fill="#FEFFDD" style="stroke:#181818;stroke-width:0.5;"/><path d="M857.5,88.7051 L857.5,98.7051 L867.5,98.7051 L857.5,88.7051 " fill="#FEFFDD" style="stroke:#181818;stroke-width:0.5;"/><text fill="#000000" font-family="sans-serif" font-size="13" lengthAdjust="spacing" textLength="178" x="674.5" y="107.2002">Trener zalogowany w systemie</text><path d="M638,135.0566 L638,161.4082 L898,161.4082 L898,145.0566 L888,135.0566 L638,135.0566 " fill="#FEFFDD" style="stroke:#181818;stroke-width:0.5;"/><path d="M888,135.0566 L888,145.0566 L898,145.0566 L888,135.0566 " fill="#FEFFDD" style="stroke:#181818;stroke-width:0.5;"/><text fill="#000000" font-family="sans-serif" font-size="13" lengthAdjust="spacing" textLength="239" x="644" y="153.5518">W systemie istnieją zaplanowane zajęcia</text><ellipse cx="918" cy="125.0566" fill="#222222" rx="10" ry="10" style="stroke:#222222;stroke-width:1.0;"/><rect fill="#F1F1F1" height="35.0938" rx="12.5" ry="12.5" style="stroke:#181818;stroke-width:0.5;" width="285" x="775.5" y="191.4082"/><text fill="#000000" font-family="sans-serif" font-size="12" lengthAdjust="spacing" textLength="265" x="785.5" y="213.8652">przejście do sekcji Organizacja zajęć w systemie</text><rect fill="#F1F1F1" height="35.0938" rx="12.5" ry="12.5" style="stroke:#181818;stroke-width:0.5;" width="162" x="837" y="345.5957"/><text fill="#000000" font-family="sans-serif" font-size="12" lengthAdjust="spacing" textLength="142" x="847" y="368.0527">Wybór zajęć do odwołania</text><rect fill="#F1F1F1" height="35.0938" rx="12.5" ry="12.5" style="stroke:#181818;stroke-width:0.5;" width="187" x="824.5" y="408.1895"/><text fill="#000000" font-family="sans-serif" font-size="12" lengthAdjust="spacing" textLength="167" x="834.5" y="430.6465">Wybranie opcji odwołaj zajęcia</text><polygon fill="#F1F1F1" points="860,518.377,976,518.377,988,530.377,976,542.377,860,542.377,848,530.377,860,518.377" style="stroke:#181818;stroke-width:0.5;"/><text fill="#000000" font-family="sans-serif" font-size="11" lengthAdjust="spacing" textLength="14" x="922" y="553.7959">tak</text><text fill="#000000" font-family="sans-serif" font-size="11" lengthAdjust="spacing" textLength="116" x="860" y="534.8779">Potwierdzenie wyboru?</text><text fill="#000000" font-family="sans-serif" font-size="11" lengthAdjust="spacing" textLength="14" x="988" y="527.96">nie</text><line style="stroke:#000000;stroke-width:1.5;" x1="623" x2="623" y1="51.0645" y2="764.7529"/><line style="stroke:#000000;stroke-width:1.5;" x1="1064.5" x2="1064.5" y1="51.0645" y2="764.7529"/><line style="stroke:#181818;stroke-width:1.0;" x1="457" x2="457" y1="270.502" y2="290.502"/><polygon fill="#181818" points="453,280.502,457,290.502,461,280.502,457,284.502" style="stroke:#181818;stroke-width:1.0;"/><line style="stroke:#181818;stroke-width:1.0;" x1="457" x2="457" y1="610.3896" y2="630.3896"/><polygon fill="#181818" points="453,620.3896,457,630.3896,461,620.3896,457,624.3896" style="stroke:#181818;stroke-width:1.0;"/><line style="stroke:#181818;stroke-width:1.0;" x1="457" x2="457" y1="665.4834" y2="685.4834"/><polygon fill="#181818" points="453,675.4834,457,685.4834,461,675.4834,457,679.4834" style="stroke:#181818;stroke-width:1.0;"/><line style="stroke:#181818;stroke-width:1.0;" x1="457" x2="457" y1="720.5771" y2="740.5771"/><polygon fill="#181818" points="453,730.5771,457,740.5771,461,730.5771,457,734.5771" style="stroke:#181818;stroke-width:1.0;"/><line style="stroke:#181818;stroke-width:1.0;" x1="918" x2="918" y1="135.0566" y2="191.4082"/><polygon fill="#181818" points="914,181.4082,918,191.4082,922,181.4082,918,185.4082" style="stroke:#181818;stroke-width:1.0;"/><line style="stroke:#181818;stroke-width:1.0;" x1="918" x2="918" y1="380.6895" y2="408.1895"/><polygon fill="#181818" points="914,398.1895,918,408.1895,922,398.1895,918,402.1895" style="stroke:#181818;stroke-width:1.0;"/><line style="stroke:#181818;stroke-width:1.0;" x1="457" x2="457" y1="325.5957" y2="330.5957"/><line style="stroke:#181818;stroke-width:1.0;" x1="457" x2="918" y1="330.5957" y2="330.5957"/><line style="stroke:#181818;stroke-width:1.0;" x1="918" x2="918" y1="330.5957" y2="345.5957"/><polygon fill="#181818" points="914,335.5957,918,345.5957,922,335.5957,918,339.5957" style="stroke:#181818;stroke-width:1.0;"/><line style="stroke:#181818;stroke-width:1.0;" x1="918" x2="918" y1="443.2832" y2="448.2832"/><line style="stroke:#181818;stroke-width:1.0;" x1="918" x2="457" y1="448.2832" y2="448.2832"/><line style="stroke:#181818;stroke-width:1.0;" x1="457" x2="457" y1="448.2832" y2="463.2832"/><polygon fill="#181818" points="453,453.2832,457,463.2832,461,453.2832,457,457.2832" style="stroke:#181818;stroke-width:1.0;"/><line style="stroke:#181818;stroke-width:1.0;" x1="988" x2="1030.5" y1="530.377" y2="530.377"/><polygon fill="#181818" points="1026.5,400.6895,1030.5,390.6895,1034.5,400.6895,1030.5,396.6895" style="stroke:#181818;stroke-width:1.0;"/><line style="stroke:#181818;stroke-width:1.0;" x1="1030.5" x2="1030.5" y1="258.502" y2="530.377"/><line style="stroke:#181818;stroke-width:1.0;" x1="1030.5" x2="469" y1="258.502" y2="258.502"/><polygon fill="#181818" points="479,254.502,469,258.502,479,262.502,475,258.502" style="stroke:#181818;stroke-width:1.0;"/><line style="stroke:#181818;stroke-width:1.0;" x1="457" x2="457" y1="498.377" y2="503.377"/><line style="stroke:#181818;stroke-width:1.0;" x1="457" x2="918" y1="503.377" y2="503.377"/><line style="stroke:#181818;stroke-width:1.0;" x1="918" x2="918" y1="503.377" y2="518.377"/><polygon fill="#181818" points="914,508.377,918,518.377,922,508.377,918,512.377" style="stroke:#181818;stroke-width:1.0;"/><line style="stroke:#181818;stroke-width:1.0;" x1="918" x2="918" y1="226.502" y2="231.502"/><line style="stroke:#181818;stroke-width:1.0;" x1="918" x2="457" y1="231.502" y2="231.502"/><line style="stroke:#181818;stroke-width:1.0;" x1="457" x2="457" y1="231.502" y2="246.502"/><polygon fill="#181818" points="453,236.502,457,246.502,461,236.502,457,240.502" style="stroke:#181818;stroke-width:1.0;"/><line style="stroke:#181818;stroke-width:1.0;" x1="918" x2="918" y1="542.377" y2="559.877"/><line style="stroke:#181818;stroke-width:1.0;" x1="918" x2="457" y1="559.877" y2="559.877"/><line style="stroke:#181818;stroke-width:1.0;" x1="457" x2="457" y1="559.877" y2="575.2959"/><polygon fill="#181818" points="453,565.2959,457,575.2959,461,565.2959,457,569.2959" style="stroke:#181818;stroke-width:1.0;"/><text fill="#000000" font-family="sans-serif" font-size="18" lengthAdjust="spacing" textLength="59" x="292" y="69.75">System</text><text fill="#000000" font-family="sans-serif" font-size="18" lengthAdjust="spacing" textLength="54" x="819.25" y="69.75">Trener</text><!--SRC=[VP9DQiCm48NtEiKi4-W9x4KttNMHGbi2tKrinPNjI4OQ8soyAfIUeUGOEKAIUtNak8e3fTe8D7_VUoDIL4jOvTwSFr0h2JsMf-_J5pIsbpsGbLfQX0GUSATGmoDQZoG6Dy1pvqZkn403l8nfmX5Q4jlQ82bTW3OaePPRIgO4RbwRmdZK7NXmOxsIVnQiOnYK8mOhJvzStjIeG_t4cIaKII0jp_kCKtC3JbPPgM1b2vRJOrPYb7GTcGeh6yawW0zh6UzatPttNaas91XH8TyvsZusI2_f5DCtnuEDtNcs-RKHqvXYHrTD4w2cU1dXq_y0JAKH6aFyOlDUngu1u88F_btnzXPFioG9ljiOszulsJXOyCCo-0eBmcePzYQILzTg5UPVjztFvAQ2GTpq7HhZ5UQ6FUFvC9FOpeLNDSVfUF1ZRH5s7ROqri_uPmPTFNLacZ-_mDja4hGNNWxCCUzks8BiaLdUyFm0]--></g></svg>