<?xml version="1.0" encoding="UTF-8" standalone="no"?><svg xmlns="http://www.w3.org/2000/svg" xmlns:xlink="http://www.w3.org/1999/xlink" contentStyleType="text/css" height="738px" preserveAspectRatio="none" style="width:1084px;height:738px;background:#FFFFFF;" version="1.1" viewBox="0 0 1084 738" width="1084px" zoomAndPan="magnify"><defs/><g><rect fill="none" height="22.6406" style="stroke:none;stroke-width:1.0;" width="1051" x="15" y="12.4551"/><rect fill="#F1F1F1" height="35.0938" rx="12.5" ry="12.5" style="stroke:#181818;stroke-width:0.5;" width="186" x="364" y="251.8926"/><text fill="#000000" font-family="sans-serif" font-size="12" lengthAdjust="spacing" textLength="166" x="374" y="274.3496">Wyświetlenie kalendarza zajęć</text><rect fill="#F1F1F1" height="35.0938" rx="12.5" ry="12.5" style="stroke:#181818;stroke-width:0.5;" width="201" x="356.5" y="424.6738"/><text fill="#000000" font-family="sans-serif" font-size="12" lengthAdjust="spacing" textLength="181" x="366.5" y="447.1309">Wyświetlenie okna potwierdzenia</text><polygon fill="#F1F1F1" points="457,207.8926,469,219.8926,457,231.8926,445,219.8926,457,207.8926" style="stroke:#181818;stroke-width:0.5;"/><rect fill="#F1F1F1" height="35.0938" rx="12.5" ry="12.5" style="stroke:#181818;stroke-width:0.5;" width="178" x="368" y="536.6865"/><text fill="#000000" font-family="sans-serif" font-size="12" lengthAdjust="spacing" textLength="158" x="378" y="559.1436">Usunięcie zajęć z kalendarza</text><rect fill="#F1F1F1" height="35.0938" rx="12.5" ry="12.5" style="stroke:#181818;stroke-width:0.5;" width="324" x="295" y="591.7803"/><text fill="#000000" font-family="sans-serif" font-size="12" lengthAdjust="spacing" textLength="304" x="305" y="614.2373">Wysłanie powiadomienia o odwołaniu zajęć do klientów</text><rect fill="#F1F1F1" height="35.0938" rx="12.5" ry="12.5" style="stroke:#181818;stroke-width:0.5;" width="278" x="318" y="646.874"/><text fill="#000000" font-family="sans-serif" font-size="12" lengthAdjust="spacing" textLength="258" x="328" y="669.3311">Wygenerowanie potwierdzenia odwołania zajęć</text><path d="M20,699.792 L20,726.1436 L426,726.1436 L426,709.792 L416,699.792 L20,699.792 " fill="#FEFFDD" style="stroke:#181818;stroke-width:0.5;"/><path d="M416,699.792 L416,709.792 L426,709.792 L416,699.792 " fill="#FEFFDD" style="stroke:#181818;stroke-width:0.5;"/><text fill="#000000" font-family="sans-serif" font-size="13" lengthAdjust="spacing" textLength="385" x="26" y="718.2871">Zajęcia usunięte z kalendarza, powiadomienie wysłane do klientów</text><ellipse cx="457" cy="712.9678" fill="none" rx="11" ry="11" style="stroke:#222222;stroke-width:1.0;"/><ellipse cx="457" cy="712.9678" fill="#222222" rx="6" ry="6" style="stroke:#111111;stroke-width:1.0;"/><line style="stroke:#000000;stroke-width:1.5;" x1="15" x2="15" y1="12.4551" y2="726.1436"/><path d="M668.5,50.0957 L668.5,76.4473 L867.5,76.4473 L867.5,60.0957 L857.5,50.0957 L668.5,50.0957 " fill="#FEFFDD" style="stroke:#181818;stroke-width:0.5;"/><path d="M857.5,50.0957 L857.5,60.0957 L867.5,60.0957 L857.5,50.0957 " fill="#FEFFDD" style="stroke:#181818;stroke-width:0.5;"/><text fill="#000000" font-family="sans-serif" font-size="13" lengthAdjust="spacing" textLength="178" x="674.5" y="68.5908">Trener zalogowany w systemie</text><path d="M638,96.4473 L638,122.7988 L898,122.7988 L898,106.4473 L888,96.4473 L638,96.4473 " fill="#FEFFDD" style="stroke:#181818;stroke-width:0.5;"/><path d="M888,96.4473 L888,106.4473 L898,106.4473 L888,96.4473 " fill="#FEFFDD" style="stroke:#181818;stroke-width:0.5;"/><text fill="#000000" font-family="sans-serif" font-size="13" lengthAdjust="spacing" textLength="239" x="644" y="114.9424">W systemie istnieją zaplanowane zajęcia</text><ellipse cx="918" cy="86.4473" fill="#222222" rx="10" ry="10" style="stroke:#222222;stroke-width:1.0;"/><rect fill="#F1F1F1" height="35.0938" rx="12.5" ry="12.5" style="stroke:#181818;stroke-width:0.5;" width="285" x="775.5" y="152.7988"/><text fill="#000000" font-family="sans-serif" font-size="12" lengthAdjust="spacing" textLength="265" x="785.5" y="175.2559">przejście do sekcji Organizacja zajęć w systemie</text><rect fill="#F1F1F1" height="35.0938" rx="12.5" ry="12.5" style="stroke:#181818;stroke-width:0.5;" width="162" x="837" y="306.9863"/><text fill="#000000" font-family="sans-serif" font-size="12" lengthAdjust="spacing" textLength="142" x="847" y="329.4434">Wybór zajęć do odwołania</text><rect fill="#F1F1F1" height="35.0938" rx="12.5" ry="12.5" style="stroke:#181818;stroke-width:0.5;" width="187" x="824.5" y="369.5801"/><text fill="#000000" font-family="sans-serif" font-size="12" lengthAdjust="spacing" textLength="167" x="834.5" y="392.0371">Wybranie opcji odwołaj zajęcia</text><polygon fill="#F1F1F1" points="860,479.7676,976,479.7676,988,491.7676,976,503.7676,860,503.7676,848,491.7676,860,479.7676" style="stroke:#181818;stroke-width:0.5;"/><text fill="#000000" font-family="sans-serif" font-size="11" lengthAdjust="spacing" textLength="14" x="922" y="515.1865">tak</text><text fill="#000000" font-family="sans-serif" font-size="11" lengthAdjust="spacing" textLength="116" x="860" y="496.2686">Potwierdzenie wyboru?</text><text fill="#000000" font-family="sans-serif" font-size="11" lengthAdjust="spacing" textLength="14" x="988" y="489.3506">nie</text><line style="stroke:#000000;stroke-width:1.5;" x1="623" x2="623" y1="12.4551" y2="726.1436"/><line style="stroke:#000000;stroke-width:1.5;" x1="1064.5" x2="1064.5" y1="12.4551" y2="726.1436"/><line style="stroke:#181818;stroke-width:1.0;" x1="457" x2="457" y1="231.8926" y2="251.8926"/><polygon fill="#181818" points="453,241.8926,457,251.8926,461,241.8926,457,245.8926" style="stroke:#181818;stroke-width:1.0;"/><line style="stroke:#181818;stroke-width:1.0;" x1="457" x2="457" y1="571.7803" y2="591.7803"/><polygon fill="#181818" points="453,581.7803,457,591.7803,461,581.7803,457,585.7803" style="stroke:#181818;stroke-width:1.0;"/><line style="stroke:#181818;stroke-width:1.0;" x1="457" x2="457" y1="626.874" y2="646.874"/><polygon fill="#181818" points="453,636.874,457,646.874,461,636.874,457,640.874" style="stroke:#181818;stroke-width:1.0;"/><line style="stroke:#181818;stroke-width:1.0;" x1="457" x2="457" y1="681.9678" y2="701.9678"/><polygon fill="#181818" points="453,691.9678,457,701.9678,461,691.9678,457,695.9678" style="stroke:#181818;stroke-width:1.0;"/><line style="stroke:#181818;stroke-width:1.0;" x1="918" x2="918" y1="96.4473" y2="152.7988"/><polygon fill="#181818" points="914,142.7988,918,152.7988,922,142.7988,918,146.7988" style="stroke:#181818;stroke-width:1.0;"/><line style="stroke:#181818;stroke-width:1.0;" x1="918" x2="918" y1="342.0801" y2="369.5801"/><polygon fill="#181818" points="914,359.5801,918,369.5801,922,359.5801,918,363.5801" style="stroke:#181818;stroke-width:1.0;"/><line style="stroke:#181818;stroke-width:1.0;" x1="457" x2="457" y1="286.9863" y2="291.9863"/><line style="stroke:#181818;stroke-width:1.0;" x1="457" x2="918" y1="291.9863" y2="291.9863"/><line style="stroke:#181818;stroke-width:1.0;" x1="918" x2="918" y1="291.9863" y2="306.9863"/><polygon fill="#181818" points="914,296.9863,918,306.9863,922,296.9863,918,300.9863" style="stroke:#181818;stroke-width:1.0;"/><line style="stroke:#181818;stroke-width:1.0;" x1="918" x2="918" y1="404.6738" y2="409.6738"/><line style="stroke:#181818;stroke-width:1.0;" x1="918" x2="457" y1="409.6738" y2="409.6738"/><line style="stroke:#181818;stroke-width:1.0;" x1="457" x2="457" y1="409.6738" y2="424.6738"/><polygon fill="#181818" points="453,414.6738,457,424.6738,461,414.6738,457,418.6738" style="stroke:#181818;stroke-width:1.0;"/><line style="stroke:#181818;stroke-width:1.0;" x1="988" x2="1030.5" y1="491.7676" y2="491.7676"/><polygon fill="#181818" points="1026.5,362.0801,1030.5,352.0801,1034.5,362.0801,1030.5,358.0801" style="stroke:#181818;stroke-width:1.0;"/><line style="stroke:#181818;stroke-width:1.0;" x1="1030.5" x2="1030.5" y1="219.8926" y2="491.7676"/><line style="stroke:#181818;stroke-width:1.0;" x1="1030.5" x2="469" y1="219.8926" y2="219.8926"/><polygon fill="#181818" points="479,215.8926,469,219.8926,479,223.8926,475,219.8926" style="stroke:#181818;stroke-width:1.0;"/><line style="stroke:#181818;stroke-width:1.0;" x1="457" x2="457" y1="459.7676" y2="464.7676"/><line style="stroke:#181818;stroke-width:1.0;" x1="457" x2="918" y1="464.7676" y2="464.7676"/><line style="stroke:#181818;stroke-width:1.0;" x1="918" x2="918" y1="464.7676" y2="479.7676"/><polygon fill="#181818" points="914,469.7676,918,479.7676,922,469.7676,918,473.7676" style="stroke:#181818;stroke-width:1.0;"/><line style="stroke:#181818;stroke-width:1.0;" x1="918" x2="918" y1="187.8926" y2="192.8926"/><line style="stroke:#181818;stroke-width:1.0;" x1="918" x2="457" y1="192.8926" y2="192.8926"/><line style="stroke:#181818;stroke-width:1.0;" x1="457" x2="457" y1="192.8926" y2="207.8926"/><polygon fill="#181818" points="453,197.8926,457,207.8926,461,197.8926,457,201.8926" style="stroke:#181818;stroke-width:1.0;"/><line style="stroke:#181818;stroke-width:1.0;" x1="918" x2="918" y1="503.7676" y2="521.2676"/><line style="stroke:#181818;stroke-width:1.0;" x1="918" x2="457" y1="521.2676" y2="521.2676"/><line style="stroke:#181818;stroke-width:1.0;" x1="457" x2="457" y1="521.2676" y2="536.6865"/><polygon fill="#181818" points="453,526.6865,457,536.6865,461,526.6865,457,530.6865" style="stroke:#181818;stroke-width:1.0;"/><text fill="#000000" font-family="sans-serif" font-size="18" lengthAdjust="spacing" textLength="59" x="292" y="31.1406">System</text><text fill="#000000" font-family="sans-serif" font-size="18" lengthAdjust="spacing" textLength="54" x="819.25" y="31.1406">Trener</text><!--SRC=[VP91QiCm44NtEiKi4-W9x4MEq49R0jrDx8ahsvMC92Dil2gKdg7a63b2adjrP0TLWL1lP3H_vh_vzcGdU1wiemynkGbU32aomZeqJknRZKwg2fHs12tjNNOLm8YjhhH7DO07E_TBkjkmZMMGrYb9zVcBsxiMLUWdVg_FFuL4aNLcfFfoA5XQQh3K5BM4HrEXaYCMDIxIytTYcGj37Q4JmCzaf_dCjiFbu2MvbjWF6kIpH3F60VaYTr6-EnrDdCxUklJwyic-c4U9mJ1CTm7gMgyZVFuVW6uKGgSTtvXof3Wr02puuDzbIx1wIaG4VjXfqs_M71oi-68TSeMLmsOjWbNsQdibWpz5-35PDnSCOkSzYFszn59pPkmFoOfzkdZJSjsTZdxkhSAt3bzfxa_uau3-ChLETtT_WRThID0ll5n8CHzksCBQCpFTyFm2]--></g></svg>