<?xml version="1.0" encoding="UTF-8" standalone="no"?><svg xmlns="http://www.w3.org/2000/svg" xmlns:xlink="http://www.w3.org/1999/xlink" contentStyleType="text/css" height="1218px" preserveAspectRatio="none" style="width:1026px;height:1218px;background:#FFFFFF;" version="1.1" viewBox="0 0 1026 1218" width="1026px" zoomAndPan="magnify"><defs/><g><text fill="#000000" font-family="sans-serif" font-size="14" font-weight="bold" lengthAdjust="spacing" textLength="335" x="344" y="34.5332">Organizacja zajęć przez trenera : Damian Karwat</text><rect fill="none" height="22.6406" style="stroke:none;stroke-width:1.0;" width="993" x="15" y="51.0645"/><rect fill="#F1F1F1" height="35.0938" rx="12.5" ry="12.5" style="stroke:#181818;stroke-width:0.5;" width="231" x="282.5" y="246.502"/><text fill="#000000" font-family="sans-serif" font-size="12" lengthAdjust="spacing" textLength="211" x="292.5" y="268.959">Wyświetlenie opcji Dodaj nowe zajęcia</text><rect fill="#F1F1F1" height="35.0938" rx="12.5" ry="12.5" style="stroke:#181818;stroke-width:0.5;" width="287" x="254.5" y="400.6895"/><text fill="#000000" font-family="sans-serif" font-size="12" lengthAdjust="spacing" textLength="267" x="264.5" y="423.1465">Wyświetlenie formularza, do podania szczegółów</text><rect fill="#F1F1F1" height="35.0938" rx="12.5" ry="12.5" style="stroke:#181818;stroke-width:0.5;" width="178" x="309" y="653.9707"/><text fill="#000000" font-family="sans-serif" font-size="12" lengthAdjust="spacing" textLength="158" x="319" y="676.4277">Wyświetlenie dostępnych sal</text><polygon fill="#F1F1F1" points="398,609.9707,410,621.9707,398,633.9707,386,621.9707,398,609.9707" style="stroke:#181818;stroke-width:0.5;"/><rect fill="#F1F1F1" height="35.0938" rx="12.5" ry="12.5" style="stroke:#181818;stroke-width:0.5;" width="207" x="294.5" y="903.6709"/><text fill="#000000" font-family="sans-serif" font-size="12" lengthAdjust="spacing" textLength="187" x="304.5" y="926.1279">Sprawdzenie poprawności danych</text><polygon fill="#F1F1F1" points="398,565.9707,410,577.9707,398,589.9707,386,577.9707,398,565.9707" style="stroke:#181818;stroke-width:0.5;"/><polygon fill="#F1F1F1" points="326,958.7646,470,958.7646,482,970.7646,470,982.7646,326,982.7646,314,970.7646,326,958.7646" style="stroke:#181818;stroke-width:0.5;"/><text fill="#000000" font-family="sans-serif" font-size="11" lengthAdjust="spacing" textLength="14" x="402" y="994.1836">tak</text><text fill="#000000" font-family="sans-serif" font-size="11" lengthAdjust="spacing" textLength="144" x="326" y="975.2656">Wolny termin i dostępna sala?</text><text fill="#000000" font-family="sans-serif" font-size="11" lengthAdjust="spacing" textLength="14" x="482" y="968.3477">nie</text><polygon fill="#F1F1F1" points="398,356.6895,410,368.6895,398,380.6895,386,368.6895,398,356.6895" style="stroke:#181818;stroke-width:0.5;"/><polygon fill="#F1F1F1" points="321.5,1015.6836,474.5,1015.6836,486.5,1027.6836,474.5,1039.6836,321.5,1039.6836,309.5,1027.6836,321.5,1015.6836" style="stroke:#181818;stroke-width:0.5;"/><text fill="#000000" font-family="sans-serif" font-size="11" lengthAdjust="spacing" textLength="14" x="402" y="1051.1025">tak</text><text fill="#000000" font-family="sans-serif" font-size="11" lengthAdjust="spacing" textLength="153" x="321.5" y="1032.1846">Formularz nie zawiera błędów?</text><text fill="#000000" font-family="sans-serif" font-size="11" lengthAdjust="spacing" textLength="14" x="486.5" y="1025.2666">nie</text><rect fill="#F1F1F1" height="35.0938" rx="12.5" ry="12.5" style="stroke:#181818;stroke-width:0.5;" width="360" x="218" y="1072.6025"/><text fill="#000000" font-family="sans-serif" font-size="12" lengthAdjust="spacing" textLength="340" x="228" y="1095.0596">Dodanie nowych zajęć do kalendarza i udostępnienie klientom</text><rect fill="#F1F1F1" height="35.0938" rx="12.5" ry="12.5" style="stroke:#181818;stroke-width:0.5;" width="280" x="258" y="1127.6963"/><text fill="#000000" font-family="sans-serif" font-size="12" lengthAdjust="spacing" textLength="260" x="268" y="1150.1533">Wygenerowanie potwierdzenia utworzenia zajęć</text><path d="M20,1180.6143 L20,1206.9658 L367,1206.9658 L367,1190.6143 L357,1180.6143 L20,1180.6143 " fill="#FEFFDD" style="stroke:#181818;stroke-width:0.5;"/><path d="M357,1180.6143 L357,1190.6143 L367,1190.6143 L357,1180.6143 " fill="#FEFFDD" style="stroke:#181818;stroke-width:0.5;"/><text fill="#000000" font-family="sans-serif" font-size="13" lengthAdjust="spacing" textLength="326" x="26" y="1199.1094">Zajęcia dodane do kalendarza i są dostępne dla klientów</text><ellipse cx="398" cy="1193.79" fill="none" rx="11" ry="11" style="stroke:#222222;stroke-width:1.0;"/><ellipse cx="398" cy="1193.79" fill="#222222" rx="6" ry="6" style="stroke:#111111;stroke-width:1.0;"/><line style="stroke:#000000;stroke-width:1.5;" x1="15" x2="15" y1="51.0645" y2="1206.9658"/><path d="M619,88.7051 L619,115.0566 L818,115.0566 L818,98.7051 L808,88.7051 L619,88.7051 " fill="#FEFFDD" style="stroke:#181818;stroke-width:0.5;"/><path d="M808,88.7051 L808,98.7051 L818,98.7051 L808,88.7051 " fill="#FEFFDD" style="stroke:#181818;stroke-width:0.5;"/><text fill="#000000" font-family="sans-serif" font-size="13" lengthAdjust="spacing" textLength="178" x="625" y="107.2002">Trener zalogowany w systemie</text><path d="M597,135.0566 L597,161.4082 L840,161.4082 L840,145.0566 L830,135.0566 L597,135.0566 " fill="#FEFFDD" style="stroke:#181818;stroke-width:0.5;"/><path d="M830,135.0566 L830,145.0566 L840,145.0566 L830,135.0566 " fill="#FEFFDD" style="stroke:#181818;stroke-width:0.5;"/><text fill="#000000" font-family="sans-serif" font-size="13" lengthAdjust="spacing" textLength="222" x="603" y="153.5518">Dostępna jest sala do zarezerwowania</text><ellipse cx="860" cy="125.0566" fill="#222222" rx="10" ry="10" style="stroke:#222222;stroke-width:1.0;"/><rect fill="#F1F1F1" height="35.0938" rx="12.5" ry="12.5" style="stroke:#181818;stroke-width:0.5;" width="285" x="717.5" y="191.4082"/><text fill="#000000" font-family="sans-serif" font-size="12" lengthAdjust="spacing" textLength="265" x="727.5" y="213.8652">przejście do sekcji Organizacja zajęć w systemie</text><rect fill="#F1F1F1" height="35.0938" rx="12.5" ry="12.5" style="stroke:#181818;stroke-width:0.5;" width="193" x="763.5" y="301.5957"/><text fill="#000000" font-family="sans-serif" font-size="12" lengthAdjust="spacing" textLength="173" x="773.5" y="324.0527">Wybór opcji Dodaj nowe zajęcia</text><rect fill="#F1F1F1" height="35.0938" rx="12.5" ry="12.5" style="stroke:#181818;stroke-width:0.5;" width="138" x="791" y="455.7832"/><text fill="#000000" font-family="sans-serif" font-size="12" lengthAdjust="spacing" textLength="118" x="801" y="478.2402">Wpisanie szczegółów</text><rect fill="#F1F1F1" height="35.0938" rx="12.5" ry="12.5" style="stroke:#181818;stroke-width:0.5;" width="191" x="764.5" y="510.877"/><text fill="#000000" font-family="sans-serif" font-size="12" lengthAdjust="spacing" textLength="171" x="774.5" y="533.334">Wybranie opcji Rezerwacja Sali</text><rect fill="#F1F1F1" height="35.0938" rx="12.5" ry="12.5" style="stroke:#181818;stroke-width:0.5;" width="77" x="821.5" y="716.5645"/><text fill="#000000" font-family="sans-serif" font-size="12" lengthAdjust="spacing" textLength="57" x="831.5" y="739.0215">Wybór sali</text><polygon fill="#F1F1F1" points="802,791.6582,918,791.6582,930,803.6582,918,815.6582,802,815.6582,790,803.6582,802,791.6582" style="stroke:#181818;stroke-width:0.5;"/><text fill="#000000" font-family="sans-serif" font-size="11" lengthAdjust="spacing" textLength="14" x="864" y="827.0771">tak</text><text fill="#000000" font-family="sans-serif" font-size="11" lengthAdjust="spacing" textLength="116" x="802" y="808.1592">Potwierdzenie wyboru?</text><text fill="#000000" font-family="sans-serif" font-size="11" lengthAdjust="spacing" textLength="14" x="930" y="801.2412">nie</text><rect fill="#F1F1F1" height="35.0938" rx="12.5" ry="12.5" style="stroke:#181818;stroke-width:0.5;" width="191" x="764.5" y="848.5771"/><text fill="#000000" font-family="sans-serif" font-size="12" lengthAdjust="spacing" textLength="171" x="774.5" y="871.0342">Wybranie opcji zapisz formularz</text><line style="stroke:#000000;stroke-width:1.5;" x1="582" x2="582" y1="51.0645" y2="1206.9658"/><line style="stroke:#000000;stroke-width:1.5;" x1="1006.5" x2="1006.5" y1="51.0645" y2="1206.9658"/><line style="stroke:#181818;stroke-width:1.0;" x1="398" x2="398" y1="633.9707" y2="653.9707"/><polygon fill="#181818" points="394,643.9707,398,653.9707,402,643.9707,398,647.9707" style="stroke:#181818;stroke-width:1.0;"/><line style="stroke:#181818;stroke-width:1.0;" x1="398" x2="398" y1="589.9707" y2="609.9707"/><polygon fill="#181818" points="394,599.9707,398,609.9707,402,599.9707,398,603.9707" style="stroke:#181818;stroke-width:1.0;"/><line style="stroke:#181818;stroke-width:1.0;" x1="314" x2="282.5" y1="970.7646" y2="970.7646"/><polygon fill="#181818" points="278.5,771.6582,282.5,761.6582,286.5,771.6582,282.5,767.6582" style="stroke:#181818;stroke-width:1.0;"/><line style="stroke:#181818;stroke-width:1.0;" x1="282.5" x2="282.5" y1="577.9707" y2="970.7646"/><line style="stroke:#181818;stroke-width:1.0;" x1="282.5" x2="386" y1="577.9707" y2="577.9707"/><polygon fill="#181818" points="376,573.9707,386,577.9707,376,581.9707,380,577.9707" style="stroke:#181818;stroke-width:1.0;"/><line style="stroke:#181818;stroke-width:1.0;" x1="398" x2="398" y1="938.7646" y2="958.7646"/><polygon fill="#181818" points="394,948.7646,398,958.7646,402,948.7646,398,952.7646" style="stroke:#181818;stroke-width:1.0;"/><line style="stroke:#181818;stroke-width:1.0;" x1="398" x2="398" y1="380.6895" y2="400.6895"/><polygon fill="#181818" points="394,390.6895,398,400.6895,402,390.6895,398,394.6895" style="stroke:#181818;stroke-width:1.0;"/><line style="stroke:#181818;stroke-width:1.0;" x1="309.5" x2="242.5" y1="1027.6836" y2="1027.6836"/><polygon fill="#181818" points="238.5,681.5176,242.5,671.5176,246.5,681.5176,242.5,677.5176" style="stroke:#181818;stroke-width:1.0;"/><line style="stroke:#181818;stroke-width:1.0;" x1="242.5" x2="242.5" y1="368.6895" y2="1027.6836"/><line style="stroke:#181818;stroke-width:1.0;" x1="242.5" x2="386" y1="368.6895" y2="368.6895"/><polygon fill="#181818" points="376,364.6895,386,368.6895,376,372.6895,380,368.6895" style="stroke:#181818;stroke-width:1.0;"/><line style="stroke:#181818;stroke-width:1.0;" x1="398" x2="398" y1="982.7646" y2="1015.6836"/><polygon fill="#181818" points="394,1005.6836,398,1015.6836,402,1005.6836,398,1009.6836" style="stroke:#181818;stroke-width:1.0;"/><line style="stroke:#181818;stroke-width:1.0;" x1="398" x2="398" y1="1039.6836" y2="1072.6025"/><polygon fill="#181818" points="394,1062.6025,398,1072.6025,402,1062.6025,398,1066.6025" style="stroke:#181818;stroke-width:1.0;"/><line style="stroke:#181818;stroke-width:1.0;" x1="398" x2="398" y1="1107.6963" y2="1127.6963"/><polygon fill="#181818" points="394,1117.6963,398,1127.6963,402,1117.6963,398,1121.6963" style="stroke:#181818;stroke-width:1.0;"/><line style="stroke:#181818;stroke-width:1.0;" x1="398" x2="398" y1="1162.79" y2="1182.79"/><polygon fill="#181818" points="394,1172.79,398,1182.79,402,1172.79,398,1176.79" style="stroke:#181818;stroke-width:1.0;"/><line style="stroke:#181818;stroke-width:1.0;" x1="860" x2="860" y1="135.0566" y2="191.4082"/><polygon fill="#181818" points="856,181.4082,860,191.4082,864,181.4082,860,185.4082" style="stroke:#181818;stroke-width:1.0;"/><line style="stroke:#181818;stroke-width:1.0;" x1="860" x2="860" y1="490.877" y2="510.877"/><polygon fill="#181818" points="856,500.877,860,510.877,864,500.877,860,504.877" style="stroke:#181818;stroke-width:1.0;"/><line style="stroke:#181818;stroke-width:1.0;" x1="860" x2="860" y1="751.6582" y2="791.6582"/><polygon fill="#181818" points="856,781.6582,860,791.6582,864,781.6582,860,785.6582" style="stroke:#181818;stroke-width:1.0;"/><line style="stroke:#181818;stroke-width:1.0;" x1="860" x2="860" y1="815.6582" y2="848.5771"/><polygon fill="#181818" points="856,838.5771,860,848.5771,864,838.5771,860,842.5771" style="stroke:#181818;stroke-width:1.0;"/><line style="stroke:#181818;stroke-width:1.0;" x1="860" x2="860" y1="226.502" y2="231.502"/><line style="stroke:#181818;stroke-width:1.0;" x1="860" x2="398" y1="231.502" y2="231.502"/><line style="stroke:#181818;stroke-width:1.0;" x1="398" x2="398" y1="231.502" y2="246.502"/><polygon fill="#181818" points="394,236.502,398,246.502,402,236.502,398,240.502" style="stroke:#181818;stroke-width:1.0;"/><line style="stroke:#181818;stroke-width:1.0;" x1="398" x2="398" y1="281.5957" y2="286.5957"/><line style="stroke:#181818;stroke-width:1.0;" x1="398" x2="860" y1="286.5957" y2="286.5957"/><line style="stroke:#181818;stroke-width:1.0;" x1="860" x2="860" y1="286.5957" y2="301.5957"/><polygon fill="#181818" points="856,291.5957,860,301.5957,864,291.5957,860,295.5957" style="stroke:#181818;stroke-width:1.0;"/><line style="stroke:#181818;stroke-width:1.0;" x1="398" x2="398" y1="435.7832" y2="440.7832"/><line style="stroke:#181818;stroke-width:1.0;" x1="398" x2="860" y1="440.7832" y2="440.7832"/><line style="stroke:#181818;stroke-width:1.0;" x1="860" x2="860" y1="440.7832" y2="455.7832"/><polygon fill="#181818" points="856,445.7832,860,455.7832,864,445.7832,860,449.7832" style="stroke:#181818;stroke-width:1.0;"/><line style="stroke:#181818;stroke-width:1.0;" x1="398" x2="398" y1="689.0645" y2="699.0645"/><line style="stroke:#181818;stroke-width:1.0;" x1="398" x2="860" y1="699.0645" y2="699.0645"/><line style="stroke:#181818;stroke-width:1.0;" x1="860" x2="860" y1="699.0645" y2="716.5645"/><polygon fill="#181818" points="856,706.5645,860,716.5645,864,706.5645,860,710.5645" style="stroke:#181818;stroke-width:1.0;"/><line style="stroke:#181818;stroke-width:1.0;" x1="930" x2="961" y1="803.6582" y2="803.6582"/><polygon fill="#181818" points="957,709.0645,961,699.0645,965,709.0645,961,705.0645" style="stroke:#181818;stroke-width:1.0;"/><line style="stroke:#181818;stroke-width:1.0;" x1="961" x2="961" y1="621.9707" y2="803.6582"/><line style="stroke:#181818;stroke-width:1.0;" x1="961" x2="410" y1="621.9707" y2="621.9707"/><polygon fill="#181818" points="420,617.9707,410,621.9707,420,625.9707,416,621.9707" style="stroke:#181818;stroke-width:1.0;"/><line style="stroke:#181818;stroke-width:1.0;" x1="860" x2="860" y1="883.6709" y2="888.6709"/><line style="stroke:#181818;stroke-width:1.0;" x1="860" x2="398" y1="888.6709" y2="888.6709"/><line style="stroke:#181818;stroke-width:1.0;" x1="398" x2="398" y1="888.6709" y2="903.6709"/><polygon fill="#181818" points="394,893.6709,398,903.6709,402,893.6709,398,897.6709" style="stroke:#181818;stroke-width:1.0;"/><line style="stroke:#181818;stroke-width:1.0;" x1="860" x2="860" y1="545.9707" y2="550.9707"/><line style="stroke:#181818;stroke-width:1.0;" x1="860" x2="398" y1="550.9707" y2="550.9707"/><line style="stroke:#181818;stroke-width:1.0;" x1="398" x2="398" y1="550.9707" y2="565.9707"/><polygon fill="#181818" points="394,555.9707,398,565.9707,402,555.9707,398,559.9707" style="stroke:#181818;stroke-width:1.0;"/><line style="stroke:#181818;stroke-width:1.0;" x1="860" x2="860" y1="336.6895" y2="341.6895"/><line style="stroke:#181818;stroke-width:1.0;" x1="860" x2="398" y1="341.6895" y2="341.6895"/><line style="stroke:#181818;stroke-width:1.0;" x1="398" x2="398" y1="341.6895" y2="356.6895"/><polygon fill="#181818" points="394,346.6895,398,356.6895,402,346.6895,398,350.6895" style="stroke:#181818;stroke-width:1.0;"/><text fill="#000000" font-family="sans-serif" font-size="18" lengthAdjust="spacing" textLength="59" x="271.5" y="69.75">System</text><text fill="#000000" font-family="sans-serif" font-size="18" lengthAdjust="spacing" textLength="54" x="769.75" y="69.75">Trener</text><!--SRC=[VLDBZfj04DrpYbhQKau0YsoiRB9854SQARiob9d6GAFkjbgql1efoXciEOQFO7olL84np0mQDlogNhtt-fLJhYJuONAiLS2qG0XOTEVk7pGcK01dg2Q34CC6AuKrV4VZqKKdUu9jQnrLqScTu7TV5bc7naNxKgDJTGwrTWGbxLryBs3mKkVQOzs21zltArfis6ZhkdDJ8nHa7LWi4JBD08O26IyO2gDOM1QtrrIH_BLqI0krA6SQbmZvA7vgRwzU4SklkLatqhZH6HRCmjFGbofCH9zKxwuNyrcPeORO6E1ByEN-RiPUc-fOeWduHSWsZC8Qm8OqK7wzt5wk5vyC06u4Q9H5wLqe4au69_A_UcDwqLiirL0qOxNmEYSxNkz8P_TpQDDdEOJaRQ_xqDlRP1_pfw7WdnL7RVLJEqOtMUZXVRlJvlXr3Sh2YZ-i9GEmSdXOHtFKkT20x4gOx9mcpRN4syQWluzfjBpKMf82R3khcVipSdlI9IVJaQbK3UgX7VluBPDy2_1jv0GoDQ0eHTZTNhfpnWUt315l-YIG94fi7YFB6JaWdq8caM4wnv6FwZKTIhuxNIMIpbpMgryA4JivZ71qNflXyGwSy9xgPd7h_jpZpBEP4dsWOBk_3rVuB-_am8Ar_GS0]--></g></svg>