<?xml version="1.0" encoding="UTF-8" standalone="no"?><svg xmlns="http://www.w3.org/2000/svg" xmlns:xlink="http://www.w3.org/1999/xlink" contentStyleType="text/css" height="1000px" preserveAspectRatio="none" style="width:1041px;height:1000px;background:#FFFFFF;" version="1.1" viewBox="0 0 1041 1000" width="1041px" zoomAndPan="magnify"><defs/><g><text fill="#000000" font-family="sans-serif" font-size="14" font-weight="bold" lengthAdjust="spacing" textLength="465" x="286.75" y="34.5332">Zmiana sali dla zaplanowanych zajęć przez trenera : Damian Karwat</text><rect fill="none" height="22.6406" style="stroke:none;stroke-width:1.0;" width="1008.5" x="15" y="51.0645"/><rect fill="#F1F1F1" height="35.0938" rx="12.5" ry="12.5" style="stroke:#181818;stroke-width:0.5;" width="186" x="344" y="334.502"/><text fill="#000000" font-family="sans-serif" font-size="12" lengthAdjust="spacing" textLength="166" x="354" y="356.959">Wyświetlenie kalendarza zajęć</text><polygon fill="#F1F1F1" points="437,290.502,449,302.502,437,314.502,425,302.502,437,290.502" style="stroke:#181818;stroke-width:0.5;"/><polygon fill="#F1F1F1" points="345.5,519.7832,528.5,519.7832,540.5,531.7832,528.5,543.7832,345.5,543.7832,333.5,531.7832,345.5,519.7832" style="stroke:#181818;stroke-width:0.5;"/><text fill="#000000" font-family="sans-serif" font-size="11" lengthAdjust="spacing" textLength="14" x="441" y="555.2021">tak</text><text fill="#000000" font-family="sans-serif" font-size="11" lengthAdjust="spacing" textLength="183" x="345.5" y="536.2842">Istnieją dostępne sale w tym terminie?</text><text fill="#000000" font-family="sans-serif" font-size="11" lengthAdjust="spacing" textLength="14" x="540.5" y="529.3662">nie</text><rect fill="#F1F1F1" height="35.0938" rx="12.5" ry="12.5" style="stroke:#181818;stroke-width:0.5;" width="202" x="336" y="576.7021"/><text fill="#000000" font-family="sans-serif" font-size="12" lengthAdjust="spacing" textLength="182" x="346" y="599.1592">Wyświetlenie listy dostępnych sal</text><rect fill="#F1F1F1" height="35.0938" rx="12.5" ry="12.5" style="stroke:#181818;stroke-width:0.5;" width="201" x="336.5" y="686.8896"/><text fill="#000000" font-family="sans-serif" font-size="12" lengthAdjust="spacing" textLength="181" x="346.5" y="709.3467">Wyświetlenie okna potwierdzenia</text><polygon fill="#F1F1F1" points="437,246.502,449,258.502,437,270.502,425,258.502,437,246.502" style="stroke:#181818;stroke-width:0.5;"/><rect fill="#F1F1F1" height="35.0938" rx="12.5" ry="12.5" style="stroke:#181818;stroke-width:0.5;" width="218" x="328" y="798.9023"/><text fill="#000000" font-family="sans-serif" font-size="12" lengthAdjust="spacing" textLength="198" x="338" y="821.3594">Zmiana sali dla zaplanowanch zajęć</text><rect fill="#F1F1F1" height="35.0938" rx="12.5" ry="12.5" style="stroke:#181818;stroke-width:0.5;" width="279" x="297.5" y="853.9961"/><text fill="#000000" font-family="sans-serif" font-size="12" lengthAdjust="spacing" textLength="259" x="307.5" y="876.4531">Wysłanie powiadomienia o zmianie do klientów</text><rect fill="#F1F1F1" height="35.0938" rx="12.5" ry="12.5" style="stroke:#181818;stroke-width:0.5;" width="228" x="323" y="909.0898"/><text fill="#000000" font-family="sans-serif" font-size="12" lengthAdjust="spacing" textLength="208" x="333" y="931.5469">Wygenerowanie potwierdzenia zmiany</text><path d="M20,962.0078 L20,988.3594 L406,988.3594 L406,972.0078 L396,962.0078 L20,962.0078 " fill="#FEFFDD" style="stroke:#181818;stroke-width:0.5;"/><path d="M396,962.0078 L396,972.0078 L406,972.0078 L396,962.0078 " fill="#FEFFDD" style="stroke:#181818;stroke-width:0.5;"/><text fill="#000000" font-family="sans-serif" font-size="13" lengthAdjust="spacing" textLength="365" x="26" y="980.5029">Sala na zajęcia zmieniona, powiadomienie wysłane do klientów</text><ellipse cx="437" cy="975.1836" fill="none" rx="11" ry="11" style="stroke:#222222;stroke-width:1.0;"/><ellipse cx="437" cy="975.1836" fill="#222222" rx="6" ry="6" style="stroke:#111111;stroke-width:1.0;"/><line style="stroke:#000000;stroke-width:1.5;" x1="15" x2="15" y1="51.0645" y2="988.3594"/><path d="M626,88.7051 L626,115.0566 L825,115.0566 L825,98.7051 L815,88.7051 L626,88.7051 " fill="#FEFFDD" style="stroke:#181818;stroke-width:0.5;"/><path d="M815,88.7051 L815,98.7051 L825,98.7051 L815,88.7051 " fill="#FEFFDD" style="stroke:#181818;stroke-width:0.5;"/><text fill="#000000" font-family="sans-serif" font-size="13" lengthAdjust="spacing" textLength="178" x="632" y="107.2002">Trener zalogowany w systemie</text><path d="M595.5,135.0566 L595.5,161.4082 L855.5,161.4082 L855.5,145.0566 L845.5,135.0566 L595.5,135.0566 " fill="#FEFFDD" style="stroke:#181818;stroke-width:0.5;"/><path d="M845.5,135.0566 L845.5,145.0566 L855.5,145.0566 L845.5,135.0566 " fill="#FEFFDD" style="stroke:#181818;stroke-width:0.5;"/><text fill="#000000" font-family="sans-serif" font-size="13" lengthAdjust="spacing" textLength="239" x="601.5" y="153.5518">W systemie istnieją zaplanowane zajęcia</text><ellipse cx="875.5" cy="125.0566" fill="#222222" rx="10" ry="10" style="stroke:#222222;stroke-width:1.0;"/><rect fill="#F1F1F1" height="35.0938" rx="12.5" ry="12.5" style="stroke:#181818;stroke-width:0.5;" width="285" x="733" y="191.4082"/><text fill="#000000" font-family="sans-serif" font-size="12" lengthAdjust="spacing" textLength="265" x="743" y="213.8652">przejście do sekcji Organizacja zajęć w systemie</text><rect fill="#F1F1F1" height="35.0938" rx="12.5" ry="12.5" style="stroke:#181818;stroke-width:0.5;" width="166" x="792.5" y="389.5957"/><text fill="#000000" font-family="sans-serif" font-size="12" lengthAdjust="spacing" textLength="146" x="802.5" y="412.0527">Wybór zajęć do zmiany sali</text><rect fill="#F1F1F1" height="35.0938" rx="12.5" ry="12.5" style="stroke:#181818;stroke-width:0.5;" width="166" x="792.5" y="444.6895"/><text fill="#000000" font-family="sans-serif" font-size="12" lengthAdjust="spacing" textLength="146" x="802.5" y="467.1465">Wybranie opcji zmiana sali</text><rect fill="#F1F1F1" height="35.0938" rx="12.5" ry="12.5" style="stroke:#181818;stroke-width:0.5;" width="152" x="799.5" y="631.7959"/><text fill="#000000" font-family="sans-serif" font-size="12" lengthAdjust="spacing" textLength="132" x="809.5" y="654.2529">Wybranie dostępnej sali</text><polygon fill="#F1F1F1" points="817.5,741.9834,933.5,741.9834,945.5,753.9834,933.5,765.9834,817.5,765.9834,805.5,753.9834,817.5,741.9834" style="stroke:#181818;stroke-width:0.5;"/><text fill="#000000" font-family="sans-serif" font-size="11" lengthAdjust="spacing" textLength="14" x="879.5" y="777.4023">tak</text><text fill="#000000" font-family="sans-serif" font-size="11" lengthAdjust="spacing" textLength="116" x="817.5" y="758.4844">Potwierdzenie wyboru?</text><text fill="#000000" font-family="sans-serif" font-size="11" lengthAdjust="spacing" textLength="14" x="945.5" y="751.5664">nie</text><line style="stroke:#000000;stroke-width:1.5;" x1="580.5" x2="580.5" y1="51.0645" y2="988.3594"/><line style="stroke:#000000;stroke-width:1.5;" x1="1022" x2="1022" y1="51.0645" y2="988.3594"/><line style="stroke:#181818;stroke-width:1.0;" x1="437" x2="437" y1="314.502" y2="334.502"/><polygon fill="#181818" points="433,324.502,437,334.502,441,324.502,437,328.502" style="stroke:#181818;stroke-width:1.0;"/><line style="stroke:#181818;stroke-width:1.0;" x1="333.5" x2="321.5" y1="531.7832" y2="531.7832"/><polygon fill="#181818" points="317.5,417.1426,321.5,407.1426,325.5,417.1426,321.5,413.1426" style="stroke:#181818;stroke-width:1.0;"/><line style="stroke:#181818;stroke-width:1.0;" x1="321.5" x2="321.5" y1="302.502" y2="531.7832"/><line style="stroke:#181818;stroke-width:1.0;" x1="321.5" x2="425" y1="302.502" y2="302.502"/><polygon fill="#181818" points="415,298.502,425,302.502,415,306.502,419,302.502" style="stroke:#181818;stroke-width:1.0;"/><line style="stroke:#181818;stroke-width:1.0;" x1="437" x2="437" y1="543.7832" y2="576.7021"/><polygon fill="#181818" points="433,566.7021,437,576.7021,441,566.7021,437,570.7021" style="stroke:#181818;stroke-width:1.0;"/><line style="stroke:#181818;stroke-width:1.0;" x1="437" x2="437" y1="270.502" y2="290.502"/><polygon fill="#181818" points="433,280.502,437,290.502,441,280.502,437,284.502" style="stroke:#181818;stroke-width:1.0;"/><line style="stroke:#181818;stroke-width:1.0;" x1="437" x2="437" y1="833.9961" y2="853.9961"/><polygon fill="#181818" points="433,843.9961,437,853.9961,441,843.9961,437,847.9961" style="stroke:#181818;stroke-width:1.0;"/><line style="stroke:#181818;stroke-width:1.0;" x1="437" x2="437" y1="889.0898" y2="909.0898"/><polygon fill="#181818" points="433,899.0898,437,909.0898,441,899.0898,437,903.0898" style="stroke:#181818;stroke-width:1.0;"/><line style="stroke:#181818;stroke-width:1.0;" x1="437" x2="437" y1="944.1836" y2="964.1836"/><polygon fill="#181818" points="433,954.1836,437,964.1836,441,954.1836,437,958.1836" style="stroke:#181818;stroke-width:1.0;"/><line style="stroke:#181818;stroke-width:1.0;" x1="875.5" x2="875.5" y1="135.0566" y2="191.4082"/><polygon fill="#181818" points="871.5,181.4082,875.5,191.4082,879.5,181.4082,875.5,185.4082" style="stroke:#181818;stroke-width:1.0;"/><line style="stroke:#181818;stroke-width:1.0;" x1="875.5" x2="875.5" y1="424.6895" y2="444.6895"/><polygon fill="#181818" points="871.5,434.6895,875.5,444.6895,879.5,434.6895,875.5,438.6895" style="stroke:#181818;stroke-width:1.0;"/><line style="stroke:#181818;stroke-width:1.0;" x1="437" x2="437" y1="369.5957" y2="374.5957"/><line style="stroke:#181818;stroke-width:1.0;" x1="437" x2="875.5" y1="374.5957" y2="374.5957"/><line style="stroke:#181818;stroke-width:1.0;" x1="875.5" x2="875.5" y1="374.5957" y2="389.5957"/><polygon fill="#181818" points="871.5,379.5957,875.5,389.5957,879.5,379.5957,875.5,383.5957" style="stroke:#181818;stroke-width:1.0;"/><line style="stroke:#181818;stroke-width:1.0;" x1="875.5" x2="875.5" y1="479.7832" y2="496.2832"/><line style="stroke:#181818;stroke-width:1.0;" x1="875.5" x2="437" y1="496.2832" y2="496.2832"/><line style="stroke:#181818;stroke-width:1.0;" x1="437" x2="437" y1="496.2832" y2="519.7832"/><polygon fill="#181818" points="433,509.7832,437,519.7832,441,509.7832,437,513.7832" style="stroke:#181818;stroke-width:1.0;"/><line style="stroke:#181818;stroke-width:1.0;" x1="437" x2="437" y1="611.7959" y2="616.7959"/><line style="stroke:#181818;stroke-width:1.0;" x1="437" x2="875.5" y1="616.7959" y2="616.7959"/><line style="stroke:#181818;stroke-width:1.0;" x1="875.5" x2="875.5" y1="616.7959" y2="631.7959"/><polygon fill="#181818" points="871.5,621.7959,875.5,631.7959,879.5,621.7959,875.5,625.7959" style="stroke:#181818;stroke-width:1.0;"/><line style="stroke:#181818;stroke-width:1.0;" x1="875.5" x2="875.5" y1="666.8896" y2="671.8896"/><line style="stroke:#181818;stroke-width:1.0;" x1="875.5" x2="437" y1="671.8896" y2="671.8896"/><line style="stroke:#181818;stroke-width:1.0;" x1="437" x2="437" y1="671.8896" y2="686.8896"/><polygon fill="#181818" points="433,676.8896,437,686.8896,441,676.8896,437,680.8896" style="stroke:#181818;stroke-width:1.0;"/><line style="stroke:#181818;stroke-width:1.0;" x1="945.5" x2="1003" y1="753.9834" y2="753.9834"/><polygon fill="#181818" points="999,499.7832,1003,489.7832,1007,499.7832,1003,495.7832" style="stroke:#181818;stroke-width:1.0;"/><line style="stroke:#181818;stroke-width:1.0;" x1="1003" x2="1003" y1="258.502" y2="753.9834"/><line style="stroke:#181818;stroke-width:1.0;" x1="1003" x2="449" y1="258.502" y2="258.502"/><polygon fill="#181818" points="459,254.502,449,258.502,459,262.502,455,258.502" style="stroke:#181818;stroke-width:1.0;"/><line style="stroke:#181818;stroke-width:1.0;" x1="437" x2="437" y1="721.9834" y2="726.9834"/><line style="stroke:#181818;stroke-width:1.0;" x1="437" x2="875.5" y1="726.9834" y2="726.9834"/><line style="stroke:#181818;stroke-width:1.0;" x1="875.5" x2="875.5" y1="726.9834" y2="741.9834"/><polygon fill="#181818" points="871.5,731.9834,875.5,741.9834,879.5,731.9834,875.5,735.9834" style="stroke:#181818;stroke-width:1.0;"/><line style="stroke:#181818;stroke-width:1.0;" x1="875.5" x2="875.5" y1="226.502" y2="231.502"/><line style="stroke:#181818;stroke-width:1.0;" x1="875.5" x2="437" y1="231.502" y2="231.502"/><line style="stroke:#181818;stroke-width:1.0;" x1="437" x2="437" y1="231.502" y2="246.502"/><polygon fill="#181818" points="433,236.502,437,246.502,441,236.502,437,240.502" style="stroke:#181818;stroke-width:1.0;"/><line style="stroke:#181818;stroke-width:1.0;" x1="875.5" x2="875.5" y1="765.9834" y2="783.4834"/><line style="stroke:#181818;stroke-width:1.0;" x1="875.5" x2="437" y1="783.4834" y2="783.4834"/><line style="stroke:#181818;stroke-width:1.0;" x1="437" x2="437" y1="783.4834" y2="798.9023"/><polygon fill="#181818" points="433,788.9023,437,798.9023,441,788.9023,437,792.9023" style="stroke:#181818;stroke-width:1.0;"/><text fill="#000000" font-family="sans-serif" font-size="18" lengthAdjust="spacing" textLength="59" x="270.75" y="69.75">System</text><text fill="#000000" font-family="sans-serif" font-size="18" lengthAdjust="spacing" textLength="54" x="776.75" y="69.75">Trener</text><!--SRC=[TPB1ReCm38RlF8MFhRGdWCCkkqmxRD8cLThDXRGDf0bAF24GfqdJdg7gO_GHIjzh3cq3R1qNGl1lVxzjagG4l6ybQWI7IaAc41ei5MfJeQxJ3N_btQxxXj8seW6oGWkB4CC3UXayeQsGejQry5ex4jkefHRU-h384LgALieWIRq6RKY04YkABm6SN9brNmagSBrUYfk2HVWDqf6M8k- -HgJYp9bAZ69Fcf_sAOTc1fmeqbp2irsZbWscEGPBGyaaig8Kx0Fu6HtzmzR2ELxKftqb1RUD4Q10VcTecv0p6MGqaIsF1niACrRZkrVtJKycSHPzPbDww6QOJFA7vum9rKRo36UFeIcPSTJjIcu9wmIRf7eB9EnMSi3zdDi7CpxDVNTXHbZCenlM57Uv3hdy8d2sCyJLsK0RIkOZrYldhyIcO4Ub8RwnMSDNE6ITMdeP1R6FUcdinsr-Noh-Vus7BKuYfd6dpvwwD9N4pF3u6G8k8palJQ7uaew7gXUi_QxwHBreH7wPOiABRigRQ_kAJA8nRATNiD9el9lKz_vwhcdv7m00]--></g></svg>