<?xml version="1.0" encoding="UTF-8" standalone="no"?><svg xmlns="http://www.w3.org/2000/svg" xmlns:xlink="http://www.w3.org/1999/xlink" contentStyleType="text/css" height="961px" preserveAspectRatio="none" style="width:1041px;height:961px;background:#FFFFFF;" version="1.1" viewBox="0 0 1041 961" width="1041px" zoomAndPan="magnify"><defs/><g><rect fill="none" height="22.6406" style="stroke:none;stroke-width:1.0;" width="1008.5" x="15" y="12.4551"/><rect fill="#F1F1F1" height="35.0938" rx="12.5" ry="12.5" style="stroke:#181818;stroke-width:0.5;" width="186" x="344" y="295.8926"/><text fill="#000000" font-family="sans-serif" font-size="12" lengthAdjust="spacing" textLength="166" x="354" y="318.3496">Wyświetlenie kalendarza zajęć</text><polygon fill="#F1F1F1" points="437,251.8926,449,263.8926,437,275.8926,425,263.8926,437,251.8926" style="stroke:#181818;stroke-width:0.5;"/><polygon fill="#F1F1F1" points="345.5,481.1738,528.5,481.1738,540.5,493.1738,528.5,505.1738,345.5,505.1738,333.5,493.1738,345.5,481.1738" style="stroke:#181818;stroke-width:0.5;"/><text fill="#000000" font-family="sans-serif" font-size="11" lengthAdjust="spacing" textLength="14" x="441" y="516.5928">tak</text><text fill="#000000" font-family="sans-serif" font-size="11" lengthAdjust="spacing" textLength="183" x="345.5" y="497.6748">Istnieją dostępne sale w tym terminie?</text><text fill="#000000" font-family="sans-serif" font-size="11" lengthAdjust="spacing" textLength="14" x="540.5" y="490.7568">nie</text><rect fill="#F1F1F1" height="35.0938" rx="12.5" ry="12.5" style="stroke:#181818;stroke-width:0.5;" width="202" x="336" y="538.0928"/><text fill="#000000" font-family="sans-serif" font-size="12" lengthAdjust="spacing" textLength="182" x="346" y="560.5498">Wyświetlenie listy dostępnych sal</text><rect fill="#F1F1F1" height="35.0938" rx="12.5" ry="12.5" style="stroke:#181818;stroke-width:0.5;" width="201" x="336.5" y="648.2803"/><text fill="#000000" font-family="sans-serif" font-size="12" lengthAdjust="spacing" textLength="181" x="346.5" y="670.7373">Wyświetlenie okna potwierdzenia</text><polygon fill="#F1F1F1" points="437,207.8926,449,219.8926,437,231.8926,425,219.8926,437,207.8926" style="stroke:#181818;stroke-width:0.5;"/><rect fill="#F1F1F1" height="35.0938" rx="12.5" ry="12.5" style="stroke:#181818;stroke-width:0.5;" width="218" x="328" y="760.293"/><text fill="#000000" font-family="sans-serif" font-size="12" lengthAdjust="spacing" textLength="198" x="338" y="782.75">Zmiana sali dla zaplanowanch zajęć</text><rect fill="#F1F1F1" height="35.0938" rx="12.5" ry="12.5" style="stroke:#181818;stroke-width:0.5;" width="279" x="297.5" y="815.3867"/><text fill="#000000" font-family="sans-serif" font-size="12" lengthAdjust="spacing" textLength="259" x="307.5" y="837.8438">Wysłanie powiadomienia o zmianie do klientów</text><rect fill="#F1F1F1" height="35.0938" rx="12.5" ry="12.5" style="stroke:#181818;stroke-width:0.5;" width="228" x="323" y="870.4805"/><text fill="#000000" font-family="sans-serif" font-size="12" lengthAdjust="spacing" textLength="208" x="333" y="892.9375">Wygenerowanie potwierdzenia zmiany</text><path d="M20,923.3984 L20,949.75 L406,949.75 L406,933.3984 L396,923.3984 L20,923.3984 " fill="#FEFFDD" style="stroke:#181818;stroke-width:0.5;"/><path d="M396,923.3984 L396,933.3984 L406,933.3984 L396,923.3984 " fill="#FEFFDD" style="stroke:#181818;stroke-width:0.5;"/><text fill="#000000" font-family="sans-serif" font-size="13" lengthAdjust="spacing" textLength="365" x="26" y="941.8936">Sala na zajęcia zmieniona, powiadomienie wysłane do klientów</text><ellipse cx="437" cy="936.5742" fill="none" rx="11" ry="11" style="stroke:#222222;stroke-width:1.0;"/><ellipse cx="437" cy="936.5742" fill="#222222" rx="6" ry="6" style="stroke:#111111;stroke-width:1.0;"/><line style="stroke:#000000;stroke-width:1.5;" x1="15" x2="15" y1="12.4551" y2="949.75"/><path d="M626,50.0957 L626,76.4473 L825,76.4473 L825,60.0957 L815,50.0957 L626,50.0957 " fill="#FEFFDD" style="stroke:#181818;stroke-width:0.5;"/><path d="M815,50.0957 L815,60.0957 L825,60.0957 L815,50.0957 " fill="#FEFFDD" style="stroke:#181818;stroke-width:0.5;"/><text fill="#000000" font-family="sans-serif" font-size="13" lengthAdjust="spacing" textLength="178" x="632" y="68.5908">Trener zalogowany w systemie</text><path d="M595.5,96.4473 L595.5,122.7988 L855.5,122.7988 L855.5,106.4473 L845.5,96.4473 L595.5,96.4473 " fill="#FEFFDD" style="stroke:#181818;stroke-width:0.5;"/><path d="M845.5,96.4473 L845.5,106.4473 L855.5,106.4473 L845.5,96.4473 " fill="#FEFFDD" style="stroke:#181818;stroke-width:0.5;"/><text fill="#000000" font-family="sans-serif" font-size="13" lengthAdjust="spacing" textLength="239" x="601.5" y="114.9424">W systemie istnieją zaplanowane zajęcia</text><ellipse cx="875.5" cy="86.4473" fill="#222222" rx="10" ry="10" style="stroke:#222222;stroke-width:1.0;"/><rect fill="#F1F1F1" height="35.0938" rx="12.5" ry="12.5" style="stroke:#181818;stroke-width:0.5;" width="285" x="733" y="152.7988"/><text fill="#000000" font-family="sans-serif" font-size="12" lengthAdjust="spacing" textLength="265" x="743" y="175.2559">przejście do sekcji Organizacja zajęć w systemie</text><rect fill="#F1F1F1" height="35.0938" rx="12.5" ry="12.5" style="stroke:#181818;stroke-width:0.5;" width="166" x="792.5" y="350.9863"/><text fill="#000000" font-family="sans-serif" font-size="12" lengthAdjust="spacing" textLength="146" x="802.5" y="373.4434">Wybór zajęć do zmiany sali</text><rect fill="#F1F1F1" height="35.0938" rx="12.5" ry="12.5" style="stroke:#181818;stroke-width:0.5;" width="166" x="792.5" y="406.0801"/><text fill="#000000" font-family="sans-serif" font-size="12" lengthAdjust="spacing" textLength="146" x="802.5" y="428.5371">Wybranie opcji zmiana sali</text><rect fill="#F1F1F1" height="35.0938" rx="12.5" ry="12.5" style="stroke:#181818;stroke-width:0.5;" width="152" x="799.5" y="593.1865"/><text fill="#000000" font-family="sans-serif" font-size="12" lengthAdjust="spacing" textLength="132" x="809.5" y="615.6436">Wybranie dostępnej sali</text><polygon fill="#F1F1F1" points="817.5,703.374,933.5,703.374,945.5,715.374,933.5,727.374,817.5,727.374,805.5,715.374,817.5,703.374" style="stroke:#181818;stroke-width:0.5;"/><text fill="#000000" font-family="sans-serif" font-size="11" lengthAdjust="spacing" textLength="14" x="879.5" y="738.793">tak</text><text fill="#000000" font-family="sans-serif" font-size="11" lengthAdjust="spacing" textLength="116" x="817.5" y="719.875">Potwierdzenie wyboru?</text><text fill="#000000" font-family="sans-serif" font-size="11" lengthAdjust="spacing" textLength="14" x="945.5" y="712.957">nie</text><line style="stroke:#000000;stroke-width:1.5;" x1="580.5" x2="580.5" y1="12.4551" y2="949.75"/><line style="stroke:#000000;stroke-width:1.5;" x1="1022" x2="1022" y1="12.4551" y2="949.75"/><line style="stroke:#181818;stroke-width:1.0;" x1="437" x2="437" y1="275.8926" y2="295.8926"/><polygon fill="#181818" points="433,285.8926,437,295.8926,441,285.8926,437,289.8926" style="stroke:#181818;stroke-width:1.0;"/><line style="stroke:#181818;stroke-width:1.0;" x1="333.5" x2="321.5" y1="493.1738" y2="493.1738"/><polygon fill="#181818" points="317.5,378.5332,321.5,368.5332,325.5,378.5332,321.5,374.5332" style="stroke:#181818;stroke-width:1.0;"/><line style="stroke:#181818;stroke-width:1.0;" x1="321.5" x2="321.5" y1="263.8926" y2="493.1738"/><line style="stroke:#181818;stroke-width:1.0;" x1="321.5" x2="425" y1="263.8926" y2="263.8926"/><polygon fill="#181818" points="415,259.8926,425,263.8926,415,267.8926,419,263.8926" style="stroke:#181818;stroke-width:1.0;"/><line style="stroke:#181818;stroke-width:1.0;" x1="437" x2="437" y1="505.1738" y2="538.0928"/><polygon fill="#181818" points="433,528.0928,437,538.0928,441,528.0928,437,532.0928" style="stroke:#181818;stroke-width:1.0;"/><line style="stroke:#181818;stroke-width:1.0;" x1="437" x2="437" y1="231.8926" y2="251.8926"/><polygon fill="#181818" points="433,241.8926,437,251.8926,441,241.8926,437,245.8926" style="stroke:#181818;stroke-width:1.0;"/><line style="stroke:#181818;stroke-width:1.0;" x1="437" x2="437" y1="795.3867" y2="815.3867"/><polygon fill="#181818" points="433,805.3867,437,815.3867,441,805.3867,437,809.3867" style="stroke:#181818;stroke-width:1.0;"/><line style="stroke:#181818;stroke-width:1.0;" x1="437" x2="437" y1="850.4805" y2="870.4805"/><polygon fill="#181818" points="433,860.4805,437,870.4805,441,860.4805,437,864.4805" style="stroke:#181818;stroke-width:1.0;"/><line style="stroke:#181818;stroke-width:1.0;" x1="437" x2="437" y1="905.5742" y2="925.5742"/><polygon fill="#181818" points="433,915.5742,437,925.5742,441,915.5742,437,919.5742" style="stroke:#181818;stroke-width:1.0;"/><line style="stroke:#181818;stroke-width:1.0;" x1="875.5" x2="875.5" y1="96.4473" y2="152.7988"/><polygon fill="#181818" points="871.5,142.7988,875.5,152.7988,879.5,142.7988,875.5,146.7988" style="stroke:#181818;stroke-width:1.0;"/><line style="stroke:#181818;stroke-width:1.0;" x1="875.5" x2="875.5" y1="386.0801" y2="406.0801"/><polygon fill="#181818" points="871.5,396.0801,875.5,406.0801,879.5,396.0801,875.5,400.0801" style="stroke:#181818;stroke-width:1.0;"/><line style="stroke:#181818;stroke-width:1.0;" x1="437" x2="437" y1="330.9863" y2="335.9863"/><line style="stroke:#181818;stroke-width:1.0;" x1="437" x2="875.5" y1="335.9863" y2="335.9863"/><line style="stroke:#181818;stroke-width:1.0;" x1="875.5" x2="875.5" y1="335.9863" y2="350.9863"/><polygon fill="#181818" points="871.5,340.9863,875.5,350.9863,879.5,340.9863,875.5,344.9863" style="stroke:#181818;stroke-width:1.0;"/><line style="stroke:#181818;stroke-width:1.0;" x1="875.5" x2="875.5" y1="441.1738" y2="457.6738"/><line style="stroke:#181818;stroke-width:1.0;" x1="875.5" x2="437" y1="457.6738" y2="457.6738"/><line style="stroke:#181818;stroke-width:1.0;" x1="437" x2="437" y1="457.6738" y2="481.1738"/><polygon fill="#181818" points="433,471.1738,437,481.1738,441,471.1738,437,475.1738" style="stroke:#181818;stroke-width:1.0;"/><line style="stroke:#181818;stroke-width:1.0;" x1="437" x2="437" y1="573.1865" y2="578.1865"/><line style="stroke:#181818;stroke-width:1.0;" x1="437" x2="875.5" y1="578.1865" y2="578.1865"/><line style="stroke:#181818;stroke-width:1.0;" x1="875.5" x2="875.5" y1="578.1865" y2="593.1865"/><polygon fill="#181818" points="871.5,583.1865,875.5,593.1865,879.5,583.1865,875.5,587.1865" style="stroke:#181818;stroke-width:1.0;"/><line style="stroke:#181818;stroke-width:1.0;" x1="875.5" x2="875.5" y1="628.2803" y2="633.2803"/><line style="stroke:#181818;stroke-width:1.0;" x1="875.5" x2="437" y1="633.2803" y2="633.2803"/><line style="stroke:#181818;stroke-width:1.0;" x1="437" x2="437" y1="633.2803" y2="648.2803"/><polygon fill="#181818" points="433,638.2803,437,648.2803,441,638.2803,437,642.2803" style="stroke:#181818;stroke-width:1.0;"/><line style="stroke:#181818;stroke-width:1.0;" x1="945.5" x2="1003" y1="715.374" y2="715.374"/><polygon fill="#181818" points="999,461.1738,1003,451.1738,1007,461.1738,1003,457.1738" style="stroke:#181818;stroke-width:1.0;"/><line style="stroke:#181818;stroke-width:1.0;" x1="1003" x2="1003" y1="219.8926" y2="715.374"/><line style="stroke:#181818;stroke-width:1.0;" x1="1003" x2="449" y1="219.8926" y2="219.8926"/><polygon fill="#181818" points="459,215.8926,449,219.8926,459,223.8926,455,219.8926" style="stroke:#181818;stroke-width:1.0;"/><line style="stroke:#181818;stroke-width:1.0;" x1="437" x2="437" y1="683.374" y2="688.374"/><line style="stroke:#181818;stroke-width:1.0;" x1="437" x2="875.5" y1="688.374" y2="688.374"/><line style="stroke:#181818;stroke-width:1.0;" x1="875.5" x2="875.5" y1="688.374" y2="703.374"/><polygon fill="#181818" points="871.5,693.374,875.5,703.374,879.5,693.374,875.5,697.374" style="stroke:#181818;stroke-width:1.0;"/><line style="stroke:#181818;stroke-width:1.0;" x1="875.5" x2="875.5" y1="187.8926" y2="192.8926"/><line style="stroke:#181818;stroke-width:1.0;" x1="875.5" x2="437" y1="192.8926" y2="192.8926"/><line style="stroke:#181818;stroke-width:1.0;" x1="437" x2="437" y1="192.8926" y2="207.8926"/><polygon fill="#181818" points="433,197.8926,437,207.8926,441,197.8926,437,201.8926" style="stroke:#181818;stroke-width:1.0;"/><line style="stroke:#181818;stroke-width:1.0;" x1="875.5" x2="875.5" y1="727.374" y2="744.874"/><line style="stroke:#181818;stroke-width:1.0;" x1="875.5" x2="437" y1="744.874" y2="744.874"/><line style="stroke:#181818;stroke-width:1.0;" x1="437" x2="437" y1="744.874" y2="760.293"/><polygon fill="#181818" points="433,750.293,437,760.293,441,750.293,437,754.293" style="stroke:#181818;stroke-width:1.0;"/><text fill="#000000" font-family="sans-serif" font-size="18" lengthAdjust="spacing" textLength="59" x="270.75" y="31.1406">System</text><text fill="#000000" font-family="sans-serif" font-size="18" lengthAdjust="spacing" textLength="54" x="776.75" y="31.1406">Trener</text><!--SRC=[RP9DRi8m48NtESKiGUe9OD5rLwr49QJkXcG09yQExAcYH5bLgde6n34u0d2lZWCu2SARMCvxCz_yjBw5HUsPTadBBNmwCkGIp-WuMMkBhCm6Z6K2JMkUtGJGeBORMw6feGBV-HKzDIpZRr2UZQBy_2lsKgC9Vf9xVjwd2fDPwHhABuTKf9a5JqMQAtXt6pIgmJJ7g_JyDqWvJnoLX9o0dC4rdDQtyJvRrfT3fOWr2G8KADyCNHDZpdiRZsohqz75n8BLx5IesgDMyv7EOOXiom3TYV11TEUvOaArLPfWyXQRabdFvtqfBH4VIP5Sxu39xPG8NgVIFfZ8RHgw2nF6OfeyAKrBb-iOgqwt8TeLubvPJnjJvWFME-T3O5j8HQLbUN5P8q_OHnsNz34GIHtrohhlv_mXrUohRnPa6WVB8V1nF4BZBpyTTMahXPcLyGi4t4PoNPf2ooEVZbLds8HT3O4wqu3yDiMvBBejdwxj0eN4ODpEu12dDVWooX_gwxZ6wVy1]--></g></svg>